<?xml version="1.0" encoding="utf-8" ?>
<svg baseProfile="tiny" height="100%" version="1.2" width="100%" xmlns="http://www.w3.org/2000/svg" xmlns:ev="http://www.w3.org/2001/xml-events" xmlns:xlink="http://www.w3.org/1999/xlink"><defs /><rect fill="black" height="100%" width="100%" x="0" y="0" /><circle cx="409" cy="394" fill="white" r="1" /><circle cx="411" cy="394" fill="white" r="1" /><circle cx="409" cy="395" fill="white" r="1" /><circle cx="410" cy="396" fill="white" r="1" /><circle cx="420" cy="405" fill="white" r="1" /><circle cx="421" cy="405" fill="white" r="1" /><circle cx="419" cy="406" fill="white" r="1" /><circle cx="108" cy="585" fill="white" r="1" /><circle cx="109" cy="585" fill="white" r="1" /><circle cx="108" cy="586" fill="white" r="1" /><circle cx="112" cy="586" fill="white" r="1" /><circle cx="107" cy="587" fill="white" r="1" /><circle cx="112" cy="587" fill="white" r="1" /><circle cx="108" cy="588" fill="white" r="1" /><circle cx="110" cy="588" fill="white" r="1" /><circle cx="113" cy="588" fill="white" r="1" /><circle cx="114" cy="588" fill="white" r="1" /><circle cx="108" cy="589" fill="white" r="1" /><circle cx="109" cy="589" fill="white" r="1" /><circle cx="111" cy="589" fill="white" r="1" /><circle cx="113" cy="589" fill="white" r="1" /><circle cx="116" cy="589" fill="white" r="1" /><circle cx="117" cy="589" fill="white" r="1" /><circle cx="111" cy="590" fill="white" r="1" /><circle cx="106" cy="591" fill="white" r="1" /><circle cx="107" cy="591" fill="white" r="1" /><circle cx="116" cy="591" fill="white" r="1" /><circle cx="117" cy="591" fill="white" r="1" /><circle cx="105" cy="592" fill="white" r="1" /><circle cx="114" cy="592" fill="white" r="1" /><circle cx="116" cy="592" fill="white" r="1" /><circle cx="105" cy="593" fill="white" r="1" /><circle cx="114" cy="593" fill="white" r="1" /><circle cx="116" cy="593" fill="white" r="1" /><circle cx="107" cy="594" fill="white" r="1" /><circle cx="114" cy="594" fill="white" r="1" /><circle cx="115" cy="594" fill="white" r="1" /><circle cx="116" cy="594" fill="white" r="1" /><circle cx="120" cy="597" fill="white" r="1" /><circle cx="130" cy="600" fill="white" r="1" /><circle cx="132" cy="601" fill="white" r="1" /><circle cx="133" cy="601" fill="white" r="1" /><circle cx="125" cy="602" fill="white" r="1" /><circle cx="126" cy="602" fill="white" r="1" /><circle cx="127" cy="603" fill="white" r="1" /><circle cx="129" cy="603" fill="white" r="1" /><circle cx="131" cy="603" fill="white" r="1" /><circle cx="133" cy="603" fill="white" r="1" /><circle cx="127" cy="604" fill="white" r="1" /><circle cx="128" cy="604" fill="white" r="1" /><circle cx="132" cy="604" fill="white" r="1" /><circle cx="134" cy="604" fill="white" r="1" /><circle cx="135" cy="604" fill="white" r="1" /><circle cx="128" cy="605" fill="white" r="1" /><circle cx="129" cy="606" fill="white" r="1" /><circle cx="132" cy="606" fill="white" r="1" /><circle cx="133" cy="606" fill="white" r="1" /><circle cx="134" cy="606" fill="white" r="1" /><circle cx="135" cy="606" fill="white" r="1" /><circle cx="152" cy="606" fill="white" r="1" /><circle cx="154" cy="606" fill="white" r="1" /><circle cx="155" cy="606" fill="white" r="1" /><circle cx="156" cy="606" fill="white" r="1" /><circle cx="157" cy="606" fill="white" r="1" /><circle cx="136" cy="607" fill="white" r="1" /><circle cx="137" cy="607" fill="white" r="1" /><circle cx="138" cy="607" fill="white" r="1" /><circle cx="139" cy="607" fill="white" r="1" /><circle cx="140" cy="607" fill="white" r="1" /><circle cx="141" cy="607" fill="white" r="1" /><circle cx="142" cy="607" fill="white" r="1" /><circle cx="143" cy="607" fill="white" r="1" /><circle cx="152" cy="607" fill="white" r="1" /><circle cx="155" cy="607" fill="white" r="1" /><circle cx="157" cy="607" fill="white" r="1" /><circle cx="130" cy="608" fill="white" r="1" /><circle cx="133" cy="608" fill="white" r="1" /><circle cx="134" cy="608" fill="white" r="1" /><circle cx="143" cy="608" fill="white" r="1" /><circle cx="152" cy="608" fill="white" r="1" /><circle cx="157" cy="608" fill="white" r="1" /><circle cx="78" cy="609" fill="white" r="1" /><circle cx="130" cy="609" fill="white" r="1" /><circle cx="132" cy="609" fill="white" r="1" /><circle cx="135" cy="609" fill="white" r="1" /><circle cx="139" cy="609" fill="white" r="1" /><circle cx="140" cy="609" fill="white" r="1" /><circle cx="141" cy="609" fill="white" r="1" /><circle cx="153" cy="609" fill="white" r="1" /><circle cx="154" cy="609" fill="white" r="1" /><circle cx="157" cy="609" fill="white" r="1" /><circle cx="166" cy="609" fill="white" r="1" /><circle cx="167" cy="609" fill="white" r="1" /><circle cx="79" cy="610" fill="white" r="1" /><circle cx="80" cy="610" fill="white" r="1" /><circle cx="130" cy="610" fill="white" r="1" /><circle cx="132" cy="610" fill="white" r="1" /><circle cx="135" cy="610" fill="white" r="1" /><circle cx="141" cy="610" fill="white" r="1" /><circle cx="149" cy="610" fill="white" r="1" /><circle cx="150" cy="610" fill="white" r="1" /><circle cx="151" cy="610" fill="white" r="1" /><circle cx="154" cy="610" fill="white" r="1" /><circle cx="157" cy="610" fill="white" r="1" /><circle cx="166" cy="610" fill="white" r="1" /><circle cx="130" cy="611" fill="white" r="1" /><circle cx="135" cy="611" fill="white" r="1" /><circle cx="139" cy="611" fill="white" r="1" /><circle cx="140" cy="611" fill="white" r="1" /><circle cx="142" cy="611" fill="white" r="1" /><circle cx="145" cy="611" fill="white" r="1" /><circle cx="146" cy="611" fill="white" r="1" /><circle cx="149" cy="611" fill="white" r="1" /><circle cx="154" cy="611" fill="white" r="1" /><circle cx="159" cy="611" fill="white" r="1" /><circle cx="161" cy="611" fill="white" r="1" /><circle cx="166" cy="611" fill="white" r="1" /><circle cx="131" cy="612" fill="white" r="1" /><circle cx="132" cy="612" fill="white" r="1" /><circle cx="135" cy="612" fill="white" r="1" /><circle cx="138" cy="612" fill="white" r="1" /><circle cx="140" cy="612" fill="white" r="1" /><circle cx="142" cy="612" fill="white" r="1" /><circle cx="144" cy="612" fill="white" r="1" /><circle cx="150" cy="612" fill="white" r="1" /><circle cx="154" cy="612" fill="white" r="1" /><circle cx="157" cy="612" fill="white" r="1" /><circle cx="164" cy="612" fill="white" r="1" /><circle cx="72" cy="613" fill="white" r="1" /><circle cx="73" cy="613" fill="white" r="1" /><circle cx="134" cy="613" fill="white" r="1" /><circle cx="136" cy="613" fill="white" r="1" /><circle cx="149" cy="613" fill="white" r="1" /><circle cx="153" cy="613" fill="white" r="1" /><circle cx="160" cy="613" fill="white" r="1" /><circle cx="72" cy="614" fill="white" r="1" /><circle cx="74" cy="614" fill="white" r="1" /><circle cx="136" cy="614" fill="white" r="1" /><circle cx="138" cy="614" fill="white" r="1" /><circle cx="139" cy="614" fill="white" r="1" /><circle cx="140" cy="614" fill="white" r="1" /><circle cx="144" cy="614" fill="white" r="1" /><circle cx="145" cy="614" fill="white" r="1" /><circle cx="153" cy="614" fill="white" r="1" /><circle cx="159" cy="614" fill="white" r="1" /><circle cx="161" cy="614" fill="white" r="1" /><circle cx="163" cy="614" fill="white" r="1" /><circle cx="73" cy="615" fill="white" r="1" /><circle cx="131" cy="615" fill="white" r="1" /><circle cx="135" cy="615" fill="white" r="1" /><circle cx="138" cy="615" fill="white" r="1" /><circle cx="140" cy="615" fill="white" r="1" /><circle cx="141" cy="615" fill="white" r="1" /><circle cx="142" cy="615" fill="white" r="1" /><circle cx="143" cy="615" fill="white" r="1" /><circle cx="146" cy="615" fill="white" r="1" /><circle cx="147" cy="615" fill="white" r="1" /><circle cx="152" cy="615" fill="white" r="1" /><circle cx="156" cy="615" fill="white" r="1" /><circle cx="159" cy="615" fill="white" r="1" /><circle cx="161" cy="615" fill="white" r="1" /><circle cx="163" cy="615" fill="white" r="1" /><circle cx="130" cy="616" fill="white" r="1" /><circle cx="131" cy="616" fill="white" r="1" /><circle cx="132" cy="616" fill="white" r="1" /><circle cx="133" cy="616" fill="white" r="1" /><circle cx="134" cy="616" fill="white" r="1" /><circle cx="159" cy="616" fill="white" r="1" /><circle cx="161" cy="616" fill="white" r="1" /><circle cx="129" cy="617" fill="white" r="1" /><circle cx="136" cy="617" fill="white" r="1" /><circle cx="139" cy="617" fill="white" r="1" /><circle cx="140" cy="617" fill="white" r="1" /><circle cx="141" cy="617" fill="white" r="1" /><circle cx="142" cy="617" fill="white" r="1" /><circle cx="143" cy="617" fill="white" r="1" /><circle cx="158" cy="617" fill="white" r="1" /><circle cx="159" cy="617" fill="white" r="1" /><circle cx="167" cy="617" fill="white" r="1" /><circle cx="168" cy="617" fill="white" r="1" /><circle cx="128" cy="618" fill="white" r="1" /><circle cx="136" cy="618" fill="white" r="1" /><circle cx="137" cy="618" fill="white" r="1" /><circle cx="138" cy="618" fill="white" r="1" /><circle cx="148" cy="618" fill="white" r="1" /><circle cx="149" cy="618" fill="white" r="1" /><circle cx="150" cy="618" fill="white" r="1" /><circle cx="151" cy="618" fill="white" r="1" /><circle cx="152" cy="618" fill="white" r="1" /><circle cx="167" cy="618" fill="white" r="1" /><circle cx="169" cy="618" fill="white" r="1" /><circle cx="128" cy="619" fill="white" r="1" /><circle cx="132" cy="619" fill="white" r="1" /><circle cx="133" cy="619" fill="white" r="1" /><circle cx="147" cy="619" fill="white" r="1" /><circle cx="153" cy="619" fill="white" r="1" /><circle cx="155" cy="619" fill="white" r="1" /><circle cx="157" cy="619" fill="white" r="1" /><circle cx="158" cy="619" fill="white" r="1" /><circle cx="167" cy="619" fill="white" r="1" /><circle cx="169" cy="619" fill="white" r="1" /><circle cx="129" cy="620" fill="white" r="1" /><circle cx="130" cy="620" fill="white" r="1" /><circle cx="132" cy="620" fill="white" r="1" /><circle cx="134" cy="620" fill="white" r="1" /><circle cx="147" cy="620" fill="white" r="1" /><circle cx="148" cy="620" fill="white" r="1" /><circle cx="149" cy="620" fill="white" r="1" /><circle cx="150" cy="620" fill="white" r="1" /><circle cx="153" cy="620" fill="white" r="1" /><circle cx="155" cy="620" fill="white" r="1" /><circle cx="159" cy="620" fill="white" r="1" /><circle cx="167" cy="620" fill="white" r="1" /><circle cx="168" cy="620" fill="white" r="1" /><circle cx="169" cy="620" fill="white" r="1" /><circle cx="132" cy="621" fill="white" r="1" /><circle cx="134" cy="621" fill="white" r="1" /><circle cx="153" cy="621" fill="white" r="1" /><circle cx="156" cy="621" fill="white" r="1" /><circle cx="159" cy="621" fill="white" r="1" /><circle cx="161" cy="621" fill="white" r="1" /><circle cx="128" cy="622" fill="white" r="1" /><circle cx="129" cy="622" fill="white" r="1" /><circle cx="130" cy="622" fill="white" r="1" /><circle cx="133" cy="622" fill="white" r="1" /><circle cx="140" cy="622" fill="white" r="1" /><circle cx="141" cy="622" fill="white" r="1" /><circle cx="142" cy="622" fill="white" r="1" /><circle cx="143" cy="622" fill="white" r="1" /><circle cx="153" cy="622" fill="white" r="1" /><circle cx="156" cy="622" fill="white" r="1" /><circle cx="159" cy="622" fill="white" r="1" /><circle cx="161" cy="622" fill="white" r="1" /><circle cx="127" cy="623" fill="white" r="1" /><circle cx="139" cy="623" fill="white" r="1" /><circle cx="153" cy="623" fill="white" r="1" /><circle cx="155" cy="623" fill="white" r="1" /><circle cx="159" cy="623" fill="white" r="1" /><circle cx="161" cy="623" fill="white" r="1" /><circle cx="163" cy="623" fill="white" r="1" /><circle cx="127" cy="624" fill="white" r="1" /><circle cx="139" cy="624" fill="white" r="1" /><circle cx="141" cy="624" fill="white" r="1" /><circle cx="153" cy="624" fill="white" r="1" /><circle cx="157" cy="624" fill="white" r="1" /><circle cx="160" cy="624" fill="white" r="1" /><circle cx="161" cy="624" fill="white" r="1" /><circle cx="163" cy="624" fill="white" r="1" /><circle cx="126" cy="625" fill="white" r="1" /><circle cx="139" cy="625" fill="white" r="1" /><circle cx="140" cy="625" fill="white" r="1" /><circle cx="155" cy="625" fill="white" r="1" /><circle cx="156" cy="625" fill="white" r="1" /><circle cx="163" cy="625" fill="white" r="1" /><circle cx="126" cy="626" fill="white" r="1" /><circle cx="132" cy="626" fill="white" r="1" /><circle cx="135" cy="626" fill="white" r="1" /><circle cx="136" cy="626" fill="white" r="1" /><circle cx="142" cy="626" fill="white" r="1" /><circle cx="143" cy="626" fill="white" r="1" /><circle cx="154" cy="626" fill="white" r="1" /><circle cx="155" cy="626" fill="white" r="1" /><circle cx="163" cy="626" fill="white" r="1" /><circle cx="125" cy="627" fill="white" r="1" /><circle cx="134" cy="627" fill="white" r="1" /><circle cx="141" cy="627" fill="white" r="1" /><circle cx="154" cy="627" fill="white" r="1" /><circle cx="125" cy="628" fill="white" r="1" /><circle cx="154" cy="628" fill="white" r="1" /><circle cx="125" cy="629" fill="white" r="1" /><circle cx="154" cy="629" fill="white" r="1" /><circle cx="155" cy="629" fill="white" r="1" /><circle cx="125" cy="630" fill="white" r="1" /><circle cx="156" cy="630" fill="white" r="1" /><circle cx="124" cy="631" fill="white" r="1" /><circle cx="157" cy="631" fill="white" r="1" /><circle cx="122" cy="632" fill="white" r="1" /><circle cx="123" cy="632" fill="white" r="1" /><circle cx="157" cy="632" fill="white" r="1" /><circle cx="120" cy="633" fill="white" r="1" /><circle cx="121" cy="633" fill="white" r="1" /><circle cx="157" cy="633" fill="white" r="1" /><circle cx="120" cy="634" fill="white" r="1" /><circle cx="156" cy="634" fill="white" r="1" /><circle cx="157" cy="634" fill="white" r="1" /><circle cx="119" cy="635" fill="white" r="1" /><circle cx="120" cy="635" fill="white" r="1" /><circle cx="121" cy="635" fill="white" r="1" /><circle cx="122" cy="635" fill="white" r="1" /><circle cx="156" cy="635" fill="white" r="1" /><circle cx="158" cy="635" fill="white" r="1" /><circle cx="114" cy="636" fill="white" r="1" /><circle cx="116" cy="636" fill="white" r="1" /><circle cx="156" cy="636" fill="white" r="1" /><circle cx="157" cy="636" fill="white" r="1" /><circle cx="114" cy="637" fill="white" r="1" /><circle cx="116" cy="637" fill="white" r="1" /><circle cx="117" cy="637" fill="white" r="1" /><circle cx="118" cy="637" fill="white" r="1" /><circle cx="120" cy="637" fill="white" r="1" /><circle cx="121" cy="637" fill="white" r="1" /><circle cx="122" cy="637" fill="white" r="1" /><circle cx="111" cy="638" fill="white" r="1" /><circle cx="112" cy="638" fill="white" r="1" /><circle cx="113" cy="638" fill="white" r="1" /><circle cx="114" cy="638" fill="white" r="1" /><circle cx="119" cy="638" fill="white" r="1" /><circle cx="155" cy="638" fill="white" r="1" /><circle cx="156" cy="638" fill="white" r="1" /><circle cx="157" cy="638" fill="white" r="1" /><circle cx="99" cy="639" fill="white" r="1" /><circle cx="108" cy="639" fill="white" r="1" /><circle cx="109" cy="639" fill="white" r="1" /><circle cx="110" cy="639" fill="white" r="1" /><circle cx="153" cy="639" fill="white" r="1" /><circle cx="154" cy="639" fill="white" r="1" /><circle cx="155" cy="639" fill="white" r="1" /><circle cx="99" cy="640" fill="white" r="1" /><circle cx="103" cy="640" fill="white" r="1" /><circle cx="104" cy="640" fill="white" r="1" /><circle cx="106" cy="640" fill="white" r="1" /><circle cx="107" cy="640" fill="white" r="1" /><circle cx="151" cy="640" fill="white" r="1" /><circle cx="152" cy="640" fill="white" r="1" /><circle cx="95" cy="641" fill="white" r="1" /><circle cx="96" cy="641" fill="white" r="1" /><circle cx="100" cy="641" fill="white" r="1" /><circle cx="101" cy="641" fill="white" r="1" /><circle cx="102" cy="641" fill="white" r="1" /><circle cx="106" cy="641" fill="white" r="1" /><circle cx="134" cy="641" fill="white" r="1" /><circle cx="151" cy="641" fill="white" r="1" /><circle cx="94" cy="642" fill="white" r="1" /><circle cx="95" cy="642" fill="white" r="1" /><circle cx="106" cy="642" fill="white" r="1" /><circle cx="152" cy="642" fill="white" r="1" /><circle cx="153" cy="642" fill="white" r="1" /><circle cx="94" cy="643" fill="white" r="1" /><circle cx="95" cy="643" fill="white" r="1" /><circle cx="153" cy="643" fill="white" r="1" /><circle cx="154" cy="644" fill="white" r="1" /><circle cx="94" cy="645" fill="white" r="1" /><circle cx="153" cy="645" fill="white" r="1" /><circle cx="94" cy="646" fill="white" r="1" /><circle cx="95" cy="646" fill="white" r="1" /><circle cx="102" cy="646" fill="white" r="1" /><circle cx="103" cy="646" fill="white" r="1" /><circle cx="104" cy="646" fill="white" r="1" /><circle cx="153" cy="646" fill="white" r="1" /><circle cx="95" cy="647" fill="white" r="1" /><circle cx="102" cy="647" fill="white" r="1" /><circle cx="104" cy="647" fill="white" r="1" /><circle cx="149" cy="647" fill="white" r="1" /><circle cx="153" cy="647" fill="white" r="1" /><circle cx="89" cy="648" fill="white" r="1" /><circle cx="94" cy="648" fill="white" r="1" /><circle cx="95" cy="648" fill="white" r="1" /><circle cx="102" cy="648" fill="white" r="1" /><circle cx="103" cy="648" fill="white" r="1" /><circle cx="104" cy="648" fill="white" r="1" /><circle cx="149" cy="648" fill="white" r="1" /><circle cx="153" cy="648" fill="white" r="1" /><circle cx="90" cy="649" fill="white" r="1" /><circle cx="91" cy="649" fill="white" r="1" /><circle cx="92" cy="649" fill="white" r="1" /><circle cx="93" cy="649" fill="white" r="1" /><circle cx="100" cy="649" fill="white" r="1" /><circle cx="101" cy="649" fill="white" r="1" /><circle cx="150" cy="649" fill="white" r="1" /><circle cx="151" cy="649" fill="white" r="1" /><circle cx="152" cy="649" fill="white" r="1" /><circle cx="153" cy="649" fill="white" r="1" /><circle cx="100" cy="650" fill="white" r="1" /><circle cx="147" cy="650" fill="white" r="1" /><circle cx="148" cy="650" fill="white" r="1" /><circle cx="89" cy="651" fill="white" r="1" /><circle cx="100" cy="651" fill="white" r="1" /><circle cx="147" cy="651" fill="white" r="1" /><circle cx="89" cy="652" fill="white" r="1" /><circle cx="96" cy="652" fill="white" r="1" /><circle cx="147" cy="652" fill="white" r="1" /><circle cx="148" cy="652" fill="white" r="1" /><circle cx="85" cy="653" fill="white" r="1" /><circle cx="87" cy="653" fill="white" r="1" /><circle cx="89" cy="653" fill="white" r="1" /><circle cx="148" cy="653" fill="white" r="1" /><circle cx="84" cy="654" fill="white" r="1" /><circle cx="88" cy="654" fill="white" r="1" /><circle cx="146" cy="654" fill="white" r="1" /><circle cx="147" cy="654" fill="white" r="1" /><circle cx="148" cy="654" fill="white" r="1" /><circle cx="83" cy="655" fill="white" r="1" /><circle cx="88" cy="655" fill="white" r="1" /><circle cx="91" cy="655" fill="white" r="1" /><circle cx="93" cy="655" fill="white" r="1" /><circle cx="94" cy="655" fill="white" r="1" /><circle cx="145" cy="655" fill="white" r="1" /><circle cx="151" cy="655" fill="white" r="1" /><circle cx="80" cy="656" fill="white" r="1" /><circle cx="81" cy="656" fill="white" r="1" /><circle cx="83" cy="656" fill="white" r="1" /><circle cx="86" cy="656" fill="white" r="1" /><circle cx="88" cy="656" fill="white" r="1" /><circle cx="145" cy="656" fill="white" r="1" /><circle cx="151" cy="656" fill="white" r="1" /><circle cx="80" cy="657" fill="white" r="1" /><circle cx="86" cy="657" fill="white" r="1" /><circle cx="150" cy="657" fill="white" r="1" /><circle cx="152" cy="657" fill="white" r="1" /><circle cx="79" cy="658" fill="white" r="1" /><circle cx="80" cy="658" fill="white" r="1" /><circle cx="150" cy="658" fill="white" r="1" /><circle cx="79" cy="659" fill="white" r="1" /><circle cx="147" cy="659" fill="white" r="1" /><circle cx="78" cy="660" fill="white" r="1" /><circle cx="79" cy="660" fill="white" r="1" /><circle cx="98" cy="660" fill="white" r="1" /><circle cx="140" cy="660" fill="white" r="1" /><circle cx="141" cy="660" fill="white" r="1" /><circle cx="143" cy="660" fill="white" r="1" /><circle cx="144" cy="660" fill="white" r="1" /><circle cx="146" cy="660" fill="white" r="1" /><circle cx="81" cy="661" fill="white" r="1" /><circle cx="82" cy="661" fill="white" r="1" /><circle cx="86" cy="661" fill="white" r="1" /><circle cx="87" cy="661" fill="white" r="1" /><circle cx="88" cy="661" fill="white" r="1" /><circle cx="89" cy="661" fill="white" r="1" /><circle cx="140" cy="661" fill="white" r="1" /><circle cx="143" cy="661" fill="white" r="1" /><circle cx="146" cy="661" fill="white" r="1" /><circle cx="78" cy="662" fill="white" r="1" /><circle cx="79" cy="662" fill="white" r="1" /><circle cx="80" cy="662" fill="white" r="1" /><circle cx="85" cy="662" fill="white" r="1" /><circle cx="141" cy="662" fill="white" r="1" /><circle cx="80" cy="663" fill="white" r="1" /><circle cx="85" cy="663" fill="white" r="1" /><circle cx="87" cy="663" fill="white" r="1" /><circle cx="91" cy="663" fill="white" r="1" /><circle cx="142" cy="663" fill="white" r="1" /><circle cx="81" cy="664" fill="white" r="1" /><circle cx="82" cy="664" fill="white" r="1" /><circle cx="83" cy="664" fill="white" r="1" /><circle cx="84" cy="664" fill="white" r="1" /><circle cx="85" cy="664" fill="white" r="1" /><circle cx="87" cy="664" fill="white" r="1" /><circle cx="88" cy="664" fill="white" r="1" /><circle cx="89" cy="664" fill="white" r="1" /><circle cx="92" cy="664" fill="white" r="1" /><circle cx="96" cy="664" fill="white" r="1" /><circle cx="97" cy="664" fill="white" r="1" /><circle cx="98" cy="664" fill="white" r="1" /><circle cx="99" cy="664" fill="white" r="1" /><circle cx="100" cy="664" fill="white" r="1" /><circle cx="142" cy="664" fill="white" r="1" /><circle cx="93" cy="665" fill="white" r="1" /><circle cx="94" cy="665" fill="white" r="1" /><circle cx="95" cy="665" fill="white" r="1" /><circle cx="137" cy="665" fill="white" r="1" /><circle cx="142" cy="665" fill="white" r="1" /><circle cx="144" cy="665" fill="white" r="1" /><circle cx="145" cy="665" fill="white" r="1" /><circle cx="96" cy="666" fill="white" r="1" /><circle cx="137" cy="666" fill="white" r="1" /><circle cx="96" cy="667" fill="white" r="1" /><circle cx="98" cy="667" fill="white" r="1" /><circle cx="100" cy="667" fill="white" r="1" /><circle cx="138" cy="667" fill="white" r="1" /><circle cx="139" cy="667" fill="white" r="1" /><circle cx="140" cy="667" fill="white" r="1" /><circle cx="141" cy="667" fill="white" r="1" /><circle cx="142" cy="667" fill="white" r="1" /><circle cx="143" cy="667" fill="white" r="1" /><circle cx="144" cy="667" fill="white" r="1" /><circle cx="137" cy="668" fill="white" r="1" /><circle cx="100" cy="669" fill="white" r="1" /><circle cx="137" cy="669" fill="white" r="1" /><circle cx="100" cy="670" fill="white" r="1" /><circle cx="136" cy="670" fill="white" r="1" /><circle cx="100" cy="671" fill="white" r="1" /><circle cx="136" cy="671" fill="white" r="1" /><circle cx="100" cy="672" fill="white" r="1" /><circle cx="133" cy="672" fill="white" r="1" /><circle cx="134" cy="672" fill="white" r="1" /><circle cx="135" cy="672" fill="white" r="1" /><circle cx="99" cy="673" fill="white" r="1" /><circle cx="102" cy="673" fill="white" r="1" /><circle cx="119" cy="673" fill="white" r="1" /><circle cx="120" cy="673" fill="white" r="1" /><circle cx="121" cy="673" fill="white" r="1" /><circle cx="126" cy="673" fill="white" r="1" /><circle cx="127" cy="673" fill="white" r="1" /><circle cx="130" cy="673" fill="white" r="1" /><circle cx="131" cy="673" fill="white" r="1" /><circle cx="99" cy="674" fill="white" r="1" /><circle cx="102" cy="674" fill="white" r="1" /><circle cx="113" cy="674" fill="white" r="1" /><circle cx="114" cy="674" fill="white" r="1" /><circle cx="115" cy="674" fill="white" r="1" /><circle cx="116" cy="674" fill="white" r="1" /><circle cx="117" cy="674" fill="white" r="1" /><circle cx="118" cy="674" fill="white" r="1" /><circle cx="122" cy="674" fill="white" r="1" /><circle cx="123" cy="674" fill="white" r="1" /><circle cx="124" cy="674" fill="white" r="1" /><circle cx="125" cy="674" fill="white" r="1" /><circle cx="128" cy="674" fill="white" r="1" /><circle cx="129" cy="674" fill="white" r="1" /><circle cx="102" cy="675" fill="white" r="1" /><circle cx="103" cy="675" fill="white" r="1" /><circle cx="112" cy="675" fill="white" r="1" /><circle cx="111" cy="676" fill="white" r="1" /><circle cx="100" cy="677" fill="white" r="1" /><circle cx="101" cy="677" fill="white" r="1" /><circle cx="105" cy="677" fill="white" r="1" /><circle cx="111" cy="677" fill="white" r="1" /><circle cx="100" cy="678" fill="white" r="1" /><circle cx="104" cy="678" fill="white" r="1" /><circle cx="106" cy="678" fill="white" r="1" /><circle cx="107" cy="678" fill="white" r="1" /><circle cx="111" cy="678" fill="white" r="1" /><circle cx="98" cy="679" fill="white" r="1" /><circle cx="100" cy="679" fill="white" r="1" /><circle cx="111" cy="679" fill="white" r="1" /><circle cx="98" cy="680" fill="white" r="1" /><circle cx="101" cy="680" fill="white" r="1" /><circle cx="104" cy="680" fill="white" r="1" /><circle cx="106" cy="680" fill="white" r="1" /><circle cx="107" cy="680" fill="white" r="1" /><circle cx="111" cy="680" fill="white" r="1" /><circle cx="98" cy="681" fill="white" r="1" /><circle cx="101" cy="681" fill="white" r="1" /><circle cx="103" cy="681" fill="white" r="1" /><circle cx="104" cy="681" fill="white" r="1" /><circle cx="106" cy="681" fill="white" r="1" /><circle cx="108" cy="681" fill="white" r="1" /><circle cx="109" cy="681" fill="white" r="1" /><circle cx="111" cy="681" fill="white" r="1" /><circle cx="101" cy="682" fill="white" r="1" /><circle cx="106" cy="682" fill="white" r="1" /><circle cx="111" cy="682" fill="white" r="1" /><circle cx="103" cy="683" fill="white" r="1" /><circle cx="104" cy="683" fill="white" r="1" /><circle cx="105" cy="683" fill="white" r="1" /><circle cx="108" cy="683" fill="white" r="1" /><circle cx="110" cy="683" fill="white" r="1" /><circle cx="109" cy="684" fill="white" r="1" /><circle cx="110" cy="684" fill="white" r="1" /><circle cx="95" cy="685" fill="white" r="1" /><circle cx="108" cy="685" fill="white" r="1" /><circle cx="109" cy="685" fill="white" r="1" /><circle cx="94" cy="686" fill="white" r="1" /><circle cx="96" cy="686" fill="white" r="1" /><circle cx="98" cy="686" fill="white" r="1" /><circle cx="108" cy="686" fill="white" r="1" /><circle cx="94" cy="687" fill="white" r="1" /><circle cx="104" cy="687" fill="white" r="1" /><circle cx="105" cy="687" fill="white" r="1" /><circle cx="108" cy="687" fill="white" r="1" /><circle cx="109" cy="687" fill="white" r="1" /><circle cx="110" cy="687" fill="white" r="1" /><circle cx="101" cy="688" fill="white" r="1" /><circle cx="102" cy="688" fill="white" r="1" /><circle cx="103" cy="688" fill="white" r="1" /><circle cx="110" cy="688" fill="white" r="1" /><circle cx="93" cy="689" fill="white" r="1" /><circle cx="94" cy="689" fill="white" r="1" /><circle cx="95" cy="689" fill="white" r="1" /><circle cx="101" cy="689" fill="white" r="1" /><circle cx="103" cy="689" fill="white" r="1" /><circle cx="110" cy="689" fill="white" r="1" /><circle cx="91" cy="690" fill="white" r="1" /><circle cx="92" cy="690" fill="white" r="1" /><circle cx="97" cy="690" fill="white" r="1" /><circle cx="98" cy="690" fill="white" r="1" /><circle cx="101" cy="690" fill="white" r="1" /><circle cx="103" cy="690" fill="white" r="1" /><circle cx="110" cy="690" fill="white" r="1" /><circle cx="91" cy="691" fill="white" r="1" /><circle cx="93" cy="691" fill="white" r="1" /><circle cx="101" cy="691" fill="white" r="1" /><circle cx="103" cy="691" fill="white" r="1" /><circle cx="110" cy="691" fill="white" r="1" /><circle cx="86" cy="692" fill="white" r="1" /><circle cx="87" cy="692" fill="white" r="1" /><circle cx="88" cy="692" fill="white" r="1" /><circle cx="91" cy="692" fill="white" r="1" /><circle cx="92" cy="692" fill="white" r="1" /><circle cx="93" cy="692" fill="white" r="1" /><circle cx="97" cy="692" fill="white" r="1" /><circle cx="98" cy="692" fill="white" r="1" /><circle cx="108" cy="692" fill="white" r="1" /><circle cx="109" cy="692" fill="white" r="1" /><circle cx="110" cy="692" fill="white" r="1" /><circle cx="85" cy="693" fill="white" r="1" /><circle cx="84" cy="694" fill="white" r="1" /><circle cx="87" cy="694" fill="white" r="1" /><circle cx="90" cy="694" fill="white" r="1" /><circle cx="91" cy="694" fill="white" r="1" /><circle cx="92" cy="694" fill="white" r="1" /><circle cx="93" cy="694" fill="white" r="1" /><circle cx="108" cy="694" fill="white" r="1" /><circle cx="109" cy="694" fill="white" r="1" /><circle cx="110" cy="694" fill="white" r="1" /><circle cx="111" cy="694" fill="white" r="1" /><circle cx="112" cy="694" fill="white" r="1" /><circle cx="113" cy="694" fill="white" r="1" /><circle cx="114" cy="694" fill="white" r="1" /><circle cx="83" cy="695" fill="white" r="1" /><circle cx="83" cy="696" fill="white" r="1" /><circle cx="85" cy="696" fill="white" r="1" /><circle cx="88" cy="696" fill="white" r="1" /><circle cx="113" cy="696" fill="white" r="1" /><circle cx="114" cy="696" fill="white" r="1" /><circle cx="83" cy="697" fill="white" r="1" /><circle cx="85" cy="697" fill="white" r="1" /><circle cx="87" cy="697" fill="white" r="1" /><circle cx="88" cy="697" fill="white" r="1" /><circle cx="112" cy="697" fill="white" r="1" /><circle cx="83" cy="698" fill="white" r="1" /><circle cx="84" cy="698" fill="white" r="1" /><circle cx="87" cy="698" fill="white" r="1" /><circle cx="101" cy="698" fill="white" r="1" /><circle cx="103" cy="698" fill="white" r="1" /><circle cx="112" cy="698" fill="white" r="1" /><circle cx="112" cy="699" fill="white" r="1" /><circle cx="87" cy="700" fill="white" r="1" /><circle cx="110" cy="700" fill="white" r="1" /><circle cx="111" cy="700" fill="white" r="1" /><circle cx="114" cy="700" fill="white" r="1" /><circle cx="96" cy="701" fill="white" r="1" /><circle cx="110" cy="701" fill="white" r="1" /><circle cx="86" cy="702" fill="white" r="1" /><circle cx="95" cy="702" fill="white" r="1" /><circle cx="97" cy="702" fill="white" r="1" /><circle cx="110" cy="702" fill="white" r="1" /><circle cx="86" cy="703" fill="white" r="1" /><circle cx="88" cy="703" fill="white" r="1" /><circle cx="89" cy="703" fill="white" r="1" /><circle cx="90" cy="703" fill="white" r="1" /><circle cx="94" cy="703" fill="white" r="1" /><circle cx="97" cy="703" fill="white" r="1" /><circle cx="110" cy="703" fill="white" r="1" /><circle cx="114" cy="703" fill="white" r="1" /><circle cx="86" cy="704" fill="white" r="1" /><circle cx="90" cy="704" fill="white" r="1" /><circle cx="91" cy="704" fill="white" r="1" /><circle cx="92" cy="704" fill="white" r="1" /><circle cx="93" cy="704" fill="white" r="1" /><circle cx="97" cy="704" fill="white" r="1" /><circle cx="99" cy="704" fill="white" r="1" /><circle cx="110" cy="704" fill="white" r="1" /><circle cx="114" cy="704" fill="white" r="1" /><circle cx="86" cy="705" fill="white" r="1" /><circle cx="91" cy="705" fill="white" r="1" /><circle cx="99" cy="705" fill="white" r="1" /><circle cx="110" cy="705" fill="white" r="1" /><circle cx="40" cy="706" fill="white" r="1" /><circle cx="87" cy="706" fill="white" r="1" /><circle cx="88" cy="706" fill="white" r="1" /><circle cx="91" cy="706" fill="white" r="1" /><circle cx="99" cy="706" fill="white" r="1" /><circle cx="102" cy="706" fill="white" r="1" /><circle cx="103" cy="706" fill="white" r="1" /><circle cx="104" cy="706" fill="white" r="1" /><circle cx="109" cy="706" fill="white" r="1" /><circle cx="36" cy="707" fill="white" r="1" /><circle cx="37" cy="707" fill="white" r="1" /><circle cx="38" cy="707" fill="white" r="1" /><circle cx="39" cy="707" fill="white" r="1" /><circle cx="99" cy="707" fill="white" r="1" /><circle cx="104" cy="707" fill="white" r="1" /><circle cx="105" cy="707" fill="white" r="1" /><circle cx="106" cy="707" fill="white" r="1" /><circle cx="109" cy="707" fill="white" r="1" /><circle cx="111" cy="707" fill="white" r="1" /><circle cx="112" cy="707" fill="white" r="1" /><circle cx="33" cy="708" fill="white" r="1" /><circle cx="34" cy="708" fill="white" r="1" /><circle cx="35" cy="708" fill="white" r="1" /><circle cx="42" cy="708" fill="white" r="1" /><circle cx="99" cy="708" fill="white" r="1" /><circle cx="102" cy="708" fill="white" r="1" /><circle cx="103" cy="708" fill="white" r="1" /><circle cx="106" cy="708" fill="white" r="1" /><circle cx="109" cy="708" fill="white" r="1" /><circle cx="112" cy="708" fill="white" r="1" /><circle cx="31" cy="709" fill="white" r="1" /><circle cx="39" cy="709" fill="white" r="1" /><circle cx="40" cy="709" fill="white" r="1" /><circle cx="41" cy="709" fill="white" r="1" /><circle cx="99" cy="709" fill="white" r="1" /><circle cx="106" cy="709" fill="white" r="1" /><circle cx="109" cy="709" fill="white" r="1" /><circle cx="111" cy="709" fill="white" r="1" /><circle cx="112" cy="709" fill="white" r="1" /><circle cx="30" cy="710" fill="white" r="1" /><circle cx="34" cy="710" fill="white" r="1" /><circle cx="100" cy="710" fill="white" r="1" /><circle cx="102" cy="710" fill="white" r="1" /><circle cx="103" cy="710" fill="white" r="1" /><circle cx="104" cy="710" fill="white" r="1" /><circle cx="107" cy="710" fill="white" r="1" /><circle cx="108" cy="710" fill="white" r="1" /><circle cx="109" cy="710" fill="white" r="1" /><circle cx="27" cy="711" fill="white" r="1" /><circle cx="28" cy="711" fill="white" r="1" /><circle cx="29" cy="711" fill="white" r="1" /><circle cx="32" cy="711" fill="white" r="1" /><circle cx="100" cy="711" fill="white" r="1" /><circle cx="21" cy="712" fill="white" r="1" /><circle cx="22" cy="712" fill="white" r="1" /><circle cx="23" cy="712" fill="white" r="1" /><circle cx="26" cy="712" fill="white" r="1" /><circle cx="31" cy="712" fill="white" r="1" /><circle cx="20" cy="713" fill="white" r="1" /><circle cx="26" cy="713" fill="white" r="1" /><circle cx="28" cy="713" fill="white" r="1" /><circle cx="29" cy="713" fill="white" r="1" /><circle cx="20" cy="714" fill="white" r="1" /><circle cx="22" cy="714" fill="white" r="1" /><circle cx="23" cy="714" fill="white" r="1" /><circle cx="26" cy="714" fill="white" r="1" /><circle cx="28" cy="714" fill="white" r="1" /><circle cx="20" cy="715" fill="white" r="1" /><circle cx="22" cy="715" fill="white" r="1" /><circle cx="26" cy="715" fill="white" r="1" /><circle cx="28" cy="715" fill="white" r="1" /><circle cx="20" cy="716" fill="white" r="1" /><circle cx="21" cy="716" fill="white" r="1" /><circle cx="22" cy="716" fill="white" r="1" /><circle cx="15" cy="739" fill="white" r="1" /><circle cx="16" cy="739" fill="white" r="1" /><circle cx="17" cy="739" fill="white" r="1" /><circle cx="18" cy="739" fill="white" r="1" /><circle cx="15" cy="740" fill="white" r="1" /></svg>