<?xml version="1.0" encoding="utf-8" ?>
<svg baseProfile="tiny" height="100%" version="1.2" width="100%" xmlns="http://www.w3.org/2000/svg" xmlns:ev="http://www.w3.org/2001/xml-events" xmlns:xlink="http://www.w3.org/1999/xlink"><defs /><rect fill="black" height="100%" width="100%" x="0" y="0" /><circle cx="456" cy="672" fill="white" r="1" /><circle cx="457" cy="672" fill="white" r="1" /><circle cx="458" cy="673" fill="white" r="1" /><circle cx="459" cy="673" fill="white" r="1" /><circle cx="460" cy="673" fill="white" r="1" /><circle cx="461" cy="673" fill="white" r="1" /><circle cx="462" cy="673" fill="white" r="1" /><circle cx="463" cy="673" fill="white" r="1" /><circle cx="464" cy="673" fill="white" r="1" /><circle cx="456" cy="674" fill="white" r="1" /><circle cx="457" cy="674" fill="white" r="1" /><circle cx="465" cy="674" fill="white" r="1" /><circle cx="466" cy="674" fill="white" r="1" /><circle cx="467" cy="674" fill="white" r="1" /><circle cx="468" cy="674" fill="white" r="1" /><circle cx="469" cy="674" fill="white" r="1" /><circle cx="470" cy="674" fill="white" r="1" /><circle cx="471" cy="674" fill="white" r="1" /><circle cx="472" cy="674" fill="white" r="1" /><circle cx="473" cy="674" fill="white" r="1" /><circle cx="458" cy="675" fill="white" r="1" /><circle cx="459" cy="675" fill="white" r="1" /><circle cx="460" cy="675" fill="white" r="1" /><circle cx="461" cy="675" fill="white" r="1" /><circle cx="462" cy="675" fill="white" r="1" /><circle cx="473" cy="675" fill="white" r="1" /><circle cx="463" cy="676" fill="white" r="1" /><circle cx="464" cy="676" fill="white" r="1" /><circle cx="465" cy="676" fill="white" r="1" /><circle cx="466" cy="676" fill="white" r="1" /><circle cx="467" cy="676" fill="white" r="1" /><circle cx="468" cy="676" fill="white" r="1" /><circle cx="469" cy="676" fill="white" r="1" /><circle cx="470" cy="676" fill="white" r="1" /><circle cx="471" cy="676" fill="white" r="1" /><circle cx="472" cy="676" fill="white" r="1" /><circle cx="473" cy="676" fill="white" r="1" /></svg>