<?xml version="1.0" encoding="utf-8" ?>
<svg baseProfile="tiny" height="345" version="1.2" width="345" xmlns="http://www.w3.org/2000/svg" xmlns:ev="http://www.w3.org/2001/xml-events" xmlns:xlink="http://www.w3.org/1999/xlink"><defs /><rect fill="black" height="345" width="345" x="0" y="0" /><line stroke="white" stroke-width="1" x1="77" x2="84" y1="176" y2="176" /><line stroke="white" stroke-width="1" x1="73" x2="87" y1="177" y2="177" /><line stroke="white" stroke-width="1" x1="71" x2="89" y1="178" y2="178" /><line stroke="white" stroke-width="1" x1="62" x2="91" y1="179" y2="179" /><line stroke="white" stroke-width="1" x1="133" x2="134" y1="179" y2="179" /><line stroke="white" stroke-width="1" x1="59" x2="92" y1="180" y2="180" /><line stroke="white" stroke-width="1" x1="129" x2="138" y1="180" y2="180" /><line stroke="white" stroke-width="1" x1="57" x2="93" y1="181" y2="181" /><line stroke="white" stroke-width="1" x1="127" x2="140" y1="181" y2="181" /><line stroke="white" stroke-width="1" x1="53" x2="95" y1="182" y2="182" /><line stroke="white" stroke-width="1" x1="125" x2="141" y1="182" y2="182" /><line stroke="white" stroke-width="1" x1="51" x2="101" y1="183" y2="183" /><line stroke="white" stroke-width="1" x1="109" x2="151" y1="183" y2="183" /><line stroke="white" stroke-width="1" x1="50" x2="103" y1="184" y2="184" /><line stroke="white" stroke-width="1" x1="106" x2="154" y1="184" y2="184" /><line stroke="white" stroke-width="1" x1="50" x2="155" y1="185" y2="185" /><line stroke="white" stroke-width="1" x1="49" x2="159" y1="186" y2="186" /><line stroke="white" stroke-width="1" x1="48" x2="162" y1="187" y2="187" /><line stroke="white" stroke-width="1" x1="48" x2="164" y1="188" y2="188" /><line stroke="white" stroke-width="1" x1="47" x2="165" y1="189" y2="189" /><line stroke="white" stroke-width="1" x1="46" x2="166" y1="190" y2="190" /><line stroke="white" stroke-width="1" x1="46" x2="167" y1="191" y2="191" /><line stroke="white" stroke-width="1" x1="46" x2="168" y1="192" y2="192" /><line stroke="white" stroke-width="1" x1="45" x2="169" y1="193" y2="193" /><line stroke="white" stroke-width="1" x1="45" x2="169" y1="194" y2="194" /><line stroke="white" stroke-width="1" x1="45" x2="169" y1="195" y2="195" /><line stroke="white" stroke-width="1" x1="45" x2="170" y1="196" y2="196" /><line stroke="white" stroke-width="1" x1="44" x2="170" y1="197" y2="197" /><line stroke="white" stroke-width="1" x1="44" x2="170" y1="198" y2="198" /><line stroke="white" stroke-width="1" x1="44" x2="170" y1="199" y2="199" /><line stroke="white" stroke-width="1" x1="44" x2="170" y1="200" y2="200" /><line stroke="white" stroke-width="1" x1="44" x2="170" y1="201" y2="201" /><line stroke="white" stroke-width="1" x1="44" x2="170" y1="202" y2="202" /><line stroke="white" stroke-width="1" x1="44" x2="170" y1="203" y2="203" /><line stroke="white" stroke-width="1" x1="44" x2="170" y1="204" y2="204" /><line stroke="white" stroke-width="1" x1="44" x2="170" y1="205" y2="205" /><line stroke="white" stroke-width="1" x1="44" x2="170" y1="206" y2="206" /><line stroke="white" stroke-width="1" x1="44" x2="170" y1="207" y2="207" /><line stroke="white" stroke-width="1" x1="44" x2="170" y1="208" y2="208" /><line stroke="white" stroke-width="1" x1="44" x2="170" y1="209" y2="209" /><line stroke="white" stroke-width="1" x1="44" x2="170" y1="210" y2="210" /><line stroke="white" stroke-width="1" x1="44" x2="170" y1="211" y2="211" /><line stroke="white" stroke-width="1" x1="44" x2="170" y1="212" y2="212" /><line stroke="white" stroke-width="1" x1="44" x2="170" y1="213" y2="213" /><line stroke="white" stroke-width="1" x1="44" x2="170" y1="214" y2="214" /><line stroke="white" stroke-width="1" x1="44" x2="169" y1="215" y2="215" /><line stroke="white" stroke-width="1" x1="44" x2="169" y1="216" y2="216" /><line stroke="white" stroke-width="1" x1="44" x2="169" y1="217" y2="217" /><line stroke="white" stroke-width="1" x1="45" x2="169" y1="218" y2="218" /><line stroke="white" stroke-width="1" x1="45" x2="169" y1="219" y2="219" /><line stroke="white" stroke-width="1" x1="45" x2="168" y1="220" y2="220" /><line stroke="white" stroke-width="1" x1="45" x2="168" y1="221" y2="221" /><line stroke="white" stroke-width="1" x1="45" x2="168" y1="222" y2="222" /><line stroke="white" stroke-width="1" x1="45" x2="167" y1="223" y2="223" /><line stroke="white" stroke-width="1" x1="45" x2="167" y1="224" y2="224" /><line stroke="white" stroke-width="1" x1="45" x2="167" y1="225" y2="225" /><line stroke="white" stroke-width="1" x1="45" x2="166" y1="226" y2="226" /><line stroke="white" stroke-width="1" x1="46" x2="166" y1="227" y2="227" /><line stroke="white" stroke-width="1" x1="46" x2="166" y1="228" y2="228" /><line stroke="white" stroke-width="1" x1="46" x2="165" y1="229" y2="229" /><line stroke="white" stroke-width="1" x1="46" x2="165" y1="230" y2="230" /><line stroke="white" stroke-width="1" x1="46" x2="164" y1="231" y2="231" /><line stroke="white" stroke-width="1" x1="46" x2="164" y1="232" y2="232" /><line stroke="white" stroke-width="1" x1="47" x2="163" y1="233" y2="233" /><line stroke="white" stroke-width="1" x1="47" x2="163" y1="234" y2="234" /><line stroke="white" stroke-width="1" x1="47" x2="163" y1="235" y2="235" /><line stroke="white" stroke-width="1" x1="47" x2="162" y1="236" y2="236" /><line stroke="white" stroke-width="1" x1="48" x2="162" y1="237" y2="237" /><line stroke="white" stroke-width="1" x1="48" x2="161" y1="238" y2="238" /><line stroke="white" stroke-width="1" x1="48" x2="161" y1="239" y2="239" /><line stroke="white" stroke-width="1" x1="49" x2="160" y1="240" y2="240" /><line stroke="white" stroke-width="1" x1="49" x2="159" y1="241" y2="241" /><line stroke="white" stroke-width="1" x1="50" x2="159" y1="242" y2="242" /><line stroke="white" stroke-width="1" x1="50" x2="158" y1="243" y2="243" /><line stroke="white" stroke-width="1" x1="51" x2="156" y1="244" y2="244" /><line stroke="white" stroke-width="1" x1="51" x2="138" y1="245" y2="245" /><line stroke="white" stroke-width="1" x1="141" x2="155" y1="245" y2="245" /><line stroke="white" stroke-width="1" x1="52" x2="137" y1="246" y2="246" /><line stroke="white" stroke-width="1" x1="143" x2="153" y1="246" y2="246" /><line stroke="white" stroke-width="1" x1="53" x2="100" y1="247" y2="247" /><line stroke="white" stroke-width="1" x1="105" x2="136" y1="247" y2="247" /><line stroke="white" stroke-width="1" x1="54" x2="88" y1="248" y2="248" /><line stroke="white" stroke-width="1" x1="91" x2="98" y1="248" y2="248" /><line stroke="white" stroke-width="1" x1="106" x2="134" y1="248" y2="248" /><line stroke="white" stroke-width="1" x1="55" x2="86" y1="249" y2="249" /><line stroke="white" stroke-width="1" x1="107" x2="130" y1="249" y2="249" /><line stroke="white" stroke-width="1" x1="55" x2="86" y1="250" y2="250" /><line stroke="white" stroke-width="1" x1="108" x2="122" y1="250" y2="250" /><line stroke="white" stroke-width="1" x1="56" x2="85" y1="251" y2="251" /><line stroke="white" stroke-width="1" x1="111" x2="119" y1="251" y2="251" /><line stroke="white" stroke-width="1" x1="57" x2="84" y1="252" y2="252" /><line stroke="white" stroke-width="1" x1="59" x2="83" y1="253" y2="253" /><line stroke="white" stroke-width="1" x1="60" x2="82" y1="254" y2="254" /><line stroke="white" stroke-width="1" x1="62" x2="80" y1="255" y2="255" /><line stroke="white" stroke-width="1" x1="64" x2="78" y1="256" y2="256" /><line stroke="white" stroke-width="1" x1="68" x2="75" y1="257" y2="257" /></svg>