<?xml version="1.0" encoding="utf-8" ?>
<svg baseProfile="tiny" height="153" version="1.2" width="153" xmlns="http://www.w3.org/2000/svg" xmlns:ev="http://www.w3.org/2001/xml-events" xmlns:xlink="http://www.w3.org/1999/xlink"><defs /><rect fill="black" height="153" width="153" x="0" y="0" /><line stroke="white" stroke-width="1" x1="125" x2="126" y1="133" y2="133" /><line stroke="white" stroke-width="1" x1="126" x2="127" y1="134" y2="134" /><line stroke="white" stroke-width="1" x1="126" x2="127" y1="135" y2="135" /><line stroke="white" stroke-width="1" x1="0" x2="1" y1="131" y2="131" /><line stroke="white" stroke-width="1" x1="0" x2="2" y1="132" y2="132" /><line stroke="white" stroke-width="1" x1="0" x2="3" y1="133" y2="133" /><line stroke="white" stroke-width="1" x1="0" x2="4" y1="134" y2="134" /><line stroke="white" stroke-width="1" x1="0" x2="5" y1="135" y2="135" /><line stroke="white" stroke-width="1" x1="0" x2="6" y1="136" y2="136" /><line stroke="white" stroke-width="1" x1="0" x2="7" y1="137" y2="137" /><line stroke="white" stroke-width="1" x1="0" x2="8" y1="138" y2="138" /><line stroke="white" stroke-width="1" x1="1" x2="9" y1="139" y2="139" /><line stroke="white" stroke-width="1" x1="1" x2="10" y1="140" y2="140" /><line stroke="white" stroke-width="1" x1="2" x2="11" y1="141" y2="141" /><line stroke="white" stroke-width="1" x1="3" x2="12" y1="142" y2="142" /><line stroke="white" stroke-width="1" x1="4" x2="13" y1="143" y2="143" /><line stroke="white" stroke-width="1" x1="5" x2="14" y1="144" y2="144" /><line stroke="white" stroke-width="1" x1="6" x2="14" y1="145" y2="145" /><line stroke="white" stroke-width="1" x1="7" x2="15" y1="146" y2="146" /><line stroke="white" stroke-width="1" x1="8" x2="16" y1="147" y2="147" /><line stroke="white" stroke-width="1" x1="9" x2="17" y1="148" y2="148" /><line stroke="white" stroke-width="1" x1="10" x2="18" y1="149" y2="149" /><line stroke="white" stroke-width="1" x1="11" x2="19" y1="150" y2="150" /><line stroke="white" stroke-width="1" x1="12" x2="20" y1="151" y2="151" /><line stroke="white" stroke-width="1" x1="13" x2="21" y1="152" y2="152" /><line stroke="white" stroke-width="1" x1="122" x2="124" y1="113" y2="113" /><line stroke="white" stroke-width="1" x1="121" x2="123" y1="114" y2="114" /><line stroke="white" stroke-width="1" x1="115" x2="124" y1="115" y2="115" /><line stroke="white" stroke-width="1" x1="115" x2="123" y1="116" y2="116" /><line stroke="white" stroke-width="1" x1="116" x2="122" y1="117" y2="117" /><line stroke="white" stroke-width="1" x1="116" x2="121" y1="118" y2="118" /><line stroke="white" stroke-width="1" x1="116" x2="120" y1="119" y2="119" /><line stroke="white" stroke-width="1" x1="117" x2="120" y1="120" y2="120" /><line stroke="white" stroke-width="1" x1="0" x2="1" y1="101" y2="101" /><line stroke="white" stroke-width="1" x1="0" x2="2" y1="102" y2="102" /><line stroke="white" stroke-width="1" x1="0" x2="3" y1="103" y2="103" /><line stroke="white" stroke-width="1" x1="0" x2="4" y1="104" y2="104" /><line stroke="white" stroke-width="1" x1="0" x2="5" y1="105" y2="105" /><line stroke="white" stroke-width="1" x1="0" x2="5" y1="106" y2="106" /><line stroke="white" stroke-width="1" x1="0" x2="6" y1="107" y2="107" /><line stroke="white" stroke-width="1" x1="0" x2="7" y1="108" y2="108" /><line stroke="white" stroke-width="1" x1="0" x2="8" y1="109" y2="109" /><line stroke="white" stroke-width="1" x1="0" x2="9" y1="110" y2="110" /><line stroke="white" stroke-width="1" x1="0" x2="10" y1="111" y2="111" /><line stroke="white" stroke-width="1" x1="0" x2="10" y1="112" y2="112" /><line stroke="white" stroke-width="1" x1="0" x2="11" y1="113" y2="113" /><line stroke="white" stroke-width="1" x1="0" x2="12" y1="114" y2="114" /><line stroke="white" stroke-width="1" x1="1" x2="13" y1="115" y2="115" /><line stroke="white" stroke-width="1" x1="2" x2="14" y1="116" y2="116" /><line stroke="white" stroke-width="1" x1="3" x2="15" y1="117" y2="117" /><line stroke="white" stroke-width="1" x1="4" x2="15" y1="118" y2="118" /><line stroke="white" stroke-width="1" x1="5" x2="16" y1="119" y2="119" /><line stroke="white" stroke-width="1" x1="5" x2="17" y1="120" y2="120" /><line stroke="white" stroke-width="1" x1="6" x2="18" y1="121" y2="121" /><line stroke="white" stroke-width="1" x1="7" x2="19" y1="122" y2="122" /><line stroke="white" stroke-width="1" x1="8" x2="19" y1="123" y2="123" /><line stroke="white" stroke-width="1" x1="9" x2="20" y1="124" y2="124" /><line stroke="white" stroke-width="1" x1="10" x2="21" y1="125" y2="125" /><line stroke="white" stroke-width="1" x1="11" x2="22" y1="126" y2="126" /><line stroke="white" stroke-width="1" x1="12" x2="23" y1="127" y2="127" /><line stroke="white" stroke-width="1" x1="13" x2="23" y1="128" y2="128" /><line stroke="white" stroke-width="1" x1="14" x2="24" y1="129" y2="129" /><line stroke="white" stroke-width="1" x1="15" x2="25" y1="130" y2="130" /><line stroke="white" stroke-width="1" x1="15" x2="26" y1="131" y2="131" /><line stroke="white" stroke-width="1" x1="16" x2="26" y1="132" y2="132" /><line stroke="white" stroke-width="1" x1="17" x2="27" y1="133" y2="133" /><line stroke="white" stroke-width="1" x1="18" x2="28" y1="134" y2="134" /><line stroke="white" stroke-width="1" x1="19" x2="29" y1="135" y2="135" /><line stroke="white" stroke-width="1" x1="20" x2="29" y1="136" y2="136" /><line stroke="white" stroke-width="1" x1="21" x2="30" y1="137" y2="137" /><line stroke="white" stroke-width="1" x1="22" x2="31" y1="138" y2="138" /><line stroke="white" stroke-width="1" x1="22" x2="32" y1="139" y2="139" /><line stroke="white" stroke-width="1" x1="23" x2="32" y1="140" y2="140" /><line stroke="white" stroke-width="1" x1="24" x2="33" y1="141" y2="141" /><line stroke="white" stroke-width="1" x1="25" x2="34" y1="142" y2="142" /><line stroke="white" stroke-width="1" x1="26" x2="35" y1="143" y2="143" /><line stroke="white" stroke-width="1" x1="26" x2="36" y1="144" y2="144" /><line stroke="white" stroke-width="1" x1="27" x2="36" y1="145" y2="145" /><line stroke="white" stroke-width="1" x1="28" x2="37" y1="146" y2="146" /><line stroke="white" stroke-width="1" x1="29" x2="38" y1="147" y2="147" /><line stroke="white" stroke-width="1" x1="30" x2="39" y1="148" y2="148" /><line stroke="white" stroke-width="1" x1="30" x2="39" y1="149" y2="149" /><line stroke="white" stroke-width="1" x1="31" x2="40" y1="150" y2="150" /><line stroke="white" stroke-width="1" x1="32" x2="41" y1="151" y2="151" /><line stroke="white" stroke-width="1" x1="33" x2="41" y1="152" y2="152" /><line stroke="white" stroke-width="1" x1="100" x2="101" y1="100" y2="100" /><line stroke="white" stroke-width="1" x1="100" x2="101" y1="101" y2="101" /><line stroke="white" stroke-width="1" x1="100" x2="102" y1="102" y2="102" /><line stroke="white" stroke-width="1" x1="99" x2="103" y1="103" y2="103" /><line stroke="white" stroke-width="1" x1="99" x2="103" y1="104" y2="104" /><line stroke="white" stroke-width="1" x1="99" x2="103" y1="105" y2="105" /><line stroke="white" stroke-width="1" x1="99" x2="103" y1="106" y2="106" /><line stroke="white" stroke-width="1" x1="99" x2="103" y1="107" y2="107" /><line stroke="white" stroke-width="1" x1="98" x2="103" y1="108" y2="108" /><line stroke="white" stroke-width="1" x1="98" x2="102" y1="109" y2="109" /><line stroke="white" stroke-width="1" x1="97" x2="102" y1="110" y2="110" /><line stroke="white" stroke-width="1" x1="97" x2="102" y1="111" y2="111" /><line stroke="white" stroke-width="1" x1="97" x2="102" y1="112" y2="112" /><line stroke="white" stroke-width="1" x1="96" x2="102" y1="113" y2="113" /><line stroke="white" stroke-width="1" x1="96" x2="104" y1="114" y2="114" /><line stroke="white" stroke-width="1" x1="96" x2="108" y1="115" y2="115" /><line stroke="white" stroke-width="1" x1="96" x2="108" y1="116" y2="116" /><line stroke="white" stroke-width="1" x1="95" x2="109" y1="117" y2="117" /><line stroke="white" stroke-width="1" x1="95" x2="109" y1="118" y2="118" /><line stroke="white" stroke-width="1" x1="95" x2="109" y1="119" y2="119" /><line stroke="white" stroke-width="1" x1="94" x2="107" y1="120" y2="120" /><line stroke="white" stroke-width="1" x1="94" x2="107" y1="121" y2="121" /><line stroke="white" stroke-width="1" x1="94" x2="108" y1="122" y2="122" /><line stroke="white" stroke-width="1" x1="94" x2="110" y1="123" y2="123" /><line stroke="white" stroke-width="1" x1="94" x2="111" y1="124" y2="124" /><line stroke="white" stroke-width="1" x1="94" x2="113" y1="125" y2="125" /><line stroke="white" stroke-width="1" x1="93" x2="113" y1="126" y2="126" /><line stroke="white" stroke-width="1" x1="93" x2="114" y1="127" y2="127" /><line stroke="white" stroke-width="1" x1="93" x2="114" y1="128" y2="128" /><line stroke="white" stroke-width="1" x1="92" x2="115" y1="129" y2="129" /><line stroke="white" stroke-width="1" x1="93" x2="115" y1="130" y2="130" /><line stroke="white" stroke-width="1" x1="94" x2="116" y1="131" y2="131" /><line stroke="white" stroke-width="1" x1="96" x2="116" y1="132" y2="132" /><line stroke="white" stroke-width="1" x1="97" x2="98" y1="133" y2="133" /><line stroke="white" stroke-width="1" x1="105" x2="117" y1="133" y2="133" /><line stroke="white" stroke-width="1" x1="101" x2="118" y1="134" y2="134" /><line stroke="white" stroke-width="1" x1="102" x2="119" y1="135" y2="135" /><line stroke="white" stroke-width="1" x1="104" x2="120" y1="136" y2="136" /><line stroke="white" stroke-width="1" x1="106" x2="120" y1="137" y2="137" /><line stroke="white" stroke-width="1" x1="108" x2="110" y1="138" y2="138" /><line stroke="white" stroke-width="1" x1="113" x2="120" y1="138" y2="138" /><line stroke="white" stroke-width="1" x1="113" x2="120" y1="139" y2="139" /><line stroke="white" stroke-width="1" x1="113" x2="121" y1="140" y2="140" /><line stroke="white" stroke-width="1" x1="115" x2="123" y1="141" y2="141" /><line stroke="white" stroke-width="1" x1="117" x2="123" y1="142" y2="142" /><line stroke="white" stroke-width="1" x1="118" x2="124" y1="143" y2="143" /><line stroke="white" stroke-width="1" x1="122" x2="125" y1="144" y2="144" /><line stroke="white" stroke-width="1" x1="125" x2="126" y1="145" y2="145" /><line stroke="white" stroke-width="1" x1="142" x2="144" y1="90" y2="90" /><line stroke="white" stroke-width="1" x1="140" x2="145" y1="91" y2="91" /><line stroke="white" stroke-width="1" x1="139" x2="144" y1="92" y2="92" /><line stroke="white" stroke-width="1" x1="137" x2="142" y1="93" y2="93" /><line stroke="white" stroke-width="1" x1="136" x2="144" y1="94" y2="94" /><line stroke="white" stroke-width="1" x1="136" x2="145" y1="95" y2="95" /><line stroke="white" stroke-width="1" x1="135" x2="150" y1="96" y2="96" /><line stroke="white" stroke-width="1" x1="135" x2="152" y1="97" y2="97" /><line stroke="white" stroke-width="1" x1="132" x2="152" y1="98" y2="98" /><line stroke="white" stroke-width="1" x1="131" x2="152" y1="99" y2="99" /><line stroke="white" stroke-width="1" x1="131" x2="152" y1="100" y2="100" /><line stroke="white" stroke-width="1" x1="131" x2="152" y1="101" y2="101" /><line stroke="white" stroke-width="1" x1="130" x2="140" y1="102" y2="102" /><line stroke="white" stroke-width="1" x1="143" x2="152" y1="102" y2="102" /><line stroke="white" stroke-width="1" x1="130" x2="138" y1="103" y2="103" /><line stroke="white" stroke-width="1" x1="142" x2="142" y1="103" y2="103" /><line stroke="white" stroke-width="1" x1="145" x2="152" y1="103" y2="103" /><line stroke="white" stroke-width="1" x1="131" x2="152" y1="104" y2="104" /><line stroke="white" stroke-width="1" x1="131" x2="152" y1="105" y2="105" /><line stroke="white" stroke-width="1" x1="133" x2="152" y1="106" y2="106" /><line stroke="white" stroke-width="1" x1="133" x2="152" y1="107" y2="107" /><line stroke="white" stroke-width="1" x1="133" x2="152" y1="108" y2="108" /><line stroke="white" stroke-width="1" x1="132" x2="152" y1="109" y2="109" /><line stroke="white" stroke-width="1" x1="132" x2="152" y1="110" y2="110" /><line stroke="white" stroke-width="1" x1="132" x2="152" y1="111" y2="111" /><line stroke="white" stroke-width="1" x1="132" x2="152" y1="112" y2="112" /><line stroke="white" stroke-width="1" x1="132" x2="152" y1="113" y2="113" /><line stroke="white" stroke-width="1" x1="134" x2="152" y1="114" y2="114" /><line stroke="white" stroke-width="1" x1="133" x2="152" y1="115" y2="115" /><line stroke="white" stroke-width="1" x1="135" x2="152" y1="116" y2="116" /><line stroke="white" stroke-width="1" x1="135" x2="152" y1="117" y2="117" /><line stroke="white" stroke-width="1" x1="135" x2="152" y1="118" y2="118" /><line stroke="white" stroke-width="1" x1="135" x2="152" y1="119" y2="119" /><line stroke="white" stroke-width="1" x1="134" x2="152" y1="120" y2="120" /><line stroke="white" stroke-width="1" x1="134" x2="152" y1="121" y2="121" /><line stroke="white" stroke-width="1" x1="134" x2="152" y1="122" y2="122" /><line stroke="white" stroke-width="1" x1="134" x2="152" y1="123" y2="123" /><line stroke="white" stroke-width="1" x1="134" x2="152" y1="124" y2="124" /><line stroke="white" stroke-width="1" x1="134" x2="152" y1="125" y2="125" /><line stroke="white" stroke-width="1" x1="134" x2="152" y1="126" y2="126" /><line stroke="white" stroke-width="1" x1="134" x2="152" y1="127" y2="127" /><line stroke="white" stroke-width="1" x1="134" x2="152" y1="128" y2="128" /><line stroke="white" stroke-width="1" x1="135" x2="152" y1="129" y2="129" /><line stroke="white" stroke-width="1" x1="135" x2="152" y1="130" y2="130" /><line stroke="white" stroke-width="1" x1="135" x2="152" y1="131" y2="131" /><line stroke="white" stroke-width="1" x1="135" x2="151" y1="132" y2="132" /><line stroke="white" stroke-width="1" x1="134" x2="150" y1="133" y2="133" /><line stroke="white" stroke-width="1" x1="134" x2="150" y1="134" y2="134" /><line stroke="white" stroke-width="1" x1="134" x2="152" y1="135" y2="135" /><line stroke="white" stroke-width="1" x1="139" x2="152" y1="136" y2="136" /><line stroke="white" stroke-width="1" x1="139" x2="152" y1="137" y2="137" /><line stroke="white" stroke-width="1" x1="135" x2="152" y1="138" y2="138" /><line stroke="white" stroke-width="1" x1="136" x2="152" y1="139" y2="139" /><line stroke="white" stroke-width="1" x1="136" x2="144" y1="140" y2="140" /><line stroke="white" stroke-width="1" x1="148" x2="152" y1="140" y2="140" /><line stroke="white" stroke-width="1" x1="135" x2="144" y1="141" y2="141" /><line stroke="white" stroke-width="1" x1="147" x2="152" y1="141" y2="141" /><line stroke="white" stroke-width="1" x1="135" x2="152" y1="142" y2="142" /><line stroke="white" stroke-width="1" x1="135" x2="152" y1="143" y2="143" /><line stroke="white" stroke-width="1" x1="135" x2="152" y1="144" y2="144" /><line stroke="white" stroke-width="1" x1="135" x2="152" y1="145" y2="145" /><line stroke="white" stroke-width="1" x1="135" x2="142" y1="146" y2="146" /><line stroke="white" stroke-width="1" x1="145" x2="150" y1="146" y2="146" /><line stroke="white" stroke-width="1" x1="136" x2="141" y1="147" y2="147" /><line stroke="white" stroke-width="1" x1="145" x2="145" y1="147" y2="147" /><line stroke="white" stroke-width="1" x1="148" x2="148" y1="147" y2="147" /><line stroke="white" stroke-width="1" x1="136" x2="140" y1="148" y2="148" /><line stroke="white" stroke-width="1" x1="136" x2="139" y1="149" y2="149" /><line stroke="white" stroke-width="1" x1="91" x2="92" y1="85" y2="85" /><line stroke="white" stroke-width="1" x1="89" x2="90" y1="86" y2="86" /><line stroke="white" stroke-width="1" x1="90" x2="92" y1="87" y2="87" /><line stroke="white" stroke-width="1" x1="87" x2="92" y1="88" y2="88" /><line stroke="white" stroke-width="1" x1="86" x2="92" y1="89" y2="89" /><line stroke="white" stroke-width="1" x1="85" x2="92" y1="90" y2="90" /><line stroke="white" stroke-width="1" x1="85" x2="91" y1="91" y2="91" /><line stroke="white" stroke-width="1" x1="85" x2="90" y1="92" y2="92" /><line stroke="white" stroke-width="1" x1="84" x2="91" y1="93" y2="93" /><line stroke="white" stroke-width="1" x1="84" x2="91" y1="94" y2="94" /><line stroke="white" stroke-width="1" x1="84" x2="92" y1="95" y2="95" /><line stroke="white" stroke-width="1" x1="84" x2="92" y1="96" y2="96" /><line stroke="white" stroke-width="1" x1="84" x2="93" y1="97" y2="97" /><line stroke="white" stroke-width="1" x1="84" x2="92" y1="98" y2="98" /><line stroke="white" stroke-width="1" x1="83" x2="92" y1="99" y2="99" /><line stroke="white" stroke-width="1" x1="83" x2="92" y1="100" y2="100" /><line stroke="white" stroke-width="1" x1="83" x2="92" y1="101" y2="101" /><line stroke="white" stroke-width="1" x1="83" x2="92" y1="102" y2="102" /><line stroke="white" stroke-width="1" x1="83" x2="92" y1="103" y2="103" /><line stroke="white" stroke-width="1" x1="82" x2="92" y1="104" y2="104" /><line stroke="white" stroke-width="1" x1="82" x2="91" y1="105" y2="105" /><line stroke="white" stroke-width="1" x1="82" x2="91" y1="106" y2="106" /><line stroke="white" stroke-width="1" x1="82" x2="91" y1="107" y2="107" /><line stroke="white" stroke-width="1" x1="82" x2="90" y1="108" y2="108" /><line stroke="white" stroke-width="1" x1="82" x2="90" y1="109" y2="109" /><line stroke="white" stroke-width="1" x1="82" x2="90" y1="110" y2="110" /><line stroke="white" stroke-width="1" x1="81" x2="90" y1="111" y2="111" /><line stroke="white" stroke-width="1" x1="81" x2="90" y1="112" y2="112" /><line stroke="white" stroke-width="1" x1="82" x2="90" y1="113" y2="113" /><line stroke="white" stroke-width="1" x1="82" x2="90" y1="114" y2="114" /><line stroke="white" stroke-width="1" x1="82" x2="89" y1="115" y2="115" /><line stroke="white" stroke-width="1" x1="82" x2="89" y1="116" y2="116" /><line stroke="white" stroke-width="1" x1="82" x2="89" y1="117" y2="117" /><line stroke="white" stroke-width="1" x1="82" x2="89" y1="118" y2="118" /><line stroke="white" stroke-width="1" x1="82" x2="89" y1="119" y2="119" /><line stroke="white" stroke-width="1" x1="83" x2="89" y1="120" y2="120" /><line stroke="white" stroke-width="1" x1="84" x2="88" y1="121" y2="121" /><line stroke="white" stroke-width="1" x1="84" x2="88" y1="122" y2="122" /><line stroke="white" stroke-width="1" x1="85" x2="88" y1="123" y2="123" /><line stroke="white" stroke-width="1" x1="85" x2="87" y1="124" y2="124" /><line stroke="white" stroke-width="1" x1="51" x2="52" y1="84" y2="84" /><line stroke="white" stroke-width="1" x1="52" x2="53" y1="85" y2="85" /><line stroke="white" stroke-width="1" x1="52" x2="53" y1="86" y2="86" /><line stroke="white" stroke-width="1" x1="73" x2="74" y1="78" y2="78" /><line stroke="white" stroke-width="1" x1="73" x2="75" y1="79" y2="79" /><line stroke="white" stroke-width="1" x1="73" x2="76" y1="80" y2="80" /><line stroke="white" stroke-width="1" x1="73" x2="76" y1="81" y2="81" /><line stroke="white" stroke-width="1" x1="74" x2="75" y1="83" y2="83" /><line stroke="white" stroke-width="1" x1="75" x2="76" y1="84" y2="84" /><line stroke="white" stroke-width="1" x1="75" x2="76" y1="85" y2="85" /><line stroke="white" stroke-width="1" x1="74" x2="76" y1="86" y2="86" /><line stroke="white" stroke-width="1" x1="73" x2="76" y1="87" y2="87" /><line stroke="white" stroke-width="1" x1="74" x2="76" y1="88" y2="88" /><line stroke="white" stroke-width="1" x1="151" x2="152" y1="77" y2="77" /><line stroke="white" stroke-width="1" x1="149" x2="152" y1="78" y2="78" /><line stroke="white" stroke-width="1" x1="148" x2="152" y1="79" y2="79" /><line stroke="white" stroke-width="1" x1="148" x2="152" y1="80" y2="80" /><line stroke="white" stroke-width="1" x1="145" x2="152" y1="81" y2="81" /><line stroke="white" stroke-width="1" x1="145" x2="152" y1="82" y2="82" /><line stroke="white" stroke-width="1" x1="144" x2="152" y1="83" y2="83" /><line stroke="white" stroke-width="1" x1="144" x2="152" y1="84" y2="84" /><line stroke="white" stroke-width="1" x1="145" x2="152" y1="85" y2="85" /><line stroke="white" stroke-width="1" x1="141" x2="152" y1="86" y2="86" /><line stroke="white" stroke-width="1" x1="141" x2="152" y1="87" y2="87" /><line stroke="white" stroke-width="1" x1="141" x2="145" y1="88" y2="88" /><line stroke="white" stroke-width="1" x1="114" x2="115" y1="77" y2="77" /><line stroke="white" stroke-width="1" x1="115" x2="117" y1="78" y2="78" /><line stroke="white" stroke-width="1" x1="114" x2="116" y1="79" y2="79" /><line stroke="white" stroke-width="1" x1="111" x2="115" y1="80" y2="80" /><line stroke="white" stroke-width="1" x1="111" x2="115" y1="81" y2="81" /><line stroke="white" stroke-width="1" x1="109" x2="114" y1="82" y2="82" /><line stroke="white" stroke-width="1" x1="109" x2="114" y1="83" y2="83" /><line stroke="white" stroke-width="1" x1="108" x2="112" y1="84" y2="84" /><line stroke="white" stroke-width="1" x1="108" x2="112" y1="85" y2="85" /><line stroke="white" stroke-width="1" x1="108" x2="111" y1="86" y2="86" /><line stroke="white" stroke-width="1" x1="108" x2="111" y1="87" y2="87" /><line stroke="white" stroke-width="1" x1="107" x2="112" y1="88" y2="88" /><line stroke="white" stroke-width="1" x1="107" x2="111" y1="89" y2="89" /><line stroke="white" stroke-width="1" x1="105" x2="110" y1="90" y2="90" /><line stroke="white" stroke-width="1" x1="105" x2="110" y1="91" y2="91" /><line stroke="white" stroke-width="1" x1="105" x2="109" y1="92" y2="92" /><line stroke="white" stroke-width="1" x1="105" x2="109" y1="93" y2="93" /><line stroke="white" stroke-width="1" x1="105" x2="108" y1="94" y2="94" /><line stroke="white" stroke-width="1" x1="106" x2="108" y1="95" y2="95" /><line stroke="white" stroke-width="1" x1="61" x2="62" y1="73" y2="73" /><line stroke="white" stroke-width="1" x1="61" x2="62" y1="74" y2="74" /><line stroke="white" stroke-width="1" x1="60" x2="63" y1="75" y2="75" /><line stroke="white" stroke-width="1" x1="59" x2="63" y1="76" y2="76" /><line stroke="white" stroke-width="1" x1="59" x2="64" y1="77" y2="77" /><line stroke="white" stroke-width="1" x1="59" x2="64" y1="78" y2="78" /><line stroke="white" stroke-width="1" x1="60" x2="65" y1="79" y2="79" /><line stroke="white" stroke-width="1" x1="60" x2="65" y1="80" y2="80" /><line stroke="white" stroke-width="1" x1="60" x2="65" y1="81" y2="81" /><line stroke="white" stroke-width="1" x1="60" x2="65" y1="82" y2="82" /><line stroke="white" stroke-width="1" x1="60" x2="66" y1="83" y2="83" /><line stroke="white" stroke-width="1" x1="60" x2="66" y1="84" y2="84" /><line stroke="white" stroke-width="1" x1="61" x2="66" y1="85" y2="85" /><line stroke="white" stroke-width="1" x1="61" x2="66" y1="86" y2="86" /><line stroke="white" stroke-width="1" x1="62" x2="66" y1="87" y2="87" /><line stroke="white" stroke-width="1" x1="62" x2="66" y1="88" y2="88" /><line stroke="white" stroke-width="1" x1="62" x2="66" y1="89" y2="89" /><line stroke="white" stroke-width="1" x1="62" x2="67" y1="90" y2="90" /><line stroke="white" stroke-width="1" x1="62" x2="67" y1="91" y2="91" /><line stroke="white" stroke-width="1" x1="62" x2="67" y1="92" y2="92" /><line stroke="white" stroke-width="1" x1="62" x2="68" y1="93" y2="93" /><line stroke="white" stroke-width="1" x1="63" x2="68" y1="94" y2="94" /><line stroke="white" stroke-width="1" x1="63" x2="68" y1="95" y2="95" /><line stroke="white" stroke-width="1" x1="63" x2="68" y1="96" y2="96" /><line stroke="white" stroke-width="1" x1="64" x2="68" y1="97" y2="97" /><line stroke="white" stroke-width="1" x1="64" x2="68" y1="98" y2="98" /><line stroke="white" stroke-width="1" x1="64" x2="69" y1="99" y2="99" /><line stroke="white" stroke-width="1" x1="64" x2="69" y1="100" y2="100" /><line stroke="white" stroke-width="1" x1="64" x2="69" y1="101" y2="101" /><line stroke="white" stroke-width="1" x1="64" x2="70" y1="102" y2="102" /><line stroke="white" stroke-width="1" x1="65" x2="70" y1="103" y2="103" /><line stroke="white" stroke-width="1" x1="65" x2="70" y1="104" y2="104" /><line stroke="white" stroke-width="1" x1="65" x2="70" y1="105" y2="105" /><line stroke="white" stroke-width="1" x1="65" x2="71" y1="106" y2="106" /><line stroke="white" stroke-width="1" x1="65" x2="71" y1="107" y2="107" /><line stroke="white" stroke-width="1" x1="65" x2="72" y1="108" y2="108" /><line stroke="white" stroke-width="1" x1="65" x2="71" y1="109" y2="109" /><line stroke="white" stroke-width="1" x1="66" x2="71" y1="110" y2="110" /><line stroke="white" stroke-width="1" x1="66" x2="71" y1="111" y2="111" /><line stroke="white" stroke-width="1" x1="67" x2="72" y1="112" y2="112" /><line stroke="white" stroke-width="1" x1="66" x2="72" y1="113" y2="113" /><line stroke="white" stroke-width="1" x1="68" x2="72" y1="114" y2="114" /><line stroke="white" stroke-width="1" x1="70" x2="72" y1="115" y2="115" /><line stroke="white" stroke-width="1" x1="72" x2="73" y1="116" y2="116" /><line stroke="white" stroke-width="1" x1="88" x2="90" y1="71" y2="71" /><line stroke="white" stroke-width="1" x1="28" x2="31" y1="70" y2="70" /><line stroke="white" stroke-width="1" x1="20" x2="31" y1="71" y2="71" /><line stroke="white" stroke-width="1" x1="20" x2="32" y1="72" y2="72" /><line stroke="white" stroke-width="1" x1="21" x2="23" y1="73" y2="73" /><line stroke="white" stroke-width="1" x1="29" x2="32" y1="73" y2="73" /><line stroke="white" stroke-width="1" x1="21" x2="24" y1="74" y2="74" /><line stroke="white" stroke-width="1" x1="29" x2="34" y1="74" y2="74" /><line stroke="white" stroke-width="1" x1="22" x2="34" y1="75" y2="75" /><line stroke="white" stroke-width="1" x1="23" x2="35" y1="76" y2="76" /><line stroke="white" stroke-width="1" x1="23" x2="36" y1="77" y2="77" /><line stroke="white" stroke-width="1" x1="24" x2="36" y1="78" y2="78" /><line stroke="white" stroke-width="1" x1="25" x2="37" y1="79" y2="79" /><line stroke="white" stroke-width="1" x1="25" x2="37" y1="80" y2="80" /><line stroke="white" stroke-width="1" x1="26" x2="38" y1="81" y2="81" /><line stroke="white" stroke-width="1" x1="26" x2="39" y1="82" y2="82" /><line stroke="white" stroke-width="1" x1="27" x2="40" y1="83" y2="83" /><line stroke="white" stroke-width="1" x1="28" x2="40" y1="84" y2="84" /><line stroke="white" stroke-width="1" x1="28" x2="41" y1="85" y2="85" /><line stroke="white" stroke-width="1" x1="29" x2="41" y1="86" y2="86" /><line stroke="white" stroke-width="1" x1="30" x2="42" y1="87" y2="87" /><line stroke="white" stroke-width="1" x1="30" x2="43" y1="88" y2="88" /><line stroke="white" stroke-width="1" x1="31" x2="43" y1="89" y2="89" /><line stroke="white" stroke-width="1" x1="31" x2="44" y1="90" y2="90" /><line stroke="white" stroke-width="1" x1="32" x2="44" y1="91" y2="91" /><line stroke="white" stroke-width="1" x1="33" x2="41" y1="92" y2="92" /><line stroke="white" stroke-width="1" x1="33" x2="41" y1="93" y2="93" /><line stroke="white" stroke-width="1" x1="34" x2="40" y1="94" y2="94" /><line stroke="white" stroke-width="1" x1="35" x2="41" y1="95" y2="95" /><line stroke="white" stroke-width="1" x1="35" x2="41" y1="96" y2="96" /><line stroke="white" stroke-width="1" x1="36" x2="40" y1="97" y2="97" /><line stroke="white" stroke-width="1" x1="36" x2="40" y1="98" y2="98" /><line stroke="white" stroke-width="1" x1="37" x2="39" y1="99" y2="99" /><line stroke="white" stroke-width="1" x1="123" x2="124" y1="67" y2="67" /><line stroke="white" stroke-width="1" x1="0" x2="2" y1="68" y2="68" /><line stroke="white" stroke-width="1" x1="0" x2="3" y1="69" y2="69" /><line stroke="white" stroke-width="1" x1="0" x2="3" y1="70" y2="70" /><line stroke="white" stroke-width="1" x1="0" x2="4" y1="71" y2="71" /><line stroke="white" stroke-width="1" x1="0" x2="5" y1="72" y2="72" /><line stroke="white" stroke-width="1" x1="0" x2="6" y1="73" y2="73" /><line stroke="white" stroke-width="1" x1="0" x2="6" y1="74" y2="74" /><line stroke="white" stroke-width="1" x1="0" x2="7" y1="75" y2="75" /><line stroke="white" stroke-width="1" x1="0" x2="8" y1="76" y2="76" /><line stroke="white" stroke-width="1" x1="0" x2="9" y1="77" y2="77" /><line stroke="white" stroke-width="1" x1="0" x2="10" y1="78" y2="78" /><line stroke="white" stroke-width="1" x1="0" x2="10" y1="79" y2="79" /><line stroke="white" stroke-width="1" x1="0" x2="11" y1="80" y2="80" /><line stroke="white" stroke-width="1" x1="0" x2="12" y1="81" y2="81" /><line stroke="white" stroke-width="1" x1="0" x2="13" y1="82" y2="82" /><line stroke="white" stroke-width="1" x1="0" x2="13" y1="83" y2="83" /><line stroke="white" stroke-width="1" x1="1" x2="14" y1="84" y2="84" /><line stroke="white" stroke-width="1" x1="1" x2="15" y1="85" y2="85" /><line stroke="white" stroke-width="1" x1="2" x2="16" y1="86" y2="86" /><line stroke="white" stroke-width="1" x1="3" x2="16" y1="87" y2="87" /><line stroke="white" stroke-width="1" x1="4" x2="17" y1="88" y2="88" /><line stroke="white" stroke-width="1" x1="5" x2="18" y1="89" y2="89" /><line stroke="white" stroke-width="1" x1="6" x2="19" y1="90" y2="90" /><line stroke="white" stroke-width="1" x1="6" x2="20" y1="91" y2="91" /><line stroke="white" stroke-width="1" x1="7" x2="21" y1="92" y2="92" /><line stroke="white" stroke-width="1" x1="8" x2="21" y1="93" y2="93" /><line stroke="white" stroke-width="1" x1="9" x2="22" y1="94" y2="94" /><line stroke="white" stroke-width="1" x1="10" x2="23" y1="95" y2="95" /><line stroke="white" stroke-width="1" x1="10" x2="24" y1="96" y2="96" /><line stroke="white" stroke-width="1" x1="11" x2="24" y1="97" y2="97" /><line stroke="white" stroke-width="1" x1="12" x2="25" y1="98" y2="98" /><line stroke="white" stroke-width="1" x1="13" x2="26" y1="99" y2="99" /><line stroke="white" stroke-width="1" x1="13" x2="26" y1="100" y2="100" /><line stroke="white" stroke-width="1" x1="14" x2="27" y1="101" y2="101" /><line stroke="white" stroke-width="1" x1="15" x2="28" y1="102" y2="102" /><line stroke="white" stroke-width="1" x1="16" x2="28" y1="103" y2="103" /><line stroke="white" stroke-width="1" x1="17" x2="29" y1="104" y2="104" /><line stroke="white" stroke-width="1" x1="18" x2="30" y1="105" y2="105" /><line stroke="white" stroke-width="1" x1="18" x2="31" y1="106" y2="106" /><line stroke="white" stroke-width="1" x1="19" x2="31" y1="107" y2="107" /><line stroke="white" stroke-width="1" x1="20" x2="32" y1="108" y2="108" /><line stroke="white" stroke-width="1" x1="21" x2="33" y1="109" y2="109" /><line stroke="white" stroke-width="1" x1="22" x2="34" y1="110" y2="110" /><line stroke="white" stroke-width="1" x1="22" x2="34" y1="111" y2="111" /><line stroke="white" stroke-width="1" x1="23" x2="35" y1="112" y2="112" /><line stroke="white" stroke-width="1" x1="24" x2="36" y1="113" y2="113" /><line stroke="white" stroke-width="1" x1="25" x2="36" y1="114" y2="114" /><line stroke="white" stroke-width="1" x1="25" x2="37" y1="115" y2="115" /><line stroke="white" stroke-width="1" x1="26" x2="38" y1="116" y2="116" /><line stroke="white" stroke-width="1" x1="46" x2="55" y1="116" y2="116" /><line stroke="white" stroke-width="1" x1="27" x2="38" y1="117" y2="117" /><line stroke="white" stroke-width="1" x1="47" x2="57" y1="117" y2="117" /><line stroke="white" stroke-width="1" x1="28" x2="39" y1="118" y2="118" /><line stroke="white" stroke-width="1" x1="48" x2="61" y1="118" y2="118" /><line stroke="white" stroke-width="1" x1="28" x2="40" y1="119" y2="119" /><line stroke="white" stroke-width="1" x1="48" x2="64" y1="119" y2="119" /><line stroke="white" stroke-width="1" x1="29" x2="40" y1="120" y2="120" /><line stroke="white" stroke-width="1" x1="49" x2="63" y1="120" y2="120" /><line stroke="white" stroke-width="1" x1="66" x2="68" y1="120" y2="120" /><line stroke="white" stroke-width="1" x1="30" x2="41" y1="121" y2="121" /><line stroke="white" stroke-width="1" x1="49" x2="63" y1="121" y2="121" /><line stroke="white" stroke-width="1" x1="68" x2="70" y1="121" y2="121" /><line stroke="white" stroke-width="1" x1="31" x2="42" y1="122" y2="122" /><line stroke="white" stroke-width="1" x1="50" x2="64" y1="122" y2="122" /><line stroke="white" stroke-width="1" x1="68" x2="72" y1="122" y2="122" /><line stroke="white" stroke-width="1" x1="31" x2="42" y1="123" y2="123" /><line stroke="white" stroke-width="1" x1="50" x2="64" y1="123" y2="123" /><line stroke="white" stroke-width="1" x1="68" x2="74" y1="123" y2="123" /><line stroke="white" stroke-width="1" x1="32" x2="43" y1="124" y2="124" /><line stroke="white" stroke-width="1" x1="51" x2="75" y1="124" y2="124" /><line stroke="white" stroke-width="1" x1="33" x2="43" y1="125" y2="125" /><line stroke="white" stroke-width="1" x1="51" x2="76" y1="125" y2="125" /><line stroke="white" stroke-width="1" x1="34" x2="44" y1="126" y2="126" /><line stroke="white" stroke-width="1" x1="52" x2="77" y1="126" y2="126" /><line stroke="white" stroke-width="1" x1="34" x2="45" y1="127" y2="127" /><line stroke="white" stroke-width="1" x1="53" x2="78" y1="127" y2="127" /><line stroke="white" stroke-width="1" x1="35" x2="45" y1="128" y2="128" /><line stroke="white" stroke-width="1" x1="53" x2="79" y1="128" y2="128" /><line stroke="white" stroke-width="1" x1="36" x2="46" y1="129" y2="129" /><line stroke="white" stroke-width="1" x1="54" x2="80" y1="129" y2="129" /><line stroke="white" stroke-width="1" x1="36" x2="47" y1="130" y2="130" /><line stroke="white" stroke-width="1" x1="54" x2="82" y1="130" y2="130" /><line stroke="white" stroke-width="1" x1="37" x2="47" y1="131" y2="131" /><line stroke="white" stroke-width="1" x1="55" x2="83" y1="131" y2="131" /><line stroke="white" stroke-width="1" x1="38" x2="48" y1="132" y2="132" /><line stroke="white" stroke-width="1" x1="56" x2="84" y1="132" y2="132" /><line stroke="white" stroke-width="1" x1="38" x2="49" y1="133" y2="133" /><line stroke="white" stroke-width="1" x1="56" x2="85" y1="133" y2="133" /><line stroke="white" stroke-width="1" x1="39" x2="49" y1="134" y2="134" /><line stroke="white" stroke-width="1" x1="57" x2="86" y1="134" y2="134" /><line stroke="white" stroke-width="1" x1="40" x2="50" y1="135" y2="135" /><line stroke="white" stroke-width="1" x1="57" x2="87" y1="135" y2="135" /><line stroke="white" stroke-width="1" x1="40" x2="50" y1="136" y2="136" /><line stroke="white" stroke-width="1" x1="58" x2="86" y1="136" y2="136" /><line stroke="white" stroke-width="1" x1="89" x2="90" y1="136" y2="136" /><line stroke="white" stroke-width="1" x1="41" x2="51" y1="137" y2="137" /><line stroke="white" stroke-width="1" x1="59" x2="86" y1="137" y2="137" /><line stroke="white" stroke-width="1" x1="90" x2="92" y1="137" y2="137" /><line stroke="white" stroke-width="1" x1="42" x2="51" y1="138" y2="138" /><line stroke="white" stroke-width="1" x1="59" x2="86" y1="138" y2="138" /><line stroke="white" stroke-width="1" x1="90" x2="93" y1="138" y2="138" /><line stroke="white" stroke-width="1" x1="42" x2="52" y1="139" y2="139" /><line stroke="white" stroke-width="1" x1="60" x2="86" y1="139" y2="139" /><line stroke="white" stroke-width="1" x1="90" x2="94" y1="139" y2="139" /><line stroke="white" stroke-width="1" x1="43" x2="52" y1="140" y2="140" /><line stroke="white" stroke-width="1" x1="60" x2="86" y1="140" y2="140" /><line stroke="white" stroke-width="1" x1="90" x2="96" y1="140" y2="140" /><line stroke="white" stroke-width="1" x1="44" x2="53" y1="141" y2="141" /><line stroke="white" stroke-width="1" x1="60" x2="85" y1="141" y2="141" /><line stroke="white" stroke-width="1" x1="89" x2="95" y1="141" y2="141" /><line stroke="white" stroke-width="1" x1="98" x2="98" y1="141" y2="141" /><line stroke="white" stroke-width="1" x1="44" x2="54" y1="142" y2="142" /><line stroke="white" stroke-width="1" x1="60" x2="85" y1="142" y2="142" /><line stroke="white" stroke-width="1" x1="89" x2="96" y1="142" y2="142" /><line stroke="white" stroke-width="1" x1="99" x2="101" y1="142" y2="142" /><line stroke="white" stroke-width="1" x1="45" x2="54" y1="143" y2="143" /><line stroke="white" stroke-width="1" x1="60" x2="86" y1="143" y2="143" /><line stroke="white" stroke-width="1" x1="89" x2="103" y1="143" y2="143" /><line stroke="white" stroke-width="1" x1="45" x2="55" y1="144" y2="144" /><line stroke="white" stroke-width="1" x1="60" x2="85" y1="144" y2="144" /><line stroke="white" stroke-width="1" x1="89" x2="105" y1="144" y2="144" /><line stroke="white" stroke-width="1" x1="46" x2="56" y1="145" y2="145" /><line stroke="white" stroke-width="1" x1="60" x2="102" y1="145" y2="145" /><line stroke="white" stroke-width="1" x1="47" x2="101" y1="146" y2="146" /><line stroke="white" stroke-width="1" x1="48" x2="101" y1="147" y2="147" /><line stroke="white" stroke-width="1" x1="48" x2="101" y1="148" y2="148" /><line stroke="white" stroke-width="1" x1="49" x2="100" y1="149" y2="149" /><line stroke="white" stroke-width="1" x1="113" x2="120" y1="149" y2="149" /><line stroke="white" stroke-width="1" x1="50" x2="101" y1="150" y2="150" /><line stroke="white" stroke-width="1" x1="110" x2="122" y1="150" y2="150" /><line stroke="white" stroke-width="1" x1="51" x2="124" y1="151" y2="151" /><line stroke="white" stroke-width="1" x1="51" x2="126" y1="152" y2="152" /><line stroke="white" stroke-width="1" x1="23" x2="25" y1="69" y2="69" /></svg>