<?xml version="1.0" encoding="utf-8" ?>
<svg baseProfile="tiny" height="153" version="1.2" width="153" xmlns="http://www.w3.org/2000/svg" xmlns:ev="http://www.w3.org/2001/xml-events" xmlns:xlink="http://www.w3.org/1999/xlink"><defs /><rect fill="black" height="153" width="153" x="0" y="0" /><line stroke="white" stroke-width="1" x1="108" x2="109" y1="71" y2="71" /><line stroke="white" stroke-width="1" x1="38" x2="110" y1="74" y2="74" /><line stroke="white" stroke-width="1" x1="37" x2="38" y1="75" y2="75" /><line stroke="white" stroke-width="1" x1="109" x2="110" y1="75" y2="75" /><line stroke="white" stroke-width="1" x1="37" x2="38" y1="76" y2="76" /><line stroke="white" stroke-width="1" x1="108" x2="110" y1="76" y2="76" /><line stroke="white" stroke-width="1" x1="37" x2="38" y1="77" y2="77" /><line stroke="white" stroke-width="1" x1="108" x2="110" y1="77" y2="77" /><line stroke="white" stroke-width="1" x1="37" x2="38" y1="78" y2="78" /><line stroke="white" stroke-width="1" x1="108" x2="110" y1="78" y2="78" /><line stroke="white" stroke-width="1" x1="37" x2="39" y1="79" y2="79" /><line stroke="white" stroke-width="1" x1="108" x2="110" y1="79" y2="79" /><line stroke="white" stroke-width="1" x1="37" x2="39" y1="80" y2="80" /><line stroke="white" stroke-width="1" x1="107" x2="111" y1="80" y2="80" /><line stroke="white" stroke-width="1" x1="37" x2="40" y1="81" y2="81" /><line stroke="white" stroke-width="1" x1="107" x2="111" y1="81" y2="81" /><line stroke="white" stroke-width="1" x1="37" x2="40" y1="82" y2="82" /><line stroke="white" stroke-width="1" x1="107" x2="111" y1="82" y2="82" /><line stroke="white" stroke-width="1" x1="37" x2="41" y1="83" y2="83" /><line stroke="white" stroke-width="1" x1="106" x2="111" y1="83" y2="83" /><line stroke="white" stroke-width="1" x1="37" x2="41" y1="84" y2="84" /><line stroke="white" stroke-width="1" x1="106" x2="111" y1="84" y2="84" /><line stroke="white" stroke-width="1" x1="37" x2="42" y1="85" y2="85" /><line stroke="white" stroke-width="1" x1="105" x2="110" y1="85" y2="85" /><line stroke="white" stroke-width="1" x1="37" x2="42" y1="86" y2="86" /><line stroke="white" stroke-width="1" x1="104" x2="110" y1="86" y2="86" /><line stroke="white" stroke-width="1" x1="37" x2="43" y1="87" y2="87" /><line stroke="white" stroke-width="1" x1="103" x2="110" y1="87" y2="87" /><line stroke="white" stroke-width="1" x1="37" x2="44" y1="88" y2="88" /><line stroke="white" stroke-width="1" x1="103" x2="110" y1="88" y2="88" /><line stroke="white" stroke-width="1" x1="38" x2="44" y1="89" y2="89" /><line stroke="white" stroke-width="1" x1="102" x2="110" y1="89" y2="89" /><line stroke="white" stroke-width="1" x1="38" x2="45" y1="90" y2="90" /><line stroke="white" stroke-width="1" x1="101" x2="110" y1="90" y2="90" /><line stroke="white" stroke-width="1" x1="39" x2="46" y1="91" y2="91" /><line stroke="white" stroke-width="1" x1="100" x2="109" y1="91" y2="91" /><line stroke="white" stroke-width="1" x1="39" x2="47" y1="92" y2="92" /><line stroke="white" stroke-width="1" x1="98" x2="109" y1="92" y2="92" /><line stroke="white" stroke-width="1" x1="39" x2="48" y1="93" y2="93" /><line stroke="white" stroke-width="1" x1="97" x2="108" y1="93" y2="93" /><line stroke="white" stroke-width="1" x1="40" x2="50" y1="94" y2="94" /><line stroke="white" stroke-width="1" x1="95" x2="108" y1="94" y2="94" /><line stroke="white" stroke-width="1" x1="41" x2="51" y1="95" y2="95" /><line stroke="white" stroke-width="1" x1="93" x2="107" y1="95" y2="95" /><line stroke="white" stroke-width="1" x1="41" x2="52" y1="96" y2="96" /><line stroke="white" stroke-width="1" x1="92" x2="107" y1="96" y2="96" /><line stroke="white" stroke-width="1" x1="42" x2="54" y1="97" y2="97" /><line stroke="white" stroke-width="1" x1="89" x2="106" y1="97" y2="97" /><line stroke="white" stroke-width="1" x1="43" x2="56" y1="98" y2="98" /><line stroke="white" stroke-width="1" x1="86" x2="106" y1="98" y2="98" /><line stroke="white" stroke-width="1" x1="43" x2="59" y1="99" y2="99" /><line stroke="white" stroke-width="1" x1="83" x2="105" y1="99" y2="99" /><line stroke="white" stroke-width="1" x1="44" x2="63" y1="100" y2="100" /><line stroke="white" stroke-width="1" x1="78" x2="104" y1="100" y2="100" /><line stroke="white" stroke-width="1" x1="45" x2="103" y1="101" y2="101" /><line stroke="white" stroke-width="1" x1="47" x2="102" y1="102" y2="102" /><line stroke="white" stroke-width="1" x1="48" x2="101" y1="103" y2="103" /><line stroke="white" stroke-width="1" x1="49" x2="99" y1="104" y2="104" /><line stroke="white" stroke-width="1" x1="51" x2="98" y1="105" y2="105" /><line stroke="white" stroke-width="1" x1="52" x2="96" y1="106" y2="106" /><line stroke="white" stroke-width="1" x1="54" x2="94" y1="107" y2="107" /><line stroke="white" stroke-width="1" x1="56" x2="92" y1="108" y2="108" /><line stroke="white" stroke-width="1" x1="59" x2="89" y1="109" y2="109" /><line stroke="white" stroke-width="1" x1="62" x2="86" y1="110" y2="110" /><line stroke="white" stroke-width="1" x1="67" x2="81" y1="111" y2="111" /><line stroke="white" stroke-width="1" x1="53" x2="61" y1="55" y2="55" /><line stroke="white" stroke-width="1" x1="51" x2="63" y1="56" y2="56" /><line stroke="white" stroke-width="1" x1="49" x2="64" y1="57" y2="57" /><line stroke="white" stroke-width="1" x1="48" x2="53" y1="58" y2="58" /><line stroke="white" stroke-width="1" x1="60" x2="65" y1="58" y2="58" /><line stroke="white" stroke-width="1" x1="47" x2="51" y1="59" y2="59" /><line stroke="white" stroke-width="1" x1="62" x2="66" y1="59" y2="59" /><line stroke="white" stroke-width="1" x1="47" x2="50" y1="60" y2="60" /><line stroke="white" stroke-width="1" x1="63" x2="67" y1="60" y2="60" /><line stroke="white" stroke-width="1" x1="46" x2="49" y1="61" y2="61" /><line stroke="white" stroke-width="1" x1="64" x2="67" y1="61" y2="61" /><line stroke="white" stroke-width="1" x1="46" x2="49" y1="62" y2="62" /><line stroke="white" stroke-width="1" x1="65" x2="68" y1="62" y2="62" /><line stroke="white" stroke-width="1" x1="45" x2="48" y1="63" y2="63" /><line stroke="white" stroke-width="1" x1="65" x2="68" y1="63" y2="63" /><line stroke="white" stroke-width="1" x1="45" x2="48" y1="64" y2="64" /><line stroke="white" stroke-width="1" x1="66" x2="68" y1="64" y2="64" /><line stroke="white" stroke-width="1" x1="45" x2="47" y1="65" y2="65" /><line stroke="white" stroke-width="1" x1="66" x2="68" y1="65" y2="65" /><line stroke="white" stroke-width="1" x1="45" x2="47" y1="66" y2="66" /><line stroke="white" stroke-width="1" x1="67" x2="68" y1="66" y2="66" /><line stroke="white" stroke-width="1" x1="45" x2="47" y1="67" y2="67" /><line stroke="white" stroke-width="1" x1="67" x2="68" y1="67" y2="67" /><line stroke="white" stroke-width="1" x1="45" x2="46" y1="68" y2="68" /><line stroke="white" stroke-width="1" x1="67" x2="68" y1="68" y2="68" /><line stroke="white" stroke-width="1" x1="45" x2="46" y1="69" y2="69" /><line stroke="white" stroke-width="1" x1="68" x2="68" y1="69" y2="69" /><line stroke="white" stroke-width="1" x1="46" x2="68" y1="70" y2="70" /><line stroke="white" stroke-width="1" x1="46" x2="68" y1="71" y2="71" /><line stroke="white" stroke-width="1" x1="86" x2="92" y1="54" y2="54" /><line stroke="white" stroke-width="1" x1="84" x2="95" y1="55" y2="55" /><line stroke="white" stroke-width="1" x1="82" x2="96" y1="56" y2="56" /><line stroke="white" stroke-width="1" x1="81" x2="86" y1="57" y2="57" /><line stroke="white" stroke-width="1" x1="92" x2="97" y1="57" y2="57" /><line stroke="white" stroke-width="1" x1="80" x2="84" y1="58" y2="58" /><line stroke="white" stroke-width="1" x1="94" x2="98" y1="58" y2="58" /><line stroke="white" stroke-width="1" x1="79" x2="83" y1="59" y2="59" /><line stroke="white" stroke-width="1" x1="95" x2="99" y1="59" y2="59" /><line stroke="white" stroke-width="1" x1="79" x2="82" y1="60" y2="60" /><line stroke="white" stroke-width="1" x1="96" x2="100" y1="60" y2="60" /><line stroke="white" stroke-width="1" x1="78" x2="81" y1="61" y2="61" /><line stroke="white" stroke-width="1" x1="97" x2="100" y1="61" y2="61" /><line stroke="white" stroke-width="1" x1="78" x2="81" y1="62" y2="62" /><line stroke="white" stroke-width="1" x1="98" x2="100" y1="62" y2="62" /><line stroke="white" stroke-width="1" x1="78" x2="80" y1="63" y2="63" /><line stroke="white" stroke-width="1" x1="98" x2="101" y1="63" y2="63" /><line stroke="white" stroke-width="1" x1="78" x2="80" y1="64" y2="64" /><line stroke="white" stroke-width="1" x1="99" x2="101" y1="64" y2="64" /><line stroke="white" stroke-width="1" x1="77" x2="79" y1="65" y2="65" /><line stroke="white" stroke-width="1" x1="99" x2="101" y1="65" y2="65" /><line stroke="white" stroke-width="1" x1="78" x2="79" y1="66" y2="66" /><line stroke="white" stroke-width="1" x1="100" x2="101" y1="66" y2="66" /><line stroke="white" stroke-width="1" x1="78" x2="79" y1="67" y2="67" /><line stroke="white" stroke-width="1" x1="100" x2="101" y1="67" y2="67" /><line stroke="white" stroke-width="1" x1="78" x2="79" y1="68" y2="68" /><line stroke="white" stroke-width="1" x1="100" x2="101" y1="68" y2="68" /><line stroke="white" stroke-width="1" x1="78" x2="100" y1="69" y2="69" /><line stroke="white" stroke-width="1" x1="78" x2="100" y1="70" y2="70" /></svg>