<?xml version="1.0" encoding="utf-8" ?>
<svg baseProfile="tiny" height="91" version="1.2" width="91" xmlns="http://www.w3.org/2000/svg" xmlns:ev="http://www.w3.org/2001/xml-events" xmlns:xlink="http://www.w3.org/1999/xlink"><defs /><rect fill="black" height="91" width="91" x="0" y="0" /><line stroke="white" stroke-width="1" x1="66" x2="67" y1="18" y2="18" /><line stroke="white" stroke-width="1" x1="66" x2="72" y1="19" y2="19" /><line stroke="white" stroke-width="1" x1="66" x2="76" y1="20" y2="20" /><line stroke="white" stroke-width="1" x1="66" x2="75" y1="21" y2="21" /><line stroke="white" stroke-width="1" x1="78" x2="78" y1="21" y2="21" /><line stroke="white" stroke-width="1" x1="66" x2="75" y1="22" y2="22" /><line stroke="white" stroke-width="1" x1="78" x2="78" y1="22" y2="22" /><line stroke="white" stroke-width="1" x1="65" x2="78" y1="23" y2="23" /><line stroke="white" stroke-width="1" x1="65" x2="78" y1="24" y2="24" /><line stroke="white" stroke-width="1" x1="65" x2="79" y1="25" y2="25" /><line stroke="white" stroke-width="1" x1="65" x2="79" y1="26" y2="26" /><line stroke="white" stroke-width="1" x1="65" x2="79" y1="27" y2="27" /><line stroke="white" stroke-width="1" x1="65" x2="79" y1="28" y2="28" /><line stroke="white" stroke-width="1" x1="65" x2="79" y1="29" y2="29" /><line stroke="white" stroke-width="1" x1="65" x2="79" y1="30" y2="30" /><line stroke="white" stroke-width="1" x1="65" x2="79" y1="31" y2="31" /><line stroke="white" stroke-width="1" x1="65" x2="79" y1="32" y2="32" /><line stroke="white" stroke-width="1" x1="65" x2="80" y1="33" y2="33" /><line stroke="white" stroke-width="1" x1="65" x2="80" y1="34" y2="34" /><line stroke="white" stroke-width="1" x1="65" x2="80" y1="35" y2="35" /><line stroke="white" stroke-width="1" x1="65" x2="80" y1="36" y2="36" /><line stroke="white" stroke-width="1" x1="65" x2="80" y1="37" y2="37" /><line stroke="white" stroke-width="1" x1="65" x2="80" y1="38" y2="38" /><line stroke="white" stroke-width="1" x1="65" x2="80" y1="39" y2="39" /><line stroke="white" stroke-width="1" x1="65" x2="80" y1="40" y2="40" /><line stroke="white" stroke-width="1" x1="65" x2="80" y1="41" y2="41" /><line stroke="white" stroke-width="1" x1="65" x2="80" y1="42" y2="42" /><line stroke="white" stroke-width="1" x1="65" x2="80" y1="43" y2="43" /><line stroke="white" stroke-width="1" x1="65" x2="80" y1="44" y2="44" /><line stroke="white" stroke-width="1" x1="65" x2="80" y1="45" y2="45" /><line stroke="white" stroke-width="1" x1="65" x2="80" y1="46" y2="46" /><line stroke="white" stroke-width="1" x1="65" x2="79" y1="47" y2="47" /><line stroke="white" stroke-width="1" x1="65" x2="74" y1="48" y2="48" /><line stroke="white" stroke-width="1" x1="67" x2="74" y1="49" y2="49" /><line stroke="white" stroke-width="1" x1="69" x2="74" y1="50" y2="50" /><line stroke="white" stroke-width="1" x1="73" x2="74" y1="51" y2="51" /></svg>