<?xml version="1.0" encoding="utf-8" ?>
<svg baseProfile="tiny" height="182" version="1.2" width="171" xmlns="http://www.w3.org/2000/svg" xmlns:ev="http://www.w3.org/2001/xml-events" xmlns:xlink="http://www.w3.org/1999/xlink"><defs /><rect fill="black" height="182" width="171" x="0" y="0" /><line stroke="white" stroke-width="1" x1="17" x2="25" y1="173" y2="173" /><line stroke="white" stroke-width="1" x1="14" x2="15" y1="173" y2="173" /><line stroke="white" stroke-width="1" x1="26" x2="27" y1="171" y2="171" /><line stroke="white" stroke-width="1" x1="17" x2="18" y1="171" y2="171" /><line stroke="white" stroke-width="1" x1="20" x2="21" y1="167" y2="167" /><line stroke="white" stroke-width="1" x1="23" x2="28" y1="166" y2="166" /><line stroke="white" stroke-width="1" x1="23" x2="27" y1="167" y2="167" /><line stroke="white" stroke-width="1" x1="24" x2="28" y1="168" y2="168" /><line stroke="white" stroke-width="1" x1="11" x2="18" y1="167" y2="167" /><line stroke="white" stroke-width="1" x1="11" x2="12" y1="168" y2="168" /><line stroke="white" stroke-width="1" x1="15" x2="15" y1="168" y2="168" /><line stroke="white" stroke-width="1" x1="11" x2="13" y1="169" y2="169" /><line stroke="white" stroke-width="1" x1="12" x2="14" y1="171" y2="171" /><line stroke="white" stroke-width="1" x1="11" x2="12" y1="172" y2="172" /><line stroke="white" stroke-width="1" x1="53" x2="87" y1="164" y2="164" /><line stroke="white" stroke-width="1" x1="56" x2="81" y1="165" y2="165" /><line stroke="white" stroke-width="1" x1="11" x2="158" y1="144" y2="144" /><line stroke="white" stroke-width="1" x1="11" x2="158" y1="145" y2="145" /><line stroke="white" stroke-width="1" x1="11" x2="158" y1="146" y2="146" /><line stroke="white" stroke-width="1" x1="11" x2="158" y1="147" y2="147" /><line stroke="white" stroke-width="1" x1="11" x2="158" y1="148" y2="148" /><line stroke="white" stroke-width="1" x1="11" x2="158" y1="149" y2="149" /><line stroke="white" stroke-width="1" x1="11" x2="158" y1="150" y2="150" /><line stroke="white" stroke-width="1" x1="12" x2="158" y1="151" y2="151" /><line stroke="white" stroke-width="1" x1="11" x2="158" y1="152" y2="152" /><line stroke="white" stroke-width="1" x1="73" x2="158" y1="153" y2="153" /><line stroke="white" stroke-width="1" x1="12" x2="158" y1="154" y2="154" /><line stroke="white" stroke-width="1" x1="12" x2="158" y1="155" y2="155" /><line stroke="white" stroke-width="1" x1="12" x2="158" y1="156" y2="156" /><line stroke="white" stroke-width="1" x1="12" x2="158" y1="157" y2="157" /><line stroke="white" stroke-width="1" x1="12" x2="158" y1="158" y2="158" /><line stroke="white" stroke-width="1" x1="69" x2="72" y1="159" y2="159" /><line stroke="white" stroke-width="1" x1="76" x2="158" y1="159" y2="159" /><line stroke="white" stroke-width="1" x1="84" x2="158" y1="160" y2="160" /><line stroke="white" stroke-width="1" x1="156" x2="158" y1="161" y2="161" /><line stroke="white" stroke-width="1" x1="156" x2="158" y1="162" y2="162" /><line stroke="white" stroke-width="1" x1="157" x2="158" y1="163" y2="163" /><line stroke="white" stroke-width="1" x1="157" x2="158" y1="164" y2="164" /><line stroke="white" stroke-width="1" x1="157" x2="158" y1="165" y2="165" /><line stroke="white" stroke-width="1" x1="157" x2="158" y1="167" y2="167" /><line stroke="white" stroke-width="1" x1="157" x2="158" y1="168" y2="168" /><line stroke="white" stroke-width="1" x1="157" x2="158" y1="169" y2="169" /><line stroke="white" stroke-width="1" x1="157" x2="158" y1="170" y2="170" /><line stroke="white" stroke-width="1" x1="156" x2="158" y1="171" y2="171" /><line stroke="white" stroke-width="1" x1="157" x2="158" y1="172" y2="172" /><line stroke="white" stroke-width="1" x1="27" x2="156" y1="173" y2="173" /><line stroke="white" stroke-width="1" x1="11" x2="143" y1="139" y2="139" /><line stroke="white" stroke-width="1" x1="147" x2="148" y1="139" y2="139" /><line stroke="white" stroke-width="1" x1="11" x2="156" y1="140" y2="140" /><line stroke="white" stroke-width="1" x1="11" x2="154" y1="141" y2="141" /><line stroke="white" stroke-width="1" x1="24" x2="146" y1="142" y2="142" /><line stroke="white" stroke-width="1" x1="103" x2="157" y1="136" y2="136" /><line stroke="white" stroke-width="1" x1="11" x2="24" y1="133" y2="133" /><line stroke="white" stroke-width="1" x1="11" x2="26" y1="136" y2="136" /><line stroke="white" stroke-width="1" x1="12" x2="38" y1="127" y2="127" /><line stroke="white" stroke-width="1" x1="11" x2="32" y1="128" y2="128" /><line stroke="white" stroke-width="1" x1="12" x2="36" y1="129" y2="129" /><line stroke="white" stroke-width="1" x1="11" x2="48" y1="123" y2="123" /><line stroke="white" stroke-width="1" x1="11" x2="32" y1="124" y2="124" /><line stroke="white" stroke-width="1" x1="35" x2="35" y1="124" y2="124" /><line stroke="white" stroke-width="1" x1="81" x2="90" y1="119" y2="119" /><line stroke="white" stroke-width="1" x1="69" x2="72" y1="115" y2="115" /><line stroke="white" stroke-width="1" x1="68" x2="72" y1="116" y2="116" /><line stroke="white" stroke-width="1" x1="67" x2="73" y1="117" y2="117" /><line stroke="white" stroke-width="1" x1="65" x2="73" y1="118" y2="118" /><line stroke="white" stroke-width="1" x1="64" x2="73" y1="119" y2="119" /><line stroke="white" stroke-width="1" x1="64" x2="74" y1="120" y2="120" /><line stroke="white" stroke-width="1" x1="66" x2="75" y1="121" y2="121" /><line stroke="white" stroke-width="1" x1="67" x2="74" y1="122" y2="122" /><line stroke="white" stroke-width="1" x1="67" x2="72" y1="123" y2="123" /><line stroke="white" stroke-width="1" x1="99" x2="100" y1="114" y2="114" /><line stroke="white" stroke-width="1" x1="99" x2="101" y1="115" y2="115" /><line stroke="white" stroke-width="1" x1="96" x2="102" y1="116" y2="116" /><line stroke="white" stroke-width="1" x1="97" x2="103" y1="117" y2="117" /><line stroke="white" stroke-width="1" x1="96" x2="104" y1="118" y2="118" /><line stroke="white" stroke-width="1" x1="96" x2="103" y1="119" y2="119" /><line stroke="white" stroke-width="1" x1="96" x2="102" y1="120" y2="120" /><line stroke="white" stroke-width="1" x1="95" x2="101" y1="121" y2="121" /><line stroke="white" stroke-width="1" x1="97" x2="98" y1="122" y2="122" /><line stroke="white" stroke-width="1" x1="74" x2="75" y1="112" y2="112" /><line stroke="white" stroke-width="1" x1="92" x2="93" y1="111" y2="111" /><line stroke="white" stroke-width="1" x1="94" x2="96" y1="112" y2="112" /><line stroke="white" stroke-width="1" x1="77" x2="78" y1="111" y2="111" /><line stroke="white" stroke-width="1" x1="82" x2="88" y1="110" y2="110" /><line stroke="white" stroke-width="1" x1="75" x2="78" y1="100" y2="100" /><line stroke="white" stroke-width="1" x1="91" x2="95" y1="100" y2="100" /><line stroke="white" stroke-width="1" x1="63" x2="66" y1="83" y2="83" /><line stroke="white" stroke-width="1" x1="63" x2="67" y1="84" y2="84" /><line stroke="white" stroke-width="1" x1="63" x2="67" y1="85" y2="85" /><line stroke="white" stroke-width="1" x1="63" x2="67" y1="86" y2="86" /><line stroke="white" stroke-width="1" x1="64" x2="65" y1="87" y2="87" /><line stroke="white" stroke-width="1" x1="105" x2="106" y1="82" y2="82" /><line stroke="white" stroke-width="1" x1="104" x2="107" y1="83" y2="83" /><line stroke="white" stroke-width="1" x1="104" x2="107" y1="84" y2="84" /><line stroke="white" stroke-width="1" x1="103" x2="107" y1="85" y2="85" /><line stroke="white" stroke-width="1" x1="103" x2="107" y1="86" y2="86" /><line stroke="white" stroke-width="1" x1="104" x2="106" y1="87" y2="87" /><line stroke="white" stroke-width="1" x1="105" x2="106" y1="88" y2="88" /><line stroke="white" stroke-width="1" x1="105" x2="106" y1="89" y2="89" /><line stroke="white" stroke-width="1" x1="11" x2="53" y1="50" y2="50" /></svg>