<?xml version="1.0" encoding="utf-8" ?>
<svg baseProfile="tiny" height="345" version="1.2" width="345" xmlns="http://www.w3.org/2000/svg" xmlns:ev="http://www.w3.org/2001/xml-events" xmlns:xlink="http://www.w3.org/1999/xlink"><defs /><rect fill="black" height="345" width="345" x="0" y="0" /><line stroke="white" stroke-width="1" x1="235" x2="239" y1="263" y2="263" /><line stroke="white" stroke-width="1" x1="249" x2="257" y1="263" y2="263" /><line stroke="white" stroke-width="1" x1="221" x2="224" y1="264" y2="264" /><line stroke="white" stroke-width="1" x1="232" x2="243" y1="264" y2="264" /><line stroke="white" stroke-width="1" x1="246" x2="259" y1="264" y2="264" /><line stroke="white" stroke-width="1" x1="216" x2="261" y1="265" y2="265" /><line stroke="white" stroke-width="1" x1="214" x2="263" y1="266" y2="266" /><line stroke="white" stroke-width="1" x1="212" x2="272" y1="267" y2="267" /><line stroke="white" stroke-width="1" x1="211" x2="275" y1="268" y2="268" /><line stroke="white" stroke-width="1" x1="210" x2="282" y1="269" y2="269" /><line stroke="white" stroke-width="1" x1="209" x2="286" y1="270" y2="270" /><line stroke="white" stroke-width="1" x1="208" x2="288" y1="271" y2="271" /><line stroke="white" stroke-width="1" x1="207" x2="289" y1="272" y2="272" /><line stroke="white" stroke-width="1" x1="294" x2="294" y1="272" y2="272" /><line stroke="white" stroke-width="1" x1="206" x2="300" y1="273" y2="273" /><line stroke="white" stroke-width="1" x1="206" x2="302" y1="274" y2="274" /><line stroke="white" stroke-width="1" x1="205" x2="314" y1="275" y2="275" /><line stroke="white" stroke-width="1" x1="204" x2="236" y1="276" y2="276" /><line stroke="white" stroke-width="1" x1="243" x2="316" y1="276" y2="276" /><line stroke="white" stroke-width="1" x1="203" x2="234" y1="277" y2="277" /><line stroke="white" stroke-width="1" x1="245" x2="256" y1="277" y2="277" /><line stroke="white" stroke-width="1" x1="261" x2="318" y1="277" y2="277" /><line stroke="white" stroke-width="1" x1="203" x2="222" y1="278" y2="278" /><line stroke="white" stroke-width="1" x1="228" x2="233" y1="278" y2="278" /><line stroke="white" stroke-width="1" x1="246" x2="253" y1="278" y2="278" /><line stroke="white" stroke-width="1" x1="263" x2="319" y1="278" y2="278" /><line stroke="white" stroke-width="1" x1="203" x2="218" y1="279" y2="279" /><line stroke="white" stroke-width="1" x1="251" x2="252" y1="279" y2="279" /><line stroke="white" stroke-width="1" x1="265" x2="268" y1="279" y2="279" /><line stroke="white" stroke-width="1" x1="271" x2="321" y1="279" y2="279" /><line stroke="white" stroke-width="1" x1="202" x2="216" y1="280" y2="280" /><line stroke="white" stroke-width="1" x1="274" x2="322" y1="280" y2="280" /><line stroke="white" stroke-width="1" x1="202" x2="215" y1="281" y2="281" /><line stroke="white" stroke-width="1" x1="283" x2="322" y1="281" y2="281" /><line stroke="white" stroke-width="1" x1="201" x2="214" y1="282" y2="282" /><line stroke="white" stroke-width="1" x1="285" x2="323" y1="282" y2="282" /><line stroke="white" stroke-width="1" x1="201" x2="214" y1="283" y2="283" /><line stroke="white" stroke-width="1" x1="286" x2="324" y1="283" y2="283" /><line stroke="white" stroke-width="1" x1="200" x2="213" y1="284" y2="284" /><line stroke="white" stroke-width="1" x1="287" x2="324" y1="284" y2="284" /><line stroke="white" stroke-width="1" x1="200" x2="212" y1="285" y2="285" /><line stroke="white" stroke-width="1" x1="287" x2="325" y1="285" y2="285" /><line stroke="white" stroke-width="1" x1="199" x2="212" y1="286" y2="286" /><line stroke="white" stroke-width="1" x1="287" x2="325" y1="286" y2="286" /><line stroke="white" stroke-width="1" x1="198" x2="211" y1="287" y2="287" /><line stroke="white" stroke-width="1" x1="288" x2="325" y1="287" y2="287" /><line stroke="white" stroke-width="1" x1="198" x2="210" y1="288" y2="288" /><line stroke="white" stroke-width="1" x1="288" x2="326" y1="288" y2="288" /><line stroke="white" stroke-width="1" x1="197" x2="210" y1="289" y2="289" /><line stroke="white" stroke-width="1" x1="294" x2="326" y1="289" y2="289" /><line stroke="white" stroke-width="1" x1="196" x2="209" y1="290" y2="290" /><line stroke="white" stroke-width="1" x1="295" x2="326" y1="290" y2="290" /><line stroke="white" stroke-width="1" x1="196" x2="209" y1="291" y2="291" /><line stroke="white" stroke-width="1" x1="296" x2="326" y1="291" y2="291" /><line stroke="white" stroke-width="1" x1="195" x2="208" y1="292" y2="292" /><line stroke="white" stroke-width="1" x1="297" x2="326" y1="292" y2="292" /><line stroke="white" stroke-width="1" x1="195" x2="208" y1="293" y2="293" /><line stroke="white" stroke-width="1" x1="298" x2="326" y1="293" y2="293" /><line stroke="white" stroke-width="1" x1="194" x2="207" y1="294" y2="294" /><line stroke="white" stroke-width="1" x1="298" x2="326" y1="294" y2="294" /><line stroke="white" stroke-width="1" x1="194" x2="206" y1="295" y2="295" /><line stroke="white" stroke-width="1" x1="298" x2="326" y1="295" y2="295" /><line stroke="white" stroke-width="1" x1="193" x2="206" y1="296" y2="296" /><line stroke="white" stroke-width="1" x1="298" x2="325" y1="296" y2="296" /><line stroke="white" stroke-width="1" x1="193" x2="205" y1="297" y2="297" /><line stroke="white" stroke-width="1" x1="298" x2="325" y1="297" y2="297" /><line stroke="white" stroke-width="1" x1="192" x2="205" y1="298" y2="298" /><line stroke="white" stroke-width="1" x1="298" x2="325" y1="298" y2="298" /><line stroke="white" stroke-width="1" x1="192" x2="204" y1="299" y2="299" /><line stroke="white" stroke-width="1" x1="297" x2="324" y1="299" y2="299" /><line stroke="white" stroke-width="1" x1="192" x2="204" y1="300" y2="300" /><line stroke="white" stroke-width="1" x1="297" x2="324" y1="300" y2="300" /><line stroke="white" stroke-width="1" x1="191" x2="204" y1="301" y2="301" /><line stroke="white" stroke-width="1" x1="296" x2="323" y1="301" y2="301" /><line stroke="white" stroke-width="1" x1="191" x2="203" y1="302" y2="302" /><line stroke="white" stroke-width="1" x1="295" x2="322" y1="302" y2="302" /><line stroke="white" stroke-width="1" x1="191" x2="203" y1="303" y2="303" /><line stroke="white" stroke-width="1" x1="294" x2="322" y1="303" y2="303" /><line stroke="white" stroke-width="1" x1="191" x2="203" y1="304" y2="304" /><line stroke="white" stroke-width="1" x1="292" x2="321" y1="304" y2="304" /><line stroke="white" stroke-width="1" x1="191" x2="204" y1="305" y2="305" /><line stroke="white" stroke-width="1" x1="291" x2="320" y1="305" y2="305" /><line stroke="white" stroke-width="1" x1="191" x2="204" y1="306" y2="306" /><line stroke="white" stroke-width="1" x1="290" x2="318" y1="306" y2="306" /><line stroke="white" stroke-width="1" x1="191" x2="205" y1="307" y2="307" /><line stroke="white" stroke-width="1" x1="289" x2="316" y1="307" y2="307" /><line stroke="white" stroke-width="1" x1="191" x2="206" y1="308" y2="308" /><line stroke="white" stroke-width="1" x1="288" x2="314" y1="308" y2="308" /><line stroke="white" stroke-width="1" x1="191" x2="207" y1="309" y2="309" /><line stroke="white" stroke-width="1" x1="287" x2="312" y1="309" y2="309" /><line stroke="white" stroke-width="1" x1="191" x2="208" y1="310" y2="310" /><line stroke="white" stroke-width="1" x1="287" x2="311" y1="310" y2="310" /><line stroke="white" stroke-width="1" x1="191" x2="209" y1="311" y2="311" /><line stroke="white" stroke-width="1" x1="286" x2="310" y1="311" y2="311" /><line stroke="white" stroke-width="1" x1="192" x2="210" y1="312" y2="312" /><line stroke="white" stroke-width="1" x1="285" x2="309" y1="312" y2="312" /><line stroke="white" stroke-width="1" x1="192" x2="211" y1="313" y2="313" /><line stroke="white" stroke-width="1" x1="260" x2="262" y1="313" y2="313" /><line stroke="white" stroke-width="1" x1="284" x2="308" y1="313" y2="313" /><line stroke="white" stroke-width="1" x1="192" x2="212" y1="314" y2="314" /><line stroke="white" stroke-width="1" x1="230" x2="237" y1="314" y2="314" /><line stroke="white" stroke-width="1" x1="248" x2="251" y1="314" y2="314" /><line stroke="white" stroke-width="1" x1="258" x2="268" y1="314" y2="314" /><line stroke="white" stroke-width="1" x1="283" x2="307" y1="314" y2="314" /><line stroke="white" stroke-width="1" x1="193" x2="213" y1="315" y2="315" /><line stroke="white" stroke-width="1" x1="223" x2="223" y1="315" y2="315" /><line stroke="white" stroke-width="1" x1="227" x2="238" y1="315" y2="315" /><line stroke="white" stroke-width="1" x1="247" x2="268" y1="315" y2="315" /><line stroke="white" stroke-width="1" x1="282" x2="307" y1="315" y2="315" /><line stroke="white" stroke-width="1" x1="193" x2="214" y1="316" y2="316" /><line stroke="white" stroke-width="1" x1="221" x2="240" y1="316" y2="316" /><line stroke="white" stroke-width="1" x1="245" x2="270" y1="316" y2="316" /><line stroke="white" stroke-width="1" x1="281" x2="306" y1="316" y2="316" /><line stroke="white" stroke-width="1" x1="194" x2="271" y1="317" y2="317" /><line stroke="white" stroke-width="1" x1="279" x2="305" y1="317" y2="317" /><line stroke="white" stroke-width="1" x1="195" x2="305" y1="318" y2="318" /><line stroke="white" stroke-width="1" x1="196" x2="304" y1="319" y2="319" /><line stroke="white" stroke-width="1" x1="197" x2="303" y1="320" y2="320" /><line stroke="white" stroke-width="1" x1="198" x2="302" y1="321" y2="321" /><line stroke="white" stroke-width="1" x1="200" x2="301" y1="322" y2="322" /><line stroke="white" stroke-width="1" x1="203" x2="299" y1="323" y2="323" /><line stroke="white" stroke-width="1" x1="204" x2="255" y1="324" y2="324" /><line stroke="white" stroke-width="1" x1="258" x2="265" y1="324" y2="324" /><line stroke="white" stroke-width="1" x1="268" x2="297" y1="324" y2="324" /><line stroke="white" stroke-width="1" x1="205" x2="254" y1="325" y2="325" /><line stroke="white" stroke-width="1" x1="270" x2="279" y1="325" y2="325" /><line stroke="white" stroke-width="1" x1="285" x2="294" y1="325" y2="325" /><line stroke="white" stroke-width="1" x1="206" x2="237" y1="326" y2="326" /><line stroke="white" stroke-width="1" x1="241" x2="251" y1="326" y2="326" /><line stroke="white" stroke-width="1" x1="208" x2="235" y1="327" y2="327" /><line stroke="white" stroke-width="1" x1="211" x2="219" y1="328" y2="328" /><line stroke="white" stroke-width="1" x1="76" x2="77" y1="257" y2="257" /><line stroke="white" stroke-width="1" x1="66" x2="67" y1="257" y2="257" /><line stroke="white" stroke-width="1" x1="115" x2="117" y1="252" y2="252" /><line stroke="white" stroke-width="1" x1="120" x2="121" y1="251" y2="251" /><line stroke="white" stroke-width="1" x1="131" x2="132" y1="249" y2="249" /><line stroke="white" stroke-width="1" x1="89" x2="90" y1="248" y2="248" /><line stroke="white" stroke-width="1" x1="145" x2="151" y1="247" y2="247" /><line stroke="white" stroke-width="1" x1="139" x2="140" y1="245" y2="245" /><line stroke="white" stroke-width="1" x1="66" x2="74" y1="29" y2="29" /><line stroke="white" stroke-width="1" x1="97" x2="99" y1="29" y2="29" /><line stroke="white" stroke-width="1" x1="63" x2="77" y1="30" y2="30" /><line stroke="white" stroke-width="1" x1="80" x2="103" y1="30" y2="30" /><line stroke="white" stroke-width="1" x1="61" x2="105" y1="31" y2="31" /><line stroke="white" stroke-width="1" x1="130" x2="138" y1="31" y2="31" /><line stroke="white" stroke-width="1" x1="60" x2="107" y1="32" y2="32" /><line stroke="white" stroke-width="1" x1="127" x2="141" y1="32" y2="32" /><line stroke="white" stroke-width="1" x1="58" x2="108" y1="33" y2="33" /><line stroke="white" stroke-width="1" x1="120" x2="147" y1="33" y2="33" /><line stroke="white" stroke-width="1" x1="57" x2="109" y1="34" y2="34" /><line stroke="white" stroke-width="1" x1="116" x2="151" y1="34" y2="34" /><line stroke="white" stroke-width="1" x1="56" x2="153" y1="35" y2="35" /><line stroke="white" stroke-width="1" x1="55" x2="158" y1="36" y2="36" /><line stroke="white" stroke-width="1" x1="54" x2="161" y1="37" y2="37" /><line stroke="white" stroke-width="1" x1="52" x2="162" y1="38" y2="38" /><line stroke="white" stroke-width="1" x1="51" x2="84" y1="39" y2="39" /><line stroke="white" stroke-width="1" x1="91" x2="164" y1="39" y2="39" /><line stroke="white" stroke-width="1" x1="50" x2="70" y1="40" y2="40" /><line stroke="white" stroke-width="1" x1="79" x2="82" y1="40" y2="40" /><line stroke="white" stroke-width="1" x1="93" x2="165" y1="40" y2="40" /><line stroke="white" stroke-width="1" x1="49" x2="68" y1="41" y2="41" /><line stroke="white" stroke-width="1" x1="94" x2="96" y1="41" y2="41" /><line stroke="white" stroke-width="1" x1="100" x2="109" y1="41" y2="41" /><line stroke="white" stroke-width="1" x1="115" x2="166" y1="41" y2="41" /><line stroke="white" stroke-width="1" x1="48" x2="67" y1="42" y2="42" /><line stroke="white" stroke-width="1" x1="103" x2="107" y1="42" y2="42" /><line stroke="white" stroke-width="1" x1="117" x2="167" y1="42" y2="42" /><line stroke="white" stroke-width="1" x1="47" x2="66" y1="43" y2="43" /><line stroke="white" stroke-width="1" x1="104" x2="105" y1="43" y2="43" /><line stroke="white" stroke-width="1" x1="118" x2="125" y1="43" y2="43" /><line stroke="white" stroke-width="1" x1="130" x2="136" y1="43" y2="43" /><line stroke="white" stroke-width="1" x1="143" x2="167" y1="43" y2="43" /><line stroke="white" stroke-width="1" x1="46" x2="64" y1="44" y2="44" /><line stroke="white" stroke-width="1" x1="119" x2="122" y1="44" y2="44" /><line stroke="white" stroke-width="1" x1="132" x2="134" y1="44" y2="44" /><line stroke="white" stroke-width="1" x1="145" x2="168" y1="44" y2="44" /><line stroke="white" stroke-width="1" x1="45" x2="63" y1="45" y2="45" /><line stroke="white" stroke-width="1" x1="120" x2="120" y1="45" y2="45" /><line stroke="white" stroke-width="1" x1="146" x2="168" y1="45" y2="45" /><line stroke="white" stroke-width="1" x1="44" x2="61" y1="46" y2="46" /><line stroke="white" stroke-width="1" x1="147" x2="169" y1="46" y2="46" /><line stroke="white" stroke-width="1" x1="44" x2="60" y1="47" y2="47" /><line stroke="white" stroke-width="1" x1="147" x2="169" y1="47" y2="47" /><line stroke="white" stroke-width="1" x1="43" x2="59" y1="48" y2="48" /><line stroke="white" stroke-width="1" x1="148" x2="170" y1="48" y2="48" /><line stroke="white" stroke-width="1" x1="42" x2="58" y1="49" y2="49" /><line stroke="white" stroke-width="1" x1="148" x2="170" y1="49" y2="49" /><line stroke="white" stroke-width="1" x1="41" x2="56" y1="50" y2="50" /><line stroke="white" stroke-width="1" x1="148" x2="170" y1="50" y2="50" /><line stroke="white" stroke-width="1" x1="40" x2="55" y1="51" y2="51" /><line stroke="white" stroke-width="1" x1="148" x2="170" y1="51" y2="51" /><line stroke="white" stroke-width="1" x1="39" x2="54" y1="52" y2="52" /><line stroke="white" stroke-width="1" x1="148" x2="170" y1="52" y2="52" /><line stroke="white" stroke-width="1" x1="38" x2="52" y1="53" y2="53" /><line stroke="white" stroke-width="1" x1="148" x2="170" y1="53" y2="53" /><line stroke="white" stroke-width="1" x1="37" x2="52" y1="54" y2="54" /><line stroke="white" stroke-width="1" x1="148" x2="170" y1="54" y2="54" /><line stroke="white" stroke-width="1" x1="36" x2="51" y1="55" y2="55" /><line stroke="white" stroke-width="1" x1="149" x2="170" y1="55" y2="55" /><line stroke="white" stroke-width="1" x1="36" x2="50" y1="56" y2="56" /><line stroke="white" stroke-width="1" x1="149" x2="170" y1="56" y2="56" /><line stroke="white" stroke-width="1" x1="35" x2="50" y1="57" y2="57" /><line stroke="white" stroke-width="1" x1="149" x2="170" y1="57" y2="57" /><line stroke="white" stroke-width="1" x1="35" x2="50" y1="58" y2="58" /><line stroke="white" stroke-width="1" x1="149" x2="170" y1="58" y2="58" /><line stroke="white" stroke-width="1" x1="34" x2="50" y1="59" y2="59" /><line stroke="white" stroke-width="1" x1="148" x2="170" y1="59" y2="59" /><line stroke="white" stroke-width="1" x1="34" x2="50" y1="60" y2="60" /><line stroke="white" stroke-width="1" x1="148" x2="169" y1="60" y2="60" /><line stroke="white" stroke-width="1" x1="33" x2="50" y1="61" y2="61" /><line stroke="white" stroke-width="1" x1="147" x2="169" y1="61" y2="61" /><line stroke="white" stroke-width="1" x1="33" x2="50" y1="62" y2="62" /><line stroke="white" stroke-width="1" x1="147" x2="168" y1="62" y2="62" /><line stroke="white" stroke-width="1" x1="33" x2="51" y1="63" y2="63" /><line stroke="white" stroke-width="1" x1="145" x2="168" y1="63" y2="63" /><line stroke="white" stroke-width="1" x1="33" x2="52" y1="64" y2="64" /><line stroke="white" stroke-width="1" x1="144" x2="167" y1="64" y2="64" /><line stroke="white" stroke-width="1" x1="33" x2="54" y1="65" y2="65" /><line stroke="white" stroke-width="1" x1="143" x2="166" y1="65" y2="65" /><line stroke="white" stroke-width="1" x1="33" x2="60" y1="66" y2="66" /><line stroke="white" stroke-width="1" x1="141" x2="166" y1="66" y2="66" /><line stroke="white" stroke-width="1" x1="33" x2="62" y1="67" y2="67" /><line stroke="white" stroke-width="1" x1="140" x2="164" y1="67" y2="67" /><line stroke="white" stroke-width="1" x1="33" x2="63" y1="68" y2="68" /><line stroke="white" stroke-width="1" x1="72" x2="72" y1="68" y2="68" /><line stroke="white" stroke-width="1" x1="139" x2="163" y1="68" y2="68" /><line stroke="white" stroke-width="1" x1="33" x2="73" y1="69" y2="69" /><line stroke="white" stroke-width="1" x1="137" x2="162" y1="69" y2="69" /><line stroke="white" stroke-width="1" x1="33" x2="75" y1="70" y2="70" /><line stroke="white" stroke-width="1" x1="82" x2="84" y1="70" y2="70" /><line stroke="white" stroke-width="1" x1="97" x2="98" y1="70" y2="70" /><line stroke="white" stroke-width="1" x1="125" x2="128" y1="70" y2="70" /><line stroke="white" stroke-width="1" x1="135" x2="159" y1="70" y2="70" /><line stroke="white" stroke-width="1" x1="34" x2="85" y1="71" y2="71" /><line stroke="white" stroke-width="1" x1="95" x2="99" y1="71" y2="71" /><line stroke="white" stroke-width="1" x1="108" x2="110" y1="71" y2="71" /><line stroke="white" stroke-width="1" x1="124" x2="158" y1="71" y2="71" /><line stroke="white" stroke-width="1" x1="34" x2="88" y1="72" y2="72" /><line stroke="white" stroke-width="1" x1="93" x2="111" y1="72" y2="72" /><line stroke="white" stroke-width="1" x1="123" x2="157" y1="72" y2="72" /><line stroke="white" stroke-width="1" x1="34" x2="113" y1="73" y2="73" /><line stroke="white" stroke-width="1" x1="121" x2="157" y1="73" y2="73" /><line stroke="white" stroke-width="1" x1="35" x2="156" y1="74" y2="74" /><line stroke="white" stroke-width="1" x1="35" x2="155" y1="75" y2="75" /><line stroke="white" stroke-width="1" x1="36" x2="154" y1="76" y2="76" /><line stroke="white" stroke-width="1" x1="36" x2="153" y1="77" y2="77" /><line stroke="white" stroke-width="1" x1="37" x2="152" y1="78" y2="78" /><line stroke="white" stroke-width="1" x1="38" x2="150" y1="79" y2="79" /><line stroke="white" stroke-width="1" x1="39" x2="149" y1="80" y2="80" /><line stroke="white" stroke-width="1" x1="41" x2="148" y1="81" y2="81" /><line stroke="white" stroke-width="1" x1="43" x2="112" y1="82" y2="82" /><line stroke="white" stroke-width="1" x1="117" x2="146" y1="82" y2="82" /><line stroke="white" stroke-width="1" x1="46" x2="110" y1="83" y2="83" /><line stroke="white" stroke-width="1" x1="119" x2="144" y1="83" y2="83" /><line stroke="white" stroke-width="1" x1="52" x2="70" y1="84" y2="84" /><line stroke="white" stroke-width="1" x1="74" x2="109" y1="84" y2="84" /><line stroke="white" stroke-width="1" x1="122" x2="128" y1="84" y2="84" /><line stroke="white" stroke-width="1" x1="134" x2="141" y1="84" y2="84" /><line stroke="white" stroke-width="1" x1="54" x2="68" y1="85" y2="85" /><line stroke="white" stroke-width="1" x1="75" x2="107" y1="85" y2="85" /><line stroke="white" stroke-width="1" x1="57" x2="65" y1="86" y2="86" /><line stroke="white" stroke-width="1" x1="77" x2="91" y1="86" y2="86" /><line stroke="white" stroke-width="1" x1="96" x2="103" y1="86" y2="86" /><line stroke="white" stroke-width="1" x1="81" x2="88" y1="87" y2="87" /></svg>