<?xml version="1.0" encoding="utf-8" ?>
<svg baseProfile="tiny" height="182" version="1.2" width="171" xmlns="http://www.w3.org/2000/svg" xmlns:ev="http://www.w3.org/2001/xml-events" xmlns:xlink="http://www.w3.org/1999/xlink"><defs /><rect fill="black" height="182" width="171" x="0" y="0" /><line stroke="white" stroke-width="1" x1="42" x2="59" y1="153" y2="153" /><line stroke="white" stroke-width="1" x1="108" x2="158" y1="143" y2="143" /><line stroke="white" stroke-width="1" x1="91" x2="104" y1="143" y2="143" /><line stroke="white" stroke-width="1" x1="88" x2="89" y1="143" y2="143" /><line stroke="white" stroke-width="1" x1="24" x2="54" y1="143" y2="143" /><line stroke="white" stroke-width="1" x1="155" x2="158" y1="137" y2="137" /><line stroke="white" stroke-width="1" x1="96" x2="158" y1="138" y2="138" /><line stroke="white" stroke-width="1" x1="62" x2="63" y1="122" y2="122" /><line stroke="white" stroke-width="1" x1="57" x2="64" y1="123" y2="123" /><line stroke="white" stroke-width="1" x1="51" x2="67" y1="124" y2="124" /><line stroke="white" stroke-width="1" x1="106" x2="158" y1="118" y2="118" /><line stroke="white" stroke-width="1" x1="106" x2="107" y1="119" y2="119" /><line stroke="white" stroke-width="1" x1="104" x2="106" y1="120" y2="120" /><line stroke="white" stroke-width="1" x1="103" x2="106" y1="121" y2="121" /><line stroke="white" stroke-width="1" x1="101" x2="106" y1="122" y2="122" /><line stroke="white" stroke-width="1" x1="74" x2="105" y1="123" y2="123" /><line stroke="white" stroke-width="1" x1="72" x2="106" y1="124" y2="124" /><line stroke="white" stroke-width="1" x1="94" x2="111" y1="125" y2="125" /><line stroke="white" stroke-width="1" x1="47" x2="158" y1="126" y2="126" /><line stroke="white" stroke-width="1" x1="52" x2="158" y1="127" y2="127" /><line stroke="white" stroke-width="1" x1="44" x2="158" y1="128" y2="128" /><line stroke="white" stroke-width="1" x1="50" x2="158" y1="129" y2="129" /><line stroke="white" stroke-width="1" x1="26" x2="158" y1="130" y2="130" /><line stroke="white" stroke-width="1" x1="98" x2="158" y1="131" y2="131" /><line stroke="white" stroke-width="1" x1="27" x2="158" y1="132" y2="132" /><line stroke="white" stroke-width="1" x1="10" x2="158" y1="133" y2="133" /><line stroke="white" stroke-width="1" x1="10" x2="158" y1="134" y2="134" /><line stroke="white" stroke-width="1" x1="10" x2="158" y1="135" y2="135" /><line stroke="white" stroke-width="1" x1="10" x2="85" y1="136" y2="136" /><line stroke="white" stroke-width="1" x1="11" x2="69" y1="137" y2="137" /><line stroke="white" stroke-width="1" x1="15" x2="47" y1="138" y2="138" /><line stroke="white" stroke-width="1" x1="15" x2="64" y1="118" y2="118" /><line stroke="white" stroke-width="1" x1="11" x2="154" y1="107" y2="107" /><line stroke="white" stroke-width="1" x1="11" x2="154" y1="108" y2="108" /><line stroke="white" stroke-width="1" x1="22" x2="28" y1="109" y2="109" /><line stroke="white" stroke-width="1" x1="33" x2="138" y1="109" y2="109" /><line stroke="white" stroke-width="1" x1="54" x2="80" y1="110" y2="110" /><line stroke="white" stroke-width="1" x1="90" x2="131" y1="110" y2="110" /><line stroke="white" stroke-width="1" x1="11" x2="76" y1="111" y2="111" /><line stroke="white" stroke-width="1" x1="94" x2="151" y1="111" y2="111" /><line stroke="white" stroke-width="1" x1="11" x2="73" y1="112" y2="112" /><line stroke="white" stroke-width="1" x1="97" x2="152" y1="112" y2="112" /><line stroke="white" stroke-width="1" x1="11" x2="71" y1="113" y2="113" /><line stroke="white" stroke-width="1" x1="99" x2="149" y1="113" y2="113" /><line stroke="white" stroke-width="1" x1="11" x2="69" y1="114" y2="114" /><line stroke="white" stroke-width="1" x1="101" x2="150" y1="114" y2="114" /><line stroke="white" stroke-width="1" x1="11" x2="33" y1="75" y2="75" /><line stroke="white" stroke-width="1" x1="11" x2="112" y1="13" y2="13" /><line stroke="white" stroke-width="1" x1="11" x2="107" y1="14" y2="14" /><line stroke="white" stroke-width="1" x1="55" x2="93" y1="15" y2="15" /><line stroke="white" stroke-width="1" x1="53" x2="108" y1="16" y2="16" /><line stroke="white" stroke-width="1" x1="11" x2="158" y1="17" y2="17" /><line stroke="white" stroke-width="1" x1="11" x2="158" y1="18" y2="18" /><line stroke="white" stroke-width="1" x1="11" x2="158" y1="19" y2="19" /><line stroke="white" stroke-width="1" x1="11" x2="158" y1="20" y2="20" /><line stroke="white" stroke-width="1" x1="11" x2="158" y1="21" y2="21" /><line stroke="white" stroke-width="1" x1="11" x2="158" y1="22" y2="22" /><line stroke="white" stroke-width="1" x1="11" x2="158" y1="23" y2="23" /><line stroke="white" stroke-width="1" x1="11" x2="158" y1="24" y2="24" /><line stroke="white" stroke-width="1" x1="11" x2="158" y1="25" y2="25" /><line stroke="white" stroke-width="1" x1="11" x2="158" y1="26" y2="26" /><line stroke="white" stroke-width="1" x1="11" x2="158" y1="27" y2="27" /><line stroke="white" stroke-width="1" x1="11" x2="158" y1="28" y2="28" /><line stroke="white" stroke-width="1" x1="11" x2="158" y1="29" y2="29" /><line stroke="white" stroke-width="1" x1="11" x2="158" y1="30" y2="30" /><line stroke="white" stroke-width="1" x1="11" x2="158" y1="31" y2="31" /><line stroke="white" stroke-width="1" x1="11" x2="158" y1="32" y2="32" /><line stroke="white" stroke-width="1" x1="11" x2="158" y1="33" y2="33" /><line stroke="white" stroke-width="1" x1="11" x2="158" y1="34" y2="34" /><line stroke="white" stroke-width="1" x1="11" x2="158" y1="35" y2="35" /><line stroke="white" stroke-width="1" x1="11" x2="158" y1="36" y2="36" /><line stroke="white" stroke-width="1" x1="11" x2="158" y1="37" y2="37" /><line stroke="white" stroke-width="1" x1="11" x2="158" y1="38" y2="38" /><line stroke="white" stroke-width="1" x1="11" x2="158" y1="39" y2="39" /><line stroke="white" stroke-width="1" x1="11" x2="158" y1="40" y2="40" /><line stroke="white" stroke-width="1" x1="11" x2="158" y1="41" y2="41" /><line stroke="white" stroke-width="1" x1="11" x2="158" y1="42" y2="42" /><line stroke="white" stroke-width="1" x1="11" x2="158" y1="43" y2="43" /><line stroke="white" stroke-width="1" x1="11" x2="158" y1="44" y2="44" /><line stroke="white" stroke-width="1" x1="11" x2="158" y1="45" y2="45" /><line stroke="white" stroke-width="1" x1="11" x2="158" y1="46" y2="46" /><line stroke="white" stroke-width="1" x1="12" x2="158" y1="47" y2="47" /><line stroke="white" stroke-width="1" x1="11" x2="158" y1="48" y2="48" /><line stroke="white" stroke-width="1" x1="11" x2="157" y1="49" y2="49" /><line stroke="white" stroke-width="1" x1="84" x2="157" y1="50" y2="50" /><line stroke="white" stroke-width="1" x1="11" x2="157" y1="51" y2="51" /><line stroke="white" stroke-width="1" x1="11" x2="157" y1="52" y2="52" /><line stroke="white" stroke-width="1" x1="11" x2="153" y1="53" y2="53" /><line stroke="white" stroke-width="1" x1="10" x2="110" y1="54" y2="54" /><line stroke="white" stroke-width="1" x1="10" x2="108" y1="55" y2="55" /><line stroke="white" stroke-width="1" x1="10" x2="146" y1="56" y2="56" /><line stroke="white" stroke-width="1" x1="12" x2="143" y1="57" y2="57" /><line stroke="white" stroke-width="1" x1="12" x2="112" y1="58" y2="58" /><line stroke="white" stroke-width="1" x1="12" x2="112" y1="59" y2="59" /><line stroke="white" stroke-width="1" x1="12" x2="128" y1="60" y2="60" /><line stroke="white" stroke-width="1" x1="12" x2="45" y1="61" y2="61" /><line stroke="white" stroke-width="1" x1="12" x2="55" y1="62" y2="62" /><line stroke="white" stroke-width="1" x1="29" x2="96" y1="63" y2="63" /></svg>