<?xml version="1.0" encoding="utf-8" ?>
<svg baseProfile="tiny" height="345" version="1.2" width="345" xmlns="http://www.w3.org/2000/svg" xmlns:ev="http://www.w3.org/2001/xml-events" xmlns:xlink="http://www.w3.org/1999/xlink"><defs /><rect fill="black" height="345" width="345" x="0" y="0" /><line stroke="white" stroke-width="1" x1="53" x2="56" y1="181" y2="181" /><line stroke="white" stroke-width="1" x1="51" x2="52" y1="182" y2="182" /><line stroke="white" stroke-width="1" x1="55" x2="55" y1="182" y2="182" /><line stroke="white" stroke-width="1" x1="48" x2="49" y1="185" y2="185" /><line stroke="white" stroke-width="1" x1="45" x2="46" y1="189" y2="189" /><line stroke="white" stroke-width="1" x1="44" x2="45" y1="192" y2="192" /><line stroke="white" stroke-width="1" x1="198" x2="302" y1="43" y2="43" /><line stroke="white" stroke-width="1" x1="198" x2="302" y1="44" y2="44" /><line stroke="white" stroke-width="1" x1="198" x2="302" y1="45" y2="45" /><line stroke="white" stroke-width="1" x1="198" x2="302" y1="46" y2="46" /><line stroke="white" stroke-width="1" x1="198" x2="302" y1="47" y2="47" /><line stroke="white" stroke-width="1" x1="198" x2="302" y1="48" y2="48" /><line stroke="white" stroke-width="1" x1="198" x2="302" y1="49" y2="49" /><line stroke="white" stroke-width="1" x1="198" x2="302" y1="50" y2="50" /><line stroke="white" stroke-width="1" x1="198" x2="302" y1="51" y2="51" /><line stroke="white" stroke-width="1" x1="198" x2="302" y1="52" y2="52" /><line stroke="white" stroke-width="1" x1="198" x2="302" y1="53" y2="53" /><line stroke="white" stroke-width="1" x1="198" x2="302" y1="54" y2="54" /><line stroke="white" stroke-width="1" x1="198" x2="302" y1="55" y2="55" /><line stroke="white" stroke-width="1" x1="198" x2="302" y1="56" y2="56" /><line stroke="white" stroke-width="1" x1="198" x2="302" y1="57" y2="57" /><line stroke="white" stroke-width="1" x1="198" x2="302" y1="58" y2="58" /><line stroke="white" stroke-width="1" x1="198" x2="302" y1="59" y2="59" /><line stroke="white" stroke-width="1" x1="198" x2="302" y1="60" y2="60" /><line stroke="white" stroke-width="1" x1="198" x2="302" y1="61" y2="61" /><line stroke="white" stroke-width="1" x1="198" x2="302" y1="62" y2="62" /><line stroke="white" stroke-width="1" x1="198" x2="302" y1="63" y2="63" /><line stroke="white" stroke-width="1" x1="198" x2="302" y1="64" y2="64" /><line stroke="white" stroke-width="1" x1="198" x2="302" y1="65" y2="65" /><line stroke="white" stroke-width="1" x1="198" x2="302" y1="66" y2="66" /><line stroke="white" stroke-width="1" x1="198" x2="302" y1="67" y2="67" /><line stroke="white" stroke-width="1" x1="198" x2="302" y1="68" y2="68" /><line stroke="white" stroke-width="1" x1="198" x2="302" y1="69" y2="69" /><line stroke="white" stroke-width="1" x1="198" x2="302" y1="70" y2="70" /><line stroke="white" stroke-width="1" x1="198" x2="302" y1="71" y2="71" /><line stroke="white" stroke-width="1" x1="198" x2="302" y1="72" y2="72" /><line stroke="white" stroke-width="1" x1="198" x2="302" y1="73" y2="73" /><line stroke="white" stroke-width="1" x1="198" x2="302" y1="74" y2="74" /><line stroke="white" stroke-width="1" x1="198" x2="302" y1="75" y2="75" /><line stroke="white" stroke-width="1" x1="198" x2="302" y1="76" y2="76" /><line stroke="white" stroke-width="1" x1="198" x2="302" y1="77" y2="77" /><line stroke="white" stroke-width="1" x1="198" x2="302" y1="78" y2="78" /><line stroke="white" stroke-width="1" x1="198" x2="302" y1="79" y2="79" /><line stroke="white" stroke-width="1" x1="198" x2="302" y1="80" y2="80" /><line stroke="white" stroke-width="1" x1="198" x2="302" y1="81" y2="81" /><line stroke="white" stroke-width="1" x1="198" x2="302" y1="82" y2="82" /><line stroke="white" stroke-width="1" x1="198" x2="302" y1="83" y2="83" /><line stroke="white" stroke-width="1" x1="198" x2="302" y1="84" y2="84" /><line stroke="white" stroke-width="1" x1="198" x2="302" y1="85" y2="85" /><line stroke="white" stroke-width="1" x1="198" x2="302" y1="86" y2="86" /><line stroke="white" stroke-width="1" x1="198" x2="302" y1="87" y2="87" /><line stroke="white" stroke-width="1" x1="198" x2="302" y1="88" y2="88" /><line stroke="white" stroke-width="1" x1="198" x2="302" y1="89" y2="89" /><line stroke="white" stroke-width="1" x1="198" x2="302" y1="90" y2="90" /><line stroke="white" stroke-width="1" x1="198" x2="302" y1="91" y2="91" /><line stroke="white" stroke-width="1" x1="198" x2="302" y1="92" y2="92" /><line stroke="white" stroke-width="1" x1="198" x2="302" y1="93" y2="93" /><line stroke="white" stroke-width="1" x1="198" x2="302" y1="94" y2="94" /><line stroke="white" stroke-width="1" x1="198" x2="302" y1="95" y2="95" /><line stroke="white" stroke-width="1" x1="198" x2="302" y1="96" y2="96" /><line stroke="white" stroke-width="1" x1="198" x2="302" y1="97" y2="97" /><line stroke="white" stroke-width="1" x1="198" x2="302" y1="98" y2="98" /><line stroke="white" stroke-width="1" x1="198" x2="302" y1="99" y2="99" /><line stroke="white" stroke-width="1" x1="198" x2="302" y1="100" y2="100" /><line stroke="white" stroke-width="1" x1="198" x2="302" y1="101" y2="101" /><line stroke="white" stroke-width="1" x1="198" x2="302" y1="102" y2="102" /><line stroke="white" stroke-width="1" x1="198" x2="302" y1="103" y2="103" /><line stroke="white" stroke-width="1" x1="198" x2="302" y1="104" y2="104" /><line stroke="white" stroke-width="1" x1="198" x2="302" y1="105" y2="105" /><line stroke="white" stroke-width="1" x1="198" x2="302" y1="106" y2="106" /><line stroke="white" stroke-width="1" x1="198" x2="302" y1="107" y2="107" /><line stroke="white" stroke-width="1" x1="198" x2="302" y1="108" y2="108" /><line stroke="white" stroke-width="1" x1="198" x2="302" y1="109" y2="109" /><line stroke="white" stroke-width="1" x1="198" x2="302" y1="110" y2="110" /><line stroke="white" stroke-width="1" x1="198" x2="302" y1="111" y2="111" /><line stroke="white" stroke-width="1" x1="198" x2="302" y1="112" y2="112" /><line stroke="white" stroke-width="1" x1="198" x2="302" y1="113" y2="113" /><line stroke="white" stroke-width="1" x1="198" x2="302" y1="114" y2="114" /><line stroke="white" stroke-width="1" x1="198" x2="302" y1="115" y2="115" /><line stroke="white" stroke-width="1" x1="198" x2="302" y1="116" y2="116" /><line stroke="white" stroke-width="1" x1="198" x2="302" y1="117" y2="117" /><line stroke="white" stroke-width="1" x1="198" x2="302" y1="118" y2="118" /><line stroke="white" stroke-width="1" x1="198" x2="302" y1="119" y2="119" /><line stroke="white" stroke-width="1" x1="198" x2="302" y1="120" y2="120" /><line stroke="white" stroke-width="1" x1="198" x2="302" y1="121" y2="121" /><line stroke="white" stroke-width="1" x1="198" x2="302" y1="122" y2="122" /><line stroke="white" stroke-width="1" x1="198" x2="302" y1="123" y2="123" /><line stroke="white" stroke-width="1" x1="198" x2="302" y1="124" y2="124" /><line stroke="white" stroke-width="1" x1="198" x2="302" y1="125" y2="125" /><line stroke="white" stroke-width="1" x1="198" x2="302" y1="126" y2="126" /><line stroke="white" stroke-width="1" x1="198" x2="302" y1="127" y2="127" /><line stroke="white" stroke-width="1" x1="198" x2="302" y1="128" y2="128" /><line stroke="white" stroke-width="1" x1="198" x2="302" y1="129" y2="129" /><line stroke="white" stroke-width="1" x1="198" x2="302" y1="130" y2="130" /><line stroke="white" stroke-width="1" x1="198" x2="302" y1="131" y2="131" /><line stroke="white" stroke-width="1" x1="198" x2="302" y1="132" y2="132" /><line stroke="white" stroke-width="1" x1="198" x2="302" y1="133" y2="133" /><line stroke="white" stroke-width="1" x1="198" x2="302" y1="134" y2="134" /><line stroke="white" stroke-width="1" x1="198" x2="302" y1="135" y2="135" /><line stroke="white" stroke-width="1" x1="198" x2="302" y1="136" y2="136" /><line stroke="white" stroke-width="1" x1="198" x2="302" y1="137" y2="137" /></svg>