<?xml version="1.0" encoding="utf-8" ?>
<svg baseProfile="tiny" height="153" version="1.2" width="153" xmlns="http://www.w3.org/2000/svg" xmlns:ev="http://www.w3.org/2001/xml-events" xmlns:xlink="http://www.w3.org/1999/xlink"><defs /><rect fill="black" height="153" width="153" x="0" y="0" /><line stroke="white" stroke-width="1" x1="97" x2="99" y1="95" y2="95" /><line stroke="white" stroke-width="1" x1="98" x2="100" y1="96" y2="96" /><line stroke="white" stroke-width="1" x1="96" x2="100" y1="97" y2="97" /><line stroke="white" stroke-width="1" x1="97" x2="100" y1="98" y2="98" /><line stroke="white" stroke-width="1" x1="98" x2="99" y1="99" y2="99" /><line stroke="white" stroke-width="1" x1="63" x2="64" y1="93" y2="93" /><line stroke="white" stroke-width="1" x1="63" x2="65" y1="94" y2="94" /><line stroke="white" stroke-width="1" x1="63" x2="65" y1="95" y2="95" /><line stroke="white" stroke-width="1" x1="63" x2="66" y1="96" y2="96" /><line stroke="white" stroke-width="1" x1="63" x2="67" y1="97" y2="97" /><line stroke="white" stroke-width="1" x1="63" x2="64" y1="98" y2="98" /><line stroke="white" stroke-width="1" x1="106" x2="107" y1="92" y2="92" /><line stroke="white" stroke-width="1" x1="103" x2="107" y1="93" y2="93" /><line stroke="white" stroke-width="1" x1="103" x2="107" y1="94" y2="94" /><line stroke="white" stroke-width="1" x1="56" x2="57" y1="91" y2="91" /><line stroke="white" stroke-width="1" x1="56" x2="58" y1="92" y2="92" /><line stroke="white" stroke-width="1" x1="57" x2="58" y1="93" y2="93" /><line stroke="white" stroke-width="1" x1="57" x2="58" y1="94" y2="94" /></svg>