<?xml version="1.0" encoding="utf-8" ?>
<svg baseProfile="tiny" height="256" version="1.2" width="256" xmlns="http://www.w3.org/2000/svg" xmlns:ev="http://www.w3.org/2001/xml-events" xmlns:xlink="http://www.w3.org/1999/xlink"><defs /><rect fill="black" height="256" width="256" x="0" y="0" /><line stroke="white" stroke-width="2" x1="59" x2="61" y1="223" y2="223" /><line stroke="white" stroke-width="2" x1="61" x2="63" y1="223" y2="223" /><line stroke="white" stroke-width="2" x1="57" x2="59" y1="225" y2="225" /><line stroke="white" stroke-width="2" x1="59" x2="61" y1="225" y2="225" /><line stroke="white" stroke-width="2" x1="61" x2="63" y1="225" y2="225" /><line stroke="white" stroke-width="2" x1="63" x2="65" y1="225" y2="225" /><line stroke="white" stroke-width="2" x1="65" x2="67" y1="225" y2="225" /><line stroke="white" stroke-width="2" x1="67" x2="69" y1="225" y2="225" /><line stroke="white" stroke-width="2" x1="69" x2="71" y1="225" y2="225" /><line stroke="white" stroke-width="2" x1="57" x2="59" y1="227" y2="227" /><line stroke="white" stroke-width="2" x1="59" x2="61" y1="227" y2="227" /><line stroke="white" stroke-width="2" x1="61" x2="63" y1="227" y2="227" /><line stroke="white" stroke-width="2" x1="63" x2="65" y1="227" y2="227" /><line stroke="white" stroke-width="2" x1="65" x2="67" y1="227" y2="227" /><line stroke="white" stroke-width="2" x1="67" x2="69" y1="227" y2="227" /><line stroke="white" stroke-width="2" x1="69" x2="71" y1="227" y2="227" /><line stroke="white" stroke-width="2" x1="71" x2="73" y1="227" y2="227" /><line stroke="white" stroke-width="2" x1="57" x2="59" y1="229" y2="229" /><line stroke="white" stroke-width="2" x1="59" x2="61" y1="229" y2="229" /><line stroke="white" stroke-width="2" x1="61" x2="63" y1="229" y2="229" /><line stroke="white" stroke-width="2" x1="63" x2="65" y1="229" y2="229" /><line stroke="white" stroke-width="2" x1="65" x2="67" y1="229" y2="229" /><line stroke="white" stroke-width="2" x1="67" x2="69" y1="229" y2="229" /><line stroke="white" stroke-width="2" x1="69" x2="71" y1="229" y2="229" /><line stroke="white" stroke-width="2" x1="71" x2="73" y1="229" y2="229" /><line stroke="white" stroke-width="2" x1="73" x2="75" y1="229" y2="229" /><line stroke="white" stroke-width="2" x1="75" x2="77" y1="229" y2="229" /><line stroke="white" stroke-width="2" x1="77" x2="79" y1="229" y2="229" /><line stroke="white" stroke-width="2" x1="79" x2="81" y1="229" y2="229" /><line stroke="white" stroke-width="2" x1="81" x2="83" y1="229" y2="229" /><line stroke="white" stroke-width="2" x1="57" x2="59" y1="231" y2="231" /><line stroke="white" stroke-width="2" x1="59" x2="61" y1="231" y2="231" /><line stroke="white" stroke-width="2" x1="61" x2="63" y1="231" y2="231" /><line stroke="white" stroke-width="2" x1="63" x2="65" y1="231" y2="231" /><line stroke="white" stroke-width="2" x1="65" x2="67" y1="231" y2="231" /><line stroke="white" stroke-width="2" x1="67" x2="69" y1="231" y2="231" /><line stroke="white" stroke-width="2" x1="69" x2="71" y1="231" y2="231" /><line stroke="white" stroke-width="2" x1="71" x2="73" y1="231" y2="231" /><line stroke="white" stroke-width="2" x1="73" x2="75" y1="231" y2="231" /><line stroke="white" stroke-width="2" x1="75" x2="77" y1="231" y2="231" /><line stroke="white" stroke-width="2" x1="77" x2="79" y1="231" y2="231" /><line stroke="white" stroke-width="2" x1="79" x2="81" y1="231" y2="231" /><line stroke="white" stroke-width="2" x1="81" x2="83" y1="231" y2="231" /><line stroke="white" stroke-width="2" x1="83" x2="85" y1="231" y2="231" /><line stroke="white" stroke-width="2" x1="61" x2="63" y1="233" y2="233" /><line stroke="white" stroke-width="2" x1="63" x2="65" y1="233" y2="233" /><line stroke="white" stroke-width="2" x1="65" x2="67" y1="233" y2="233" /><line stroke="white" stroke-width="2" x1="67" x2="69" y1="233" y2="233" /><line stroke="white" stroke-width="2" x1="69" x2="71" y1="233" y2="233" /><line stroke="white" stroke-width="2" x1="71" x2="73" y1="233" y2="233" /><line stroke="white" stroke-width="2" x1="73" x2="75" y1="233" y2="233" /><line stroke="white" stroke-width="2" x1="75" x2="77" y1="233" y2="233" /><line stroke="white" stroke-width="2" x1="77" x2="79" y1="233" y2="233" /><line stroke="white" stroke-width="2" x1="79" x2="81" y1="233" y2="233" /><line stroke="white" stroke-width="2" x1="81" x2="83" y1="233" y2="233" /><line stroke="white" stroke-width="2" x1="83" x2="85" y1="233" y2="233" /><line stroke="white" stroke-width="2" x1="85" x2="87" y1="233" y2="233" /><line stroke="white" stroke-width="2" x1="65" x2="67" y1="235" y2="235" /><line stroke="white" stroke-width="2" x1="67" x2="69" y1="235" y2="235" /><line stroke="white" stroke-width="2" x1="69" x2="71" y1="235" y2="235" /><line stroke="white" stroke-width="2" x1="71" x2="73" y1="235" y2="235" /><line stroke="white" stroke-width="2" x1="73" x2="75" y1="235" y2="235" /><line stroke="white" stroke-width="2" x1="75" x2="77" y1="235" y2="235" /><line stroke="white" stroke-width="2" x1="77" x2="79" y1="235" y2="235" /><line stroke="white" stroke-width="2" x1="79" x2="81" y1="235" y2="235" /><line stroke="white" stroke-width="2" x1="234" x2="236" y1="199" y2="199" /><line stroke="white" stroke-width="2" x1="0" x2="2" y1="186" y2="186" /><line stroke="white" stroke-width="2" x1="0" x2="2" y1="188" y2="188" /><line stroke="white" stroke-width="2" x1="2" x2="4" y1="188" y2="188" /><line stroke="white" stroke-width="2" x1="4" x2="6" y1="188" y2="188" /><line stroke="white" stroke-width="2" x1="0" x2="2" y1="190" y2="190" /><line stroke="white" stroke-width="2" x1="2" x2="4" y1="190" y2="190" /><line stroke="white" stroke-width="2" x1="4" x2="6" y1="190" y2="190" /><line stroke="white" stroke-width="2" x1="0" x2="2" y1="192" y2="192" /><line stroke="white" stroke-width="2" x1="2" x2="4" y1="192" y2="192" /><line stroke="white" stroke-width="2" x1="4" x2="6" y1="192" y2="192" /><line stroke="white" stroke-width="2" x1="0" x2="2" y1="194" y2="194" /><line stroke="white" stroke-width="2" x1="2" x2="4" y1="194" y2="194" /><line stroke="white" stroke-width="2" x1="4" x2="6" y1="194" y2="194" /><line stroke="white" stroke-width="2" x1="6" x2="8" y1="194" y2="194" /><line stroke="white" stroke-width="2" x1="0" x2="2" y1="196" y2="196" /><line stroke="white" stroke-width="2" x1="2" x2="4" y1="196" y2="196" /><line stroke="white" stroke-width="2" x1="4" x2="6" y1="196" y2="196" /><line stroke="white" stroke-width="2" x1="6" x2="8" y1="196" y2="196" /><line stroke="white" stroke-width="2" x1="8" x2="10" y1="196" y2="196" /><line stroke="white" stroke-width="2" x1="10" x2="12" y1="196" y2="196" /><line stroke="white" stroke-width="2" x1="12" x2="14" y1="196" y2="196" /><line stroke="white" stroke-width="2" x1="14" x2="16" y1="196" y2="196" /><line stroke="white" stroke-width="2" x1="16" x2="18" y1="196" y2="196" /><line stroke="white" stroke-width="2" x1="18" x2="20" y1="196" y2="196" /><line stroke="white" stroke-width="2" x1="20" x2="22" y1="196" y2="196" /><line stroke="white" stroke-width="2" x1="22" x2="24" y1="196" y2="196" /><line stroke="white" stroke-width="2" x1="24" x2="26" y1="196" y2="196" /><line stroke="white" stroke-width="2" x1="26" x2="28" y1="196" y2="196" /><line stroke="white" stroke-width="2" x1="0" x2="2" y1="198" y2="198" /><line stroke="white" stroke-width="2" x1="2" x2="4" y1="198" y2="198" /><line stroke="white" stroke-width="2" x1="4" x2="6" y1="198" y2="198" /><line stroke="white" stroke-width="2" x1="6" x2="8" y1="198" y2="198" /><line stroke="white" stroke-width="2" x1="8" x2="10" y1="198" y2="198" /><line stroke="white" stroke-width="2" x1="10" x2="12" y1="198" y2="198" /><line stroke="white" stroke-width="2" x1="12" x2="14" y1="198" y2="198" /><line stroke="white" stroke-width="2" x1="14" x2="16" y1="198" y2="198" /><line stroke="white" stroke-width="2" x1="16" x2="18" y1="198" y2="198" /><line stroke="white" stroke-width="2" x1="18" x2="20" y1="198" y2="198" /><line stroke="white" stroke-width="2" x1="20" x2="22" y1="198" y2="198" /><line stroke="white" stroke-width="2" x1="22" x2="24" y1="198" y2="198" /><line stroke="white" stroke-width="2" x1="24" x2="26" y1="198" y2="198" /><line stroke="white" stroke-width="2" x1="26" x2="28" y1="198" y2="198" /><line stroke="white" stroke-width="2" x1="28" x2="30" y1="198" y2="198" /><line stroke="white" stroke-width="2" x1="30" x2="32" y1="198" y2="198" /><line stroke="white" stroke-width="2" x1="0" x2="2" y1="200" y2="200" /><line stroke="white" stroke-width="2" x1="2" x2="4" y1="200" y2="200" /><line stroke="white" stroke-width="2" x1="4" x2="6" y1="200" y2="200" /><line stroke="white" stroke-width="2" x1="6" x2="8" y1="200" y2="200" /><line stroke="white" stroke-width="2" x1="8" x2="10" y1="200" y2="200" /><line stroke="white" stroke-width="2" x1="10" x2="12" y1="200" y2="200" /><line stroke="white" stroke-width="2" x1="12" x2="14" y1="200" y2="200" /><line stroke="white" stroke-width="2" x1="14" x2="16" y1="200" y2="200" /><line stroke="white" stroke-width="2" x1="16" x2="18" y1="200" y2="200" /><line stroke="white" stroke-width="2" x1="18" x2="20" y1="200" y2="200" /><line stroke="white" stroke-width="2" x1="20" x2="22" y1="200" y2="200" /><line stroke="white" stroke-width="2" x1="22" x2="24" y1="200" y2="200" /><line stroke="white" stroke-width="2" x1="24" x2="26" y1="200" y2="200" /><line stroke="white" stroke-width="2" x1="26" x2="28" y1="200" y2="200" /><line stroke="white" stroke-width="2" x1="28" x2="30" y1="200" y2="200" /><line stroke="white" stroke-width="2" x1="30" x2="32" y1="200" y2="200" /><line stroke="white" stroke-width="2" x1="32" x2="34" y1="200" y2="200" /><line stroke="white" stroke-width="2" x1="0" x2="2" y1="202" y2="202" /><line stroke="white" stroke-width="2" x1="2" x2="4" y1="202" y2="202" /><line stroke="white" stroke-width="2" x1="4" x2="6" y1="202" y2="202" /><line stroke="white" stroke-width="2" x1="6" x2="8" y1="202" y2="202" /><line stroke="white" stroke-width="2" x1="8" x2="10" y1="202" y2="202" /><line stroke="white" stroke-width="2" x1="10" x2="12" y1="202" y2="202" /><line stroke="white" stroke-width="2" x1="12" x2="14" y1="202" y2="202" /><line stroke="white" stroke-width="2" x1="14" x2="16" y1="202" y2="202" /><line stroke="white" stroke-width="2" x1="16" x2="18" y1="202" y2="202" /><line stroke="white" stroke-width="2" x1="18" x2="20" y1="202" y2="202" /><line stroke="white" stroke-width="2" x1="20" x2="22" y1="202" y2="202" /><line stroke="white" stroke-width="2" x1="22" x2="24" y1="202" y2="202" /><line stroke="white" stroke-width="2" x1="24" x2="26" y1="202" y2="202" /><line stroke="white" stroke-width="2" x1="26" x2="28" y1="202" y2="202" /><line stroke="white" stroke-width="2" x1="28" x2="30" y1="202" y2="202" /><line stroke="white" stroke-width="2" x1="30" x2="32" y1="202" y2="202" /><line stroke="white" stroke-width="2" x1="0" x2="2" y1="204" y2="204" /><line stroke="white" stroke-width="2" x1="2" x2="4" y1="204" y2="204" /><line stroke="white" stroke-width="2" x1="4" x2="6" y1="204" y2="204" /><line stroke="white" stroke-width="2" x1="6" x2="8" y1="204" y2="204" /><line stroke="white" stroke-width="2" x1="8" x2="10" y1="204" y2="204" /><line stroke="white" stroke-width="2" x1="10" x2="12" y1="204" y2="204" /><line stroke="white" stroke-width="2" x1="12" x2="14" y1="204" y2="204" /><line stroke="white" stroke-width="2" x1="14" x2="16" y1="204" y2="204" /><line stroke="white" stroke-width="2" x1="16" x2="18" y1="204" y2="204" /><line stroke="white" stroke-width="2" x1="18" x2="20" y1="204" y2="204" /><line stroke="white" stroke-width="2" x1="20" x2="22" y1="204" y2="204" /><line stroke="white" stroke-width="2" x1="22" x2="24" y1="204" y2="204" /><line stroke="white" stroke-width="2" x1="24" x2="26" y1="204" y2="204" /><line stroke="white" stroke-width="2" x1="26" x2="28" y1="204" y2="204" /><line stroke="white" stroke-width="2" x1="28" x2="30" y1="204" y2="204" /><line stroke="white" stroke-width="2" x1="4" x2="6" y1="206" y2="206" /><line stroke="white" stroke-width="2" x1="6" x2="8" y1="206" y2="206" /><line stroke="white" stroke-width="2" x1="8" x2="10" y1="206" y2="206" /><line stroke="white" stroke-width="2" x1="10" x2="12" y1="206" y2="206" /><line stroke="white" stroke-width="2" x1="12" x2="14" y1="206" y2="206" /><line stroke="white" stroke-width="2" x1="14" x2="16" y1="206" y2="206" /><line stroke="white" stroke-width="2" x1="16" x2="18" y1="206" y2="206" /><line stroke="white" stroke-width="2" x1="18" x2="20" y1="206" y2="206" /><line stroke="white" stroke-width="2" x1="20" x2="22" y1="206" y2="206" /><line stroke="white" stroke-width="2" x1="22" x2="24" y1="206" y2="206" /><line stroke="white" stroke-width="2" x1="24" x2="26" y1="206" y2="206" /><line stroke="white" stroke-width="2" x1="26" x2="28" y1="206" y2="206" /><line stroke="white" stroke-width="2" x1="10" x2="12" y1="208" y2="208" /><line stroke="white" stroke-width="2" x1="12" x2="14" y1="208" y2="208" /><line stroke="white" stroke-width="2" x1="14" x2="16" y1="208" y2="208" /><line stroke="white" stroke-width="2" x1="16" x2="18" y1="208" y2="208" /><line stroke="white" stroke-width="2" x1="18" x2="20" y1="208" y2="208" /><line stroke="white" stroke-width="2" x1="29" x2="31" y1="184" y2="184" /><line stroke="white" stroke-width="2" x1="29" x2="31" y1="186" y2="186" /><line stroke="white" stroke-width="2" x1="29" x2="31" y1="180" y2="180" /><line stroke="white" stroke-width="2" x1="195" x2="197" y1="173" y2="173" /><line stroke="white" stroke-width="2" x1="195" x2="197" y1="175" y2="175" /><line stroke="white" stroke-width="2" x1="27" x2="29" y1="172" y2="172" /><line stroke="white" stroke-width="2" x1="178" x2="180" y1="142" y2="142" /><line stroke="white" stroke-width="2" x1="227" x2="229" y1="135" y2="135" /><line stroke="white" stroke-width="2" x1="229" x2="231" y1="135" y2="135" /></svg>