<?xml version="1.0" encoding="utf-8" ?>
<svg baseProfile="tiny" height="150" version="1.2" width="150" xmlns="http://www.w3.org/2000/svg" xmlns:ev="http://www.w3.org/2001/xml-events" xmlns:xlink="http://www.w3.org/1999/xlink"><defs /><rect fill="black" height="150" width="150" x="0" y="0" /><line stroke="white" stroke-width="1" x1="9" x2="50" y1="60" y2="60" /><line stroke="white" stroke-width="1" x1="9" x2="50" y1="61" y2="61" /><line stroke="white" stroke-width="1" x1="9" x2="50" y1="62" y2="62" /><line stroke="white" stroke-width="1" x1="9" x2="50" y1="63" y2="63" /><line stroke="white" stroke-width="1" x1="9" x2="50" y1="64" y2="64" /><line stroke="white" stroke-width="1" x1="9" x2="50" y1="65" y2="65" /><line stroke="white" stroke-width="1" x1="9" x2="50" y1="66" y2="66" /><line stroke="white" stroke-width="1" x1="9" x2="50" y1="67" y2="67" /><line stroke="white" stroke-width="1" x1="9" x2="50" y1="68" y2="68" /><line stroke="white" stroke-width="1" x1="9" x2="50" y1="69" y2="69" /><line stroke="white" stroke-width="1" x1="9" x2="50" y1="70" y2="70" /><line stroke="white" stroke-width="1" x1="9" x2="50" y1="71" y2="71" /><line stroke="white" stroke-width="1" x1="9" x2="50" y1="72" y2="72" /><line stroke="white" stroke-width="1" x1="9" x2="50" y1="73" y2="73" /><line stroke="white" stroke-width="1" x1="9" x2="50" y1="74" y2="74" /><line stroke="white" stroke-width="1" x1="9" x2="50" y1="75" y2="75" /><line stroke="white" stroke-width="1" x1="9" x2="50" y1="76" y2="76" /><line stroke="white" stroke-width="1" x1="9" x2="50" y1="77" y2="77" /><line stroke="white" stroke-width="1" x1="9" x2="50" y1="78" y2="78" /><line stroke="white" stroke-width="1" x1="9" x2="50" y1="79" y2="79" /><line stroke="white" stroke-width="1" x1="9" x2="50" y1="80" y2="80" /><line stroke="white" stroke-width="1" x1="9" x2="50" y1="81" y2="81" /><line stroke="white" stroke-width="1" x1="9" x2="50" y1="82" y2="82" /><line stroke="white" stroke-width="1" x1="9" x2="50" y1="83" y2="83" /><line stroke="white" stroke-width="1" x1="9" x2="50" y1="84" y2="84" /><line stroke="white" stroke-width="1" x1="9" x2="50" y1="85" y2="85" /><line stroke="white" stroke-width="1" x1="9" x2="50" y1="86" y2="86" /><line stroke="white" stroke-width="1" x1="9" x2="50" y1="87" y2="87" /><line stroke="white" stroke-width="1" x1="9" x2="50" y1="88" y2="88" /><line stroke="white" stroke-width="1" x1="9" x2="50" y1="89" y2="89" /><line stroke="white" stroke-width="1" x1="9" x2="50" y1="90" y2="90" /><line stroke="white" stroke-width="1" x1="9" x2="50" y1="91" y2="91" /><line stroke="white" stroke-width="1" x1="9" x2="50" y1="92" y2="92" /><line stroke="white" stroke-width="1" x1="9" x2="50" y1="93" y2="93" /><line stroke="white" stroke-width="1" x1="9" x2="50" y1="94" y2="94" /><line stroke="white" stroke-width="1" x1="9" x2="50" y1="95" y2="95" /><line stroke="white" stroke-width="1" x1="9" x2="50" y1="96" y2="96" /><line stroke="white" stroke-width="1" x1="9" x2="50" y1="97" y2="97" /><line stroke="white" stroke-width="1" x1="9" x2="50" y1="98" y2="98" /><line stroke="white" stroke-width="1" x1="9" x2="50" y1="99" y2="99" /><line stroke="white" stroke-width="1" x1="9" x2="50" y1="100" y2="100" /><line stroke="white" stroke-width="1" x1="9" x2="50" y1="101" y2="101" /><line stroke="white" stroke-width="1" x1="9" x2="50" y1="102" y2="102" /><line stroke="white" stroke-width="1" x1="9" x2="50" y1="103" y2="103" /><line stroke="white" stroke-width="1" x1="9" x2="50" y1="104" y2="104" /><line stroke="white" stroke-width="1" x1="9" x2="50" y1="105" y2="105" /><line stroke="white" stroke-width="1" x1="9" x2="50" y1="106" y2="106" /><line stroke="white" stroke-width="1" x1="9" x2="50" y1="107" y2="107" /></svg>