<?xml version="1.0" encoding="utf-8" ?>
<svg baseProfile="tiny" height="91" version="1.2" width="91" xmlns="http://www.w3.org/2000/svg" xmlns:ev="http://www.w3.org/2001/xml-events" xmlns:xlink="http://www.w3.org/1999/xlink"><defs /><rect fill="black" height="91" width="91" x="0" y="0" /><line stroke="white" stroke-width="1" x1="75" x2="83" y1="64" y2="64" /><line stroke="white" stroke-width="1" x1="75" x2="83" y1="65" y2="65" /><line stroke="white" stroke-width="1" x1="75" x2="83" y1="66" y2="66" /><line stroke="white" stroke-width="1" x1="75" x2="82" y1="67" y2="67" /><line stroke="white" stroke-width="1" x1="75" x2="82" y1="68" y2="68" /><line stroke="white" stroke-width="1" x1="75" x2="82" y1="69" y2="69" /><line stroke="white" stroke-width="1" x1="75" x2="82" y1="70" y2="70" /><line stroke="white" stroke-width="1" x1="75" x2="82" y1="71" y2="71" /><line stroke="white" stroke-width="1" x1="75" x2="82" y1="72" y2="72" /><line stroke="white" stroke-width="1" x1="75" x2="82" y1="73" y2="73" /><line stroke="white" stroke-width="1" x1="75" x2="82" y1="74" y2="74" /><line stroke="white" stroke-width="1" x1="75" x2="82" y1="75" y2="75" /><line stroke="white" stroke-width="1" x1="63" x2="82" y1="76" y2="76" /><line stroke="white" stroke-width="1" x1="63" x2="82" y1="77" y2="77" /><line stroke="white" stroke-width="1" x1="62" x2="65" y1="78" y2="78" /><line stroke="white" stroke-width="1" x1="74" x2="82" y1="78" y2="78" /><line stroke="white" stroke-width="1" x1="62" x2="65" y1="79" y2="79" /><line stroke="white" stroke-width="1" x1="73" x2="81" y1="79" y2="79" /><line stroke="white" stroke-width="1" x1="62" x2="65" y1="80" y2="80" /><line stroke="white" stroke-width="1" x1="71" x2="81" y1="80" y2="80" /><line stroke="white" stroke-width="1" x1="61" x2="81" y1="81" y2="81" /><line stroke="white" stroke-width="1" x1="61" x2="80" y1="82" y2="82" /><line stroke="white" stroke-width="1" x1="61" x2="79" y1="83" y2="83" /><line stroke="white" stroke-width="1" x1="62" x2="78" y1="84" y2="84" /><line stroke="white" stroke-width="1" x1="63" x2="76" y1="85" y2="85" /><line stroke="white" stroke-width="1" x1="63" x2="75" y1="86" y2="86" /><line stroke="white" stroke-width="1" x1="65" x2="73" y1="87" y2="87" /></svg>