<?xml version="1.0" encoding="utf-8" ?>
<svg baseProfile="tiny" height="153" version="1.2" width="153" xmlns="http://www.w3.org/2000/svg" xmlns:ev="http://www.w3.org/2001/xml-events" xmlns:xlink="http://www.w3.org/1999/xlink"><defs /><rect fill="black" height="153" width="153" x="0" y="0" /><line stroke="white" stroke-width="1" x1="135" x2="136" y1="151" y2="151" /><line stroke="white" stroke-width="1" x1="128" x2="129" y1="152" y2="152" /><line stroke="white" stroke-width="1" x1="128" x2="129" y1="149" y2="149" /><line stroke="white" stroke-width="1" x1="123" x2="124" y1="147" y2="147" /><line stroke="white" stroke-width="1" x1="108" x2="110" y1="141" y2="141" /><line stroke="white" stroke-width="1" x1="113" x2="113" y1="141" y2="141" /><line stroke="white" stroke-width="1" x1="110" x2="114" y1="142" y2="142" /><line stroke="white" stroke-width="1" x1="112" x2="114" y1="143" y2="143" /><line stroke="white" stroke-width="1" x1="115" x2="116" y1="146" y2="146" /><line stroke="white" stroke-width="1" x1="99" x2="101" y1="137" y2="137" /><line stroke="white" stroke-width="1" x1="99" x2="102" y1="138" y2="138" /><line stroke="white" stroke-width="1" x1="98" x2="103" y1="139" y2="139" /><line stroke="white" stroke-width="1" x1="104" x2="105" y1="140" y2="140" /><line stroke="white" stroke-width="1" x1="91" x2="94" y1="132" y2="132" /><line stroke="white" stroke-width="1" x1="92" x2="95" y1="133" y2="133" /><line stroke="white" stroke-width="1" x1="93" x2="94" y1="134" y2="134" /><line stroke="white" stroke-width="1" x1="120" x2="123" y1="131" y2="131" /><line stroke="white" stroke-width="1" x1="123" x2="124" y1="134" y2="134" /><line stroke="white" stroke-width="1" x1="124" x2="125" y1="136" y2="136" /><line stroke="white" stroke-width="1" x1="124" x2="126" y1="137" y2="137" /><line stroke="white" stroke-width="1" x1="125" x2="127" y1="138" y2="138" /><line stroke="white" stroke-width="1" x1="127" x2="129" y1="140" y2="140" /><line stroke="white" stroke-width="1" x1="111" x2="112" y1="121" y2="121" /><line stroke="white" stroke-width="1" x1="131" x2="132" y1="120" y2="120" /><line stroke="white" stroke-width="1" x1="131" x2="132" y1="121" y2="121" /><line stroke="white" stroke-width="1" x1="80" x2="81" y1="120" y2="120" /><line stroke="white" stroke-width="1" x1="78" x2="81" y1="121" y2="121" /><line stroke="white" stroke-width="1" x1="79" x2="82" y1="122" y2="122" /><line stroke="white" stroke-width="1" x1="84" x2="86" y1="127" y2="127" /><line stroke="white" stroke-width="1" x1="113" x2="114" y1="117" y2="117" /><line stroke="white" stroke-width="1" x1="114" x2="115" y1="119" y2="119" /><line stroke="white" stroke-width="1" x1="115" x2="116" y1="121" y2="121" /><line stroke="white" stroke-width="1" x1="116" x2="117" y1="123" y2="123" /><line stroke="white" stroke-width="1" x1="117" x2="118" y1="125" y2="125" /><line stroke="white" stroke-width="1" x1="117" x2="118" y1="126" y2="126" /><line stroke="white" stroke-width="1" x1="117" x2="118" y1="127" y2="127" /><line stroke="white" stroke-width="1" x1="118" x2="119" y1="128" y2="128" /><line stroke="white" stroke-width="1" x1="61" x2="63" y1="116" y2="116" /><line stroke="white" stroke-width="1" x1="61" x2="64" y1="117" y2="117" /><line stroke="white" stroke-width="1" x1="77" x2="80" y1="113" y2="113" /><line stroke="white" stroke-width="1" x1="75" x2="80" y1="114" y2="114" /><line stroke="white" stroke-width="1" x1="74" x2="80" y1="115" y2="115" /><line stroke="white" stroke-width="1" x1="75" x2="80" y1="116" y2="116" /><line stroke="white" stroke-width="1" x1="75" x2="79" y1="117" y2="117" /><line stroke="white" stroke-width="1" x1="75" x2="77" y1="118" y2="118" /><line stroke="white" stroke-width="1" x1="72" x2="77" y1="119" y2="119" /><line stroke="white" stroke-width="1" x1="71" x2="75" y1="120" y2="120" /><line stroke="white" stroke-width="1" x1="106" x2="108" y1="106" y2="106" /><line stroke="white" stroke-width="1" x1="105" x2="109" y1="107" y2="107" /><line stroke="white" stroke-width="1" x1="106" x2="109" y1="108" y2="108" /><line stroke="white" stroke-width="1" x1="109" x2="110" y1="110" y2="110" /><line stroke="white" stroke-width="1" x1="110" x2="111" y1="112" y2="112" /><line stroke="white" stroke-width="1" x1="99" x2="103" y1="89" y2="89" /><line stroke="white" stroke-width="1" x1="99" x2="103" y1="90" y2="90" /><line stroke="white" stroke-width="1" x1="100" x2="103" y1="91" y2="91" /><line stroke="white" stroke-width="1" x1="100" x2="103" y1="92" y2="92" /><line stroke="white" stroke-width="1" x1="102" x2="103" y1="93" y2="93" /><line stroke="white" stroke-width="1" x1="102" x2="103" y1="94" y2="94" /><line stroke="white" stroke-width="1" x1="102" x2="104" y1="97" y2="97" /><line stroke="white" stroke-width="1" x1="103" x2="105" y1="98" y2="98" /><line stroke="white" stroke-width="1" x1="104" x2="105" y1="99" y2="99" /><line stroke="white" stroke-width="1" x1="105" x2="109" y1="102" y2="102" /><line stroke="white" stroke-width="1" x1="106" x2="107" y1="103" y2="103" /><line stroke="white" stroke-width="1" x1="121" x2="124" y1="84" y2="84" /><line stroke="white" stroke-width="1" x1="124" x2="127" y1="85" y2="85" /><line stroke="white" stroke-width="1" x1="122" x2="126" y1="86" y2="86" /><line stroke="white" stroke-width="1" x1="122" x2="125" y1="87" y2="87" /><line stroke="white" stroke-width="1" x1="123" x2="124" y1="88" y2="88" /><line stroke="white" stroke-width="1" x1="122" x2="124" y1="89" y2="89" /><line stroke="white" stroke-width="1" x1="123" x2="126" y1="90" y2="90" /><line stroke="white" stroke-width="1" x1="123" x2="124" y1="91" y2="91" /><line stroke="white" stroke-width="1" x1="123" x2="125" y1="92" y2="92" /><line stroke="white" stroke-width="1" x1="123" x2="126" y1="93" y2="93" /><line stroke="white" stroke-width="1" x1="125" x2="126" y1="96" y2="96" /><line stroke="white" stroke-width="1" x1="126" x2="128" y1="97" y2="97" /><line stroke="white" stroke-width="1" x1="126" x2="127" y1="98" y2="98" /><line stroke="white" stroke-width="1" x1="127" x2="129" y1="100" y2="100" /><line stroke="white" stroke-width="1" x1="125" x2="128" y1="101" y2="101" /><line stroke="white" stroke-width="1" x1="126" x2="127" y1="102" y2="102" /><line stroke="white" stroke-width="1" x1="126" x2="127" y1="103" y2="103" /><line stroke="white" stroke-width="1" x1="126" x2="127" y1="105" y2="105" /><line stroke="white" stroke-width="1" x1="100" x2="101" y1="84" y2="84" /><line stroke="white" stroke-width="1" x1="96" x2="97" y1="79" y2="79" /><line stroke="white" stroke-width="1" x1="95" x2="98" y1="80" y2="80" /><line stroke="white" stroke-width="1" x1="96" x2="99" y1="81" y2="81" /><line stroke="white" stroke-width="1" x1="96" x2="99" y1="82" y2="82" /><line stroke="white" stroke-width="1" x1="2" x2="4" y1="1" y2="1" /><line stroke="white" stroke-width="1" x1="1" x2="5" y1="2" y2="2" /><line stroke="white" stroke-width="1" x1="0" x2="1" y1="3" y2="3" /><line stroke="white" stroke-width="1" x1="126" x2="130" y1="0" y2="0" /><line stroke="white" stroke-width="1" x1="127" x2="130" y1="1" y2="1" /><line stroke="white" stroke-width="1" x1="127" x2="131" y1="2" y2="2" /><line stroke="white" stroke-width="1" x1="126" x2="131" y1="3" y2="3" /><line stroke="white" stroke-width="1" x1="128" x2="132" y1="4" y2="4" /><line stroke="white" stroke-width="1" x1="129" x2="132" y1="5" y2="5" /><line stroke="white" stroke-width="1" x1="130" x2="133" y1="6" y2="6" /><line stroke="white" stroke-width="1" x1="130" x2="133" y1="7" y2="7" /><line stroke="white" stroke-width="1" x1="129" x2="133" y1="8" y2="8" /><line stroke="white" stroke-width="1" x1="131" x2="134" y1="9" y2="9" /><line stroke="white" stroke-width="1" x1="130" x2="134" y1="10" y2="10" /><line stroke="white" stroke-width="1" x1="133" x2="135" y1="11" y2="11" /><line stroke="white" stroke-width="1" x1="133" x2="135" y1="12" y2="12" /><line stroke="white" stroke-width="1" x1="132" x2="136" y1="13" y2="13" /><line stroke="white" stroke-width="1" x1="135" x2="137" y1="14" y2="14" /><line stroke="white" stroke-width="1" x1="135" x2="137" y1="15" y2="15" /><line stroke="white" stroke-width="1" x1="136" x2="138" y1="16" y2="16" /><line stroke="white" stroke-width="1" x1="136" x2="139" y1="17" y2="17" /><line stroke="white" stroke-width="1" x1="135" x2="139" y1="18" y2="18" /><line stroke="white" stroke-width="1" x1="138" x2="140" y1="19" y2="19" /><line stroke="white" stroke-width="1" x1="138" x2="141" y1="20" y2="20" /><line stroke="white" stroke-width="1" x1="139" x2="141" y1="21" y2="21" /><line stroke="white" stroke-width="1" x1="139" x2="142" y1="22" y2="22" /><line stroke="white" stroke-width="1" x1="140" x2="142" y1="23" y2="23" /><line stroke="white" stroke-width="1" x1="140" x2="143" y1="24" y2="24" /><line stroke="white" stroke-width="1" x1="139" x2="143" y1="25" y2="25" /><line stroke="white" stroke-width="1" x1="141" x2="144" y1="26" y2="26" /><line stroke="white" stroke-width="1" x1="140" x2="145" y1="27" y2="27" /><line stroke="white" stroke-width="1" x1="143" x2="145" y1="28" y2="28" /><line stroke="white" stroke-width="1" x1="143" x2="146" y1="29" y2="29" /><line stroke="white" stroke-width="1" x1="144" x2="146" y1="30" y2="30" /><line stroke="white" stroke-width="1" x1="144" x2="147" y1="31" y2="31" /><line stroke="white" stroke-width="1" x1="143" x2="148" y1="32" y2="32" /><line stroke="white" stroke-width="1" x1="145" x2="148" y1="33" y2="33" /><line stroke="white" stroke-width="1" x1="144" x2="149" y1="34" y2="34" /><line stroke="white" stroke-width="1" x1="146" x2="150" y1="35" y2="35" /><line stroke="white" stroke-width="1" x1="145" x2="150" y1="36" y2="36" /><line stroke="white" stroke-width="1" x1="147" x2="151" y1="37" y2="37" /><line stroke="white" stroke-width="1" x1="146" x2="151" y1="38" y2="38" /><line stroke="white" stroke-width="1" x1="148" x2="152" y1="39" y2="39" /><line stroke="white" stroke-width="1" x1="147" x2="152" y1="40" y2="40" /><line stroke="white" stroke-width="1" x1="150" x2="152" y1="41" y2="41" /><line stroke="white" stroke-width="1" x1="150" x2="152" y1="42" y2="42" /><line stroke="white" stroke-width="1" x1="151" x2="152" y1="43" y2="43" /><line stroke="white" stroke-width="1" x1="151" x2="152" y1="44" y2="44" /><line stroke="white" stroke-width="1" x1="113" x2="117" y1="0" y2="0" /><line stroke="white" stroke-width="1" x1="113" x2="116" y1="1" y2="1" /><line stroke="white" stroke-width="1" x1="113" x2="116" y1="2" y2="2" /><line stroke="white" stroke-width="1" x1="112" x2="115" y1="3" y2="3" /><line stroke="white" stroke-width="1" x1="112" x2="115" y1="4" y2="4" /><line stroke="white" stroke-width="1" x1="112" x2="114" y1="5" y2="5" /><line stroke="white" stroke-width="1" x1="112" x2="114" y1="6" y2="6" /><line stroke="white" stroke-width="1" x1="112" x2="113" y1="7" y2="7" /><line stroke="white" stroke-width="1" x1="111" x2="113" y1="8" y2="8" /><line stroke="white" stroke-width="1" x1="111" x2="112" y1="9" y2="9" /><line stroke="white" stroke-width="1" x1="111" x2="112" y1="10" y2="10" /></svg>