<?xml version="1.0" encoding="utf-8" ?>
<svg baseProfile="tiny" height="153" version="1.2" width="153" xmlns="http://www.w3.org/2000/svg" xmlns:ev="http://www.w3.org/2001/xml-events" xmlns:xlink="http://www.w3.org/1999/xlink"><defs /><rect fill="black" height="153" width="153" x="0" y="0" /><line stroke="white" stroke-width="1" x1="91" x2="93" y1="144" y2="144" /><line stroke="white" stroke-width="1" x1="91" x2="93" y1="145" y2="145" /><line stroke="white" stroke-width="1" x1="91" x2="92" y1="146" y2="146" /><line stroke="white" stroke-width="1" x1="61" x2="62" y1="143" y2="143" /><line stroke="white" stroke-width="1" x1="79" x2="80" y1="137" y2="137" /><line stroke="white" stroke-width="1" x1="79" x2="80" y1="138" y2="138" /><line stroke="white" stroke-width="1" x1="101" x2="105" y1="92" y2="92" /><line stroke="white" stroke-width="1" x1="101" x2="102" y1="93" y2="93" /><line stroke="white" stroke-width="1" x1="57" x2="58" y1="90" y2="90" /><line stroke="white" stroke-width="1" x1="58" x2="59" y1="91" y2="91" /><line stroke="white" stroke-width="1" x1="59" x2="62" y1="92" y2="92" /><line stroke="white" stroke-width="1" x1="59" x2="60" y1="93" y2="93" /><line stroke="white" stroke-width="1" x1="95" x2="96" y1="77" y2="77" /><line stroke="white" stroke-width="1" x1="100" x2="101" y1="76" y2="76" /></svg>