<?xml version="1.0" encoding="utf-8" ?>
<svg baseProfile="tiny" height="345" version="1.2" width="345" xmlns="http://www.w3.org/2000/svg" xmlns:ev="http://www.w3.org/2001/xml-events" xmlns:xlink="http://www.w3.org/1999/xlink"><defs /><rect fill="black" height="345" width="345" x="0" y="0" /><line stroke="white" stroke-width="1" x1="215" x2="216" y1="329" y2="329" /><line stroke="white" stroke-width="1" x1="230" x2="232" y1="328" y2="328" /><line stroke="white" stroke-width="1" x1="225" x2="227" y1="328" y2="328" /><line stroke="white" stroke-width="1" x1="247" x2="249" y1="327" y2="327" /><line stroke="white" stroke-width="1" x1="243" x2="245" y1="327" y2="327" /><line stroke="white" stroke-width="1" x1="288" x2="292" y1="326" y2="326" /><line stroke="white" stroke-width="1" x1="274" x2="275" y1="326" y2="326" /><line stroke="white" stroke-width="1" x1="193" x2="194" y1="289" y2="289" /><line stroke="white" stroke-width="1" x1="193" x2="194" y1="290" y2="290" /><line stroke="white" stroke-width="1" x1="192" x2="193" y1="291" y2="291" /><line stroke="white" stroke-width="1" x1="191" x2="193" y1="292" y2="292" /><line stroke="white" stroke-width="1" x1="191" x2="193" y1="293" y2="293" /><line stroke="white" stroke-width="1" x1="190" x2="193" y1="294" y2="294" /><line stroke="white" stroke-width="1" x1="189" x2="192" y1="295" y2="295" /><line stroke="white" stroke-width="1" x1="189" x2="192" y1="296" y2="296" /><line stroke="white" stroke-width="1" x1="188" x2="191" y1="297" y2="297" /><line stroke="white" stroke-width="1" x1="188" x2="191" y1="298" y2="298" /><line stroke="white" stroke-width="1" x1="188" x2="191" y1="299" y2="299" /><line stroke="white" stroke-width="1" x1="188" x2="190" y1="300" y2="300" /><line stroke="white" stroke-width="1" x1="188" x2="190" y1="301" y2="301" /><line stroke="white" stroke-width="1" x1="188" x2="190" y1="302" y2="302" /><line stroke="white" stroke-width="1" x1="188" x2="190" y1="303" y2="303" /><line stroke="white" stroke-width="1" x1="188" x2="189" y1="304" y2="304" /><line stroke="white" stroke-width="1" x1="188" x2="189" y1="305" y2="305" /><line stroke="white" stroke-width="1" x1="188" x2="189" y1="306" y2="306" /><line stroke="white" stroke-width="1" x1="188" x2="189" y1="307" y2="307" /><line stroke="white" stroke-width="1" x1="307" x2="311" y1="274" y2="274" /><line stroke="white" stroke-width="1" x1="297" x2="298" y1="272" y2="272" /><line stroke="white" stroke-width="1" x1="291" x2="292" y1="272" y2="272" /><line stroke="white" stroke-width="1" x1="283" x2="284" y1="269" y2="269" /><line stroke="white" stroke-width="1" x1="267" x2="269" y1="266" y2="266" /><line stroke="white" stroke-width="1" x1="244" x2="245" y1="264" y2="264" /><line stroke="white" stroke-width="1" x1="230" x2="231" y1="264" y2="264" /><line stroke="white" stroke-width="1" x1="216" x2="217" y1="264" y2="264" /><line stroke="white" stroke-width="1" x1="240" x2="241" y1="263" y2="263" /><line stroke="white" stroke-width="1" x1="220" x2="226" y1="263" y2="263" /><line stroke="white" stroke-width="1" x1="152" x2="153" y1="183" y2="183" /><line stroke="white" stroke-width="1" x1="107" x2="108" y1="183" y2="183" /><line stroke="white" stroke-width="1" x1="145" x2="149" y1="182" y2="182" /><line stroke="white" stroke-width="1" x1="119" x2="122" y1="182" y2="182" /><line stroke="white" stroke-width="1" x1="96" x2="100" y1="182" y2="182" /><line stroke="white" stroke-width="1" x1="136" x2="137" y1="179" y2="179" /><line stroke="white" stroke-width="1" x1="130" x2="131" y1="179" y2="179" /><line stroke="white" stroke-width="1" x1="55" x2="60" y1="179" y2="179" /><line stroke="white" stroke-width="1" x1="53" x2="58" y1="180" y2="180" /><line stroke="white" stroke-width="1" x1="51" x2="52" y1="181" y2="181" /><line stroke="white" stroke-width="1" x1="46" x2="47" y1="186" y2="186" /><line stroke="white" stroke-width="1" x1="45" x2="46" y1="188" y2="188" /><line stroke="white" stroke-width="1" x1="64" x2="70" y1="178" y2="178" /><line stroke="white" stroke-width="1" x1="85" x2="86" y1="176" y2="176" /><line stroke="white" stroke-width="1" x1="79" x2="80" y1="87" y2="87" /><line stroke="white" stroke-width="1" x1="120" x2="121" y1="84" y2="84" /><line stroke="white" stroke-width="1" x1="45" x2="50" y1="84" y2="84" /><line stroke="white" stroke-width="1" x1="35" x2="36" y1="78" y2="78" /><line stroke="white" stroke-width="1" x1="36" x2="37" y1="79" y2="79" /><line stroke="white" stroke-width="1" x1="40" x2="41" y1="82" y2="82" /><line stroke="white" stroke-width="1" x1="42" x2="43" y1="83" y2="83" /><line stroke="white" stroke-width="1" x1="49" x2="51" y1="38" y2="38" /><line stroke="white" stroke-width="1" x1="48" x2="50" y1="39" y2="39" /><line stroke="white" stroke-width="1" x1="46" x2="49" y1="40" y2="40" /><line stroke="white" stroke-width="1" x1="45" x2="48" y1="41" y2="41" /><line stroke="white" stroke-width="1" x1="44" x2="47" y1="42" y2="42" /><line stroke="white" stroke-width="1" x1="43" x2="46" y1="43" y2="43" /><line stroke="white" stroke-width="1" x1="43" x2="45" y1="44" y2="44" /><line stroke="white" stroke-width="1" x1="42" x2="44" y1="45" y2="45" /><line stroke="white" stroke-width="1" x1="41" x2="43" y1="46" y2="46" /><line stroke="white" stroke-width="1" x1="41" x2="42" y1="47" y2="47" /><line stroke="white" stroke-width="1" x1="40" x2="41" y1="48" y2="48" /><line stroke="white" stroke-width="1" x1="155" x2="156" y1="35" y2="35" /><line stroke="white" stroke-width="1" x1="118" x2="119" y1="33" y2="33" /><line stroke="white" stroke-width="1" x1="134" x2="135" y1="30" y2="30" /><line stroke="white" stroke-width="1" x1="78" x2="79" y1="30" y2="30" /><line stroke="white" stroke-width="1" x1="100" x2="101" y1="29" y2="29" /><line stroke="white" stroke-width="1" x1="94" x2="95" y1="29" y2="29" /><line stroke="white" stroke-width="1" x1="83" x2="87" y1="29" y2="29" /><line stroke="white" stroke-width="1" x1="75" x2="76" y1="29" y2="29" /><line stroke="white" stroke-width="1" x1="70" x2="71" y1="28" y2="28" /></svg>