<?xml version="1.0" encoding="utf-8" ?>
<svg baseProfile="tiny" height="182" version="1.2" width="171" xmlns="http://www.w3.org/2000/svg" xmlns:ev="http://www.w3.org/2001/xml-events" xmlns:xlink="http://www.w3.org/1999/xlink"><defs /><rect fill="black" height="182" width="171" x="0" y="0" /><line stroke="white" stroke-width="1" x1="157" x2="158" y1="173" y2="173" /><line stroke="white" stroke-width="1" x1="60" x2="72" y1="153" y2="153" /><line stroke="white" stroke-width="1" x1="11" x2="39" y1="153" y2="153" /><line stroke="white" stroke-width="1" x1="10" x2="52" y1="164" y2="164" /><line stroke="white" stroke-width="1" x1="10" x2="55" y1="165" y2="165" /><line stroke="white" stroke-width="1" x1="10" x2="13" y1="173" y2="173" /><line stroke="white" stroke-width="1" x1="55" x2="87" y1="143" y2="143" /><line stroke="white" stroke-width="1" x1="10" x2="23" y1="142" y2="142" /><line stroke="white" stroke-width="1" x1="149" x2="158" y1="139" y2="139" /><line stroke="white" stroke-width="1" x1="155" x2="158" y1="141" y2="141" /><line stroke="white" stroke-width="1" x1="147" x2="158" y1="142" y2="142" /><line stroke="white" stroke-width="1" x1="144" x2="146" y1="139" y2="139" /><line stroke="white" stroke-width="1" x1="84" x2="102" y1="136" y2="136" /><line stroke="white" stroke-width="1" x1="70" x2="154" y1="137" y2="137" /><line stroke="white" stroke-width="1" x1="48" x2="95" y1="138" y2="138" /><line stroke="white" stroke-width="1" x1="10" x2="26" y1="132" y2="132" /><line stroke="white" stroke-width="1" x1="25" x2="53" y1="133" y2="133" /><line stroke="white" stroke-width="1" x1="12" x2="34" y1="134" y2="134" /><line stroke="white" stroke-width="1" x1="12" x2="35" y1="135" y2="135" /><line stroke="white" stroke-width="1" x1="27" x2="46" y1="136" y2="136" /><line stroke="white" stroke-width="1" x1="24" x2="25" y1="130" y2="130" /><line stroke="white" stroke-width="1" x1="12" x2="20" y1="130" y2="130" /><line stroke="white" stroke-width="1" x1="12" x2="46" y1="126" y2="126" /><line stroke="white" stroke-width="1" x1="39" x2="51" y1="127" y2="127" /><line stroke="white" stroke-width="1" x1="33" x2="43" y1="128" y2="128" /><line stroke="white" stroke-width="1" x1="37" x2="49" y1="129" y2="129" /><line stroke="white" stroke-width="1" x1="68" x2="71" y1="124" y2="124" /><line stroke="white" stroke-width="1" x1="33" x2="34" y1="124" y2="124" /><line stroke="white" stroke-width="1" x1="49" x2="56" y1="123" y2="123" /><line stroke="white" stroke-width="1" x1="36" x2="50" y1="124" y2="124" /><line stroke="white" stroke-width="1" x1="99" x2="100" y1="122" y2="122" /><line stroke="white" stroke-width="1" x1="107" x2="108" y1="121" y2="121" /><line stroke="white" stroke-width="1" x1="107" x2="108" y1="122" y2="122" /><line stroke="white" stroke-width="1" x1="106" x2="108" y1="123" y2="123" /><line stroke="white" stroke-width="1" x1="107" x2="108" y1="124" y2="124" /><line stroke="white" stroke-width="1" x1="90" x2="92" y1="120" y2="120" /><line stroke="white" stroke-width="1" x1="79" x2="80" y1="120" y2="120" /><line stroke="white" stroke-width="1" x1="62" x2="65" y1="121" y2="121" /><line stroke="white" stroke-width="1" x1="61" x2="66" y1="122" y2="122" /><line stroke="white" stroke-width="1" x1="65" x2="66" y1="123" y2="123" /><line stroke="white" stroke-width="1" x1="104" x2="105" y1="119" y2="119" /><line stroke="white" stroke-width="1" x1="11" x2="158" y1="106" y2="106" /><line stroke="white" stroke-width="1" x1="107" x2="108" y1="80" y2="80" /><line stroke="white" stroke-width="1" x1="107" x2="108" y1="81" y2="81" /><line stroke="white" stroke-width="1" x1="107" x2="108" y1="82" y2="82" /><line stroke="white" stroke-width="1" x1="63" x2="64" y1="81" y2="81" /><line stroke="white" stroke-width="1" x1="62" x2="66" y1="82" y2="82" /><line stroke="white" stroke-width="1" x1="62" x2="67" y1="83" y2="83" /><line stroke="white" stroke-width="1" x1="62" x2="68" y1="84" y2="84" /><line stroke="white" stroke-width="1" x1="34" x2="45" y1="74" y2="74" /><line stroke="white" stroke-width="1" x1="34" x2="52" y1="75" y2="75" /><line stroke="white" stroke-width="1" x1="49" x2="50" y1="66" y2="66" /><line stroke="white" stroke-width="1" x1="18" x2="46" y1="66" y2="66" /><line stroke="white" stroke-width="1" x1="15" x2="16" y1="66" y2="66" /><line stroke="white" stroke-width="1" x1="11" x2="12" y1="66" y2="66" /><line stroke="white" stroke-width="1" x1="97" x2="110" y1="63" y2="63" /><line stroke="white" stroke-width="1" x1="91" x2="99" y1="64" y2="64" /><line stroke="white" stroke-width="1" x1="102" x2="113" y1="64" y2="64" /><line stroke="white" stroke-width="1" x1="46" x2="52" y1="61" y2="61" /><line stroke="white" stroke-width="1" x1="11" x2="28" y1="63" y2="63" /><line stroke="white" stroke-width="1" x1="54" x2="83" y1="50" y2="50" /></svg>