<?xml version="1.0" encoding="utf-8" ?>
<svg baseProfile="tiny" height="153" version="1.2" width="153" xmlns="http://www.w3.org/2000/svg" xmlns:ev="http://www.w3.org/2001/xml-events" xmlns:xlink="http://www.w3.org/1999/xlink"><defs /><rect fill="black" height="153" width="153" x="0" y="0" /><line stroke="white" stroke-width="1" x1="28" x2="31" y1="130" y2="130" /><line stroke="white" stroke-width="1" x1="47" x2="65" y1="129" y2="129" /><line stroke="white" stroke-width="1" x1="79" x2="98" y1="128" y2="128" /><line stroke="white" stroke-width="1" x1="111" x2="127" y1="127" y2="127" /><line stroke="white" stroke-width="1" x1="78" x2="79" y1="112" y2="112" /><line stroke="white" stroke-width="1" x1="69" x2="70" y1="112" y2="112" /><line stroke="white" stroke-width="1" x1="84" x2="85" y1="111" y2="111" /><line stroke="white" stroke-width="1" x1="63" x2="64" y1="111" y2="111" /><line stroke="white" stroke-width="1" x1="68" x2="73" y1="100" y2="100" /><line stroke="white" stroke-width="1" x1="79" x2="80" y1="99" y2="99" /><line stroke="white" stroke-width="1" x1="78" x2="79" y1="72" y2="72" /><line stroke="white" stroke-width="1" x1="56" x2="58" y1="58" y2="58" /><line stroke="white" stroke-width="1" x1="87" x2="92" y1="53" y2="53" /><line stroke="white" stroke-width="1" x1="25" x2="43" y1="19" y2="19" /><line stroke="white" stroke-width="1" x1="59" x2="78" y1="18" y2="18" /><line stroke="white" stroke-width="1" x1="95" x2="114" y1="17" y2="17" /></svg>