<?xml version="1.0" encoding="utf-8" ?>
<svg baseProfile="tiny" height="153" version="1.2" width="153" xmlns="http://www.w3.org/2000/svg" xmlns:ev="http://www.w3.org/2001/xml-events" xmlns:xlink="http://www.w3.org/1999/xlink"><defs /><rect fill="black" height="153" width="153" x="0" y="0" /><line stroke="white" stroke-width="1" x1="61" x2="62" y1="142" y2="142" /><line stroke="white" stroke-width="1" x1="107" x2="108" y1="135" y2="135" /><line stroke="white" stroke-width="1" x1="106" x2="108" y1="136" y2="136" /><line stroke="white" stroke-width="1" x1="106" x2="107" y1="137" y2="137" /><line stroke="white" stroke-width="1" x1="106" x2="107" y1="138" y2="138" /><line stroke="white" stroke-width="1" x1="93" x2="95" y1="134" y2="134" /><line stroke="white" stroke-width="1" x1="93" x2="94" y1="135" y2="135" /><line stroke="white" stroke-width="1" x1="92" x2="94" y1="136" y2="136" /><line stroke="white" stroke-width="1" x1="92" x2="94" y1="137" y2="137" /><line stroke="white" stroke-width="1" x1="62" x2="63" y1="133" y2="133" /><line stroke="white" stroke-width="1" x1="62" x2="63" y1="134" y2="134" /><line stroke="white" stroke-width="1" x1="63" x2="64" y1="135" y2="135" /><line stroke="white" stroke-width="1" x1="63" x2="64" y1="136" y2="136" /><line stroke="white" stroke-width="1" x1="50" x2="51" y1="123" y2="123" /><line stroke="white" stroke-width="1" x1="50" x2="51" y1="124" y2="124" /><line stroke="white" stroke-width="1" x1="104" x2="105" y1="121" y2="121" /><line stroke="white" stroke-width="1" x1="103" x2="105" y1="122" y2="122" /><line stroke="white" stroke-width="1" x1="102" x2="105" y1="123" y2="123" /><line stroke="white" stroke-width="1" x1="102" x2="105" y1="124" y2="124" /><line stroke="white" stroke-width="1" x1="102" x2="105" y1="125" y2="125" /><line stroke="white" stroke-width="1" x1="102" x2="104" y1="126" y2="126" /><line stroke="white" stroke-width="1" x1="102" x2="103" y1="127" y2="127" /><line stroke="white" stroke-width="1" x1="70" x2="71" y1="121" y2="121" /><line stroke="white" stroke-width="1" x1="54" x2="56" y1="120" y2="120" /><line stroke="white" stroke-width="1" x1="54" x2="56" y1="121" y2="121" /><line stroke="white" stroke-width="1" x1="54" x2="57" y1="122" y2="122" /><line stroke="white" stroke-width="1" x1="55" x2="56" y1="123" y2="123" /><line stroke="white" stroke-width="1" x1="112" x2="114" y1="118" y2="118" /><line stroke="white" stroke-width="1" x1="112" x2="114" y1="119" y2="119" /><line stroke="white" stroke-width="1" x1="111" x2="114" y1="120" y2="120" /><line stroke="white" stroke-width="1" x1="111" x2="113" y1="121" y2="121" /><line stroke="white" stroke-width="1" x1="111" x2="113" y1="122" y2="122" /><line stroke="white" stroke-width="1" x1="111" x2="112" y1="123" y2="123" /><line stroke="white" stroke-width="1" x1="46" x2="47" y1="114" y2="114" /><line stroke="white" stroke-width="1" x1="46" x2="47" y1="115" y2="115" /><line stroke="white" stroke-width="1" x1="103" x2="104" y1="104" y2="104" /><line stroke="white" stroke-width="1" x1="103" x2="105" y1="105" y2="105" /><line stroke="white" stroke-width="1" x1="103" x2="105" y1="106" y2="106" /><line stroke="white" stroke-width="1" x1="103" x2="105" y1="107" y2="107" /><line stroke="white" stroke-width="1" x1="58" x2="59" y1="102" y2="102" /><line stroke="white" stroke-width="1" x1="57" x2="59" y1="103" y2="103" /><line stroke="white" stroke-width="1" x1="56" x2="59" y1="104" y2="104" /><line stroke="white" stroke-width="1" x1="56" x2="59" y1="105" y2="105" /><line stroke="white" stroke-width="1" x1="57" x2="58" y1="106" y2="106" /><line stroke="white" stroke-width="1" x1="110" x2="111" y1="100" y2="100" /><line stroke="white" stroke-width="1" x1="109" x2="111" y1="101" y2="101" /><line stroke="white" stroke-width="1" x1="109" x2="112" y1="102" y2="102" /><line stroke="white" stroke-width="1" x1="110" x2="111" y1="103" y2="103" /><line stroke="white" stroke-width="1" x1="110" x2="111" y1="104" y2="104" /><line stroke="white" stroke-width="1" x1="50" x2="52" y1="98" y2="98" /><line stroke="white" stroke-width="1" x1="50" x2="52" y1="99" y2="99" /><line stroke="white" stroke-width="1" x1="50" x2="52" y1="100" y2="100" /><line stroke="white" stroke-width="1" x1="51" x2="52" y1="101" y2="101" /><line stroke="white" stroke-width="1" x1="93" x2="94" y1="95" y2="95" /><line stroke="white" stroke-width="1" x1="60" x2="61" y1="90" y2="90" /><line stroke="white" stroke-width="1" x1="60" x2="61" y1="91" y2="91" /><line stroke="white" stroke-width="1" x1="104" x2="105" y1="63" y2="63" /><line stroke="white" stroke-width="1" x1="103" x2="106" y1="64" y2="64" /><line stroke="white" stroke-width="1" x1="104" x2="106" y1="65" y2="65" /><line stroke="white" stroke-width="1" x1="104" x2="106" y1="66" y2="66" /><line stroke="white" stroke-width="1" x1="58" x2="60" y1="63" y2="63" /><line stroke="white" stroke-width="1" x1="58" x2="60" y1="64" y2="64" /><line stroke="white" stroke-width="1" x1="58" x2="60" y1="65" y2="65" /><line stroke="white" stroke-width="1" x1="58" x2="59" y1="66" y2="66" /><line stroke="white" stroke-width="1" x1="112" x2="114" y1="62" y2="62" /><line stroke="white" stroke-width="1" x1="111" x2="114" y1="63" y2="63" /><line stroke="white" stroke-width="1" x1="111" x2="113" y1="64" y2="64" /><line stroke="white" stroke-width="1" x1="51" x2="53" y1="62" y2="62" /><line stroke="white" stroke-width="1" x1="51" x2="53" y1="63" y2="63" /><line stroke="white" stroke-width="1" x1="52" x2="53" y1="64" y2="64" /><line stroke="white" stroke-width="1" x1="90" x2="91" y1="51" y2="51" /><line stroke="white" stroke-width="1" x1="90" x2="92" y1="52" y2="52" /><line stroke="white" stroke-width="1" x1="90" x2="91" y1="53" y2="53" /><line stroke="white" stroke-width="1" x1="72" x2="76" y1="49" y2="49" /><line stroke="white" stroke-width="1" x1="72" x2="75" y1="50" y2="50" /><line stroke="white" stroke-width="1" x1="72" x2="75" y1="51" y2="51" /><line stroke="white" stroke-width="1" x1="72" x2="75" y1="52" y2="52" /><line stroke="white" stroke-width="1" x1="72" x2="74" y1="53" y2="53" /><line stroke="white" stroke-width="1" x1="73" x2="74" y1="54" y2="54" /><line stroke="white" stroke-width="1" x1="106" x2="108" y1="47" y2="47" /><line stroke="white" stroke-width="1" x1="105" x2="108" y1="48" y2="48" /><line stroke="white" stroke-width="1" x1="105" x2="109" y1="49" y2="49" /><line stroke="white" stroke-width="1" x1="106" x2="109" y1="50" y2="50" /><line stroke="white" stroke-width="1" x1="106" x2="109" y1="51" y2="51" /><line stroke="white" stroke-width="1" x1="56" x2="58" y1="47" y2="47" /><line stroke="white" stroke-width="1" x1="55" x2="59" y1="48" y2="48" /><line stroke="white" stroke-width="1" x1="55" x2="59" y1="49" y2="49" /><line stroke="white" stroke-width="1" x1="55" x2="58" y1="50" y2="50" /><line stroke="white" stroke-width="1" x1="56" x2="57" y1="51" y2="51" /><line stroke="white" stroke-width="1" x1="115" x2="116" y1="45" y2="45" /><line stroke="white" stroke-width="1" x1="114" x2="117" y1="46" y2="46" /><line stroke="white" stroke-width="1" x1="114" x2="117" y1="47" y2="47" /><line stroke="white" stroke-width="1" x1="115" x2="117" y1="48" y2="48" /><line stroke="white" stroke-width="1" x1="110" x2="114" y1="43" y2="43" /><line stroke="white" stroke-width="1" x1="109" x2="113" y1="44" y2="44" /><line stroke="white" stroke-width="1" x1="110" x2="112" y1="45" y2="45" /><line stroke="white" stroke-width="1" x1="110" x2="112" y1="46" y2="46" /><line stroke="white" stroke-width="1" x1="49" x2="54" y1="43" y2="43" /><line stroke="white" stroke-width="1" x1="48" x2="54" y1="44" y2="44" /><line stroke="white" stroke-width="1" x1="48" x2="53" y1="45" y2="45" /><line stroke="white" stroke-width="1" x1="47" x2="52" y1="46" y2="46" /><line stroke="white" stroke-width="1" x1="47" x2="49" y1="47" y2="47" /><line stroke="white" stroke-width="1" x1="47" x2="48" y1="48" y2="48" /><line stroke="white" stroke-width="1" x1="101" x2="102" y1="41" y2="41" /><line stroke="white" stroke-width="1" x1="101" x2="104" y1="42" y2="42" /><line stroke="white" stroke-width="1" x1="60" x2="62" y1="39" y2="39" /><line stroke="white" stroke-width="1" x1="60" x2="62" y1="40" y2="40" /><line stroke="white" stroke-width="1" x1="58" x2="62" y1="41" y2="41" /><line stroke="white" stroke-width="1" x1="57" x2="63" y1="42" y2="42" /><line stroke="white" stroke-width="1" x1="83" x2="84" y1="36" y2="36" /><line stroke="white" stroke-width="1" x1="96" x2="97" y1="34" y2="34" /><line stroke="white" stroke-width="1" x1="96" x2="98" y1="35" y2="35" /><line stroke="white" stroke-width="1" x1="96" x2="99" y1="36" y2="36" /><line stroke="white" stroke-width="1" x1="96" x2="99" y1="37" y2="37" /><line stroke="white" stroke-width="1" x1="96" x2="99" y1="38" y2="38" /><line stroke="white" stroke-width="1" x1="66" x2="68" y1="34" y2="34" /><line stroke="white" stroke-width="1" x1="65" x2="68" y1="35" y2="35" /><line stroke="white" stroke-width="1" x1="65" x2="68" y1="36" y2="36" /><line stroke="white" stroke-width="1" x1="65" x2="68" y1="37" y2="37" /><line stroke="white" stroke-width="1" x1="66" x2="67" y1="38" y2="38" /><line stroke="white" stroke-width="1" x1="116" x2="117" y1="32" y2="32" /><line stroke="white" stroke-width="1" x1="116" x2="117" y1="33" y2="33" /><line stroke="white" stroke-width="1" x1="116" x2="117" y1="34" y2="34" /><line stroke="white" stroke-width="1" x1="116" x2="117" y1="35" y2="35" /><line stroke="white" stroke-width="1" x1="109" x2="111" y1="31" y2="31" /><line stroke="white" stroke-width="1" x1="109" x2="112" y1="32" y2="32" /><line stroke="white" stroke-width="1" x1="109" x2="112" y1="33" y2="33" /><line stroke="white" stroke-width="1" x1="110" x2="112" y1="34" y2="34" /><line stroke="white" stroke-width="1" x1="110" x2="112" y1="35" y2="35" /><line stroke="white" stroke-width="1" x1="51" x2="54" y1="31" y2="31" /><line stroke="white" stroke-width="1" x1="51" x2="54" y1="32" y2="32" /><line stroke="white" stroke-width="1" x1="51" x2="54" y1="33" y2="33" /><line stroke="white" stroke-width="1" x1="51" x2="54" y1="34" y2="34" /><line stroke="white" stroke-width="1" x1="95" x2="96" y1="22" y2="22" /><line stroke="white" stroke-width="1" x1="95" x2="97" y1="23" y2="23" /><line stroke="white" stroke-width="1" x1="95" x2="97" y1="24" y2="24" /><line stroke="white" stroke-width="1" x1="95" x2="98" y1="25" y2="25" /><line stroke="white" stroke-width="1" x1="95" x2="97" y1="26" y2="26" /><line stroke="white" stroke-width="1" x1="95" x2="97" y1="27" y2="27" /><line stroke="white" stroke-width="1" x1="79" x2="80" y1="22" y2="22" /><line stroke="white" stroke-width="1" x1="78" x2="80" y1="23" y2="23" /><line stroke="white" stroke-width="1" x1="77" x2="79" y1="24" y2="24" /><line stroke="white" stroke-width="1" x1="77" x2="78" y1="25" y2="25" /><line stroke="white" stroke-width="1" x1="64" x2="66" y1="23" y2="23" /><line stroke="white" stroke-width="1" x1="64" x2="66" y1="24" y2="24" /><line stroke="white" stroke-width="1" x1="64" x2="66" y1="25" y2="25" /><line stroke="white" stroke-width="1" x1="64" x2="67" y1="26" y2="26" /><line stroke="white" stroke-width="1" x1="65" x2="67" y1="27" y2="27" /><line stroke="white" stroke-width="1" x1="65" x2="66" y1="28" y2="28" /><line stroke="white" stroke-width="1" x1="104" x2="106" y1="21" y2="21" /><line stroke="white" stroke-width="1" x1="105" x2="106" y1="22" y2="22" /></svg>