<?xml version="1.0" encoding="utf-8" ?>
<svg baseProfile="tiny" height="19" version="1.2" width="19" xmlns="http://www.w3.org/2000/svg" xmlns:ev="http://www.w3.org/2001/xml-events" xmlns:xlink="http://www.w3.org/1999/xlink"><defs /><rect fill="black" height="19" width="19" x="0" y="0" /><line stroke="white" stroke-width="1" x1="0" x2="18" y1="0" y2="0" /><line stroke="white" stroke-width="1" x1="0" x2="18" y1="1" y2="1" /><line stroke="white" stroke-width="1" x1="0" x2="2" y1="2" y2="2" /><line stroke="white" stroke-width="1" x1="6" x2="18" y1="2" y2="2" /><line stroke="white" stroke-width="1" x1="0" x2="1" y1="3" y2="3" /><line stroke="white" stroke-width="1" x1="7" x2="10" y1="3" y2="3" /><line stroke="white" stroke-width="1" x1="17" x2="18" y1="3" y2="3" /><line stroke="white" stroke-width="1" x1="0" x2="1" y1="4" y2="4" /><line stroke="white" stroke-width="1" x1="7" x2="10" y1="4" y2="4" /><line stroke="white" stroke-width="1" x1="17" x2="18" y1="4" y2="4" /><line stroke="white" stroke-width="1" x1="0" x2="1" y1="5" y2="5" /><line stroke="white" stroke-width="1" x1="7" x2="10" y1="5" y2="5" /><line stroke="white" stroke-width="1" x1="17" x2="18" y1="5" y2="5" /><line stroke="white" stroke-width="1" x1="0" x2="1" y1="6" y2="6" /><line stroke="white" stroke-width="1" x1="7" x2="10" y1="6" y2="6" /><line stroke="white" stroke-width="1" x1="17" x2="18" y1="6" y2="6" /><line stroke="white" stroke-width="1" x1="0" x2="2" y1="7" y2="7" /><line stroke="white" stroke-width="1" x1="6" x2="10" y1="7" y2="7" /><line stroke="white" stroke-width="1" x1="17" x2="18" y1="7" y2="7" /><line stroke="white" stroke-width="1" x1="0" x2="10" y1="8" y2="8" /><line stroke="white" stroke-width="1" x1="17" x2="18" y1="8" y2="8" /><line stroke="white" stroke-width="1" x1="0" x2="10" y1="9" y2="9" /><line stroke="white" stroke-width="1" x1="17" x2="18" y1="9" y2="9" /><line stroke="white" stroke-width="1" x1="0" x2="10" y1="10" y2="10" /><line stroke="white" stroke-width="1" x1="17" x2="18" y1="10" y2="10" /><line stroke="white" stroke-width="1" x1="0" x2="10" y1="11" y2="11" /><line stroke="white" stroke-width="1" x1="17" x2="18" y1="11" y2="11" /><line stroke="white" stroke-width="1" x1="0" x2="5" y1="12" y2="12" /><line stroke="white" stroke-width="1" x1="8" x2="18" y1="12" y2="12" /><line stroke="white" stroke-width="1" x1="0" x2="4" y1="13" y2="13" /><line stroke="white" stroke-width="1" x1="9" x2="18" y1="13" y2="13" /><line stroke="white" stroke-width="1" x1="0" x2="3" y1="14" y2="14" /><line stroke="white" stroke-width="1" x1="10" x2="18" y1="14" y2="14" /><line stroke="white" stroke-width="1" x1="0" x2="3" y1="15" y2="15" /><line stroke="white" stroke-width="1" x1="10" x2="18" y1="15" y2="15" /><line stroke="white" stroke-width="1" x1="0" x2="4" y1="16" y2="16" /><line stroke="white" stroke-width="1" x1="9" x2="18" y1="16" y2="16" /><line stroke="white" stroke-width="1" x1="0" x2="5" y1="17" y2="17" /><line stroke="white" stroke-width="1" x1="8" x2="18" y1="17" y2="17" /><line stroke="white" stroke-width="1" x1="0" x2="18" y1="18" y2="18" /></svg>