<?xml version="1.0" encoding="utf-8" ?>
<svg baseProfile="tiny" height="153" version="1.2" width="153" xmlns="http://www.w3.org/2000/svg" xmlns:ev="http://www.w3.org/2001/xml-events" xmlns:xlink="http://www.w3.org/1999/xlink"><defs /><rect fill="black" height="153" width="153" x="0" y="0" /><line stroke="white" stroke-width="1" x1="39" x2="41" y1="108" y2="108" /><line stroke="white" stroke-width="1" x1="39" x2="43" y1="109" y2="109" /><line stroke="white" stroke-width="1" x1="41" x2="42" y1="110" y2="110" /><line stroke="white" stroke-width="1" x1="51" x2="52" y1="91" y2="91" /><line stroke="white" stroke-width="1" x1="49" x2="55" y1="92" y2="92" /><line stroke="white" stroke-width="1" x1="49" x2="56" y1="93" y2="93" /><line stroke="white" stroke-width="1" x1="48" x2="56" y1="94" y2="94" /><line stroke="white" stroke-width="1" x1="45" x2="57" y1="95" y2="95" /><line stroke="white" stroke-width="1" x1="43" x2="57" y1="96" y2="96" /><line stroke="white" stroke-width="1" x1="43" x2="47" y1="97" y2="97" /><line stroke="white" stroke-width="1" x1="50" x2="51" y1="97" y2="97" /><line stroke="white" stroke-width="1" x1="56" x2="58" y1="97" y2="97" /><line stroke="white" stroke-width="1" x1="44" x2="47" y1="98" y2="98" /><line stroke="white" stroke-width="1" x1="57" x2="58" y1="98" y2="98" /><line stroke="white" stroke-width="1" x1="44" x2="47" y1="99" y2="99" /><line stroke="white" stroke-width="1" x1="58" x2="58" y1="99" y2="99" /><line stroke="white" stroke-width="1" x1="45" x2="46" y1="100" y2="100" /><line stroke="white" stroke-width="1" x1="58" x2="59" y1="100" y2="100" /><line stroke="white" stroke-width="1" x1="73" x2="88" y1="58" y2="58" /><line stroke="white" stroke-width="1" x1="68" x2="89" y1="59" y2="59" /><line stroke="white" stroke-width="1" x1="66" x2="80" y1="60" y2="60" /><line stroke="white" stroke-width="1" x1="65" x2="77" y1="61" y2="61" /><line stroke="white" stroke-width="1" x1="67" x2="74" y1="62" y2="62" /><line stroke="white" stroke-width="1" x1="109" x2="115" y1="49" y2="49" /><line stroke="white" stroke-width="1" x1="106" x2="116" y1="50" y2="50" /><line stroke="white" stroke-width="1" x1="104" x2="117" y1="51" y2="51" /><line stroke="white" stroke-width="1" x1="103" x2="118" y1="52" y2="52" /><line stroke="white" stroke-width="1" x1="102" x2="118" y1="53" y2="53" /><line stroke="white" stroke-width="1" x1="102" x2="114" y1="54" y2="54" /><line stroke="white" stroke-width="1" x1="118" x2="118" y1="54" y2="54" /><line stroke="white" stroke-width="1" x1="102" x2="113" y1="55" y2="55" /><line stroke="white" stroke-width="1" x1="101" x2="110" y1="56" y2="56" /><line stroke="white" stroke-width="1" x1="100" x2="108" y1="57" y2="57" /><line stroke="white" stroke-width="1" x1="96" x2="106" y1="58" y2="58" /><line stroke="white" stroke-width="1" x1="96" x2="105" y1="59" y2="59" /><line stroke="white" stroke-width="1" x1="96" x2="99" y1="60" y2="60" /><line stroke="white" stroke-width="1" x1="94" x2="99" y1="61" y2="61" /><line stroke="white" stroke-width="1" x1="88" x2="98" y1="62" y2="62" /><line stroke="white" stroke-width="1" x1="85" x2="98" y1="63" y2="63" /><line stroke="white" stroke-width="1" x1="85" x2="97" y1="64" y2="64" /><line stroke="white" stroke-width="1" x1="85" x2="96" y1="65" y2="65" /><line stroke="white" stroke-width="1" x1="84" x2="95" y1="66" y2="66" /><line stroke="white" stroke-width="1" x1="84" x2="94" y1="67" y2="67" /><line stroke="white" stroke-width="1" x1="136" x2="139" y1="48" y2="48" /><line stroke="white" stroke-width="1" x1="136" x2="139" y1="49" y2="49" /><line stroke="white" stroke-width="1" x1="145" x2="145" y1="49" y2="49" /><line stroke="white" stroke-width="1" x1="136" x2="145" y1="50" y2="50" /><line stroke="white" stroke-width="1" x1="135" x2="146" y1="51" y2="51" /><line stroke="white" stroke-width="1" x1="135" x2="146" y1="52" y2="52" /><line stroke="white" stroke-width="1" x1="135" x2="146" y1="53" y2="53" /><line stroke="white" stroke-width="1" x1="151" x2="152" y1="53" y2="53" /><line stroke="white" stroke-width="1" x1="137" x2="152" y1="54" y2="54" /><line stroke="white" stroke-width="1" x1="140" x2="152" y1="55" y2="55" /><line stroke="white" stroke-width="1" x1="140" x2="152" y1="56" y2="56" /><line stroke="white" stroke-width="1" x1="139" x2="142" y1="57" y2="57" /><line stroke="white" stroke-width="1" x1="147" x2="151" y1="57" y2="57" /><line stroke="white" stroke-width="1" x1="140" x2="141" y1="58" y2="58" /><line stroke="white" stroke-width="1" x1="147" x2="151" y1="58" y2="58" /><line stroke="white" stroke-width="1" x1="140" x2="141" y1="59" y2="59" /><line stroke="white" stroke-width="1" x1="148" x2="150" y1="59" y2="59" /><line stroke="white" stroke-width="1" x1="140" x2="148" y1="60" y2="60" /><line stroke="white" stroke-width="1" x1="72" x2="77" y1="44" y2="44" /><line stroke="white" stroke-width="1" x1="70" x2="74" y1="45" y2="45" /><line stroke="white" stroke-width="1" x1="77" x2="79" y1="45" y2="45" /><line stroke="white" stroke-width="1" x1="69" x2="74" y1="46" y2="46" /><line stroke="white" stroke-width="1" x1="80" x2="81" y1="46" y2="46" /><line stroke="white" stroke-width="1" x1="68" x2="76" y1="47" y2="47" /><line stroke="white" stroke-width="1" x1="82" x2="83" y1="47" y2="47" /><line stroke="white" stroke-width="1" x1="66" x2="77" y1="48" y2="48" /><line stroke="white" stroke-width="1" x1="84" x2="84" y1="48" y2="48" /><line stroke="white" stroke-width="1" x1="65" x2="78" y1="49" y2="49" /><line stroke="white" stroke-width="1" x1="66" x2="71" y1="52" y2="52" /><line stroke="white" stroke-width="1" x1="69" x2="78" y1="53" y2="53" /><line stroke="white" stroke-width="1" x1="76" x2="82" y1="54" y2="54" /><line stroke="white" stroke-width="1" x1="82" x2="85" y1="55" y2="55" /><line stroke="white" stroke-width="1" x1="111" x2="116" y1="40" y2="40" /><line stroke="white" stroke-width="1" x1="109" x2="118" y1="41" y2="41" /><line stroke="white" stroke-width="1" x1="108" x2="118" y1="42" y2="42" /><line stroke="white" stroke-width="1" x1="107" x2="115" y1="43" y2="43" /><line stroke="white" stroke-width="1" x1="106" x2="113" y1="44" y2="44" /><line stroke="white" stroke-width="1" x1="105" x2="110" y1="45" y2="45" /><line stroke="white" stroke-width="1" x1="105" x2="108" y1="46" y2="46" /><line stroke="white" stroke-width="1" x1="104" x2="106" y1="47" y2="47" /><line stroke="white" stroke-width="1" x1="103" x2="104" y1="48" y2="48" /><line stroke="white" stroke-width="1" x1="107" x2="112" y1="37" y2="37" /><line stroke="white" stroke-width="1" x1="105" x2="106" y1="38" y2="38" /><line stroke="white" stroke-width="1" x1="88" x2="96" y1="35" y2="35" /><line stroke="white" stroke-width="1" x1="86" x2="98" y1="36" y2="36" /><line stroke="white" stroke-width="1" x1="85" x2="99" y1="37" y2="37" /><line stroke="white" stroke-width="1" x1="84" x2="89" y1="38" y2="38" /><line stroke="white" stroke-width="1" x1="92" x2="99" y1="38" y2="38" /><line stroke="white" stroke-width="1" x1="83" x2="86" y1="39" y2="39" /><line stroke="white" stroke-width="1" x1="99" x2="99" y1="39" y2="39" /><line stroke="white" stroke-width="1" x1="83" x2="84" y1="40" y2="40" /><line stroke="white" stroke-width="1" x1="84" x2="85" y1="42" y2="42" /></svg>