<?xml version="1.0" encoding="utf-8" ?>
<svg baseProfile="tiny" height="91" version="1.2" width="91" xmlns="http://www.w3.org/2000/svg" xmlns:ev="http://www.w3.org/2001/xml-events" xmlns:xlink="http://www.w3.org/1999/xlink"><defs /><rect fill="black" height="91" width="91" x="0" y="0" /><line stroke="white" stroke-width="1" x1="0" x2="90" y1="0" y2="0" /><line stroke="white" stroke-width="1" x1="0" x2="90" y1="1" y2="1" /><line stroke="white" stroke-width="1" x1="0" x2="90" y1="2" y2="2" /><line stroke="white" stroke-width="1" x1="0" x2="90" y1="3" y2="3" /><line stroke="white" stroke-width="1" x1="0" x2="90" y1="4" y2="4" /><line stroke="white" stroke-width="1" x1="0" x2="90" y1="5" y2="5" /><line stroke="white" stroke-width="1" x1="0" x2="90" y1="6" y2="6" /><line stroke="white" stroke-width="1" x1="0" x2="19" y1="7" y2="7" /><line stroke="white" stroke-width="1" x1="30" x2="90" y1="7" y2="7" /><line stroke="white" stroke-width="1" x1="0" x2="16" y1="8" y2="8" /><line stroke="white" stroke-width="1" x1="32" x2="90" y1="8" y2="8" /><line stroke="white" stroke-width="1" x1="0" x2="15" y1="9" y2="9" /><line stroke="white" stroke-width="1" x1="33" x2="90" y1="9" y2="9" /><line stroke="white" stroke-width="1" x1="0" x2="14" y1="10" y2="10" /><line stroke="white" stroke-width="1" x1="34" x2="90" y1="10" y2="10" /><line stroke="white" stroke-width="1" x1="0" x2="13" y1="11" y2="11" /><line stroke="white" stroke-width="1" x1="35" x2="90" y1="11" y2="11" /><line stroke="white" stroke-width="1" x1="0" x2="13" y1="12" y2="12" /><line stroke="white" stroke-width="1" x1="36" x2="90" y1="12" y2="12" /><line stroke="white" stroke-width="1" x1="0" x2="12" y1="13" y2="13" /><line stroke="white" stroke-width="1" x1="36" x2="90" y1="13" y2="13" /><line stroke="white" stroke-width="1" x1="0" x2="11" y1="14" y2="14" /><line stroke="white" stroke-width="1" x1="37" x2="90" y1="14" y2="14" /><line stroke="white" stroke-width="1" x1="0" x2="10" y1="15" y2="15" /><line stroke="white" stroke-width="1" x1="37" x2="90" y1="15" y2="15" /><line stroke="white" stroke-width="1" x1="0" x2="10" y1="16" y2="16" /><line stroke="white" stroke-width="1" x1="38" x2="90" y1="16" y2="16" /><line stroke="white" stroke-width="1" x1="0" x2="9" y1="17" y2="17" /><line stroke="white" stroke-width="1" x1="38" x2="65" y1="17" y2="17" /><line stroke="white" stroke-width="1" x1="68" x2="90" y1="17" y2="17" /><line stroke="white" stroke-width="1" x1="0" x2="9" y1="18" y2="18" /><line stroke="white" stroke-width="1" x1="39" x2="65" y1="18" y2="18" /><line stroke="white" stroke-width="1" x1="71" x2="90" y1="18" y2="18" /><line stroke="white" stroke-width="1" x1="0" x2="8" y1="19" y2="19" /><line stroke="white" stroke-width="1" x1="39" x2="64" y1="19" y2="19" /><line stroke="white" stroke-width="1" x1="75" x2="90" y1="19" y2="19" /><line stroke="white" stroke-width="1" x1="0" x2="8" y1="20" y2="20" /><line stroke="white" stroke-width="1" x1="40" x2="64" y1="20" y2="20" /><line stroke="white" stroke-width="1" x1="80" x2="90" y1="20" y2="20" /><line stroke="white" stroke-width="1" x1="0" x2="8" y1="21" y2="21" /><line stroke="white" stroke-width="1" x1="40" x2="64" y1="21" y2="21" /><line stroke="white" stroke-width="1" x1="80" x2="90" y1="21" y2="21" /><line stroke="white" stroke-width="1" x1="0" x2="7" y1="22" y2="22" /><line stroke="white" stroke-width="1" x1="40" x2="64" y1="22" y2="22" /><line stroke="white" stroke-width="1" x1="80" x2="90" y1="22" y2="22" /><line stroke="white" stroke-width="1" x1="0" x2="7" y1="23" y2="23" /><line stroke="white" stroke-width="1" x1="40" x2="64" y1="23" y2="23" /><line stroke="white" stroke-width="1" x1="80" x2="90" y1="23" y2="23" /><line stroke="white" stroke-width="1" x1="0" x2="7" y1="24" y2="24" /><line stroke="white" stroke-width="1" x1="40" x2="64" y1="24" y2="24" /><line stroke="white" stroke-width="1" x1="80" x2="90" y1="24" y2="24" /><line stroke="white" stroke-width="1" x1="0" x2="7" y1="25" y2="25" /><line stroke="white" stroke-width="1" x1="40" x2="64" y1="25" y2="25" /><line stroke="white" stroke-width="1" x1="80" x2="90" y1="25" y2="25" /><line stroke="white" stroke-width="1" x1="0" x2="7" y1="26" y2="26" /><line stroke="white" stroke-width="1" x1="40" x2="64" y1="26" y2="26" /><line stroke="white" stroke-width="1" x1="80" x2="90" y1="26" y2="26" /><line stroke="white" stroke-width="1" x1="0" x2="7" y1="27" y2="27" /><line stroke="white" stroke-width="1" x1="40" x2="63" y1="27" y2="27" /><line stroke="white" stroke-width="1" x1="81" x2="90" y1="27" y2="27" /><line stroke="white" stroke-width="1" x1="0" x2="7" y1="28" y2="28" /><line stroke="white" stroke-width="1" x1="39" x2="63" y1="28" y2="28" /><line stroke="white" stroke-width="1" x1="81" x2="90" y1="28" y2="28" /><line stroke="white" stroke-width="1" x1="0" x2="7" y1="29" y2="29" /><line stroke="white" stroke-width="1" x1="39" x2="63" y1="29" y2="29" /><line stroke="white" stroke-width="1" x1="81" x2="90" y1="29" y2="29" /><line stroke="white" stroke-width="1" x1="0" x2="7" y1="30" y2="30" /><line stroke="white" stroke-width="1" x1="39" x2="63" y1="30" y2="30" /><line stroke="white" stroke-width="1" x1="81" x2="90" y1="30" y2="30" /><line stroke="white" stroke-width="1" x1="0" x2="7" y1="31" y2="31" /><line stroke="white" stroke-width="1" x1="39" x2="64" y1="31" y2="31" /><line stroke="white" stroke-width="1" x1="81" x2="90" y1="31" y2="31" /><line stroke="white" stroke-width="1" x1="0" x2="8" y1="32" y2="32" /><line stroke="white" stroke-width="1" x1="38" x2="64" y1="32" y2="32" /><line stroke="white" stroke-width="1" x1="81" x2="90" y1="32" y2="32" /><line stroke="white" stroke-width="1" x1="0" x2="8" y1="33" y2="33" /><line stroke="white" stroke-width="1" x1="38" x2="63" y1="33" y2="33" /><line stroke="white" stroke-width="1" x1="81" x2="90" y1="33" y2="33" /><line stroke="white" stroke-width="1" x1="0" x2="8" y1="34" y2="34" /><line stroke="white" stroke-width="1" x1="37" x2="63" y1="34" y2="34" /><line stroke="white" stroke-width="1" x1="81" x2="90" y1="34" y2="34" /><line stroke="white" stroke-width="1" x1="0" x2="9" y1="35" y2="35" /><line stroke="white" stroke-width="1" x1="37" x2="63" y1="35" y2="35" /><line stroke="white" stroke-width="1" x1="81" x2="90" y1="35" y2="35" /><line stroke="white" stroke-width="1" x1="0" x2="9" y1="36" y2="36" /><line stroke="white" stroke-width="1" x1="36" x2="63" y1="36" y2="36" /><line stroke="white" stroke-width="1" x1="81" x2="90" y1="36" y2="36" /><line stroke="white" stroke-width="1" x1="0" x2="10" y1="37" y2="37" /><line stroke="white" stroke-width="1" x1="36" x2="63" y1="37" y2="37" /><line stroke="white" stroke-width="1" x1="81" x2="90" y1="37" y2="37" /><line stroke="white" stroke-width="1" x1="0" x2="11" y1="38" y2="38" /><line stroke="white" stroke-width="1" x1="35" x2="63" y1="38" y2="38" /><line stroke="white" stroke-width="1" x1="81" x2="90" y1="38" y2="38" /><line stroke="white" stroke-width="1" x1="0" x2="12" y1="39" y2="39" /><line stroke="white" stroke-width="1" x1="34" x2="63" y1="39" y2="39" /><line stroke="white" stroke-width="1" x1="81" x2="90" y1="39" y2="39" /><line stroke="white" stroke-width="1" x1="0" x2="13" y1="40" y2="40" /><line stroke="white" stroke-width="1" x1="33" x2="63" y1="40" y2="40" /><line stroke="white" stroke-width="1" x1="81" x2="90" y1="40" y2="40" /><line stroke="white" stroke-width="1" x1="0" x2="15" y1="41" y2="41" /><line stroke="white" stroke-width="1" x1="32" x2="63" y1="41" y2="41" /><line stroke="white" stroke-width="1" x1="81" x2="90" y1="41" y2="41" /><line stroke="white" stroke-width="1" x1="0" x2="17" y1="42" y2="42" /><line stroke="white" stroke-width="1" x1="31" x2="63" y1="42" y2="42" /><line stroke="white" stroke-width="1" x1="81" x2="90" y1="42" y2="42" /><line stroke="white" stroke-width="1" x1="0" x2="19" y1="43" y2="43" /><line stroke="white" stroke-width="1" x1="28" x2="63" y1="43" y2="43" /><line stroke="white" stroke-width="1" x1="81" x2="90" y1="43" y2="43" /><line stroke="white" stroke-width="1" x1="0" x2="63" y1="44" y2="44" /><line stroke="white" stroke-width="1" x1="81" x2="90" y1="44" y2="44" /><line stroke="white" stroke-width="1" x1="0" x2="63" y1="45" y2="45" /><line stroke="white" stroke-width="1" x1="81" x2="90" y1="45" y2="45" /><line stroke="white" stroke-width="1" x1="0" x2="63" y1="46" y2="46" /><line stroke="white" stroke-width="1" x1="81" x2="90" y1="46" y2="46" /><line stroke="white" stroke-width="1" x1="0" x2="64" y1="47" y2="47" /><line stroke="white" stroke-width="1" x1="80" x2="90" y1="47" y2="47" /><line stroke="white" stroke-width="1" x1="0" x2="64" y1="48" y2="48" /><line stroke="white" stroke-width="1" x1="80" x2="90" y1="48" y2="48" /><line stroke="white" stroke-width="1" x1="0" x2="64" y1="49" y2="49" /><line stroke="white" stroke-width="1" x1="75" x2="90" y1="49" y2="49" /><line stroke="white" stroke-width="1" x1="0" x2="64" y1="50" y2="50" /><line stroke="white" stroke-width="1" x1="75" x2="90" y1="50" y2="50" /><line stroke="white" stroke-width="1" x1="0" x2="64" y1="51" y2="51" /><line stroke="white" stroke-width="1" x1="75" x2="90" y1="51" y2="51" /><line stroke="white" stroke-width="1" x1="0" x2="90" y1="52" y2="52" /><line stroke="white" stroke-width="1" x1="0" x2="90" y1="53" y2="53" /><line stroke="white" stroke-width="1" x1="0" x2="90" y1="54" y2="54" /><line stroke="white" stroke-width="1" x1="0" x2="90" y1="55" y2="55" /><line stroke="white" stroke-width="1" x1="0" x2="90" y1="56" y2="56" /><line stroke="white" stroke-width="1" x1="0" x2="90" y1="57" y2="57" /><line stroke="white" stroke-width="1" x1="0" x2="36" y1="58" y2="58" /><line stroke="white" stroke-width="1" x1="46" x2="90" y1="58" y2="58" /><line stroke="white" stroke-width="1" x1="0" x2="35" y1="59" y2="59" /><line stroke="white" stroke-width="1" x1="46" x2="90" y1="59" y2="59" /><line stroke="white" stroke-width="1" x1="0" x2="35" y1="60" y2="60" /><line stroke="white" stroke-width="1" x1="46" x2="90" y1="60" y2="60" /><line stroke="white" stroke-width="1" x1="0" x2="35" y1="61" y2="61" /><line stroke="white" stroke-width="1" x1="46" x2="74" y1="61" y2="61" /><line stroke="white" stroke-width="1" x1="84" x2="90" y1="61" y2="61" /><line stroke="white" stroke-width="1" x1="0" x2="35" y1="62" y2="62" /><line stroke="white" stroke-width="1" x1="46" x2="74" y1="62" y2="62" /><line stroke="white" stroke-width="1" x1="84" x2="90" y1="62" y2="62" /><line stroke="white" stroke-width="1" x1="0" x2="4" y1="63" y2="63" /><line stroke="white" stroke-width="1" x1="16" x2="35" y1="63" y2="63" /><line stroke="white" stroke-width="1" x1="46" x2="74" y1="63" y2="63" /><line stroke="white" stroke-width="1" x1="84" x2="90" y1="63" y2="63" /><line stroke="white" stroke-width="1" x1="0" x2="4" y1="64" y2="64" /><line stroke="white" stroke-width="1" x1="16" x2="35" y1="64" y2="64" /><line stroke="white" stroke-width="1" x1="46" x2="74" y1="64" y2="64" /><line stroke="white" stroke-width="1" x1="85" x2="90" y1="64" y2="64" /><line stroke="white" stroke-width="1" x1="0" x2="4" y1="65" y2="65" /><line stroke="white" stroke-width="1" x1="16" x2="35" y1="65" y2="65" /><line stroke="white" stroke-width="1" x1="46" x2="74" y1="65" y2="65" /><line stroke="white" stroke-width="1" x1="85" x2="90" y1="65" y2="65" /><line stroke="white" stroke-width="1" x1="0" x2="4" y1="66" y2="66" /><line stroke="white" stroke-width="1" x1="16" x2="35" y1="66" y2="66" /><line stroke="white" stroke-width="1" x1="47" x2="74" y1="66" y2="66" /><line stroke="white" stroke-width="1" x1="85" x2="90" y1="66" y2="66" /><line stroke="white" stroke-width="1" x1="0" x2="4" y1="67" y2="67" /><line stroke="white" stroke-width="1" x1="16" x2="35" y1="67" y2="67" /><line stroke="white" stroke-width="1" x1="47" x2="73" y1="67" y2="67" /><line stroke="white" stroke-width="1" x1="84" x2="90" y1="67" y2="67" /><line stroke="white" stroke-width="1" x1="0" x2="4" y1="68" y2="68" /><line stroke="white" stroke-width="1" x1="16" x2="35" y1="68" y2="68" /><line stroke="white" stroke-width="1" x1="47" x2="61" y1="68" y2="68" /><line stroke="white" stroke-width="1" x1="64" x2="73" y1="68" y2="68" /><line stroke="white" stroke-width="1" x1="84" x2="90" y1="68" y2="68" /><line stroke="white" stroke-width="1" x1="0" x2="4" y1="69" y2="69" /><line stroke="white" stroke-width="1" x1="16" x2="34" y1="69" y2="69" /><line stroke="white" stroke-width="1" x1="47" x2="60" y1="69" y2="69" /><line stroke="white" stroke-width="1" x1="63" x2="73" y1="69" y2="69" /><line stroke="white" stroke-width="1" x1="84" x2="90" y1="69" y2="69" /><line stroke="white" stroke-width="1" x1="0" x2="5" y1="70" y2="70" /><line stroke="white" stroke-width="1" x1="17" x2="34" y1="70" y2="70" /><line stroke="white" stroke-width="1" x1="47" x2="59" y1="70" y2="70" /><line stroke="white" stroke-width="1" x1="63" x2="73" y1="70" y2="70" /><line stroke="white" stroke-width="1" x1="84" x2="90" y1="70" y2="70" /><line stroke="white" stroke-width="1" x1="0" x2="5" y1="71" y2="71" /><line stroke="white" stroke-width="1" x1="17" x2="33" y1="71" y2="71" /><line stroke="white" stroke-width="1" x1="47" x2="59" y1="71" y2="71" /><line stroke="white" stroke-width="1" x1="63" x2="73" y1="71" y2="71" /><line stroke="white" stroke-width="1" x1="84" x2="90" y1="71" y2="71" /><line stroke="white" stroke-width="1" x1="0" x2="5" y1="72" y2="72" /><line stroke="white" stroke-width="1" x1="17" x2="32" y1="72" y2="72" /><line stroke="white" stroke-width="1" x1="47" x2="58" y1="72" y2="72" /><line stroke="white" stroke-width="1" x1="64" x2="73" y1="72" y2="72" /><line stroke="white" stroke-width="1" x1="84" x2="90" y1="72" y2="72" /><line stroke="white" stroke-width="1" x1="0" x2="5" y1="73" y2="73" /><line stroke="white" stroke-width="1" x1="18" x2="29" y1="73" y2="73" /><line stroke="white" stroke-width="1" x1="47" x2="58" y1="73" y2="73" /><line stroke="white" stroke-width="1" x1="64" x2="73" y1="73" y2="73" /><line stroke="white" stroke-width="1" x1="84" x2="90" y1="73" y2="73" /><line stroke="white" stroke-width="1" x1="0" x2="5" y1="74" y2="74" /><line stroke="white" stroke-width="1" x1="20" x2="27" y1="74" y2="74" /><line stroke="white" stroke-width="1" x1="47" x2="58" y1="74" y2="74" /><line stroke="white" stroke-width="1" x1="64" x2="73" y1="74" y2="74" /><line stroke="white" stroke-width="1" x1="84" x2="90" y1="74" y2="74" /><line stroke="white" stroke-width="1" x1="0" x2="5" y1="75" y2="75" /><line stroke="white" stroke-width="1" x1="47" x2="58" y1="75" y2="75" /><line stroke="white" stroke-width="1" x1="65" x2="73" y1="75" y2="75" /><line stroke="white" stroke-width="1" x1="84" x2="90" y1="75" y2="75" /><line stroke="white" stroke-width="1" x1="0" x2="5" y1="76" y2="76" /><line stroke="white" stroke-width="1" x1="46" x2="58" y1="76" y2="76" /><line stroke="white" stroke-width="1" x1="65" x2="73" y1="76" y2="76" /><line stroke="white" stroke-width="1" x1="84" x2="90" y1="76" y2="76" /><line stroke="white" stroke-width="1" x1="0" x2="5" y1="77" y2="77" /><line stroke="white" stroke-width="1" x1="46" x2="58" y1="77" y2="77" /><line stroke="white" stroke-width="1" x1="66" x2="73" y1="77" y2="77" /><line stroke="white" stroke-width="1" x1="84" x2="90" y1="77" y2="77" /><line stroke="white" stroke-width="1" x1="0" x2="5" y1="78" y2="78" /><line stroke="white" stroke-width="1" x1="46" x2="58" y1="78" y2="78" /><line stroke="white" stroke-width="1" x1="66" x2="72" y1="78" y2="78" /><line stroke="white" stroke-width="1" x1="83" x2="90" y1="78" y2="78" /><line stroke="white" stroke-width="1" x1="0" x2="5" y1="79" y2="79" /><line stroke="white" stroke-width="1" x1="45" x2="58" y1="79" y2="79" /><line stroke="white" stroke-width="1" x1="67" x2="70" y1="79" y2="79" /><line stroke="white" stroke-width="1" x1="83" x2="90" y1="79" y2="79" /><line stroke="white" stroke-width="1" x1="0" x2="6" y1="80" y2="80" /><line stroke="white" stroke-width="1" x1="45" x2="59" y1="80" y2="80" /><line stroke="white" stroke-width="1" x1="67" x2="69" y1="80" y2="80" /><line stroke="white" stroke-width="1" x1="83" x2="90" y1="80" y2="80" /><line stroke="white" stroke-width="1" x1="0" x2="6" y1="81" y2="81" /><line stroke="white" stroke-width="1" x1="44" x2="59" y1="81" y2="81" /><line stroke="white" stroke-width="1" x1="83" x2="90" y1="81" y2="81" /><line stroke="white" stroke-width="1" x1="0" x2="6" y1="82" y2="82" /><line stroke="white" stroke-width="1" x1="42" x2="59" y1="82" y2="82" /><line stroke="white" stroke-width="1" x1="82" x2="90" y1="82" y2="82" /><line stroke="white" stroke-width="1" x1="0" x2="7" y1="83" y2="83" /><line stroke="white" stroke-width="1" x1="41" x2="59" y1="83" y2="83" /><line stroke="white" stroke-width="1" x1="81" x2="90" y1="83" y2="83" /><line stroke="white" stroke-width="1" x1="0" x2="7" y1="84" y2="84" /><line stroke="white" stroke-width="1" x1="40" x2="59" y1="84" y2="84" /><line stroke="white" stroke-width="1" x1="80" x2="90" y1="84" y2="84" /><line stroke="white" stroke-width="1" x1="0" x2="8" y1="85" y2="85" /><line stroke="white" stroke-width="1" x1="38" x2="60" y1="85" y2="85" /><line stroke="white" stroke-width="1" x1="79" x2="90" y1="85" y2="85" /><line stroke="white" stroke-width="1" x1="0" x2="9" y1="86" y2="86" /><line stroke="white" stroke-width="1" x1="35" x2="61" y1="86" y2="86" /><line stroke="white" stroke-width="1" x1="77" x2="90" y1="86" y2="86" /><line stroke="white" stroke-width="1" x1="0" x2="11" y1="87" y2="87" /><line stroke="white" stroke-width="1" x1="31" x2="62" y1="87" y2="87" /><line stroke="white" stroke-width="1" x1="76" x2="90" y1="87" y2="87" /><line stroke="white" stroke-width="1" x1="0" x2="13" y1="88" y2="88" /><line stroke="white" stroke-width="1" x1="28" x2="64" y1="88" y2="88" /><line stroke="white" stroke-width="1" x1="74" x2="90" y1="88" y2="88" /><line stroke="white" stroke-width="1" x1="0" x2="90" y1="89" y2="89" /><line stroke="white" stroke-width="1" x1="0" x2="90" y1="90" y2="90" /></svg>