<?xml version="1.0" encoding="utf-8" ?>
<svg baseProfile="tiny" height="32" version="1.2" width="32" xmlns="http://www.w3.org/2000/svg" xmlns:ev="http://www.w3.org/2001/xml-events" xmlns:xlink="http://www.w3.org/1999/xlink"><defs /><rect fill="black" height="32" width="32" x="0" y="0" /><line stroke="white" stroke-width="1" x1="0" x2="31" y1="0" y2="0" /><line stroke="white" stroke-width="1" x1="0" x2="31" y1="1" y2="1" /><line stroke="white" stroke-width="1" x1="0" x2="31" y1="2" y2="2" /><line stroke="white" stroke-width="1" x1="0" x2="31" y1="3" y2="3" /><line stroke="white" stroke-width="1" x1="0" x2="31" y1="4" y2="4" /><line stroke="white" stroke-width="1" x1="0" x2="31" y1="5" y2="5" /><line stroke="white" stroke-width="1" x1="0" x2="31" y1="6" y2="6" /><line stroke="white" stroke-width="1" x1="0" x2="4" y1="7" y2="7" /><line stroke="white" stroke-width="1" x1="27" x2="31" y1="7" y2="7" /><line stroke="white" stroke-width="1" x1="0" x2="4" y1="8" y2="8" /><line stroke="white" stroke-width="1" x1="27" x2="31" y1="8" y2="8" /><line stroke="white" stroke-width="1" x1="0" x2="4" y1="9" y2="9" /><line stroke="white" stroke-width="1" x1="27" x2="31" y1="9" y2="9" /><line stroke="white" stroke-width="1" x1="0" x2="4" y1="10" y2="10" /><line stroke="white" stroke-width="1" x1="27" x2="31" y1="10" y2="10" /><line stroke="white" stroke-width="1" x1="0" x2="4" y1="11" y2="11" /><line stroke="white" stroke-width="1" x1="27" x2="31" y1="11" y2="11" /><line stroke="white" stroke-width="1" x1="0" x2="4" y1="12" y2="12" /><line stroke="white" stroke-width="1" x1="27" x2="31" y1="12" y2="12" /><line stroke="white" stroke-width="1" x1="0" x2="4" y1="13" y2="13" /><line stroke="white" stroke-width="1" x1="27" x2="31" y1="13" y2="13" /><line stroke="white" stroke-width="1" x1="0" x2="4" y1="14" y2="14" /><line stroke="white" stroke-width="1" x1="27" x2="31" y1="14" y2="14" /><line stroke="white" stroke-width="1" x1="0" x2="4" y1="15" y2="15" /><line stroke="white" stroke-width="1" x1="27" x2="31" y1="15" y2="15" /><line stroke="white" stroke-width="1" x1="0" x2="4" y1="16" y2="16" /><line stroke="white" stroke-width="1" x1="27" x2="31" y1="16" y2="16" /><line stroke="white" stroke-width="1" x1="0" x2="4" y1="17" y2="17" /><line stroke="white" stroke-width="1" x1="27" x2="31" y1="17" y2="17" /><line stroke="white" stroke-width="1" x1="0" x2="4" y1="18" y2="18" /><line stroke="white" stroke-width="1" x1="27" x2="31" y1="18" y2="18" /><line stroke="white" stroke-width="1" x1="0" x2="4" y1="19" y2="19" /><line stroke="white" stroke-width="1" x1="27" x2="31" y1="19" y2="19" /><line stroke="white" stroke-width="1" x1="0" x2="4" y1="20" y2="20" /><line stroke="white" stroke-width="1" x1="27" x2="31" y1="20" y2="20" /><line stroke="white" stroke-width="1" x1="0" x2="4" y1="21" y2="21" /><line stroke="white" stroke-width="1" x1="27" x2="31" y1="21" y2="21" /><line stroke="white" stroke-width="1" x1="0" x2="4" y1="22" y2="22" /><line stroke="white" stroke-width="1" x1="27" x2="31" y1="22" y2="22" /><line stroke="white" stroke-width="1" x1="0" x2="4" y1="23" y2="23" /><line stroke="white" stroke-width="1" x1="27" x2="31" y1="23" y2="23" /><line stroke="white" stroke-width="1" x1="0" x2="4" y1="24" y2="24" /><line stroke="white" stroke-width="1" x1="27" x2="31" y1="24" y2="24" /><line stroke="white" stroke-width="1" x1="0" x2="4" y1="25" y2="25" /><line stroke="white" stroke-width="1" x1="27" x2="31" y1="25" y2="25" /><line stroke="white" stroke-width="1" x1="0" x2="5" y1="26" y2="26" /><line stroke="white" stroke-width="1" x1="27" x2="31" y1="26" y2="26" /><line stroke="white" stroke-width="1" x1="0" x2="31" y1="27" y2="27" /><line stroke="white" stroke-width="1" x1="0" x2="31" y1="28" y2="28" /><line stroke="white" stroke-width="1" x1="0" x2="31" y1="29" y2="29" /><line stroke="white" stroke-width="1" x1="0" x2="31" y1="30" y2="30" /><line stroke="white" stroke-width="1" x1="0" x2="31" y1="31" y2="31" /></svg>