<?xml version="1.0" encoding="utf-8" ?>
<svg baseProfile="tiny" height="153" version="1.2" width="153" xmlns="http://www.w3.org/2000/svg" xmlns:ev="http://www.w3.org/2001/xml-events" xmlns:xlink="http://www.w3.org/1999/xlink"><defs /><rect fill="black" height="153" width="153" x="0" y="0" /><line stroke="white" stroke-width="1" x1="71" x2="72" y1="123" y2="123" /><line stroke="white" stroke-width="1" x1="71" x2="72" y1="124" y2="124" /><line stroke="white" stroke-width="1" x1="70" x2="72" y1="125" y2="125" /><line stroke="white" stroke-width="1" x1="70" x2="72" y1="126" y2="126" /><line stroke="white" stroke-width="1" x1="44" x2="47" y1="109" y2="109" /><line stroke="white" stroke-width="1" x1="44" x2="47" y1="110" y2="110" /><line stroke="white" stroke-width="1" x1="44" x2="47" y1="111" y2="111" /><line stroke="white" stroke-width="1" x1="44" x2="48" y1="112" y2="112" /><line stroke="white" stroke-width="1" x1="44" x2="48" y1="113" y2="113" /><line stroke="white" stroke-width="1" x1="44" x2="45" y1="114" y2="114" /><line stroke="white" stroke-width="1" x1="48" x2="48" y1="114" y2="114" /><line stroke="white" stroke-width="1" x1="53" x2="53" y1="114" y2="114" /><line stroke="white" stroke-width="1" x1="44" x2="45" y1="115" y2="115" /><line stroke="white" stroke-width="1" x1="52" x2="54" y1="115" y2="115" /><line stroke="white" stroke-width="1" x1="44" x2="45" y1="116" y2="116" /><line stroke="white" stroke-width="1" x1="52" x2="55" y1="116" y2="116" /><line stroke="white" stroke-width="1" x1="45" x2="46" y1="117" y2="117" /><line stroke="white" stroke-width="1" x1="52" x2="56" y1="117" y2="117" /><line stroke="white" stroke-width="1" x1="45" x2="47" y1="118" y2="118" /><line stroke="white" stroke-width="1" x1="51" x2="54" y1="118" y2="118" /><line stroke="white" stroke-width="1" x1="57" x2="57" y1="118" y2="118" /><line stroke="white" stroke-width="1" x1="46" x2="53" y1="119" y2="119" /><line stroke="white" stroke-width="1" x1="46" x2="48" y1="120" y2="120" /><line stroke="white" stroke-width="1" x1="51" x2="53" y1="120" y2="120" /><line stroke="white" stroke-width="1" x1="46" x2="48" y1="121" y2="121" /><line stroke="white" stroke-width="1" x1="51" x2="53" y1="121" y2="121" /><line stroke="white" stroke-width="1" x1="46" x2="48" y1="122" y2="122" /><line stroke="white" stroke-width="1" x1="52" x2="53" y1="122" y2="122" /><line stroke="white" stroke-width="1" x1="47" x2="48" y1="123" y2="123" /><line stroke="white" stroke-width="1" x1="52" x2="53" y1="123" y2="123" /><line stroke="white" stroke-width="1" x1="47" x2="49" y1="124" y2="124" /><line stroke="white" stroke-width="1" x1="53" x2="54" y1="124" y2="124" /><line stroke="white" stroke-width="1" x1="47" x2="50" y1="125" y2="125" /><line stroke="white" stroke-width="1" x1="53" x2="54" y1="125" y2="125" /><line stroke="white" stroke-width="1" x1="47" x2="53" y1="126" y2="126" /><line stroke="white" stroke-width="1" x1="47" x2="52" y1="127" y2="127" /><line stroke="white" stroke-width="1" x1="47" x2="49" y1="128" y2="128" /><line stroke="white" stroke-width="1" x1="47" x2="49" y1="129" y2="129" /><line stroke="white" stroke-width="1" x1="47" x2="50" y1="130" y2="130" /><line stroke="white" stroke-width="1" x1="88" x2="89" y1="106" y2="106" /><line stroke="white" stroke-width="1" x1="108" x2="109" y1="94" y2="94" /><line stroke="white" stroke-width="1" x1="109" x2="110" y1="95" y2="95" /><line stroke="white" stroke-width="1" x1="109" x2="111" y1="96" y2="96" /><line stroke="white" stroke-width="1" x1="109" x2="112" y1="97" y2="97" /><line stroke="white" stroke-width="1" x1="109" x2="113" y1="98" y2="98" /><line stroke="white" stroke-width="1" x1="108" x2="113" y1="99" y2="99" /><line stroke="white" stroke-width="1" x1="108" x2="113" y1="100" y2="100" /><line stroke="white" stroke-width="1" x1="102" x2="108" y1="101" y2="101" /><line stroke="white" stroke-width="1" x1="113" x2="114" y1="101" y2="101" /><line stroke="white" stroke-width="1" x1="101" x2="105" y1="102" y2="102" /><line stroke="white" stroke-width="1" x1="108" x2="108" y1="102" y2="102" /><line stroke="white" stroke-width="1" x1="113" x2="114" y1="102" y2="102" /><line stroke="white" stroke-width="1" x1="101" x2="102" y1="103" y2="103" /><line stroke="white" stroke-width="1" x1="105" x2="108" y1="103" y2="103" /><line stroke="white" stroke-width="1" x1="112" x2="114" y1="103" y2="103" /><line stroke="white" stroke-width="1" x1="101" x2="109" y1="104" y2="104" /><line stroke="white" stroke-width="1" x1="112" x2="114" y1="104" y2="104" /><line stroke="white" stroke-width="1" x1="101" x2="114" y1="105" y2="105" /><line stroke="white" stroke-width="1" x1="101" x2="113" y1="106" y2="106" /><line stroke="white" stroke-width="1" x1="106" x2="113" y1="107" y2="107" /><line stroke="white" stroke-width="1" x1="102" x2="107" y1="108" y2="108" /><line stroke="white" stroke-width="1" x1="102" x2="107" y1="109" y2="109" /><line stroke="white" stroke-width="1" x1="115" x2="115" y1="109" y2="109" /><line stroke="white" stroke-width="1" x1="102" x2="106" y1="110" y2="110" /><line stroke="white" stroke-width="1" x1="115" x2="116" y1="110" y2="110" /><line stroke="white" stroke-width="1" x1="102" x2="106" y1="111" y2="111" /><line stroke="white" stroke-width="1" x1="114" x2="117" y1="111" y2="111" /><line stroke="white" stroke-width="1" x1="103" x2="105" y1="112" y2="112" /><line stroke="white" stroke-width="1" x1="113" x2="117" y1="112" y2="112" /><line stroke="white" stroke-width="1" x1="102" x2="105" y1="113" y2="113" /><line stroke="white" stroke-width="1" x1="113" x2="117" y1="113" y2="113" /><line stroke="white" stroke-width="1" x1="103" x2="104" y1="114" y2="114" /><line stroke="white" stroke-width="1" x1="113" x2="117" y1="114" y2="114" /><line stroke="white" stroke-width="1" x1="103" x2="104" y1="115" y2="115" /><line stroke="white" stroke-width="1" x1="112" x2="117" y1="115" y2="115" /><line stroke="white" stroke-width="1" x1="103" x2="106" y1="116" y2="116" /><line stroke="white" stroke-width="1" x1="112" x2="117" y1="116" y2="116" /><line stroke="white" stroke-width="1" x1="105" x2="107" y1="117" y2="117" /><line stroke="white" stroke-width="1" x1="111" x2="111" y1="117" y2="117" /><line stroke="white" stroke-width="1" x1="115" x2="116" y1="117" y2="117" /><line stroke="white" stroke-width="1" x1="104" x2="107" y1="118" y2="118" /><line stroke="white" stroke-width="1" x1="115" x2="116" y1="118" y2="118" /><line stroke="white" stroke-width="1" x1="104" x2="108" y1="119" y2="119" /><line stroke="white" stroke-width="1" x1="115" x2="115" y1="119" y2="119" /><line stroke="white" stroke-width="1" x1="106" x2="108" y1="120" y2="120" /><line stroke="white" stroke-width="1" x1="115" x2="115" y1="120" y2="120" /><line stroke="white" stroke-width="1" x1="106" x2="108" y1="121" y2="121" /><line stroke="white" stroke-width="1" x1="114" x2="114" y1="121" y2="121" /><line stroke="white" stroke-width="1" x1="106" x2="108" y1="122" y2="122" /><line stroke="white" stroke-width="1" x1="114" x2="114" y1="122" y2="122" /><line stroke="white" stroke-width="1" x1="106" x2="108" y1="123" y2="123" /><line stroke="white" stroke-width="1" x1="113" x2="114" y1="123" y2="123" /><line stroke="white" stroke-width="1" x1="106" x2="109" y1="124" y2="124" /><line stroke="white" stroke-width="1" x1="112" x2="114" y1="124" y2="124" /><line stroke="white" stroke-width="1" x1="106" x2="114" y1="125" y2="125" /><line stroke="white" stroke-width="1" x1="109" x2="114" y1="126" y2="126" /><line stroke="white" stroke-width="1" x1="108" x2="113" y1="127" y2="127" /><line stroke="white" stroke-width="1" x1="107" x2="113" y1="128" y2="128" /><line stroke="white" stroke-width="1" x1="105" x2="106" y1="129" y2="129" /><line stroke="white" stroke-width="1" x1="111" x2="113" y1="129" y2="129" /><line stroke="white" stroke-width="1" x1="110" x2="112" y1="130" y2="130" /><line stroke="white" stroke-width="1" x1="108" x2="112" y1="131" y2="131" /><line stroke="white" stroke-width="1" x1="107" x2="111" y1="132" y2="132" /><line stroke="white" stroke-width="1" x1="109" x2="110" y1="133" y2="133" /><line stroke="white" stroke-width="1" x1="109" x2="110" y1="134" y2="134" /><line stroke="white" stroke-width="1" x1="51" x2="52" y1="94" y2="94" /><line stroke="white" stroke-width="1" x1="49" x2="52" y1="95" y2="95" /><line stroke="white" stroke-width="1" x1="49" x2="53" y1="96" y2="96" /><line stroke="white" stroke-width="1" x1="48" x2="50" y1="97" y2="97" /><line stroke="white" stroke-width="1" x1="53" x2="53" y1="97" y2="97" /><line stroke="white" stroke-width="1" x1="48" x2="49" y1="98" y2="98" /><line stroke="white" stroke-width="1" x1="53" x2="53" y1="98" y2="98" /><line stroke="white" stroke-width="1" x1="48" x2="49" y1="99" y2="99" /><line stroke="white" stroke-width="1" x1="58" x2="59" y1="99" y2="99" /><line stroke="white" stroke-width="1" x1="48" x2="49" y1="100" y2="100" /><line stroke="white" stroke-width="1" x1="56" x2="60" y1="100" y2="100" /><line stroke="white" stroke-width="1" x1="48" x2="49" y1="101" y2="101" /><line stroke="white" stroke-width="1" x1="53" x2="57" y1="101" y2="101" /><line stroke="white" stroke-width="1" x1="60" x2="61" y1="101" y2="101" /><line stroke="white" stroke-width="1" x1="48" x2="56" y1="102" y2="102" /><line stroke="white" stroke-width="1" x1="60" x2="61" y1="102" y2="102" /><line stroke="white" stroke-width="1" x1="48" x2="56" y1="103" y2="103" /><line stroke="white" stroke-width="1" x1="60" x2="61" y1="103" y2="103" /><line stroke="white" stroke-width="1" x1="48" x2="55" y1="104" y2="104" /><line stroke="white" stroke-width="1" x1="60" x2="60" y1="104" y2="104" /><line stroke="white" stroke-width="1" x1="50" x2="55" y1="105" y2="105" /><line stroke="white" stroke-width="1" x1="60" x2="60" y1="105" y2="105" /><line stroke="white" stroke-width="1" x1="54" x2="56" y1="106" y2="106" /><line stroke="white" stroke-width="1" x1="59" x2="60" y1="106" y2="106" /><line stroke="white" stroke-width="1" x1="54" x2="59" y1="107" y2="107" /><line stroke="white" stroke-width="1" x1="54" x2="59" y1="108" y2="108" /><line stroke="white" stroke-width="1" x1="55" x2="59" y1="109" y2="109" /><line stroke="white" stroke-width="1" x1="55" x2="59" y1="110" y2="110" /><line stroke="white" stroke-width="1" x1="56" x2="59" y1="111" y2="111" /><line stroke="white" stroke-width="1" x1="57" x2="59" y1="112" y2="112" /><line stroke="white" stroke-width="1" x1="57" x2="59" y1="113" y2="113" /><line stroke="white" stroke-width="1" x1="92" x2="94" y1="92" y2="92" /><line stroke="white" stroke-width="1" x1="92" x2="95" y1="93" y2="93" /><line stroke="white" stroke-width="1" x1="92" x2="95" y1="94" y2="94" /><line stroke="white" stroke-width="1" x1="68" x2="71" y1="92" y2="92" /><line stroke="white" stroke-width="1" x1="67" x2="71" y1="93" y2="93" /><line stroke="white" stroke-width="1" x1="67" x2="68" y1="94" y2="94" /><line stroke="white" stroke-width="1" x1="71" x2="71" y1="94" y2="94" /><line stroke="white" stroke-width="1" x1="67" x2="68" y1="95" y2="95" /><line stroke="white" stroke-width="1" x1="71" x2="71" y1="95" y2="95" /><line stroke="white" stroke-width="1" x1="69" x2="70" y1="96" y2="96" /><line stroke="white" stroke-width="1" x1="69" x2="70" y1="97" y2="97" /><line stroke="white" stroke-width="1" x1="101" x2="102" y1="86" y2="86" /><line stroke="white" stroke-width="1" x1="101" x2="103" y1="87" y2="87" /><line stroke="white" stroke-width="1" x1="101" x2="103" y1="88" y2="88" /><line stroke="white" stroke-width="1" x1="101" x2="103" y1="89" y2="89" /><line stroke="white" stroke-width="1" x1="100" x2="104" y1="90" y2="90" /><line stroke="white" stroke-width="1" x1="76" x2="77" y1="85" y2="85" /><line stroke="white" stroke-width="1" x1="61" x2="62" y1="84" y2="84" /><line stroke="white" stroke-width="1" x1="60" x2="62" y1="85" y2="85" /><line stroke="white" stroke-width="1" x1="59" x2="62" y1="86" y2="86" /><line stroke="white" stroke-width="1" x1="58" x2="62" y1="87" y2="87" /><line stroke="white" stroke-width="1" x1="58" x2="62" y1="88" y2="88" /><line stroke="white" stroke-width="1" x1="57" x2="63" y1="89" y2="89" /><line stroke="white" stroke-width="1" x1="69" x2="70" y1="77" y2="77" /><line stroke="white" stroke-width="1" x1="70" x2="71" y1="78" y2="78" /><line stroke="white" stroke-width="1" x1="89" x2="90" y1="75" y2="75" /><line stroke="white" stroke-width="1" x1="74" x2="76" y1="69" y2="69" /><line stroke="white" stroke-width="1" x1="75" x2="76" y1="70" y2="70" /><line stroke="white" stroke-width="1" x1="74" x2="76" y1="71" y2="71" /><line stroke="white" stroke-width="1" x1="74" x2="76" y1="72" y2="72" /><line stroke="white" stroke-width="1" x1="74" x2="75" y1="73" y2="73" /><line stroke="white" stroke-width="1" x1="74" x2="75" y1="74" y2="74" /><line stroke="white" stroke-width="1" x1="74" x2="75" y1="75" y2="75" /><line stroke="white" stroke-width="1" x1="86" x2="88" y1="50" y2="50" /><line stroke="white" stroke-width="1" x1="87" x2="88" y1="51" y2="51" /><line stroke="white" stroke-width="1" x1="87" x2="88" y1="52" y2="52" /><line stroke="white" stroke-width="1" x1="88" x2="89" y1="53" y2="53" /><line stroke="white" stroke-width="1" x1="88" x2="89" y1="54" y2="54" /><line stroke="white" stroke-width="1" x1="89" x2="91" y1="55" y2="55" /><line stroke="white" stroke-width="1" x1="89" x2="91" y1="56" y2="56" /><line stroke="white" stroke-width="1" x1="90" x2="91" y1="57" y2="57" /><line stroke="white" stroke-width="1" x1="90" x2="91" y1="58" y2="58" /><line stroke="white" stroke-width="1" x1="77" x2="78" y1="48" y2="48" /><line stroke="white" stroke-width="1" x1="77" x2="78" y1="49" y2="49" /><line stroke="white" stroke-width="1" x1="77" x2="78" y1="50" y2="50" /><line stroke="white" stroke-width="1" x1="77" x2="78" y1="51" y2="51" /><line stroke="white" stroke-width="1" x1="76" x2="77" y1="52" y2="52" /><line stroke="white" stroke-width="1" x1="76" x2="77" y1="53" y2="53" /><line stroke="white" stroke-width="1" x1="71" x2="72" y1="54" y2="54" /><line stroke="white" stroke-width="1" x1="75" x2="77" y1="54" y2="54" /><line stroke="white" stroke-width="1" x1="71" x2="76" y1="55" y2="55" /><line stroke="white" stroke-width="1" x1="71" x2="76" y1="56" y2="56" /><line stroke="white" stroke-width="1" x1="71" x2="75" y1="57" y2="57" /><line stroke="white" stroke-width="1" x1="71" x2="75" y1="58" y2="58" /><line stroke="white" stroke-width="1" x1="72" x2="75" y1="59" y2="59" /><line stroke="white" stroke-width="1" x1="72" x2="74" y1="60" y2="60" /><line stroke="white" stroke-width="1" x1="73" x2="74" y1="61" y2="61" /><line stroke="white" stroke-width="1" x1="77" x2="78" y1="30" y2="30" /><line stroke="white" stroke-width="1" x1="77" x2="79" y1="31" y2="31" /><line stroke="white" stroke-width="1" x1="78" x2="79" y1="32" y2="32" /><line stroke="white" stroke-width="1" x1="78" x2="79" y1="33" y2="33" /><line stroke="white" stroke-width="1" x1="78" x2="79" y1="34" y2="34" /><line stroke="white" stroke-width="1" x1="86" x2="89" y1="29" y2="29" /><line stroke="white" stroke-width="1" x1="84" x2="89" y1="30" y2="30" /><line stroke="white" stroke-width="1" x1="84" x2="88" y1="31" y2="31" /><line stroke="white" stroke-width="1" x1="84" x2="87" y1="32" y2="32" /><line stroke="white" stroke-width="1" x1="84" x2="86" y1="33" y2="33" /><line stroke="white" stroke-width="1" x1="83" x2="86" y1="34" y2="34" /><line stroke="white" stroke-width="1" x1="85" x2="86" y1="35" y2="35" /><line stroke="white" stroke-width="1" x1="85" x2="86" y1="36" y2="36" /><line stroke="white" stroke-width="1" x1="85" x2="86" y1="37" y2="37" /><line stroke="white" stroke-width="1" x1="84" x2="85" y1="38" y2="38" /><line stroke="white" stroke-width="1" x1="83" x2="84" y1="39" y2="39" /><line stroke="white" stroke-width="1" x1="82" x2="84" y1="15" y2="15" /><line stroke="white" stroke-width="1" x1="81" x2="83" y1="16" y2="16" /><line stroke="white" stroke-width="1" x1="80" x2="83" y1="17" y2="17" /><line stroke="white" stroke-width="1" x1="79" x2="82" y1="18" y2="18" /><line stroke="white" stroke-width="1" x1="78" x2="82" y1="19" y2="19" /><line stroke="white" stroke-width="1" x1="78" x2="82" y1="20" y2="20" /><line stroke="white" stroke-width="1" x1="77" x2="83" y1="21" y2="21" /><line stroke="white" stroke-width="1" x1="77" x2="78" y1="22" y2="22" /><line stroke="white" stroke-width="1" x1="81" x2="82" y1="22" y2="22" /><line stroke="white" stroke-width="1" x1="81" x2="82" y1="23" y2="23" /><line stroke="white" stroke-width="1" x1="76" x2="82" y1="24" y2="24" /><line stroke="white" stroke-width="1" x1="76" x2="81" y1="25" y2="25" /><line stroke="white" stroke-width="1" x1="76" x2="81" y1="26" y2="26" /><line stroke="white" stroke-width="1" x1="78" x2="80" y1="27" y2="27" /><line stroke="white" stroke-width="1" x1="100" x2="102" y1="14" y2="14" /><line stroke="white" stroke-width="1" x1="100" x2="104" y1="15" y2="15" /><line stroke="white" stroke-width="1" x1="92" x2="93" y1="16" y2="16" /><line stroke="white" stroke-width="1" x1="100" x2="105" y1="16" y2="16" /><line stroke="white" stroke-width="1" x1="92" x2="95" y1="17" y2="17" /><line stroke="white" stroke-width="1" x1="100" x2="106" y1="17" y2="17" /><line stroke="white" stroke-width="1" x1="93" x2="96" y1="18" y2="18" /><line stroke="white" stroke-width="1" x1="101" x2="107" y1="18" y2="18" /><line stroke="white" stroke-width="1" x1="92" x2="97" y1="19" y2="19" /><line stroke="white" stroke-width="1" x1="101" x2="107" y1="19" y2="19" /><line stroke="white" stroke-width="1" x1="91" x2="97" y1="20" y2="20" /><line stroke="white" stroke-width="1" x1="100" x2="108" y1="20" y2="20" /><line stroke="white" stroke-width="1" x1="92" x2="98" y1="21" y2="21" /><line stroke="white" stroke-width="1" x1="101" x2="102" y1="21" y2="21" /><line stroke="white" stroke-width="1" x1="107" x2="108" y1="21" y2="21" /><line stroke="white" stroke-width="1" x1="91" x2="93" y1="22" y2="22" /><line stroke="white" stroke-width="1" x1="97" x2="98" y1="22" y2="22" /><line stroke="white" stroke-width="1" x1="102" x2="104" y1="22" y2="22" /><line stroke="white" stroke-width="1" x1="107" x2="108" y1="22" y2="22" /><line stroke="white" stroke-width="1" x1="92" x2="93" y1="23" y2="23" /><line stroke="white" stroke-width="1" x1="98" x2="99" y1="23" y2="23" /><line stroke="white" stroke-width="1" x1="104" x2="110" y1="23" y2="23" /><line stroke="white" stroke-width="1" x1="92" x2="93" y1="24" y2="24" /><line stroke="white" stroke-width="1" x1="99" x2="99" y1="24" y2="24" /><line stroke="white" stroke-width="1" x1="105" x2="112" y1="24" y2="24" /><line stroke="white" stroke-width="1" x1="93" x2="99" y1="25" y2="25" /><line stroke="white" stroke-width="1" x1="106" x2="113" y1="25" y2="25" /><line stroke="white" stroke-width="1" x1="93" x2="114" y1="26" y2="26" /><line stroke="white" stroke-width="1" x1="93" x2="94" y1="27" y2="27" /><line stroke="white" stroke-width="1" x1="106" x2="115" y1="27" y2="27" /><line stroke="white" stroke-width="1" x1="93" x2="95" y1="28" y2="28" /><line stroke="white" stroke-width="1" x1="106" x2="116" y1="28" y2="28" /><line stroke="white" stroke-width="1" x1="91" x2="96" y1="29" y2="29" /><line stroke="white" stroke-width="1" x1="106" x2="117" y1="29" y2="29" /><line stroke="white" stroke-width="1" x1="92" x2="97" y1="30" y2="30" /><line stroke="white" stroke-width="1" x1="106" x2="108" y1="30" y2="30" /><line stroke="white" stroke-width="1" x1="112" x2="117" y1="30" y2="30" /><line stroke="white" stroke-width="1" x1="92" x2="98" y1="31" y2="31" /><line stroke="white" stroke-width="1" x1="106" x2="108" y1="31" y2="31" /><line stroke="white" stroke-width="1" x1="113" x2="117" y1="31" y2="31" /><line stroke="white" stroke-width="1" x1="93" x2="98" y1="32" y2="32" /><line stroke="white" stroke-width="1" x1="106" x2="107" y1="32" y2="32" /><line stroke="white" stroke-width="1" x1="113" x2="115" y1="32" y2="32" /><line stroke="white" stroke-width="1" x1="118" x2="118" y1="32" y2="32" /><line stroke="white" stroke-width="1" x1="93" x2="99" y1="33" y2="33" /><line stroke="white" stroke-width="1" x1="106" x2="108" y1="33" y2="33" /><line stroke="white" stroke-width="1" x1="113" x2="115" y1="33" y2="33" /><line stroke="white" stroke-width="1" x1="118" x2="118" y1="33" y2="33" /><line stroke="white" stroke-width="1" x1="93" x2="94" y1="34" y2="34" /><line stroke="white" stroke-width="1" x1="99" x2="99" y1="34" y2="34" /><line stroke="white" stroke-width="1" x1="107" x2="108" y1="34" y2="34" /><line stroke="white" stroke-width="1" x1="113" x2="115" y1="34" y2="34" /><line stroke="white" stroke-width="1" x1="118" x2="118" y1="34" y2="34" /><line stroke="white" stroke-width="1" x1="93" x2="94" y1="35" y2="35" /><line stroke="white" stroke-width="1" x1="100" x2="100" y1="35" y2="35" /><line stroke="white" stroke-width="1" x1="107" x2="108" y1="35" y2="35" /><line stroke="white" stroke-width="1" x1="113" x2="115" y1="35" y2="35" /><line stroke="white" stroke-width="1" x1="118" x2="118" y1="35" y2="35" /><line stroke="white" stroke-width="1" x1="94" x2="100" y1="36" y2="36" /><line stroke="white" stroke-width="1" x1="108" x2="118" y1="36" y2="36" /><line stroke="white" stroke-width="1" x1="94" x2="100" y1="37" y2="37" /><line stroke="white" stroke-width="1" x1="108" x2="118" y1="37" y2="37" /><line stroke="white" stroke-width="1" x1="94" x2="95" y1="38" y2="38" /><line stroke="white" stroke-width="1" x1="100" x2="101" y1="38" y2="38" /><line stroke="white" stroke-width="1" x1="109" x2="118" y1="38" y2="38" /><line stroke="white" stroke-width="1" x1="95" x2="96" y1="39" y2="39" /><line stroke="white" stroke-width="1" x1="99" x2="101" y1="39" y2="39" /><line stroke="white" stroke-width="1" x1="109" x2="117" y1="39" y2="39" /><line stroke="white" stroke-width="1" x1="95" x2="102" y1="40" y2="40" /><line stroke="white" stroke-width="1" x1="110" x2="117" y1="40" y2="40" /><line stroke="white" stroke-width="1" x1="96" x2="100" y1="41" y2="41" /><line stroke="white" stroke-width="1" x1="110" x2="117" y1="41" y2="41" /><line stroke="white" stroke-width="1" x1="96" x2="100" y1="42" y2="42" /><line stroke="white" stroke-width="1" x1="106" x2="106" y1="42" y2="42" /><line stroke="white" stroke-width="1" x1="110" x2="118" y1="42" y2="42" /><line stroke="white" stroke-width="1" x1="97" x2="106" y1="43" y2="43" /><line stroke="white" stroke-width="1" x1="115" x2="119" y1="43" y2="43" /><line stroke="white" stroke-width="1" x1="98" x2="107" y1="44" y2="44" /><line stroke="white" stroke-width="1" x1="114" x2="119" y1="44" y2="44" /><line stroke="white" stroke-width="1" x1="98" x2="99" y1="45" y2="45" /><line stroke="white" stroke-width="1" x1="103" x2="108" y1="45" y2="45" /><line stroke="white" stroke-width="1" x1="118" x2="120" y1="45" y2="45" /><line stroke="white" stroke-width="1" x1="103" x2="109" y1="46" y2="46" /><line stroke="white" stroke-width="1" x1="118" x2="120" y1="46" y2="46" /><line stroke="white" stroke-width="1" x1="103" x2="104" y1="47" y2="47" /><line stroke="white" stroke-width="1" x1="109" x2="110" y1="47" y2="47" /><line stroke="white" stroke-width="1" x1="113" x2="113" y1="47" y2="47" /><line stroke="white" stroke-width="1" x1="118" x2="120" y1="47" y2="47" /><line stroke="white" stroke-width="1" x1="103" x2="104" y1="48" y2="48" /><line stroke="white" stroke-width="1" x1="110" x2="113" y1="48" y2="48" /><line stroke="white" stroke-width="1" x1="118" x2="120" y1="48" y2="48" /><line stroke="white" stroke-width="1" x1="103" x2="104" y1="49" y2="49" /><line stroke="white" stroke-width="1" x1="110" x2="115" y1="49" y2="49" /><line stroke="white" stroke-width="1" x1="118" x2="120" y1="49" y2="49" /><line stroke="white" stroke-width="1" x1="103" x2="104" y1="50" y2="50" /><line stroke="white" stroke-width="1" x1="110" x2="120" y1="50" y2="50" /><line stroke="white" stroke-width="1" x1="103" x2="105" y1="51" y2="51" /><line stroke="white" stroke-width="1" x1="110" x2="120" y1="51" y2="51" /><line stroke="white" stroke-width="1" x1="104" x2="120" y1="52" y2="52" /><line stroke="white" stroke-width="1" x1="104" x2="119" y1="53" y2="53" /><line stroke="white" stroke-width="1" x1="105" x2="111" y1="54" y2="54" /><line stroke="white" stroke-width="1" x1="114" x2="119" y1="54" y2="54" /><line stroke="white" stroke-width="1" x1="105" x2="111" y1="55" y2="55" /><line stroke="white" stroke-width="1" x1="115" x2="119" y1="55" y2="55" /><line stroke="white" stroke-width="1" x1="105" x2="111" y1="56" y2="56" /><line stroke="white" stroke-width="1" x1="115" x2="118" y1="56" y2="56" /><line stroke="white" stroke-width="1" x1="106" x2="110" y1="57" y2="57" /><line stroke="white" stroke-width="1" x1="116" x2="117" y1="57" y2="57" /><line stroke="white" stroke-width="1" x1="106" x2="110" y1="58" y2="58" /><line stroke="white" stroke-width="1" x1="116" x2="116" y1="58" y2="58" /><line stroke="white" stroke-width="1" x1="107" x2="109" y1="59" y2="59" /><line stroke="white" stroke-width="1" x1="107" x2="115" y1="60" y2="60" /><line stroke="white" stroke-width="1" x1="106" x2="115" y1="61" y2="61" /><line stroke="white" stroke-width="1" x1="105" x2="111" y1="62" y2="62" /><line stroke="white" stroke-width="1" x1="115" x2="115" y1="62" y2="62" /><line stroke="white" stroke-width="1" x1="106" x2="110" y1="63" y2="63" /><line stroke="white" stroke-width="1" x1="115" x2="115" y1="63" y2="63" /><line stroke="white" stroke-width="1" x1="102" x2="110" y1="64" y2="64" /><line stroke="white" stroke-width="1" x1="114" x2="115" y1="64" y2="64" /><line stroke="white" stroke-width="1" x1="101" x2="102" y1="65" y2="65" /><line stroke="white" stroke-width="1" x1="107" x2="114" y1="65" y2="65" /><line stroke="white" stroke-width="1" x1="101" x2="102" y1="66" y2="66" /><line stroke="white" stroke-width="1" x1="107" x2="114" y1="66" y2="66" /><line stroke="white" stroke-width="1" x1="102" x2="113" y1="67" y2="67" /><line stroke="white" stroke-width="1" x1="102" x2="113" y1="68" y2="68" /><line stroke="white" stroke-width="1" x1="102" x2="111" y1="69" y2="69" /><line stroke="white" stroke-width="1" x1="103" x2="110" y1="70" y2="70" /><line stroke="white" stroke-width="1" x1="103" x2="107" y1="71" y2="71" /><line stroke="white" stroke-width="1" x1="103" x2="106" y1="72" y2="72" /><line stroke="white" stroke-width="1" x1="103" x2="105" y1="73" y2="73" /><line stroke="white" stroke-width="1" x1="102" x2="105" y1="74" y2="74" /><line stroke="white" stroke-width="1" x1="103" x2="104" y1="75" y2="75" /><line stroke="white" stroke-width="1" x1="63" x2="66" y1="13" y2="13" /><line stroke="white" stroke-width="1" x1="61" x2="70" y1="14" y2="14" /><line stroke="white" stroke-width="1" x1="60" x2="70" y1="15" y2="15" /><line stroke="white" stroke-width="1" x1="59" x2="70" y1="16" y2="16" /><line stroke="white" stroke-width="1" x1="58" x2="69" y1="17" y2="17" /><line stroke="white" stroke-width="1" x1="57" x2="69" y1="18" y2="18" /><line stroke="white" stroke-width="1" x1="57" x2="69" y1="19" y2="19" /><line stroke="white" stroke-width="1" x1="57" x2="58" y1="20" y2="20" /><line stroke="white" stroke-width="1" x1="61" x2="69" y1="20" y2="20" /><line stroke="white" stroke-width="1" x1="56" x2="70" y1="21" y2="21" /><line stroke="white" stroke-width="1" x1="56" x2="64" y1="22" y2="22" /><line stroke="white" stroke-width="1" x1="67" x2="69" y1="22" y2="22" /><line stroke="white" stroke-width="1" x1="54" x2="63" y1="23" y2="23" /><line stroke="white" stroke-width="1" x1="68" x2="69" y1="23" y2="23" /><line stroke="white" stroke-width="1" x1="52" x2="57" y1="24" y2="24" /><line stroke="white" stroke-width="1" x1="61" x2="62" y1="24" y2="24" /><line stroke="white" stroke-width="1" x1="68" x2="69" y1="24" y2="24" /><line stroke="white" stroke-width="1" x1="51" x2="57" y1="25" y2="25" /><line stroke="white" stroke-width="1" x1="62" x2="62" y1="25" y2="25" /><line stroke="white" stroke-width="1" x1="68" x2="69" y1="25" y2="25" /><line stroke="white" stroke-width="1" x1="50" x2="57" y1="26" y2="26" /><line stroke="white" stroke-width="1" x1="63" x2="63" y1="26" y2="26" /><line stroke="white" stroke-width="1" x1="69" x2="70" y1="26" y2="26" /><line stroke="white" stroke-width="1" x1="49" x2="57" y1="27" y2="27" /><line stroke="white" stroke-width="1" x1="64" x2="64" y1="27" y2="27" /><line stroke="white" stroke-width="1" x1="68" x2="73" y1="27" y2="27" /><line stroke="white" stroke-width="1" x1="48" x2="58" y1="28" y2="28" /><line stroke="white" stroke-width="1" x1="64" x2="64" y1="28" y2="28" /><line stroke="white" stroke-width="1" x1="67" x2="74" y1="28" y2="28" /><line stroke="white" stroke-width="1" x1="48" x2="58" y1="29" y2="29" /><line stroke="white" stroke-width="1" x1="64" x2="74" y1="29" y2="29" /><line stroke="white" stroke-width="1" x1="47" x2="51" y1="30" y2="30" /><line stroke="white" stroke-width="1" x1="55" x2="57" y1="30" y2="30" /><line stroke="white" stroke-width="1" x1="64" x2="75" y1="30" y2="30" /><line stroke="white" stroke-width="1" x1="47" x2="50" y1="31" y2="31" /><line stroke="white" stroke-width="1" x1="56" x2="57" y1="31" y2="31" /><line stroke="white" stroke-width="1" x1="64" x2="73" y1="31" y2="31" /><line stroke="white" stroke-width="1" x1="47" x2="50" y1="32" y2="32" /><line stroke="white" stroke-width="1" x1="56" x2="57" y1="32" y2="32" /><line stroke="white" stroke-width="1" x1="63" x2="72" y1="32" y2="32" /><line stroke="white" stroke-width="1" x1="47" x2="50" y1="33" y2="33" /><line stroke="white" stroke-width="1" x1="56" x2="57" y1="33" y2="33" /><line stroke="white" stroke-width="1" x1="63" x2="72" y1="33" y2="33" /><line stroke="white" stroke-width="1" x1="47" x2="50" y1="34" y2="34" /><line stroke="white" stroke-width="1" x1="55" x2="57" y1="34" y2="34" /><line stroke="white" stroke-width="1" x1="62" x2="65" y1="34" y2="34" /><line stroke="white" stroke-width="1" x1="69" x2="72" y1="34" y2="34" /><line stroke="white" stroke-width="1" x1="47" x2="51" y1="35" y2="35" /><line stroke="white" stroke-width="1" x1="54" x2="56" y1="35" y2="35" /><line stroke="white" stroke-width="1" x1="62" x2="64" y1="35" y2="35" /><line stroke="white" stroke-width="1" x1="69" x2="71" y1="35" y2="35" /><line stroke="white" stroke-width="1" x1="47" x2="56" y1="36" y2="36" /><line stroke="white" stroke-width="1" x1="61" x2="64" y1="36" y2="36" /><line stroke="white" stroke-width="1" x1="69" x2="71" y1="36" y2="36" /><line stroke="white" stroke-width="1" x1="47" x2="55" y1="37" y2="37" /><line stroke="white" stroke-width="1" x1="62" x2="64" y1="37" y2="37" /><line stroke="white" stroke-width="1" x1="69" x2="71" y1="37" y2="37" /><line stroke="white" stroke-width="1" x1="48" x2="55" y1="38" y2="38" /><line stroke="white" stroke-width="1" x1="63" x2="65" y1="38" y2="38" /><line stroke="white" stroke-width="1" x1="68" x2="70" y1="38" y2="38" /><line stroke="white" stroke-width="1" x1="48" x2="54" y1="39" y2="39" /><line stroke="white" stroke-width="1" x1="63" x2="70" y1="39" y2="39" /><line stroke="white" stroke-width="1" x1="47" x2="54" y1="40" y2="40" /><line stroke="white" stroke-width="1" x1="63" x2="69" y1="40" y2="40" /><line stroke="white" stroke-width="1" x1="46" x2="56" y1="41" y2="41" /><line stroke="white" stroke-width="1" x1="64" x2="68" y1="41" y2="41" /><line stroke="white" stroke-width="1" x1="46" x2="55" y1="42" y2="42" /><line stroke="white" stroke-width="1" x1="64" x2="68" y1="42" y2="42" /><line stroke="white" stroke-width="1" x1="45" x2="48" y1="43" y2="43" /><line stroke="white" stroke-width="1" x1="55" x2="67" y1="43" y2="43" /><line stroke="white" stroke-width="1" x1="45" x2="47" y1="44" y2="44" /><line stroke="white" stroke-width="1" x1="55" x2="67" y1="44" y2="44" /><line stroke="white" stroke-width="1" x1="44" x2="47" y1="45" y2="45" /><line stroke="white" stroke-width="1" x1="55" x2="66" y1="45" y2="45" /><line stroke="white" stroke-width="1" x1="44" x2="46" y1="46" y2="46" /><line stroke="white" stroke-width="1" x1="53" x2="56" y1="46" y2="46" /><line stroke="white" stroke-width="1" x1="59" x2="62" y1="46" y2="46" /><line stroke="white" stroke-width="1" x1="44" x2="46" y1="47" y2="47" /><line stroke="white" stroke-width="1" x1="50" x2="55" y1="47" y2="47" /><line stroke="white" stroke-width="1" x1="60" x2="62" y1="47" y2="47" /><line stroke="white" stroke-width="1" x1="44" x2="46" y1="48" y2="48" /><line stroke="white" stroke-width="1" x1="50" x2="54" y1="48" y2="48" /><line stroke="white" stroke-width="1" x1="60" x2="62" y1="48" y2="48" /><line stroke="white" stroke-width="1" x1="44" x2="54" y1="49" y2="49" /><line stroke="white" stroke-width="1" x1="60" x2="61" y1="49" y2="49" /><line stroke="white" stroke-width="1" x1="44" x2="54" y1="50" y2="50" /><line stroke="white" stroke-width="1" x1="60" x2="61" y1="50" y2="50" /><line stroke="white" stroke-width="1" x1="44" x2="55" y1="51" y2="51" /><line stroke="white" stroke-width="1" x1="59" x2="61" y1="51" y2="51" /><line stroke="white" stroke-width="1" x1="45" x2="61" y1="52" y2="52" /><line stroke="white" stroke-width="1" x1="45" x2="60" y1="53" y2="53" /><line stroke="white" stroke-width="1" x1="45" x2="49" y1="54" y2="54" /><line stroke="white" stroke-width="1" x1="52" x2="60" y1="54" y2="54" /><line stroke="white" stroke-width="1" x1="46" x2="48" y1="55" y2="55" /><line stroke="white" stroke-width="1" x1="53" x2="59" y1="55" y2="55" /><line stroke="white" stroke-width="1" x1="47" x2="48" y1="56" y2="56" /><line stroke="white" stroke-width="1" x1="53" x2="58" y1="56" y2="56" /><line stroke="white" stroke-width="1" x1="48" x2="58" y1="57" y2="57" /><line stroke="white" stroke-width="1" x1="48" x2="57" y1="58" y2="58" /><line stroke="white" stroke-width="1" x1="48" x2="56" y1="59" y2="59" /><line stroke="white" stroke-width="1" x1="48" x2="56" y1="60" y2="60" /><line stroke="white" stroke-width="1" x1="48" x2="57" y1="61" y2="61" /><line stroke="white" stroke-width="1" x1="49" x2="50" y1="62" y2="62" /><line stroke="white" stroke-width="1" x1="54" x2="58" y1="62" y2="62" /><line stroke="white" stroke-width="1" x1="49" x2="50" y1="63" y2="63" /><line stroke="white" stroke-width="1" x1="55" x2="57" y1="63" y2="63" /><line stroke="white" stroke-width="1" x1="49" x2="51" y1="64" y2="64" /><line stroke="white" stroke-width="1" x1="54" x2="57" y1="64" y2="64" /><line stroke="white" stroke-width="1" x1="62" x2="62" y1="64" y2="64" /><line stroke="white" stroke-width="1" x1="50" x2="56" y1="65" y2="65" /><line stroke="white" stroke-width="1" x1="61" x2="62" y1="65" y2="65" /><line stroke="white" stroke-width="1" x1="50" x2="57" y1="66" y2="66" /><line stroke="white" stroke-width="1" x1="60" x2="63" y1="66" y2="66" /><line stroke="white" stroke-width="1" x1="51" x2="62" y1="67" y2="67" /><line stroke="white" stroke-width="1" x1="52" x2="62" y1="68" y2="68" /><line stroke="white" stroke-width="1" x1="54" x2="62" y1="69" y2="69" /><line stroke="white" stroke-width="1" x1="56" x2="62" y1="70" y2="70" /><line stroke="white" stroke-width="1" x1="57" x2="61" y1="71" y2="71" /><line stroke="white" stroke-width="1" x1="59" x2="61" y1="72" y2="72" /><line stroke="white" stroke-width="1" x1="87" x2="88" y1="9" y2="9" /><line stroke="white" stroke-width="1" x1="87" x2="90" y1="10" y2="10" /><line stroke="white" stroke-width="1" x1="86" x2="92" y1="11" y2="11" /><line stroke="white" stroke-width="1" x1="87" x2="90" y1="12" y2="12" /><line stroke="white" stroke-width="1" x1="76" x2="78" y1="9" y2="9" /><line stroke="white" stroke-width="1" x1="74" x2="78" y1="10" y2="10" /><line stroke="white" stroke-width="1" x1="73" x2="79" y1="11" y2="11" /><line stroke="white" stroke-width="1" x1="73" x2="79" y1="12" y2="12" /><line stroke="white" stroke-width="1" x1="76" x2="79" y1="13" y2="13" /></svg>