<?xml version="1.0" encoding="utf-8" ?>
<svg baseProfile="tiny" height="153" version="1.2" width="153" xmlns="http://www.w3.org/2000/svg" xmlns:ev="http://www.w3.org/2001/xml-events" xmlns:xlink="http://www.w3.org/1999/xlink"><defs /><rect fill="black" height="153" width="153" x="0" y="0" /><line stroke="white" stroke-width="1" x1="61" x2="62" y1="139" y2="139" /><line stroke="white" stroke-width="1" x1="62" x2="63" y1="144" y2="144" /><line stroke="white" stroke-width="1" x1="62" x2="65" y1="136" y2="136" /><line stroke="white" stroke-width="1" x1="63" x2="64" y1="137" y2="137" /><line stroke="white" stroke-width="1" x1="107" x2="108" y1="133" y2="133" /><line stroke="white" stroke-width="1" x1="106" x2="108" y1="134" y2="134" /><line stroke="white" stroke-width="1" x1="95" x2="96" y1="131" y2="131" /><line stroke="white" stroke-width="1" x1="94" x2="97" y1="132" y2="132" /><line stroke="white" stroke-width="1" x1="93" x2="96" y1="133" y2="133" /><line stroke="white" stroke-width="1" x1="91" x2="95" y1="136" y2="136" /><line stroke="white" stroke-width="1" x1="91" x2="95" y1="137" y2="137" /><line stroke="white" stroke-width="1" x1="91" x2="94" y1="138" y2="138" /><line stroke="white" stroke-width="1" x1="91" x2="94" y1="139" y2="139" /><line stroke="white" stroke-width="1" x1="92" x2="93" y1="140" y2="140" /><line stroke="white" stroke-width="1" x1="92" x2="93" y1="142" y2="142" /><line stroke="white" stroke-width="1" x1="48" x2="49" y1="130" y2="130" /><line stroke="white" stroke-width="1" x1="48" x2="50" y1="131" y2="131" /><line stroke="white" stroke-width="1" x1="48" x2="51" y1="132" y2="132" /><line stroke="white" stroke-width="1" x1="49" x2="51" y1="133" y2="133" /><line stroke="white" stroke-width="1" x1="50" x2="51" y1="134" y2="134" /><line stroke="white" stroke-width="1" x1="58" x2="62" y1="129" y2="129" /><line stroke="white" stroke-width="1" x1="59" x2="62" y1="130" y2="130" /><line stroke="white" stroke-width="1" x1="59" x2="63" y1="131" y2="131" /><line stroke="white" stroke-width="1" x1="59" x2="64" y1="132" y2="132" /><line stroke="white" stroke-width="1" x1="105" x2="108" y1="126" y2="126" /><line stroke="white" stroke-width="1" x1="104" x2="107" y1="127" y2="127" /><line stroke="white" stroke-width="1" x1="103" x2="106" y1="128" y2="128" /><line stroke="white" stroke-width="1" x1="101" x2="104" y1="129" y2="129" /><line stroke="white" stroke-width="1" x1="103" x2="105" y1="120" y2="120" /><line stroke="white" stroke-width="1" x1="102" x2="103" y1="121" y2="121" /><line stroke="white" stroke-width="1" x1="55" x2="56" y1="118" y2="118" /><line stroke="white" stroke-width="1" x1="54" x2="57" y1="119" y2="119" /><line stroke="white" stroke-width="1" x1="54" x2="58" y1="123" y2="123" /><line stroke="white" stroke-width="1" x1="55" x2="58" y1="124" y2="124" /><line stroke="white" stroke-width="1" x1="55" x2="57" y1="125" y2="125" /><line stroke="white" stroke-width="1" x1="55" x2="57" y1="126" y2="126" /><line stroke="white" stroke-width="1" x1="56" x2="57" y1="127" y2="127" /><line stroke="white" stroke-width="1" x1="110" x2="111" y1="124" y2="124" /><line stroke="white" stroke-width="1" x1="71" x2="72" y1="118" y2="118" /><line stroke="white" stroke-width="1" x1="70" x2="72" y1="119" y2="119" /><line stroke="white" stroke-width="1" x1="48" x2="49" y1="116" y2="116" /><line stroke="white" stroke-width="1" x1="48" x2="49" y1="117" y2="117" /><line stroke="white" stroke-width="1" x1="48" x2="49" y1="118" y2="118" /><line stroke="white" stroke-width="1" x1="49" x2="50" y1="120" y2="120" /><line stroke="white" stroke-width="1" x1="49" x2="50" y1="121" y2="121" /><line stroke="white" stroke-width="1" x1="49" x2="51" y1="122" y2="122" /><line stroke="white" stroke-width="1" x1="101" x2="102" y1="115" y2="115" /><line stroke="white" stroke-width="1" x1="101" x2="102" y1="117" y2="117" /><line stroke="white" stroke-width="1" x1="103" x2="104" y1="103" y2="103" /><line stroke="white" stroke-width="1" x1="102" x2="105" y1="104" y2="104" /><line stroke="white" stroke-width="1" x1="88" x2="89" y1="103" y2="103" /><line stroke="white" stroke-width="1" x1="88" x2="89" y1="104" y2="104" /><line stroke="white" stroke-width="1" x1="58" x2="59" y1="101" y2="101" /><line stroke="white" stroke-width="1" x1="93" x2="94" y1="94" y2="94" /><line stroke="white" stroke-width="1" x1="92" x2="95" y1="95" y2="95" /><line stroke="white" stroke-width="1" x1="92" x2="95" y1="96" y2="96" /><line stroke="white" stroke-width="1" x1="92" x2="94" y1="97" y2="97" /><line stroke="white" stroke-width="1" x1="69" x2="70" y1="94" y2="94" /><line stroke="white" stroke-width="1" x1="69" x2="70" y1="95" y2="95" /><line stroke="white" stroke-width="1" x1="100" x2="101" y1="91" y2="91" /><line stroke="white" stroke-width="1" x1="93" x2="94" y1="79" y2="79" /><line stroke="white" stroke-width="1" x1="101" x2="102" y1="75" y2="75" /><line stroke="white" stroke-width="1" x1="59" x2="61" y1="62" y2="62" /><line stroke="white" stroke-width="1" x1="90" x2="91" y1="50" y2="50" /><line stroke="white" stroke-width="1" x1="89" x2="92" y1="51" y2="51" /><line stroke="white" stroke-width="1" x1="75" x2="76" y1="48" y2="48" /><line stroke="white" stroke-width="1" x1="57" x2="58" y1="46" y2="46" /><line stroke="white" stroke-width="1" x1="113" x2="114" y1="45" y2="45" /><line stroke="white" stroke-width="1" x1="111" x2="112" y1="47" y2="47" /><line stroke="white" stroke-width="1" x1="107" x2="109" y1="43" y2="43" /><line stroke="white" stroke-width="1" x1="103" x2="104" y1="41" y2="41" /><line stroke="white" stroke-width="1" x1="60" x2="62" y1="38" y2="38" /><line stroke="white" stroke-width="1" x1="83" x2="84" y1="35" y2="35" /><line stroke="white" stroke-width="1" x1="52" x2="53" y1="35" y2="35" /><line stroke="white" stroke-width="1" x1="100" x2="101" y1="30" y2="30" /><line stroke="white" stroke-width="1" x1="96" x2="97" y1="28" y2="28" /></svg>