<?xml version="1.0" encoding="utf-8" ?>
<svg baseProfile="tiny" height="182" version="1.2" width="171" xmlns="http://www.w3.org/2000/svg" xmlns:ev="http://www.w3.org/2001/xml-events" xmlns:xlink="http://www.w3.org/1999/xlink"><defs /><rect fill="black" height="182" width="171" x="0" y="0" /><line stroke="white" stroke-width="1" x1="10" x2="158" y1="78" y2="78" /><line stroke="white" stroke-width="1" x1="10" x2="158" y1="79" y2="79" /><line stroke="white" stroke-width="1" x1="10" x2="106" y1="80" y2="80" /><line stroke="white" stroke-width="1" x1="109" x2="158" y1="80" y2="80" /><line stroke="white" stroke-width="1" x1="11" x2="62" y1="81" y2="81" /><line stroke="white" stroke-width="1" x1="65" x2="104" y1="81" y2="81" /><line stroke="white" stroke-width="1" x1="109" x2="158" y1="81" y2="81" /><line stroke="white" stroke-width="1" x1="56" x2="61" y1="82" y2="82" /><line stroke="white" stroke-width="1" x1="67" x2="103" y1="82" y2="82" /><line stroke="white" stroke-width="1" x1="109" x2="158" y1="82" y2="82" /><line stroke="white" stroke-width="1" x1="11" x2="61" y1="83" y2="83" /><line stroke="white" stroke-width="1" x1="68" x2="102" y1="83" y2="83" /><line stroke="white" stroke-width="1" x1="109" x2="158" y1="83" y2="83" /><line stroke="white" stroke-width="1" x1="11" x2="61" y1="84" y2="84" /><line stroke="white" stroke-width="1" x1="69" x2="101" y1="84" y2="84" /><line stroke="white" stroke-width="1" x1="109" x2="158" y1="84" y2="84" /><line stroke="white" stroke-width="1" x1="11" x2="62" y1="85" y2="85" /><line stroke="white" stroke-width="1" x1="70" x2="100" y1="85" y2="85" /><line stroke="white" stroke-width="1" x1="108" x2="158" y1="85" y2="85" /><line stroke="white" stroke-width="1" x1="11" x2="62" y1="86" y2="86" /><line stroke="white" stroke-width="1" x1="71" x2="99" y1="86" y2="86" /><line stroke="white" stroke-width="1" x1="108" x2="158" y1="86" y2="86" /><line stroke="white" stroke-width="1" x1="10" x2="62" y1="87" y2="87" /><line stroke="white" stroke-width="1" x1="72" x2="98" y1="87" y2="87" /><line stroke="white" stroke-width="1" x1="108" x2="158" y1="87" y2="87" /><line stroke="white" stroke-width="1" x1="10" x2="63" y1="88" y2="88" /><line stroke="white" stroke-width="1" x1="73" x2="97" y1="88" y2="88" /><line stroke="white" stroke-width="1" x1="108" x2="158" y1="88" y2="88" /><line stroke="white" stroke-width="1" x1="11" x2="63" y1="89" y2="89" /><line stroke="white" stroke-width="1" x1="74" x2="96" y1="89" y2="89" /><line stroke="white" stroke-width="1" x1="107" x2="158" y1="89" y2="89" /><line stroke="white" stroke-width="1" x1="11" x2="63" y1="90" y2="90" /><line stroke="white" stroke-width="1" x1="75" x2="95" y1="90" y2="90" /><line stroke="white" stroke-width="1" x1="107" x2="158" y1="90" y2="90" /><line stroke="white" stroke-width="1" x1="11" x2="64" y1="91" y2="91" /><line stroke="white" stroke-width="1" x1="76" x2="94" y1="91" y2="91" /><line stroke="white" stroke-width="1" x1="106" x2="158" y1="91" y2="91" /><line stroke="white" stroke-width="1" x1="28" x2="64" y1="92" y2="92" /><line stroke="white" stroke-width="1" x1="77" x2="92" y1="92" y2="92" /><line stroke="white" stroke-width="1" x1="106" x2="158" y1="92" y2="92" /><line stroke="white" stroke-width="1" x1="10" x2="65" y1="93" y2="93" /><line stroke="white" stroke-width="1" x1="78" x2="91" y1="93" y2="93" /><line stroke="white" stroke-width="1" x1="105" x2="158" y1="93" y2="93" /><line stroke="white" stroke-width="1" x1="10" x2="66" y1="94" y2="94" /><line stroke="white" stroke-width="1" x1="80" x2="90" y1="94" y2="94" /><line stroke="white" stroke-width="1" x1="104" x2="158" y1="94" y2="94" /><line stroke="white" stroke-width="1" x1="10" x2="67" y1="95" y2="95" /><line stroke="white" stroke-width="1" x1="81" x2="89" y1="95" y2="95" /><line stroke="white" stroke-width="1" x1="103" x2="158" y1="95" y2="95" /><line stroke="white" stroke-width="1" x1="10" x2="68" y1="96" y2="96" /><line stroke="white" stroke-width="1" x1="82" x2="88" y1="96" y2="96" /><line stroke="white" stroke-width="1" x1="102" x2="158" y1="96" y2="96" /><line stroke="white" stroke-width="1" x1="10" x2="68" y1="97" y2="97" /><line stroke="white" stroke-width="1" x1="82" x2="88" y1="97" y2="97" /><line stroke="white" stroke-width="1" x1="101" x2="158" y1="97" y2="97" /><line stroke="white" stroke-width="1" x1="11" x2="70" y1="98" y2="98" /><line stroke="white" stroke-width="1" x1="82" x2="88" y1="98" y2="98" /><line stroke="white" stroke-width="1" x1="100" x2="158" y1="98" y2="98" /><line stroke="white" stroke-width="1" x1="10" x2="71" y1="99" y2="99" /><line stroke="white" stroke-width="1" x1="81" x2="88" y1="99" y2="99" /><line stroke="white" stroke-width="1" x1="99" x2="158" y1="99" y2="99" /><line stroke="white" stroke-width="1" x1="10" x2="73" y1="100" y2="100" /><line stroke="white" stroke-width="1" x1="80" x2="90" y1="100" y2="100" /><line stroke="white" stroke-width="1" x1="97" x2="158" y1="100" y2="100" /><line stroke="white" stroke-width="1" x1="10" x2="158" y1="101" y2="101" /><line stroke="white" stroke-width="1" x1="10" x2="158" y1="102" y2="102" /><line stroke="white" stroke-width="1" x1="10" x2="158" y1="103" y2="103" /><line stroke="white" stroke-width="1" x1="10" x2="158" y1="104" y2="104" /><line stroke="white" stroke-width="1" x1="10" x2="158" y1="105" y2="105" /><line stroke="white" stroke-width="1" x1="46" x2="146" y1="74" y2="74" /><line stroke="white" stroke-width="1" x1="53" x2="146" y1="75" y2="75" /></svg>