<?xml version="1.0" encoding="utf-8" ?>
<svg baseProfile="tiny" height="345" version="1.2" width="345" xmlns="http://www.w3.org/2000/svg" xmlns:ev="http://www.w3.org/2001/xml-events" xmlns:xlink="http://www.w3.org/1999/xlink"><defs /><rect fill="black" height="345" width="345" x="0" y="0" /><line stroke="white" stroke-width="1" x1="73" x2="74" y1="258" y2="258" /><line stroke="white" stroke-width="1" x1="70" x2="71" y1="258" y2="258" /><line stroke="white" stroke-width="1" x1="93" x2="96" y1="249" y2="249" /><line stroke="white" stroke-width="1" x1="166" x2="176" y1="231" y2="231" /><line stroke="white" stroke-width="1" x1="38" x2="44" y1="231" y2="231" /><line stroke="white" stroke-width="1" x1="38" x2="176" y1="315" y2="315" /><line stroke="white" stroke-width="1" x1="75" x2="90" y1="39" y2="39" /><line stroke="white" stroke-width="1" x1="71" x2="78" y1="40" y2="40" /><line stroke="white" stroke-width="1" x1="83" x2="92" y1="40" y2="40" /><line stroke="white" stroke-width="1" x1="69" x2="93" y1="41" y2="41" /><line stroke="white" stroke-width="1" x1="97" x2="99" y1="41" y2="41" /><line stroke="white" stroke-width="1" x1="110" x2="114" y1="41" y2="41" /><line stroke="white" stroke-width="1" x1="68" x2="102" y1="42" y2="42" /><line stroke="white" stroke-width="1" x1="108" x2="116" y1="42" y2="42" /><line stroke="white" stroke-width="1" x1="67" x2="103" y1="43" y2="43" /><line stroke="white" stroke-width="1" x1="106" x2="117" y1="43" y2="43" /><line stroke="white" stroke-width="1" x1="126" x2="129" y1="43" y2="43" /><line stroke="white" stroke-width="1" x1="137" x2="142" y1="43" y2="43" /><line stroke="white" stroke-width="1" x1="65" x2="118" y1="44" y2="44" /><line stroke="white" stroke-width="1" x1="123" x2="131" y1="44" y2="44" /><line stroke="white" stroke-width="1" x1="135" x2="144" y1="44" y2="44" /><line stroke="white" stroke-width="1" x1="64" x2="145" y1="45" y2="45" /><line stroke="white" stroke-width="1" x1="62" x2="146" y1="46" y2="46" /><line stroke="white" stroke-width="1" x1="61" x2="146" y1="47" y2="47" /><line stroke="white" stroke-width="1" x1="60" x2="147" y1="48" y2="48" /><line stroke="white" stroke-width="1" x1="59" x2="147" y1="49" y2="49" /><line stroke="white" stroke-width="1" x1="57" x2="147" y1="50" y2="50" /><line stroke="white" stroke-width="1" x1="56" x2="147" y1="51" y2="51" /><line stroke="white" stroke-width="1" x1="55" x2="147" y1="52" y2="52" /><line stroke="white" stroke-width="1" x1="53" x2="147" y1="53" y2="53" /><line stroke="white" stroke-width="1" x1="53" x2="147" y1="54" y2="54" /><line stroke="white" stroke-width="1" x1="52" x2="148" y1="55" y2="55" /><line stroke="white" stroke-width="1" x1="51" x2="148" y1="56" y2="56" /><line stroke="white" stroke-width="1" x1="51" x2="148" y1="57" y2="57" /><line stroke="white" stroke-width="1" x1="51" x2="148" y1="58" y2="58" /><line stroke="white" stroke-width="1" x1="51" x2="147" y1="59" y2="59" /><line stroke="white" stroke-width="1" x1="51" x2="147" y1="60" y2="60" /><line stroke="white" stroke-width="1" x1="51" x2="146" y1="61" y2="61" /><line stroke="white" stroke-width="1" x1="51" x2="146" y1="62" y2="62" /><line stroke="white" stroke-width="1" x1="52" x2="144" y1="63" y2="63" /><line stroke="white" stroke-width="1" x1="53" x2="143" y1="64" y2="64" /><line stroke="white" stroke-width="1" x1="55" x2="142" y1="65" y2="65" /><line stroke="white" stroke-width="1" x1="61" x2="140" y1="66" y2="66" /><line stroke="white" stroke-width="1" x1="63" x2="139" y1="67" y2="67" /><line stroke="white" stroke-width="1" x1="64" x2="138" y1="68" y2="68" /><line stroke="white" stroke-width="1" x1="74" x2="136" y1="69" y2="69" /><line stroke="white" stroke-width="1" x1="76" x2="81" y1="70" y2="70" /><line stroke="white" stroke-width="1" x1="85" x2="96" y1="70" y2="70" /><line stroke="white" stroke-width="1" x1="99" x2="124" y1="70" y2="70" /><line stroke="white" stroke-width="1" x1="129" x2="134" y1="70" y2="70" /><line stroke="white" stroke-width="1" x1="86" x2="94" y1="71" y2="71" /><line stroke="white" stroke-width="1" x1="100" x2="107" y1="71" y2="71" /><line stroke="white" stroke-width="1" x1="111" x2="123" y1="71" y2="71" /><line stroke="white" stroke-width="1" x1="89" x2="92" y1="72" y2="72" /><line stroke="white" stroke-width="1" x1="112" x2="122" y1="72" y2="72" /><line stroke="white" stroke-width="1" x1="114" x2="120" y1="73" y2="73" /></svg>