<?xml version="1.0" encoding="utf-8" ?>
<svg baseProfile="tiny" height="150" version="1.2" width="150" xmlns="http://www.w3.org/2000/svg" xmlns:ev="http://www.w3.org/2001/xml-events" xmlns:xlink="http://www.w3.org/1999/xlink"><defs /><rect fill="black" height="150" width="150" x="0" y="0" /><line stroke="white" stroke-width="1" x1="15" x2="135" y1="22" y2="22" /><line stroke="white" stroke-width="1" x1="15" x2="135" y1="23" y2="23" /><line stroke="white" stroke-width="1" x1="15" x2="135" y1="24" y2="24" /><line stroke="white" stroke-width="1" x1="15" x2="135" y1="25" y2="25" /><line stroke="white" stroke-width="1" x1="15" x2="135" y1="26" y2="26" /><line stroke="white" stroke-width="1" x1="15" x2="135" y1="27" y2="27" /><line stroke="white" stroke-width="1" x1="15" x2="135" y1="28" y2="28" /><line stroke="white" stroke-width="1" x1="15" x2="135" y1="29" y2="29" /><line stroke="white" stroke-width="1" x1="15" x2="135" y1="30" y2="30" /><line stroke="white" stroke-width="1" x1="15" x2="135" y1="31" y2="31" /><line stroke="white" stroke-width="1" x1="15" x2="135" y1="32" y2="32" /><line stroke="white" stroke-width="1" x1="15" x2="135" y1="33" y2="33" /><line stroke="white" stroke-width="1" x1="15" x2="135" y1="34" y2="34" /><line stroke="white" stroke-width="1" x1="15" x2="135" y1="35" y2="35" /><line stroke="white" stroke-width="1" x1="15" x2="135" y1="36" y2="36" /><line stroke="white" stroke-width="1" x1="15" x2="135" y1="37" y2="37" /><line stroke="white" stroke-width="1" x1="15" x2="135" y1="38" y2="38" /><line stroke="white" stroke-width="1" x1="15" x2="135" y1="39" y2="39" /><line stroke="white" stroke-width="1" x1="15" x2="135" y1="40" y2="40" /><line stroke="white" stroke-width="1" x1="15" x2="135" y1="41" y2="41" /><line stroke="white" stroke-width="1" x1="15" x2="135" y1="42" y2="42" /><line stroke="white" stroke-width="1" x1="15" x2="135" y1="43" y2="43" /><line stroke="white" stroke-width="1" x1="15" x2="135" y1="44" y2="44" /><line stroke="white" stroke-width="1" x1="15" x2="135" y1="45" y2="45" /><line stroke="white" stroke-width="1" x1="15" x2="135" y1="46" y2="46" /><line stroke="white" stroke-width="1" x1="15" x2="135" y1="47" y2="47" /><line stroke="white" stroke-width="1" x1="15" x2="135" y1="48" y2="48" /><line stroke="white" stroke-width="1" x1="15" x2="135" y1="49" y2="49" /><line stroke="white" stroke-width="1" x1="15" x2="135" y1="50" y2="50" /><line stroke="white" stroke-width="1" x1="15" x2="135" y1="51" y2="51" /><line stroke="white" stroke-width="1" x1="15" x2="135" y1="52" y2="52" /><line stroke="white" stroke-width="1" x1="15" x2="135" y1="53" y2="53" /><line stroke="white" stroke-width="1" x1="15" x2="135" y1="54" y2="54" /><line stroke="white" stroke-width="1" x1="15" x2="135" y1="55" y2="55" /><line stroke="white" stroke-width="1" x1="15" x2="135" y1="56" y2="56" /><line stroke="white" stroke-width="1" x1="15" x2="135" y1="57" y2="57" /><line stroke="white" stroke-width="1" x1="15" x2="135" y1="58" y2="58" /><line stroke="white" stroke-width="1" x1="15" x2="135" y1="59" y2="59" /><line stroke="white" stroke-width="1" x1="51" x2="135" y1="60" y2="60" /><line stroke="white" stroke-width="1" x1="51" x2="135" y1="61" y2="61" /><line stroke="white" stroke-width="1" x1="51" x2="135" y1="62" y2="62" /><line stroke="white" stroke-width="1" x1="51" x2="135" y1="63" y2="63" /><line stroke="white" stroke-width="1" x1="51" x2="135" y1="64" y2="64" /><line stroke="white" stroke-width="1" x1="51" x2="135" y1="65" y2="65" /><line stroke="white" stroke-width="1" x1="51" x2="135" y1="66" y2="66" /><line stroke="white" stroke-width="1" x1="51" x2="135" y1="67" y2="67" /><line stroke="white" stroke-width="1" x1="51" x2="135" y1="68" y2="68" /><line stroke="white" stroke-width="1" x1="51" x2="135" y1="69" y2="69" /><line stroke="white" stroke-width="1" x1="51" x2="135" y1="70" y2="70" /><line stroke="white" stroke-width="1" x1="51" x2="135" y1="71" y2="71" /><line stroke="white" stroke-width="1" x1="51" x2="135" y1="72" y2="72" /><line stroke="white" stroke-width="1" x1="51" x2="135" y1="73" y2="73" /><line stroke="white" stroke-width="1" x1="51" x2="135" y1="74" y2="74" /><line stroke="white" stroke-width="1" x1="51" x2="135" y1="75" y2="75" /><line stroke="white" stroke-width="1" x1="51" x2="135" y1="76" y2="76" /><line stroke="white" stroke-width="1" x1="51" x2="135" y1="77" y2="77" /><line stroke="white" stroke-width="1" x1="51" x2="94" y1="78" y2="78" /><line stroke="white" stroke-width="1" x1="101" x2="135" y1="78" y2="78" /><line stroke="white" stroke-width="1" x1="51" x2="90" y1="79" y2="79" /><line stroke="white" stroke-width="1" x1="105" x2="135" y1="79" y2="79" /><line stroke="white" stroke-width="1" x1="51" x2="87" y1="80" y2="80" /><line stroke="white" stroke-width="1" x1="108" x2="135" y1="80" y2="80" /><line stroke="white" stroke-width="1" x1="51" x2="85" y1="81" y2="81" /><line stroke="white" stroke-width="1" x1="110" x2="135" y1="81" y2="81" /><line stroke="white" stroke-width="1" x1="51" x2="84" y1="82" y2="82" /><line stroke="white" stroke-width="1" x1="112" x2="135" y1="82" y2="82" /><line stroke="white" stroke-width="1" x1="51" x2="82" y1="83" y2="83" /><line stroke="white" stroke-width="1" x1="113" x2="135" y1="83" y2="83" /><line stroke="white" stroke-width="1" x1="51" x2="81" y1="84" y2="84" /><line stroke="white" stroke-width="1" x1="114" x2="135" y1="84" y2="84" /><line stroke="white" stroke-width="1" x1="51" x2="80" y1="85" y2="85" /><line stroke="white" stroke-width="1" x1="116" x2="135" y1="85" y2="85" /><line stroke="white" stroke-width="1" x1="51" x2="79" y1="86" y2="86" /><line stroke="white" stroke-width="1" x1="116" x2="135" y1="86" y2="86" /><line stroke="white" stroke-width="1" x1="51" x2="78" y1="87" y2="87" /><line stroke="white" stroke-width="1" x1="117" x2="135" y1="87" y2="87" /><line stroke="white" stroke-width="1" x1="51" x2="77" y1="88" y2="88" /><line stroke="white" stroke-width="1" x1="118" x2="135" y1="88" y2="88" /><line stroke="white" stroke-width="1" x1="51" x2="76" y1="89" y2="89" /><line stroke="white" stroke-width="1" x1="119" x2="135" y1="89" y2="89" /><line stroke="white" stroke-width="1" x1="51" x2="76" y1="90" y2="90" /><line stroke="white" stroke-width="1" x1="119" x2="135" y1="90" y2="90" /><line stroke="white" stroke-width="1" x1="51" x2="75" y1="91" y2="91" /><line stroke="white" stroke-width="1" x1="120" x2="135" y1="91" y2="91" /><line stroke="white" stroke-width="1" x1="51" x2="75" y1="92" y2="92" /><line stroke="white" stroke-width="1" x1="120" x2="135" y1="92" y2="92" /><line stroke="white" stroke-width="1" x1="51" x2="74" y1="93" y2="93" /><line stroke="white" stroke-width="1" x1="121" x2="135" y1="93" y2="93" /><line stroke="white" stroke-width="1" x1="51" x2="74" y1="94" y2="94" /><line stroke="white" stroke-width="1" x1="121" x2="135" y1="94" y2="94" /><line stroke="white" stroke-width="1" x1="51" x2="74" y1="95" y2="95" /><line stroke="white" stroke-width="1" x1="122" x2="135" y1="95" y2="95" /><line stroke="white" stroke-width="1" x1="52" x2="73" y1="96" y2="96" /><line stroke="white" stroke-width="1" x1="122" x2="122" y1="96" y2="96" /><line stroke="white" stroke-width="1" x1="135" x2="135" y1="96" y2="96" /></svg>