<?xml version="1.0" encoding="utf-8" ?>
<svg baseProfile="tiny" height="345" version="1.2" width="345" xmlns="http://www.w3.org/2000/svg" xmlns:ev="http://www.w3.org/2001/xml-events" xmlns:xlink="http://www.w3.org/1999/xlink"><defs /><rect fill="black" height="345" width="345" x="0" y="0" /><line stroke="white" stroke-width="1" x1="228" x2="229" y1="328" y2="328" /><line stroke="white" stroke-width="1" x1="266" x2="267" y1="324" y2="324" /><line stroke="white" stroke-width="1" x1="201" x2="202" y1="279" y2="279" /><line stroke="white" stroke-width="1" x1="200" x2="201" y1="281" y2="281" /><line stroke="white" stroke-width="1" x1="199" x2="200" y1="282" y2="282" /><line stroke="white" stroke-width="1" x1="198" x2="200" y1="283" y2="283" /><line stroke="white" stroke-width="1" x1="198" x2="199" y1="284" y2="284" /><line stroke="white" stroke-width="1" x1="197" x2="199" y1="285" y2="285" /><line stroke="white" stroke-width="1" x1="196" x2="198" y1="286" y2="286" /><line stroke="white" stroke-width="1" x1="196" x2="197" y1="287" y2="287" /><line stroke="white" stroke-width="1" x1="195" x2="197" y1="288" y2="288" /><line stroke="white" stroke-width="1" x1="195" x2="196" y1="289" y2="289" /><line stroke="white" stroke-width="1" x1="194" x2="195" y1="291" y2="291" /><line stroke="white" stroke-width="1" x1="237" x2="242" y1="276" y2="276" /><line stroke="white" stroke-width="1" x1="235" x2="244" y1="277" y2="277" /><line stroke="white" stroke-width="1" x1="257" x2="260" y1="277" y2="277" /><line stroke="white" stroke-width="1" x1="223" x2="227" y1="278" y2="278" /><line stroke="white" stroke-width="1" x1="234" x2="245" y1="278" y2="278" /><line stroke="white" stroke-width="1" x1="254" x2="262" y1="278" y2="278" /><line stroke="white" stroke-width="1" x1="219" x2="250" y1="279" y2="279" /><line stroke="white" stroke-width="1" x1="253" x2="264" y1="279" y2="279" /><line stroke="white" stroke-width="1" x1="269" x2="270" y1="279" y2="279" /><line stroke="white" stroke-width="1" x1="217" x2="273" y1="280" y2="280" /><line stroke="white" stroke-width="1" x1="216" x2="282" y1="281" y2="281" /><line stroke="white" stroke-width="1" x1="215" x2="284" y1="282" y2="282" /><line stroke="white" stroke-width="1" x1="215" x2="285" y1="283" y2="283" /><line stroke="white" stroke-width="1" x1="214" x2="286" y1="284" y2="284" /><line stroke="white" stroke-width="1" x1="213" x2="286" y1="285" y2="285" /><line stroke="white" stroke-width="1" x1="213" x2="286" y1="286" y2="286" /><line stroke="white" stroke-width="1" x1="212" x2="287" y1="287" y2="287" /><line stroke="white" stroke-width="1" x1="211" x2="287" y1="288" y2="288" /><line stroke="white" stroke-width="1" x1="211" x2="293" y1="289" y2="289" /><line stroke="white" stroke-width="1" x1="210" x2="294" y1="290" y2="290" /><line stroke="white" stroke-width="1" x1="210" x2="295" y1="291" y2="291" /><line stroke="white" stroke-width="1" x1="209" x2="296" y1="292" y2="292" /><line stroke="white" stroke-width="1" x1="209" x2="297" y1="293" y2="293" /><line stroke="white" stroke-width="1" x1="208" x2="297" y1="294" y2="294" /><line stroke="white" stroke-width="1" x1="207" x2="297" y1="295" y2="295" /><line stroke="white" stroke-width="1" x1="207" x2="297" y1="296" y2="296" /><line stroke="white" stroke-width="1" x1="206" x2="297" y1="297" y2="297" /><line stroke="white" stroke-width="1" x1="206" x2="297" y1="298" y2="298" /><line stroke="white" stroke-width="1" x1="205" x2="296" y1="299" y2="299" /><line stroke="white" stroke-width="1" x1="205" x2="296" y1="300" y2="300" /><line stroke="white" stroke-width="1" x1="205" x2="295" y1="301" y2="301" /><line stroke="white" stroke-width="1" x1="204" x2="294" y1="302" y2="302" /><line stroke="white" stroke-width="1" x1="204" x2="293" y1="303" y2="303" /><line stroke="white" stroke-width="1" x1="204" x2="291" y1="304" y2="304" /><line stroke="white" stroke-width="1" x1="205" x2="290" y1="305" y2="305" /><line stroke="white" stroke-width="1" x1="205" x2="289" y1="306" y2="306" /><line stroke="white" stroke-width="1" x1="206" x2="288" y1="307" y2="307" /><line stroke="white" stroke-width="1" x1="207" x2="287" y1="308" y2="308" /><line stroke="white" stroke-width="1" x1="208" x2="286" y1="309" y2="309" /><line stroke="white" stroke-width="1" x1="209" x2="286" y1="310" y2="310" /><line stroke="white" stroke-width="1" x1="210" x2="285" y1="311" y2="311" /><line stroke="white" stroke-width="1" x1="211" x2="284" y1="312" y2="312" /><line stroke="white" stroke-width="1" x1="212" x2="259" y1="313" y2="313" /><line stroke="white" stroke-width="1" x1="263" x2="283" y1="313" y2="313" /><line stroke="white" stroke-width="1" x1="213" x2="229" y1="314" y2="314" /><line stroke="white" stroke-width="1" x1="238" x2="247" y1="314" y2="314" /><line stroke="white" stroke-width="1" x1="252" x2="257" y1="314" y2="314" /><line stroke="white" stroke-width="1" x1="269" x2="282" y1="314" y2="314" /><line stroke="white" stroke-width="1" x1="214" x2="226" y1="315" y2="315" /><line stroke="white" stroke-width="1" x1="239" x2="246" y1="315" y2="315" /><line stroke="white" stroke-width="1" x1="269" x2="281" y1="315" y2="315" /><line stroke="white" stroke-width="1" x1="215" x2="220" y1="316" y2="316" /><line stroke="white" stroke-width="1" x1="241" x2="244" y1="316" y2="316" /><line stroke="white" stroke-width="1" x1="271" x2="280" y1="316" y2="316" /><line stroke="white" stroke-width="1" x1="272" x2="278" y1="317" y2="317" /><line stroke="white" stroke-width="1" x1="295" x2="296" y1="272" y2="272" /><line stroke="white" stroke-width="1" x1="225" x2="229" y1="264" y2="264" /><line stroke="white" stroke-width="1" x1="218" x2="220" y1="264" y2="264" /><line stroke="white" stroke-width="1" x1="44" x2="45" y1="83" y2="83" /><line stroke="white" stroke-width="1" x1="40" x2="41" y1="49" y2="49" /></svg>