<?xml version="1.0" encoding="utf-8" ?>
<svg baseProfile="tiny" height="91" version="1.2" width="91" xmlns="http://www.w3.org/2000/svg" xmlns:ev="http://www.w3.org/2001/xml-events" xmlns:xlink="http://www.w3.org/1999/xlink"><defs /><rect fill="black" height="91" width="91" x="0" y="0" /><line stroke="white" stroke-width="1" x1="22" x2="27" y1="7" y2="7" /><line stroke="white" stroke-width="1" x1="18" x2="30" y1="8" y2="8" /><line stroke="white" stroke-width="1" x1="17" x2="31" y1="9" y2="9" /><line stroke="white" stroke-width="1" x1="16" x2="32" y1="10" y2="10" /><line stroke="white" stroke-width="1" x1="15" x2="33" y1="11" y2="11" /><line stroke="white" stroke-width="1" x1="14" x2="34" y1="12" y2="12" /><line stroke="white" stroke-width="1" x1="13" x2="35" y1="13" y2="13" /><line stroke="white" stroke-width="1" x1="13" x2="35" y1="14" y2="14" /><line stroke="white" stroke-width="1" x1="12" x2="36" y1="15" y2="15" /><line stroke="white" stroke-width="1" x1="11" x2="36" y1="16" y2="16" /><line stroke="white" stroke-width="1" x1="11" x2="37" y1="17" y2="17" /><line stroke="white" stroke-width="1" x1="10" x2="37" y1="18" y2="18" /><line stroke="white" stroke-width="1" x1="10" x2="38" y1="19" y2="19" /><line stroke="white" stroke-width="1" x1="9" x2="38" y1="20" y2="20" /><line stroke="white" stroke-width="1" x1="9" x2="38" y1="21" y2="21" /><line stroke="white" stroke-width="1" x1="9" x2="38" y1="22" y2="22" /><line stroke="white" stroke-width="1" x1="9" x2="38" y1="23" y2="23" /><line stroke="white" stroke-width="1" x1="9" x2="38" y1="24" y2="24" /><line stroke="white" stroke-width="1" x1="9" x2="38" y1="25" y2="25" /><line stroke="white" stroke-width="1" x1="9" x2="38" y1="26" y2="26" /><line stroke="white" stroke-width="1" x1="8" x2="38" y1="27" y2="27" /><line stroke="white" stroke-width="1" x1="8" x2="38" y1="28" y2="28" /><line stroke="white" stroke-width="1" x1="9" x2="37" y1="29" y2="29" /><line stroke="white" stroke-width="1" x1="9" x2="37" y1="30" y2="30" /><line stroke="white" stroke-width="1" x1="9" x2="37" y1="31" y2="31" /><line stroke="white" stroke-width="1" x1="9" x2="37" y1="32" y2="32" /><line stroke="white" stroke-width="1" x1="10" x2="36" y1="33" y2="33" /><line stroke="white" stroke-width="1" x1="10" x2="36" y1="34" y2="34" /><line stroke="white" stroke-width="1" x1="10" x2="35" y1="35" y2="35" /><line stroke="white" stroke-width="1" x1="11" x2="35" y1="36" y2="36" /><line stroke="white" stroke-width="1" x1="12" x2="34" y1="37" y2="37" /><line stroke="white" stroke-width="1" x1="13" x2="33" y1="38" y2="38" /><line stroke="white" stroke-width="1" x1="14" x2="32" y1="39" y2="39" /><line stroke="white" stroke-width="1" x1="15" x2="31" y1="40" y2="40" /><line stroke="white" stroke-width="1" x1="17" x2="30" y1="41" y2="41" /><line stroke="white" stroke-width="1" x1="19" x2="28" y1="42" y2="42" /></svg>