<?xml version="1.0" encoding="utf-8" ?>
<svg baseProfile="tiny" height="256" version="1.2" width="256" xmlns="http://www.w3.org/2000/svg" xmlns:ev="http://www.w3.org/2001/xml-events" xmlns:xlink="http://www.w3.org/1999/xlink"><defs /><rect fill="black" height="256" width="256" x="0" y="0" /><line stroke="white" stroke-width="2" x1="141" x2="143" y1="226" y2="226" /><line stroke="white" stroke-width="2" x1="143" x2="145" y1="226" y2="226" /><line stroke="white" stroke-width="2" x1="145" x2="147" y1="226" y2="226" /><line stroke="white" stroke-width="2" x1="117" x2="119" y1="226" y2="226" /><line stroke="white" stroke-width="2" x1="130" x2="132" y1="225" y2="225" /><line stroke="white" stroke-width="2" x1="132" x2="134" y1="225" y2="225" /><line stroke="white" stroke-width="2" x1="120" x2="122" y1="225" y2="225" /><line stroke="white" stroke-width="2" x1="124" x2="126" y1="227" y2="227" /><line stroke="white" stroke-width="2" x1="126" x2="128" y1="227" y2="227" /><line stroke="white" stroke-width="2" x1="128" x2="130" y1="227" y2="227" /><line stroke="white" stroke-width="2" x1="130" x2="132" y1="227" y2="227" /><line stroke="white" stroke-width="2" x1="132" x2="134" y1="227" y2="227" /><line stroke="white" stroke-width="2" x1="134" x2="136" y1="227" y2="227" /><line stroke="white" stroke-width="2" x1="136" x2="138" y1="227" y2="227" /><line stroke="white" stroke-width="2" x1="138" x2="140" y1="227" y2="227" /><line stroke="white" stroke-width="2" x1="136" x2="138" y1="224" y2="224" /><line stroke="white" stroke-width="2" x1="138" x2="140" y1="224" y2="224" /><line stroke="white" stroke-width="2" x1="155" x2="157" y1="223" y2="223" /><line stroke="white" stroke-width="2" x1="157" x2="159" y1="223" y2="223" /><line stroke="white" stroke-width="2" x1="159" x2="161" y1="223" y2="223" /><line stroke="white" stroke-width="2" x1="161" x2="163" y1="223" y2="223" /><line stroke="white" stroke-width="2" x1="152" x2="154" y1="223" y2="223" /><line stroke="white" stroke-width="2" x1="148" x2="150" y1="225" y2="225" /><line stroke="white" stroke-width="2" x1="150" x2="152" y1="225" y2="225" /><line stroke="white" stroke-width="2" x1="169" x2="171" y1="222" y2="222" /><line stroke="white" stroke-width="2" x1="173" x2="175" y1="221" y2="221" /><line stroke="white" stroke-width="2" x1="175" x2="177" y1="221" y2="221" /><line stroke="white" stroke-width="2" x1="178" x2="180" y1="220" y2="220" /><line stroke="white" stroke-width="2" x1="181" x2="183" y1="219" y2="219" /><line stroke="white" stroke-width="2" x1="159" x2="161" y1="219" y2="219" /><line stroke="white" stroke-width="2" x1="186" x2="188" y1="218" y2="218" /><line stroke="white" stroke-width="2" x1="163" x2="165" y1="218" y2="218" /><line stroke="white" stroke-width="2" x1="165" x2="167" y1="218" y2="218" /><line stroke="white" stroke-width="2" x1="167" x2="169" y1="218" y2="218" /><line stroke="white" stroke-width="2" x1="150" x2="152" y1="220" y2="220" /><line stroke="white" stroke-width="2" x1="144" x2="146" y1="222" y2="222" /><line stroke="white" stroke-width="2" x1="146" x2="148" y1="222" y2="222" /><line stroke="white" stroke-width="2" x1="171" x2="173" y1="217" y2="217" /><line stroke="white" stroke-width="2" x1="173" x2="175" y1="217" y2="217" /><line stroke="white" stroke-width="2" x1="177" x2="179" y1="216" y2="216" /><line stroke="white" stroke-width="2" x1="95" x2="97" y1="216" y2="216" /><line stroke="white" stroke-width="2" x1="181" x2="183" y1="215" y2="215" /><line stroke="white" stroke-width="2" x1="183" x2="185" y1="215" y2="215" /><line stroke="white" stroke-width="2" x1="199" x2="201" y1="214" y2="214" /><line stroke="white" stroke-width="2" x1="197" x2="199" y1="216" y2="216" /><line stroke="white" stroke-width="2" x1="193" x2="195" y1="218" y2="218" /><line stroke="white" stroke-width="2" x1="159" x2="161" y1="214" y2="214" /><line stroke="white" stroke-width="2" x1="157" x2="159" y1="216" y2="216" /><line stroke="white" stroke-width="2" x1="157" x2="159" y1="218" y2="218" /><line stroke="white" stroke-width="2" x1="153" x2="155" y1="220" y2="220" /><line stroke="white" stroke-width="2" x1="155" x2="157" y1="220" y2="220" /><line stroke="white" stroke-width="2" x1="157" x2="159" y1="220" y2="220" /><line stroke="white" stroke-width="2" x1="95" x2="97" y1="214" y2="214" /><line stroke="white" stroke-width="2" x1="200" x2="202" y1="212" y2="212" /><line stroke="white" stroke-width="2" x1="196" x2="198" y1="212" y2="212" /><line stroke="white" stroke-width="2" x1="185" x2="187" y1="214" y2="214" /><line stroke="white" stroke-width="2" x1="57" x2="59" y1="213" y2="213" /><line stroke="white" stroke-width="2" x1="59" x2="61" y1="213" y2="213" /><line stroke="white" stroke-width="2" x1="61" x2="63" y1="213" y2="213" /><line stroke="white" stroke-width="2" x1="63" x2="65" y1="213" y2="213" /><line stroke="white" stroke-width="2" x1="59" x2="61" y1="215" y2="215" /><line stroke="white" stroke-width="2" x1="101" x2="103" y1="215" y2="215" /><line stroke="white" stroke-width="2" x1="63" x2="65" y1="217" y2="217" /><line stroke="white" stroke-width="2" x1="69" x2="71" y1="217" y2="217" /><line stroke="white" stroke-width="2" x1="69" x2="71" y1="219" y2="219" /><line stroke="white" stroke-width="2" x1="71" x2="73" y1="219" y2="219" /><line stroke="white" stroke-width="2" x1="73" x2="75" y1="219" y2="219" /><line stroke="white" stroke-width="2" x1="75" x2="77" y1="219" y2="219" /><line stroke="white" stroke-width="2" x1="99" x2="101" y1="219" y2="219" /><line stroke="white" stroke-width="2" x1="73" x2="75" y1="221" y2="221" /><line stroke="white" stroke-width="2" x1="75" x2="77" y1="221" y2="221" /><line stroke="white" stroke-width="2" x1="77" x2="79" y1="221" y2="221" /><line stroke="white" stroke-width="2" x1="79" x2="81" y1="221" y2="221" /><line stroke="white" stroke-width="2" x1="81" x2="83" y1="221" y2="221" /><line stroke="white" stroke-width="2" x1="99" x2="101" y1="221" y2="221" /><line stroke="white" stroke-width="2" x1="77" x2="79" y1="223" y2="223" /><line stroke="white" stroke-width="2" x1="79" x2="81" y1="223" y2="223" /><line stroke="white" stroke-width="2" x1="81" x2="83" y1="223" y2="223" /><line stroke="white" stroke-width="2" x1="83" x2="85" y1="223" y2="223" /><line stroke="white" stroke-width="2" x1="85" x2="87" y1="223" y2="223" /><line stroke="white" stroke-width="2" x1="87" x2="89" y1="223" y2="223" /><line stroke="white" stroke-width="2" x1="89" x2="91" y1="223" y2="223" /><line stroke="white" stroke-width="2" x1="101" x2="103" y1="223" y2="223" /><line stroke="white" stroke-width="2" x1="85" x2="87" y1="225" y2="225" /><line stroke="white" stroke-width="2" x1="87" x2="89" y1="225" y2="225" /><line stroke="white" stroke-width="2" x1="89" x2="91" y1="225" y2="225" /><line stroke="white" stroke-width="2" x1="91" x2="93" y1="225" y2="225" /><line stroke="white" stroke-width="2" x1="93" x2="95" y1="225" y2="225" /><line stroke="white" stroke-width="2" x1="95" x2="97" y1="225" y2="225" /><line stroke="white" stroke-width="2" x1="97" x2="99" y1="225" y2="225" /><line stroke="white" stroke-width="2" x1="99" x2="101" y1="225" y2="225" /><line stroke="white" stroke-width="2" x1="101" x2="103" y1="225" y2="225" /><line stroke="white" stroke-width="2" x1="103" x2="105" y1="225" y2="225" /><line stroke="white" stroke-width="2" x1="105" x2="107" y1="225" y2="225" /><line stroke="white" stroke-width="2" x1="113" x2="115" y1="225" y2="225" /><line stroke="white" stroke-width="2" x1="115" x2="117" y1="225" y2="225" /><line stroke="white" stroke-width="2" x1="93" x2="95" y1="227" y2="227" /><line stroke="white" stroke-width="2" x1="95" x2="97" y1="227" y2="227" /><line stroke="white" stroke-width="2" x1="97" x2="99" y1="227" y2="227" /><line stroke="white" stroke-width="2" x1="99" x2="101" y1="227" y2="227" /><line stroke="white" stroke-width="2" x1="101" x2="103" y1="227" y2="227" /><line stroke="white" stroke-width="2" x1="103" x2="105" y1="227" y2="227" /><line stroke="white" stroke-width="2" x1="105" x2="107" y1="227" y2="227" /><line stroke="white" stroke-width="2" x1="107" x2="109" y1="227" y2="227" /><line stroke="white" stroke-width="2" x1="109" x2="111" y1="227" y2="227" /><line stroke="white" stroke-width="2" x1="111" x2="113" y1="227" y2="227" /><line stroke="white" stroke-width="2" x1="113" x2="115" y1="227" y2="227" /><line stroke="white" stroke-width="2" x1="101" x2="103" y1="229" y2="229" /><line stroke="white" stroke-width="2" x1="103" x2="105" y1="229" y2="229" /><line stroke="white" stroke-width="2" x1="32" x2="34" y1="182" y2="182" /><line stroke="white" stroke-width="2" x1="31" x2="33" y1="180" y2="180" /><line stroke="white" stroke-width="2" x1="96" x2="98" y1="173" y2="173" /><line stroke="white" stroke-width="2" x1="28" x2="30" y1="172" y2="172" /><line stroke="white" stroke-width="2" x1="28" x2="30" y1="174" y2="174" /><line stroke="white" stroke-width="2" x1="30" x2="32" y1="178" y2="178" /><line stroke="white" stroke-width="2" x1="230" x2="232" y1="173" y2="173" /><line stroke="white" stroke-width="2" x1="232" x2="234" y1="169" y2="169" /><line stroke="white" stroke-width="2" x1="27" x2="29" y1="169" y2="169" /><line stroke="white" stroke-width="2" x1="78" x2="80" y1="168" y2="168" /><line stroke="white" stroke-width="2" x1="100" x2="102" y1="167" y2="167" /><line stroke="white" stroke-width="2" x1="233" x2="235" y1="166" y2="166" /><line stroke="white" stroke-width="2" x1="26" x2="28" y1="166" y2="166" /><line stroke="white" stroke-width="2" x1="81" x2="83" y1="165" y2="165" /><line stroke="white" stroke-width="2" x1="78" x2="80" y1="164" y2="164" /><line stroke="white" stroke-width="2" x1="234" x2="236" y1="162" y2="162" /><line stroke="white" stroke-width="2" x1="234" x2="236" y1="164" y2="164" /><line stroke="white" stroke-width="2" x1="150" x2="152" y1="160" y2="160" /><line stroke="white" stroke-width="2" x1="57" x2="59" y1="159" y2="159" /><line stroke="white" stroke-width="2" x1="194" x2="196" y1="158" y2="158" /><line stroke="white" stroke-width="2" x1="196" x2="198" y1="158" y2="158" /><line stroke="white" stroke-width="2" x1="73" x2="75" y1="158" y2="158" /><line stroke="white" stroke-width="2" x1="235" x2="237" y1="157" y2="157" /><line stroke="white" stroke-width="2" x1="235" x2="237" y1="159" y2="159" /><line stroke="white" stroke-width="2" x1="187" x2="189" y1="156" y2="156" /><line stroke="white" stroke-width="2" x1="75" x2="77" y1="156" y2="156" /><line stroke="white" stroke-width="2" x1="24" x2="26" y1="156" y2="156" /><line stroke="white" stroke-width="2" x1="24" x2="26" y1="158" y2="158" /><line stroke="white" stroke-width="2" x1="152" x2="154" y1="155" y2="155" /><line stroke="white" stroke-width="2" x1="150" x2="152" y1="157" y2="157" /><line stroke="white" stroke-width="2" x1="149" x2="151" y1="154" y2="154" /><line stroke="white" stroke-width="2" x1="147" x2="149" y1="156" y2="156" /><line stroke="white" stroke-width="2" x1="182" x2="184" y1="153" y2="153" /><line stroke="white" stroke-width="2" x1="236" x2="238" y1="152" y2="152" /><line stroke="white" stroke-width="2" x1="236" x2="238" y1="154" y2="154" /><line stroke="white" stroke-width="2" x1="47" x2="49" y1="152" y2="152" /><line stroke="white" stroke-width="2" x1="45" x2="47" y1="154" y2="154" /><line stroke="white" stroke-width="2" x1="47" x2="49" y1="154" y2="154" /><line stroke="white" stroke-width="2" x1="49" x2="51" y1="154" y2="154" /><line stroke="white" stroke-width="2" x1="45" x2="47" y1="156" y2="156" /><line stroke="white" stroke-width="2" x1="47" x2="49" y1="156" y2="156" /><line stroke="white" stroke-width="2" x1="49" x2="51" y1="156" y2="156" /><line stroke="white" stroke-width="2" x1="47" x2="49" y1="158" y2="158" /><line stroke="white" stroke-width="2" x1="49" x2="51" y1="158" y2="158" /><line stroke="white" stroke-width="2" x1="47" x2="49" y1="160" y2="160" /><line stroke="white" stroke-width="2" x1="49" x2="51" y1="162" y2="162" /><line stroke="white" stroke-width="2" x1="51" x2="53" y1="162" y2="162" /><line stroke="white" stroke-width="2" x1="23" x2="25" y1="152" y2="152" /><line stroke="white" stroke-width="2" x1="23" x2="25" y1="154" y2="154" /><line stroke="white" stroke-width="2" x1="174" x2="176" y1="151" y2="151" /><line stroke="white" stroke-width="2" x1="166" x2="168" y1="151" y2="151" /><line stroke="white" stroke-width="2" x1="166" x2="168" y1="153" y2="153" /><line stroke="white" stroke-width="2" x1="168" x2="170" y1="153" y2="153" /><line stroke="white" stroke-width="2" x1="166" x2="168" y1="155" y2="155" /><line stroke="white" stroke-width="2" x1="168" x2="170" y1="155" y2="155" /><line stroke="white" stroke-width="2" x1="170" x2="172" y1="155" y2="155" /><line stroke="white" stroke-width="2" x1="166" x2="168" y1="157" y2="157" /><line stroke="white" stroke-width="2" x1="168" x2="170" y1="157" y2="157" /><line stroke="white" stroke-width="2" x1="164" x2="166" y1="159" y2="159" /><line stroke="white" stroke-width="2" x1="166" x2="168" y1="159" y2="159" /><line stroke="white" stroke-width="2" x1="106" x2="108" y1="151" y2="151" /><line stroke="white" stroke-width="2" x1="101" x2="103" y1="151" y2="151" /><line stroke="white" stroke-width="2" x1="101" x2="103" y1="153" y2="153" /><line stroke="white" stroke-width="2" x1="103" x2="105" y1="153" y2="153" /><line stroke="white" stroke-width="2" x1="103" x2="105" y1="155" y2="155" /><line stroke="white" stroke-width="2" x1="45" x2="47" y1="151" y2="151" /><line stroke="white" stroke-width="2" x1="169" x2="171" y1="150" y2="150" /><line stroke="white" stroke-width="2" x1="153" x2="155" y1="150" y2="150" /><line stroke="white" stroke-width="2" x1="83" x2="85" y1="150" y2="150" /><line stroke="white" stroke-width="2" x1="79" x2="81" y1="152" y2="152" /><line stroke="white" stroke-width="2" x1="81" x2="83" y1="152" y2="152" /><line stroke="white" stroke-width="2" x1="83" x2="85" y1="152" y2="152" /><line stroke="white" stroke-width="2" x1="85" x2="87" y1="152" y2="152" /><line stroke="white" stroke-width="2" x1="79" x2="81" y1="154" y2="154" /><line stroke="white" stroke-width="2" x1="81" x2="83" y1="154" y2="154" /><line stroke="white" stroke-width="2" x1="83" x2="85" y1="154" y2="154" /><line stroke="white" stroke-width="2" x1="85" x2="87" y1="154" y2="154" /><line stroke="white" stroke-width="2" x1="87" x2="89" y1="154" y2="154" /><line stroke="white" stroke-width="2" x1="81" x2="83" y1="156" y2="156" /><line stroke="white" stroke-width="2" x1="83" x2="85" y1="156" y2="156" /><line stroke="white" stroke-width="2" x1="85" x2="87" y1="156" y2="156" /><line stroke="white" stroke-width="2" x1="87" x2="89" y1="156" y2="156" /><line stroke="white" stroke-width="2" x1="77" x2="79" y1="158" y2="158" /><line stroke="white" stroke-width="2" x1="79" x2="81" y1="158" y2="158" /><line stroke="white" stroke-width="2" x1="81" x2="83" y1="158" y2="158" /><line stroke="white" stroke-width="2" x1="83" x2="85" y1="158" y2="158" /><line stroke="white" stroke-width="2" x1="85" x2="87" y1="158" y2="158" /><line stroke="white" stroke-width="2" x1="87" x2="89" y1="158" y2="158" /><line stroke="white" stroke-width="2" x1="79" x2="81" y1="160" y2="160" /><line stroke="white" stroke-width="2" x1="81" x2="83" y1="160" y2="160" /><line stroke="white" stroke-width="2" x1="83" x2="85" y1="160" y2="160" /><line stroke="white" stroke-width="2" x1="85" x2="87" y1="160" y2="160" /><line stroke="white" stroke-width="2" x1="87" x2="89" y1="160" y2="160" /><line stroke="white" stroke-width="2" x1="89" x2="91" y1="160" y2="160" /><line stroke="white" stroke-width="2" x1="81" x2="83" y1="162" y2="162" /><line stroke="white" stroke-width="2" x1="83" x2="85" y1="162" y2="162" /><line stroke="white" stroke-width="2" x1="85" x2="87" y1="162" y2="162" /><line stroke="white" stroke-width="2" x1="87" x2="89" y1="162" y2="162" /><line stroke="white" stroke-width="2" x1="89" x2="91" y1="162" y2="162" /><line stroke="white" stroke-width="2" x1="89" x2="91" y1="164" y2="164" /><line stroke="white" stroke-width="2" x1="91" x2="93" y1="164" y2="164" /><line stroke="white" stroke-width="2" x1="91" x2="93" y1="166" y2="166" /><line stroke="white" stroke-width="2" x1="93" x2="95" y1="168" y2="168" /><line stroke="white" stroke-width="2" x1="198" x2="200" y1="149" y2="149" /><line stroke="white" stroke-width="2" x1="198" x2="200" y1="153" y2="153" /><line stroke="white" stroke-width="2" x1="145" x2="147" y1="149" y2="149" /><line stroke="white" stroke-width="2" x1="142" x2="144" y1="149" y2="149" /><line stroke="white" stroke-width="2" x1="193" x2="195" y1="147" y2="147" /><line stroke="white" stroke-width="2" x1="193" x2="195" y1="149" y2="149" /><line stroke="white" stroke-width="2" x1="195" x2="197" y1="149" y2="149" /><line stroke="white" stroke-width="2" x1="191" x2="193" y1="151" y2="151" /><line stroke="white" stroke-width="2" x1="193" x2="195" y1="151" y2="151" /><line stroke="white" stroke-width="2" x1="185" x2="187" y1="153" y2="153" /><line stroke="white" stroke-width="2" x1="189" x2="191" y1="153" y2="153" /><line stroke="white" stroke-width="2" x1="191" x2="193" y1="153" y2="153" /><line stroke="white" stroke-width="2" x1="193" x2="195" y1="153" y2="153" /><line stroke="white" stroke-width="2" x1="183" x2="185" y1="155" y2="155" /><line stroke="white" stroke-width="2" x1="181" x2="183" y1="157" y2="157" /><line stroke="white" stroke-width="2" x1="183" x2="185" y1="159" y2="159" /><line stroke="white" stroke-width="2" x1="150" x2="152" y1="147" y2="147" /><line stroke="white" stroke-width="2" x1="216" x2="218" y1="146" y2="146" /><line stroke="white" stroke-width="2" x1="210" x2="212" y1="146" y2="146" /><line stroke="white" stroke-width="2" x1="210" x2="212" y1="148" y2="148" /><line stroke="white" stroke-width="2" x1="210" x2="212" y1="150" y2="150" /><line stroke="white" stroke-width="2" x1="212" x2="214" y1="150" y2="150" /><line stroke="white" stroke-width="2" x1="208" x2="210" y1="152" y2="152" /><line stroke="white" stroke-width="2" x1="210" x2="212" y1="152" y2="152" /><line stroke="white" stroke-width="2" x1="208" x2="210" y1="154" y2="154" /><line stroke="white" stroke-width="2" x1="210" x2="212" y1="154" y2="154" /><line stroke="white" stroke-width="2" x1="208" x2="210" y1="156" y2="156" /><line stroke="white" stroke-width="2" x1="171" x2="173" y1="145" y2="145" /><line stroke="white" stroke-width="2" x1="173" x2="175" y1="147" y2="147" /><line stroke="white" stroke-width="2" x1="173" x2="175" y1="149" y2="149" /><line stroke="white" stroke-width="2" x1="144" x2="146" y1="145" y2="145" /><line stroke="white" stroke-width="2" x1="81" x2="83" y1="147" y2="147" /><line stroke="white" stroke-width="2" x1="83" x2="85" y1="147" y2="147" /><line stroke="white" stroke-width="2" x1="80" x2="82" y1="144" y2="144" /><line stroke="white" stroke-width="2" x1="146" x2="148" y1="143" y2="143" /><line stroke="white" stroke-width="2" x1="143" x2="145" y1="142" y2="142" /><line stroke="white" stroke-width="2" x1="237" x2="239" y1="141" y2="141" /><line stroke="white" stroke-width="2" x1="237" x2="239" y1="143" y2="143" /><line stroke="white" stroke-width="2" x1="237" x2="239" y1="145" y2="145" /><line stroke="white" stroke-width="2" x1="237" x2="239" y1="147" y2="147" /><line stroke="white" stroke-width="2" x1="145" x2="147" y1="141" y2="141" /><line stroke="white" stroke-width="2" x1="147" x2="149" y1="139" y2="139" /><line stroke="white" stroke-width="2" x1="151" x2="153" y1="139" y2="139" /><line stroke="white" stroke-width="2" x1="147" x2="149" y1="141" y2="141" /><line stroke="white" stroke-width="2" x1="149" x2="151" y1="141" y2="141" /><line stroke="white" stroke-width="2" x1="151" x2="153" y1="141" y2="141" /><line stroke="white" stroke-width="2" x1="151" x2="153" y1="143" y2="143" /><line stroke="white" stroke-width="2" x1="153" x2="155" y1="143" y2="143" /><line stroke="white" stroke-width="2" x1="155" x2="157" y1="143" y2="143" /><line stroke="white" stroke-width="2" x1="153" x2="155" y1="145" y2="145" /><line stroke="white" stroke-width="2" x1="155" x2="157" y1="145" y2="145" /><line stroke="white" stroke-width="2" x1="155" x2="157" y1="147" y2="147" /><line stroke="white" stroke-width="2" x1="155" x2="157" y1="151" y2="151" /><line stroke="white" stroke-width="2" x1="143" x2="145" y1="138" y2="138" /><line stroke="white" stroke-width="2" x1="145" x2="147" y1="138" y2="138" /><line stroke="white" stroke-width="2" x1="102" x2="104" y1="134" y2="134" /><line stroke="white" stroke-width="2" x1="96" x2="98" y1="136" y2="136" /><line stroke="white" stroke-width="2" x1="98" x2="100" y1="136" y2="136" /><line stroke="white" stroke-width="2" x1="100" x2="102" y1="136" y2="136" /><line stroke="white" stroke-width="2" x1="106" x2="108" y1="136" y2="136" /><line stroke="white" stroke-width="2" x1="94" x2="96" y1="138" y2="138" /><line stroke="white" stroke-width="2" x1="96" x2="98" y1="138" y2="138" /><line stroke="white" stroke-width="2" x1="98" x2="100" y1="138" y2="138" /><line stroke="white" stroke-width="2" x1="100" x2="102" y1="138" y2="138" /><line stroke="white" stroke-width="2" x1="102" x2="104" y1="138" y2="138" /><line stroke="white" stroke-width="2" x1="104" x2="106" y1="138" y2="138" /><line stroke="white" stroke-width="2" x1="106" x2="108" y1="138" y2="138" /><line stroke="white" stroke-width="2" x1="92" x2="94" y1="140" y2="140" /><line stroke="white" stroke-width="2" x1="94" x2="96" y1="140" y2="140" /><line stroke="white" stroke-width="2" x1="96" x2="98" y1="140" y2="140" /><line stroke="white" stroke-width="2" x1="98" x2="100" y1="140" y2="140" /><line stroke="white" stroke-width="2" x1="100" x2="102" y1="140" y2="140" /><line stroke="white" stroke-width="2" x1="102" x2="104" y1="140" y2="140" /><line stroke="white" stroke-width="2" x1="104" x2="106" y1="140" y2="140" /><line stroke="white" stroke-width="2" x1="106" x2="108" y1="140" y2="140" /><line stroke="white" stroke-width="2" x1="94" x2="96" y1="142" y2="142" /><line stroke="white" stroke-width="2" x1="96" x2="98" y1="142" y2="142" /><line stroke="white" stroke-width="2" x1="98" x2="100" y1="142" y2="142" /><line stroke="white" stroke-width="2" x1="100" x2="102" y1="142" y2="142" /><line stroke="white" stroke-width="2" x1="102" x2="104" y1="142" y2="142" /><line stroke="white" stroke-width="2" x1="104" x2="106" y1="142" y2="142" /><line stroke="white" stroke-width="2" x1="106" x2="108" y1="142" y2="142" /><line stroke="white" stroke-width="2" x1="94" x2="96" y1="144" y2="144" /><line stroke="white" stroke-width="2" x1="96" x2="98" y1="144" y2="144" /><line stroke="white" stroke-width="2" x1="98" x2="100" y1="144" y2="144" /><line stroke="white" stroke-width="2" x1="100" x2="102" y1="144" y2="144" /><line stroke="white" stroke-width="2" x1="102" x2="104" y1="144" y2="144" /><line stroke="white" stroke-width="2" x1="104" x2="106" y1="144" y2="144" /><line stroke="white" stroke-width="2" x1="94" x2="96" y1="146" y2="146" /><line stroke="white" stroke-width="2" x1="96" x2="98" y1="146" y2="146" /><line stroke="white" stroke-width="2" x1="98" x2="100" y1="146" y2="146" /><line stroke="white" stroke-width="2" x1="100" x2="102" y1="146" y2="146" /><line stroke="white" stroke-width="2" x1="102" x2="104" y1="146" y2="146" /><line stroke="white" stroke-width="2" x1="104" x2="106" y1="146" y2="146" /><line stroke="white" stroke-width="2" x1="96" x2="98" y1="148" y2="148" /><line stroke="white" stroke-width="2" x1="98" x2="100" y1="148" y2="148" /><line stroke="white" stroke-width="2" x1="100" x2="102" y1="148" y2="148" /><line stroke="white" stroke-width="2" x1="102" x2="104" y1="148" y2="148" /><line stroke="white" stroke-width="2" x1="96" x2="98" y1="150" y2="150" /><line stroke="white" stroke-width="2" x1="98" x2="100" y1="150" y2="150" /><line stroke="white" stroke-width="2" x1="104" x2="106" y1="150" y2="150" /><line stroke="white" stroke-width="2" x1="96" x2="98" y1="152" y2="152" /><line stroke="white" stroke-width="2" x1="98" x2="100" y1="152" y2="152" /><line stroke="white" stroke-width="2" x1="96" x2="98" y1="154" y2="154" /><line stroke="white" stroke-width="2" x1="98" x2="100" y1="154" y2="154" /><line stroke="white" stroke-width="2" x1="98" x2="100" y1="158" y2="158" /><line stroke="white" stroke-width="2" x1="98" x2="100" y1="160" y2="160" /><line stroke="white" stroke-width="2" x1="31" x2="33" y1="132" y2="132" /><line stroke="white" stroke-width="2" x1="31" x2="33" y1="134" y2="134" /><line stroke="white" stroke-width="2" x1="29" x2="31" y1="136" y2="136" /><line stroke="white" stroke-width="2" x1="31" x2="33" y1="136" y2="136" /><line stroke="white" stroke-width="2" x1="29" x2="31" y1="138" y2="138" /><line stroke="white" stroke-width="2" x1="31" x2="33" y1="138" y2="138" /><line stroke="white" stroke-width="2" x1="29" x2="31" y1="140" y2="140" /><line stroke="white" stroke-width="2" x1="31" x2="33" y1="140" y2="140" /><line stroke="white" stroke-width="2" x1="31" x2="33" y1="142" y2="142" /><line stroke="white" stroke-width="2" x1="237" x2="239" y1="130" y2="130" /><line stroke="white" stroke-width="2" x1="237" x2="239" y1="132" y2="132" /><line stroke="white" stroke-width="2" x1="22" x2="24" y1="127" y2="127" /><line stroke="white" stroke-width="2" x1="22" x2="24" y1="129" y2="129" /><line stroke="white" stroke-width="2" x1="22" x2="24" y1="131" y2="131" /><line stroke="white" stroke-width="2" x1="22" x2="24" y1="133" y2="133" /><line stroke="white" stroke-width="2" x1="22" x2="24" y1="135" y2="135" /><line stroke="white" stroke-width="2" x1="22" x2="24" y1="137" y2="137" /><line stroke="white" stroke-width="2" x1="22" x2="24" y1="139" y2="139" /><line stroke="white" stroke-width="2" x1="22" x2="24" y1="141" y2="141" /><line stroke="white" stroke-width="2" x1="22" x2="24" y1="143" y2="143" /><line stroke="white" stroke-width="2" x1="22" x2="24" y1="145" y2="145" /><line stroke="white" stroke-width="2" x1="22" x2="24" y1="147" y2="147" /><line stroke="white" stroke-width="2" x1="22" x2="24" y1="149" y2="149" /><line stroke="white" stroke-width="2" x1="236" x2="238" y1="122" y2="122" /><line stroke="white" stroke-width="2" x1="23" x2="25" y1="121" y2="121" /><line stroke="white" stroke-width="2" x1="23" x2="25" y1="123" y2="123" /><line stroke="white" stroke-width="2" x1="24" x2="26" y1="115" y2="115" /><line stroke="white" stroke-width="2" x1="24" x2="26" y1="117" y2="117" /><line stroke="white" stroke-width="2" x1="235" x2="237" y1="114" y2="114" /><line stroke="white" stroke-width="2" x1="235" x2="237" y1="116" y2="116" /><line stroke="white" stroke-width="2" x1="234" x2="236" y1="111" y2="111" /><line stroke="white" stroke-width="2" x1="25" x2="27" y1="111" y2="111" /><line stroke="white" stroke-width="2" x1="233" x2="235" y1="107" y2="107" /><line stroke="white" stroke-width="2" x1="232" x2="234" y1="104" y2="104" /><line stroke="white" stroke-width="2" x1="231" x2="233" y1="101" y2="101" /><line stroke="white" stroke-width="2" x1="141" x2="143" y1="98" y2="98" /><line stroke="white" stroke-width="2" x1="141" x2="143" y1="100" y2="100" /><line stroke="white" stroke-width="2" x1="143" x2="145" y1="100" y2="100" /><line stroke="white" stroke-width="2" x1="29" x2="31" y1="99" y2="99" /><line stroke="white" stroke-width="2" x1="27" x2="29" y1="105" y2="105" /><line stroke="white" stroke-width="2" x1="27" x2="29" y1="107" y2="107" /><line stroke="white" stroke-width="2" x1="143" x2="145" y1="96" y2="96" /><line stroke="white" stroke-width="2" x1="186" x2="188" y1="95" y2="95" /><line stroke="white" stroke-width="2" x1="228" x2="230" y1="94" y2="94" /><line stroke="white" stroke-width="2" x1="230" x2="232" y1="98" y2="98" /><line stroke="white" stroke-width="2" x1="227" x2="229" y1="92" y2="92" /><line stroke="white" stroke-width="2" x1="31" x2="33" y1="94" y2="94" /><line stroke="white" stroke-width="2" x1="105" x2="107" y1="91" y2="91" /><line stroke="white" stroke-width="2" x1="226" x2="228" y1="90" y2="90" /><line stroke="white" stroke-width="2" x1="148" x2="150" y1="90" y2="90" /><line stroke="white" stroke-width="2" x1="146" x2="148" y1="92" y2="92" /><line stroke="white" stroke-width="2" x1="148" x2="150" y1="92" y2="92" /><line stroke="white" stroke-width="2" x1="144" x2="146" y1="94" y2="94" /><line stroke="white" stroke-width="2" x1="146" x2="148" y1="94" y2="94" /><line stroke="white" stroke-width="2" x1="148" x2="150" y1="94" y2="94" /><line stroke="white" stroke-width="2" x1="146" x2="148" y1="96" y2="96" /><line stroke="white" stroke-width="2" x1="148" x2="150" y1="96" y2="96" /><line stroke="white" stroke-width="2" x1="146" x2="148" y1="98" y2="98" /><line stroke="white" stroke-width="2" x1="148" x2="150" y1="98" y2="98" /><line stroke="white" stroke-width="2" x1="146" x2="148" y1="100" y2="100" /><line stroke="white" stroke-width="2" x1="148" x2="150" y1="100" y2="100" /><line stroke="white" stroke-width="2" x1="150" x2="152" y1="100" y2="100" /><line stroke="white" stroke-width="2" x1="152" x2="154" y1="100" y2="100" /><line stroke="white" stroke-width="2" x1="146" x2="148" y1="102" y2="102" /><line stroke="white" stroke-width="2" x1="148" x2="150" y1="102" y2="102" /><line stroke="white" stroke-width="2" x1="150" x2="152" y1="102" y2="102" /><line stroke="white" stroke-width="2" x1="146" x2="148" y1="104" y2="104" /><line stroke="white" stroke-width="2" x1="148" x2="150" y1="104" y2="104" /><line stroke="white" stroke-width="2" x1="150" x2="152" y1="104" y2="104" /><line stroke="white" stroke-width="2" x1="152" x2="154" y1="104" y2="104" /><line stroke="white" stroke-width="2" x1="83" x2="85" y1="90" y2="90" /><line stroke="white" stroke-width="2" x1="81" x2="83" y1="92" y2="92" /><line stroke="white" stroke-width="2" x1="83" x2="85" y1="92" y2="92" /><line stroke="white" stroke-width="2" x1="33" x2="35" y1="90" y2="90" /><line stroke="white" stroke-width="2" x1="103" x2="105" y1="89" y2="89" /><line stroke="white" stroke-width="2" x1="225" x2="227" y1="88" y2="88" /><line stroke="white" stroke-width="2" x1="61" x2="63" y1="88" y2="88" /><line stroke="white" stroke-width="2" x1="224" x2="226" y1="86" y2="86" /><line stroke="white" stroke-width="2" x1="100" x2="102" y1="86" y2="86" /><line stroke="white" stroke-width="2" x1="91" x2="93" y1="85" y2="85" /><line stroke="white" stroke-width="2" x1="89" x2="91" y1="87" y2="87" /><line stroke="white" stroke-width="2" x1="91" x2="93" y1="87" y2="87" /><line stroke="white" stroke-width="2" x1="89" x2="91" y1="89" y2="89" /><line stroke="white" stroke-width="2" x1="97" x2="99" y1="89" y2="89" /><line stroke="white" stroke-width="2" x1="89" x2="91" y1="91" y2="91" /><line stroke="white" stroke-width="2" x1="97" x2="99" y1="91" y2="91" /><line stroke="white" stroke-width="2" x1="87" x2="89" y1="93" y2="93" /><line stroke="white" stroke-width="2" x1="89" x2="91" y1="93" y2="93" /><line stroke="white" stroke-width="2" x1="91" x2="93" y1="93" y2="93" /><line stroke="white" stroke-width="2" x1="93" x2="95" y1="93" y2="93" /><line stroke="white" stroke-width="2" x1="95" x2="97" y1="93" y2="93" /><line stroke="white" stroke-width="2" x1="85" x2="87" y1="95" y2="95" /><line stroke="white" stroke-width="2" x1="87" x2="89" y1="95" y2="95" /><line stroke="white" stroke-width="2" x1="89" x2="91" y1="95" y2="95" /><line stroke="white" stroke-width="2" x1="91" x2="93" y1="95" y2="95" /><line stroke="white" stroke-width="2" x1="93" x2="95" y1="95" y2="95" /><line stroke="white" stroke-width="2" x1="95" x2="97" y1="95" y2="95" /><line stroke="white" stroke-width="2" x1="97" x2="99" y1="95" y2="95" /><line stroke="white" stroke-width="2" x1="99" x2="101" y1="95" y2="95" /><line stroke="white" stroke-width="2" x1="81" x2="83" y1="97" y2="97" /><line stroke="white" stroke-width="2" x1="85" x2="87" y1="97" y2="97" /><line stroke="white" stroke-width="2" x1="87" x2="89" y1="97" y2="97" /><line stroke="white" stroke-width="2" x1="89" x2="91" y1="97" y2="97" /><line stroke="white" stroke-width="2" x1="91" x2="93" y1="97" y2="97" /><line stroke="white" stroke-width="2" x1="93" x2="95" y1="97" y2="97" /><line stroke="white" stroke-width="2" x1="95" x2="97" y1="97" y2="97" /><line stroke="white" stroke-width="2" x1="97" x2="99" y1="97" y2="97" /><line stroke="white" stroke-width="2" x1="99" x2="101" y1="97" y2="97" /><line stroke="white" stroke-width="2" x1="81" x2="83" y1="99" y2="99" /><line stroke="white" stroke-width="2" x1="83" x2="85" y1="99" y2="99" /><line stroke="white" stroke-width="2" x1="85" x2="87" y1="99" y2="99" /><line stroke="white" stroke-width="2" x1="87" x2="89" y1="99" y2="99" /><line stroke="white" stroke-width="2" x1="89" x2="91" y1="99" y2="99" /><line stroke="white" stroke-width="2" x1="91" x2="93" y1="99" y2="99" /><line stroke="white" stroke-width="2" x1="93" x2="95" y1="99" y2="99" /><line stroke="white" stroke-width="2" x1="95" x2="97" y1="99" y2="99" /><line stroke="white" stroke-width="2" x1="97" x2="99" y1="99" y2="99" /><line stroke="white" stroke-width="2" x1="99" x2="101" y1="99" y2="99" /><line stroke="white" stroke-width="2" x1="101" x2="103" y1="99" y2="99" /><line stroke="white" stroke-width="2" x1="83" x2="85" y1="101" y2="101" /><line stroke="white" stroke-width="2" x1="85" x2="87" y1="101" y2="101" /><line stroke="white" stroke-width="2" x1="87" x2="89" y1="101" y2="101" /><line stroke="white" stroke-width="2" x1="89" x2="91" y1="101" y2="101" /><line stroke="white" stroke-width="2" x1="91" x2="93" y1="101" y2="101" /><line stroke="white" stroke-width="2" x1="93" x2="95" y1="101" y2="101" /><line stroke="white" stroke-width="2" x1="95" x2="97" y1="101" y2="101" /><line stroke="white" stroke-width="2" x1="97" x2="99" y1="101" y2="101" /><line stroke="white" stroke-width="2" x1="99" x2="101" y1="101" y2="101" /><line stroke="white" stroke-width="2" x1="101" x2="103" y1="101" y2="101" /><line stroke="white" stroke-width="2" x1="83" x2="85" y1="103" y2="103" /><line stroke="white" stroke-width="2" x1="85" x2="87" y1="103" y2="103" /><line stroke="white" stroke-width="2" x1="87" x2="89" y1="103" y2="103" /><line stroke="white" stroke-width="2" x1="89" x2="91" y1="103" y2="103" /><line stroke="white" stroke-width="2" x1="91" x2="93" y1="103" y2="103" /><line stroke="white" stroke-width="2" x1="93" x2="95" y1="103" y2="103" /><line stroke="white" stroke-width="2" x1="95" x2="97" y1="103" y2="103" /><line stroke="white" stroke-width="2" x1="97" x2="99" y1="103" y2="103" /><line stroke="white" stroke-width="2" x1="99" x2="101" y1="103" y2="103" /><line stroke="white" stroke-width="2" x1="101" x2="103" y1="103" y2="103" /><line stroke="white" stroke-width="2" x1="103" x2="105" y1="103" y2="103" /><line stroke="white" stroke-width="2" x1="83" x2="85" y1="105" y2="105" /><line stroke="white" stroke-width="2" x1="85" x2="87" y1="105" y2="105" /><line stroke="white" stroke-width="2" x1="87" x2="89" y1="105" y2="105" /><line stroke="white" stroke-width="2" x1="89" x2="91" y1="105" y2="105" /><line stroke="white" stroke-width="2" x1="91" x2="93" y1="105" y2="105" /><line stroke="white" stroke-width="2" x1="93" x2="95" y1="105" y2="105" /><line stroke="white" stroke-width="2" x1="95" x2="97" y1="105" y2="105" /><line stroke="white" stroke-width="2" x1="97" x2="99" y1="105" y2="105" /><line stroke="white" stroke-width="2" x1="99" x2="101" y1="105" y2="105" /><line stroke="white" stroke-width="2" x1="101" x2="103" y1="105" y2="105" /><line stroke="white" stroke-width="2" x1="103" x2="105" y1="105" y2="105" /><line stroke="white" stroke-width="2" x1="83" x2="85" y1="107" y2="107" /><line stroke="white" stroke-width="2" x1="85" x2="87" y1="107" y2="107" /><line stroke="white" stroke-width="2" x1="87" x2="89" y1="107" y2="107" /><line stroke="white" stroke-width="2" x1="89" x2="91" y1="107" y2="107" /><line stroke="white" stroke-width="2" x1="91" x2="93" y1="107" y2="107" /><line stroke="white" stroke-width="2" x1="93" x2="95" y1="107" y2="107" /><line stroke="white" stroke-width="2" x1="95" x2="97" y1="107" y2="107" /><line stroke="white" stroke-width="2" x1="97" x2="99" y1="107" y2="107" /><line stroke="white" stroke-width="2" x1="99" x2="101" y1="107" y2="107" /><line stroke="white" stroke-width="2" x1="101" x2="103" y1="107" y2="107" /><line stroke="white" stroke-width="2" x1="103" x2="105" y1="107" y2="107" /><line stroke="white" stroke-width="2" x1="83" x2="85" y1="109" y2="109" /><line stroke="white" stroke-width="2" x1="85" x2="87" y1="109" y2="109" /><line stroke="white" stroke-width="2" x1="87" x2="89" y1="109" y2="109" /><line stroke="white" stroke-width="2" x1="89" x2="91" y1="109" y2="109" /><line stroke="white" stroke-width="2" x1="91" x2="93" y1="109" y2="109" /><line stroke="white" stroke-width="2" x1="93" x2="95" y1="109" y2="109" /><line stroke="white" stroke-width="2" x1="95" x2="97" y1="109" y2="109" /><line stroke="white" stroke-width="2" x1="97" x2="99" y1="109" y2="109" /><line stroke="white" stroke-width="2" x1="99" x2="101" y1="109" y2="109" /><line stroke="white" stroke-width="2" x1="87" x2="89" y1="111" y2="111" /><line stroke="white" stroke-width="2" x1="89" x2="91" y1="111" y2="111" /><line stroke="white" stroke-width="2" x1="91" x2="93" y1="111" y2="111" /><line stroke="white" stroke-width="2" x1="93" x2="95" y1="111" y2="111" /><line stroke="white" stroke-width="2" x1="95" x2="97" y1="111" y2="111" /><line stroke="white" stroke-width="2" x1="97" x2="99" y1="111" y2="111" /><line stroke="white" stroke-width="2" x1="99" x2="101" y1="111" y2="111" /><line stroke="white" stroke-width="2" x1="89" x2="91" y1="113" y2="113" /><line stroke="white" stroke-width="2" x1="91" x2="93" y1="113" y2="113" /><line stroke="white" stroke-width="2" x1="93" x2="95" y1="113" y2="113" /><line stroke="white" stroke-width="2" x1="95" x2="97" y1="113" y2="113" /><line stroke="white" stroke-width="2" x1="97" x2="99" y1="113" y2="113" /><line stroke="white" stroke-width="2" x1="99" x2="101" y1="113" y2="113" /><line stroke="white" stroke-width="2" x1="81" x2="83" y1="115" y2="115" /><line stroke="white" stroke-width="2" x1="83" x2="85" y1="115" y2="115" /><line stroke="white" stroke-width="2" x1="87" x2="89" y1="115" y2="115" /><line stroke="white" stroke-width="2" x1="89" x2="91" y1="115" y2="115" /><line stroke="white" stroke-width="2" x1="91" x2="93" y1="115" y2="115" /><line stroke="white" stroke-width="2" x1="93" x2="95" y1="115" y2="115" /><line stroke="white" stroke-width="2" x1="95" x2="97" y1="115" y2="115" /><line stroke="white" stroke-width="2" x1="97" x2="99" y1="115" y2="115" /><line stroke="white" stroke-width="2" x1="99" x2="101" y1="115" y2="115" /><line stroke="white" stroke-width="2" x1="101" x2="103" y1="115" y2="115" /><line stroke="white" stroke-width="2" x1="83" x2="85" y1="117" y2="117" /><line stroke="white" stroke-width="2" x1="85" x2="87" y1="117" y2="117" /><line stroke="white" stroke-width="2" x1="87" x2="89" y1="117" y2="117" /><line stroke="white" stroke-width="2" x1="89" x2="91" y1="117" y2="117" /><line stroke="white" stroke-width="2" x1="91" x2="93" y1="117" y2="117" /><line stroke="white" stroke-width="2" x1="93" x2="95" y1="117" y2="117" /><line stroke="white" stroke-width="2" x1="95" x2="97" y1="117" y2="117" /><line stroke="white" stroke-width="2" x1="97" x2="99" y1="117" y2="117" /><line stroke="white" stroke-width="2" x1="99" x2="101" y1="117" y2="117" /><line stroke="white" stroke-width="2" x1="89" x2="91" y1="119" y2="119" /><line stroke="white" stroke-width="2" x1="91" x2="93" y1="119" y2="119" /><line stroke="white" stroke-width="2" x1="93" x2="95" y1="119" y2="119" /><line stroke="white" stroke-width="2" x1="36" x2="38" y1="84" y2="84" /><line stroke="white" stroke-width="2" x1="34" x2="36" y1="88" y2="88" /><line stroke="white" stroke-width="2" x1="221" x2="223" y1="81" y2="81" /><line stroke="white" stroke-width="2" x1="50" x2="52" y1="76" y2="76" /><line stroke="white" stroke-width="2" x1="212" x2="214" y1="70" y2="70" /><line stroke="white" stroke-width="2" x1="214" x2="216" y1="72" y2="72" /><line stroke="white" stroke-width="2" x1="216" x2="218" y1="74" y2="74" /><line stroke="white" stroke-width="2" x1="218" x2="220" y1="76" y2="76" /><line stroke="white" stroke-width="2" x1="65" x2="67" y1="52" y2="52" /><line stroke="white" stroke-width="2" x1="67" x2="69" y1="52" y2="52" /><line stroke="white" stroke-width="2" x1="63" x2="65" y1="54" y2="54" /><line stroke="white" stroke-width="2" x1="59" x2="61" y1="56" y2="56" /><line stroke="white" stroke-width="2" x1="57" x2="59" y1="58" y2="58" /><line stroke="white" stroke-width="2" x1="55" x2="57" y1="60" y2="60" /><line stroke="white" stroke-width="2" x1="53" x2="55" y1="62" y2="62" /><line stroke="white" stroke-width="2" x1="51" x2="53" y1="64" y2="64" /><line stroke="white" stroke-width="2" x1="49" x2="51" y1="66" y2="66" /><line stroke="white" stroke-width="2" x1="47" x2="49" y1="68" y2="68" /><line stroke="white" stroke-width="2" x1="43" x2="45" y1="74" y2="74" /><line stroke="white" stroke-width="2" x1="41" x2="43" y1="76" y2="76" /><line stroke="white" stroke-width="2" x1="37" x2="39" y1="82" y2="82" /><line stroke="white" stroke-width="2" x1="166" x2="168" y1="39" y2="39" /><line stroke="white" stroke-width="2" x1="168" x2="170" y1="39" y2="39" /><line stroke="white" stroke-width="2" x1="170" x2="172" y1="39" y2="39" /><line stroke="white" stroke-width="2" x1="174" x2="176" y1="41" y2="41" /><line stroke="white" stroke-width="2" x1="176" x2="178" y1="41" y2="41" /><line stroke="white" stroke-width="2" x1="180" x2="182" y1="43" y2="43" /><line stroke="white" stroke-width="2" x1="184" x2="186" y1="45" y2="45" /><line stroke="white" stroke-width="2" x1="188" x2="190" y1="47" y2="47" /><line stroke="white" stroke-width="2" x1="190" x2="192" y1="49" y2="49" /><line stroke="white" stroke-width="2" x1="194" x2="196" y1="51" y2="51" /><line stroke="white" stroke-width="2" x1="196" x2="198" y1="53" y2="53" /><line stroke="white" stroke-width="2" x1="198" x2="200" y1="55" y2="55" /><line stroke="white" stroke-width="2" x1="200" x2="202" y1="57" y2="57" /><line stroke="white" stroke-width="2" x1="202" x2="204" y1="59" y2="59" /><line stroke="white" stroke-width="2" x1="204" x2="206" y1="61" y2="61" /><line stroke="white" stroke-width="2" x1="206" x2="208" y1="63" y2="63" /><line stroke="white" stroke-width="2" x1="208" x2="210" y1="65" y2="65" /><line stroke="white" stroke-width="2" x1="210" x2="212" y1="67" y2="67" /><line stroke="white" stroke-width="2" x1="162" x2="164" y1="38" y2="38" /><line stroke="white" stroke-width="2" x1="126" x2="128" y1="37" y2="37" /><line stroke="white" stroke-width="2" x1="133" x2="135" y1="31" y2="31" /><line stroke="white" stroke-width="2" x1="121" x2="123" y1="33" y2="33" /><line stroke="white" stroke-width="2" x1="123" x2="125" y1="33" y2="33" /><line stroke="white" stroke-width="2" x1="125" x2="127" y1="33" y2="33" /><line stroke="white" stroke-width="2" x1="133" x2="135" y1="33" y2="33" /></svg>