<?xml version="1.0" encoding="utf-8" ?>
<svg baseProfile="tiny" height="256" version="1.2" width="256" xmlns="http://www.w3.org/2000/svg" xmlns:ev="http://www.w3.org/2001/xml-events" xmlns:xlink="http://www.w3.org/1999/xlink"><defs /><rect fill="black" height="256" width="256" x="0" y="0" /><line stroke="white" stroke-width="2" x1="238" x2="240" y1="223" y2="223" /><line stroke="white" stroke-width="2" x1="240" x2="242" y1="223" y2="223" /><line stroke="white" stroke-width="2" x1="242" x2="244" y1="223" y2="223" /><line stroke="white" stroke-width="2" x1="244" x2="246" y1="223" y2="223" /><line stroke="white" stroke-width="2" x1="246" x2="248" y1="223" y2="223" /><line stroke="white" stroke-width="2" x1="234" x2="236" y1="225" y2="225" /><line stroke="white" stroke-width="2" x1="236" x2="238" y1="225" y2="225" /><line stroke="white" stroke-width="2" x1="238" x2="240" y1="225" y2="225" /><line stroke="white" stroke-width="2" x1="240" x2="242" y1="225" y2="225" /><line stroke="white" stroke-width="2" x1="242" x2="244" y1="225" y2="225" /><line stroke="white" stroke-width="2" x1="244" x2="246" y1="225" y2="225" /><line stroke="white" stroke-width="2" x1="246" x2="248" y1="225" y2="225" /><line stroke="white" stroke-width="2" x1="248" x2="250" y1="225" y2="225" /><line stroke="white" stroke-width="2" x1="232" x2="234" y1="227" y2="227" /><line stroke="white" stroke-width="2" x1="234" x2="236" y1="227" y2="227" /><line stroke="white" stroke-width="2" x1="236" x2="238" y1="227" y2="227" /><line stroke="white" stroke-width="2" x1="238" x2="240" y1="227" y2="227" /><line stroke="white" stroke-width="2" x1="240" x2="242" y1="227" y2="227" /><line stroke="white" stroke-width="2" x1="242" x2="244" y1="227" y2="227" /><line stroke="white" stroke-width="2" x1="244" x2="246" y1="227" y2="227" /><line stroke="white" stroke-width="2" x1="246" x2="248" y1="227" y2="227" /><line stroke="white" stroke-width="2" x1="248" x2="250" y1="227" y2="227" /><line stroke="white" stroke-width="2" x1="250" x2="252" y1="227" y2="227" /><line stroke="white" stroke-width="2" x1="230" x2="232" y1="229" y2="229" /><line stroke="white" stroke-width="2" x1="232" x2="234" y1="229" y2="229" /><line stroke="white" stroke-width="2" x1="234" x2="236" y1="229" y2="229" /><line stroke="white" stroke-width="2" x1="236" x2="238" y1="229" y2="229" /><line stroke="white" stroke-width="2" x1="238" x2="240" y1="229" y2="229" /><line stroke="white" stroke-width="2" x1="240" x2="242" y1="229" y2="229" /><line stroke="white" stroke-width="2" x1="242" x2="244" y1="229" y2="229" /><line stroke="white" stroke-width="2" x1="244" x2="246" y1="229" y2="229" /><line stroke="white" stroke-width="2" x1="246" x2="248" y1="229" y2="229" /><line stroke="white" stroke-width="2" x1="248" x2="250" y1="229" y2="229" /><line stroke="white" stroke-width="2" x1="250" x2="252" y1="229" y2="229" /><line stroke="white" stroke-width="2" x1="252" x2="254" y1="229" y2="229" /><line stroke="white" stroke-width="2" x1="230" x2="232" y1="231" y2="231" /><line stroke="white" stroke-width="2" x1="232" x2="234" y1="231" y2="231" /><line stroke="white" stroke-width="2" x1="234" x2="236" y1="231" y2="231" /><line stroke="white" stroke-width="2" x1="236" x2="238" y1="231" y2="231" /><line stroke="white" stroke-width="2" x1="238" x2="240" y1="231" y2="231" /><line stroke="white" stroke-width="2" x1="240" x2="242" y1="231" y2="231" /><line stroke="white" stroke-width="2" x1="242" x2="244" y1="231" y2="231" /><line stroke="white" stroke-width="2" x1="244" x2="246" y1="231" y2="231" /><line stroke="white" stroke-width="2" x1="246" x2="248" y1="231" y2="231" /><line stroke="white" stroke-width="2" x1="248" x2="250" y1="231" y2="231" /><line stroke="white" stroke-width="2" x1="250" x2="252" y1="231" y2="231" /><line stroke="white" stroke-width="2" x1="252" x2="254" y1="231" y2="231" /><line stroke="white" stroke-width="2" x1="254" x2="256" y1="231" y2="231" /><line stroke="white" stroke-width="2" x1="232" x2="234" y1="233" y2="233" /><line stroke="white" stroke-width="2" x1="234" x2="236" y1="233" y2="233" /><line stroke="white" stroke-width="2" x1="236" x2="238" y1="233" y2="233" /><line stroke="white" stroke-width="2" x1="238" x2="240" y1="233" y2="233" /><line stroke="white" stroke-width="2" x1="240" x2="242" y1="233" y2="233" /><line stroke="white" stroke-width="2" x1="242" x2="244" y1="233" y2="233" /><line stroke="white" stroke-width="2" x1="244" x2="246" y1="233" y2="233" /><line stroke="white" stroke-width="2" x1="246" x2="248" y1="233" y2="233" /><line stroke="white" stroke-width="2" x1="248" x2="250" y1="233" y2="233" /><line stroke="white" stroke-width="2" x1="250" x2="252" y1="233" y2="233" /><line stroke="white" stroke-width="2" x1="252" x2="254" y1="233" y2="233" /><line stroke="white" stroke-width="2" x1="254" x2="256" y1="233" y2="233" /><line stroke="white" stroke-width="2" x1="232" x2="234" y1="235" y2="235" /><line stroke="white" stroke-width="2" x1="234" x2="236" y1="235" y2="235" /><line stroke="white" stroke-width="2" x1="236" x2="238" y1="235" y2="235" /><line stroke="white" stroke-width="2" x1="238" x2="240" y1="235" y2="235" /><line stroke="white" stroke-width="2" x1="240" x2="242" y1="235" y2="235" /><line stroke="white" stroke-width="2" x1="242" x2="244" y1="235" y2="235" /><line stroke="white" stroke-width="2" x1="244" x2="246" y1="235" y2="235" /><line stroke="white" stroke-width="2" x1="246" x2="248" y1="235" y2="235" /><line stroke="white" stroke-width="2" x1="248" x2="250" y1="235" y2="235" /><line stroke="white" stroke-width="2" x1="250" x2="252" y1="235" y2="235" /><line stroke="white" stroke-width="2" x1="252" x2="254" y1="235" y2="235" /><line stroke="white" stroke-width="2" x1="254" x2="256" y1="235" y2="235" /><line stroke="white" stroke-width="2" x1="232" x2="234" y1="237" y2="237" /><line stroke="white" stroke-width="2" x1="234" x2="236" y1="237" y2="237" /><line stroke="white" stroke-width="2" x1="236" x2="238" y1="237" y2="237" /><line stroke="white" stroke-width="2" x1="238" x2="240" y1="237" y2="237" /><line stroke="white" stroke-width="2" x1="240" x2="242" y1="237" y2="237" /><line stroke="white" stroke-width="2" x1="242" x2="244" y1="237" y2="237" /><line stroke="white" stroke-width="2" x1="244" x2="246" y1="237" y2="237" /><line stroke="white" stroke-width="2" x1="246" x2="248" y1="237" y2="237" /><line stroke="white" stroke-width="2" x1="248" x2="250" y1="237" y2="237" /><line stroke="white" stroke-width="2" x1="250" x2="252" y1="237" y2="237" /><line stroke="white" stroke-width="2" x1="252" x2="254" y1="237" y2="237" /><line stroke="white" stroke-width="2" x1="254" x2="256" y1="237" y2="237" /><line stroke="white" stroke-width="2" x1="232" x2="234" y1="239" y2="239" /><line stroke="white" stroke-width="2" x1="234" x2="236" y1="239" y2="239" /><line stroke="white" stroke-width="2" x1="236" x2="238" y1="239" y2="239" /><line stroke="white" stroke-width="2" x1="238" x2="240" y1="239" y2="239" /><line stroke="white" stroke-width="2" x1="240" x2="242" y1="239" y2="239" /><line stroke="white" stroke-width="2" x1="242" x2="244" y1="239" y2="239" /><line stroke="white" stroke-width="2" x1="244" x2="246" y1="239" y2="239" /><line stroke="white" stroke-width="2" x1="246" x2="248" y1="239" y2="239" /><line stroke="white" stroke-width="2" x1="248" x2="250" y1="239" y2="239" /><line stroke="white" stroke-width="2" x1="250" x2="252" y1="239" y2="239" /><line stroke="white" stroke-width="2" x1="252" x2="254" y1="239" y2="239" /><line stroke="white" stroke-width="2" x1="254" x2="256" y1="239" y2="239" /><line stroke="white" stroke-width="2" x1="232" x2="234" y1="241" y2="241" /><line stroke="white" stroke-width="2" x1="234" x2="236" y1="241" y2="241" /><line stroke="white" stroke-width="2" x1="236" x2="238" y1="241" y2="241" /><line stroke="white" stroke-width="2" x1="238" x2="240" y1="241" y2="241" /><line stroke="white" stroke-width="2" x1="240" x2="242" y1="241" y2="241" /><line stroke="white" stroke-width="2" x1="242" x2="244" y1="241" y2="241" /><line stroke="white" stroke-width="2" x1="244" x2="246" y1="241" y2="241" /><line stroke="white" stroke-width="2" x1="246" x2="248" y1="241" y2="241" /><line stroke="white" stroke-width="2" x1="248" x2="250" y1="241" y2="241" /><line stroke="white" stroke-width="2" x1="250" x2="252" y1="241" y2="241" /><line stroke="white" stroke-width="2" x1="252" x2="254" y1="241" y2="241" /><line stroke="white" stroke-width="2" x1="254" x2="256" y1="241" y2="241" /><line stroke="white" stroke-width="2" x1="232" x2="234" y1="243" y2="243" /><line stroke="white" stroke-width="2" x1="234" x2="236" y1="243" y2="243" /><line stroke="white" stroke-width="2" x1="236" x2="238" y1="243" y2="243" /><line stroke="white" stroke-width="2" x1="238" x2="240" y1="243" y2="243" /><line stroke="white" stroke-width="2" x1="240" x2="242" y1="243" y2="243" /><line stroke="white" stroke-width="2" x1="242" x2="244" y1="243" y2="243" /><line stroke="white" stroke-width="2" x1="244" x2="246" y1="243" y2="243" /><line stroke="white" stroke-width="2" x1="246" x2="248" y1="243" y2="243" /><line stroke="white" stroke-width="2" x1="248" x2="250" y1="243" y2="243" /><line stroke="white" stroke-width="2" x1="250" x2="252" y1="243" y2="243" /><line stroke="white" stroke-width="2" x1="252" x2="254" y1="243" y2="243" /><line stroke="white" stroke-width="2" x1="254" x2="256" y1="243" y2="243" /><line stroke="white" stroke-width="2" x1="232" x2="234" y1="245" y2="245" /><line stroke="white" stroke-width="2" x1="234" x2="236" y1="245" y2="245" /><line stroke="white" stroke-width="2" x1="236" x2="238" y1="245" y2="245" /><line stroke="white" stroke-width="2" x1="238" x2="240" y1="245" y2="245" /><line stroke="white" stroke-width="2" x1="240" x2="242" y1="245" y2="245" /><line stroke="white" stroke-width="2" x1="242" x2="244" y1="245" y2="245" /><line stroke="white" stroke-width="2" x1="244" x2="246" y1="245" y2="245" /><line stroke="white" stroke-width="2" x1="246" x2="248" y1="245" y2="245" /><line stroke="white" stroke-width="2" x1="248" x2="250" y1="245" y2="245" /><line stroke="white" stroke-width="2" x1="250" x2="252" y1="245" y2="245" /><line stroke="white" stroke-width="2" x1="252" x2="254" y1="245" y2="245" /><line stroke="white" stroke-width="2" x1="254" x2="256" y1="245" y2="245" /><line stroke="white" stroke-width="2" x1="236" x2="238" y1="247" y2="247" /><line stroke="white" stroke-width="2" x1="238" x2="240" y1="247" y2="247" /><line stroke="white" stroke-width="2" x1="240" x2="242" y1="247" y2="247" /><line stroke="white" stroke-width="2" x1="242" x2="244" y1="247" y2="247" /><line stroke="white" stroke-width="2" x1="244" x2="246" y1="247" y2="247" /><line stroke="white" stroke-width="2" x1="246" x2="248" y1="247" y2="247" /><line stroke="white" stroke-width="2" x1="248" x2="250" y1="247" y2="247" /><line stroke="white" stroke-width="2" x1="250" x2="252" y1="247" y2="247" /><line stroke="white" stroke-width="2" x1="252" x2="254" y1="247" y2="247" /><line stroke="white" stroke-width="2" x1="254" x2="256" y1="247" y2="247" /><line stroke="white" stroke-width="2" x1="240" x2="242" y1="249" y2="249" /><line stroke="white" stroke-width="2" x1="242" x2="244" y1="249" y2="249" /><line stroke="white" stroke-width="2" x1="244" x2="246" y1="249" y2="249" /><line stroke="white" stroke-width="2" x1="246" x2="248" y1="249" y2="249" /><line stroke="white" stroke-width="2" x1="248" x2="250" y1="249" y2="249" /><line stroke="white" stroke-width="2" x1="250" x2="252" y1="249" y2="249" /><line stroke="white" stroke-width="2" x1="252" x2="254" y1="249" y2="249" /><line stroke="white" stroke-width="2" x1="254" x2="256" y1="249" y2="249" /><line stroke="white" stroke-width="2" x1="248" x2="250" y1="251" y2="251" /><line stroke="white" stroke-width="2" x1="250" x2="252" y1="251" y2="251" /><line stroke="white" stroke-width="2" x1="252" x2="254" y1="251" y2="251" /><line stroke="white" stroke-width="2" x1="254" x2="256" y1="251" y2="251" /><line stroke="white" stroke-width="2" x1="203" x2="205" y1="213" y2="213" /><line stroke="white" stroke-width="2" x1="205" x2="207" y1="213" y2="213" /><line stroke="white" stroke-width="2" x1="203" x2="205" y1="215" y2="215" /><line stroke="white" stroke-width="2" x1="205" x2="207" y1="215" y2="215" /><line stroke="white" stroke-width="2" x1="207" x2="209" y1="215" y2="215" /><line stroke="white" stroke-width="2" x1="209" x2="211" y1="215" y2="215" /><line stroke="white" stroke-width="2" x1="211" x2="213" y1="215" y2="215" /><line stroke="white" stroke-width="2" x1="213" x2="215" y1="215" y2="215" /><line stroke="white" stroke-width="2" x1="215" x2="217" y1="215" y2="215" /><line stroke="white" stroke-width="2" x1="205" x2="207" y1="217" y2="217" /><line stroke="white" stroke-width="2" x1="207" x2="209" y1="217" y2="217" /><line stroke="white" stroke-width="2" x1="209" x2="211" y1="217" y2="217" /><line stroke="white" stroke-width="2" x1="147" x2="149" y1="185" y2="185" /><line stroke="white" stroke-width="2" x1="149" x2="151" y1="185" y2="185" /><line stroke="white" stroke-width="2" x1="164" x2="166" y1="180" y2="180" /><line stroke="white" stroke-width="2" x1="166" x2="168" y1="180" y2="180" /><line stroke="white" stroke-width="2" x1="189" x2="191" y1="177" y2="177" /><line stroke="white" stroke-width="2" x1="189" x2="191" y1="179" y2="179" /><line stroke="white" stroke-width="2" x1="191" x2="193" y1="179" y2="179" /><line stroke="white" stroke-width="2" x1="187" x2="189" y1="181" y2="181" /><line stroke="white" stroke-width="2" x1="189" x2="191" y1="181" y2="181" /><line stroke="white" stroke-width="2" x1="191" x2="193" y1="181" y2="181" /><line stroke="white" stroke-width="2" x1="187" x2="189" y1="183" y2="183" /><line stroke="white" stroke-width="2" x1="189" x2="191" y1="183" y2="183" /><line stroke="white" stroke-width="2" x1="191" x2="193" y1="183" y2="183" /><line stroke="white" stroke-width="2" x1="187" x2="189" y1="185" y2="185" /><line stroke="white" stroke-width="2" x1="189" x2="191" y1="185" y2="185" /><line stroke="white" stroke-width="2" x1="183" x2="185" y1="187" y2="187" /><line stroke="white" stroke-width="2" x1="185" x2="187" y1="187" y2="187" /><line stroke="white" stroke-width="2" x1="187" x2="189" y1="187" y2="187" /><line stroke="white" stroke-width="2" x1="189" x2="191" y1="187" y2="187" /><line stroke="white" stroke-width="2" x1="159" x2="161" y1="189" y2="189" /><line stroke="white" stroke-width="2" x1="161" x2="163" y1="189" y2="189" /><line stroke="white" stroke-width="2" x1="163" x2="165" y1="189" y2="189" /><line stroke="white" stroke-width="2" x1="165" x2="167" y1="189" y2="189" /><line stroke="white" stroke-width="2" x1="181" x2="183" y1="189" y2="189" /><line stroke="white" stroke-width="2" x1="183" x2="185" y1="189" y2="189" /><line stroke="white" stroke-width="2" x1="185" x2="187" y1="189" y2="189" /><line stroke="white" stroke-width="2" x1="187" x2="189" y1="189" y2="189" /><line stroke="white" stroke-width="2" x1="165" x2="167" y1="191" y2="191" /><line stroke="white" stroke-width="2" x1="167" x2="169" y1="191" y2="191" /><line stroke="white" stroke-width="2" x1="169" x2="171" y1="191" y2="191" /><line stroke="white" stroke-width="2" x1="171" x2="173" y1="191" y2="191" /><line stroke="white" stroke-width="2" x1="173" x2="175" y1="191" y2="191" /><line stroke="white" stroke-width="2" x1="175" x2="177" y1="191" y2="191" /><line stroke="white" stroke-width="2" x1="177" x2="179" y1="191" y2="191" /><line stroke="white" stroke-width="2" x1="179" x2="181" y1="191" y2="191" /><line stroke="white" stroke-width="2" x1="181" x2="183" y1="191" y2="191" /><line stroke="white" stroke-width="2" x1="183" x2="185" y1="191" y2="191" /><line stroke="white" stroke-width="2" x1="185" x2="187" y1="191" y2="191" /><line stroke="white" stroke-width="2" x1="169" x2="171" y1="193" y2="193" /><line stroke="white" stroke-width="2" x1="171" x2="173" y1="193" y2="193" /><line stroke="white" stroke-width="2" x1="173" x2="175" y1="193" y2="193" /><line stroke="white" stroke-width="2" x1="175" x2="177" y1="193" y2="193" /><line stroke="white" stroke-width="2" x1="177" x2="179" y1="193" y2="193" /><line stroke="white" stroke-width="2" x1="179" x2="181" y1="193" y2="193" /><line stroke="white" stroke-width="2" x1="110" x2="112" y1="177" y2="177" /><line stroke="white" stroke-width="2" x1="108" x2="110" y1="179" y2="179" /><line stroke="white" stroke-width="2" x1="106" x2="108" y1="181" y2="181" /><line stroke="white" stroke-width="2" x1="104" x2="106" y1="183" y2="183" /><line stroke="white" stroke-width="2" x1="106" x2="108" y1="183" y2="183" /><line stroke="white" stroke-width="2" x1="94" x2="96" y1="185" y2="185" /><line stroke="white" stroke-width="2" x1="96" x2="98" y1="185" y2="185" /><line stroke="white" stroke-width="2" x1="98" x2="100" y1="185" y2="185" /><line stroke="white" stroke-width="2" x1="100" x2="102" y1="185" y2="185" /><line stroke="white" stroke-width="2" x1="102" x2="104" y1="185" y2="185" /><line stroke="white" stroke-width="2" x1="96" x2="98" y1="187" y2="187" /><line stroke="white" stroke-width="2" x1="98" x2="100" y1="187" y2="187" /><line stroke="white" stroke-width="2" x1="170" x2="172" y1="178" y2="178" /><line stroke="white" stroke-width="2" x1="174" x2="176" y1="178" y2="178" /><line stroke="white" stroke-width="2" x1="176" x2="178" y1="178" y2="178" /><line stroke="white" stroke-width="2" x1="178" x2="180" y1="178" y2="178" /><line stroke="white" stroke-width="2" x1="170" x2="172" y1="180" y2="180" /><line stroke="white" stroke-width="2" x1="172" x2="174" y1="180" y2="180" /><line stroke="white" stroke-width="2" x1="178" x2="180" y1="180" y2="180" /><line stroke="white" stroke-width="2" x1="170" x2="172" y1="182" y2="182" /><line stroke="white" stroke-width="2" x1="176" x2="178" y1="182" y2="182" /><line stroke="white" stroke-width="2" x1="172" x2="174" y1="184" y2="184" /><line stroke="white" stroke-width="2" x1="166" x2="168" y1="173" y2="173" /><line stroke="white" stroke-width="2" x1="136" x2="138" y1="173" y2="173" /><line stroke="white" stroke-width="2" x1="194" x2="196" y1="172" y2="172" /><line stroke="white" stroke-width="2" x1="194" x2="196" y1="174" y2="174" /><line stroke="white" stroke-width="2" x1="194" x2="196" y1="176" y2="176" /><line stroke="white" stroke-width="2" x1="113" x2="115" y1="164" y2="164" /><line stroke="white" stroke-width="2" x1="113" x2="115" y1="166" y2="166" /><line stroke="white" stroke-width="2" x1="115" x2="117" y1="166" y2="166" /><line stroke="white" stroke-width="2" x1="111" x2="113" y1="168" y2="168" /><line stroke="white" stroke-width="2" x1="113" x2="115" y1="168" y2="168" /><line stroke="white" stroke-width="2" x1="115" x2="117" y1="168" y2="168" /><line stroke="white" stroke-width="2" x1="111" x2="113" y1="170" y2="170" /><line stroke="white" stroke-width="2" x1="113" x2="115" y1="170" y2="170" /><line stroke="white" stroke-width="2" x1="113" x2="115" y1="172" y2="172" /><line stroke="white" stroke-width="2" x1="111" x2="113" y1="174" y2="174" /><line stroke="white" stroke-width="2" x1="113" x2="115" y1="174" y2="174" /><line stroke="white" stroke-width="2" x1="40" x2="42" y1="164" y2="164" /><line stroke="white" stroke-width="2" x1="34" x2="36" y1="163" y2="163" /><line stroke="white" stroke-width="2" x1="36" x2="38" y1="163" y2="163" /><line stroke="white" stroke-width="2" x1="22" x2="24" y1="165" y2="165" /><line stroke="white" stroke-width="2" x1="26" x2="28" y1="165" y2="165" /><line stroke="white" stroke-width="2" x1="28" x2="30" y1="165" y2="165" /><line stroke="white" stroke-width="2" x1="30" x2="32" y1="165" y2="165" /><line stroke="white" stroke-width="2" x1="32" x2="34" y1="165" y2="165" /><line stroke="white" stroke-width="2" x1="34" x2="36" y1="165" y2="165" /><line stroke="white" stroke-width="2" x1="36" x2="38" y1="165" y2="165" /><line stroke="white" stroke-width="2" x1="38" x2="40" y1="165" y2="165" /><line stroke="white" stroke-width="2" x1="24" x2="26" y1="167" y2="167" /><line stroke="white" stroke-width="2" x1="26" x2="28" y1="167" y2="167" /><line stroke="white" stroke-width="2" x1="28" x2="30" y1="167" y2="167" /><line stroke="white" stroke-width="2" x1="30" x2="32" y1="167" y2="167" /><line stroke="white" stroke-width="2" x1="32" x2="34" y1="167" y2="167" /><line stroke="white" stroke-width="2" x1="34" x2="36" y1="167" y2="167" /><line stroke="white" stroke-width="2" x1="36" x2="38" y1="167" y2="167" /><line stroke="white" stroke-width="2" x1="38" x2="40" y1="167" y2="167" /><line stroke="white" stroke-width="2" x1="40" x2="42" y1="167" y2="167" /><line stroke="white" stroke-width="2" x1="26" x2="28" y1="169" y2="169" /><line stroke="white" stroke-width="2" x1="28" x2="30" y1="169" y2="169" /><line stroke="white" stroke-width="2" x1="30" x2="32" y1="169" y2="169" /><line stroke="white" stroke-width="2" x1="32" x2="34" y1="169" y2="169" /><line stroke="white" stroke-width="2" x1="34" x2="36" y1="169" y2="169" /><line stroke="white" stroke-width="2" x1="36" x2="38" y1="169" y2="169" /><line stroke="white" stroke-width="2" x1="38" x2="40" y1="169" y2="169" /><line stroke="white" stroke-width="2" x1="40" x2="42" y1="169" y2="169" /><line stroke="white" stroke-width="2" x1="42" x2="44" y1="169" y2="169" /><line stroke="white" stroke-width="2" x1="28" x2="30" y1="171" y2="171" /><line stroke="white" stroke-width="2" x1="30" x2="32" y1="171" y2="171" /><line stroke="white" stroke-width="2" x1="32" x2="34" y1="171" y2="171" /><line stroke="white" stroke-width="2" x1="34" x2="36" y1="171" y2="171" /><line stroke="white" stroke-width="2" x1="36" x2="38" y1="171" y2="171" /><line stroke="white" stroke-width="2" x1="38" x2="40" y1="171" y2="171" /><line stroke="white" stroke-width="2" x1="40" x2="42" y1="171" y2="171" /><line stroke="white" stroke-width="2" x1="42" x2="44" y1="171" y2="171" /><line stroke="white" stroke-width="2" x1="44" x2="46" y1="171" y2="171" /><line stroke="white" stroke-width="2" x1="28" x2="30" y1="173" y2="173" /><line stroke="white" stroke-width="2" x1="30" x2="32" y1="173" y2="173" /><line stroke="white" stroke-width="2" x1="32" x2="34" y1="173" y2="173" /><line stroke="white" stroke-width="2" x1="34" x2="36" y1="173" y2="173" /><line stroke="white" stroke-width="2" x1="36" x2="38" y1="173" y2="173" /><line stroke="white" stroke-width="2" x1="38" x2="40" y1="173" y2="173" /><line stroke="white" stroke-width="2" x1="40" x2="42" y1="173" y2="173" /><line stroke="white" stroke-width="2" x1="42" x2="44" y1="173" y2="173" /><line stroke="white" stroke-width="2" x1="44" x2="46" y1="173" y2="173" /><line stroke="white" stroke-width="2" x1="30" x2="32" y1="175" y2="175" /><line stroke="white" stroke-width="2" x1="32" x2="34" y1="175" y2="175" /><line stroke="white" stroke-width="2" x1="34" x2="36" y1="175" y2="175" /><line stroke="white" stroke-width="2" x1="36" x2="38" y1="175" y2="175" /><line stroke="white" stroke-width="2" x1="38" x2="40" y1="175" y2="175" /><line stroke="white" stroke-width="2" x1="40" x2="42" y1="175" y2="175" /><line stroke="white" stroke-width="2" x1="42" x2="44" y1="175" y2="175" /><line stroke="white" stroke-width="2" x1="44" x2="46" y1="175" y2="175" /><line stroke="white" stroke-width="2" x1="30" x2="32" y1="177" y2="177" /><line stroke="white" stroke-width="2" x1="32" x2="34" y1="177" y2="177" /><line stroke="white" stroke-width="2" x1="34" x2="36" y1="177" y2="177" /><line stroke="white" stroke-width="2" x1="36" x2="38" y1="177" y2="177" /><line stroke="white" stroke-width="2" x1="38" x2="40" y1="177" y2="177" /><line stroke="white" stroke-width="2" x1="40" x2="42" y1="177" y2="177" /><line stroke="white" stroke-width="2" x1="42" x2="44" y1="177" y2="177" /><line stroke="white" stroke-width="2" x1="30" x2="32" y1="179" y2="179" /><line stroke="white" stroke-width="2" x1="32" x2="34" y1="179" y2="179" /><line stroke="white" stroke-width="2" x1="34" x2="36" y1="179" y2="179" /><line stroke="white" stroke-width="2" x1="36" x2="38" y1="179" y2="179" /><line stroke="white" stroke-width="2" x1="38" x2="40" y1="179" y2="179" /><line stroke="white" stroke-width="2" x1="40" x2="42" y1="179" y2="179" /><line stroke="white" stroke-width="2" x1="42" x2="44" y1="179" y2="179" /><line stroke="white" stroke-width="2" x1="30" x2="32" y1="181" y2="181" /><line stroke="white" stroke-width="2" x1="32" x2="34" y1="181" y2="181" /><line stroke="white" stroke-width="2" x1="34" x2="36" y1="181" y2="181" /><line stroke="white" stroke-width="2" x1="36" x2="38" y1="181" y2="181" /><line stroke="white" stroke-width="2" x1="38" x2="40" y1="181" y2="181" /><line stroke="white" stroke-width="2" x1="40" x2="42" y1="181" y2="181" /><line stroke="white" stroke-width="2" x1="42" x2="44" y1="181" y2="181" /><line stroke="white" stroke-width="2" x1="30" x2="32" y1="183" y2="183" /><line stroke="white" stroke-width="2" x1="32" x2="34" y1="183" y2="183" /><line stroke="white" stroke-width="2" x1="34" x2="36" y1="183" y2="183" /><line stroke="white" stroke-width="2" x1="36" x2="38" y1="183" y2="183" /><line stroke="white" stroke-width="2" x1="38" x2="40" y1="183" y2="183" /><line stroke="white" stroke-width="2" x1="40" x2="42" y1="183" y2="183" /><line stroke="white" stroke-width="2" x1="42" x2="44" y1="183" y2="183" /><line stroke="white" stroke-width="2" x1="30" x2="32" y1="185" y2="185" /><line stroke="white" stroke-width="2" x1="32" x2="34" y1="185" y2="185" /><line stroke="white" stroke-width="2" x1="34" x2="36" y1="185" y2="185" /><line stroke="white" stroke-width="2" x1="36" x2="38" y1="185" y2="185" /><line stroke="white" stroke-width="2" x1="38" x2="40" y1="185" y2="185" /><line stroke="white" stroke-width="2" x1="40" x2="42" y1="185" y2="185" /><line stroke="white" stroke-width="2" x1="42" x2="44" y1="185" y2="185" /><line stroke="white" stroke-width="2" x1="18" x2="20" y1="163" y2="163" /><line stroke="white" stroke-width="2" x1="67" x2="69" y1="152" y2="152" /><line stroke="white" stroke-width="2" x1="69" x2="71" y1="152" y2="152" /><line stroke="white" stroke-width="2" x1="61" x2="63" y1="154" y2="154" /><line stroke="white" stroke-width="2" x1="63" x2="65" y1="154" y2="154" /><line stroke="white" stroke-width="2" x1="65" x2="67" y1="154" y2="154" /><line stroke="white" stroke-width="2" x1="67" x2="69" y1="154" y2="154" /><line stroke="white" stroke-width="2" x1="69" x2="71" y1="154" y2="154" /><line stroke="white" stroke-width="2" x1="61" x2="63" y1="156" y2="156" /><line stroke="white" stroke-width="2" x1="63" x2="65" y1="156" y2="156" /><line stroke="white" stroke-width="2" x1="65" x2="67" y1="156" y2="156" /><line stroke="white" stroke-width="2" x1="67" x2="69" y1="156" y2="156" /><line stroke="white" stroke-width="2" x1="63" x2="65" y1="158" y2="158" /><line stroke="white" stroke-width="2" x1="65" x2="67" y1="158" y2="158" /><line stroke="white" stroke-width="2" x1="67" x2="69" y1="158" y2="158" /><line stroke="white" stroke-width="2" x1="65" x2="67" y1="160" y2="160" /><line stroke="white" stroke-width="2" x1="67" x2="69" y1="160" y2="160" /><line stroke="white" stroke-width="2" x1="65" x2="67" y1="162" y2="162" /><line stroke="white" stroke-width="2" x1="67" x2="69" y1="162" y2="162" /><line stroke="white" stroke-width="2" x1="69" x2="71" y1="162" y2="162" /><line stroke="white" stroke-width="2" x1="71" x2="73" y1="164" y2="164" /><line stroke="white" stroke-width="2" x1="73" x2="75" y1="164" y2="164" /><line stroke="white" stroke-width="2" x1="75" x2="77" y1="164" y2="164" /><line stroke="white" stroke-width="2" x1="77" x2="79" y1="164" y2="164" /><line stroke="white" stroke-width="2" x1="75" x2="77" y1="166" y2="166" /><line stroke="white" stroke-width="2" x1="77" x2="79" y1="166" y2="166" /><line stroke="white" stroke-width="2" x1="77" x2="79" y1="168" y2="168" /><line stroke="white" stroke-width="2" x1="250" x2="252" y1="151" y2="151" /><line stroke="white" stroke-width="2" x1="246" x2="248" y1="153" y2="153" /><line stroke="white" stroke-width="2" x1="248" x2="250" y1="153" y2="153" /><line stroke="white" stroke-width="2" x1="250" x2="252" y1="153" y2="153" /><line stroke="white" stroke-width="2" x1="252" x2="254" y1="153" y2="153" /><line stroke="white" stroke-width="2" x1="246" x2="248" y1="155" y2="155" /><line stroke="white" stroke-width="2" x1="248" x2="250" y1="155" y2="155" /><line stroke="white" stroke-width="2" x1="250" x2="252" y1="155" y2="155" /><line stroke="white" stroke-width="2" x1="252" x2="254" y1="155" y2="155" /><line stroke="white" stroke-width="2" x1="254" x2="256" y1="155" y2="155" /><line stroke="white" stroke-width="2" x1="246" x2="248" y1="157" y2="157" /><line stroke="white" stroke-width="2" x1="248" x2="250" y1="157" y2="157" /><line stroke="white" stroke-width="2" x1="250" x2="252" y1="157" y2="157" /><line stroke="white" stroke-width="2" x1="252" x2="254" y1="157" y2="157" /><line stroke="white" stroke-width="2" x1="254" x2="256" y1="157" y2="157" /><line stroke="white" stroke-width="2" x1="246" x2="248" y1="159" y2="159" /><line stroke="white" stroke-width="2" x1="248" x2="250" y1="159" y2="159" /><line stroke="white" stroke-width="2" x1="250" x2="252" y1="159" y2="159" /><line stroke="white" stroke-width="2" x1="252" x2="254" y1="159" y2="159" /><line stroke="white" stroke-width="2" x1="254" x2="256" y1="159" y2="159" /><line stroke="white" stroke-width="2" x1="250" x2="252" y1="161" y2="161" /><line stroke="white" stroke-width="2" x1="252" x2="254" y1="161" y2="161" /><line stroke="white" stroke-width="2" x1="254" x2="256" y1="161" y2="161" /><line stroke="white" stroke-width="2" x1="252" x2="254" y1="163" y2="163" /><line stroke="white" stroke-width="2" x1="254" x2="256" y1="163" y2="163" /><line stroke="white" stroke-width="2" x1="254" x2="256" y1="165" y2="165" /><line stroke="white" stroke-width="2" x1="79" x2="81" y1="151" y2="151" /><line stroke="white" stroke-width="2" x1="134" x2="136" y1="147" y2="147" /><line stroke="white" stroke-width="2" x1="134" x2="136" y1="149" y2="149" /><line stroke="white" stroke-width="2" x1="136" x2="138" y1="149" y2="149" /><line stroke="white" stroke-width="2" x1="134" x2="136" y1="151" y2="151" /><line stroke="white" stroke-width="2" x1="136" x2="138" y1="151" y2="151" /><line stroke="white" stroke-width="2" x1="180" x2="182" y1="138" y2="138" /><line stroke="white" stroke-width="2" x1="176" x2="178" y1="140" y2="140" /><line stroke="white" stroke-width="2" x1="178" x2="180" y1="140" y2="140" /><line stroke="white" stroke-width="2" x1="247" x2="249" y1="132" y2="132" /><line stroke="white" stroke-width="2" x1="249" x2="251" y1="132" y2="132" /><line stroke="white" stroke-width="2" x1="251" x2="253" y1="132" y2="132" /><line stroke="white" stroke-width="2" x1="233" x2="235" y1="134" y2="134" /><line stroke="white" stroke-width="2" x1="243" x2="245" y1="134" y2="134" /><line stroke="white" stroke-width="2" x1="245" x2="247" y1="134" y2="134" /><line stroke="white" stroke-width="2" x1="247" x2="249" y1="134" y2="134" /><line stroke="white" stroke-width="2" x1="249" x2="251" y1="134" y2="134" /><line stroke="white" stroke-width="2" x1="251" x2="253" y1="134" y2="134" /><line stroke="white" stroke-width="2" x1="253" x2="255" y1="134" y2="134" /><line stroke="white" stroke-width="2" x1="231" x2="233" y1="136" y2="136" /><line stroke="white" stroke-width="2" x1="233" x2="235" y1="136" y2="136" /><line stroke="white" stroke-width="2" x1="235" x2="237" y1="136" y2="136" /><line stroke="white" stroke-width="2" x1="237" x2="239" y1="136" y2="136" /><line stroke="white" stroke-width="2" x1="239" x2="241" y1="136" y2="136" /><line stroke="white" stroke-width="2" x1="241" x2="243" y1="136" y2="136" /><line stroke="white" stroke-width="2" x1="243" x2="245" y1="136" y2="136" /><line stroke="white" stroke-width="2" x1="245" x2="247" y1="136" y2="136" /><line stroke="white" stroke-width="2" x1="247" x2="249" y1="136" y2="136" /><line stroke="white" stroke-width="2" x1="249" x2="251" y1="136" y2="136" /><line stroke="white" stroke-width="2" x1="251" x2="253" y1="136" y2="136" /><line stroke="white" stroke-width="2" x1="233" x2="235" y1="138" y2="138" /><line stroke="white" stroke-width="2" x1="235" x2="237" y1="138" y2="138" /><line stroke="white" stroke-width="2" x1="237" x2="239" y1="138" y2="138" /><line stroke="white" stroke-width="2" x1="239" x2="241" y1="138" y2="138" /><line stroke="white" stroke-width="2" x1="241" x2="243" y1="138" y2="138" /><line stroke="white" stroke-width="2" x1="243" x2="245" y1="138" y2="138" /><line stroke="white" stroke-width="2" x1="245" x2="247" y1="138" y2="138" /><line stroke="white" stroke-width="2" x1="247" x2="249" y1="138" y2="138" /><line stroke="white" stroke-width="2" x1="249" x2="251" y1="138" y2="138" /><line stroke="white" stroke-width="2" x1="239" x2="241" y1="140" y2="140" /><line stroke="white" stroke-width="2" x1="241" x2="243" y1="140" y2="140" /><line stroke="white" stroke-width="2" x1="243" x2="245" y1="140" y2="140" /><line stroke="white" stroke-width="2" x1="245" x2="247" y1="140" y2="140" /><line stroke="white" stroke-width="2" x1="247" x2="249" y1="140" y2="140" /><line stroke="white" stroke-width="2" x1="241" x2="243" y1="142" y2="142" /><line stroke="white" stroke-width="2" x1="243" x2="245" y1="142" y2="142" /><line stroke="white" stroke-width="2" x1="245" x2="247" y1="142" y2="142" /><line stroke="white" stroke-width="2" x1="243" x2="245" y1="144" y2="144" /><line stroke="white" stroke-width="2" x1="23" x2="25" y1="130" y2="130" /><line stroke="white" stroke-width="2" x1="25" x2="27" y1="130" y2="130" /><line stroke="white" stroke-width="2" x1="17" x2="19" y1="132" y2="132" /><line stroke="white" stroke-width="2" x1="19" x2="21" y1="132" y2="132" /><line stroke="white" stroke-width="2" x1="21" x2="23" y1="132" y2="132" /><line stroke="white" stroke-width="2" x1="23" x2="25" y1="132" y2="132" /><line stroke="white" stroke-width="2" x1="25" x2="27" y1="132" y2="132" /><line stroke="white" stroke-width="2" x1="13" x2="15" y1="134" y2="134" /><line stroke="white" stroke-width="2" x1="15" x2="17" y1="134" y2="134" /><line stroke="white" stroke-width="2" x1="17" x2="19" y1="134" y2="134" /><line stroke="white" stroke-width="2" x1="19" x2="21" y1="134" y2="134" /><line stroke="white" stroke-width="2" x1="21" x2="23" y1="134" y2="134" /><line stroke="white" stroke-width="2" x1="23" x2="25" y1="134" y2="134" /><line stroke="white" stroke-width="2" x1="13" x2="15" y1="136" y2="136" /><line stroke="white" stroke-width="2" x1="15" x2="17" y1="136" y2="136" /><line stroke="white" stroke-width="2" x1="17" x2="19" y1="136" y2="136" /><line stroke="white" stroke-width="2" x1="19" x2="21" y1="136" y2="136" /><line stroke="white" stroke-width="2" x1="21" x2="23" y1="136" y2="136" /><line stroke="white" stroke-width="2" x1="23" x2="25" y1="136" y2="136" /><line stroke="white" stroke-width="2" x1="15" x2="17" y1="138" y2="138" /><line stroke="white" stroke-width="2" x1="17" x2="19" y1="138" y2="138" /><line stroke="white" stroke-width="2" x1="19" x2="21" y1="138" y2="138" /><line stroke="white" stroke-width="2" x1="21" x2="23" y1="138" y2="138" /><line stroke="white" stroke-width="2" x1="23" x2="25" y1="138" y2="138" /><line stroke="white" stroke-width="2" x1="17" x2="19" y1="140" y2="140" /><line stroke="white" stroke-width="2" x1="19" x2="21" y1="140" y2="140" /><line stroke="white" stroke-width="2" x1="21" x2="23" y1="140" y2="140" /><line stroke="white" stroke-width="2" x1="23" x2="25" y1="140" y2="140" /><line stroke="white" stroke-width="2" x1="19" x2="21" y1="142" y2="142" /><line stroke="white" stroke-width="2" x1="21" x2="23" y1="142" y2="142" /><line stroke="white" stroke-width="2" x1="23" x2="25" y1="142" y2="142" /><line stroke="white" stroke-width="2" x1="21" x2="23" y1="144" y2="144" /><line stroke="white" stroke-width="2" x1="23" x2="25" y1="144" y2="144" /><line stroke="white" stroke-width="2" x1="21" x2="23" y1="146" y2="146" /><line stroke="white" stroke-width="2" x1="23" x2="25" y1="146" y2="146" /><line stroke="white" stroke-width="2" x1="27" x2="29" y1="112" y2="112" /><line stroke="white" stroke-width="2" x1="29" x2="31" y1="112" y2="112" /><line stroke="white" stroke-width="2" x1="31" x2="33" y1="112" y2="112" /><line stroke="white" stroke-width="2" x1="33" x2="35" y1="112" y2="112" /><line stroke="white" stroke-width="2" x1="35" x2="37" y1="112" y2="112" /><line stroke="white" stroke-width="2" x1="27" x2="29" y1="114" y2="114" /><line stroke="white" stroke-width="2" x1="29" x2="31" y1="114" y2="114" /><line stroke="white" stroke-width="2" x1="31" x2="33" y1="114" y2="114" /><line stroke="white" stroke-width="2" x1="33" x2="35" y1="114" y2="114" /><line stroke="white" stroke-width="2" x1="29" x2="31" y1="116" y2="116" /><line stroke="white" stroke-width="2" x1="31" x2="33" y1="116" y2="116" /><line stroke="white" stroke-width="2" x1="242" x2="244" y1="103" y2="103" /><line stroke="white" stroke-width="2" x1="244" x2="246" y1="103" y2="103" /><line stroke="white" stroke-width="2" x1="244" x2="246" y1="105" y2="105" /><line stroke="white" stroke-width="2" x1="93" x2="95" y1="101" y2="101" /><line stroke="white" stroke-width="2" x1="95" x2="97" y1="101" y2="101" /><line stroke="white" stroke-width="2" x1="97" x2="99" y1="101" y2="101" /><line stroke="white" stroke-width="2" x1="93" x2="95" y1="103" y2="103" /><line stroke="white" stroke-width="2" x1="95" x2="97" y1="103" y2="103" /><line stroke="white" stroke-width="2" x1="97" x2="99" y1="103" y2="103" /><line stroke="white" stroke-width="2" x1="93" x2="95" y1="105" y2="105" /><line stroke="white" stroke-width="2" x1="95" x2="97" y1="105" y2="105" /><line stroke="white" stroke-width="2" x1="93" x2="95" y1="107" y2="107" /><line stroke="white" stroke-width="2" x1="95" x2="97" y1="107" y2="107" /><line stroke="white" stroke-width="2" x1="95" x2="97" y1="109" y2="109" /><line stroke="white" stroke-width="2" x1="2" x2="4" y1="99" y2="99" /><line stroke="white" stroke-width="2" x1="0" x2="2" y1="101" y2="101" /><line stroke="white" stroke-width="2" x1="2" x2="4" y1="101" y2="101" /><line stroke="white" stroke-width="2" x1="4" x2="6" y1="101" y2="101" /><line stroke="white" stroke-width="2" x1="0" x2="2" y1="103" y2="103" /><line stroke="white" stroke-width="2" x1="2" x2="4" y1="103" y2="103" /><line stroke="white" stroke-width="2" x1="4" x2="6" y1="103" y2="103" /><line stroke="white" stroke-width="2" x1="49" x2="51" y1="96" y2="96" /><line stroke="white" stroke-width="2" x1="51" x2="53" y1="96" y2="96" /><line stroke="white" stroke-width="2" x1="53" x2="55" y1="96" y2="96" /><line stroke="white" stroke-width="2" x1="49" x2="51" y1="98" y2="98" /><line stroke="white" stroke-width="2" x1="51" x2="53" y1="98" y2="98" /><line stroke="white" stroke-width="2" x1="47" x2="49" y1="100" y2="100" /><line stroke="white" stroke-width="2" x1="49" x2="51" y1="100" y2="100" /><line stroke="white" stroke-width="2" x1="51" x2="53" y1="100" y2="100" /><line stroke="white" stroke-width="2" x1="47" x2="49" y1="102" y2="102" /><line stroke="white" stroke-width="2" x1="49" x2="51" y1="102" y2="102" /><line stroke="white" stroke-width="2" x1="51" x2="53" y1="102" y2="102" /><line stroke="white" stroke-width="2" x1="47" x2="49" y1="104" y2="104" /><line stroke="white" stroke-width="2" x1="49" x2="51" y1="104" y2="104" /><line stroke="white" stroke-width="2" x1="51" x2="53" y1="104" y2="104" /><line stroke="white" stroke-width="2" x1="49" x2="51" y1="106" y2="106" /></svg>