<?xml version="1.0" encoding="utf-8" ?>
<svg baseProfile="tiny" height="153" version="1.2" width="153" xmlns="http://www.w3.org/2000/svg" xmlns:ev="http://www.w3.org/2001/xml-events" xmlns:xlink="http://www.w3.org/1999/xlink"><defs /><rect fill="black" height="153" width="153" x="0" y="0" /><line stroke="white" stroke-width="1" x1="95" x2="97" y1="130" y2="130" /><line stroke="white" stroke-width="1" x1="95" x2="96" y1="98" y2="98" /><line stroke="white" stroke-width="1" x1="94" x2="97" y1="99" y2="99" /><line stroke="white" stroke-width="1" x1="93" x2="98" y1="100" y2="100" /><line stroke="white" stroke-width="1" x1="94" x2="98" y1="101" y2="101" /><line stroke="white" stroke-width="1" x1="95" x2="98" y1="102" y2="102" /><line stroke="white" stroke-width="1" x1="65" x2="68" y1="98" y2="98" /><line stroke="white" stroke-width="1" x1="63" x2="69" y1="99" y2="99" /><line stroke="white" stroke-width="1" x1="64" x2="68" y1="100" y2="100" /><line stroke="white" stroke-width="1" x1="65" x2="68" y1="101" y2="101" /><line stroke="white" stroke-width="1" x1="59" x2="62" y1="94" y2="94" /><line stroke="white" stroke-width="1" x1="58" x2="62" y1="95" y2="95" /><line stroke="white" stroke-width="1" x1="61" x2="62" y1="96" y2="96" /><line stroke="white" stroke-width="1" x1="97" x2="98" y1="92" y2="92" /><line stroke="white" stroke-width="1" x1="97" x2="100" y1="93" y2="93" /><line stroke="white" stroke-width="1" x1="98" x2="100" y1="94" y2="94" /><line stroke="white" stroke-width="1" x1="100" x2="106" y1="95" y2="95" /><line stroke="white" stroke-width="1" x1="101" x2="106" y1="96" y2="96" /><line stroke="white" stroke-width="1" x1="101" x2="104" y1="97" y2="97" /><line stroke="white" stroke-width="1" x1="106" x2="107" y1="91" y2="91" /><line stroke="white" stroke-width="1" x1="78" x2="83" y1="91" y2="91" /><line stroke="white" stroke-width="1" x1="79" x2="83" y1="92" y2="92" /><line stroke="white" stroke-width="1" x1="80" x2="82" y1="93" y2="93" /><line stroke="white" stroke-width="1" x1="80" x2="82" y1="94" y2="94" /><line stroke="white" stroke-width="1" x1="81" x2="82" y1="95" y2="95" /><line stroke="white" stroke-width="1" x1="81" x2="82" y1="96" y2="96" /><line stroke="white" stroke-width="1" x1="55" x2="56" y1="89" y2="89" /><line stroke="white" stroke-width="1" x1="79" x2="83" y1="79" y2="79" /><line stroke="white" stroke-width="1" x1="79" x2="84" y1="80" y2="80" /><line stroke="white" stroke-width="1" x1="79" x2="85" y1="81" y2="81" /><line stroke="white" stroke-width="1" x1="74" x2="81" y1="82" y2="82" /><line stroke="white" stroke-width="1" x1="84" x2="89" y1="82" y2="82" /><line stroke="white" stroke-width="1" x1="73" x2="76" y1="83" y2="83" /><line stroke="white" stroke-width="1" x1="86" x2="89" y1="83" y2="83" /><line stroke="white" stroke-width="1" x1="73" x2="74" y1="84" y2="84" /><line stroke="white" stroke-width="1" x1="88" x2="89" y1="84" y2="84" /><line stroke="white" stroke-width="1" x1="73" x2="74" y1="85" y2="85" /><line stroke="white" stroke-width="1" x1="88" x2="90" y1="85" y2="85" /><line stroke="white" stroke-width="1" x1="73" x2="75" y1="86" y2="86" /><line stroke="white" stroke-width="1" x1="87" x2="90" y1="86" y2="86" /><line stroke="white" stroke-width="1" x1="73" x2="80" y1="87" y2="87" /><line stroke="white" stroke-width="1" x1="84" x2="90" y1="87" y2="87" /><line stroke="white" stroke-width="1" x1="75" x2="79" y1="88" y2="88" /><line stroke="white" stroke-width="1" x1="84" x2="90" y1="88" y2="88" /><line stroke="white" stroke-width="1" x1="76" x2="79" y1="89" y2="89" /><line stroke="white" stroke-width="1" x1="84" x2="87" y1="89" y2="89" /><line stroke="white" stroke-width="1" x1="95" x2="99" y1="76" y2="76" /><line stroke="white" stroke-width="1" x1="97" x2="98" y1="77" y2="77" /><line stroke="white" stroke-width="1" x1="66" x2="68" y1="75" y2="75" /><line stroke="white" stroke-width="1" x1="66" x2="70" y1="76" y2="76" /><line stroke="white" stroke-width="1" x1="100" x2="101" y1="61" y2="61" /></svg>