<?xml version="1.0" encoding="utf-8" ?>
<svg baseProfile="tiny" height="182" version="1.2" width="171" xmlns="http://www.w3.org/2000/svg" xmlns:ev="http://www.w3.org/2001/xml-events" xmlns:xlink="http://www.w3.org/1999/xlink"><defs /><rect fill="black" height="182" width="171" x="0" y="0" /><line stroke="white" stroke-width="1" x1="11" x2="13" y1="166" y2="166" /><line stroke="white" stroke-width="1" x1="11" x2="68" y1="159" y2="159" /><line stroke="white" stroke-width="1" x1="71" x2="75" y1="159" y2="159" /><line stroke="white" stroke-width="1" x1="81" x2="81" y1="159" y2="159" /><line stroke="white" stroke-width="1" x1="11" x2="85" y1="160" y2="160" /><line stroke="white" stroke-width="1" x1="97" x2="97" y1="160" y2="160" /><line stroke="white" stroke-width="1" x1="11" x2="155" y1="161" y2="161" /><line stroke="white" stroke-width="1" x1="11" x2="155" y1="162" y2="162" /><line stroke="white" stroke-width="1" x1="11" x2="156" y1="163" y2="163" /><line stroke="white" stroke-width="1" x1="88" x2="156" y1="164" y2="164" /><line stroke="white" stroke-width="1" x1="82" x2="156" y1="165" y2="165" /><line stroke="white" stroke-width="1" x1="15" x2="26" y1="166" y2="166" /><line stroke="white" stroke-width="1" x1="29" x2="157" y1="166" y2="166" /><line stroke="white" stroke-width="1" x1="19" x2="22" y1="167" y2="167" /><line stroke="white" stroke-width="1" x1="26" x2="156" y1="167" y2="167" /><line stroke="white" stroke-width="1" x1="13" x2="23" y1="168" y2="168" /><line stroke="white" stroke-width="1" x1="27" x2="156" y1="168" y2="168" /><line stroke="white" stroke-width="1" x1="14" x2="156" y1="169" y2="169" /><line stroke="white" stroke-width="1" x1="13" x2="156" y1="170" y2="170" /><line stroke="white" stroke-width="1" x1="15" x2="16" y1="171" y2="171" /><line stroke="white" stroke-width="1" x1="19" x2="25" y1="171" y2="171" /><line stroke="white" stroke-width="1" x1="28" x2="155" y1="171" y2="171" /><line stroke="white" stroke-width="1" x1="13" x2="156" y1="172" y2="172" /><line stroke="white" stroke-width="1" x1="79" x2="91" y1="111" y2="111" /><line stroke="white" stroke-width="1" x1="76" x2="93" y1="112" y2="112" /><line stroke="white" stroke-width="1" x1="73" x2="97" y1="113" y2="113" /><line stroke="white" stroke-width="1" x1="71" x2="98" y1="114" y2="114" /><line stroke="white" stroke-width="1" x1="70" x2="98" y1="115" y2="115" /><line stroke="white" stroke-width="1" x1="73" x2="95" y1="116" y2="116" /><line stroke="white" stroke-width="1" x1="74" x2="96" y1="117" y2="117" /><line stroke="white" stroke-width="1" x1="74" x2="95" y1="118" y2="118" /><line stroke="white" stroke-width="1" x1="74" x2="80" y1="119" y2="119" /><line stroke="white" stroke-width="1" x1="91" x2="95" y1="119" y2="119" /><line stroke="white" stroke-width="1" x1="75" x2="77" y1="120" y2="120" /><line stroke="white" stroke-width="1" x1="94" x2="95" y1="120" y2="120" /><line stroke="white" stroke-width="1" x1="68" x2="69" y1="86" y2="86" /><line stroke="white" stroke-width="1" x1="66" x2="70" y1="87" y2="87" /><line stroke="white" stroke-width="1" x1="65" x2="71" y1="88" y2="88" /><line stroke="white" stroke-width="1" x1="65" x2="72" y1="89" y2="89" /><line stroke="white" stroke-width="1" x1="66" x2="73" y1="90" y2="90" /><line stroke="white" stroke-width="1" x1="66" x2="74" y1="91" y2="91" /><line stroke="white" stroke-width="1" x1="66" x2="75" y1="92" y2="92" /><line stroke="white" stroke-width="1" x1="67" x2="77" y1="93" y2="93" /><line stroke="white" stroke-width="1" x1="68" x2="78" y1="94" y2="94" /><line stroke="white" stroke-width="1" x1="68" x2="79" y1="95" y2="95" /><line stroke="white" stroke-width="1" x1="70" x2="80" y1="96" y2="96" /><line stroke="white" stroke-width="1" x1="71" x2="80" y1="97" y2="97" /><line stroke="white" stroke-width="1" x1="72" x2="80" y1="98" y2="98" /><line stroke="white" stroke-width="1" x1="74" x2="79" y1="99" y2="99" /><line stroke="white" stroke-width="1" x1="101" x2="102" y1="86" y2="86" /><line stroke="white" stroke-width="1" x1="100" x2="103" y1="87" y2="87" /><line stroke="white" stroke-width="1" x1="99" x2="104" y1="88" y2="88" /><line stroke="white" stroke-width="1" x1="98" x2="104" y1="89" y2="89" /><line stroke="white" stroke-width="1" x1="97" x2="104" y1="90" y2="90" /><line stroke="white" stroke-width="1" x1="95" x2="104" y1="91" y2="91" /><line stroke="white" stroke-width="1" x1="94" x2="104" y1="92" y2="92" /><line stroke="white" stroke-width="1" x1="93" x2="103" y1="93" y2="93" /><line stroke="white" stroke-width="1" x1="92" x2="102" y1="94" y2="94" /><line stroke="white" stroke-width="1" x1="91" x2="101" y1="95" y2="95" /><line stroke="white" stroke-width="1" x1="90" x2="100" y1="96" y2="96" /><line stroke="white" stroke-width="1" x1="90" x2="99" y1="97" y2="97" /><line stroke="white" stroke-width="1" x1="90" x2="98" y1="98" y2="98" /><line stroke="white" stroke-width="1" x1="91" x2="96" y1="99" y2="99" /></svg>