<?xml version="1.0" encoding="utf-8" ?>
<svg baseProfile="tiny" height="91" version="1.2" width="91" xmlns="http://www.w3.org/2000/svg" xmlns:ev="http://www.w3.org/2001/xml-events" xmlns:xlink="http://www.w3.org/1999/xlink"><defs /><rect fill="black" height="91" width="91" x="0" y="0" /><line stroke="white" stroke-width="1" x1="37" x2="45" y1="58" y2="58" /><line stroke="white" stroke-width="1" x1="36" x2="45" y1="59" y2="59" /><line stroke="white" stroke-width="1" x1="36" x2="45" y1="60" y2="60" /><line stroke="white" stroke-width="1" x1="36" x2="45" y1="61" y2="61" /><line stroke="white" stroke-width="1" x1="6" x2="14" y1="62" y2="62" /><line stroke="white" stroke-width="1" x1="36" x2="45" y1="62" y2="62" /><line stroke="white" stroke-width="1" x1="5" x2="15" y1="63" y2="63" /><line stroke="white" stroke-width="1" x1="36" x2="45" y1="63" y2="63" /><line stroke="white" stroke-width="1" x1="5" x2="15" y1="64" y2="64" /><line stroke="white" stroke-width="1" x1="36" x2="45" y1="64" y2="64" /><line stroke="white" stroke-width="1" x1="5" x2="15" y1="65" y2="65" /><line stroke="white" stroke-width="1" x1="36" x2="45" y1="65" y2="65" /><line stroke="white" stroke-width="1" x1="5" x2="15" y1="66" y2="66" /><line stroke="white" stroke-width="1" x1="36" x2="46" y1="66" y2="66" /><line stroke="white" stroke-width="1" x1="5" x2="15" y1="67" y2="67" /><line stroke="white" stroke-width="1" x1="36" x2="46" y1="67" y2="67" /><line stroke="white" stroke-width="1" x1="5" x2="15" y1="68" y2="68" /><line stroke="white" stroke-width="1" x1="36" x2="46" y1="68" y2="68" /><line stroke="white" stroke-width="1" x1="5" x2="15" y1="69" y2="69" /><line stroke="white" stroke-width="1" x1="35" x2="46" y1="69" y2="69" /><line stroke="white" stroke-width="1" x1="6" x2="16" y1="70" y2="70" /><line stroke="white" stroke-width="1" x1="35" x2="46" y1="70" y2="70" /><line stroke="white" stroke-width="1" x1="6" x2="16" y1="71" y2="71" /><line stroke="white" stroke-width="1" x1="34" x2="46" y1="71" y2="71" /><line stroke="white" stroke-width="1" x1="6" x2="16" y1="72" y2="72" /><line stroke="white" stroke-width="1" x1="33" x2="46" y1="72" y2="72" /><line stroke="white" stroke-width="1" x1="6" x2="17" y1="73" y2="73" /><line stroke="white" stroke-width="1" x1="30" x2="46" y1="73" y2="73" /><line stroke="white" stroke-width="1" x1="6" x2="19" y1="74" y2="74" /><line stroke="white" stroke-width="1" x1="28" x2="46" y1="74" y2="74" /><line stroke="white" stroke-width="1" x1="6" x2="46" y1="75" y2="75" /><line stroke="white" stroke-width="1" x1="6" x2="45" y1="76" y2="76" /><line stroke="white" stroke-width="1" x1="6" x2="45" y1="77" y2="77" /><line stroke="white" stroke-width="1" x1="6" x2="45" y1="78" y2="78" /><line stroke="white" stroke-width="1" x1="6" x2="44" y1="79" y2="79" /><line stroke="white" stroke-width="1" x1="7" x2="44" y1="80" y2="80" /><line stroke="white" stroke-width="1" x1="7" x2="43" y1="81" y2="81" /><line stroke="white" stroke-width="1" x1="7" x2="41" y1="82" y2="82" /><line stroke="white" stroke-width="1" x1="8" x2="40" y1="83" y2="83" /><line stroke="white" stroke-width="1" x1="8" x2="39" y1="84" y2="84" /><line stroke="white" stroke-width="1" x1="9" x2="37" y1="85" y2="85" /><line stroke="white" stroke-width="1" x1="10" x2="34" y1="86" y2="86" /><line stroke="white" stroke-width="1" x1="12" x2="30" y1="87" y2="87" /><line stroke="white" stroke-width="1" x1="14" x2="27" y1="88" y2="88" /></svg>