<?xml version="1.0" encoding="utf-8" ?>
<svg baseProfile="tiny" height="345" version="1.2" width="345" xmlns="http://www.w3.org/2000/svg" xmlns:ev="http://www.w3.org/2001/xml-events" xmlns:xlink="http://www.w3.org/1999/xlink"><defs /><rect fill="black" height="345" width="345" x="0" y="0" /><line stroke="white" stroke-width="1" x1="195" x2="304" y1="152" y2="152" /><line stroke="white" stroke-width="1" x1="195" x2="304" y1="153" y2="153" /><line stroke="white" stroke-width="1" x1="195" x2="304" y1="154" y2="154" /><line stroke="white" stroke-width="1" x1="195" x2="304" y1="155" y2="155" /><line stroke="white" stroke-width="1" x1="195" x2="304" y1="156" y2="156" /><line stroke="white" stroke-width="1" x1="195" x2="304" y1="157" y2="157" /><line stroke="white" stroke-width="1" x1="195" x2="304" y1="158" y2="158" /><line stroke="white" stroke-width="1" x1="195" x2="304" y1="159" y2="159" /><line stroke="white" stroke-width="1" x1="195" x2="304" y1="160" y2="160" /><line stroke="white" stroke-width="1" x1="195" x2="304" y1="161" y2="161" /><line stroke="white" stroke-width="1" x1="195" x2="304" y1="162" y2="162" /><line stroke="white" stroke-width="1" x1="195" x2="304" y1="163" y2="163" /><line stroke="white" stroke-width="1" x1="195" x2="304" y1="164" y2="164" /><line stroke="white" stroke-width="1" x1="195" x2="304" y1="165" y2="165" /><line stroke="white" stroke-width="1" x1="195" x2="304" y1="166" y2="166" /><line stroke="white" stroke-width="1" x1="195" x2="304" y1="167" y2="167" /><line stroke="white" stroke-width="1" x1="195" x2="304" y1="168" y2="168" /><line stroke="white" stroke-width="1" x1="195" x2="304" y1="169" y2="169" /><line stroke="white" stroke-width="1" x1="195" x2="304" y1="170" y2="170" /><line stroke="white" stroke-width="1" x1="195" x2="304" y1="171" y2="171" /><line stroke="white" stroke-width="1" x1="195" x2="304" y1="172" y2="172" /><line stroke="white" stroke-width="1" x1="195" x2="304" y1="173" y2="173" /><line stroke="white" stroke-width="1" x1="195" x2="304" y1="174" y2="174" /><line stroke="white" stroke-width="1" x1="195" x2="304" y1="175" y2="175" /><line stroke="white" stroke-width="1" x1="195" x2="304" y1="176" y2="176" /><line stroke="white" stroke-width="1" x1="195" x2="304" y1="177" y2="177" /><line stroke="white" stroke-width="1" x1="195" x2="304" y1="178" y2="178" /><line stroke="white" stroke-width="1" x1="195" x2="304" y1="179" y2="179" /><line stroke="white" stroke-width="1" x1="195" x2="304" y1="180" y2="180" /><line stroke="white" stroke-width="1" x1="195" x2="304" y1="181" y2="181" /><line stroke="white" stroke-width="1" x1="195" x2="304" y1="182" y2="182" /><line stroke="white" stroke-width="1" x1="195" x2="304" y1="183" y2="183" /><line stroke="white" stroke-width="1" x1="195" x2="304" y1="184" y2="184" /><line stroke="white" stroke-width="1" x1="195" x2="304" y1="185" y2="185" /><line stroke="white" stroke-width="1" x1="195" x2="304" y1="186" y2="186" /><line stroke="white" stroke-width="1" x1="195" x2="304" y1="187" y2="187" /><line stroke="white" stroke-width="1" x1="195" x2="304" y1="188" y2="188" /><line stroke="white" stroke-width="1" x1="195" x2="304" y1="189" y2="189" /><line stroke="white" stroke-width="1" x1="195" x2="304" y1="190" y2="190" /><line stroke="white" stroke-width="1" x1="195" x2="304" y1="191" y2="191" /><line stroke="white" stroke-width="1" x1="195" x2="304" y1="192" y2="192" /><line stroke="white" stroke-width="1" x1="195" x2="304" y1="193" y2="193" /><line stroke="white" stroke-width="1" x1="195" x2="304" y1="194" y2="194" /><line stroke="white" stroke-width="1" x1="195" x2="304" y1="195" y2="195" /><line stroke="white" stroke-width="1" x1="195" x2="304" y1="196" y2="196" /><line stroke="white" stroke-width="1" x1="195" x2="304" y1="197" y2="197" /><line stroke="white" stroke-width="1" x1="195" x2="304" y1="198" y2="198" /><line stroke="white" stroke-width="1" x1="195" x2="304" y1="199" y2="199" /><line stroke="white" stroke-width="1" x1="195" x2="304" y1="200" y2="200" /><line stroke="white" stroke-width="1" x1="195" x2="304" y1="201" y2="201" /><line stroke="white" stroke-width="1" x1="195" x2="304" y1="202" y2="202" /><line stroke="white" stroke-width="1" x1="195" x2="304" y1="203" y2="203" /><line stroke="white" stroke-width="1" x1="195" x2="304" y1="204" y2="204" /><line stroke="white" stroke-width="1" x1="195" x2="304" y1="205" y2="205" /><line stroke="white" stroke-width="1" x1="195" x2="304" y1="206" y2="206" /><line stroke="white" stroke-width="1" x1="195" x2="304" y1="207" y2="207" /><line stroke="white" stroke-width="1" x1="195" x2="304" y1="208" y2="208" /><line stroke="white" stroke-width="1" x1="195" x2="304" y1="209" y2="209" /><line stroke="white" stroke-width="1" x1="195" x2="304" y1="210" y2="210" /><line stroke="white" stroke-width="1" x1="195" x2="304" y1="211" y2="211" /><line stroke="white" stroke-width="1" x1="195" x2="304" y1="212" y2="212" /><line stroke="white" stroke-width="1" x1="195" x2="304" y1="213" y2="213" /><line stroke="white" stroke-width="1" x1="35" x2="176" y1="98" y2="98" /><line stroke="white" stroke-width="1" x1="35" x2="176" y1="99" y2="99" /><line stroke="white" stroke-width="1" x1="35" x2="176" y1="100" y2="100" /><line stroke="white" stroke-width="1" x1="35" x2="176" y1="101" y2="101" /><line stroke="white" stroke-width="1" x1="35" x2="176" y1="102" y2="102" /><line stroke="white" stroke-width="1" x1="35" x2="176" y1="103" y2="103" /><line stroke="white" stroke-width="1" x1="35" x2="176" y1="104" y2="104" /><line stroke="white" stroke-width="1" x1="35" x2="176" y1="105" y2="105" /><line stroke="white" stroke-width="1" x1="35" x2="176" y1="106" y2="106" /><line stroke="white" stroke-width="1" x1="35" x2="176" y1="107" y2="107" /><line stroke="white" stroke-width="1" x1="35" x2="176" y1="108" y2="108" /><line stroke="white" stroke-width="1" x1="35" x2="176" y1="109" y2="109" /><line stroke="white" stroke-width="1" x1="35" x2="176" y1="110" y2="110" /><line stroke="white" stroke-width="1" x1="35" x2="176" y1="111" y2="111" /><line stroke="white" stroke-width="1" x1="35" x2="176" y1="112" y2="112" /><line stroke="white" stroke-width="1" x1="35" x2="176" y1="113" y2="113" /><line stroke="white" stroke-width="1" x1="35" x2="176" y1="114" y2="114" /><line stroke="white" stroke-width="1" x1="35" x2="176" y1="115" y2="115" /><line stroke="white" stroke-width="1" x1="35" x2="176" y1="116" y2="116" /><line stroke="white" stroke-width="1" x1="35" x2="176" y1="117" y2="117" /><line stroke="white" stroke-width="1" x1="35" x2="176" y1="118" y2="118" /><line stroke="white" stroke-width="1" x1="35" x2="176" y1="119" y2="119" /><line stroke="white" stroke-width="1" x1="35" x2="176" y1="120" y2="120" /><line stroke="white" stroke-width="1" x1="35" x2="176" y1="121" y2="121" /><line stroke="white" stroke-width="1" x1="35" x2="176" y1="122" y2="122" /><line stroke="white" stroke-width="1" x1="35" x2="176" y1="123" y2="123" /><line stroke="white" stroke-width="1" x1="35" x2="176" y1="124" y2="124" /><line stroke="white" stroke-width="1" x1="35" x2="176" y1="125" y2="125" /><line stroke="white" stroke-width="1" x1="35" x2="176" y1="126" y2="126" /><line stroke="white" stroke-width="1" x1="35" x2="176" y1="127" y2="127" /><line stroke="white" stroke-width="1" x1="35" x2="176" y1="128" y2="128" /><line stroke="white" stroke-width="1" x1="35" x2="176" y1="129" y2="129" /><line stroke="white" stroke-width="1" x1="35" x2="176" y1="130" y2="130" /><line stroke="white" stroke-width="1" x1="35" x2="176" y1="131" y2="131" /><line stroke="white" stroke-width="1" x1="35" x2="176" y1="132" y2="132" /><line stroke="white" stroke-width="1" x1="35" x2="176" y1="133" y2="133" /><line stroke="white" stroke-width="1" x1="35" x2="176" y1="134" y2="134" /><line stroke="white" stroke-width="1" x1="35" x2="176" y1="135" y2="135" /><line stroke="white" stroke-width="1" x1="35" x2="176" y1="136" y2="136" /><line stroke="white" stroke-width="1" x1="35" x2="176" y1="137" y2="137" /><line stroke="white" stroke-width="1" x1="35" x2="176" y1="138" y2="138" /><line stroke="white" stroke-width="1" x1="35" x2="176" y1="139" y2="139" /><line stroke="white" stroke-width="1" x1="35" x2="176" y1="140" y2="140" /><line stroke="white" stroke-width="1" x1="35" x2="176" y1="141" y2="141" /><line stroke="white" stroke-width="1" x1="35" x2="176" y1="142" y2="142" /><line stroke="white" stroke-width="1" x1="35" x2="176" y1="143" y2="143" /><line stroke="white" stroke-width="1" x1="35" x2="176" y1="144" y2="144" /><line stroke="white" stroke-width="1" x1="35" x2="176" y1="145" y2="145" /><line stroke="white" stroke-width="1" x1="35" x2="176" y1="146" y2="146" /><line stroke="white" stroke-width="1" x1="35" x2="176" y1="147" y2="147" /><line stroke="white" stroke-width="1" x1="35" x2="176" y1="148" y2="148" /><line stroke="white" stroke-width="1" x1="35" x2="176" y1="149" y2="149" /><line stroke="white" stroke-width="1" x1="35" x2="176" y1="150" y2="150" /><line stroke="white" stroke-width="1" x1="35" x2="176" y1="151" y2="151" /><line stroke="white" stroke-width="1" x1="35" x2="176" y1="152" y2="152" /><line stroke="white" stroke-width="1" x1="35" x2="176" y1="153" y2="153" /><line stroke="white" stroke-width="1" x1="35" x2="176" y1="154" y2="154" /><line stroke="white" stroke-width="1" x1="35" x2="176" y1="155" y2="155" /><line stroke="white" stroke-width="1" x1="35" x2="176" y1="156" y2="156" /><line stroke="white" stroke-width="1" x1="35" x2="176" y1="157" y2="157" /><line stroke="white" stroke-width="1" x1="35" x2="176" y1="158" y2="158" /><line stroke="white" stroke-width="1" x1="35" x2="176" y1="159" y2="159" /><line stroke="white" stroke-width="1" x1="35" x2="176" y1="160" y2="160" /><line stroke="white" stroke-width="1" x1="35" x2="176" y1="161" y2="161" /><line stroke="white" stroke-width="1" x1="35" x2="176" y1="162" y2="162" /><line stroke="white" stroke-width="1" x1="35" x2="176" y1="163" y2="163" /><line stroke="white" stroke-width="1" x1="35" x2="176" y1="164" y2="164" /><line stroke="white" stroke-width="1" x1="35" x2="176" y1="165" y2="165" /><line stroke="white" stroke-width="1" x1="35" x2="176" y1="166" y2="166" /><line stroke="white" stroke-width="1" x1="35" x2="176" y1="167" y2="167" /><line stroke="white" stroke-width="1" x1="35" x2="176" y1="168" y2="168" /><line stroke="white" stroke-width="1" x1="35" x2="176" y1="169" y2="169" /><line stroke="white" stroke-width="1" x1="35" x2="176" y1="170" y2="170" /><line stroke="white" stroke-width="1" x1="35" x2="176" y1="171" y2="171" /><line stroke="white" stroke-width="1" x1="35" x2="176" y1="172" y2="172" /><line stroke="white" stroke-width="1" x1="35" x2="176" y1="173" y2="173" /><line stroke="white" stroke-width="1" x1="35" x2="176" y1="174" y2="174" /><line stroke="white" stroke-width="1" x1="35" x2="176" y1="175" y2="175" /><line stroke="white" stroke-width="1" x1="35" x2="74" y1="176" y2="176" /><line stroke="white" stroke-width="1" x1="87" x2="176" y1="176" y2="176" /><line stroke="white" stroke-width="1" x1="35" x2="71" y1="177" y2="177" /><line stroke="white" stroke-width="1" x1="89" x2="176" y1="177" y2="177" /><line stroke="white" stroke-width="1" x1="35" x2="63" y1="178" y2="178" /><line stroke="white" stroke-width="1" x1="91" x2="176" y1="178" y2="178" /><line stroke="white" stroke-width="1" x1="35" x2="54" y1="179" y2="179" /><line stroke="white" stroke-width="1" x1="93" x2="129" y1="179" y2="179" /><line stroke="white" stroke-width="1" x1="138" x2="176" y1="179" y2="179" /><line stroke="white" stroke-width="1" x1="35" x2="52" y1="180" y2="180" /><line stroke="white" stroke-width="1" x1="94" x2="127" y1="180" y2="180" /><line stroke="white" stroke-width="1" x1="140" x2="176" y1="180" y2="180" /><line stroke="white" stroke-width="1" x1="35" x2="50" y1="181" y2="181" /><line stroke="white" stroke-width="1" x1="95" x2="125" y1="181" y2="181" /><line stroke="white" stroke-width="1" x1="142" x2="176" y1="181" y2="181" /><line stroke="white" stroke-width="1" x1="35" x2="49" y1="182" y2="182" /><line stroke="white" stroke-width="1" x1="101" x2="118" y1="182" y2="182" /><line stroke="white" stroke-width="1" x1="123" x2="123" y1="182" y2="182" /><line stroke="white" stroke-width="1" x1="143" x2="144" y1="182" y2="182" /><line stroke="white" stroke-width="1" x1="150" x2="176" y1="182" y2="182" /><line stroke="white" stroke-width="1" x1="35" x2="48" y1="183" y2="183" /><line stroke="white" stroke-width="1" x1="104" x2="106" y1="183" y2="183" /><line stroke="white" stroke-width="1" x1="154" x2="176" y1="183" y2="183" /><line stroke="white" stroke-width="1" x1="35" x2="47" y1="184" y2="184" /><line stroke="white" stroke-width="1" x1="156" x2="176" y1="184" y2="184" /><line stroke="white" stroke-width="1" x1="35" x2="46" y1="185" y2="185" /><line stroke="white" stroke-width="1" x1="158" x2="176" y1="185" y2="185" /><line stroke="white" stroke-width="1" x1="35" x2="45" y1="186" y2="186" /><line stroke="white" stroke-width="1" x1="162" x2="176" y1="186" y2="186" /><line stroke="white" stroke-width="1" x1="35" x2="45" y1="187" y2="187" /><line stroke="white" stroke-width="1" x1="164" x2="176" y1="187" y2="187" /><line stroke="white" stroke-width="1" x1="35" x2="44" y1="188" y2="188" /><line stroke="white" stroke-width="1" x1="166" x2="176" y1="188" y2="188" /></svg>