<?xml version="1.0" encoding="utf-8" ?>
<svg baseProfile="tiny" height="100%" version="1.2" width="100%" xmlns="http://www.w3.org/2000/svg" xmlns:ev="http://www.w3.org/2001/xml-events" xmlns:xlink="http://www.w3.org/1999/xlink"><defs /><rect fill="black" height="100%" width="100%" x="0" y="0" /><circle cx="241" cy="456" fill="white" r="1" /><circle cx="240" cy="457" fill="white" r="1" /><circle cx="242" cy="457" fill="white" r="1" /><circle cx="243" cy="457" fill="white" r="1" /><circle cx="244" cy="457" fill="white" r="1" /><circle cx="245" cy="457" fill="white" r="1" /><circle cx="246" cy="457" fill="white" r="1" /><circle cx="240" cy="458" fill="white" r="1" /><circle cx="247" cy="458" fill="white" r="1" /><circle cx="248" cy="458" fill="white" r="1" /><circle cx="249" cy="458" fill="white" r="1" /><circle cx="250" cy="458" fill="white" r="1" /><circle cx="251" cy="458" fill="white" r="1" /><circle cx="252" cy="458" fill="white" r="1" /><circle cx="253" cy="458" fill="white" r="1" /><circle cx="254" cy="458" fill="white" r="1" /><circle cx="240" cy="459" fill="white" r="1" /><circle cx="241" cy="459" fill="white" r="1" /><circle cx="242" cy="459" fill="white" r="1" /><circle cx="243" cy="459" fill="white" r="1" /><circle cx="244" cy="459" fill="white" r="1" /><circle cx="245" cy="459" fill="white" r="1" /><circle cx="255" cy="459" fill="white" r="1" /><circle cx="256" cy="459" fill="white" r="1" /><circle cx="257" cy="459" fill="white" r="1" /><circle cx="258" cy="459" fill="white" r="1" /><circle cx="245" cy="460" fill="white" r="1" /><circle cx="246" cy="460" fill="white" r="1" /><circle cx="247" cy="460" fill="white" r="1" /><circle cx="259" cy="460" fill="white" r="1" /><circle cx="260" cy="460" fill="white" r="1" /><circle cx="261" cy="460" fill="white" r="1" /><circle cx="278" cy="460" fill="white" r="1" /><circle cx="280" cy="460" fill="white" r="1" /><circle cx="281" cy="460" fill="white" r="1" /><circle cx="282" cy="460" fill="white" r="1" /><circle cx="248" cy="461" fill="white" r="1" /><circle cx="249" cy="461" fill="white" r="1" /><circle cx="250" cy="461" fill="white" r="1" /><circle cx="262" cy="461" fill="white" r="1" /><circle cx="263" cy="461" fill="white" r="1" /><circle cx="284" cy="461" fill="white" r="1" /><circle cx="285" cy="461" fill="white" r="1" /><circle cx="286" cy="461" fill="white" r="1" /><circle cx="251" cy="462" fill="white" r="1" /><circle cx="252" cy="462" fill="white" r="1" /><circle cx="253" cy="462" fill="white" r="1" /><circle cx="264" cy="462" fill="white" r="1" /><circle cx="265" cy="462" fill="white" r="1" /><circle cx="266" cy="462" fill="white" r="1" /><circle cx="267" cy="462" fill="white" r="1" /><circle cx="268" cy="462" fill="white" r="1" /><circle cx="269" cy="462" fill="white" r="1" /><circle cx="287" cy="462" fill="white" r="1" /><circle cx="288" cy="462" fill="white" r="1" /><circle cx="289" cy="462" fill="white" r="1" /><circle cx="254" cy="463" fill="white" r="1" /><circle cx="270" cy="463" fill="white" r="1" /><circle cx="271" cy="463" fill="white" r="1" /><circle cx="272" cy="463" fill="white" r="1" /><circle cx="273" cy="463" fill="white" r="1" /><circle cx="274" cy="463" fill="white" r="1" /><circle cx="284" cy="463" fill="white" r="1" /><circle cx="285" cy="463" fill="white" r="1" /><circle cx="289" cy="463" fill="white" r="1" /><circle cx="255" cy="464" fill="white" r="1" /><circle cx="275" cy="464" fill="white" r="1" /><circle cx="276" cy="464" fill="white" r="1" /><circle cx="287" cy="464" fill="white" r="1" /><circle cx="288" cy="464" fill="white" r="1" /><circle cx="289" cy="464" fill="white" r="1" /><circle cx="256" cy="465" fill="white" r="1" /><circle cx="257" cy="465" fill="white" r="1" /><circle cx="258" cy="465" fill="white" r="1" /><circle cx="259" cy="465" fill="white" r="1" /><circle cx="260" cy="465" fill="white" r="1" /><circle cx="276" cy="465" fill="white" r="1" /><circle cx="277" cy="465" fill="white" r="1" /><circle cx="296" cy="465" fill="white" r="1" /><circle cx="297" cy="465" fill="white" r="1" /><circle cx="298" cy="465" fill="white" r="1" /><circle cx="261" cy="466" fill="white" r="1" /><circle cx="262" cy="466" fill="white" r="1" /><circle cx="263" cy="466" fill="white" r="1" /><circle cx="264" cy="466" fill="white" r="1" /><circle cx="278" cy="466" fill="white" r="1" /><circle cx="279" cy="466" fill="white" r="1" /><circle cx="280" cy="466" fill="white" r="1" /><circle cx="281" cy="466" fill="white" r="1" /><circle cx="282" cy="466" fill="white" r="1" /><circle cx="283" cy="466" fill="white" r="1" /><circle cx="284" cy="466" fill="white" r="1" /><circle cx="296" cy="466" fill="white" r="1" /><circle cx="299" cy="466" fill="white" r="1" /><circle cx="300" cy="466" fill="white" r="1" /><circle cx="301" cy="466" fill="white" r="1" /><circle cx="302" cy="466" fill="white" r="1" /><circle cx="303" cy="466" fill="white" r="1" /><circle cx="304" cy="466" fill="white" r="1" /><circle cx="256" cy="467" fill="white" r="1" /><circle cx="265" cy="467" fill="white" r="1" /><circle cx="266" cy="467" fill="white" r="1" /><circle cx="267" cy="467" fill="white" r="1" /><circle cx="268" cy="467" fill="white" r="1" /><circle cx="269" cy="467" fill="white" r="1" /><circle cx="270" cy="467" fill="white" r="1" /><circle cx="271" cy="467" fill="white" r="1" /><circle cx="285" cy="467" fill="white" r="1" /><circle cx="286" cy="467" fill="white" r="1" /><circle cx="287" cy="467" fill="white" r="1" /><circle cx="297" cy="467" fill="white" r="1" /><circle cx="305" cy="467" fill="white" r="1" /><circle cx="306" cy="467" fill="white" r="1" /><circle cx="307" cy="467" fill="white" r="1" /><circle cx="254" cy="468" fill="white" r="1" /><circle cx="255" cy="468" fill="white" r="1" /><circle cx="259" cy="468" fill="white" r="1" /><circle cx="260" cy="468" fill="white" r="1" /><circle cx="261" cy="468" fill="white" r="1" /><circle cx="272" cy="468" fill="white" r="1" /><circle cx="273" cy="468" fill="white" r="1" /><circle cx="274" cy="468" fill="white" r="1" /><circle cx="288" cy="468" fill="white" r="1" /><circle cx="289" cy="468" fill="white" r="1" /><circle cx="290" cy="468" fill="white" r="1" /><circle cx="291" cy="468" fill="white" r="1" /><circle cx="292" cy="468" fill="white" r="1" /><circle cx="293" cy="468" fill="white" r="1" /><circle cx="299" cy="468" fill="white" r="1" /><circle cx="300" cy="468" fill="white" r="1" /><circle cx="301" cy="468" fill="white" r="1" /><circle cx="302" cy="468" fill="white" r="1" /><circle cx="303" cy="468" fill="white" r="1" /><circle cx="309" cy="468" fill="white" r="1" /><circle cx="310" cy="468" fill="white" r="1" /><circle cx="254" cy="469" fill="white" r="1" /><circle cx="262" cy="469" fill="white" r="1" /><circle cx="263" cy="469" fill="white" r="1" /><circle cx="264" cy="469" fill="white" r="1" /><circle cx="265" cy="469" fill="white" r="1" /><circle cx="275" cy="469" fill="white" r="1" /><circle cx="276" cy="469" fill="white" r="1" /><circle cx="277" cy="469" fill="white" r="1" /><circle cx="278" cy="469" fill="white" r="1" /><circle cx="279" cy="469" fill="white" r="1" /><circle cx="294" cy="469" fill="white" r="1" /><circle cx="304" cy="469" fill="white" r="1" /><circle cx="305" cy="469" fill="white" r="1" /><circle cx="306" cy="469" fill="white" r="1" /><circle cx="271" cy="470" fill="white" r="1" /><circle cx="272" cy="470" fill="white" r="1" /><circle cx="280" cy="470" fill="white" r="1" /><circle cx="281" cy="470" fill="white" r="1" /><circle cx="282" cy="470" fill="white" r="1" /><circle cx="295" cy="470" fill="white" r="1" /><circle cx="296" cy="470" fill="white" r="1" /><circle cx="256" cy="471" fill="white" r="1" /><circle cx="275" cy="471" fill="white" r="1" /><circle cx="276" cy="471" fill="white" r="1" /><circle cx="283" cy="471" fill="white" r="1" /><circle cx="284" cy="471" fill="white" r="1" /><circle cx="285" cy="471" fill="white" r="1" /><circle cx="286" cy="471" fill="white" r="1" /><circle cx="296" cy="471" fill="white" r="1" /><circle cx="297" cy="471" fill="white" r="1" /><circle cx="255" cy="472" fill="white" r="1" /><circle cx="279" cy="472" fill="white" r="1" /><circle cx="280" cy="472" fill="white" r="1" /><circle cx="287" cy="472" fill="white" r="1" /><circle cx="288" cy="472" fill="white" r="1" /><circle cx="289" cy="472" fill="white" r="1" /><circle cx="290" cy="472" fill="white" r="1" /><circle cx="291" cy="472" fill="white" r="1" /><circle cx="297" cy="472" fill="white" r="1" /><circle cx="256" cy="473" fill="white" r="1" /><circle cx="257" cy="473" fill="white" r="1" /><circle cx="258" cy="473" fill="white" r="1" /><circle cx="259" cy="473" fill="white" r="1" /><circle cx="260" cy="473" fill="white" r="1" /><circle cx="261" cy="473" fill="white" r="1" /><circle cx="284" cy="473" fill="white" r="1" /><circle cx="285" cy="473" fill="white" r="1" /><circle cx="292" cy="473" fill="white" r="1" /><circle cx="293" cy="473" fill="white" r="1" /><circle cx="294" cy="473" fill="white" r="1" /><circle cx="295" cy="473" fill="white" r="1" /><circle cx="298" cy="473" fill="white" r="1" /><circle cx="299" cy="473" fill="white" r="1" /><circle cx="300" cy="473" fill="white" r="1" /><circle cx="301" cy="473" fill="white" r="1" /><circle cx="302" cy="473" fill="white" r="1" /><circle cx="262" cy="474" fill="white" r="1" /><circle cx="263" cy="474" fill="white" r="1" /><circle cx="264" cy="474" fill="white" r="1" /><circle cx="265" cy="474" fill="white" r="1" /><circle cx="266" cy="474" fill="white" r="1" /><circle cx="288" cy="474" fill="white" r="1" /><circle cx="289" cy="474" fill="white" r="1" /><circle cx="290" cy="474" fill="white" r="1" /><circle cx="297" cy="474" fill="white" r="1" /><circle cx="304" cy="474" fill="white" r="1" /><circle cx="267" cy="475" fill="white" r="1" /><circle cx="268" cy="475" fill="white" r="1" /><circle cx="269" cy="475" fill="white" r="1" /><circle cx="270" cy="475" fill="white" r="1" /><circle cx="271" cy="475" fill="white" r="1" /><circle cx="272" cy="475" fill="white" r="1" /><circle cx="293" cy="475" fill="white" r="1" /><circle cx="294" cy="475" fill="white" r="1" /><circle cx="263" cy="477" fill="white" r="1" /><circle cx="263" cy="478" fill="white" r="1" /><circle cx="263" cy="479" fill="white" r="1" /><circle cx="264" cy="479" fill="white" r="1" /><circle cx="265" cy="479" fill="white" r="1" /><circle cx="266" cy="479" fill="white" r="1" /><circle cx="267" cy="479" fill="white" r="1" /><circle cx="268" cy="479" fill="white" r="1" /><circle cx="311" cy="479" fill="white" r="1" /><circle cx="312" cy="480" fill="white" r="1" /><circle cx="313" cy="480" fill="white" r="1" /><circle cx="269" cy="481" fill="white" r="1" /><circle cx="308" cy="481" fill="white" r="1" /><circle cx="309" cy="481" fill="white" r="1" /><circle cx="310" cy="481" fill="white" r="1" /><circle cx="267" cy="482" fill="white" r="1" /><circle cx="268" cy="482" fill="white" r="1" /><circle cx="270" cy="482" fill="white" r="1" /><circle cx="271" cy="482" fill="white" r="1" /><circle cx="272" cy="482" fill="white" r="1" /><circle cx="273" cy="482" fill="white" r="1" /><circle cx="274" cy="482" fill="white" r="1" /><circle cx="275" cy="482" fill="white" r="1" /><circle cx="302" cy="482" fill="white" r="1" /><circle cx="303" cy="482" fill="white" r="1" /><circle cx="304" cy="482" fill="white" r="1" /><circle cx="305" cy="482" fill="white" r="1" /><circle cx="306" cy="482" fill="white" r="1" /><circle cx="307" cy="482" fill="white" r="1" /><circle cx="313" cy="482" fill="white" r="1" /><circle cx="264" cy="483" fill="white" r="1" /><circle cx="265" cy="483" fill="white" r="1" /><circle cx="266" cy="483" fill="white" r="1" /><circle cx="276" cy="483" fill="white" r="1" /><circle cx="277" cy="483" fill="white" r="1" /><circle cx="278" cy="483" fill="white" r="1" /><circle cx="279" cy="483" fill="white" r="1" /><circle cx="311" cy="483" fill="white" r="1" /><circle cx="312" cy="483" fill="white" r="1" /><circle cx="314" cy="483" fill="white" r="1" /><circle cx="315" cy="483" fill="white" r="1" /><circle cx="316" cy="483" fill="white" r="1" /><circle cx="317" cy="483" fill="white" r="1" /><circle cx="271" cy="484" fill="white" r="1" /><circle cx="272" cy="484" fill="white" r="1" /><circle cx="273" cy="484" fill="white" r="1" /><circle cx="274" cy="484" fill="white" r="1" /><circle cx="275" cy="484" fill="white" r="1" /><circle cx="318" cy="484" fill="white" r="1" /><circle cx="319" cy="484" fill="white" r="1" /><circle cx="320" cy="484" fill="white" r="1" /><circle cx="321" cy="484" fill="white" r="1" /><circle cx="322" cy="484" fill="white" r="1" /><circle cx="323" cy="484" fill="white" r="1" /><circle cx="324" cy="484" fill="white" r="1" /><circle cx="264" cy="485" fill="white" r="1" /><circle cx="265" cy="485" fill="white" r="1" /><circle cx="266" cy="485" fill="white" r="1" /><circle cx="276" cy="485" fill="white" r="1" /><circle cx="277" cy="485" fill="white" r="1" /><circle cx="278" cy="485" fill="white" r="1" /><circle cx="279" cy="485" fill="white" r="1" /><circle cx="313" cy="485" fill="white" r="1" /><circle cx="314" cy="485" fill="white" r="1" /><circle cx="326" cy="485" fill="white" r="1" /><circle cx="327" cy="485" fill="white" r="1" /><circle cx="270" cy="486" fill="white" r="1" /><circle cx="271" cy="486" fill="white" r="1" /><circle cx="272" cy="486" fill="white" r="1" /><circle cx="273" cy="486" fill="white" r="1" /><circle cx="274" cy="486" fill="white" r="1" /><circle cx="275" cy="486" fill="white" r="1" /><circle cx="311" cy="486" fill="white" r="1" /><circle cx="312" cy="486" fill="white" r="1" /><circle cx="319" cy="486" fill="white" r="1" /><circle cx="320" cy="486" fill="white" r="1" /><circle cx="321" cy="486" fill="white" r="1" /><circle cx="322" cy="486" fill="white" r="1" /><circle cx="323" cy="486" fill="white" r="1" /><circle cx="330" cy="486" fill="white" r="1" /><circle cx="331" cy="486" fill="white" r="1" /><circle cx="277" cy="487" fill="white" r="1" /><circle cx="278" cy="487" fill="white" r="1" /><circle cx="330" cy="487" fill="white" r="1" /><circle cx="278" cy="488" fill="white" r="1" /><circle cx="279" cy="488" fill="white" r="1" /><circle cx="280" cy="488" fill="white" r="1" /><circle cx="281" cy="488" fill="white" r="1" /><circle cx="282" cy="488" fill="white" r="1" /><circle cx="283" cy="488" fill="white" r="1" /><circle cx="284" cy="488" fill="white" r="1" /><circle cx="285" cy="488" fill="white" r="1" /><circle cx="286" cy="488" fill="white" r="1" /><circle cx="287" cy="488" fill="white" r="1" /><circle cx="288" cy="488" fill="white" r="1" /><circle cx="289" cy="488" fill="white" r="1" /><circle cx="290" cy="488" fill="white" r="1" /><circle cx="291" cy="488" fill="white" r="1" /><circle cx="292" cy="488" fill="white" r="1" /><circle cx="293" cy="488" fill="white" r="1" /><circle cx="294" cy="488" fill="white" r="1" /><circle cx="295" cy="488" fill="white" r="1" /><circle cx="296" cy="488" fill="white" r="1" /><circle cx="297" cy="488" fill="white" r="1" /><circle cx="298" cy="488" fill="white" r="1" /><circle cx="299" cy="488" fill="white" r="1" /><circle cx="300" cy="488" fill="white" r="1" /><circle cx="301" cy="488" fill="white" r="1" /><circle cx="302" cy="488" fill="white" r="1" /><circle cx="303" cy="488" fill="white" r="1" /><circle cx="304" cy="488" fill="white" r="1" /><circle cx="305" cy="488" fill="white" r="1" /><circle cx="306" cy="488" fill="white" r="1" /><circle cx="307" cy="488" fill="white" r="1" /><circle cx="310" cy="488" fill="white" r="1" /><circle cx="311" cy="488" fill="white" r="1" /><circle cx="308" cy="489" fill="white" r="1" /><circle cx="309" cy="489" fill="white" r="1" /><circle cx="756" cy="500" fill="white" r="1" /><circle cx="754" cy="501" fill="white" r="1" /><circle cx="753" cy="502" fill="white" r="1" /><circle cx="756" cy="502" fill="white" r="1" /><circle cx="753" cy="503" fill="white" r="1" /><circle cx="755" cy="503" fill="white" r="1" /><circle cx="752" cy="504" fill="white" r="1" /><circle cx="754" cy="505" fill="white" r="1" /><circle cx="751" cy="506" fill="white" r="1" /><circle cx="750" cy="507" fill="white" r="1" /><circle cx="751" cy="507" fill="white" r="1" /><circle cx="750" cy="508" fill="white" r="1" /><circle cx="749" cy="509" fill="white" r="1" /><circle cx="752" cy="509" fill="white" r="1" /><circle cx="753" cy="509" fill="white" r="1" /><circle cx="748" cy="510" fill="white" r="1" /><circle cx="749" cy="510" fill="white" r="1" /><circle cx="752" cy="510" fill="white" r="1" /><circle cx="748" cy="511" fill="white" r="1" /><circle cx="751" cy="511" fill="white" r="1" /><circle cx="747" cy="512" fill="white" r="1" /><circle cx="750" cy="512" fill="white" r="1" /><circle cx="751" cy="512" fill="white" r="1" /><circle cx="749" cy="513" fill="white" r="1" /><circle cx="750" cy="513" fill="white" r="1" /><circle cx="759" cy="513" fill="white" r="1" /><circle cx="760" cy="513" fill="white" r="1" /><circle cx="747" cy="514" fill="white" r="1" /><circle cx="749" cy="514" fill="white" r="1" /><circle cx="758" cy="514" fill="white" r="1" /><circle cx="758" cy="515" fill="white" r="1" /><circle cx="754" cy="516" fill="white" r="1" /><circle cx="762" cy="516" fill="white" r="1" /><circle cx="753" cy="517" fill="white" r="1" /><circle cx="762" cy="517" fill="white" r="1" /><circle cx="763" cy="517" fill="white" r="1" /><circle cx="752" cy="518" fill="white" r="1" /><circle cx="763" cy="518" fill="white" r="1" /><circle cx="752" cy="519" fill="white" r="1" /><circle cx="763" cy="519" fill="white" r="1" /><circle cx="763" cy="520" fill="white" r="1" /><circle cx="751" cy="522" fill="white" r="1" /><circle cx="751" cy="523" fill="white" r="1" /><circle cx="751" cy="524" fill="white" r="1" /><circle cx="754" cy="524" fill="white" r="1" /><circle cx="755" cy="524" fill="white" r="1" /><circle cx="765" cy="524" fill="white" r="1" /><circle cx="768" cy="524" fill="white" r="1" /><circle cx="736" cy="525" fill="white" r="1" /><circle cx="737" cy="525" fill="white" r="1" /><circle cx="751" cy="525" fill="white" r="1" /><circle cx="753" cy="525" fill="white" r="1" /><circle cx="754" cy="525" fill="white" r="1" /><circle cx="765" cy="525" fill="white" r="1" /><circle cx="767" cy="525" fill="white" r="1" /><circle cx="735" cy="526" fill="white" r="1" /><circle cx="751" cy="526" fill="white" r="1" /><circle cx="760" cy="526" fill="white" r="1" /><circle cx="761" cy="526" fill="white" r="1" /><circle cx="765" cy="526" fill="white" r="1" /><circle cx="767" cy="526" fill="white" r="1" /><circle cx="735" cy="527" fill="white" r="1" /><circle cx="737" cy="527" fill="white" r="1" /><circle cx="752" cy="527" fill="white" r="1" /><circle cx="758" cy="527" fill="white" r="1" /><circle cx="759" cy="527" fill="white" r="1" /><circle cx="766" cy="527" fill="white" r="1" /><circle cx="757" cy="528" fill="white" r="1" /><circle cx="758" cy="528" fill="white" r="1" /><circle cx="763" cy="532" fill="white" r="1" /><circle cx="356" cy="592" fill="white" r="1" /><circle cx="358" cy="592" fill="white" r="1" /><circle cx="354" cy="594" fill="white" r="1" /><circle cx="354" cy="595" fill="white" r="1" /><circle cx="356" cy="595" fill="white" r="1" /><circle cx="359" cy="595" fill="white" r="1" /><circle cx="360" cy="595" fill="white" r="1" /><circle cx="361" cy="595" fill="white" r="1" /><circle cx="362" cy="595" fill="white" r="1" /><circle cx="363" cy="595" fill="white" r="1" /><circle cx="353" cy="596" fill="white" r="1" /><circle cx="354" cy="596" fill="white" r="1" /><circle cx="365" cy="596" fill="white" r="1" /><circle cx="366" cy="596" fill="white" r="1" /><circle cx="352" cy="597" fill="white" r="1" /><circle cx="367" cy="597" fill="white" r="1" /><circle cx="352" cy="598" fill="white" r="1" /><circle cx="367" cy="598" fill="white" r="1" /><circle cx="352" cy="599" fill="white" r="1" /><circle cx="367" cy="599" fill="white" r="1" /><circle cx="352" cy="600" fill="white" r="1" /><circle cx="368" cy="600" fill="white" r="1" /><circle cx="351" cy="601" fill="white" r="1" /><circle cx="369" cy="601" fill="white" r="1" /><circle cx="351" cy="602" fill="white" r="1" /><circle cx="369" cy="602" fill="white" r="1" /><circle cx="352" cy="603" fill="white" r="1" /><circle cx="369" cy="603" fill="white" r="1" /><circle cx="352" cy="604" fill="white" r="1" /><circle cx="353" cy="604" fill="white" r="1" /><circle cx="367" cy="604" fill="white" r="1" /><circle cx="368" cy="604" fill="white" r="1" /><circle cx="353" cy="605" fill="white" r="1" /><circle cx="354" cy="605" fill="white" r="1" /><circle cx="366" cy="605" fill="white" r="1" /><circle cx="367" cy="605" fill="white" r="1" /><circle cx="354" cy="606" fill="white" r="1" /><circle cx="355" cy="606" fill="white" r="1" /><circle cx="364" cy="606" fill="white" r="1" /><circle cx="365" cy="606" fill="white" r="1" /><circle cx="355" cy="607" fill="white" r="1" /><circle cx="356" cy="607" fill="white" r="1" /><circle cx="361" cy="607" fill="white" r="1" /><circle cx="362" cy="607" fill="white" r="1" /><circle cx="363" cy="607" fill="white" r="1" /><circle cx="364" cy="607" fill="white" r="1" /><circle cx="357" cy="608" fill="white" r="1" /><circle cx="358" cy="608" fill="white" r="1" /><circle cx="359" cy="608" fill="white" r="1" /><circle cx="360" cy="608" fill="white" r="1" /><circle cx="416" cy="661" fill="white" r="1" /><circle cx="416" cy="662" fill="white" r="1" /><circle cx="406" cy="663" fill="white" r="1" /><circle cx="407" cy="663" fill="white" r="1" /><circle cx="408" cy="663" fill="white" r="1" /><circle cx="415" cy="663" fill="white" r="1" /><circle cx="417" cy="663" fill="white" r="1" /><circle cx="405" cy="664" fill="white" r="1" /><circle cx="409" cy="664" fill="white" r="1" /><circle cx="415" cy="664" fill="white" r="1" /><circle cx="417" cy="664" fill="white" r="1" /><circle cx="405" cy="665" fill="white" r="1" /><circle cx="409" cy="665" fill="white" r="1" /><circle cx="415" cy="665" fill="white" r="1" /><circle cx="417" cy="665" fill="white" r="1" /><circle cx="405" cy="666" fill="white" r="1" /><circle cx="408" cy="666" fill="white" r="1" /><circle cx="409" cy="666" fill="white" r="1" /><circle cx="415" cy="666" fill="white" r="1" /><circle cx="417" cy="666" fill="white" r="1" /><circle cx="407" cy="667" fill="white" r="1" /><circle cx="408" cy="667" fill="white" r="1" /><circle cx="415" cy="667" fill="white" r="1" /><circle cx="417" cy="667" fill="white" r="1" /></svg>