<?xml version="1.0" encoding="utf-8" ?>
<svg baseProfile="tiny" height="100%" version="1.2" width="100%" xmlns="http://www.w3.org/2000/svg" xmlns:ev="http://www.w3.org/2001/xml-events" xmlns:xlink="http://www.w3.org/1999/xlink"><defs /><rect fill="black" height="100%" width="100%" x="0" y="0" /><circle cx="104" cy="464" fill="white" r="1" /><circle cx="103" cy="465" fill="white" r="1" /><circle cx="105" cy="465" fill="white" r="1" /><circle cx="102" cy="466" fill="white" r="1" /><circle cx="106" cy="466" fill="white" r="1" /><circle cx="277" cy="466" fill="white" r="1" /><circle cx="278" cy="466" fill="white" r="1" /><circle cx="103" cy="467" fill="white" r="1" /><circle cx="107" cy="467" fill="white" r="1" /><circle cx="108" cy="467" fill="white" r="1" /><circle cx="109" cy="467" fill="white" r="1" /><circle cx="110" cy="467" fill="white" r="1" /><circle cx="103" cy="468" fill="white" r="1" /><circle cx="104" cy="468" fill="white" r="1" /><circle cx="105" cy="468" fill="white" r="1" /><circle cx="111" cy="468" fill="white" r="1" /><circle cx="294" cy="468" fill="white" r="1" /><circle cx="295" cy="468" fill="white" r="1" /><circle cx="312" cy="468" fill="white" r="1" /><circle cx="313" cy="468" fill="white" r="1" /><circle cx="314" cy="468" fill="white" r="1" /><circle cx="315" cy="468" fill="white" r="1" /><circle cx="111" cy="469" fill="white" r="1" /><circle cx="296" cy="469" fill="white" r="1" /><circle cx="297" cy="469" fill="white" r="1" /><circle cx="298" cy="469" fill="white" r="1" /><circle cx="299" cy="469" fill="white" r="1" /><circle cx="300" cy="469" fill="white" r="1" /><circle cx="302" cy="469" fill="white" r="1" /><circle cx="303" cy="469" fill="white" r="1" /><circle cx="316" cy="469" fill="white" r="1" /><circle cx="317" cy="469" fill="white" r="1" /><circle cx="318" cy="469" fill="white" r="1" /><circle cx="116" cy="470" fill="white" r="1" /><circle cx="117" cy="470" fill="white" r="1" /><circle cx="118" cy="470" fill="white" r="1" /><circle cx="294" cy="470" fill="white" r="1" /><circle cx="295" cy="470" fill="white" r="1" /><circle cx="301" cy="470" fill="white" r="1" /><circle cx="319" cy="470" fill="white" r="1" /><circle cx="320" cy="470" fill="white" r="1" /><circle cx="321" cy="470" fill="white" r="1" /><circle cx="322" cy="470" fill="white" r="1" /><circle cx="323" cy="470" fill="white" r="1" /><circle cx="103" cy="471" fill="white" r="1" /><circle cx="296" cy="471" fill="white" r="1" /><circle cx="297" cy="471" fill="white" r="1" /><circle cx="304" cy="471" fill="white" r="1" /><circle cx="305" cy="471" fill="white" r="1" /><circle cx="306" cy="471" fill="white" r="1" /><circle cx="307" cy="471" fill="white" r="1" /><circle cx="308" cy="471" fill="white" r="1" /><circle cx="324" cy="471" fill="white" r="1" /><circle cx="325" cy="471" fill="white" r="1" /><circle cx="326" cy="471" fill="white" r="1" /><circle cx="102" cy="472" fill="white" r="1" /><circle cx="103" cy="472" fill="white" r="1" /><circle cx="105" cy="472" fill="white" r="1" /><circle cx="297" cy="472" fill="white" r="1" /><circle cx="309" cy="472" fill="white" r="1" /><circle cx="310" cy="472" fill="white" r="1" /><circle cx="311" cy="472" fill="white" r="1" /><circle cx="312" cy="472" fill="white" r="1" /><circle cx="315" cy="472" fill="white" r="1" /><circle cx="320" cy="472" fill="white" r="1" /><circle cx="321" cy="472" fill="white" r="1" /><circle cx="327" cy="472" fill="white" r="1" /><circle cx="328" cy="472" fill="white" r="1" /><circle cx="329" cy="472" fill="white" r="1" /><circle cx="330" cy="472" fill="white" r="1" /><circle cx="331" cy="472" fill="white" r="1" /><circle cx="102" cy="473" fill="white" r="1" /><circle cx="104" cy="473" fill="white" r="1" /><circle cx="298" cy="473" fill="white" r="1" /><circle cx="299" cy="473" fill="white" r="1" /><circle cx="300" cy="473" fill="white" r="1" /><circle cx="301" cy="473" fill="white" r="1" /><circle cx="302" cy="473" fill="white" r="1" /><circle cx="313" cy="473" fill="white" r="1" /><circle cx="314" cy="473" fill="white" r="1" /><circle cx="322" cy="473" fill="white" r="1" /><circle cx="323" cy="473" fill="white" r="1" /><circle cx="332" cy="473" fill="white" r="1" /><circle cx="333" cy="473" fill="white" r="1" /><circle cx="334" cy="473" fill="white" r="1" /><circle cx="102" cy="474" fill="white" r="1" /><circle cx="104" cy="474" fill="white" r="1" /><circle cx="303" cy="474" fill="white" r="1" /><circle cx="304" cy="474" fill="white" r="1" /><circle cx="317" cy="474" fill="white" r="1" /><circle cx="318" cy="474" fill="white" r="1" /><circle cx="319" cy="474" fill="white" r="1" /><circle cx="328" cy="474" fill="white" r="1" /><circle cx="329" cy="474" fill="white" r="1" /><circle cx="330" cy="474" fill="white" r="1" /><circle cx="336" cy="474" fill="white" r="1" /><circle cx="337" cy="474" fill="white" r="1" /><circle cx="338" cy="474" fill="white" r="1" /><circle cx="102" cy="475" fill="white" r="1" /><circle cx="103" cy="475" fill="white" r="1" /><circle cx="304" cy="475" fill="white" r="1" /><circle cx="305" cy="475" fill="white" r="1" /><circle cx="306" cy="475" fill="white" r="1" /><circle cx="307" cy="475" fill="white" r="1" /><circle cx="320" cy="475" fill="white" r="1" /><circle cx="321" cy="475" fill="white" r="1" /><circle cx="332" cy="475" fill="white" r="1" /><circle cx="333" cy="475" fill="white" r="1" /><circle cx="339" cy="475" fill="white" r="1" /><circle cx="340" cy="475" fill="white" r="1" /><circle cx="341" cy="475" fill="white" r="1" /><circle cx="342" cy="475" fill="white" r="1" /><circle cx="300" cy="476" fill="white" r="1" /><circle cx="301" cy="476" fill="white" r="1" /><circle cx="302" cy="476" fill="white" r="1" /><circle cx="303" cy="476" fill="white" r="1" /><circle cx="308" cy="476" fill="white" r="1" /><circle cx="309" cy="476" fill="white" r="1" /><circle cx="310" cy="476" fill="white" r="1" /><circle cx="311" cy="476" fill="white" r="1" /><circle cx="325" cy="476" fill="white" r="1" /><circle cx="326" cy="476" fill="white" r="1" /><circle cx="327" cy="476" fill="white" r="1" /><circle cx="328" cy="476" fill="white" r="1" /><circle cx="336" cy="476" fill="white" r="1" /><circle cx="337" cy="476" fill="white" r="1" /><circle cx="338" cy="476" fill="white" r="1" /><circle cx="343" cy="476" fill="white" r="1" /><circle cx="344" cy="476" fill="white" r="1" /><circle cx="304" cy="477" fill="white" r="1" /><circle cx="312" cy="477" fill="white" r="1" /><circle cx="313" cy="477" fill="white" r="1" /><circle cx="314" cy="477" fill="white" r="1" /><circle cx="315" cy="477" fill="white" r="1" /><circle cx="316" cy="477" fill="white" r="1" /><circle cx="329" cy="477" fill="white" r="1" /><circle cx="330" cy="477" fill="white" r="1" /><circle cx="331" cy="477" fill="white" r="1" /><circle cx="332" cy="477" fill="white" r="1" /><circle cx="339" cy="477" fill="white" r="1" /><circle cx="340" cy="477" fill="white" r="1" /><circle cx="341" cy="477" fill="white" r="1" /><circle cx="300" cy="478" fill="white" r="1" /><circle cx="301" cy="478" fill="white" r="1" /><circle cx="302" cy="478" fill="white" r="1" /><circle cx="303" cy="478" fill="white" r="1" /><circle cx="308" cy="478" fill="white" r="1" /><circle cx="317" cy="478" fill="white" r="1" /><circle cx="318" cy="478" fill="white" r="1" /><circle cx="319" cy="478" fill="white" r="1" /><circle cx="320" cy="478" fill="white" r="1" /><circle cx="333" cy="478" fill="white" r="1" /><circle cx="334" cy="478" fill="white" r="1" /><circle cx="335" cy="478" fill="white" r="1" /><circle cx="336" cy="478" fill="white" r="1" /><circle cx="106" cy="479" fill="white" r="1" /><circle cx="107" cy="479" fill="white" r="1" /><circle cx="108" cy="479" fill="white" r="1" /><circle cx="109" cy="479" fill="white" r="1" /><circle cx="110" cy="479" fill="white" r="1" /><circle cx="304" cy="479" fill="white" r="1" /><circle cx="305" cy="479" fill="white" r="1" /><circle cx="306" cy="479" fill="white" r="1" /><circle cx="307" cy="479" fill="white" r="1" /><circle cx="313" cy="479" fill="white" r="1" /><circle cx="314" cy="479" fill="white" r="1" /><circle cx="315" cy="479" fill="white" r="1" /><circle cx="322" cy="479" fill="white" r="1" /><circle cx="323" cy="479" fill="white" r="1" /><circle cx="324" cy="479" fill="white" r="1" /><circle cx="325" cy="479" fill="white" r="1" /><circle cx="326" cy="479" fill="white" r="1" /><circle cx="337" cy="479" fill="white" r="1" /><circle cx="338" cy="479" fill="white" r="1" /><circle cx="339" cy="479" fill="white" r="1" /><circle cx="340" cy="479" fill="white" r="1" /><circle cx="111" cy="480" fill="white" r="1" /><circle cx="302" cy="480" fill="white" r="1" /><circle cx="303" cy="480" fill="white" r="1" /><circle cx="311" cy="480" fill="white" r="1" /><circle cx="312" cy="480" fill="white" r="1" /><circle cx="318" cy="480" fill="white" r="1" /><circle cx="319" cy="480" fill="white" r="1" /><circle cx="327" cy="480" fill="white" r="1" /><circle cx="328" cy="480" fill="white" r="1" /><circle cx="329" cy="480" fill="white" r="1" /><circle cx="330" cy="480" fill="white" r="1" /><circle cx="331" cy="480" fill="white" r="1" /><circle cx="341" cy="480" fill="white" r="1" /><circle cx="342" cy="480" fill="white" r="1" /><circle cx="343" cy="480" fill="white" r="1" /><circle cx="106" cy="481" fill="white" r="1" /><circle cx="107" cy="481" fill="white" r="1" /><circle cx="108" cy="481" fill="white" r="1" /><circle cx="109" cy="481" fill="white" r="1" /><circle cx="111" cy="481" fill="white" r="1" /><circle cx="308" cy="481" fill="white" r="1" /><circle cx="309" cy="481" fill="white" r="1" /><circle cx="310" cy="481" fill="white" r="1" /><circle cx="322" cy="481" fill="white" r="1" /><circle cx="323" cy="481" fill="white" r="1" /><circle cx="324" cy="481" fill="white" r="1" /><circle cx="325" cy="481" fill="white" r="1" /><circle cx="332" cy="481" fill="white" r="1" /><circle cx="333" cy="481" fill="white" r="1" /><circle cx="334" cy="481" fill="white" r="1" /><circle cx="335" cy="481" fill="white" r="1" /><circle cx="344" cy="481" fill="white" r="1" /><circle cx="345" cy="481" fill="white" r="1" /><circle cx="346" cy="481" fill="white" r="1" /><circle cx="127" cy="482" fill="white" r="1" /><circle cx="128" cy="482" fill="white" r="1" /><circle cx="129" cy="482" fill="white" r="1" /><circle cx="130" cy="482" fill="white" r="1" /><circle cx="131" cy="482" fill="white" r="1" /><circle cx="132" cy="482" fill="white" r="1" /><circle cx="133" cy="482" fill="white" r="1" /><circle cx="134" cy="482" fill="white" r="1" /><circle cx="135" cy="482" fill="white" r="1" /><circle cx="136" cy="482" fill="white" r="1" /><circle cx="302" cy="482" fill="white" r="1" /><circle cx="303" cy="482" fill="white" r="1" /><circle cx="304" cy="482" fill="white" r="1" /><circle cx="305" cy="482" fill="white" r="1" /><circle cx="306" cy="482" fill="white" r="1" /><circle cx="307" cy="482" fill="white" r="1" /><circle cx="313" cy="482" fill="white" r="1" /><circle cx="328" cy="482" fill="white" r="1" /><circle cx="329" cy="482" fill="white" r="1" /><circle cx="330" cy="482" fill="white" r="1" /><circle cx="337" cy="482" fill="white" r="1" /><circle cx="338" cy="482" fill="white" r="1" /><circle cx="339" cy="482" fill="white" r="1" /><circle cx="340" cy="482" fill="white" r="1" /><circle cx="347" cy="482" fill="white" r="1" /><circle cx="121" cy="483" fill="white" r="1" /><circle cx="122" cy="483" fill="white" r="1" /><circle cx="123" cy="483" fill="white" r="1" /><circle cx="124" cy="483" fill="white" r="1" /><circle cx="125" cy="483" fill="white" r="1" /><circle cx="126" cy="483" fill="white" r="1" /><circle cx="311" cy="483" fill="white" r="1" /><circle cx="312" cy="483" fill="white" r="1" /><circle cx="314" cy="483" fill="white" r="1" /><circle cx="315" cy="483" fill="white" r="1" /><circle cx="316" cy="483" fill="white" r="1" /><circle cx="317" cy="483" fill="white" r="1" /><circle cx="333" cy="483" fill="white" r="1" /><circle cx="334" cy="483" fill="white" r="1" /><circle cx="341" cy="483" fill="white" r="1" /><circle cx="342" cy="483" fill="white" r="1" /><circle cx="343" cy="483" fill="white" r="1" /><circle cx="344" cy="483" fill="white" r="1" /><circle cx="348" cy="483" fill="white" r="1" /><circle cx="349" cy="483" fill="white" r="1" /><circle cx="318" cy="484" fill="white" r="1" /><circle cx="319" cy="484" fill="white" r="1" /><circle cx="320" cy="484" fill="white" r="1" /><circle cx="321" cy="484" fill="white" r="1" /><circle cx="322" cy="484" fill="white" r="1" /><circle cx="323" cy="484" fill="white" r="1" /><circle cx="324" cy="484" fill="white" r="1" /><circle cx="337" cy="484" fill="white" r="1" /><circle cx="338" cy="484" fill="white" r="1" /><circle cx="339" cy="484" fill="white" r="1" /><circle cx="346" cy="484" fill="white" r="1" /><circle cx="347" cy="484" fill="white" r="1" /><circle cx="313" cy="485" fill="white" r="1" /><circle cx="314" cy="485" fill="white" r="1" /><circle cx="326" cy="485" fill="white" r="1" /><circle cx="327" cy="485" fill="white" r="1" /><circle cx="328" cy="485" fill="white" r="1" /><circle cx="329" cy="485" fill="white" r="1" /><circle cx="330" cy="485" fill="white" r="1" /><circle cx="342" cy="485" fill="white" r="1" /><circle cx="343" cy="485" fill="white" r="1" /><circle cx="348" cy="485" fill="white" r="1" /><circle cx="349" cy="485" fill="white" r="1" /><circle cx="125" cy="486" fill="white" r="1" /><circle cx="138" cy="486" fill="white" r="1" /><circle cx="141" cy="486" fill="white" r="1" /><circle cx="142" cy="486" fill="white" r="1" /><circle cx="311" cy="486" fill="white" r="1" /><circle cx="312" cy="486" fill="white" r="1" /><circle cx="319" cy="486" fill="white" r="1" /><circle cx="320" cy="486" fill="white" r="1" /><circle cx="321" cy="486" fill="white" r="1" /><circle cx="322" cy="486" fill="white" r="1" /><circle cx="323" cy="486" fill="white" r="1" /><circle cx="332" cy="486" fill="white" r="1" /><circle cx="333" cy="486" fill="white" r="1" /><circle cx="334" cy="486" fill="white" r="1" /><circle cx="335" cy="486" fill="white" r="1" /><circle cx="336" cy="486" fill="white" r="1" /><circle cx="346" cy="486" fill="white" r="1" /><circle cx="347" cy="486" fill="white" r="1" /><circle cx="352" cy="486" fill="white" r="1" /><circle cx="353" cy="486" fill="white" r="1" /><circle cx="134" cy="487" fill="white" r="1" /><circle cx="135" cy="487" fill="white" r="1" /><circle cx="136" cy="487" fill="white" r="1" /><circle cx="137" cy="487" fill="white" r="1" /><circle cx="139" cy="487" fill="white" r="1" /><circle cx="140" cy="487" fill="white" r="1" /><circle cx="326" cy="487" fill="white" r="1" /><circle cx="327" cy="487" fill="white" r="1" /><circle cx="328" cy="487" fill="white" r="1" /><circle cx="329" cy="487" fill="white" r="1" /><circle cx="337" cy="487" fill="white" r="1" /><circle cx="338" cy="487" fill="white" r="1" /><circle cx="339" cy="487" fill="white" r="1" /><circle cx="340" cy="487" fill="white" r="1" /><circle cx="341" cy="487" fill="white" r="1" /><circle cx="342" cy="487" fill="white" r="1" /><circle cx="350" cy="487" fill="white" r="1" /><circle cx="351" cy="487" fill="white" r="1" /><circle cx="332" cy="488" fill="white" r="1" /><circle cx="333" cy="488" fill="white" r="1" /><circle cx="334" cy="488" fill="white" r="1" /><circle cx="335" cy="488" fill="white" r="1" /><circle cx="343" cy="488" fill="white" r="1" /><circle cx="344" cy="488" fill="white" r="1" /><circle cx="345" cy="488" fill="white" r="1" /><circle cx="347" cy="488" fill="white" r="1" /><circle cx="348" cy="488" fill="white" r="1" /><circle cx="349" cy="488" fill="white" r="1" /><circle cx="354" cy="488" fill="white" r="1" /><circle cx="313" cy="489" fill="white" r="1" /><circle cx="337" cy="489" fill="white" r="1" /><circle cx="338" cy="489" fill="white" r="1" /><circle cx="339" cy="489" fill="white" r="1" /><circle cx="340" cy="489" fill="white" r="1" /><circle cx="350" cy="489" fill="white" r="1" /><circle cx="351" cy="489" fill="white" r="1" /><circle cx="352" cy="489" fill="white" r="1" /><circle cx="314" cy="490" fill="white" r="1" /><circle cx="315" cy="490" fill="white" r="1" /><circle cx="316" cy="490" fill="white" r="1" /><circle cx="317" cy="490" fill="white" r="1" /><circle cx="318" cy="490" fill="white" r="1" /><circle cx="319" cy="490" fill="white" r="1" /><circle cx="320" cy="490" fill="white" r="1" /><circle cx="321" cy="490" fill="white" r="1" /><circle cx="322" cy="490" fill="white" r="1" /><circle cx="323" cy="490" fill="white" r="1" /><circle cx="343" cy="490" fill="white" r="1" /><circle cx="344" cy="490" fill="white" r="1" /><circle cx="345" cy="490" fill="white" r="1" /><circle cx="324" cy="491" fill="white" r="1" /><circle cx="325" cy="491" fill="white" r="1" /><circle cx="326" cy="491" fill="white" r="1" /><circle cx="327" cy="491" fill="white" r="1" /><circle cx="328" cy="491" fill="white" r="1" /><circle cx="333" cy="491" fill="white" r="1" /><circle cx="346" cy="491" fill="white" r="1" /><circle cx="347" cy="491" fill="white" r="1" /><circle cx="348" cy="491" fill="white" r="1" /><circle cx="329" cy="492" fill="white" r="1" /><circle cx="330" cy="492" fill="white" r="1" /><circle cx="331" cy="492" fill="white" r="1" /><circle cx="332" cy="492" fill="white" r="1" /><circle cx="334" cy="492" fill="white" r="1" /><circle cx="335" cy="492" fill="white" r="1" /><circle cx="338" cy="492" fill="white" r="1" /><circle cx="339" cy="492" fill="white" r="1" /><circle cx="340" cy="492" fill="white" r="1" /><circle cx="341" cy="492" fill="white" r="1" /><circle cx="349" cy="492" fill="white" r="1" /><circle cx="350" cy="492" fill="white" r="1" /><circle cx="351" cy="492" fill="white" r="1" /><circle cx="352" cy="492" fill="white" r="1" /><circle cx="130" cy="493" fill="white" r="1" /><circle cx="132" cy="493" fill="white" r="1" /><circle cx="133" cy="493" fill="white" r="1" /><circle cx="134" cy="493" fill="white" r="1" /><circle cx="135" cy="493" fill="white" r="1" /><circle cx="136" cy="493" fill="white" r="1" /><circle cx="137" cy="493" fill="white" r="1" /><circle cx="138" cy="493" fill="white" r="1" /><circle cx="139" cy="493" fill="white" r="1" /><circle cx="140" cy="493" fill="white" r="1" /><circle cx="141" cy="493" fill="white" r="1" /><circle cx="142" cy="493" fill="white" r="1" /><circle cx="336" cy="493" fill="white" r="1" /><circle cx="337" cy="493" fill="white" r="1" /><circle cx="342" cy="493" fill="white" r="1" /><circle cx="343" cy="493" fill="white" r="1" /><circle cx="344" cy="493" fill="white" r="1" /><circle cx="345" cy="493" fill="white" r="1" /><circle cx="346" cy="493" fill="white" r="1" /><circle cx="353" cy="493" fill="white" r="1" /><circle cx="354" cy="493" fill="white" r="1" /><circle cx="355" cy="493" fill="white" r="1" /><circle cx="356" cy="493" fill="white" r="1" /><circle cx="350" cy="494" fill="white" r="1" /><circle cx="351" cy="494" fill="white" r="1" /><circle cx="352" cy="494" fill="white" r="1" /><circle cx="353" cy="495" fill="white" r="1" /><circle cx="354" cy="495" fill="white" r="1" /><circle cx="355" cy="495" fill="white" r="1" /><circle cx="356" cy="495" fill="white" r="1" /><circle cx="101" cy="497" fill="white" r="1" /><circle cx="102" cy="497" fill="white" r="1" /><circle cx="100" cy="498" fill="white" r="1" /><circle cx="103" cy="498" fill="white" r="1" /><circle cx="104" cy="498" fill="white" r="1" /><circle cx="130" cy="498" fill="white" r="1" /><circle cx="132" cy="498" fill="white" r="1" /><circle cx="133" cy="498" fill="white" r="1" /><circle cx="139" cy="498" fill="white" r="1" /><circle cx="140" cy="498" fill="white" r="1" /><circle cx="141" cy="498" fill="white" r="1" /><circle cx="100" cy="499" fill="white" r="1" /><circle cx="134" cy="499" fill="white" r="1" /><circle cx="135" cy="500" fill="white" r="1" /><circle cx="136" cy="500" fill="white" r="1" /><circle cx="137" cy="500" fill="white" r="1" /><circle cx="138" cy="500" fill="white" r="1" /><circle cx="139" cy="500" fill="white" r="1" /><circle cx="140" cy="500" fill="white" r="1" /><circle cx="130" cy="501" fill="white" r="1" /><circle cx="130" cy="502" fill="white" r="1" /><circle cx="130" cy="503" fill="white" r="1" /><circle cx="100" cy="506" fill="white" r="1" /><circle cx="101" cy="506" fill="white" r="1" /><circle cx="102" cy="506" fill="white" r="1" /><circle cx="103" cy="506" fill="white" r="1" /><circle cx="104" cy="506" fill="white" r="1" /><circle cx="105" cy="506" fill="white" r="1" /><circle cx="107" cy="506" fill="white" r="1" /><circle cx="156" cy="506" fill="white" r="1" /><circle cx="157" cy="506" fill="white" r="1" /><circle cx="155" cy="507" fill="white" r="1" /><circle cx="155" cy="508" fill="white" r="1" /><circle cx="157" cy="508" fill="white" r="1" /><circle cx="130" cy="509" fill="white" r="1" /><circle cx="131" cy="509" fill="white" r="1" /><circle cx="130" cy="510" fill="white" r="1" /><circle cx="120" cy="512" fill="white" r="1" /><circle cx="121" cy="512" fill="white" r="1" /><circle cx="122" cy="512" fill="white" r="1" /><circle cx="120" cy="513" fill="white" r="1" /><circle cx="122" cy="513" fill="white" r="1" /><circle cx="107" cy="514" fill="white" r="1" /><circle cx="114" cy="514" fill="white" r="1" /><circle cx="115" cy="514" fill="white" r="1" /><circle cx="116" cy="514" fill="white" r="1" /><circle cx="121" cy="514" fill="white" r="1" /><circle cx="105" cy="515" fill="white" r="1" /><circle cx="106" cy="515" fill="white" r="1" /><circle cx="113" cy="515" fill="white" r="1" /><circle cx="103" cy="516" fill="white" r="1" /><circle cx="104" cy="516" fill="white" r="1" /><circle cx="115" cy="516" fill="white" r="1" /><circle cx="102" cy="517" fill="white" r="1" /><circle cx="105" cy="517" fill="white" r="1" /><circle cx="104" cy="518" fill="white" r="1" /><circle cx="107" cy="518" fill="white" r="1" /><circle cx="105" cy="519" fill="white" r="1" /><circle cx="106" cy="519" fill="white" r="1" /><circle cx="766" cy="524" fill="white" r="1" /><circle cx="767" cy="524" fill="white" r="1" /><circle cx="768" cy="524" fill="white" r="1" /><circle cx="766" cy="525" fill="white" r="1" /><circle cx="105" cy="526" fill="white" r="1" /><circle cx="106" cy="526" fill="white" r="1" /><circle cx="107" cy="526" fill="white" r="1" /><circle cx="107" cy="527" fill="white" r="1" /><circle cx="104" cy="528" fill="white" r="1" /><circle cx="107" cy="528" fill="white" r="1" /><circle cx="103" cy="529" fill="white" r="1" /><circle cx="106" cy="529" fill="white" r="1" /><circle cx="105" cy="530" fill="white" r="1" /><circle cx="757" cy="534" fill="white" r="1" /><circle cx="759" cy="534" fill="white" r="1" /><circle cx="757" cy="535" fill="white" r="1" /><circle cx="759" cy="535" fill="white" r="1" /><circle cx="757" cy="536" fill="white" r="1" /><circle cx="758" cy="536" fill="white" r="1" /><circle cx="408" cy="627" fill="white" r="1" /><circle cx="409" cy="627" fill="white" r="1" /><circle cx="407" cy="628" fill="white" r="1" /><circle cx="410" cy="628" fill="white" r="1" /><circle cx="411" cy="628" fill="white" r="1" /><circle cx="412" cy="628" fill="white" r="1" /><circle cx="406" cy="629" fill="white" r="1" /><circle cx="413" cy="629" fill="white" r="1" /><circle cx="414" cy="629" fill="white" r="1" /><circle cx="415" cy="629" fill="white" r="1" /><circle cx="406" cy="630" fill="white" r="1" /><circle cx="416" cy="630" fill="white" r="1" /><circle cx="417" cy="630" fill="white" r="1" /><circle cx="406" cy="631" fill="white" r="1" /><circle cx="417" cy="631" fill="white" r="1" /><circle cx="418" cy="631" fill="white" r="1" /><circle cx="406" cy="632" fill="white" r="1" /><circle cx="419" cy="632" fill="white" r="1" /><circle cx="420" cy="632" fill="white" r="1" /><circle cx="406" cy="633" fill="white" r="1" /><circle cx="420" cy="633" fill="white" r="1" /><circle cx="421" cy="633" fill="white" r="1" /><circle cx="406" cy="634" fill="white" r="1" /><circle cx="422" cy="634" fill="white" r="1" /><circle cx="423" cy="634" fill="white" r="1" /><circle cx="406" cy="635" fill="white" r="1" /><circle cx="423" cy="635" fill="white" r="1" /><circle cx="406" cy="636" fill="white" r="1" /><circle cx="424" cy="636" fill="white" r="1" /><circle cx="406" cy="637" fill="white" r="1" /><circle cx="424" cy="637" fill="white" r="1" /><circle cx="425" cy="637" fill="white" r="1" /><circle cx="406" cy="638" fill="white" r="1" /><circle cx="425" cy="638" fill="white" r="1" /><circle cx="426" cy="638" fill="white" r="1" /><circle cx="406" cy="639" fill="white" r="1" /><circle cx="426" cy="639" fill="white" r="1" /><circle cx="406" cy="640" fill="white" r="1" /><circle cx="427" cy="640" fill="white" r="1" /><circle cx="406" cy="641" fill="white" r="1" /><circle cx="427" cy="641" fill="white" r="1" /><circle cx="406" cy="642" fill="white" r="1" /><circle cx="428" cy="642" fill="white" r="1" /><circle cx="406" cy="643" fill="white" r="1" /><circle cx="428" cy="643" fill="white" r="1" /><circle cx="406" cy="644" fill="white" r="1" /><circle cx="429" cy="644" fill="white" r="1" /><circle cx="406" cy="645" fill="white" r="1" /><circle cx="429" cy="645" fill="white" r="1" /><circle cx="406" cy="646" fill="white" r="1" /><circle cx="428" cy="646" fill="white" r="1" /><circle cx="429" cy="646" fill="white" r="1" /><circle cx="406" cy="647" fill="white" r="1" /><circle cx="423" cy="647" fill="white" r="1" /><circle cx="424" cy="647" fill="white" r="1" /><circle cx="425" cy="647" fill="white" r="1" /><circle cx="427" cy="647" fill="white" r="1" /><circle cx="428" cy="647" fill="white" r="1" /><circle cx="406" cy="648" fill="white" r="1" /><circle cx="423" cy="648" fill="white" r="1" /><circle cx="425" cy="648" fill="white" r="1" /><circle cx="406" cy="649" fill="white" r="1" /><circle cx="423" cy="649" fill="white" r="1" /><circle cx="406" cy="650" fill="white" r="1" /><circle cx="424" cy="650" fill="white" r="1" /><circle cx="406" cy="651" fill="white" r="1" /><circle cx="424" cy="651" fill="white" r="1" /><circle cx="426" cy="651" fill="white" r="1" /><circle cx="406" cy="652" fill="white" r="1" /><circle cx="424" cy="652" fill="white" r="1" /><circle cx="426" cy="652" fill="white" r="1" /><circle cx="406" cy="653" fill="white" r="1" /><circle cx="423" cy="653" fill="white" r="1" /><circle cx="426" cy="653" fill="white" r="1" /><circle cx="406" cy="654" fill="white" r="1" /><circle cx="408" cy="654" fill="white" r="1" /><circle cx="410" cy="654" fill="white" r="1" /><circle cx="423" cy="654" fill="white" r="1" /><circle cx="405" cy="655" fill="white" r="1" /><circle cx="408" cy="655" fill="white" r="1" /><circle cx="410" cy="655" fill="white" r="1" /><circle cx="423" cy="655" fill="white" r="1" /><circle cx="405" cy="656" fill="white" r="1" /><circle cx="408" cy="656" fill="white" r="1" /><circle cx="410" cy="656" fill="white" r="1" /><circle cx="421" cy="656" fill="white" r="1" /><circle cx="422" cy="656" fill="white" r="1" /><circle cx="405" cy="657" fill="white" r="1" /><circle cx="408" cy="657" fill="white" r="1" /><circle cx="410" cy="657" fill="white" r="1" /><circle cx="420" cy="657" fill="white" r="1" /><circle cx="421" cy="657" fill="white" r="1" /><circle cx="405" cy="658" fill="white" r="1" /><circle cx="409" cy="658" fill="white" r="1" /><circle cx="419" cy="658" fill="white" r="1" /><circle cx="405" cy="659" fill="white" r="1" /><circle cx="409" cy="659" fill="white" r="1" /><circle cx="419" cy="659" fill="white" r="1" /><circle cx="405" cy="660" fill="white" r="1" /><circle cx="407" cy="660" fill="white" r="1" /><circle cx="409" cy="660" fill="white" r="1" /><circle cx="420" cy="660" fill="white" r="1" /><circle cx="405" cy="661" fill="white" r="1" /><circle cx="408" cy="661" fill="white" r="1" /><circle cx="416" cy="661" fill="white" r="1" /><circle cx="420" cy="661" fill="white" r="1" /><circle cx="405" cy="662" fill="white" r="1" /><circle cx="408" cy="662" fill="white" r="1" /><circle cx="412" cy="662" fill="white" r="1" /><circle cx="416" cy="662" fill="white" r="1" /><circle cx="420" cy="662" fill="white" r="1" /><circle cx="405" cy="663" fill="white" r="1" /><circle cx="408" cy="663" fill="white" r="1" /><circle cx="412" cy="663" fill="white" r="1" /><circle cx="416" cy="663" fill="white" r="1" /><circle cx="420" cy="663" fill="white" r="1" /><circle cx="404" cy="664" fill="white" r="1" /><circle cx="406" cy="664" fill="white" r="1" /><circle cx="409" cy="664" fill="white" r="1" /><circle cx="411" cy="664" fill="white" r="1" /><circle cx="413" cy="664" fill="white" r="1" /><circle cx="414" cy="664" fill="white" r="1" /><circle cx="417" cy="664" fill="white" r="1" /><circle cx="419" cy="664" fill="white" r="1" /><circle cx="404" cy="665" fill="white" r="1" /><circle cx="406" cy="665" fill="white" r="1" /><circle cx="409" cy="665" fill="white" r="1" /><circle cx="411" cy="665" fill="white" r="1" /><circle cx="920" cy="714" fill="white" r="1" /><circle cx="921" cy="714" fill="white" r="1" /><circle cx="922" cy="714" fill="white" r="1" /><circle cx="920" cy="715" fill="white" r="1" /><circle cx="922" cy="715" fill="white" r="1" /><circle cx="923" cy="715" fill="white" r="1" /><circle cx="924" cy="715" fill="white" r="1" /><circle cx="917" cy="720" fill="white" r="1" /><circle cx="918" cy="720" fill="white" r="1" /><circle cx="919" cy="721" fill="white" r="1" /><circle cx="920" cy="721" fill="white" r="1" /><circle cx="923" cy="721" fill="white" r="1" /><circle cx="922" cy="722" fill="white" r="1" /><circle cx="922" cy="723" fill="white" r="1" /><circle cx="914" cy="724" fill="white" r="1" /><circle cx="915" cy="724" fill="white" r="1" /><circle cx="916" cy="724" fill="white" r="1" /><circle cx="922" cy="724" fill="white" r="1" /><circle cx="913" cy="725" fill="white" r="1" /><circle cx="912" cy="726" fill="white" r="1" /><circle cx="915" cy="726" fill="white" r="1" /><circle cx="916" cy="726" fill="white" r="1" /><circle cx="917" cy="726" fill="white" r="1" /><circle cx="912" cy="727" fill="white" r="1" /><circle cx="914" cy="727" fill="white" r="1" /><circle cx="523" cy="756" fill="white" r="1" /><circle cx="524" cy="756" fill="white" r="1" /><circle cx="522" cy="757" fill="white" r="1" /><circle cx="522" cy="758" fill="white" r="1" /><circle cx="524" cy="758" fill="white" r="1" /><circle cx="522" cy="759" fill="white" r="1" /><circle cx="524" cy="759" fill="white" r="1" /><circle cx="522" cy="760" fill="white" r="1" /><circle cx="524" cy="760" fill="white" r="1" /><circle cx="519" cy="772" fill="white" r="1" /><circle cx="518" cy="773" fill="white" r="1" /><circle cx="518" cy="774" fill="white" r="1" /><circle cx="518" cy="775" fill="white" r="1" /><circle cx="521" cy="775" fill="white" r="1" /><circle cx="520" cy="776" fill="white" r="1" /><circle cx="522" cy="776" fill="white" r="1" /><circle cx="520" cy="777" fill="white" r="1" /><circle cx="523" cy="778" fill="white" r="1" /><circle cx="525" cy="778" fill="white" r="1" /><circle cx="526" cy="778" fill="white" r="1" /><circle cx="520" cy="779" fill="white" r="1" /><circle cx="527" cy="779" fill="white" r="1" /><circle cx="520" cy="780" fill="white" r="1" /><circle cx="526" cy="780" fill="white" r="1" /><circle cx="519" cy="781" fill="white" r="1" /><circle cx="525" cy="781" fill="white" r="1" /><circle cx="526" cy="781" fill="white" r="1" /><circle cx="524" cy="782" fill="white" r="1" /><circle cx="525" cy="782" fill="white" r="1" /><circle cx="523" cy="783" fill="white" r="1" /><circle cx="522" cy="784" fill="white" r="1" /><circle cx="525" cy="784" fill="white" r="1" /><circle cx="526" cy="784" fill="white" r="1" /><circle cx="519" cy="785" fill="white" r="1" /><circle cx="520" cy="785" fill="white" r="1" /><circle cx="522" cy="785" fill="white" r="1" /><circle cx="524" cy="785" fill="white" r="1" /><circle cx="526" cy="785" fill="white" r="1" /><circle cx="520" cy="786" fill="white" r="1" /><circle cx="522" cy="786" fill="white" r="1" /><circle cx="526" cy="786" fill="white" r="1" /><circle cx="518" cy="787" fill="white" r="1" /><circle cx="519" cy="787" fill="white" r="1" /><circle cx="522" cy="787" fill="white" r="1" /><circle cx="524" cy="787" fill="white" r="1" /><circle cx="522" cy="788" fill="white" r="1" /><circle cx="523" cy="789" fill="white" r="1" /><circle cx="523" cy="790" fill="white" r="1" /><circle cx="521" cy="791" fill="white" r="1" /><circle cx="523" cy="791" fill="white" r="1" /><circle cx="521" cy="792" fill="white" r="1" /><circle cx="522" cy="792" fill="white" r="1" /><circle cx="523" cy="792" fill="white" r="1" /><circle cx="525" cy="794" fill="white" r="1" /><circle cx="526" cy="794" fill="white" r="1" /><circle cx="527" cy="794" fill="white" r="1" /><circle cx="524" cy="795" fill="white" r="1" /><circle cx="522" cy="796" fill="white" r="1" /><circle cx="525" cy="796" fill="white" r="1" /><circle cx="523" cy="797" fill="white" r="1" /><circle cx="525" cy="797" fill="white" r="1" /><circle cx="524" cy="800" fill="white" r="1" /><circle cx="523" cy="803" fill="white" r="1" /><circle cx="519" cy="804" fill="white" r="1" /><circle cx="520" cy="804" fill="white" r="1" /><circle cx="521" cy="804" fill="white" r="1" /><circle cx="522" cy="804" fill="white" r="1" /><circle cx="519" cy="805" fill="white" r="1" /><circle cx="523" cy="805" fill="white" r="1" /><circle cx="520" cy="806" fill="white" r="1" /><circle cx="523" cy="806" fill="white" r="1" /><circle cx="524" cy="806" fill="white" r="1" /><circle cx="738" cy="806" fill="white" r="1" /><circle cx="520" cy="807" fill="white" r="1" /><circle cx="738" cy="807" fill="white" r="1" /><circle cx="745" cy="807" fill="white" r="1" /><circle cx="747" cy="807" fill="white" r="1" /><circle cx="520" cy="808" fill="white" r="1" /><circle cx="523" cy="808" fill="white" r="1" /><circle cx="738" cy="808" fill="white" r="1" /><circle cx="741" cy="808" fill="white" r="1" /><circle cx="745" cy="808" fill="white" r="1" /><circle cx="747" cy="808" fill="white" r="1" /><circle cx="520" cy="809" fill="white" r="1" /><circle cx="522" cy="809" fill="white" r="1" /><circle cx="738" cy="809" fill="white" r="1" /><circle cx="741" cy="809" fill="white" r="1" /><circle cx="745" cy="809" fill="white" r="1" /><circle cx="747" cy="809" fill="white" r="1" /><circle cx="738" cy="810" fill="white" r="1" /><circle cx="741" cy="810" fill="white" r="1" /><circle cx="745" cy="810" fill="white" r="1" /><circle cx="747" cy="810" fill="white" r="1" /><circle cx="521" cy="811" fill="white" r="1" /><circle cx="738" cy="811" fill="white" r="1" /><circle cx="741" cy="811" fill="white" r="1" /><circle cx="746" cy="811" fill="white" r="1" /><circle cx="521" cy="812" fill="white" r="1" /><circle cx="738" cy="812" fill="white" r="1" /><circle cx="741" cy="812" fill="white" r="1" /><circle cx="746" cy="812" fill="white" r="1" /><circle cx="748" cy="812" fill="white" r="1" /><circle cx="521" cy="813" fill="white" r="1" /><circle cx="738" cy="813" fill="white" r="1" /><circle cx="741" cy="813" fill="white" r="1" /><circle cx="745" cy="813" fill="white" r="1" /><circle cx="748" cy="813" fill="white" r="1" /><circle cx="521" cy="814" fill="white" r="1" /><circle cx="523" cy="814" fill="white" r="1" /><circle cx="739" cy="814" fill="white" r="1" /><circle cx="745" cy="814" fill="white" r="1" /><circle cx="748" cy="814" fill="white" r="1" /><circle cx="521" cy="815" fill="white" r="1" /><circle cx="523" cy="815" fill="white" r="1" /><circle cx="739" cy="815" fill="white" r="1" /><circle cx="745" cy="815" fill="white" r="1" /><circle cx="520" cy="816" fill="white" r="1" /><circle cx="523" cy="816" fill="white" r="1" /><circle cx="739" cy="816" fill="white" r="1" /><circle cx="745" cy="816" fill="white" r="1" /><circle cx="747" cy="816" fill="white" r="1" /><circle cx="748" cy="816" fill="white" r="1" /><circle cx="520" cy="817" fill="white" r="1" /><circle cx="523" cy="817" fill="white" r="1" /><circle cx="739" cy="817" fill="white" r="1" /><circle cx="745" cy="817" fill="white" r="1" /><circle cx="521" cy="818" fill="white" r="1" /><circle cx="736" cy="818" fill="white" r="1" /><circle cx="737" cy="818" fill="white" r="1" /><circle cx="739" cy="818" fill="white" r="1" /><circle cx="745" cy="818" fill="white" r="1" /><circle cx="522" cy="819" fill="white" r="1" /><circle cx="524" cy="819" fill="white" r="1" /><circle cx="525" cy="819" fill="white" r="1" /><circle cx="526" cy="819" fill="white" r="1" /><circle cx="735" cy="819" fill="white" r="1" /><circle cx="739" cy="819" fill="white" r="1" /><circle cx="745" cy="819" fill="white" r="1" /><circle cx="522" cy="820" fill="white" r="1" /><circle cx="524" cy="820" fill="white" r="1" /><circle cx="735" cy="820" fill="white" r="1" /><circle cx="739" cy="820" fill="white" r="1" /><circle cx="745" cy="820" fill="white" r="1" /><circle cx="522" cy="821" fill="white" r="1" /><circle cx="524" cy="821" fill="white" r="1" /><circle cx="736" cy="821" fill="white" r="1" /><circle cx="739" cy="821" fill="white" r="1" /><circle cx="745" cy="821" fill="white" r="1" /><circle cx="522" cy="822" fill="white" r="1" /><circle cx="736" cy="822" fill="white" r="1" /><circle cx="739" cy="822" fill="white" r="1" /><circle cx="745" cy="822" fill="white" r="1" /><circle cx="522" cy="823" fill="white" r="1" /><circle cx="739" cy="823" fill="white" r="1" /><circle cx="743" cy="823" fill="white" r="1" /><circle cx="745" cy="823" fill="white" r="1" /><circle cx="521" cy="824" fill="white" r="1" /><circle cx="739" cy="824" fill="white" r="1" /><circle cx="741" cy="824" fill="white" r="1" /><circle cx="743" cy="824" fill="white" r="1" /><circle cx="521" cy="825" fill="white" r="1" /><circle cx="739" cy="825" fill="white" r="1" /><circle cx="741" cy="825" fill="white" r="1" /><circle cx="521" cy="826" fill="white" r="1" /><circle cx="739" cy="826" fill="white" r="1" /><circle cx="741" cy="826" fill="white" r="1" /><circle cx="523" cy="827" fill="white" r="1" /><circle cx="524" cy="827" fill="white" r="1" /><circle cx="739" cy="827" fill="white" r="1" /><circle cx="741" cy="827" fill="white" r="1" /><circle cx="741" cy="828" fill="white" r="1" /><circle cx="741" cy="829" fill="white" r="1" /><circle cx="738" cy="830" fill="white" r="1" /><circle cx="740" cy="830" fill="white" r="1" /><circle cx="743" cy="830" fill="white" r="1" /><circle cx="738" cy="831" fill="white" r="1" /><circle cx="740" cy="831" fill="white" r="1" /><circle cx="743" cy="831" fill="white" r="1" /><circle cx="728" cy="832" fill="white" r="1" /><circle cx="738" cy="832" fill="white" r="1" /><circle cx="740" cy="832" fill="white" r="1" /><circle cx="743" cy="832" fill="white" r="1" /><circle cx="728" cy="833" fill="white" r="1" /><circle cx="730" cy="833" fill="white" r="1" /><circle cx="738" cy="833" fill="white" r="1" /><circle cx="740" cy="833" fill="white" r="1" /><circle cx="728" cy="834" fill="white" r="1" /><circle cx="730" cy="834" fill="white" r="1" /><circle cx="738" cy="834" fill="white" r="1" /><circle cx="740" cy="834" fill="white" r="1" /><circle cx="728" cy="835" fill="white" r="1" /><circle cx="730" cy="835" fill="white" r="1" /><circle cx="735" cy="835" fill="white" r="1" /><circle cx="738" cy="835" fill="white" r="1" /><circle cx="740" cy="835" fill="white" r="1" /><circle cx="728" cy="836" fill="white" r="1" /><circle cx="731" cy="836" fill="white" r="1" /><circle cx="735" cy="836" fill="white" r="1" /><circle cx="738" cy="836" fill="white" r="1" /><circle cx="742" cy="836" fill="white" r="1" /><circle cx="743" cy="836" fill="white" r="1" /><circle cx="728" cy="837" fill="white" r="1" /><circle cx="731" cy="837" fill="white" r="1" /><circle cx="735" cy="837" fill="white" r="1" /><circle cx="738" cy="837" fill="white" r="1" /><circle cx="743" cy="837" fill="white" r="1" /><circle cx="730" cy="838" fill="white" r="1" /><circle cx="738" cy="838" fill="white" r="1" /><circle cx="740" cy="838" fill="white" r="1" /><circle cx="742" cy="838" fill="white" r="1" /><circle cx="728" cy="839" fill="white" r="1" /><circle cx="738" cy="839" fill="white" r="1" /><circle cx="740" cy="839" fill="white" r="1" /><circle cx="742" cy="839" fill="white" r="1" /><circle cx="742" cy="840" fill="white" r="1" /><circle cx="738" cy="841" fill="white" r="1" /><circle cx="742" cy="841" fill="white" r="1" /><circle cx="742" cy="842" fill="white" r="1" /><circle cx="742" cy="843" fill="white" r="1" /><circle cx="742" cy="844" fill="white" r="1" /><circle cx="741" cy="846" fill="white" r="1" /><circle cx="742" cy="846" fill="white" r="1" /><circle cx="741" cy="847" fill="white" r="1" /><circle cx="740" cy="848" fill="white" r="1" /><circle cx="741" cy="849" fill="white" r="1" /><circle cx="741" cy="850" fill="white" r="1" /><circle cx="741" cy="851" fill="white" r="1" /><circle cx="741" cy="852" fill="white" r="1" /><circle cx="741" cy="853" fill="white" r="1" /><circle cx="722" cy="891" fill="white" r="1" /><circle cx="722" cy="892" fill="white" r="1" /><circle cx="722" cy="893" fill="white" r="1" /></svg>