<?xml version="1.0" encoding="utf-8" ?>
<svg baseProfile="tiny" height="100%" version="1.2" width="100%" xmlns="http://www.w3.org/2000/svg" xmlns:ev="http://www.w3.org/2001/xml-events" xmlns:xlink="http://www.w3.org/1999/xlink"><defs /><rect fill="black" height="100%" width="100%" x="0" y="0" /><circle cx="414" cy="169" fill="white" r="1" /><circle cx="415" cy="169" fill="white" r="1" /><circle cx="413" cy="170" fill="white" r="1" /><circle cx="416" cy="170" fill="white" r="1" /><circle cx="417" cy="170" fill="white" r="1" /><circle cx="413" cy="171" fill="white" r="1" /><circle cx="417" cy="171" fill="white" r="1" /><circle cx="413" cy="172" fill="white" r="1" /><circle cx="417" cy="172" fill="white" r="1" /><circle cx="413" cy="173" fill="white" r="1" /><circle cx="417" cy="173" fill="white" r="1" /><circle cx="414" cy="174" fill="white" r="1" /><circle cx="415" cy="174" fill="white" r="1" /><circle cx="416" cy="174" fill="white" r="1" /><circle cx="417" cy="174" fill="white" r="1" /><circle cx="792" cy="200" fill="white" r="1" /><circle cx="793" cy="200" fill="white" r="1" /><circle cx="794" cy="200" fill="white" r="1" /><circle cx="792" cy="201" fill="white" r="1" /><circle cx="796" cy="202" fill="white" r="1" /><circle cx="797" cy="202" fill="white" r="1" /><circle cx="802" cy="202" fill="white" r="1" /><circle cx="803" cy="202" fill="white" r="1" /><circle cx="798" cy="203" fill="white" r="1" /><circle cx="801" cy="203" fill="white" r="1" /><circle cx="802" cy="203" fill="white" r="1" /><circle cx="803" cy="203" fill="white" r="1" /><circle cx="804" cy="203" fill="white" r="1" /><circle cx="798" cy="204" fill="white" r="1" /><circle cx="799" cy="205" fill="white" r="1" /><circle cx="803" cy="205" fill="white" r="1" /><circle cx="806" cy="205" fill="white" r="1" /><circle cx="807" cy="205" fill="white" r="1" /><circle cx="804" cy="206" fill="white" r="1" /><circle cx="805" cy="206" fill="white" r="1" /><circle cx="806" cy="207" fill="white" r="1" /><circle cx="807" cy="207" fill="white" r="1" /><circle cx="739" cy="210" fill="white" r="1" /><circle cx="740" cy="210" fill="white" r="1" /><circle cx="741" cy="210" fill="white" r="1" /><circle cx="736" cy="211" fill="white" r="1" /><circle cx="737" cy="211" fill="white" r="1" /><circle cx="738" cy="211" fill="white" r="1" /><circle cx="742" cy="211" fill="white" r="1" /><circle cx="743" cy="211" fill="white" r="1" /><circle cx="734" cy="212" fill="white" r="1" /><circle cx="735" cy="212" fill="white" r="1" /><circle cx="743" cy="212" fill="white" r="1" /><circle cx="734" cy="213" fill="white" r="1" /><circle cx="743" cy="213" fill="white" r="1" /><circle cx="733" cy="214" fill="white" r="1" /><circle cx="732" cy="215" fill="white" r="1" /><circle cx="733" cy="215" fill="white" r="1" /><circle cx="746" cy="215" fill="white" r="1" /><circle cx="732" cy="216" fill="white" r="1" /><circle cx="739" cy="216" fill="white" r="1" /><circle cx="746" cy="216" fill="white" r="1" /><circle cx="733" cy="217" fill="white" r="1" /><circle cx="747" cy="217" fill="white" r="1" /><circle cx="729" cy="218" fill="white" r="1" /><circle cx="730" cy="218" fill="white" r="1" /><circle cx="731" cy="218" fill="white" r="1" /><circle cx="734" cy="218" fill="white" r="1" /><circle cx="735" cy="218" fill="white" r="1" /><circle cx="736" cy="218" fill="white" r="1" /><circle cx="738" cy="218" fill="white" r="1" /><circle cx="748" cy="218" fill="white" r="1" /><circle cx="749" cy="218" fill="white" r="1" /><circle cx="750" cy="218" fill="white" r="1" /><circle cx="751" cy="218" fill="white" r="1" /><circle cx="752" cy="218" fill="white" r="1" /><circle cx="732" cy="219" fill="white" r="1" /><circle cx="729" cy="220" fill="white" r="1" /><circle cx="730" cy="220" fill="white" r="1" /><circle cx="731" cy="220" fill="white" r="1" /><circle cx="732" cy="220" fill="white" r="1" /><circle cx="751" cy="220" fill="white" r="1" /><circle cx="752" cy="220" fill="white" r="1" /><circle cx="738" cy="221" fill="white" r="1" /><circle cx="750" cy="221" fill="white" r="1" /><circle cx="738" cy="222" fill="white" r="1" /><circle cx="750" cy="222" fill="white" r="1" /><circle cx="738" cy="223" fill="white" r="1" /><circle cx="739" cy="223" fill="white" r="1" /><circle cx="750" cy="223" fill="white" r="1" /><circle cx="751" cy="223" fill="white" r="1" /><circle cx="752" cy="223" fill="white" r="1" /><circle cx="739" cy="224" fill="white" r="1" /><circle cx="753" cy="224" fill="white" r="1" /><circle cx="754" cy="224" fill="white" r="1" /><circle cx="739" cy="225" fill="white" r="1" /><circle cx="736" cy="226" fill="white" r="1" /><circle cx="739" cy="226" fill="white" r="1" /><circle cx="752" cy="226" fill="white" r="1" /><circle cx="753" cy="226" fill="white" r="1" /><circle cx="736" cy="227" fill="white" r="1" /><circle cx="739" cy="227" fill="white" r="1" /><circle cx="751" cy="227" fill="white" r="1" /><circle cx="752" cy="227" fill="white" r="1" /><circle cx="737" cy="228" fill="white" r="1" /><circle cx="740" cy="228" fill="white" r="1" /><circle cx="741" cy="228" fill="white" r="1" /><circle cx="748" cy="228" fill="white" r="1" /><circle cx="749" cy="228" fill="white" r="1" /><circle cx="750" cy="228" fill="white" r="1" /><circle cx="737" cy="229" fill="white" r="1" /><circle cx="748" cy="229" fill="white" r="1" /><circle cx="737" cy="230" fill="white" r="1" /><circle cx="744" cy="230" fill="white" r="1" /><circle cx="745" cy="230" fill="white" r="1" /><circle cx="735" cy="231" fill="white" r="1" /><circle cx="736" cy="231" fill="white" r="1" /><circle cx="738" cy="231" fill="white" r="1" /><circle cx="739" cy="231" fill="white" r="1" /><circle cx="740" cy="231" fill="white" r="1" /><circle cx="742" cy="231" fill="white" r="1" /><circle cx="743" cy="231" fill="white" r="1" /><circle cx="746" cy="231" fill="white" r="1" /><circle cx="747" cy="231" fill="white" r="1" /><circle cx="748" cy="231" fill="white" r="1" /><circle cx="749" cy="231" fill="white" r="1" /><circle cx="750" cy="231" fill="white" r="1" /><circle cx="754" cy="231" fill="white" r="1" /><circle cx="755" cy="231" fill="white" r="1" /><circle cx="756" cy="231" fill="white" r="1" /><circle cx="741" cy="232" fill="white" r="1" /><circle cx="745" cy="232" fill="white" r="1" /><circle cx="732" cy="233" fill="white" r="1" /><circle cx="733" cy="233" fill="white" r="1" /><circle cx="742" cy="233" fill="white" r="1" /><circle cx="743" cy="233" fill="white" r="1" /><circle cx="747" cy="233" fill="white" r="1" /><circle cx="732" cy="234" fill="white" r="1" /><circle cx="745" cy="234" fill="white" r="1" /><circle cx="746" cy="234" fill="white" r="1" /><circle cx="737" cy="235" fill="white" r="1" /><circle cx="742" cy="235" fill="white" r="1" /><circle cx="743" cy="235" fill="white" r="1" /><circle cx="744" cy="235" fill="white" r="1" /><circle cx="748" cy="235" fill="white" r="1" /><circle cx="754" cy="235" fill="white" r="1" /><circle cx="755" cy="235" fill="white" r="1" /><circle cx="757" cy="235" fill="white" r="1" /><circle cx="738" cy="236" fill="white" r="1" /><circle cx="739" cy="236" fill="white" r="1" /><circle cx="740" cy="236" fill="white" r="1" /><circle cx="741" cy="236" fill="white" r="1" /><circle cx="746" cy="236" fill="white" r="1" /><circle cx="747" cy="236" fill="white" r="1" /><circle cx="737" cy="237" fill="white" r="1" /><circle cx="743" cy="237" fill="white" r="1" /><circle cx="744" cy="237" fill="white" r="1" /><circle cx="749" cy="237" fill="white" r="1" /><circle cx="739" cy="238" fill="white" r="1" /><circle cx="740" cy="238" fill="white" r="1" /><circle cx="750" cy="238" fill="white" r="1" /><circle cx="744" cy="239" fill="white" r="1" /><circle cx="749" cy="239" fill="white" r="1" /><circle cx="740" cy="240" fill="white" r="1" /><circle cx="741" cy="240" fill="white" r="1" /><circle cx="742" cy="240" fill="white" r="1" /><circle cx="736" cy="241" fill="white" r="1" /><circle cx="737" cy="241" fill="white" r="1" /><circle cx="738" cy="241" fill="white" r="1" /><circle cx="745" cy="241" fill="white" r="1" /><circle cx="749" cy="241" fill="white" r="1" /><circle cx="750" cy="241" fill="white" r="1" /><circle cx="735" cy="242" fill="white" r="1" /><circle cx="741" cy="242" fill="white" r="1" /><circle cx="753" cy="242" fill="white" r="1" /><circle cx="754" cy="242" fill="white" r="1" /><circle cx="755" cy="242" fill="white" r="1" /><circle cx="735" cy="243" fill="white" r="1" /><circle cx="737" cy="243" fill="white" r="1" /><circle cx="738" cy="243" fill="white" r="1" /><circle cx="803" cy="487" fill="white" r="1" /><circle cx="802" cy="488" fill="white" r="1" /><circle cx="804" cy="488" fill="white" r="1" /><circle cx="802" cy="489" fill="white" r="1" /><circle cx="804" cy="489" fill="white" r="1" /><circle cx="802" cy="490" fill="white" r="1" /><circle cx="804" cy="490" fill="white" r="1" /><circle cx="801" cy="491" fill="white" r="1" /><circle cx="800" cy="492" fill="white" r="1" /><circle cx="801" cy="492" fill="white" r="1" /><circle cx="803" cy="492" fill="white" r="1" /><circle cx="800" cy="493" fill="white" r="1" /><circle cx="803" cy="493" fill="white" r="1" /><circle cx="800" cy="494" fill="white" r="1" /><circle cx="803" cy="494" fill="white" r="1" /><circle cx="800" cy="495" fill="white" r="1" /><circle cx="803" cy="495" fill="white" r="1" /><circle cx="800" cy="496" fill="white" r="1" /><circle cx="802" cy="496" fill="white" r="1" /><circle cx="803" cy="496" fill="white" r="1" /><circle cx="800" cy="497" fill="white" r="1" /><circle cx="802" cy="497" fill="white" r="1" /><circle cx="335" cy="515" fill="white" r="1" /><circle cx="336" cy="515" fill="white" r="1" /><circle cx="337" cy="515" fill="white" r="1" /><circle cx="338" cy="515" fill="white" r="1" /><circle cx="339" cy="515" fill="white" r="1" /><circle cx="340" cy="515" fill="white" r="1" /><circle cx="341" cy="515" fill="white" r="1" /><circle cx="342" cy="515" fill="white" r="1" /><circle cx="343" cy="515" fill="white" r="1" /><circle cx="344" cy="515" fill="white" r="1" /><circle cx="345" cy="515" fill="white" r="1" /><circle cx="334" cy="516" fill="white" r="1" /><circle cx="346" cy="516" fill="white" r="1" /><circle cx="347" cy="516" fill="white" r="1" /><circle cx="348" cy="516" fill="white" r="1" /><circle cx="349" cy="516" fill="white" r="1" /><circle cx="350" cy="516" fill="white" r="1" /><circle cx="351" cy="516" fill="white" r="1" /><circle cx="352" cy="516" fill="white" r="1" /><circle cx="353" cy="516" fill="white" r="1" /><circle cx="354" cy="516" fill="white" r="1" /><circle cx="355" cy="516" fill="white" r="1" /><circle cx="334" cy="517" fill="white" r="1" /><circle cx="356" cy="517" fill="white" r="1" /><circle cx="357" cy="517" fill="white" r="1" /><circle cx="358" cy="517" fill="white" r="1" /><circle cx="359" cy="517" fill="white" r="1" /><circle cx="336" cy="518" fill="white" r="1" /><circle cx="337" cy="518" fill="white" r="1" /><circle cx="338" cy="518" fill="white" r="1" /><circle cx="339" cy="518" fill="white" r="1" /><circle cx="340" cy="519" fill="white" r="1" /><circle cx="341" cy="519" fill="white" r="1" /><circle cx="359" cy="519" fill="white" r="1" /><circle cx="784" cy="519" fill="white" r="1" /><circle cx="338" cy="520" fill="white" r="1" /><circle cx="339" cy="520" fill="white" r="1" /><circle cx="359" cy="520" fill="white" r="1" /><circle cx="783" cy="520" fill="white" r="1" /><circle cx="785" cy="520" fill="white" r="1" /><circle cx="337" cy="521" fill="white" r="1" /><circle cx="359" cy="521" fill="white" r="1" /><circle cx="783" cy="521" fill="white" r="1" /><circle cx="785" cy="521" fill="white" r="1" /><circle cx="337" cy="522" fill="white" r="1" /><circle cx="359" cy="522" fill="white" r="1" /><circle cx="337" cy="523" fill="white" r="1" /><circle cx="338" cy="523" fill="white" r="1" /><circle cx="339" cy="523" fill="white" r="1" /><circle cx="359" cy="523" fill="white" r="1" /><circle cx="340" cy="524" fill="white" r="1" /><circle cx="359" cy="524" fill="white" r="1" /><circle cx="340" cy="525" fill="white" r="1" /><circle cx="342" cy="525" fill="white" r="1" /><circle cx="359" cy="525" fill="white" r="1" /><circle cx="340" cy="526" fill="white" r="1" /><circle cx="342" cy="526" fill="white" r="1" /><circle cx="359" cy="526" fill="white" r="1" /><circle cx="340" cy="527" fill="white" r="1" /><circle cx="342" cy="527" fill="white" r="1" /><circle cx="359" cy="527" fill="white" r="1" /><circle cx="340" cy="528" fill="white" r="1" /><circle cx="358" cy="528" fill="white" r="1" /><circle cx="537" cy="528" fill="white" r="1" /><circle cx="538" cy="528" fill="white" r="1" /><circle cx="539" cy="528" fill="white" r="1" /><circle cx="540" cy="528" fill="white" r="1" /><circle cx="340" cy="529" fill="white" r="1" /><circle cx="358" cy="529" fill="white" r="1" /><circle cx="536" cy="529" fill="white" r="1" /><circle cx="542" cy="529" fill="white" r="1" /><circle cx="543" cy="529" fill="white" r="1" /><circle cx="544" cy="529" fill="white" r="1" /><circle cx="340" cy="530" fill="white" r="1" /><circle cx="358" cy="530" fill="white" r="1" /><circle cx="535" cy="530" fill="white" r="1" /><circle cx="545" cy="530" fill="white" r="1" /><circle cx="341" cy="531" fill="white" r="1" /><circle cx="343" cy="531" fill="white" r="1" /><circle cx="358" cy="531" fill="white" r="1" /><circle cx="535" cy="531" fill="white" r="1" /><circle cx="544" cy="531" fill="white" r="1" /><circle cx="344" cy="532" fill="white" r="1" /><circle cx="358" cy="532" fill="white" r="1" /><circle cx="536" cy="532" fill="white" r="1" /><circle cx="544" cy="532" fill="white" r="1" /><circle cx="344" cy="533" fill="white" r="1" /><circle cx="357" cy="533" fill="white" r="1" /><circle cx="358" cy="533" fill="white" r="1" /><circle cx="544" cy="533" fill="white" r="1" /><circle cx="355" cy="534" fill="white" r="1" /><circle cx="356" cy="534" fill="white" r="1" /><circle cx="545" cy="534" fill="white" r="1" /><circle cx="537" cy="535" fill="white" r="1" /><circle cx="538" cy="535" fill="white" r="1" /><circle cx="545" cy="535" fill="white" r="1" /><circle cx="539" cy="536" fill="white" r="1" /><circle cx="544" cy="536" fill="white" r="1" /><circle cx="543" cy="537" fill="white" r="1" /><circle cx="347" cy="538" fill="white" r="1" /><circle cx="348" cy="538" fill="white" r="1" /><circle cx="544" cy="538" fill="white" r="1" /><circle cx="345" cy="539" fill="white" r="1" /><circle cx="349" cy="539" fill="white" r="1" /><circle cx="350" cy="539" fill="white" r="1" /><circle cx="544" cy="539" fill="white" r="1" /><circle cx="337" cy="540" fill="white" r="1" /><circle cx="338" cy="540" fill="white" r="1" /><circle cx="339" cy="540" fill="white" r="1" /><circle cx="346" cy="540" fill="white" r="1" /><circle cx="347" cy="540" fill="white" r="1" /><circle cx="349" cy="540" fill="white" r="1" /><circle cx="352" cy="540" fill="white" r="1" /><circle cx="353" cy="540" fill="white" r="1" /><circle cx="544" cy="540" fill="white" r="1" /><circle cx="337" cy="541" fill="white" r="1" /><circle cx="347" cy="541" fill="white" r="1" /><circle cx="354" cy="541" fill="white" r="1" /><circle cx="544" cy="541" fill="white" r="1" /><circle cx="338" cy="542" fill="white" r="1" /><circle cx="346" cy="542" fill="white" r="1" /><circle cx="353" cy="542" fill="white" r="1" /><circle cx="545" cy="542" fill="white" r="1" /><circle cx="352" cy="543" fill="white" r="1" /><circle cx="536" cy="543" fill="white" r="1" /><circle cx="537" cy="543" fill="white" r="1" /><circle cx="541" cy="543" fill="white" r="1" /><circle cx="542" cy="543" fill="white" r="1" /><circle cx="543" cy="543" fill="white" r="1" /><circle cx="545" cy="543" fill="white" r="1" /><circle cx="337" cy="544" fill="white" r="1" /><circle cx="338" cy="544" fill="white" r="1" /><circle cx="347" cy="544" fill="white" r="1" /><circle cx="348" cy="544" fill="white" r="1" /><circle cx="351" cy="544" fill="white" r="1" /><circle cx="354" cy="544" fill="white" r="1" /><circle cx="535" cy="544" fill="white" r="1" /><circle cx="545" cy="544" fill="white" r="1" /><circle cx="570" cy="544" fill="white" r="1" /><circle cx="571" cy="544" fill="white" r="1" /><circle cx="336" cy="545" fill="white" r="1" /><circle cx="348" cy="545" fill="white" r="1" /><circle cx="351" cy="545" fill="white" r="1" /><circle cx="354" cy="545" fill="white" r="1" /><circle cx="536" cy="545" fill="white" r="1" /><circle cx="537" cy="545" fill="white" r="1" /><circle cx="540" cy="545" fill="white" r="1" /><circle cx="541" cy="545" fill="white" r="1" /><circle cx="545" cy="545" fill="white" r="1" /><circle cx="568" cy="545" fill="white" r="1" /><circle cx="569" cy="545" fill="white" r="1" /><circle cx="572" cy="545" fill="white" r="1" /><circle cx="573" cy="545" fill="white" r="1" /><circle cx="336" cy="546" fill="white" r="1" /><circle cx="338" cy="546" fill="white" r="1" /><circle cx="347" cy="546" fill="white" r="1" /><circle cx="348" cy="546" fill="white" r="1" /><circle cx="353" cy="546" fill="white" r="1" /><circle cx="541" cy="546" fill="white" r="1" /><circle cx="546" cy="546" fill="white" r="1" /><circle cx="568" cy="546" fill="white" r="1" /><circle cx="574" cy="546" fill="white" r="1" /><circle cx="575" cy="546" fill="white" r="1" /><circle cx="350" cy="547" fill="white" r="1" /><circle cx="353" cy="547" fill="white" r="1" /><circle cx="354" cy="547" fill="white" r="1" /><circle cx="546" cy="547" fill="white" r="1" /><circle cx="547" cy="547" fill="white" r="1" /><circle cx="567" cy="547" fill="white" r="1" /><circle cx="575" cy="547" fill="white" r="1" /><circle cx="346" cy="548" fill="white" r="1" /><circle cx="347" cy="548" fill="white" r="1" /><circle cx="348" cy="548" fill="white" r="1" /><circle cx="349" cy="548" fill="white" r="1" /><circle cx="354" cy="548" fill="white" r="1" /><circle cx="541" cy="548" fill="white" r="1" /><circle cx="547" cy="548" fill="white" r="1" /><circle cx="548" cy="548" fill="white" r="1" /><circle cx="566" cy="548" fill="white" r="1" /><circle cx="567" cy="548" fill="white" r="1" /><circle cx="575" cy="548" fill="white" r="1" /><circle cx="355" cy="549" fill="white" r="1" /><circle cx="541" cy="549" fill="white" r="1" /><circle cx="546" cy="549" fill="white" r="1" /><circle cx="548" cy="549" fill="white" r="1" /><circle cx="565" cy="549" fill="white" r="1" /><circle cx="566" cy="549" fill="white" r="1" /><circle cx="575" cy="549" fill="white" r="1" /><circle cx="340" cy="550" fill="white" r="1" /><circle cx="341" cy="550" fill="white" r="1" /><circle cx="346" cy="550" fill="white" r="1" /><circle cx="355" cy="550" fill="white" r="1" /><circle cx="540" cy="550" fill="white" r="1" /><circle cx="549" cy="550" fill="white" r="1" /><circle cx="562" cy="550" fill="white" r="1" /><circle cx="563" cy="550" fill="white" r="1" /><circle cx="564" cy="550" fill="white" r="1" /><circle cx="572" cy="550" fill="white" r="1" /><circle cx="573" cy="550" fill="white" r="1" /><circle cx="574" cy="550" fill="white" r="1" /><circle cx="342" cy="551" fill="white" r="1" /><circle cx="343" cy="551" fill="white" r="1" /><circle cx="344" cy="551" fill="white" r="1" /><circle cx="345" cy="551" fill="white" r="1" /><circle cx="354" cy="551" fill="white" r="1" /><circle cx="539" cy="551" fill="white" r="1" /><circle cx="540" cy="551" fill="white" r="1" /><circle cx="550" cy="551" fill="white" r="1" /><circle cx="551" cy="551" fill="white" r="1" /><circle cx="556" cy="551" fill="white" r="1" /><circle cx="557" cy="551" fill="white" r="1" /><circle cx="558" cy="551" fill="white" r="1" /><circle cx="559" cy="551" fill="white" r="1" /><circle cx="560" cy="551" fill="white" r="1" /><circle cx="561" cy="551" fill="white" r="1" /><circle cx="572" cy="551" fill="white" r="1" /><circle cx="342" cy="552" fill="white" r="1" /><circle cx="350" cy="552" fill="white" r="1" /><circle cx="351" cy="552" fill="white" r="1" /><circle cx="355" cy="552" fill="white" r="1" /><circle cx="539" cy="552" fill="white" r="1" /><circle cx="540" cy="552" fill="white" r="1" /><circle cx="544" cy="552" fill="white" r="1" /><circle cx="552" cy="552" fill="white" r="1" /><circle cx="553" cy="552" fill="white" r="1" /><circle cx="554" cy="552" fill="white" r="1" /><circle cx="555" cy="552" fill="white" r="1" /><circle cx="565" cy="552" fill="white" r="1" /><circle cx="566" cy="552" fill="white" r="1" /><circle cx="567" cy="552" fill="white" r="1" /><circle cx="568" cy="552" fill="white" r="1" /><circle cx="342" cy="553" fill="white" r="1" /><circle cx="344" cy="553" fill="white" r="1" /><circle cx="345" cy="553" fill="white" r="1" /><circle cx="346" cy="553" fill="white" r="1" /><circle cx="347" cy="553" fill="white" r="1" /><circle cx="348" cy="553" fill="white" r="1" /><circle cx="349" cy="553" fill="white" r="1" /><circle cx="355" cy="553" fill="white" r="1" /><circle cx="541" cy="553" fill="white" r="1" /><circle cx="544" cy="553" fill="white" r="1" /><circle cx="564" cy="553" fill="white" r="1" /><circle cx="569" cy="553" fill="white" r="1" /><circle cx="570" cy="553" fill="white" r="1" /><circle cx="571" cy="553" fill="white" r="1" /><circle cx="572" cy="553" fill="white" r="1" /><circle cx="573" cy="553" fill="white" r="1" /><circle cx="350" cy="554" fill="white" r="1" /><circle cx="355" cy="554" fill="white" r="1" /><circle cx="545" cy="554" fill="white" r="1" /><circle cx="546" cy="554" fill="white" r="1" /><circle cx="346" cy="555" fill="white" r="1" /><circle cx="347" cy="555" fill="white" r="1" /><circle cx="348" cy="555" fill="white" r="1" /><circle cx="349" cy="555" fill="white" r="1" /><circle cx="354" cy="555" fill="white" r="1" /><circle cx="547" cy="555" fill="white" r="1" /><circle cx="562" cy="555" fill="white" r="1" /><circle cx="565" cy="555" fill="white" r="1" /><circle cx="566" cy="555" fill="white" r="1" /><circle cx="567" cy="555" fill="white" r="1" /><circle cx="547" cy="556" fill="white" r="1" /><circle cx="548" cy="556" fill="white" r="1" /><circle cx="549" cy="556" fill="white" r="1" /><circle cx="561" cy="556" fill="white" r="1" /><circle cx="562" cy="556" fill="white" r="1" /><circle cx="568" cy="556" fill="white" r="1" /><circle cx="569" cy="556" fill="white" r="1" /><circle cx="347" cy="557" fill="white" r="1" /><circle cx="353" cy="557" fill="white" r="1" /><circle cx="545" cy="557" fill="white" r="1" /><circle cx="546" cy="557" fill="white" r="1" /><circle cx="549" cy="557" fill="white" r="1" /><circle cx="550" cy="557" fill="white" r="1" /><circle cx="552" cy="557" fill="white" r="1" /><circle cx="553" cy="557" fill="white" r="1" /><circle cx="558" cy="557" fill="white" r="1" /><circle cx="561" cy="557" fill="white" r="1" /><circle cx="341" cy="558" fill="white" r="1" /><circle cx="342" cy="558" fill="white" r="1" /><circle cx="348" cy="558" fill="white" r="1" /><circle cx="353" cy="558" fill="white" r="1" /><circle cx="550" cy="558" fill="white" r="1" /><circle cx="552" cy="558" fill="white" r="1" /><circle cx="554" cy="558" fill="white" r="1" /><circle cx="559" cy="558" fill="white" r="1" /><circle cx="560" cy="558" fill="white" r="1" /><circle cx="353" cy="559" fill="white" r="1" /><circle cx="550" cy="559" fill="white" r="1" /><circle cx="552" cy="559" fill="white" r="1" /><circle cx="554" cy="559" fill="white" r="1" /><circle cx="557" cy="559" fill="white" r="1" /><circle cx="558" cy="559" fill="white" r="1" /><circle cx="349" cy="560" fill="white" r="1" /><circle cx="350" cy="560" fill="white" r="1" /><circle cx="354" cy="560" fill="white" r="1" /><circle cx="554" cy="560" fill="white" r="1" /><circle cx="555" cy="560" fill="white" r="1" /><circle cx="556" cy="560" fill="white" r="1" /><circle cx="350" cy="561" fill="white" r="1" /><circle cx="354" cy="561" fill="white" r="1" /><circle cx="346" cy="562" fill="white" r="1" /><circle cx="347" cy="562" fill="white" r="1" /><circle cx="348" cy="562" fill="white" r="1" /><circle cx="349" cy="562" fill="white" r="1" /><circle cx="352" cy="562" fill="white" r="1" /><circle cx="353" cy="562" fill="white" r="1" /><circle cx="354" cy="563" fill="white" r="1" /><circle cx="343" cy="564" fill="white" r="1" /><circle cx="344" cy="564" fill="white" r="1" /><circle cx="346" cy="564" fill="white" r="1" /><circle cx="348" cy="564" fill="white" r="1" /><circle cx="352" cy="564" fill="white" r="1" /><circle cx="353" cy="564" fill="white" r="1" /><circle cx="354" cy="564" fill="white" r="1" /><circle cx="356" cy="564" fill="white" r="1" /><circle cx="345" cy="565" fill="white" r="1" /><circle cx="346" cy="565" fill="white" r="1" /><circle cx="348" cy="565" fill="white" r="1" /><circle cx="350" cy="565" fill="white" r="1" /><circle cx="355" cy="565" fill="white" r="1" /><circle cx="343" cy="566" fill="white" r="1" /><circle cx="344" cy="566" fill="white" r="1" /><circle cx="349" cy="566" fill="white" r="1" /><circle cx="345" cy="567" fill="white" r="1" /><circle cx="346" cy="567" fill="white" r="1" /><circle cx="348" cy="568" fill="white" r="1" /><circle cx="349" cy="568" fill="white" r="1" /><circle cx="351" cy="568" fill="white" r="1" /><circle cx="352" cy="568" fill="white" r="1" /><circle cx="354" cy="568" fill="white" r="1" /><circle cx="352" cy="569" fill="white" r="1" /><circle cx="354" cy="569" fill="white" r="1" /><circle cx="350" cy="570" fill="white" r="1" /><circle cx="352" cy="570" fill="white" r="1" /><circle cx="354" cy="570" fill="white" r="1" /><circle cx="352" cy="571" fill="white" r="1" /><circle cx="353" cy="571" fill="white" r="1" /><circle cx="347" cy="572" fill="white" r="1" /><circle cx="791" cy="785" fill="white" r="1" /><circle cx="788" cy="786" fill="white" r="1" /><circle cx="789" cy="786" fill="white" r="1" /><circle cx="790" cy="786" fill="white" r="1" /><circle cx="792" cy="786" fill="white" r="1" /><circle cx="787" cy="787" fill="white" r="1" /><circle cx="793" cy="787" fill="white" r="1" /><circle cx="787" cy="788" fill="white" r="1" /><circle cx="793" cy="788" fill="white" r="1" /><circle cx="794" cy="788" fill="white" r="1" /><circle cx="788" cy="789" fill="white" r="1" /><circle cx="794" cy="789" fill="white" r="1" /><circle cx="788" cy="790" fill="white" r="1" /><circle cx="794" cy="790" fill="white" r="1" /><circle cx="815" cy="790" fill="white" r="1" /><circle cx="789" cy="791" fill="white" r="1" /><circle cx="795" cy="791" fill="white" r="1" /><circle cx="814" cy="791" fill="white" r="1" /><circle cx="816" cy="791" fill="white" r="1" /><circle cx="817" cy="791" fill="white" r="1" /><circle cx="789" cy="792" fill="white" r="1" /><circle cx="795" cy="792" fill="white" r="1" /><circle cx="813" cy="792" fill="white" r="1" /><circle cx="817" cy="792" fill="white" r="1" /><circle cx="818" cy="792" fill="white" r="1" /><circle cx="796" cy="793" fill="white" r="1" /><circle cx="813" cy="793" fill="white" r="1" /><circle cx="819" cy="793" fill="white" r="1" /><circle cx="796" cy="794" fill="white" r="1" /><circle cx="797" cy="794" fill="white" r="1" /><circle cx="812" cy="794" fill="white" r="1" /><circle cx="819" cy="794" fill="white" r="1" /><circle cx="797" cy="795" fill="white" r="1" /><circle cx="798" cy="795" fill="white" r="1" /><circle cx="810" cy="795" fill="white" r="1" /><circle cx="811" cy="795" fill="white" r="1" /><circle cx="815" cy="795" fill="white" r="1" /><circle cx="816" cy="795" fill="white" r="1" /><circle cx="818" cy="795" fill="white" r="1" /><circle cx="798" cy="796" fill="white" r="1" /><circle cx="799" cy="796" fill="white" r="1" /><circle cx="800" cy="796" fill="white" r="1" /><circle cx="801" cy="796" fill="white" r="1" /><circle cx="802" cy="796" fill="white" r="1" /><circle cx="803" cy="796" fill="white" r="1" /><circle cx="808" cy="796" fill="white" r="1" /><circle cx="809" cy="796" fill="white" r="1" /><circle cx="814" cy="796" fill="white" r="1" /><circle cx="792" cy="797" fill="white" r="1" /><circle cx="804" cy="797" fill="white" r="1" /><circle cx="805" cy="797" fill="white" r="1" /><circle cx="806" cy="797" fill="white" r="1" /><circle cx="807" cy="797" fill="white" r="1" /><circle cx="808" cy="797" fill="white" r="1" /><circle cx="813" cy="797" fill="white" r="1" /><circle cx="814" cy="797" fill="white" r="1" /><circle cx="790" cy="798" fill="white" r="1" /><circle cx="791" cy="798" fill="white" r="1" /><circle cx="792" cy="798" fill="white" r="1" /><circle cx="794" cy="798" fill="white" r="1" /><circle cx="813" cy="798" fill="white" r="1" /><circle cx="789" cy="799" fill="white" r="1" /><circle cx="795" cy="799" fill="white" r="1" /><circle cx="796" cy="799" fill="white" r="1" /><circle cx="812" cy="799" fill="white" r="1" /><circle cx="796" cy="800" fill="white" r="1" /><circle cx="808" cy="800" fill="white" r="1" /><circle cx="811" cy="800" fill="white" r="1" /><circle cx="797" cy="801" fill="white" r="1" /><circle cx="805" cy="801" fill="white" r="1" /><circle cx="806" cy="801" fill="white" r="1" /><circle cx="808" cy="801" fill="white" r="1" /><circle cx="811" cy="801" fill="white" r="1" /><circle cx="798" cy="802" fill="white" r="1" /><circle cx="804" cy="802" fill="white" r="1" /><circle cx="805" cy="802" fill="white" r="1" /><circle cx="807" cy="802" fill="white" r="1" /><circle cx="811" cy="802" fill="white" r="1" /><circle cx="798" cy="803" fill="white" r="1" /><circle cx="799" cy="803" fill="white" r="1" /><circle cx="800" cy="803" fill="white" r="1" /><circle cx="801" cy="803" fill="white" r="1" /><circle cx="802" cy="803" fill="white" r="1" /><circle cx="803" cy="803" fill="white" r="1" /><circle cx="807" cy="803" fill="white" r="1" /><circle cx="804" cy="804" fill="white" r="1" /><circle cx="806" cy="804" fill="white" r="1" /><circle cx="479" cy="877" fill="white" r="1" /><circle cx="480" cy="877" fill="white" r="1" /><circle cx="478" cy="878" fill="white" r="1" /><circle cx="480" cy="878" fill="white" r="1" /><circle cx="481" cy="878" fill="white" r="1" /><circle cx="482" cy="878" fill="white" r="1" /><circle cx="483" cy="878" fill="white" r="1" /><circle cx="484" cy="878" fill="white" r="1" /><circle cx="485" cy="878" fill="white" r="1" /><circle cx="478" cy="879" fill="white" r="1" /><circle cx="486" cy="879" fill="white" r="1" /><circle cx="487" cy="879" fill="white" r="1" /><circle cx="478" cy="880" fill="white" r="1" /><circle cx="487" cy="880" fill="white" r="1" /><circle cx="488" cy="880" fill="white" r="1" /><circle cx="484" cy="881" fill="white" r="1" /><circle cx="488" cy="881" fill="white" r="1" /><circle cx="488" cy="882" fill="white" r="1" /><circle cx="483" cy="883" fill="white" r="1" /><circle cx="484" cy="883" fill="white" r="1" /><circle cx="488" cy="883" fill="white" r="1" /><circle cx="485" cy="884" fill="white" r="1" /><circle cx="488" cy="884" fill="white" r="1" /><circle cx="485" cy="885" fill="white" r="1" /><circle cx="488" cy="885" fill="white" r="1" /><circle cx="485" cy="886" fill="white" r="1" /><circle cx="487" cy="886" fill="white" r="1" /><circle cx="488" cy="886" fill="white" r="1" /><circle cx="485" cy="887" fill="white" r="1" /><circle cx="502" cy="887" fill="white" r="1" /><circle cx="503" cy="887" fill="white" r="1" /><circle cx="504" cy="887" fill="white" r="1" /><circle cx="505" cy="887" fill="white" r="1" /><circle cx="486" cy="888" fill="white" r="1" /><circle cx="488" cy="888" fill="white" r="1" /><circle cx="489" cy="888" fill="white" r="1" /><circle cx="501" cy="888" fill="white" r="1" /><circle cx="505" cy="888" fill="white" r="1" /><circle cx="486" cy="889" fill="white" r="1" /><circle cx="490" cy="889" fill="white" r="1" /><circle cx="491" cy="889" fill="white" r="1" /><circle cx="492" cy="889" fill="white" r="1" /><circle cx="493" cy="889" fill="white" r="1" /><circle cx="494" cy="889" fill="white" r="1" /><circle cx="499" cy="889" fill="white" r="1" /><circle cx="500" cy="889" fill="white" r="1" /><circle cx="504" cy="889" fill="white" r="1" /><circle cx="505" cy="889" fill="white" r="1" /><circle cx="487" cy="890" fill="white" r="1" /><circle cx="495" cy="890" fill="white" r="1" /><circle cx="499" cy="890" fill="white" r="1" /><circle cx="504" cy="890" fill="white" r="1" /><circle cx="493" cy="891" fill="white" r="1" /><circle cx="497" cy="891" fill="white" r="1" /><circle cx="499" cy="891" fill="white" r="1" /><circle cx="503" cy="891" fill="white" r="1" /><circle cx="490" cy="892" fill="white" r="1" /><circle cx="491" cy="892" fill="white" r="1" /><circle cx="492" cy="892" fill="white" r="1" /><circle cx="496" cy="892" fill="white" r="1" /><circle cx="498" cy="892" fill="white" r="1" /><circle cx="490" cy="893" fill="white" r="1" /><circle cx="492" cy="893" fill="white" r="1" /><circle cx="498" cy="893" fill="white" r="1" /><circle cx="490" cy="894" fill="white" r="1" /><circle cx="491" cy="894" fill="white" r="1" /><circle cx="492" cy="894" fill="white" r="1" /></svg>