<?xml version="1.0" encoding="utf-8" ?>
<svg baseProfile="tiny" height="256" version="1.2" width="256" xmlns="http://www.w3.org/2000/svg" xmlns:ev="http://www.w3.org/2001/xml-events" xmlns:xlink="http://www.w3.org/1999/xlink"><defs /><rect fill="black" height="256" width="256" x="0" y="0" /><polygon fill="white" points="233,255" /><polygon fill="white" points="180,255" /><polygon fill="white" points="221,254" /><polygon fill="white" points="131,254 130,255 132,255" /><polygon fill="white" points="242,253" /><polygon fill="white" points="233,253" /><polygon fill="white" points="141,253" /><polygon fill="white" points="237,252" /><polygon fill="white" points="231,252" /><polygon fill="white" points="218,252" /><polygon fill="white" points="215,252" /><polygon fill="white" points="253,251 253,252 252,253 251,252 250,253 252,253 253,252 254,252 254,251" /><polygon fill="white" points="226,251" /><polygon fill="white" points="166,251 164,253" /><polygon fill="white" points="163,251" /><polygon fill="white" points="247,250" /><polygon fill="white" points="224,250" /><polygon fill="white" points="190,249" /><polygon fill="white" points="160,249" /><polygon fill="white" points="253,246" /><polygon fill="white" points="204,243" /><polygon fill="white" points="172,242 173,242 174,243 173,242" /><polygon fill="white" points="140,242 138,244 138,245 135,248 135,249 132,252 135,249 136,249 135,248 138,245 138,244" /><polygon fill="white" points="255,241" /><polygon fill="white" points="242,236" /><polygon fill="white" points="227,234" /><polygon fill="white" points="239,233" /><polygon fill="white" points="254,232" /><polygon fill="white" points="149,230 147,232 147,233 144,236 144,237 141,240 144,237 144,236 147,233 147,232" /><polygon fill="white" points="201,229 201,230" /><polygon fill="white" points="238,228 238,230 236,232 237,232 238,231" /><polygon fill="white" points="223,228" /><polygon fill="white" points="225,227 229,231 228,232 229,231 230,231 231,232 229,234 231,232 232,232 231,232 229,230 228,230" /><polygon fill="white" points="223,226" /><polygon fill="white" points="169,224" /><polygon fill="white" points="219,222 221,224" /><polygon fill="white" points="155,222 153,224 153,225 150,228 153,225 153,224" /><polygon fill="white" points="237,220" /><polygon fill="white" points="216,220" /><polygon fill="white" points="214,218" /><polygon fill="white" points="158,218 156,220" /><polygon fill="white" points="203,217 204,217" /><polygon fill="white" points="236,216" /><polygon fill="white" points="211,216 212,217" /><polygon fill="white" points="208,214 207,215 208,214 209,215" /><polygon fill="white" points="161,214 159,216 161,216" /><polygon fill="white" points="199,213" /><polygon fill="white" points="235,212" /><polygon fill="white" points="221,212" /><polygon fill="white" points="219,211 219,212" /><polygon fill="white" points="202,210 203,211" /><polygon fill="white" points="220,208" /><polygon fill="white" points="215,208" /><polygon fill="white" points="199,208 200,209 199,210 200,209" /><polygon fill="white" points="194,208 195,208" /><polygon fill="white" points="233,207" /><polygon fill="white" points="197,207" /><polygon fill="white" points="193,206 192,207" /><polygon fill="white" points="212,205 213,206" /><polygon fill="white" points="232,204 232,205" /><polygon fill="white" points="219,204 219,205" /><polygon fill="white" points="191,204" /><polygon fill="white" points="233,202" /><polygon fill="white" points="231,202" /><polygon fill="white" points="185,201" /><polygon fill="white" points="179,201" /><polygon fill="white" points="182,200 183,200" /><polygon fill="white" points="178,199" /><polygon fill="white" points="233,198" /><polygon fill="white" points="176,198" /><polygon fill="white" points="173,198 171,200 171,201 168,204 168,205 165,208 165,209 162,212 163,211 164,211 166,213 165,214 164,214 165,214 166,213 166,211 165,212 164,211 164,210 165,209 166,209 166,207 169,204 169,203 171,201 171,200" /><polygon fill="white" points="253,197 253,198 254,197" /><polygon fill="white" points="216,196 216,198 217,199 217,200 217,199 216,198" /><polygon fill="white" points="202,196 207,201 205,199 205,198 204,198" /><polygon fill="white" points="228,195" /><polygon fill="white" points="212,195" /><polygon fill="white" points="209,195" /><polygon fill="white" points="204,195" /><polygon fill="white" points="254,194" /><polygon fill="white" points="208,193" /><polygon fill="white" points="204,193" /><polygon fill="white" points="211,192 212,193" /><polygon fill="white" points="226,191 227,192 227,193 227,192" /><polygon fill="white" points="210,190" /><polygon fill="white" points="225,189" /><polygon fill="white" points="212,188" /><polygon fill="white" points="233,187" /><polygon fill="white" points="224,187" /><polygon fill="white" points="210,185 211,186" /><polygon fill="white" points="222,184 223,185" /><polygon fill="white" points="221,182" /><polygon fill="white" points="93,182" /><polygon fill="white" points="252,180 251,181 252,180 253,180" /><polygon fill="white" points="219,179" /><polygon fill="white" points="184,179 185,180" /><polygon fill="white" points="219,176" /><polygon fill="white" points="187,173 187,174 186,175 186,176 185,177 186,176 186,175 188,173" /><polygon fill="white" points="127,172" /><polygon fill="white" points="123,172 124,173 123,174 122,174 123,174 124,173" /><polygon fill="white" points="130,171 131,171" /><polygon fill="white" points="134,170 135,170" /><polygon fill="white" points="124,170" /><polygon fill="white" points="138,169 139,169" /><polygon fill="white" points="126,167" /><polygon fill="white" points="127,165" /><polygon fill="white" points="64,164 63,165 60,165 61,165 62,166 64,164 66,166 65,167 64,167 65,167 66,168 67,168 68,167 69,167 72,164" /><polygon fill="white" points="254,163" /><polygon fill="white" points="128,163" /><polygon fill="white" points="75,163" /><polygon fill="white" points="171,161 171,164 174,161 173,161 172,162" /><polygon fill="white" points="250,160" /><polygon fill="white" points="129,160 129,161" /><polygon fill="white" points="243,159" /><polygon fill="white" points="80,159 78,161" /><polygon fill="white" points="130,158" /><polygon fill="white" points="247,157" /><polygon fill="white" points="172,157" /><polygon fill="white" points="177,156 176,157 176,158 176,157" /><polygon fill="white" points="50,156" /><polygon fill="white" points="3,156 4,156" /><polygon fill="white" points="6,155" /><polygon fill="white" points="201,154" /><polygon fill="white" points="131,154 131,155" /><polygon fill="white" points="51,154" /><polygon fill="white" points="8,154" /><polygon fill="white" points="175,153 174,154 172,154 172,155 174,155 174,154 175,153 176,154 176,153" /><polygon fill="white" points="4,153 3,154 4,153 5,153" /><polygon fill="white" points="0,152 0,153 1,154 0,155 1,155 1,153" /><polygon fill="white" points="89,151 85,155" /><polygon fill="white" points="15,151" /><polygon fill="white" points="132,150 132,151" /><polygon fill="white" points="54,150 52,152" /><polygon fill="white" points="11,150 10,151 11,151 12,152 11,153 10,153 11,153 12,152 13,152" /><polygon fill="white" points="196,149 197,150 198,150 199,149 198,149 197,150" /><polygon fill="white" points="50,149" /><polygon fill="white" points="197,147" /><polygon fill="white" points="194,147" /><polygon fill="white" points="46,147 48,149 48,148 47,147" /><polygon fill="white" points="199,146 201,146 202,147 203,146 204,146 205,147 205,149 205,146" /><polygon fill="white" points="57,146 55,148" /><polygon fill="white" points="50,146" /><polygon fill="white" points="43,146 44,146" /><polygon fill="white" points="34,146" /><polygon fill="white" points="208,145 207,146 207,147 207,146" /><polygon fill="white" points="173,145 173,146 174,146 175,145" /><polygon fill="white" points="56,144" /><polygon fill="white" points="35,144 36,145 37,145 37,144 36,145" /><polygon fill="white" points="133,140 133,144" /><polygon fill="white" points="63,138 61,140 59,140 59,141 60,142 58,144 62,140 62,139" /><polygon fill="white" points="31,138" /><polygon fill="white" points="104,136 103,137" /><polygon fill="white" points="106,133 105,134" /><polygon fill="white" points="109,129 108,130" /><polygon fill="white" points="111,126 110,127" /><polygon fill="white" points="133,124 133,131" /><polygon fill="white" points="113,123 112,124" /><polygon fill="white" points="17,123 18,124 19,124 20,125 20,126 21,126 21,125 20,125 19,124 18,124" /><polygon fill="white" points="15,122" /><polygon fill="white" points="115,120 114,121" /><polygon fill="white" points="116,118" /><polygon fill="white" points="118,115" /><polygon fill="white" points="119,113" /><polygon fill="white" points="120,111" /><polygon fill="white" points="249,108 247,110 246,110 245,111 244,111 243,112 243,113 244,113" /><polygon fill="white" points="236,108 237,109 237,108" /><polygon fill="white" points="122,108 121,109" /><polygon fill="white" points="246,107" /><polygon fill="white" points="128,106" /><polygon fill="white" points="123,106" /><polygon fill="white" points="233,105 234,106 234,107 234,106" /><polygon fill="white" points="124,104" /><polygon fill="white" points="255,102 254,103 253,103 253,104 251,106 250,105 250,104 251,103 250,104 250,105 251,106" /><polygon fill="white" points="201,102" /><polygon fill="white" points="125,102" /><polygon fill="white" points="249,101" /><polygon fill="white" points="199,101" /><polygon fill="white" points="252,100 253,101" /><polygon fill="white" points="196,100" /><polygon fill="white" points="255,99" /><polygon fill="white" points="193,99 194,99" /><polygon fill="white" points="191,98" /><polygon fill="white" points="216,97 216,98" /><polygon fill="white" points="248,93 249,93 250,94 249,93" /><polygon fill="white" points="205,93" /><polygon fill="white" points="255,92" /><polygon fill="white" points="201,92 203,92" /><polygon fill="white" points="206,91" /><polygon fill="white" points="208,90" /><polygon fill="white" points="223,89" /><polygon fill="white" points="227,88" /><polygon fill="white" points="217,86" /><polygon fill="white" points="238,85 239,86 240,86 239,86" /><polygon fill="white" points="221,85 221,86 222,87 223,87 223,86 222,87 221,86" /><polygon fill="white" points="214,85 215,86 215,85" /><polygon fill="white" points="233,84 233,85 234,86 236,86 235,85 234,85" /><polygon fill="white" points="219,84 219,85" /><polygon fill="white" points="230,83 231,83" /><polygon fill="white" points="217,83" /><polygon fill="white" points="234,82" /><polygon fill="white" points="228,79 227,80 227,81 228,81 227,80" /><polygon fill="white" points="224,79" /><polygon fill="white" points="231,74" /><polygon fill="white" points="236,73" /><polygon fill="white" points="254,64" /><polygon fill="white" points="251,64" /><polygon fill="white" points="246,57 245,58" /><polygon fill="white" points="240,57 240,58" /><polygon fill="white" points="230,55 229,56 229,57 228,58 231,55" /><polygon fill="white" points="240,54 241,54" /><polygon fill="white" points="237,52" /><polygon fill="white" points="107,52 107,56 106,57 106,63 105,64 105,68 106,69 106,70 106,57 107,56" /><polygon fill="white" points="238,50" /><polygon fill="white" points="238,48" /><polygon fill="white" points="252,39" /><polygon fill="white" points="253,37" /><polygon fill="white" points="255,34" /></svg>