<?xml version="1.0" encoding="utf-8" ?>
<svg baseProfile="tiny" height="256" version="1.2" width="256" xmlns="http://www.w3.org/2000/svg" xmlns:ev="http://www.w3.org/2001/xml-events" xmlns:xlink="http://www.w3.org/1999/xlink"><defs /><rect fill="black" height="256" width="256" x="0" y="0" /><polygon fill="white" points="202,102" /><polygon fill="white" points="126,102 125,103 125,104 124,105 124,106 123,107 123,108 121,110 121,111 120,112 120,113 119,114 119,115 117,117 117,118 116,119 116,120 114,122 114,123 112,125 112,126 110,128 110,129 107,132 107,133 105,135 105,136 102,139 103,139 104,140 106,140 107,141 109,141 111,143 111,144 107,148 99,148 98,147 94,147 85,156 84,156 78,162 77,162 75,164 74,164 70,168 69,168 68,169 67,169 63,173 62,173 60,175 59,175 58,176 57,176 55,178 54,178 53,179 52,179 50,181 49,181 48,182 47,182 45,184 44,184 43,185 42,185 41,186 40,186 39,187 38,187 37,188 36,188 35,189 34,189 33,190 32,190 31,191 30,191 28,193 27,193 26,194 25,194 25,195 24,196 26,198 40,198 41,197 45,197 46,196 50,196 51,195 55,195 56,194 58,194 59,193 62,193 63,192 65,192 66,191 69,191 70,190 71,190 72,189 74,189 75,188 78,188 79,187 80,187 81,186 82,186 83,185 85,185 86,184 87,184 88,183 90,183 91,182 92,182 93,181 95,181 97,179 99,179 100,178 101,178 102,177 103,177 104,176 106,176 107,175 108,175 109,174 111,174 112,173 118,173 119,174 120,174 127,181 128,180 129,180 131,178 132,178 135,175 136,175 137,174 138,174 138,171 139,170 136,170 135,171 132,171 131,172 128,172 127,173 125,173 123,175 122,175 121,174 122,173 122,172 123,171 123,170 125,168 125,167 126,166 126,165 127,164 127,163 128,162 128,160 129,159 129,158 130,157 130,154 131,153 131,150 132,149 132,140 133,139 133,132 132,131 132,120 118,134 117,134 116,133 117,132 117,131 120,128 120,127 122,125 122,124 124,122 124,121 125,120 125,119 127,117 127,116 126,115 126,111 127,110 127,109 128,108 128,107 127,106 127,104 126,103" /><polygon fill="white" points="193,97 192,98 194,98 195,99 196,99 197,100 196,99 196,98 195,98 194,97" /></svg>