<?xml version="1.0" encoding="utf-8" ?>
<svg baseProfile="tiny" height="256" version="1.2" width="256" xmlns="http://www.w3.org/2000/svg" xmlns:ev="http://www.w3.org/2001/xml-events" xmlns:xlink="http://www.w3.org/1999/xlink"><defs /><rect fill="black" height="256" width="256" x="0" y="0" /><polygon fill="white" points="237,221 237,230 235,232 233,232 232,231 231,231 230,230 231,231 232,231 233,232 235,232 237,230" /><polygon fill="white" points="232,206 232,207 233,208 233,210 234,211 234,213 235,214 235,216 236,217 236,219 236,217 235,216 235,214 234,213 234,211 233,210 233,208 232,207" /><polygon fill="white" points="219,202 219,203" /><polygon fill="white" points="184,200 185,200 186,201 187,201 188,202 189,202 190,203 191,203 192,204 193,204 194,205 195,205 196,206 197,206 198,207 199,207 201,209 202,209 204,211 205,211 207,213 208,213 210,215 211,215 213,217 214,217 218,221 219,221 224,226 225,226 228,229 225,226 224,226 219,221 218,221 214,217 213,217 211,215 210,215 208,213 207,213 204,210 203,210 202,209 201,209 199,207 198,207 197,206 196,206 195,205 194,205 193,204 192,204 191,203 190,203 189,202 188,202 187,201 186,201 185,200" /><polygon fill="white" points="181,199 182,199" /><polygon fill="white" points="217,197 217,198 218,199 218,200 218,199 217,198" /><polygon fill="white" points="167,197 166,198 164,198 163,199 161,199 159,201 158,201 156,203 155,203 154,204 153,204 151,206 150,206 149,207 148,207 147,208 146,208 145,209 144,209 143,210 142,210 141,211 140,211 139,212 138,212 137,213 136,213 135,214 133,214 132,215 131,215 130,216 129,216 128,217 127,217 126,218 125,218 124,219 123,219 123,221 122,222 122,223 121,224 121,225 120,226 120,227 119,228 119,229 118,230 118,231 117,232 117,233 116,234 116,235 114,237 114,238 113,239 113,240 112,241 112,242 111,243 111,244 110,245 110,246 108,248 108,249 107,250 107,251 106,252 106,253 104,255 129,255 131,253 131,252 134,249 134,248 137,245 137,244 140,241 140,240 143,237 143,236 146,233 146,232 149,229 149,228 152,225 152,224 155,221 155,220 158,217 158,216 161,213 161,212 164,209 164,208 167,205 167,204 170,201 170,200 173,197 176,197 177,198 179,198 177,198 176,197" /><polygon fill="white" points="199,195 200,195 209,204 210,204 214,208 214,209 217,212 218,212 219,213 222,213 222,212 221,211 221,208 220,207 220,205 220,207 221,208 221,211 222,212 221,213 219,213 208,202 207,202 200,195" /><polygon fill="white" points="222,185 223,186 223,187 224,188 224,189 225,190 225,191 226,192 226,193 227,194 227,195 228,196 228,197 229,198 229,199 230,200 230,202 231,203 231,204 231,203 230,202 230,200 229,199 229,198 228,197 228,196 227,195 227,194 226,193 226,192 225,191 225,190 224,189 224,188 223,187 223,186" /><polygon fill="white" points="86,185" /><polygon fill="white" points="211,184 211,185 212,186 212,187 213,188 213,189 214,190 214,191 215,192 215,193 216,194 216,195 216,194 215,193 215,192 214,191 214,190 213,189 213,188 212,187 212,186 211,185" /><polygon fill="white" points="91,183 90,184 92,184 92,183" /><polygon fill="white" points="94,182" /><polygon fill="white" points="219,180 220,181 220,182 221,183 220,182 220,181" /><polygon fill="white" points="217,177 218,178" /><polygon fill="white" points="139,173 139,174" /><polygon fill="white" points="190,165 190,166 189,167 189,168 188,169 188,170 187,171 187,172 186,173 186,174 185,175 185,176 184,177 184,178 183,179 183,180 181,182 181,183 180,184 180,186 181,185 182,186 180,184 181,183 181,182 183,180 183,179 184,178 184,177 185,176 185,175 186,174 186,173 187,172 187,171 188,170 188,169 189,168 189,167 190,166" /><polygon fill="white" points="194,163 195,163" /><polygon fill="white" points="192,162 191,163" /><polygon fill="white" points="14,152" /><polygon fill="white" points="181,150 180,151 180,152 179,153 179,154 178,155 178,156 177,157 177,158 175,160 175,161 171,165 170,164 170,161 171,160 171,154 171,160 170,161 170,165 171,166 171,165 176,160 176,159 177,158 177,157 178,156 178,155 179,154 179,153 180,152 180,151" /><polygon fill="white" points="48,150" /><polygon fill="white" points="193,147 201,155" /><polygon fill="white" points="41,146 42,146" /><polygon fill="white" points="35,146 36,146" /><polygon fill="white" points="172,145 172,148" /><polygon fill="white" points="64,138 63,139 63,140 58,145 58,146 55,149 55,150 52,153 52,154 51,155 51,156 50,157 50,159 51,160 51,161 52,161 53,162 54,162 55,163 56,163 57,164 63,164 64,163 74,163 75,162 76,162 80,158 81,158 89,150 90,150 94,146 93,146 92,145 89,145 88,144 85,144 84,143 81,143 80,142 78,142 77,141 75,141 74,140 72,140 71,139 69,139 68,138" /><polygon fill="white" points="129,107" /><polygon fill="white" points="128,105" /><polygon fill="white" points="255,103 244,114 245,114 246,115 247,115 249,117 250,117 251,118 252,118 253,119 254,119 255,120" /><polygon fill="white" points="254,96 254,97" /><polygon fill="white" points="251,95 250,96 251,96" /><polygon fill="white" points="248,94 247,95" /><polygon fill="white" points="244,94" /><polygon fill="white" points="241,93" /><polygon fill="white" points="243,92" /><polygon fill="white" points="238,92" /><polygon fill="white" points="241,91" /><polygon fill="white" points="239,90" /><polygon fill="white" points="237,89" /><polygon fill="white" points="229,88" /><polygon fill="white" points="225,86" /><polygon fill="white" points="165,70 165,71 164,72 164,73 163,74 163,75 162,76 162,77 161,78 161,79 159,81 159,82 157,84 157,85 156,86 156,87 154,89 154,90 152,92 152,93 149,96 149,97 147,99 147,100 145,102 145,103 142,106 142,107 139,110 139,111 135,115 135,116 133,118 133,123 134,124 134,144 133,145 133,151 132,152 132,155 131,156 131,158 130,159 130,161 129,162 129,163 128,164 128,165 127,166 127,167 125,169 125,170 124,171 124,172 123,173 124,172 126,172 127,171 129,171 130,170 133,170 134,169 137,169 138,168 139,168 140,169 140,170 140,165 141,164 141,138 140,137 140,130 139,129 139,127 140,126 141,127 141,128 143,130 143,131 144,132 144,133 145,134 145,135 146,136 146,137 147,138 147,139 148,140 148,142 149,143 149,144 150,145 150,147 151,148 151,150 152,151 152,154 153,155 153,157 154,158 154,159 155,158 155,157 156,156 156,155 157,154 157,153 158,152 158,150 159,149 159,147 160,146 160,143 161,142 161,139 162,138 162,122 161,121 161,120 162,119 165,122 165,123 167,125 167,126 168,127 168,128 169,129 169,130 170,131 170,133 171,134 171,137 172,138 172,143 174,141 176,141 177,140 180,140 182,142 181,141 181,139 180,138 180,137 181,136 183,138 184,138 185,139 187,137 188,137 189,136 191,136 192,135 194,135 195,134 197,134 198,133 200,133 201,132 203,132 204,131 206,131 207,130 209,130 210,129 212,129 213,128 215,128 216,127 218,127 219,126 220,126 221,125 223,125 224,124 226,124 227,123 227,122 226,121 225,121 215,111 214,111 211,108 210,108 208,106 207,106 205,104 204,104 203,103 201,103 200,102 199,102 198,101 196,101 195,100 193,100 192,99 191,99 190,98 189,98 188,99 186,99 185,100 182,100 181,99 179,99 178,98 177,98 176,97 174,97 172,95 171,95 167,91 167,82 166,81 166,70" /><polygon fill="white" points="105,62 105,63" /><polygon fill="white" points="0,57 1,58 2,58 3,59 1,57" /><polygon fill="white" points="122,0 121,1 121,3 120,4 120,6 119,7 119,9 118,10 118,12 117,13 117,15 116,16 116,18 115,19 115,21 114,22 114,25 113,26 113,28 112,29 112,32 111,33 111,35 110,36 109,36 109,40 108,41 108,56 107,57 107,70 106,71 105,70 105,69 104,68 104,66 103,66 101,64 101,62 100,61 100,60 99,59 99,58 98,57 98,56 97,55 97,54 96,53 96,52 95,51 95,50 94,49 94,47 93,46 93,45 92,44 92,43 90,41 90,40 89,39 89,37 88,36 88,35 87,34 87,33 86,32 86,31 84,29 81,29 81,36 82,37 82,41 83,42 83,47 84,48 84,52 85,53 85,58 86,59 86,63 87,64 87,70 88,71 88,76 89,77 89,82 90,83 90,86 89,87 88,87 87,86 82,86 81,85 77,85 76,84 72,84 71,83 68,83 67,82 64,82 63,81 60,81 59,80 57,80 56,79 53,79 52,78 50,78 49,77 47,77 46,76 45,76 44,75 44,74 43,73 43,71 42,70 42,67 41,66 41,64 40,63 40,60 39,59 39,55 38,54 38,52 37,51 37,48 36,47 36,41 35,40 35,35 34,34 34,28 33,27 33,26 32,26 31,27 31,28 30,29 30,31 29,32 29,35 28,36 28,41 27,42 27,49 26,50 26,61 25,62 25,71 23,73 18,73 14,77 14,81 15,82 16,82 17,83 19,83 20,84 27,84 29,86 29,87 27,89 27,90 26,91 26,92 25,93 25,94 23,96 23,97 22,98 22,101 23,102 34,102 35,103 42,103 43,104 44,104 48,108 49,108 52,111 53,111 56,114 57,114 60,117 61,117 64,120 65,120 66,121 67,121 69,123 70,123 71,124 72,124 74,126 75,126 76,127 77,127 79,129 80,129 81,130 82,130 83,131 84,131 85,132 86,132 87,133 88,133 89,134 90,134 91,135 92,135 93,136 94,136 95,137 96,137 97,138 99,138 100,139 101,139 102,138 102,137 104,135 104,134 107,131 107,130 109,128 109,127 111,125 111,124 113,122 113,121 115,119 115,118 117,116 117,115 118,114 118,113 119,112 119,111 120,110 120,109 122,107 122,106 123,105 123,104 124,103 124,102 125,101 126,101 127,102 127,103 127,101 128,100 130,102 130,103 131,104 131,105 133,103 133,102 134,101 134,100 135,99 135,98 136,97 136,96 137,95 137,94 138,93 138,92 139,91 139,90 140,89 140,88 141,87 141,86 142,85 142,84 143,83 143,81 144,80 144,79 145,78 145,76 146,75 146,74 147,73 147,71 148,70 148,67 149,66 149,63 150,62 150,59 151,58 151,53 152,52 152,45 153,44 153,27 152,26 152,19 151,18 151,14 150,13 150,11 151,10 151,9 153,7 155,7 160,12 160,13 163,16 163,17 165,19 165,20 166,21 166,22 168,24 168,25 169,26 169,27 170,28 170,26 169,25 169,24 168,23 168,22 167,21 167,20 166,19 166,18 165,17 165,16 164,15 164,14 163,13 163,11 162,10 162,9 164,7 171,14 171,15 171,7 170,6 170,0" /></svg>