<?xml version="1.0" encoding="utf-8" ?>
<svg baseProfile="tiny" height="256" version="1.2" width="256" xmlns="http://www.w3.org/2000/svg" xmlns:ev="http://www.w3.org/2001/xml-events" xmlns:xlink="http://www.w3.org/1999/xlink"><defs /><rect fill="black" height="256" width="256" x="0" y="0" /><polygon fill="white" points="34,147 33,148 29,148 28,149 26,149 25,150 22,150 21,151 19,151 18,152 16,152 15,153 13,153 12,154 11,154 10,155 9,155 8,156 7,156 6,157 5,157 4,158 3,158 2,159 1,159 0,160 0,255 88,255 89,254 90,254 93,251 94,251 99,246 99,245 102,242 102,241 103,240 103,239 102,238 101,238 100,239 98,239 97,240 96,240 95,241 92,241 91,242 90,242 89,243 87,243 86,244 85,244 84,245 83,245 82,246 81,246 79,244 79,243 78,242 78,240 79,239 79,232 80,231 80,228 81,227 81,221 82,220 82,217 83,216 83,212 84,211 84,208 85,207 85,205 86,204 86,201 87,200 87,197 88,196 88,195 89,194 89,192 90,191 90,189 91,188 91,185 87,185 86,186 85,186 84,187 83,187 82,188 80,188 79,189 77,189 76,190 74,190 73,191 71,191 70,192 68,192 67,193 64,193 63,194 61,194 60,195 57,195 56,196 53,196 52,197 49,197 48,198 43,198 42,199 37,199 36,200 27,200 26,199 25,199 23,197 23,195 26,192 27,192 29,190 30,190 31,189 32,189 33,188 34,188 35,187 36,187 37,186 38,186 39,185 40,185 41,184 42,184 43,183 44,183 45,182 46,182 48,180 49,180 51,178 52,178 53,177 54,177 56,175 57,175 59,173 60,173 61,172 62,172 65,169 64,169 63,168 62,168 60,166 59,166 58,165 57,165 56,164 55,164 54,163 53,163 52,162 51,162 49,164 48,163 48,160 47,159 47,157 48,156 48,152 47,151 47,150 45,148 44,148 43,147" /><polygon fill="white" points="88,86 89,86" /><polygon fill="white" points="82,85 84,85" /><polygon fill="white" points="78,84" /><polygon fill="white" points="72,83 73,83" /><polygon fill="white" points="68,82 69,82" /><polygon fill="white" points="64,81 65,81" /><polygon fill="white" points="60,80 61,80" /><polygon fill="white" points="57,79" /><polygon fill="white" points="50,77" /><polygon fill="white" points="47,76" /><polygon fill="white" points="45,75" /><polygon fill="white" points="2,57" /><polygon fill="white" points="175,42 175,43 174,44 174,47 173,48 173,51 172,52 172,53 174,53 175,52 178,52 179,51 181,51 181,49 176,44 176,43" /><polygon fill="white" points="80,32" /><polygon fill="white" points="171,0 171,6 172,7 172,15 173,16 173,17 176,20 176,21 177,22 177,23 180,26 180,27 182,29 182,30 183,31 183,32 185,34 185,35 188,38 188,39 190,41 190,42 192,44 192,45 193,46 194,46 195,45 196,45 197,44 198,44 200,42 201,42 202,41 203,41 204,40 205,40 206,39 207,39 208,38 210,38 211,37 213,37 216,40 216,42 221,37 222,37 222,36 224,34 225,34 232,27 233,27 235,25 235,24 236,23 237,23 237,22 238,21 239,21 239,20 240,19 241,19 242,18 242,17 245,14 246,14 249,11 249,10 250,9 251,9 251,8 253,6 254,6 255,5 255,0" /></svg>