<?xml version="1.0" encoding="utf-8" ?>
<svg baseProfile="tiny" height="256" version="1.2" width="256" xmlns="http://www.w3.org/2000/svg" xmlns:ev="http://www.w3.org/2001/xml-events" xmlns:xlink="http://www.w3.org/1999/xlink"><defs /><rect fill="black" height="256" width="256" x="0" y="0" /><polygon fill="white" points="89,255" /><polygon fill="white" points="107,249 106,250 106,251 105,252 105,253 103,255 105,253 105,252 106,251 106,250" /><polygon fill="white" points="109,246 108,247" /><polygon fill="white" points="110,244" /><polygon fill="white" points="111,242" /><polygon fill="white" points="89,242" /><polygon fill="white" points="112,240" /><polygon fill="white" points="113,238" /><polygon fill="white" points="100,238" /><polygon fill="white" points="115,235 114,236" /><polygon fill="white" points="80,234" /><polygon fill="white" points="116,233" /><polygon fill="white" points="117,231" /><polygon fill="white" points="92,230" /><polygon fill="white" points="118,229" /><polygon fill="white" points="81,228" /><polygon fill="white" points="119,227" /><polygon fill="white" points="120,225" /><polygon fill="white" points="89,225" /><polygon fill="white" points="121,223" /><polygon fill="white" points="82,222 82,223" /><polygon fill="white" points="93,221" /><polygon fill="white" points="122,220 122,221" /><polygon fill="white" points="96,219" /><polygon fill="white" points="99,217" /><polygon fill="white" points="83,217" /><polygon fill="white" points="102,215" /><polygon fill="white" points="105,213" /><polygon fill="white" points="85,208" /><polygon fill="white" points="113,207" /><polygon fill="white" points="86,205" /><polygon fill="white" points="117,204" /><polygon fill="white" points="122,200" /><polygon fill="white" points="27,199 36,199" /><polygon fill="white" points="88,198" /><polygon fill="white" points="41,198 42,198" /><polygon fill="white" points="46,197 48,197" /><polygon fill="white" points="24,197 25,198" /><polygon fill="white" points="51,196 52,196" /><polygon fill="white" points="56,195" /><polygon fill="white" points="24,195" /><polygon fill="white" points="59,194 60,194" /><polygon fill="white" points="197,193" /><polygon fill="white" points="63,193" /><polygon fill="white" points="26,193" /><polygon fill="white" points="66,192 67,192" /><polygon fill="white" points="194,191" /><polygon fill="white" points="70,191" /><polygon fill="white" points="29,191 28,192" /><polygon fill="white" points="133,190 131,192" /><polygon fill="white" points="91,190" /><polygon fill="white" points="72,190 73,190" /><polygon fill="white" points="31,190" /><polygon fill="white" points="191,189" /><polygon fill="white" points="75,189 76,189" /><polygon fill="white" points="33,189" /><polygon fill="white" points="189,188" /><polygon fill="white" points="79,188" /><polygon fill="white" points="35,188" /><polygon fill="white" points="187,187" /><polygon fill="white" points="37,187" /><polygon fill="white" points="184,186" /><polygon fill="white" points="135,186" /><polygon fill="white" points="83,186 82,187 81,187 82,187 83,186 84,186" /><polygon fill="white" points="39,186" /><polygon fill="white" points="182,185" /><polygon fill="white" points="92,185" /><polygon fill="white" points="41,185" /><polygon fill="white" points="88,184 89,184" /><polygon fill="white" points="43,184" /><polygon fill="white" points="210,183" /><polygon fill="white" points="136,183" /><polygon fill="white" points="45,183" /><polygon fill="white" points="209,181" /><polygon fill="white" points="48,181" /><polygon fill="white" points="137,180" /><polygon fill="white" points="51,179 50,180" /><polygon fill="white" points="53,178" /><polygon fill="white" points="138,177" /><polygon fill="white" points="206,176" /><polygon fill="white" points="56,176 55,177" /><polygon fill="white" points="216,175 217,176" /><polygon fill="white" points="61,173 60,174 59,174 58,175 59,174 60,174" /><polygon fill="white" points="214,172" /><polygon fill="white" points="203,172" /><polygon fill="white" points="212,169" /><polygon fill="white" points="198,166 200,168" /><polygon fill="white" points="61,166 62,167 63,167 64,168 65,168 66,169 63,172 66,169 65,168 64,168 63,167 62,167" /><polygon fill="white" points="59,165" /><polygon fill="white" points="208,164" /><polygon fill="white" points="205,160" /><polygon fill="white" points="50,160 50,161" /><polygon fill="white" points="202,156" /><polygon fill="white" points="9,154 8,155 7,155 6,156 5,156 4,157 3,157 2,158 1,158 0,159 1,158 2,158 3,157 4,157 5,156 6,156 7,155 8,155 9,154 10,154" /><polygon fill="white" points="49,153 49,156 48,157 48,159 48,157 49,156" /><polygon fill="white" points="12,153" /><polygon fill="white" points="48,151" /><polygon fill="white" points="16,151 15,152 16,151 18,151" /><polygon fill="white" points="181,149" /><polygon fill="white" points="172,149 172,152" /><polygon fill="white" points="22,149 21,150 20,150 21,150 22,149 25,149" /><polygon fill="white" points="27,148 28,148" /><polygon fill="white" points="44,147 45,147 47,149 45,147" /><polygon fill="white" points="31,147 33,147" /><polygon fill="white" points="192,146" /><polygon fill="white" points="37,146 40,146" /><polygon fill="white" points="93,145" /><polygon fill="white" points="85,143" /><polygon fill="white" points="174,142 175,142" /><polygon fill="white" points="81,142" /><polygon fill="white" points="180,141" /><polygon fill="white" points="177,141" /><polygon fill="white" points="78,141" /><polygon fill="white" points="186,140" /><polygon fill="white" points="187,138" /><polygon fill="white" points="189,137" /><polygon fill="white" points="192,136" /><polygon fill="white" points="195,135 196,135" /><polygon fill="white" points="90,135" /><polygon fill="white" points="198,134 199,134" /><polygon fill="white" points="88,134" /><polygon fill="white" points="201,133 202,133" /><polygon fill="white" points="86,133" /><polygon fill="white" points="204,132 205,132" /><polygon fill="white" points="118,132" /><polygon fill="white" points="84,132" /><polygon fill="white" points="207,131 208,131" /><polygon fill="white" points="82,131" /><polygon fill="white" points="210,130 211,130" /><polygon fill="white" points="213,129 214,129" /><polygon fill="white" points="216,128" /><polygon fill="white" points="77,128" /><polygon fill="white" points="219,127" /><polygon fill="white" points="75,127" /><polygon fill="white" points="221,126 222,126" /><polygon fill="white" points="224,125" /><polygon fill="white" points="72,125" /><polygon fill="white" points="228,123 227,124" /><polygon fill="white" points="124,123" /><polygon fill="white" points="67,122" /><polygon fill="white" points="126,120" /><polygon fill="white" points="252,119 253,120 254,120 255,121 254,120 253,120" /><polygon fill="white" points="250,118" /><polygon fill="white" points="61,118" /><polygon fill="white" points="247,116 248,117" /><polygon fill="white" points="245,115" /><polygon fill="white" points="57,115" /><polygon fill="white" points="53,112" /><polygon fill="white" points="216,111 225,120" /><polygon fill="white" points="128,109" /><polygon fill="white" points="49,109" /><polygon fill="white" points="212,108 214,110" /><polygon fill="white" points="209,106 210,107" /><polygon fill="white" points="44,105" /><polygon fill="white" points="206,104 207,105" /><polygon fill="white" points="204,103" /><polygon fill="white" points="31,103 34,103" /><polygon fill="white" points="21,100 21,101 22,102 21,101" /><polygon fill="white" points="182,99 185,99" /><polygon fill="white" points="188,98" /><polygon fill="white" points="179,98 180,98" /><polygon fill="white" points="177,97" /><polygon fill="white" points="173,95 174,96 175,96 174,96" /><polygon fill="white" points="24,94" /><polygon fill="white" points="170,93 171,94" /><polygon fill="white" points="25,92" /><polygon fill="white" points="235,91" /><polygon fill="white" points="233,90" /><polygon fill="white" points="231,89" /><polygon fill="white" points="168,89 168,91" /><polygon fill="white" points="227,87" /><polygon fill="white" points="28,87" /><polygon fill="white" points="230,85" /><polygon fill="white" points="25,85 27,85" /><polygon fill="white" points="77,84" /><polygon fill="white" points="19,84" /><polygon fill="white" points="227,83" /><polygon fill="white" points="89,83" /><polygon fill="white" points="16,83" /><polygon fill="white" points="223,80" /><polygon fill="white" points="13,79" /><polygon fill="white" points="53,78" /><polygon fill="white" points="88,77" /><polygon fill="white" points="16,74 14,76" /><polygon fill="white" points="167,72 167,81" /><polygon fill="white" points="87,71" /><polygon fill="white" points="43,70" /><polygon fill="white" points="166,69" /><polygon fill="white" points="22,69 23,69 24,70 24,71 23,72 21,72 23,72 24,71 24,69" /><polygon fill="white" points="20,68" /><polygon fill="white" points="17,67 18,67" /><polygon fill="white" points="15,66" /><polygon fill="white" points="103,65" /><polygon fill="white" points="13,65" /><polygon fill="white" points="86,64 86,65" /><polygon fill="white" points="41,63" /><polygon fill="white" points="53,62" /><polygon fill="white" points="85,59" /><polygon fill="white" points="40,59" /><polygon fill="white" points="60,58 56,62" /><polygon fill="white" points="25,58 25,61" /><polygon fill="white" points="3,58 4,59 4,60 5,60 7,62 8,62 9,63 10,63 11,64 10,63 9,63 7,61 6,61" /><polygon fill="white" points="53,56 53,57" /><polygon fill="white" points="0,56" /><polygon fill="white" points="171,54" /><polygon fill="white" points="63,54 61,56" /><polygon fill="white" points="97,53" /><polygon fill="white" points="84,53" /><polygon fill="white" points="54,52" /><polygon fill="white" points="183,51" /><polygon fill="white" points="65,51 64,52" /><polygon fill="white" points="38,51" /><polygon fill="white" points="172,50" /><polygon fill="white" points="55,49" /><polygon fill="white" points="83,48" /><polygon fill="white" points="67,48" /><polygon fill="white" points="26,48 26,49" /><polygon fill="white" points="192,46 193,47" /><polygon fill="white" points="173,46" /><polygon fill="white" points="37,46 37,47" /><polygon fill="white" points="178,45 180,47" /><polygon fill="white" points="56,45 56,46" /><polygon fill="white" points="70,44 69,45" /><polygon fill="white" points="190,43 191,44" /><polygon fill="white" points="57,43" /><polygon fill="white" points="82,42" /><polygon fill="white" points="91,41" /><polygon fill="white" points="72,41" /><polygon fill="white" points="188,40" /><polygon fill="white" points="58,40 58,41" /><polygon fill="white" points="36,40" /><polygon fill="white" points="27,40 27,41" /><polygon fill="white" points="220,39 218,41" /><polygon fill="white" points="90,39" /><polygon fill="white" points="213,38" /><polygon fill="white" points="211,38" /><polygon fill="white" points="81,37" /><polygon fill="white" points="75,37 74,38" /><polygon fill="white" points="59,37 59,38" /><polygon fill="white" points="108,36 108,40" /><polygon fill="white" points="110,35" /><polygon fill="white" points="60,35" /><polygon fill="white" points="28,35" /><polygon fill="white" points="183,33 184,34" /><polygon fill="white" points="78,33 77,34" /><polygon fill="white" points="35,33 35,34" /><polygon fill="white" points="61,32 61,33" /><polygon fill="white" points="29,31" /><polygon fill="white" points="80,30 79,31 80,31" /><polygon fill="white" points="62,30" /><polygon fill="white" points="231,29 230,30" /><polygon fill="white" points="180,28" /><polygon fill="white" points="63,28" /><polygon fill="white" points="31,26" /><polygon fill="white" points="178,25" /><polygon fill="white" points="113,25" /><polygon fill="white" points="64,25 64,26" /><polygon fill="white" points="65,23" /><polygon fill="white" points="176,22" /><polygon fill="white" points="66,21" /><polygon fill="white" points="174,19" /><polygon fill="white" points="67,19" /><polygon fill="white" points="172,16" /><polygon fill="white" points="68,16 68,17" /><polygon fill="white" points="69,14" /><polygon fill="white" points="70,12" /><polygon fill="white" points="71,10" /><polygon fill="white" points="72,8" /><polygon fill="white" points="119,6" /><polygon fill="white" points="75,1 75,2 74,3 75,2" /></svg>