<?xml version="1.0" encoding="utf-8" ?>
<svg baseProfile="tiny" height="256" version="1.2" width="256" xmlns="http://www.w3.org/2000/svg" xmlns:ev="http://www.w3.org/2001/xml-events" xmlns:xlink="http://www.w3.org/1999/xlink"><defs /><rect fill="black" height="256" width="256" x="0" y="0" /><polygon fill="white" points="93,183 93,184" /><polygon fill="white" points="162,120 162,121 163,122 163,138 162,139 162,142 161,143 161,146 160,147 160,149 159,150 159,152 158,153 158,154 157,155 157,156 156,157 156,158 154,160 153,159 153,158 152,157 152,155 151,154 151,151 150,150 150,148 149,147 149,145 148,144 148,143 147,142 147,140 146,139 146,138 145,137 145,136 144,135 144,134 143,133 143,132 142,131 142,130 140,128 140,127 140,129 141,130 141,137 142,138 142,164 141,165 141,170 140,171 140,174 139,175 139,177 138,178 138,180 137,181 137,183 136,184 136,186 135,187 135,188 134,189 134,190 131,193 130,193 122,201 121,201 117,205 116,205 113,208 112,208 109,211 108,211 105,214 104,214 102,216 101,216 99,218 98,218 96,220 95,220 93,222 92,222 90,224 90,225 89,226 89,227 90,228 90,229 97,229 98,228 101,228 102,227 104,227 105,226 107,226 108,225 109,225 110,224 112,224 113,223 114,223 115,222 117,222 118,221 119,221 120,220 121,220 123,218 124,218 125,217 126,217 127,216 128,216 129,215 130,215 131,214 132,214 133,213 135,213 136,212 137,212 138,211 139,211 140,210 141,210 142,209 143,209 144,208 145,208 146,207 147,207 148,206 149,206 150,205 151,205 153,203 154,203 155,202 156,202 158,200 159,200 161,198 163,198 164,197 166,197 167,196 176,196 177,197 179,197 180,198 182,198 183,199 185,199 186,200 187,200 188,201 189,201 190,202 191,202 192,203 193,203 194,204 195,204 196,205 197,205 198,206 199,206 201,208 202,208 203,209 204,209 207,212 208,212 210,214 211,214 213,216 214,216 218,220 219,220 224,225 225,225 229,229 230,229 231,230 232,230 233,231 235,231 236,230 236,220 235,219 235,217 234,216 234,214 233,213 233,211 232,210 232,208 231,207 231,205 230,204 230,203 229,202 229,200 228,199 228,198 227,197 227,196 226,195 226,194 225,193 225,192 224,191 224,190 223,189 223,188 222,187 222,186 221,185 221,184 219,182 219,181 218,180 218,179 216,177 216,176 215,175 215,174 213,172 213,171 211,169 211,168 207,164 207,163 204,160 204,159 184,139 183,139 180,136 181,137 181,138 182,139 182,141 181,142 183,144 183,146 182,147 182,150 181,151 181,152 180,153 180,154 179,155 179,156 178,157 178,158 177,159 177,160 172,165 172,166 171,167 169,165 169,161 170,160 170,154 171,153 171,145 172,144 171,143 171,138 170,137 170,134 169,133 169,131 168,130 168,129 167,128 167,127 166,126 166,125 164,123 164,122" /><polygon fill="white" points="255,97" /><polygon fill="white" points="252,96 253,96" /><polygon fill="white" points="102,64" /><polygon fill="white" points="96,51" /><polygon fill="white" points="95,49" /><polygon fill="white" points="153,8 152,9 152,10 151,11 151,13 152,14 152,18 153,19 153,26 154,27 154,44 153,45 153,52 152,53 152,58 151,59 151,62 150,63 150,66 149,67 149,70 148,71 148,73 147,74 147,75 146,76 146,78 145,79 145,80 144,81 144,83 143,84 143,85 142,86 142,87 141,88 141,89 140,90 140,91 139,92 139,93 138,94 138,95 137,96 137,97 136,98 136,99 135,100 135,101 134,102 134,103 131,106 130,105 130,104 129,103 129,102 128,101 128,104 129,105 129,106 130,107 129,108 129,109 128,110 128,118 127,119 127,120 125,122 125,123 123,125 123,126 121,128 121,129 119,131 134,116 134,115 138,111 138,110 141,107 141,106 144,103 144,102 146,100 146,99 148,97 148,96 151,93 151,92 153,90 153,89 155,87 155,86 156,85 156,84 158,82 158,81 160,79 160,78 161,77 161,76 162,75 162,74 163,73 163,72 164,71 164,70 166,68 166,66 167,65 167,63 168,62 168,61 169,60 169,58 170,57 170,54 171,53 171,50 172,49 172,46 173,45 173,42 175,40 176,41 176,42 181,47 181,48 200,67 201,67 206,72 207,72 211,76 212,76 215,79 216,79 218,81 219,81 221,83 222,83 224,85 225,85 226,86 227,86 228,87 229,87 230,88 231,88 232,89 233,89 234,90 235,90 236,91 238,91 239,92 241,92 242,93 244,93 245,94 247,94 248,95 250,95 248,95 247,94 246,94 245,93 243,93 242,92 241,92 240,91 239,91 238,90 237,90 235,88 234,88 233,87 232,87 231,86 230,86 228,84 227,84 224,81 223,81 220,78 219,78 204,63 204,62 199,57 199,56 196,53 196,52 193,49 193,48 191,46 191,45 189,43 189,42 187,40 187,39 185,37 185,36 182,33 182,32 181,31 181,30 179,28 179,27 177,25 177,24 175,22 175,21 173,19 173,18 170,15 170,14 164,8 163,9 163,10 164,11 164,13 165,14 165,15 166,16 166,17 167,18 167,19 168,20 168,21 169,22 169,23 170,24 170,25 171,26 171,28 170,29 168,27 168,26 167,25 167,24 165,22 165,21 164,20 164,19 162,17 162,16 159,13 159,12 155,8" /></svg>