<?xml version="1.0" encoding="utf-8" ?>
<svg baseProfile="tiny" height="256" version="1.2" width="256" xmlns="http://www.w3.org/2000/svg" xmlns:ev="http://www.w3.org/2001/xml-events" xmlns:xlink="http://www.w3.org/1999/xlink"><defs /><rect fill="black" height="256" width="256" x="0" y="0" /><polygon fill="white" points="91,254" /><polygon fill="white" points="97,249" /><polygon fill="white" points="102,243" /><polygon fill="white" points="86,243" /><polygon fill="white" points="94,240" /><polygon fill="white" points="104,239" /><polygon fill="white" points="80,235" /><polygon fill="white" points="81,229" /><polygon fill="white" points="83,218" /><polygon fill="white" points="84,213" /><polygon fill="white" points="85,209" /><polygon fill="white" points="87,202" /><polygon fill="white" points="88,199" /><polygon fill="white" points="90,193" /><polygon fill="white" points="194,190" /><polygon fill="white" points="132,190 131,191" /><polygon fill="white" points="134,187" /><polygon fill="white" points="92,187" /><polygon fill="white" points="186,186" /><polygon fill="white" points="93,185" /><polygon fill="white" points="209,182" /><polygon fill="white" points="136,181" /><polygon fill="white" points="207,179" /><polygon fill="white" points="136,177 137,177" /><polygon fill="white" points="202,172 203,173" /><polygon fill="white" points="214,171" /><polygon fill="white" points="212,168" /><polygon fill="white" points="198,167 199,168" /><polygon fill="white" points="209,164" /><polygon fill="white" points="205,159" /><polygon fill="white" points="179,148" /><polygon fill="white" points="178,142 177,143 178,143 179,142 180,143 180,146 181,147 181,144 179,142" /><polygon fill="white" points="174,95" /><polygon fill="white" points="168,85 168,86" /><polygon fill="white" points="214,79 215,80" /><polygon fill="white" points="220,77" /><polygon fill="white" points="210,76 211,77" /><polygon fill="white" points="205,72 206,73" /><polygon fill="white" points="167,67 167,69" /><polygon fill="white" points="197,65 200,68" /><polygon fill="white" points="168,65" /><polygon fill="white" points="169,62" /><polygon fill="white" points="204,61 207,64" /><polygon fill="white" points="170,59" /><polygon fill="white" points="199,55 201,57" /><polygon fill="white" points="186,55 187,56" /><polygon fill="white" points="171,55 171,56" /><polygon fill="white" points="173,54 174,54" /><polygon fill="white" points="177,53 178,53" /><polygon fill="white" points="180,52 181,52" /><polygon fill="white" points="196,51 197,52" /><polygon fill="white" points="194,47 194,48" /><polygon fill="white" points="196,46" /><polygon fill="white" points="215,43" /><polygon fill="white" points="201,43 200,44 199,44 198,45 199,44 200,44" /><polygon fill="white" points="207,40 206,41 205,41 204,42 203,42 204,42 205,41 206,41" /><polygon fill="white" points="214,39 214,40" /><polygon fill="white" points="209,39" /><polygon fill="white" points="212,38" /><polygon fill="white" points="229,31 227,33" /></svg>