<?xml version="1.0" encoding="utf-8" ?>
<svg baseProfile="tiny" height="256" version="1.2" width="256" xmlns="http://www.w3.org/2000/svg" xmlns:ev="http://www.w3.org/2001/xml-events" xmlns:xlink="http://www.w3.org/1999/xlink"><defs /><rect fill="black" height="256" width="256" x="0" y="0" /><line stroke="white" stroke-width="1" x1="91" x2="92" y1="254" y2="254" /><line stroke="white" stroke-width="1" x1="97" x2="98" y1="249" y2="249" /><line stroke="white" stroke-width="1" x1="102" x2="103" y1="243" y2="243" /><line stroke="white" stroke-width="1" x1="86" x2="87" y1="243" y2="243" /><line stroke="white" stroke-width="1" x1="94" x2="95" y1="240" y2="240" /><line stroke="white" stroke-width="1" x1="104" x2="105" y1="239" y2="239" /><line stroke="white" stroke-width="1" x1="80" x2="81" y1="235" y2="235" /><line stroke="white" stroke-width="1" x1="81" x2="82" y1="229" y2="229" /><line stroke="white" stroke-width="1" x1="83" x2="84" y1="218" y2="218" /><line stroke="white" stroke-width="1" x1="84" x2="85" y1="213" y2="213" /><line stroke="white" stroke-width="1" x1="85" x2="86" y1="209" y2="209" /><line stroke="white" stroke-width="1" x1="87" x2="88" y1="202" y2="202" /><line stroke="white" stroke-width="1" x1="88" x2="89" y1="199" y2="199" /><line stroke="white" stroke-width="1" x1="90" x2="91" y1="193" y2="193" /><line stroke="white" stroke-width="1" x1="194" x2="195" y1="190" y2="190" /><line stroke="white" stroke-width="1" x1="132" x2="133" y1="190" y2="190" /><line stroke="white" stroke-width="1" x1="131" x2="132" y1="191" y2="191" /><line stroke="white" stroke-width="1" x1="134" x2="135" y1="187" y2="187" /><line stroke="white" stroke-width="1" x1="92" x2="93" y1="187" y2="187" /><line stroke="white" stroke-width="1" x1="186" x2="187" y1="186" y2="186" /><line stroke="white" stroke-width="1" x1="93" x2="94" y1="185" y2="185" /><line stroke="white" stroke-width="1" x1="209" x2="210" y1="182" y2="182" /><line stroke="white" stroke-width="1" x1="136" x2="137" y1="181" y2="181" /><line stroke="white" stroke-width="1" x1="207" x2="208" y1="179" y2="179" /><line stroke="white" stroke-width="1" x1="136" x2="137" y1="177" y2="177" /><line stroke="white" stroke-width="1" x1="137" x2="138" y1="177" y2="177" /><line stroke="white" stroke-width="1" x1="202" x2="203" y1="172" y2="172" /><line stroke="white" stroke-width="1" x1="203" x2="204" y1="173" y2="173" /><line stroke="white" stroke-width="1" x1="214" x2="215" y1="171" y2="171" /><line stroke="white" stroke-width="1" x1="212" x2="213" y1="168" y2="168" /><line stroke="white" stroke-width="1" x1="198" x2="199" y1="167" y2="167" /><line stroke="white" stroke-width="1" x1="199" x2="200" y1="168" y2="168" /><line stroke="white" stroke-width="1" x1="209" x2="210" y1="164" y2="164" /><line stroke="white" stroke-width="1" x1="205" x2="206" y1="159" y2="159" /><line stroke="white" stroke-width="1" x1="179" x2="180" y1="148" y2="148" /><line stroke="white" stroke-width="1" x1="178" x2="179" y1="142" y2="142" /><line stroke="white" stroke-width="1" x1="179" x2="180" y1="142" y2="142" /><line stroke="white" stroke-width="1" x1="177" x2="178" y1="143" y2="143" /><line stroke="white" stroke-width="1" x1="178" x2="179" y1="143" y2="143" /><line stroke="white" stroke-width="1" x1="180" x2="181" y1="143" y2="143" /><line stroke="white" stroke-width="1" x1="180" x2="181" y1="144" y2="144" /><line stroke="white" stroke-width="1" x1="181" x2="182" y1="144" y2="144" /><line stroke="white" stroke-width="1" x1="180" x2="181" y1="145" y2="145" /><line stroke="white" stroke-width="1" x1="181" x2="182" y1="145" y2="145" /><line stroke="white" stroke-width="1" x1="180" x2="181" y1="146" y2="146" /><line stroke="white" stroke-width="1" x1="181" x2="182" y1="146" y2="146" /><line stroke="white" stroke-width="1" x1="181" x2="182" y1="147" y2="147" /><line stroke="white" stroke-width="1" x1="174" x2="175" y1="95" y2="95" /><line stroke="white" stroke-width="1" x1="168" x2="169" y1="85" y2="85" /><line stroke="white" stroke-width="1" x1="168" x2="169" y1="86" y2="86" /><line stroke="white" stroke-width="1" x1="214" x2="215" y1="79" y2="79" /><line stroke="white" stroke-width="1" x1="215" x2="216" y1="80" y2="80" /><line stroke="white" stroke-width="1" x1="220" x2="221" y1="77" y2="77" /><line stroke="white" stroke-width="1" x1="210" x2="211" y1="76" y2="76" /><line stroke="white" stroke-width="1" x1="211" x2="212" y1="77" y2="77" /><line stroke="white" stroke-width="1" x1="205" x2="206" y1="72" y2="72" /><line stroke="white" stroke-width="1" x1="206" x2="207" y1="73" y2="73" /><line stroke="white" stroke-width="1" x1="167" x2="168" y1="67" y2="67" /><line stroke="white" stroke-width="1" x1="167" x2="168" y1="68" y2="68" /><line stroke="white" stroke-width="1" x1="167" x2="168" y1="69" y2="69" /><line stroke="white" stroke-width="1" x1="197" x2="198" y1="65" y2="65" /><line stroke="white" stroke-width="1" x1="198" x2="199" y1="66" y2="66" /><line stroke="white" stroke-width="1" x1="199" x2="200" y1="67" y2="67" /><line stroke="white" stroke-width="1" x1="200" x2="201" y1="68" y2="68" /><line stroke="white" stroke-width="1" x1="168" x2="169" y1="65" y2="65" /><line stroke="white" stroke-width="1" x1="169" x2="170" y1="62" y2="62" /><line stroke="white" stroke-width="1" x1="204" x2="205" y1="61" y2="61" /><line stroke="white" stroke-width="1" x1="205" x2="206" y1="62" y2="62" /><line stroke="white" stroke-width="1" x1="206" x2="207" y1="63" y2="63" /><line stroke="white" stroke-width="1" x1="207" x2="208" y1="64" y2="64" /><line stroke="white" stroke-width="1" x1="170" x2="171" y1="59" y2="59" /><line stroke="white" stroke-width="1" x1="199" x2="200" y1="55" y2="55" /><line stroke="white" stroke-width="1" x1="200" x2="201" y1="56" y2="56" /><line stroke="white" stroke-width="1" x1="201" x2="202" y1="57" y2="57" /><line stroke="white" stroke-width="1" x1="186" x2="187" y1="55" y2="55" /><line stroke="white" stroke-width="1" x1="187" x2="188" y1="56" y2="56" /><line stroke="white" stroke-width="1" x1="171" x2="172" y1="55" y2="55" /><line stroke="white" stroke-width="1" x1="171" x2="172" y1="56" y2="56" /><line stroke="white" stroke-width="1" x1="173" x2="174" y1="54" y2="54" /><line stroke="white" stroke-width="1" x1="174" x2="175" y1="54" y2="54" /><line stroke="white" stroke-width="1" x1="177" x2="178" y1="53" y2="53" /><line stroke="white" stroke-width="1" x1="178" x2="179" y1="53" y2="53" /><line stroke="white" stroke-width="1" x1="180" x2="181" y1="52" y2="52" /><line stroke="white" stroke-width="1" x1="181" x2="182" y1="52" y2="52" /><line stroke="white" stroke-width="1" x1="196" x2="197" y1="51" y2="51" /><line stroke="white" stroke-width="1" x1="197" x2="198" y1="52" y2="52" /><line stroke="white" stroke-width="1" x1="194" x2="195" y1="47" y2="47" /><line stroke="white" stroke-width="1" x1="194" x2="195" y1="48" y2="48" /><line stroke="white" stroke-width="1" x1="196" x2="197" y1="46" y2="46" /><line stroke="white" stroke-width="1" x1="215" x2="216" y1="43" y2="43" /><line stroke="white" stroke-width="1" x1="201" x2="202" y1="43" y2="43" /><line stroke="white" stroke-width="1" x1="199" x2="200" y1="44" y2="44" /><line stroke="white" stroke-width="1" x1="200" x2="201" y1="44" y2="44" /><line stroke="white" stroke-width="1" x1="198" x2="199" y1="45" y2="45" /><line stroke="white" stroke-width="1" x1="207" x2="208" y1="40" y2="40" /><line stroke="white" stroke-width="1" x1="205" x2="206" y1="41" y2="41" /><line stroke="white" stroke-width="1" x1="206" x2="207" y1="41" y2="41" /><line stroke="white" stroke-width="1" x1="203" x2="204" y1="42" y2="42" /><line stroke="white" stroke-width="1" x1="204" x2="205" y1="42" y2="42" /><line stroke="white" stroke-width="1" x1="214" x2="215" y1="39" y2="39" /><line stroke="white" stroke-width="1" x1="214" x2="215" y1="40" y2="40" /><line stroke="white" stroke-width="1" x1="209" x2="210" y1="39" y2="39" /><line stroke="white" stroke-width="1" x1="212" x2="213" y1="38" y2="38" /><line stroke="white" stroke-width="1" x1="229" x2="230" y1="31" y2="31" /><line stroke="white" stroke-width="1" x1="228" x2="229" y1="32" y2="32" /><line stroke="white" stroke-width="1" x1="227" x2="228" y1="33" y2="33" /></svg>