<?xml version="1.0" encoding="utf-8" ?>
<svg baseProfile="tiny" height="256" version="1.2" width="256" xmlns="http://www.w3.org/2000/svg" xmlns:ev="http://www.w3.org/2001/xml-events" xmlns:xlink="http://www.w3.org/1999/xlink"><defs /><rect fill="black" height="256" width="256" x="0" y="0" /><polygon fill="white" points="107,248" /><polygon fill="white" points="109,245" /><polygon fill="white" points="110,243" /><polygon fill="white" points="115,234" /><polygon fill="white" points="116,232" /><polygon fill="white" points="93,230 96,230" /><polygon fill="white" points="91,230" /><polygon fill="white" points="98,229 99,229" /><polygon fill="white" points="102,228 103,228" /><polygon fill="white" points="89,228" /><polygon fill="white" points="105,227 106,227" /><polygon fill="white" points="110,225 109,226 108,226 109,226 110,225 111,225" /><polygon fill="white" points="115,223 114,224 113,224 114,224 115,223 116,223" /><polygon fill="white" points="118,222" /><polygon fill="white" points="91,222 89,224" /><polygon fill="white" points="120,221 121,222" /><polygon fill="white" points="94,220" /><polygon fill="white" points="97,218" /><polygon fill="white" points="100,216" /><polygon fill="white" points="103,214" /><polygon fill="white" points="107,211 106,212" /><polygon fill="white" points="111,208 109,210" /><polygon fill="white" points="114,206" /><polygon fill="white" points="120,201 118,203" /><polygon fill="white" points="127,195 123,199" /><polygon fill="white" points="195,191 196,192" /><polygon fill="white" points="192,189 193,190" /><polygon fill="white" points="190,188" /><polygon fill="white" points="134,188 133,189" /><polygon fill="white" points="188,187" /><polygon fill="white" points="135,185" /><polygon fill="white" points="209,184 208,185 207,185 199,193 198,193 199,193 207,185 208,185" /><polygon fill="white" points="136,182" /><polygon fill="white" points="125,181" /><polygon fill="white" points="96,181 94,183" /><polygon fill="white" points="208,180" /><polygon fill="white" points="187,180 186,181 186,183 184,185 185,186 184,185 186,183 186,181" /><polygon fill="white" points="130,180 129,181 128,181 129,181" /><polygon fill="white" points="98,180" /><polygon fill="white" points="101,179" /><polygon fill="white" points="137,178 137,179" /><polygon fill="white" points="103,178" /><polygon fill="white" points="206,177 207,178" /><polygon fill="white" points="105,177" /><polygon fill="white" points="136,176 135,177 134,177 132,179 134,177 135,177 136,176 138,176" /><polygon fill="white" points="121,176 124,179" /><polygon fill="white" points="108,176" /><polygon fill="white" points="119,175" /><polygon fill="white" points="110,175" /><polygon fill="white" points="204,174 205,175" /><polygon fill="white" points="113,174 116,174" /><polygon fill="white" points="215,173 216,174" /><polygon fill="white" points="190,173 190,174 189,175 189,177 188,178 189,177 189,175 190,174" /><polygon fill="white" points="191,171" /><polygon fill="white" points="213,170" /><polygon fill="white" points="200,169 202,171" /><polygon fill="white" points="209,165 211,167" /><polygon fill="white" points="195,164 194,165 194,166 193,167 193,168 192,169 193,168 193,167 194,166 194,165 195,164 196,164 197,165 196,164" /><polygon fill="white" points="232,162 223,171 222,171 218,175 222,171 223,171" /><polygon fill="white" points="206,161 208,163" /><polygon fill="white" points="49,159" /><polygon fill="white" points="239,156 235,160" /><polygon fill="white" points="245,151 242,154" /><polygon fill="white" points="248,149 247,150" /><polygon fill="white" points="208,148 207,149 207,150 206,151 206,152 204,154 204,155 203,156 203,157 204,158 203,157 203,156 204,155 204,154 206,152 206,151 207,150 207,149" /><polygon fill="white" points="251,147 250,148" /><polygon fill="white" points="32,146" /><polygon fill="white" points="255,145 254,146 253,146 254,146" /><polygon fill="white" points="193,145 194,145" /><polygon fill="white" points="196,144 209,144 210,145 209,146 210,145 209,144" /><polygon fill="white" points="173,143 174,144 176,144 177,145 175,147 174,147 173,148 173,152 174,151 177,151 178,150 179,150 181,148 179,150 178,150 177,151 174,151 173,150 173,149 176,146 177,146 177,145 176,144 174,144" /><polygon fill="white" points="176,142" /><polygon fill="white" points="187,141 191,145" /><polygon fill="white" points="178,141 179,141 182,144 182,146 182,144 179,141" /><polygon fill="white" points="186,139" /><polygon fill="white" points="188,138" /><polygon fill="white" points="190,137" /><polygon fill="white" points="193,136" /><polygon fill="white" points="200,134" /><polygon fill="white" points="203,133" /><polygon fill="white" points="206,132" /><polygon fill="white" points="209,131" /><polygon fill="white" points="120,129" /><polygon fill="white" points="217,128" /><polygon fill="white" points="220,127" /><polygon fill="white" points="225,125" /><polygon fill="white" points="228,124" /><polygon fill="white" points="227,121 228,122" /><polygon fill="white" points="251,119" /><polygon fill="white" points="246,116" /><polygon fill="white" points="243,114 244,115" /><polygon fill="white" points="241,113" /><polygon fill="white" points="239,112" /><polygon fill="white" points="237,111" /><polygon fill="white" points="235,110" /><polygon fill="white" points="215,110" /><polygon fill="white" points="233,109" /><polygon fill="white" points="231,108" /><polygon fill="white" points="229,107" /><polygon fill="white" points="211,107" /><polygon fill="white" points="208,105" /><polygon fill="white" points="203,102" /><polygon fill="white" points="218,101 219,102 220,102 221,103 222,103 223,104 224,104 225,105 226,105 227,106 226,105 225,105 224,104 223,104 222,103 221,103 220,102 219,102" /><polygon fill="white" points="216,100" /><polygon fill="white" points="214,99" /><polygon fill="white" points="199,99 200,100" /><polygon fill="white" points="187,98" /><polygon fill="white" points="181,98" /><polygon fill="white" points="196,97 197,98" /><polygon fill="white" points="178,97" /><polygon fill="white" points="194,96" /><polygon fill="white" points="191,96 190,97 189,97 190,97 191,96 192,96" /><polygon fill="white" points="205,95 206,95 207,96 208,96 209,97 210,97 211,98 212,98 211,98 210,97 209,97 208,96 207,96 206,95" /><polygon fill="white" points="203,94" /><polygon fill="white" points="172,94" /><polygon fill="white" points="169,92" /><polygon fill="white" points="203,89 202,90 201,90 199,92 198,92 198,93 199,92 200,93 201,93 200,93 199,92 201,90 202,90" /><polygon fill="white" points="206,87 205,88" /><polygon fill="white" points="168,87 168,88" /><polygon fill="white" points="216,80 213,83 212,83 210,85 209,85 208,86 209,85 210,85 212,83 213,83 215,81 216,81" /><polygon fill="white" points="212,77 213,78" /><polygon fill="white" points="207,73 209,75" /><polygon fill="white" points="167,70 167,71" /><polygon fill="white" points="201,68 204,71" /><polygon fill="white" points="167,66" /><polygon fill="white" points="205,63 219,77" /><polygon fill="white" points="168,63 168,64" /><polygon fill="white" points="0,62 0,143 1,143 2,144 6,144 7,145 13,145 14,146 19,146 20,147 23,147 24,148 26,148 27,147 30,147 30,145 31,144 31,143 29,141 29,139 26,136 26,135 22,131 21,131 13,123 12,123 10,121 10,120 11,119 14,119 15,120 18,120 19,121 22,121 23,122 25,122 26,123 29,123 30,124 31,124 32,125 35,125 36,126 38,126 39,127 40,127 41,128 43,128 44,129 46,129 47,130 49,130 50,131 52,131 53,132 55,132 56,133 58,133 59,134 61,134 62,135 65,135 66,136 68,136 69,137 70,137 72,139 73,138 74,138 75,139 75,140 76,139 77,140 78,140 79,141 81,141 82,142 85,142 86,143 88,143 89,144 93,144 94,145 95,144 96,144 97,145 101,145 102,146 104,146 105,145 107,145 108,144 107,143 105,143 104,142 103,142 102,141 101,141 99,139 99,140 98,141 97,140 96,140 95,139 94,139 93,138 94,137 93,137 92,136 90,136 89,135 88,135 87,134 86,135 85,134 85,133 84,133 83,132 82,132 80,130 79,130 78,129 77,130 76,130 75,129 76,128 75,129 74,128 74,127 73,126 72,127 71,126 70,126 69,125 70,124 69,124 68,123 67,124 66,124 65,123 66,122 65,123 64,122 63,122 62,121 62,119 61,120 59,118 59,117 58,116 57,117 56,116 55,116 54,115 55,114 54,113 53,114 52,114 51,113 51,112 50,111 50,110 49,111 46,108 46,107 45,106 44,106 42,104 32,104 31,105 30,105 29,104 30,103 22,103 20,101 20,100 21,99 21,98 22,97 22,96 23,95 23,94 24,93 24,92 26,90 26,89 27,88 27,87 28,86 25,86 24,85 19,85 18,84 16,84 13,81 13,80 12,79 13,78 13,76 16,73 17,73 17,72 18,71 19,72 20,72 20,71 21,70 22,71 23,71 23,70 22,70 21,69 20,69 19,68 17,68 16,67 15,67 14,66 13,66 12,65 11,65 10,64 9,64 8,63 7,64 4,64 3,63 2,63 1,62" /><polygon fill="white" points="169,61" /><polygon fill="white" points="228,59 235,59 236,60 236,62 235,63 235,64 227,72 226,72 221,77 221,78 221,77 223,75 224,75 224,74 225,73 226,73 235,64 235,63 236,62 236,60 235,59" /><polygon fill="white" points="221,59 220,60 218,60 226,60 223,60 222,59" /><polygon fill="white" points="170,58" /><polygon fill="white" points="200,57 203,60" /><polygon fill="white" points="229,53 226,56" /><polygon fill="white" points="197,53 198,54" /><polygon fill="white" points="184,52 196,64" /><polygon fill="white" points="194,49 195,50" /><polygon fill="white" points="237,46 232,51" /><polygon fill="white" points="250,34 241,43" /><polygon fill="white" points="255,30" /><polygon fill="white" points="76,0 76,2 74,4 74,5 73,6 73,8 72,9 72,10 71,11 71,12 70,13 70,14 69,15 69,17 68,18 68,19 67,20 67,21 66,22 66,23 65,24 65,26 64,27 64,28 63,29 63,30 62,31 62,33 61,34 61,35 60,36 60,38 59,39 59,41 58,42 58,43 57,44 57,46 56,47 56,49 55,50 55,52 54,53 54,57 53,58 53,61 54,62 55,62 60,57 60,56 63,53 63,52 66,49 66,48 68,46 68,45 71,42 71,41 73,39 73,38 76,35 76,34 78,32 78,31 81,28 84,28 87,31 87,32 88,33 88,34 89,35 89,36 90,37 90,38 91,39 91,40 92,41 92,42 93,43 93,44 94,45 94,46 95,47 95,48 96,49 96,50 97,51 97,52 98,53 98,55 99,56 99,57 100,58 100,59 101,60 101,61 102,62 102,63 102,60 104,58 104,55 105,54 105,49 106,48 106,46 107,45 107,36 108,35 109,35 110,34 110,33 111,32 111,29 112,28 112,25 113,24 112,23 112,22 113,21 114,21 114,19 115,18 115,16 116,15 115,14 115,13 116,12 117,12 117,10 118,9 118,6 119,5 118,4 118,3 119,2 120,3 120,2 119,1 120,0 79,0 78,1 77,0" /></svg>