<?xml version="1.0" encoding="utf-8" ?>
<svg baseProfile="tiny" height="256" version="1.2" width="256" xmlns="http://www.w3.org/2000/svg" xmlns:ev="http://www.w3.org/2001/xml-events" xmlns:xlink="http://www.w3.org/1999/xlink"><defs /><rect fill="black" height="256" width="256" x="0" y="0" /><polygon fill="white" points="210,184 208,186 207,186 199,194 200,194 201,195 202,195 204,197 205,197 206,198 206,199 211,204 212,204 214,206 214,207 215,207 216,208 216,209 218,211 219,210 220,211 220,212 220,209 219,208 219,206 218,205 218,201 217,201 216,200 216,199 215,198 215,194 214,193 214,192 213,191 213,190 211,188 211,187 209,185" /><polygon fill="white" points="125,180 126,181" /><polygon fill="white" points="97,180" /><polygon fill="white" points="131,179" /><polygon fill="white" points="100,179" /><polygon fill="white" points="102,178" /><polygon fill="white" points="104,177" /><polygon fill="white" points="135,176" /><polygon fill="white" points="107,176" /><polygon fill="white" points="137,175 138,175" /><polygon fill="white" points="120,175" /><polygon fill="white" points="109,175" /><polygon fill="white" points="117,174 118,174" /><polygon fill="white" points="112,174" /><polygon fill="white" points="139,171 139,172" /><polygon fill="white" points="68,168" /><polygon fill="white" points="64,165 63,166 65,166 66,167 65,166 66,165 65,166" /><polygon fill="white" points="73,164 70,167 69,166 70,167" /><polygon fill="white" points="192,163 191,164 191,166 190,167 190,168 189,169 189,170 188,171 188,172 189,173 187,175 187,176 185,178 185,179 182,182 182,183 181,184 182,184 183,185 185,183 185,181 187,179 187,178 188,177 188,175 189,174 189,173 190,172 190,171 191,170 191,169 192,168 192,167 193,166 193,165 194,164 193,163" /><polygon fill="white" points="49,157 49,158" /><polygon fill="white" points="0,154" /><polygon fill="white" points="180,150 179,151 178,151 177,152 174,152 173,153 172,153 174,153 175,154 175,155 174,156 172,156 173,157 172,158 172,161 173,160 174,160 175,159 175,157 178,154 178,153 179,152 179,151" /><polygon fill="white" points="173,147" /><polygon fill="white" points="255,146 254,147 252,147 250,149 249,149 247,151 246,151 242,155 241,155 235,161 234,161 223,172 222,172 218,176 218,177 220,179 220,180 222,182 222,183 224,185 224,186 225,187 225,188 226,189 226,190 228,192 228,194 229,195 229,197 230,198 230,199 231,200 231,201 232,202 232,203 233,204 233,206 234,207 234,210 236,212 235,213 236,214 236,215 237,216 237,219 238,220 238,227 239,228 239,231 237,233 231,233 230,232 229,232 224,227 223,227 222,226 222,225 221,225 217,221 216,221 215,220 215,219 214,219 213,218 212,218 210,216 209,216 205,212 203,212 201,210 200,210 198,208 197,208 195,206 194,206 193,205 191,205 189,203 188,203 187,202 185,202 184,201 182,201 180,199 179,199 178,200 177,199 176,199 175,198 174,198 172,200 172,201 170,203 170,204 167,207 167,209 166,210 165,210 165,211 164,212 163,212 162,213 162,216 161,217 159,217 159,218 156,221 156,222 154,224 154,225 150,229 150,230 148,232 148,233 145,236 145,237 141,241 141,242 139,244 139,245 136,248 137,249 136,250 135,250 132,253 132,254 133,255 179,255 180,254 181,255 232,255 233,254 234,255 255,255 255,242 254,241 255,240" /><polygon fill="white" points="195,145 194,146 193,146 194,146 195,147 195,148 196,148 197,149 198,148 199,148 200,149 198,151 200,153 201,153 202,154 202,155 203,155 203,154 205,152 205,151 206,150 206,149 208,147 208,146 209,145 208,146 207,145" /><polygon fill="white" points="176,145 175,146" /><polygon fill="white" points="173,144" /><polygon fill="white" points="0,144 0,151 2,153 2,155 1,156 0,156 0,158 1,157 2,157 2,156 3,155 5,155 6,154 7,154 8,153 9,153 10,152 11,152 10,152 9,151 11,149 13,151 14,151 15,150 19,150 20,149 21,149 22,148 23,148 20,148 19,147 14,147 13,146 7,146 6,145 2,145 1,144" /><polygon fill="white" points="101,140 102,140 103,141 104,141 105,142 107,142 109,144 107,146 105,146 104,147 102,147 101,146 97,146 96,145 95,145 95,146 98,146 99,147 107,147 110,144 110,143 109,142 107,142 106,141 104,141 103,140" /><polygon fill="white" points="76,140" /><polygon fill="white" points="73,139 74,139" /><polygon fill="white" points="94,138 95,138 96,139 97,139 98,140 98,139 97,139 96,138" /><polygon fill="white" points="86,134 88,136" /><polygon fill="white" points="75,128 76,129 77,129 76,129" /><polygon fill="white" points="122,126 121,127" /><polygon fill="white" points="70,125 71,125 72,126 71,125" /><polygon fill="white" points="123,124" /><polygon fill="white" points="125,121" /><polygon fill="white" points="63,120 63,121 64,121 66,123 67,123 66,123 65,122 65,121 64,121" /><polygon fill="white" points="11,120 11,121 12,122 13,122 21,130 22,130 27,135 27,136 30,139 30,141 32,143 32,144 31,145 31,146 32,145 33,146 34,145 35,145 37,143 38,144 38,145 44,145 45,146 47,146 49,148 49,152 50,153 50,155 50,154 51,153 51,152 54,149 54,148 57,145 57,144 60,141 59,142 58,141 58,140 59,139 61,139 63,137 68,137 69,138 70,138 69,138 68,137 66,137 65,136 62,136 61,135 59,135 58,134 56,134 55,133 53,133 52,132 50,132 49,131 47,131 46,130 44,130 43,129 41,129 40,128 39,128 38,127 36,127 35,126 32,126 31,125 30,125 29,124 26,124 25,123 23,123 22,122 19,122 18,121 15,121 14,120" /><polygon fill="white" points="132,119 120,131 119,130 118,131 119,132 118,133 117,133 118,133" /><polygon fill="white" points="127,118 126,119" /><polygon fill="white" points="60,118 61,119" /><polygon fill="white" points="55,115 56,115 58,117 56,115" /><polygon fill="white" points="127,111 127,115" /><polygon fill="white" points="51,111 52,112 52,113 53,113" /><polygon fill="white" points="47,108 49,110" /><polygon fill="white" points="30,104 31,104" /><polygon fill="white" points="27,104" /><polygon fill="white" points="197,99 198,100 199,100 200,101 201,101 200,101 198,99" /><polygon fill="white" points="195,97" /><polygon fill="white" points="193,96 192,97 191,97 192,97" /><polygon fill="white" points="25,90" /><polygon fill="white" points="217,81 216,82 215,82 213,84 212,84 210,86 209,86 208,87 207,87 205,89 204,89 202,91 201,91 200,92 201,91 203,91 204,92 203,93 202,93 203,93 204,94 206,94 207,95 208,95 209,96 210,96 211,97 212,97 213,98 214,98 215,99 216,99 217,100 218,100 219,101 220,101 221,102 222,102 223,103 224,103 225,104 226,104 228,106 229,106 230,107 231,107 232,108 233,108 234,109 235,109 236,110 237,110 238,111 239,111 240,112 241,112 242,113 242,112 244,110 245,110 246,109 247,109 249,107 250,107 250,106 252,104 252,103 253,102 254,102 255,101 255,100 254,99 255,98 254,98 253,97 250,97 249,96 247,96 246,95 244,95 243,94 241,94 240,93 238,93 237,92 235,92 234,91 233,91 232,90 231,90 230,89 229,89 228,88 227,89 226,88 226,87 225,87 222,84 221,84 219,82 218,82" /><polygon fill="white" points="18,72" /><polygon fill="white" points="21,71" /><polygon fill="white" points="56,59 55,60 56,60 57,59" /><polygon fill="white" points="0,58 0,61 1,61 2,62 3,62 4,63 7,63 8,64 5,61 4,61 2,59 1,59" /><polygon fill="white" points="61,54" /><polygon fill="white" points="107,46 107,48 106,49 106,54 105,55 105,58 103,60 103,64 104,65 104,62 105,61 105,57 106,56 106,52 107,51" /><polygon fill="white" points="66,46 66,47" /><polygon fill="white" points="69,43 68,44" /><polygon fill="white" points="59,42" /><polygon fill="white" points="71,39 71,40 70,41 71,40" /><polygon fill="white" points="91,37" /><polygon fill="white" points="76,33" /><polygon fill="white" points="88,32" /><polygon fill="white" points="254,31 241,44 240,44 232,52 231,52 226,57 225,57 223,59 227,59 227,58 228,57 229,58 235,58 237,60 237,62 236,63 236,64 226,74 225,74 225,75 224,76 223,76 222,77 222,79 223,79 226,82 227,82 229,84 230,84 232,86 233,86 234,87 235,87 236,88 237,88 238,89 239,89 240,90 241,90 242,91 243,91 244,92 245,92 246,93 247,93 248,92 249,92 250,93 249,94 250,93 252,95 254,95 255,96 255,93 254,92 255,91 255,35 254,34 255,33 255,31" /><polygon fill="white" points="110,31" /><polygon fill="white" points="87,29" /><polygon fill="white" points="85,28" /><polygon fill="white" points="113,22 113,23" /><polygon fill="white" points="114,17" /><polygon fill="white" points="116,13 116,14" /><polygon fill="white" points="73,10 73,11" /><polygon fill="white" points="117,8" /><polygon fill="white" points="119,3 119,4" /><polygon fill="white" points="121,0 120,1" /><polygon fill="white" points="78,0" /></svg>