<?xml version="1.0" encoding="utf-8" ?>
<svg baseProfile="tiny" height="256" version="1.2" width="256" xmlns="http://www.w3.org/2000/svg" xmlns:ev="http://www.w3.org/2001/xml-events" xmlns:xlink="http://www.w3.org/1999/xlink"><defs /><rect fill="black" height="256" width="256" x="0" y="0" /><polygon fill="white" points="111,175 110,176 109,176 108,177 106,177 105,178 104,178 103,179 102,179 101,180 99,180 98,181 97,181 94,184 94,185 93,186 93,187 92,188 92,190 91,191 91,193 90,194 90,195 89,196 89,199 88,200 88,202 87,203 87,205 86,206 86,209 85,210 85,213 84,214 84,218 83,219 83,223 82,224 82,229 81,230 81,235 80,236 80,244 83,244 84,243 85,243 86,242 88,242 89,241 91,241 92,240 93,240 94,239 96,239 97,238 99,238 100,237 103,237 105,239 104,240 104,241 103,242 103,243 98,248 98,249 97,250 96,250 91,255 90,255 102,255 104,253 104,252 105,251 105,250 106,249 106,248 108,246 108,245 109,244 109,243 111,241 111,240 112,239 112,238 113,237 113,236 114,235 114,234 115,233 115,232 117,230 117,229 118,228 118,227 119,226 119,225 120,224 120,222 121,221 120,222 119,222 118,223 117,223 116,224 115,224 114,225 112,225 111,226 110,226 109,227 107,227 106,228 104,228 103,229 100,229 99,230 97,230 96,231 91,231 88,228 88,224 91,221 92,221 94,219 95,219 97,217 98,217 100,215 101,215 103,213 104,213 107,210 108,210 111,207 112,207 114,205 115,205 120,200 121,200 127,194 128,194 130,192 130,191 133,188 133,187 134,186 134,185 135,184 135,181 136,180 136,178 134,178 132,180 131,180 129,182 125,182 124,181 124,180 120,176 119,176 118,175" /><polygon fill="white" points="195,165 195,166 194,167 194,168 192,170 192,171 191,172 191,174 190,175 190,177 188,179 188,180 187,181 187,183 185,185 186,185 187,186 188,186 189,187 190,187 191,188 192,188 193,189 194,189 197,192 199,192 207,184 208,184 209,183 208,182 208,181 206,179 206,178 205,177 205,176 201,172 201,171 197,167 197,166 196,165" /><polygon fill="white" points="49,160 49,163" /><polygon fill="white" points="177,142 176,143 174,143 176,143 178,145 178,146 177,147 176,147 174,149 174,150 177,150 178,149 179,149 180,148 180,147 179,146 179,143 178,144 177,144 176,143" /><polygon fill="white" points="182,52 181,53 179,53 178,54 175,54 174,55 172,55 172,56 171,57 171,59 170,60 170,62 169,63 169,65 168,66 168,84 169,85 169,91 171,93 172,93 173,94 174,94 176,96 178,96 179,97 181,97 182,98 186,98 187,97 188,97 189,96 190,96 191,95 194,95 195,96 196,96 198,98 199,98 202,101 203,101 205,103 206,103 207,104 208,104 210,106 211,106 214,109 215,109 226,120 227,120 229,122 229,124 228,125 226,125 225,126 223,126 222,127 221,127 220,128 218,128 217,129 215,129 214,130 212,130 211,131 210,131 209,132 207,132 206,133 204,133 203,134 201,134 200,135 197,135 196,136 194,136 193,137 191,137 190,138 189,138 188,139 187,139 187,140 192,145 193,144 195,144 196,143 209,143 211,145 209,147 209,148 208,149 208,150 207,151 207,152 205,154 205,155 204,156 204,157 206,159 206,160 210,164 210,165 213,168 213,169 215,171 215,172 217,174 217,175 222,170 223,170 232,161 233,161 239,155 240,155 245,150 246,150 248,148 249,148 251,146 252,146 253,145 254,145 255,144 255,122 254,121 253,121 252,120 251,120 249,118 248,118 247,117 246,117 245,116 244,116 242,114 241,114 240,113 239,113 238,112 237,112 236,111 235,111 234,110 233,110 232,109 231,109 230,108 229,108 228,107 227,107 226,106 225,106 224,105 223,105 222,104 221,104 220,103 219,103 217,101 216,101 215,100 214,100 213,99 211,99 210,98 209,98 208,97 207,97 206,96 205,96 204,95 203,95 202,94 200,94 199,93 198,94 197,93 197,92 198,91 199,91 201,89 202,89 203,88 204,88 206,86 207,86 209,84 210,84 212,82 213,82 214,81 214,80 212,78 211,78 207,74 206,74 201,69 200,69 188,57 187,57 185,55 185,54 183,52" /><polygon fill="white" points="255,6 227,34 226,34 218,42 217,42 215,44 214,43 214,41 213,40 213,39 210,39 209,40 208,40 206,42 205,42 204,43 202,43 200,45 199,45 198,46 197,46 196,47 195,47 195,49 198,52 198,53 202,57 202,58 208,64 208,65 219,76 221,76 226,71 227,71 234,64 234,63 235,62 235,60 227,60 226,61 218,61 217,60 218,59 220,59 221,58 223,58 229,52 230,52 237,45 238,45 250,33 251,33 255,29" /></svg>