<?xml version="1.0" encoding="utf-8" ?>
<svg baseProfile="tiny" height="256" version="1.2" width="256" xmlns="http://www.w3.org/2000/svg" xmlns:ev="http://www.w3.org/2001/xml-events" xmlns:xlink="http://www.w3.org/1999/xlink"><defs /><rect fill="black" height="256" width="256" x="0" y="0" /><polygon fill="white" points="93,252 92,253" /><polygon fill="white" points="81,245 82,245" /><polygon fill="white" points="101,244 100,245" /><polygon fill="white" points="84,244" /><polygon fill="white" points="103,241" /><polygon fill="white" points="95,240" /><polygon fill="white" points="79,240 79,242" /><polygon fill="white" points="97,239" /><polygon fill="white" points="103,238" /><polygon fill="white" points="80,232 80,233" /><polygon fill="white" points="82,221" /><polygon fill="white" points="84,212" /><polygon fill="white" points="87,201" /><polygon fill="white" points="88,197" /><polygon fill="white" points="89,195" /><polygon fill="white" points="90,192" /><polygon fill="white" points="91,189" /><polygon fill="white" points="92,186" /><polygon fill="white" points="50,162" /><polygon fill="white" points="172,54" /><polygon fill="white" points="175,53 176,53" /><polygon fill="white" points="179,52" /><polygon fill="white" points="172,51" /><polygon fill="white" points="182,50 182,51" /><polygon fill="white" points="173,47" /><polygon fill="white" points="195,46" /><polygon fill="white" points="197,45" /><polygon fill="white" points="177,44" /><polygon fill="white" points="200,43" /><polygon fill="white" points="202,42" /><polygon fill="white" points="204,41" /><polygon fill="white" points="189,41" /><polygon fill="white" points="175,41 174,42 174,43 174,42" /><polygon fill="white" points="215,40 215,42" /><polygon fill="white" points="206,40" /><polygon fill="white" points="208,39" /><polygon fill="white" points="221,38" /><polygon fill="white" points="186,37 187,38" /><polygon fill="white" points="224,35 223,36" /><polygon fill="white" points="182,31" /><polygon fill="white" points="181,29" /><polygon fill="white" points="232,28" /><polygon fill="white" points="179,26" /><polygon fill="white" points="236,24" /><polygon fill="white" points="238,22" /><polygon fill="white" points="240,20" /><polygon fill="white" points="175,20" /><polygon fill="white" points="245,15 243,17" /><polygon fill="white" points="250,10" /><polygon fill="white" points="253,7 252,8" /><polygon fill="white" points="0,0 0,55 1,56 2,56 6,60 7,60 9,62 10,62 12,64 13,64 14,65 15,65 16,66 18,66 19,67 20,67 21,68 24,68 24,58 25,57 25,48 26,47 26,40 27,39 27,35 28,34 28,31 29,30 29,29 30,28 30,26 31,25 33,25 34,26 34,27 35,28 35,32 36,33 36,39 37,40 37,45 38,46 38,50 39,51 39,54 40,55 40,58 41,59 41,62 42,63 42,66 43,67 43,69 44,70 44,73 46,75 47,75 48,76 50,76 51,77 53,77 54,78 57,78 58,79 61,79 62,80 65,80 66,81 69,81 70,82 73,82 74,83 78,83 79,84 84,84 85,85 89,85 89,84 88,83 88,78 87,77 87,72 86,71 86,66 85,65 85,60 84,59 84,54 83,53 83,49 82,48 82,43 81,42 81,38 80,37 80,33 79,32 79,33 76,36 76,37 73,40 73,41 71,43 71,44 68,47 68,48 66,50 66,51 64,53 64,54 61,57 61,58 56,63 53,63 52,62 52,56 53,55 53,52 54,51 54,49 55,48 55,45 56,44 56,43 57,42 57,40 58,39 58,37 59,36 59,35 60,34 60,32 61,31 61,30 62,29 62,28 63,27 63,25 64,24 64,23 65,22 65,21 66,20 66,19 67,18 67,16 68,15 68,14 69,13 69,12 70,11 70,10 71,9 71,8 72,7 72,6 73,5 73,3 74,2 74,1 75,0" /></svg>