<?xml version="1.0" encoding="utf-8" ?>
<svg baseProfile="tiny" height="100%" version="1.2" width="100%" xmlns="http://www.w3.org/2000/svg" xmlns:ev="http://www.w3.org/2001/xml-events" xmlns:xlink="http://www.w3.org/1999/xlink"><defs /><rect fill="black" height="100%" width="100%" x="0" y="0" /><circle cx="192" cy="97" fill="white" r="1" /><circle cx="193" cy="97" fill="white" r="1" /><circle cx="194" cy="97" fill="white" r="1" /><circle cx="195" cy="97" fill="white" r="1" /><circle cx="192" cy="98" fill="white" r="1" /><circle cx="194" cy="99" fill="white" r="1" /><circle cx="125" cy="102" fill="white" r="1" /><circle cx="126" cy="102" fill="white" r="1" /><circle cx="125" cy="103" fill="white" r="1" /><circle cx="127" cy="103" fill="white" r="1" /><circle cx="124" cy="104" fill="white" r="1" /><circle cx="127" cy="104" fill="white" r="1" /><circle cx="124" cy="105" fill="white" r="1" /><circle cx="127" cy="105" fill="white" r="1" /><circle cx="123" cy="106" fill="white" r="1" /><circle cx="128" cy="106" fill="white" r="1" /><circle cx="123" cy="107" fill="white" r="1" /><circle cx="128" cy="107" fill="white" r="1" /><circle cx="122" cy="108" fill="white" r="1" /><circle cx="128" cy="108" fill="white" r="1" /><circle cx="121" cy="109" fill="white" r="1" /><circle cx="122" cy="109" fill="white" r="1" /><circle cx="128" cy="109" fill="white" r="1" /><circle cx="121" cy="110" fill="white" r="1" /><circle cx="127" cy="110" fill="white" r="1" /><circle cx="120" cy="111" fill="white" r="1" /><circle cx="127" cy="111" fill="white" r="1" /><circle cx="120" cy="112" fill="white" r="1" /><circle cx="126" cy="112" fill="white" r="1" /><circle cx="119" cy="113" fill="white" r="1" /><circle cx="126" cy="113" fill="white" r="1" /><circle cx="119" cy="114" fill="white" r="1" /><circle cx="126" cy="114" fill="white" r="1" /><circle cx="118" cy="115" fill="white" r="1" /><circle cx="127" cy="115" fill="white" r="1" /><circle cx="117" cy="116" fill="white" r="1" /><circle cx="118" cy="116" fill="white" r="1" /><circle cx="127" cy="116" fill="white" r="1" /><circle cx="117" cy="117" fill="white" r="1" /><circle cx="127" cy="117" fill="white" r="1" /><circle cx="116" cy="118" fill="white" r="1" /><circle cx="126" cy="118" fill="white" r="1" /><circle cx="127" cy="118" fill="white" r="1" /><circle cx="116" cy="119" fill="white" r="1" /><circle cx="126" cy="119" fill="white" r="1" /><circle cx="115" cy="120" fill="white" r="1" /><circle cx="125" cy="120" fill="white" r="1" /><circle cx="131" cy="120" fill="white" r="1" /><circle cx="132" cy="120" fill="white" r="1" /><circle cx="114" cy="121" fill="white" r="1" /><circle cx="115" cy="121" fill="white" r="1" /><circle cx="125" cy="121" fill="white" r="1" /><circle cx="130" cy="121" fill="white" r="1" /><circle cx="131" cy="121" fill="white" r="1" /><circle cx="114" cy="122" fill="white" r="1" /><circle cx="124" cy="122" fill="white" r="1" /><circle cx="129" cy="122" fill="white" r="1" /><circle cx="130" cy="122" fill="white" r="1" /><circle cx="132" cy="122" fill="white" r="1" /><circle cx="113" cy="123" fill="white" r="1" /><circle cx="123" cy="123" fill="white" r="1" /><circle cx="124" cy="123" fill="white" r="1" /><circle cx="128" cy="123" fill="white" r="1" /><circle cx="129" cy="123" fill="white" r="1" /><circle cx="132" cy="123" fill="white" r="1" /><circle cx="112" cy="124" fill="white" r="1" /><circle cx="113" cy="124" fill="white" r="1" /><circle cx="123" cy="124" fill="white" r="1" /><circle cx="127" cy="124" fill="white" r="1" /><circle cx="128" cy="124" fill="white" r="1" /><circle cx="132" cy="124" fill="white" r="1" /><circle cx="112" cy="125" fill="white" r="1" /><circle cx="122" cy="125" fill="white" r="1" /><circle cx="126" cy="125" fill="white" r="1" /><circle cx="127" cy="125" fill="white" r="1" /><circle cx="132" cy="125" fill="white" r="1" /><circle cx="111" cy="126" fill="white" r="1" /><circle cx="121" cy="126" fill="white" r="1" /><circle cx="122" cy="126" fill="white" r="1" /><circle cx="125" cy="126" fill="white" r="1" /><circle cx="126" cy="126" fill="white" r="1" /><circle cx="132" cy="126" fill="white" r="1" /><circle cx="110" cy="127" fill="white" r="1" /><circle cx="111" cy="127" fill="white" r="1" /><circle cx="121" cy="127" fill="white" r="1" /><circle cx="124" cy="127" fill="white" r="1" /><circle cx="125" cy="127" fill="white" r="1" /><circle cx="132" cy="127" fill="white" r="1" /><circle cx="110" cy="128" fill="white" r="1" /><circle cx="120" cy="128" fill="white" r="1" /><circle cx="123" cy="128" fill="white" r="1" /><circle cx="124" cy="128" fill="white" r="1" /><circle cx="132" cy="128" fill="white" r="1" /><circle cx="109" cy="129" fill="white" r="1" /><circle cx="119" cy="129" fill="white" r="1" /><circle cx="122" cy="129" fill="white" r="1" /><circle cx="123" cy="129" fill="white" r="1" /><circle cx="132" cy="129" fill="white" r="1" /><circle cx="108" cy="130" fill="white" r="1" /><circle cx="109" cy="130" fill="white" r="1" /><circle cx="118" cy="130" fill="white" r="1" /><circle cx="122" cy="130" fill="white" r="1" /><circle cx="132" cy="130" fill="white" r="1" /><circle cx="107" cy="131" fill="white" r="1" /><circle cx="108" cy="131" fill="white" r="1" /><circle cx="121" cy="131" fill="white" r="1" /><circle cx="133" cy="131" fill="white" r="1" /><circle cx="107" cy="132" fill="white" r="1" /><circle cx="117" cy="132" fill="white" r="1" /><circle cx="120" cy="132" fill="white" r="1" /><circle cx="133" cy="132" fill="white" r="1" /><circle cx="106" cy="133" fill="white" r="1" /><circle cx="117" cy="133" fill="white" r="1" /><circle cx="118" cy="133" fill="white" r="1" /><circle cx="119" cy="133" fill="white" r="1" /><circle cx="133" cy="133" fill="white" r="1" /><circle cx="105" cy="134" fill="white" r="1" /><circle cx="106" cy="134" fill="white" r="1" /><circle cx="133" cy="134" fill="white" r="1" /><circle cx="105" cy="135" fill="white" r="1" /><circle cx="133" cy="135" fill="white" r="1" /><circle cx="104" cy="136" fill="white" r="1" /><circle cx="133" cy="136" fill="white" r="1" /><circle cx="103" cy="137" fill="white" r="1" /><circle cx="104" cy="137" fill="white" r="1" /><circle cx="133" cy="137" fill="white" r="1" /><circle cx="102" cy="138" fill="white" r="1" /><circle cx="103" cy="138" fill="white" r="1" /><circle cx="133" cy="138" fill="white" r="1" /><circle cx="102" cy="139" fill="white" r="1" /><circle cx="133" cy="139" fill="white" r="1" /><circle cx="103" cy="140" fill="white" r="1" /><circle cx="104" cy="140" fill="white" r="1" /><circle cx="105" cy="140" fill="white" r="1" /><circle cx="133" cy="140" fill="white" r="1" /><circle cx="106" cy="141" fill="white" r="1" /><circle cx="107" cy="141" fill="white" r="1" /><circle cx="108" cy="141" fill="white" r="1" /><circle cx="132" cy="141" fill="white" r="1" /><circle cx="109" cy="142" fill="white" r="1" /><circle cx="110" cy="142" fill="white" r="1" /><circle cx="132" cy="142" fill="white" r="1" /><circle cx="110" cy="143" fill="white" r="1" /><circle cx="132" cy="143" fill="white" r="1" /><circle cx="110" cy="144" fill="white" r="1" /><circle cx="132" cy="144" fill="white" r="1" /><circle cx="109" cy="145" fill="white" r="1" /><circle cx="110" cy="145" fill="white" r="1" /><circle cx="132" cy="145" fill="white" r="1" /><circle cx="95" cy="146" fill="white" r="1" /><circle cx="96" cy="146" fill="white" r="1" /><circle cx="97" cy="146" fill="white" r="1" /><circle cx="108" cy="146" fill="white" r="1" /><circle cx="109" cy="146" fill="white" r="1" /><circle cx="132" cy="146" fill="white" r="1" /><circle cx="93" cy="147" fill="white" r="1" /><circle cx="94" cy="147" fill="white" r="1" /><circle cx="98" cy="147" fill="white" r="1" /><circle cx="99" cy="147" fill="white" r="1" /><circle cx="100" cy="147" fill="white" r="1" /><circle cx="101" cy="147" fill="white" r="1" /><circle cx="102" cy="147" fill="white" r="1" /><circle cx="103" cy="147" fill="white" r="1" /><circle cx="104" cy="147" fill="white" r="1" /><circle cx="105" cy="147" fill="white" r="1" /><circle cx="106" cy="147" fill="white" r="1" /><circle cx="107" cy="147" fill="white" r="1" /><circle cx="108" cy="147" fill="white" r="1" /><circle cx="132" cy="147" fill="white" r="1" /><circle cx="92" cy="148" fill="white" r="1" /><circle cx="93" cy="148" fill="white" r="1" /><circle cx="132" cy="148" fill="white" r="1" /><circle cx="91" cy="149" fill="white" r="1" /><circle cx="92" cy="149" fill="white" r="1" /><circle cx="132" cy="149" fill="white" r="1" /><circle cx="90" cy="150" fill="white" r="1" /><circle cx="91" cy="150" fill="white" r="1" /><circle cx="132" cy="150" fill="white" r="1" /><circle cx="89" cy="151" fill="white" r="1" /><circle cx="90" cy="151" fill="white" r="1" /><circle cx="131" cy="151" fill="white" r="1" /><circle cx="88" cy="152" fill="white" r="1" /><circle cx="89" cy="152" fill="white" r="1" /><circle cx="131" cy="152" fill="white" r="1" /><circle cx="87" cy="153" fill="white" r="1" /><circle cx="88" cy="153" fill="white" r="1" /><circle cx="131" cy="153" fill="white" r="1" /><circle cx="86" cy="154" fill="white" r="1" /><circle cx="87" cy="154" fill="white" r="1" /><circle cx="131" cy="154" fill="white" r="1" /><circle cx="85" cy="155" fill="white" r="1" /><circle cx="86" cy="155" fill="white" r="1" /><circle cx="130" cy="155" fill="white" r="1" /><circle cx="83" cy="156" fill="white" r="1" /><circle cx="84" cy="156" fill="white" r="1" /><circle cx="130" cy="156" fill="white" r="1" /><circle cx="82" cy="157" fill="white" r="1" /><circle cx="83" cy="157" fill="white" r="1" /><circle cx="130" cy="157" fill="white" r="1" /><circle cx="81" cy="158" fill="white" r="1" /><circle cx="82" cy="158" fill="white" r="1" /><circle cx="130" cy="158" fill="white" r="1" /><circle cx="80" cy="159" fill="white" r="1" /><circle cx="81" cy="159" fill="white" r="1" /><circle cx="129" cy="159" fill="white" r="1" /><circle cx="79" cy="160" fill="white" r="1" /><circle cx="80" cy="160" fill="white" r="1" /><circle cx="129" cy="160" fill="white" r="1" /><circle cx="78" cy="161" fill="white" r="1" /><circle cx="79" cy="161" fill="white" r="1" /><circle cx="128" cy="161" fill="white" r="1" /><circle cx="76" cy="162" fill="white" r="1" /><circle cx="77" cy="162" fill="white" r="1" /><circle cx="128" cy="162" fill="white" r="1" /><circle cx="75" cy="163" fill="white" r="1" /><circle cx="76" cy="163" fill="white" r="1" /><circle cx="128" cy="163" fill="white" r="1" /><circle cx="73" cy="164" fill="white" r="1" /><circle cx="74" cy="164" fill="white" r="1" /><circle cx="127" cy="164" fill="white" r="1" /><circle cx="72" cy="165" fill="white" r="1" /><circle cx="73" cy="165" fill="white" r="1" /><circle cx="127" cy="165" fill="white" r="1" /><circle cx="71" cy="166" fill="white" r="1" /><circle cx="72" cy="166" fill="white" r="1" /><circle cx="126" cy="166" fill="white" r="1" /><circle cx="70" cy="167" fill="white" r="1" /><circle cx="71" cy="167" fill="white" r="1" /><circle cx="126" cy="167" fill="white" r="1" /><circle cx="68" cy="168" fill="white" r="1" /><circle cx="69" cy="168" fill="white" r="1" /><circle cx="125" cy="168" fill="white" r="1" /><circle cx="66" cy="169" fill="white" r="1" /><circle cx="67" cy="169" fill="white" r="1" /><circle cx="124" cy="169" fill="white" r="1" /><circle cx="125" cy="169" fill="white" r="1" /><circle cx="137" cy="169" fill="white" r="1" /><circle cx="138" cy="169" fill="white" r="1" /><circle cx="139" cy="169" fill="white" r="1" /><circle cx="65" cy="170" fill="white" r="1" /><circle cx="66" cy="170" fill="white" r="1" /><circle cx="124" cy="170" fill="white" r="1" /><circle cx="133" cy="170" fill="white" r="1" /><circle cx="134" cy="170" fill="white" r="1" /><circle cx="135" cy="170" fill="white" r="1" /><circle cx="136" cy="170" fill="white" r="1" /><circle cx="64" cy="171" fill="white" r="1" /><circle cx="65" cy="171" fill="white" r="1" /><circle cx="123" cy="171" fill="white" r="1" /><circle cx="129" cy="171" fill="white" r="1" /><circle cx="130" cy="171" fill="white" r="1" /><circle cx="131" cy="171" fill="white" r="1" /><circle cx="132" cy="171" fill="white" r="1" /><circle cx="139" cy="171" fill="white" r="1" /><circle cx="63" cy="172" fill="white" r="1" /><circle cx="64" cy="172" fill="white" r="1" /><circle cx="126" cy="172" fill="white" r="1" /><circle cx="127" cy="172" fill="white" r="1" /><circle cx="128" cy="172" fill="white" r="1" /><circle cx="138" cy="172" fill="white" r="1" /><circle cx="61" cy="173" fill="white" r="1" /><circle cx="62" cy="173" fill="white" r="1" /><circle cx="113" cy="173" fill="white" r="1" /><circle cx="114" cy="173" fill="white" r="1" /><circle cx="115" cy="173" fill="white" r="1" /><circle cx="116" cy="173" fill="white" r="1" /><circle cx="117" cy="173" fill="white" r="1" /><circle cx="122" cy="173" fill="white" r="1" /><circle cx="125" cy="173" fill="white" r="1" /><circle cx="138" cy="173" fill="white" r="1" /><circle cx="60" cy="174" fill="white" r="1" /><circle cx="61" cy="174" fill="white" r="1" /><circle cx="110" cy="174" fill="white" r="1" /><circle cx="111" cy="174" fill="white" r="1" /><circle cx="112" cy="174" fill="white" r="1" /><circle cx="118" cy="174" fill="white" r="1" /><circle cx="119" cy="174" fill="white" r="1" /><circle cx="122" cy="174" fill="white" r="1" /><circle cx="123" cy="174" fill="white" r="1" /><circle cx="124" cy="174" fill="white" r="1" /><circle cx="138" cy="174" fill="white" r="1" /><circle cx="58" cy="175" fill="white" r="1" /><circle cx="59" cy="175" fill="white" r="1" /><circle cx="108" cy="175" fill="white" r="1" /><circle cx="109" cy="175" fill="white" r="1" /><circle cx="120" cy="175" fill="white" r="1" /><circle cx="136" cy="175" fill="white" r="1" /><circle cx="137" cy="175" fill="white" r="1" /><circle cx="56" cy="176" fill="white" r="1" /><circle cx="57" cy="176" fill="white" r="1" /><circle cx="105" cy="176" fill="white" r="1" /><circle cx="106" cy="176" fill="white" r="1" /><circle cx="107" cy="176" fill="white" r="1" /><circle cx="121" cy="176" fill="white" r="1" /><circle cx="122" cy="176" fill="white" r="1" /><circle cx="134" cy="176" fill="white" r="1" /><circle cx="135" cy="176" fill="white" r="1" /><circle cx="55" cy="177" fill="white" r="1" /><circle cx="56" cy="177" fill="white" r="1" /><circle cx="103" cy="177" fill="white" r="1" /><circle cx="104" cy="177" fill="white" r="1" /><circle cx="122" cy="177" fill="white" r="1" /><circle cx="123" cy="177" fill="white" r="1" /><circle cx="133" cy="177" fill="white" r="1" /><circle cx="134" cy="177" fill="white" r="1" /><circle cx="53" cy="178" fill="white" r="1" /><circle cx="54" cy="178" fill="white" r="1" /><circle cx="101" cy="178" fill="white" r="1" /><circle cx="102" cy="178" fill="white" r="1" /><circle cx="123" cy="178" fill="white" r="1" /><circle cx="124" cy="178" fill="white" r="1" /><circle cx="132" cy="178" fill="white" r="1" /><circle cx="133" cy="178" fill="white" r="1" /><circle cx="51" cy="179" fill="white" r="1" /><circle cx="52" cy="179" fill="white" r="1" /><circle cx="98" cy="179" fill="white" r="1" /><circle cx="99" cy="179" fill="white" r="1" /><circle cx="100" cy="179" fill="white" r="1" /><circle cx="124" cy="179" fill="white" r="1" /><circle cx="125" cy="179" fill="white" r="1" /><circle cx="130" cy="179" fill="white" r="1" /><circle cx="131" cy="179" fill="white" r="1" /><circle cx="50" cy="180" fill="white" r="1" /><circle cx="51" cy="180" fill="white" r="1" /><circle cx="96" cy="180" fill="white" r="1" /><circle cx="97" cy="180" fill="white" r="1" /><circle cx="125" cy="180" fill="white" r="1" /><circle cx="126" cy="180" fill="white" r="1" /><circle cx="129" cy="180" fill="white" r="1" /><circle cx="130" cy="180" fill="white" r="1" /><circle cx="48" cy="181" fill="white" r="1" /><circle cx="49" cy="181" fill="white" r="1" /><circle cx="94" cy="181" fill="white" r="1" /><circle cx="95" cy="181" fill="white" r="1" /><circle cx="96" cy="181" fill="white" r="1" /><circle cx="126" cy="181" fill="white" r="1" /><circle cx="127" cy="181" fill="white" r="1" /><circle cx="128" cy="181" fill="white" r="1" /><circle cx="46" cy="182" fill="white" r="1" /><circle cx="47" cy="182" fill="white" r="1" /><circle cx="92" cy="182" fill="white" r="1" /><circle cx="93" cy="182" fill="white" r="1" /><circle cx="45" cy="183" fill="white" r="1" /><circle cx="46" cy="183" fill="white" r="1" /><circle cx="89" cy="183" fill="white" r="1" /><circle cx="90" cy="183" fill="white" r="1" /><circle cx="91" cy="183" fill="white" r="1" /><circle cx="43" cy="184" fill="white" r="1" /><circle cx="44" cy="184" fill="white" r="1" /><circle cx="87" cy="184" fill="white" r="1" /><circle cx="88" cy="184" fill="white" r="1" /><circle cx="41" cy="185" fill="white" r="1" /><circle cx="42" cy="185" fill="white" r="1" /><circle cx="84" cy="185" fill="white" r="1" /><circle cx="85" cy="185" fill="white" r="1" /><circle cx="86" cy="185" fill="white" r="1" /><circle cx="39" cy="186" fill="white" r="1" /><circle cx="40" cy="186" fill="white" r="1" /><circle cx="82" cy="186" fill="white" r="1" /><circle cx="83" cy="186" fill="white" r="1" /><circle cx="37" cy="187" fill="white" r="1" /><circle cx="38" cy="187" fill="white" r="1" /><circle cx="80" cy="187" fill="white" r="1" /><circle cx="81" cy="187" fill="white" r="1" /><circle cx="35" cy="188" fill="white" r="1" /><circle cx="36" cy="188" fill="white" r="1" /><circle cx="76" cy="188" fill="white" r="1" /><circle cx="77" cy="188" fill="white" r="1" /><circle cx="78" cy="188" fill="white" r="1" /><circle cx="79" cy="188" fill="white" r="1" /><circle cx="33" cy="189" fill="white" r="1" /><circle cx="34" cy="189" fill="white" r="1" /><circle cx="73" cy="189" fill="white" r="1" /><circle cx="74" cy="189" fill="white" r="1" /><circle cx="75" cy="189" fill="white" r="1" /><circle cx="31" cy="190" fill="white" r="1" /><circle cx="32" cy="190" fill="white" r="1" /><circle cx="71" cy="190" fill="white" r="1" /><circle cx="72" cy="190" fill="white" r="1" /><circle cx="29" cy="191" fill="white" r="1" /><circle cx="30" cy="191" fill="white" r="1" /><circle cx="67" cy="191" fill="white" r="1" /><circle cx="68" cy="191" fill="white" r="1" /><circle cx="69" cy="191" fill="white" r="1" /><circle cx="70" cy="191" fill="white" r="1" /><circle cx="28" cy="192" fill="white" r="1" /><circle cx="29" cy="192" fill="white" r="1" /><circle cx="64" cy="192" fill="white" r="1" /><circle cx="65" cy="192" fill="white" r="1" /><circle cx="66" cy="192" fill="white" r="1" /><circle cx="26" cy="193" fill="white" r="1" /><circle cx="27" cy="193" fill="white" r="1" /><circle cx="60" cy="193" fill="white" r="1" /><circle cx="61" cy="193" fill="white" r="1" /><circle cx="62" cy="193" fill="white" r="1" /><circle cx="63" cy="193" fill="white" r="1" /><circle cx="25" cy="194" fill="white" r="1" /><circle cx="57" cy="194" fill="white" r="1" /><circle cx="58" cy="194" fill="white" r="1" /><circle cx="59" cy="194" fill="white" r="1" /><circle cx="24" cy="195" fill="white" r="1" /><circle cx="52" cy="195" fill="white" r="1" /><circle cx="53" cy="195" fill="white" r="1" /><circle cx="54" cy="195" fill="white" r="1" /><circle cx="55" cy="195" fill="white" r="1" /><circle cx="56" cy="195" fill="white" r="1" /><circle cx="24" cy="196" fill="white" r="1" /><circle cx="47" cy="196" fill="white" r="1" /><circle cx="48" cy="196" fill="white" r="1" /><circle cx="49" cy="196" fill="white" r="1" /><circle cx="50" cy="196" fill="white" r="1" /><circle cx="51" cy="196" fill="white" r="1" /><circle cx="24" cy="197" fill="white" r="1" /><circle cx="25" cy="197" fill="white" r="1" /><circle cx="42" cy="197" fill="white" r="1" /><circle cx="43" cy="197" fill="white" r="1" /><circle cx="44" cy="197" fill="white" r="1" /><circle cx="45" cy="197" fill="white" r="1" /><circle cx="46" cy="197" fill="white" r="1" /><circle cx="25" cy="198" fill="white" r="1" /><circle cx="26" cy="198" fill="white" r="1" /><circle cx="27" cy="198" fill="white" r="1" /><circle cx="28" cy="198" fill="white" r="1" /><circle cx="29" cy="198" fill="white" r="1" /><circle cx="30" cy="198" fill="white" r="1" /><circle cx="31" cy="198" fill="white" r="1" /><circle cx="32" cy="198" fill="white" r="1" /><circle cx="33" cy="198" fill="white" r="1" /><circle cx="34" cy="198" fill="white" r="1" /><circle cx="35" cy="198" fill="white" r="1" /><circle cx="36" cy="198" fill="white" r="1" /><circle cx="37" cy="198" fill="white" r="1" /><circle cx="38" cy="198" fill="white" r="1" /><circle cx="39" cy="198" fill="white" r="1" /><circle cx="40" cy="198" fill="white" r="1" /><circle cx="41" cy="198" fill="white" r="1" /></svg>