<?xml version="1.0" encoding="utf-8" ?>
<svg baseProfile="tiny" height="100%" version="1.2" width="100%" xmlns="http://www.w3.org/2000/svg" xmlns:ev="http://www.w3.org/2001/xml-events" xmlns:xlink="http://www.w3.org/1999/xlink"><defs /><rect fill="black" height="100%" width="100%" x="0" y="0" /><circle cx="170" cy="0" fill="white" r="1" /><circle cx="170" cy="1" fill="white" r="1" /><circle cx="170" cy="2" fill="white" r="1" /><circle cx="170" cy="3" fill="white" r="1" /><circle cx="170" cy="4" fill="white" r="1" /><circle cx="170" cy="5" fill="white" r="1" /><circle cx="171" cy="6" fill="white" r="1" /><circle cx="254" cy="6" fill="white" r="1" /><circle cx="255" cy="6" fill="white" r="1" /><circle cx="171" cy="7" fill="white" r="1" /><circle cx="252" cy="7" fill="white" r="1" /><circle cx="253" cy="7" fill="white" r="1" /><circle cx="171" cy="8" fill="white" r="1" /><circle cx="252" cy="8" fill="white" r="1" /><circle cx="171" cy="9" fill="white" r="1" /><circle cx="251" cy="9" fill="white" r="1" /><circle cx="171" cy="10" fill="white" r="1" /><circle cx="250" cy="10" fill="white" r="1" /><circle cx="171" cy="11" fill="white" r="1" /><circle cx="249" cy="11" fill="white" r="1" /><circle cx="171" cy="12" fill="white" r="1" /><circle cx="248" cy="12" fill="white" r="1" /><circle cx="249" cy="12" fill="white" r="1" /><circle cx="171" cy="13" fill="white" r="1" /><circle cx="247" cy="13" fill="white" r="1" /><circle cx="248" cy="13" fill="white" r="1" /><circle cx="171" cy="14" fill="white" r="1" /><circle cx="246" cy="14" fill="white" r="1" /><circle cx="247" cy="14" fill="white" r="1" /><circle cx="172" cy="15" fill="white" r="1" /><circle cx="244" cy="15" fill="white" r="1" /><circle cx="245" cy="15" fill="white" r="1" /><circle cx="172" cy="16" fill="white" r="1" /><circle cx="243" cy="16" fill="white" r="1" /><circle cx="244" cy="16" fill="white" r="1" /><circle cx="173" cy="17" fill="white" r="1" /><circle cx="243" cy="17" fill="white" r="1" /><circle cx="173" cy="18" fill="white" r="1" /><circle cx="174" cy="18" fill="white" r="1" /><circle cx="242" cy="18" fill="white" r="1" /><circle cx="174" cy="19" fill="white" r="1" /><circle cx="175" cy="19" fill="white" r="1" /><circle cx="241" cy="19" fill="white" r="1" /><circle cx="242" cy="19" fill="white" r="1" /><circle cx="175" cy="20" fill="white" r="1" /><circle cx="240" cy="20" fill="white" r="1" /><circle cx="176" cy="21" fill="white" r="1" /><circle cx="239" cy="21" fill="white" r="1" /><circle cx="176" cy="22" fill="white" r="1" /><circle cx="238" cy="22" fill="white" r="1" /><circle cx="177" cy="23" fill="white" r="1" /><circle cx="237" cy="23" fill="white" r="1" /><circle cx="177" cy="24" fill="white" r="1" /><circle cx="178" cy="24" fill="white" r="1" /><circle cx="236" cy="24" fill="white" r="1" /><circle cx="178" cy="25" fill="white" r="1" /><circle cx="179" cy="25" fill="white" r="1" /><circle cx="235" cy="25" fill="white" r="1" /><circle cx="179" cy="26" fill="white" r="1" /><circle cx="234" cy="26" fill="white" r="1" /><circle cx="235" cy="26" fill="white" r="1" /><circle cx="180" cy="27" fill="white" r="1" /><circle cx="233" cy="27" fill="white" r="1" /><circle cx="234" cy="27" fill="white" r="1" /><circle cx="180" cy="28" fill="white" r="1" /><circle cx="181" cy="28" fill="white" r="1" /><circle cx="231" cy="28" fill="white" r="1" /><circle cx="232" cy="28" fill="white" r="1" /><circle cx="181" cy="29" fill="white" r="1" /><circle cx="230" cy="29" fill="white" r="1" /><circle cx="231" cy="29" fill="white" r="1" /><circle cx="182" cy="30" fill="white" r="1" /><circle cx="229" cy="30" fill="white" r="1" /><circle cx="230" cy="30" fill="white" r="1" /><circle cx="182" cy="31" fill="white" r="1" /><circle cx="228" cy="31" fill="white" r="1" /><circle cx="229" cy="31" fill="white" r="1" /><circle cx="183" cy="32" fill="white" r="1" /><circle cx="227" cy="32" fill="white" r="1" /><circle cx="228" cy="32" fill="white" r="1" /><circle cx="183" cy="33" fill="white" r="1" /><circle cx="184" cy="33" fill="white" r="1" /><circle cx="226" cy="33" fill="white" r="1" /><circle cx="227" cy="33" fill="white" r="1" /><circle cx="184" cy="34" fill="white" r="1" /><circle cx="225" cy="34" fill="white" r="1" /><circle cx="226" cy="34" fill="white" r="1" /><circle cx="185" cy="35" fill="white" r="1" /><circle cx="223" cy="35" fill="white" r="1" /><circle cx="224" cy="35" fill="white" r="1" /><circle cx="185" cy="36" fill="white" r="1" /><circle cx="186" cy="36" fill="white" r="1" /><circle cx="223" cy="36" fill="white" r="1" /><circle cx="186" cy="37" fill="white" r="1" /><circle cx="187" cy="37" fill="white" r="1" /><circle cx="212" cy="37" fill="white" r="1" /><circle cx="222" cy="37" fill="white" r="1" /><circle cx="187" cy="38" fill="white" r="1" /><circle cx="209" cy="38" fill="white" r="1" /><circle cx="210" cy="38" fill="white" r="1" /><circle cx="211" cy="38" fill="white" r="1" /><circle cx="213" cy="38" fill="white" r="1" /><circle cx="214" cy="38" fill="white" r="1" /><circle cx="220" cy="38" fill="white" r="1" /><circle cx="221" cy="38" fill="white" r="1" /><circle cx="188" cy="39" fill="white" r="1" /><circle cx="207" cy="39" fill="white" r="1" /><circle cx="208" cy="39" fill="white" r="1" /><circle cx="214" cy="39" fill="white" r="1" /><circle cx="215" cy="39" fill="white" r="1" /><circle cx="219" cy="39" fill="white" r="1" /><circle cx="220" cy="39" fill="white" r="1" /><circle cx="188" cy="40" fill="white" r="1" /><circle cx="189" cy="40" fill="white" r="1" /><circle cx="205" cy="40" fill="white" r="1" /><circle cx="206" cy="40" fill="white" r="1" /><circle cx="215" cy="40" fill="white" r="1" /><circle cx="218" cy="40" fill="white" r="1" /><circle cx="219" cy="40" fill="white" r="1" /><circle cx="189" cy="41" fill="white" r="1" /><circle cx="203" cy="41" fill="white" r="1" /><circle cx="204" cy="41" fill="white" r="1" /><circle cx="215" cy="41" fill="white" r="1" /><circle cx="217" cy="41" fill="white" r="1" /><circle cx="218" cy="41" fill="white" r="1" /><circle cx="174" cy="42" fill="white" r="1" /><circle cx="175" cy="42" fill="white" r="1" /><circle cx="176" cy="42" fill="white" r="1" /><circle cx="190" cy="42" fill="white" r="1" /><circle cx="201" cy="42" fill="white" r="1" /><circle cx="202" cy="42" fill="white" r="1" /><circle cx="215" cy="42" fill="white" r="1" /><circle cx="217" cy="42" fill="white" r="1" /><circle cx="174" cy="43" fill="white" r="1" /><circle cx="176" cy="43" fill="white" r="1" /><circle cx="190" cy="43" fill="white" r="1" /><circle cx="191" cy="43" fill="white" r="1" /><circle cx="199" cy="43" fill="white" r="1" /><circle cx="200" cy="43" fill="white" r="1" /><circle cx="174" cy="44" fill="white" r="1" /><circle cx="177" cy="44" fill="white" r="1" /><circle cx="191" cy="44" fill="white" r="1" /><circle cx="198" cy="44" fill="white" r="1" /><circle cx="199" cy="44" fill="white" r="1" /><circle cx="173" cy="45" fill="white" r="1" /><circle cx="177" cy="45" fill="white" r="1" /><circle cx="178" cy="45" fill="white" r="1" /><circle cx="192" cy="45" fill="white" r="1" /><circle cx="196" cy="45" fill="white" r="1" /><circle cx="197" cy="45" fill="white" r="1" /><circle cx="173" cy="46" fill="white" r="1" /><circle cx="178" cy="46" fill="white" r="1" /><circle cx="179" cy="46" fill="white" r="1" /><circle cx="192" cy="46" fill="white" r="1" /><circle cx="193" cy="46" fill="white" r="1" /><circle cx="194" cy="46" fill="white" r="1" /><circle cx="195" cy="46" fill="white" r="1" /><circle cx="173" cy="47" fill="white" r="1" /><circle cx="179" cy="47" fill="white" r="1" /><circle cx="180" cy="47" fill="white" r="1" /><circle cx="173" cy="48" fill="white" r="1" /><circle cx="180" cy="48" fill="white" r="1" /><circle cx="181" cy="48" fill="white" r="1" /><circle cx="172" cy="49" fill="white" r="1" /><circle cx="181" cy="49" fill="white" r="1" /><circle cx="172" cy="50" fill="white" r="1" /><circle cx="181" cy="50" fill="white" r="1" /><circle cx="172" cy="51" fill="white" r="1" /><circle cx="180" cy="51" fill="white" r="1" /><circle cx="181" cy="51" fill="white" r="1" /><circle cx="172" cy="52" fill="white" r="1" /><circle cx="176" cy="52" fill="white" r="1" /><circle cx="177" cy="52" fill="white" r="1" /><circle cx="178" cy="52" fill="white" r="1" /><circle cx="179" cy="52" fill="white" r="1" /><circle cx="172" cy="53" fill="white" r="1" /><circle cx="173" cy="53" fill="white" r="1" /><circle cx="174" cy="53" fill="white" r="1" /><circle cx="175" cy="53" fill="white" r="1" /><circle cx="35" cy="146" fill="white" r="1" /><circle cx="36" cy="146" fill="white" r="1" /><circle cx="37" cy="146" fill="white" r="1" /><circle cx="38" cy="146" fill="white" r="1" /><circle cx="39" cy="146" fill="white" r="1" /><circle cx="40" cy="146" fill="white" r="1" /><circle cx="41" cy="146" fill="white" r="1" /><circle cx="42" cy="146" fill="white" r="1" /><circle cx="30" cy="147" fill="white" r="1" /><circle cx="31" cy="147" fill="white" r="1" /><circle cx="32" cy="147" fill="white" r="1" /><circle cx="33" cy="147" fill="white" r="1" /><circle cx="34" cy="147" fill="white" r="1" /><circle cx="43" cy="147" fill="white" r="1" /><circle cx="44" cy="147" fill="white" r="1" /><circle cx="27" cy="148" fill="white" r="1" /><circle cx="28" cy="148" fill="white" r="1" /><circle cx="29" cy="148" fill="white" r="1" /><circle cx="45" cy="148" fill="white" r="1" /><circle cx="46" cy="148" fill="white" r="1" /><circle cx="23" cy="149" fill="white" r="1" /><circle cx="24" cy="149" fill="white" r="1" /><circle cx="25" cy="149" fill="white" r="1" /><circle cx="26" cy="149" fill="white" r="1" /><circle cx="46" cy="149" fill="white" r="1" /><circle cx="47" cy="149" fill="white" r="1" /><circle cx="20" cy="150" fill="white" r="1" /><circle cx="21" cy="150" fill="white" r="1" /><circle cx="22" cy="150" fill="white" r="1" /><circle cx="47" cy="150" fill="white" r="1" /><circle cx="17" cy="151" fill="white" r="1" /><circle cx="18" cy="151" fill="white" r="1" /><circle cx="19" cy="151" fill="white" r="1" /><circle cx="48" cy="151" fill="white" r="1" /><circle cx="14" cy="152" fill="white" r="1" /><circle cx="15" cy="152" fill="white" r="1" /><circle cx="16" cy="152" fill="white" r="1" /><circle cx="48" cy="152" fill="white" r="1" /><circle cx="12" cy="153" fill="white" r="1" /><circle cx="13" cy="153" fill="white" r="1" /><circle cx="48" cy="153" fill="white" r="1" /><circle cx="10" cy="154" fill="white" r="1" /><circle cx="11" cy="154" fill="white" r="1" /><circle cx="48" cy="154" fill="white" r="1" /><circle cx="8" cy="155" fill="white" r="1" /><circle cx="9" cy="155" fill="white" r="1" /><circle cx="48" cy="155" fill="white" r="1" /><circle cx="6" cy="156" fill="white" r="1" /><circle cx="7" cy="156" fill="white" r="1" /><circle cx="48" cy="156" fill="white" r="1" /><circle cx="4" cy="157" fill="white" r="1" /><circle cx="5" cy="157" fill="white" r="1" /><circle cx="48" cy="157" fill="white" r="1" /><circle cx="2" cy="158" fill="white" r="1" /><circle cx="3" cy="158" fill="white" r="1" /><circle cx="47" cy="158" fill="white" r="1" /><circle cx="0" cy="159" fill="white" r="1" /><circle cx="1" cy="159" fill="white" r="1" /><circle cx="48" cy="159" fill="white" r="1" /><circle cx="48" cy="160" fill="white" r="1" /><circle cx="48" cy="161" fill="white" r="1" /><circle cx="48" cy="162" fill="white" r="1" /><circle cx="50" cy="162" fill="white" r="1" /><circle cx="51" cy="162" fill="white" r="1" /><circle cx="52" cy="162" fill="white" r="1" /><circle cx="53" cy="162" fill="white" r="1" /><circle cx="48" cy="163" fill="white" r="1" /><circle cx="50" cy="163" fill="white" r="1" /><circle cx="54" cy="163" fill="white" r="1" /><circle cx="55" cy="163" fill="white" r="1" /><circle cx="56" cy="164" fill="white" r="1" /><circle cx="57" cy="164" fill="white" r="1" /><circle cx="58" cy="165" fill="white" r="1" /><circle cx="59" cy="165" fill="white" r="1" /><circle cx="60" cy="166" fill="white" r="1" /><circle cx="61" cy="166" fill="white" r="1" /><circle cx="61" cy="167" fill="white" r="1" /><circle cx="62" cy="167" fill="white" r="1" /><circle cx="63" cy="168" fill="white" r="1" /><circle cx="64" cy="168" fill="white" r="1" /><circle cx="65" cy="168" fill="white" r="1" /><circle cx="64" cy="170" fill="white" r="1" /><circle cx="65" cy="170" fill="white" r="1" /><circle cx="63" cy="171" fill="white" r="1" /><circle cx="64" cy="171" fill="white" r="1" /><circle cx="62" cy="172" fill="white" r="1" /><circle cx="63" cy="172" fill="white" r="1" /><circle cx="60" cy="173" fill="white" r="1" /><circle cx="61" cy="173" fill="white" r="1" /><circle cx="58" cy="174" fill="white" r="1" /><circle cx="59" cy="174" fill="white" r="1" /><circle cx="57" cy="175" fill="white" r="1" /><circle cx="58" cy="175" fill="white" r="1" /><circle cx="55" cy="176" fill="white" r="1" /><circle cx="56" cy="176" fill="white" r="1" /><circle cx="54" cy="177" fill="white" r="1" /><circle cx="55" cy="177" fill="white" r="1" /><circle cx="52" cy="178" fill="white" r="1" /><circle cx="53" cy="178" fill="white" r="1" /><circle cx="50" cy="179" fill="white" r="1" /><circle cx="51" cy="179" fill="white" r="1" /><circle cx="49" cy="180" fill="white" r="1" /><circle cx="50" cy="180" fill="white" r="1" /><circle cx="47" cy="181" fill="white" r="1" /><circle cx="48" cy="181" fill="white" r="1" /><circle cx="46" cy="182" fill="white" r="1" /><circle cx="47" cy="182" fill="white" r="1" /><circle cx="44" cy="183" fill="white" r="1" /><circle cx="45" cy="183" fill="white" r="1" /><circle cx="42" cy="184" fill="white" r="1" /><circle cx="43" cy="184" fill="white" r="1" /><circle cx="88" cy="184" fill="white" r="1" /><circle cx="89" cy="184" fill="white" r="1" /><circle cx="90" cy="184" fill="white" r="1" /><circle cx="40" cy="185" fill="white" r="1" /><circle cx="41" cy="185" fill="white" r="1" /><circle cx="86" cy="185" fill="white" r="1" /><circle cx="87" cy="185" fill="white" r="1" /><circle cx="91" cy="185" fill="white" r="1" /><circle cx="38" cy="186" fill="white" r="1" /><circle cx="39" cy="186" fill="white" r="1" /><circle cx="84" cy="186" fill="white" r="1" /><circle cx="85" cy="186" fill="white" r="1" /><circle cx="91" cy="186" fill="white" r="1" /><circle cx="36" cy="187" fill="white" r="1" /><circle cx="37" cy="187" fill="white" r="1" /><circle cx="81" cy="187" fill="white" r="1" /><circle cx="82" cy="187" fill="white" r="1" /><circle cx="83" cy="187" fill="white" r="1" /><circle cx="91" cy="187" fill="white" r="1" /><circle cx="34" cy="188" fill="white" r="1" /><circle cx="35" cy="188" fill="white" r="1" /><circle cx="78" cy="188" fill="white" r="1" /><circle cx="79" cy="188" fill="white" r="1" /><circle cx="80" cy="188" fill="white" r="1" /><circle cx="91" cy="188" fill="white" r="1" /><circle cx="32" cy="189" fill="white" r="1" /><circle cx="33" cy="189" fill="white" r="1" /><circle cx="75" cy="189" fill="white" r="1" /><circle cx="76" cy="189" fill="white" r="1" /><circle cx="77" cy="189" fill="white" r="1" /><circle cx="91" cy="189" fill="white" r="1" /><circle cx="30" cy="190" fill="white" r="1" /><circle cx="31" cy="190" fill="white" r="1" /><circle cx="72" cy="190" fill="white" r="1" /><circle cx="73" cy="190" fill="white" r="1" /><circle cx="74" cy="190" fill="white" r="1" /><circle cx="90" cy="190" fill="white" r="1" /><circle cx="28" cy="191" fill="white" r="1" /><circle cx="29" cy="191" fill="white" r="1" /><circle cx="69" cy="191" fill="white" r="1" /><circle cx="70" cy="191" fill="white" r="1" /><circle cx="71" cy="191" fill="white" r="1" /><circle cx="90" cy="191" fill="white" r="1" /><circle cx="27" cy="192" fill="white" r="1" /><circle cx="28" cy="192" fill="white" r="1" /><circle cx="65" cy="192" fill="white" r="1" /><circle cx="66" cy="192" fill="white" r="1" /><circle cx="67" cy="192" fill="white" r="1" /><circle cx="68" cy="192" fill="white" r="1" /><circle cx="90" cy="192" fill="white" r="1" /><circle cx="25" cy="193" fill="white" r="1" /><circle cx="26" cy="193" fill="white" r="1" /><circle cx="62" cy="193" fill="white" r="1" /><circle cx="63" cy="193" fill="white" r="1" /><circle cx="64" cy="193" fill="white" r="1" /><circle cx="89" cy="193" fill="white" r="1" /><circle cx="24" cy="194" fill="white" r="1" /><circle cx="25" cy="194" fill="white" r="1" /><circle cx="58" cy="194" fill="white" r="1" /><circle cx="59" cy="194" fill="white" r="1" /><circle cx="60" cy="194" fill="white" r="1" /><circle cx="61" cy="194" fill="white" r="1" /><circle cx="89" cy="194" fill="white" r="1" /><circle cx="24" cy="195" fill="white" r="1" /><circle cx="54" cy="195" fill="white" r="1" /><circle cx="55" cy="195" fill="white" r="1" /><circle cx="56" cy="195" fill="white" r="1" /><circle cx="57" cy="195" fill="white" r="1" /><circle cx="89" cy="195" fill="white" r="1" /><circle cx="23" cy="196" fill="white" r="1" /><circle cx="50" cy="196" fill="white" r="1" /><circle cx="51" cy="196" fill="white" r="1" /><circle cx="52" cy="196" fill="white" r="1" /><circle cx="53" cy="196" fill="white" r="1" /><circle cx="88" cy="196" fill="white" r="1" /><circle cx="24" cy="197" fill="white" r="1" /><circle cx="44" cy="197" fill="white" r="1" /><circle cx="45" cy="197" fill="white" r="1" /><circle cx="46" cy="197" fill="white" r="1" /><circle cx="47" cy="197" fill="white" r="1" /><circle cx="48" cy="197" fill="white" r="1" /><circle cx="49" cy="197" fill="white" r="1" /><circle cx="88" cy="197" fill="white" r="1" /><circle cx="24" cy="198" fill="white" r="1" /><circle cx="25" cy="198" fill="white" r="1" /><circle cx="38" cy="198" fill="white" r="1" /><circle cx="39" cy="198" fill="white" r="1" /><circle cx="40" cy="198" fill="white" r="1" /><circle cx="41" cy="198" fill="white" r="1" /><circle cx="42" cy="198" fill="white" r="1" /><circle cx="43" cy="198" fill="white" r="1" /><circle cx="87" cy="198" fill="white" r="1" /><circle cx="26" cy="199" fill="white" r="1" /><circle cx="27" cy="199" fill="white" r="1" /><circle cx="28" cy="199" fill="white" r="1" /><circle cx="29" cy="199" fill="white" r="1" /><circle cx="30" cy="199" fill="white" r="1" /><circle cx="31" cy="199" fill="white" r="1" /><circle cx="32" cy="199" fill="white" r="1" /><circle cx="33" cy="199" fill="white" r="1" /><circle cx="34" cy="199" fill="white" r="1" /><circle cx="35" cy="199" fill="white" r="1" /><circle cx="36" cy="199" fill="white" r="1" /><circle cx="37" cy="199" fill="white" r="1" /><circle cx="87" cy="199" fill="white" r="1" /><circle cx="87" cy="200" fill="white" r="1" /><circle cx="87" cy="201" fill="white" r="1" /><circle cx="86" cy="202" fill="white" r="1" /><circle cx="86" cy="203" fill="white" r="1" /><circle cx="86" cy="204" fill="white" r="1" /><circle cx="86" cy="205" fill="white" r="1" /><circle cx="85" cy="206" fill="white" r="1" /><circle cx="85" cy="207" fill="white" r="1" /><circle cx="85" cy="208" fill="white" r="1" /><circle cx="84" cy="209" fill="white" r="1" /><circle cx="84" cy="210" fill="white" r="1" /><circle cx="84" cy="211" fill="white" r="1" /><circle cx="84" cy="212" fill="white" r="1" /><circle cx="83" cy="213" fill="white" r="1" /><circle cx="83" cy="214" fill="white" r="1" /><circle cx="83" cy="215" fill="white" r="1" /><circle cx="83" cy="216" fill="white" r="1" /><circle cx="83" cy="217" fill="white" r="1" /><circle cx="82" cy="218" fill="white" r="1" /><circle cx="82" cy="219" fill="white" r="1" /><circle cx="82" cy="220" fill="white" r="1" /><circle cx="82" cy="221" fill="white" r="1" /><circle cx="81" cy="222" fill="white" r="1" /><circle cx="81" cy="223" fill="white" r="1" /><circle cx="81" cy="224" fill="white" r="1" /><circle cx="81" cy="225" fill="white" r="1" /><circle cx="81" cy="226" fill="white" r="1" /><circle cx="81" cy="227" fill="white" r="1" /><circle cx="81" cy="228" fill="white" r="1" /><circle cx="80" cy="229" fill="white" r="1" /><circle cx="80" cy="230" fill="white" r="1" /><circle cx="80" cy="231" fill="white" r="1" /><circle cx="80" cy="232" fill="white" r="1" /><circle cx="79" cy="233" fill="white" r="1" /><circle cx="79" cy="234" fill="white" r="1" /><circle cx="79" cy="235" fill="white" r="1" /><circle cx="79" cy="236" fill="white" r="1" /><circle cx="79" cy="237" fill="white" r="1" /><circle cx="79" cy="238" fill="white" r="1" /><circle cx="99" cy="238" fill="white" r="1" /><circle cx="100" cy="238" fill="white" r="1" /><circle cx="101" cy="238" fill="white" r="1" /><circle cx="102" cy="238" fill="white" r="1" /><circle cx="103" cy="238" fill="white" r="1" /><circle cx="79" cy="239" fill="white" r="1" /><circle cx="97" cy="239" fill="white" r="1" /><circle cx="98" cy="239" fill="white" r="1" /><circle cx="103" cy="239" fill="white" r="1" /><circle cx="79" cy="240" fill="white" r="1" /><circle cx="93" cy="240" fill="white" r="1" /><circle cx="94" cy="240" fill="white" r="1" /><circle cx="95" cy="240" fill="white" r="1" /><circle cx="96" cy="240" fill="white" r="1" /><circle cx="103" cy="240" fill="white" r="1" /><circle cx="78" cy="241" fill="white" r="1" /><circle cx="91" cy="241" fill="white" r="1" /><circle cx="92" cy="241" fill="white" r="1" /><circle cx="103" cy="241" fill="white" r="1" /><circle cx="79" cy="242" fill="white" r="1" /><circle cx="88" cy="242" fill="white" r="1" /><circle cx="89" cy="242" fill="white" r="1" /><circle cx="90" cy="242" fill="white" r="1" /><circle cx="102" cy="242" fill="white" r="1" /><circle cx="79" cy="243" fill="white" r="1" /><circle cx="86" cy="243" fill="white" r="1" /><circle cx="87" cy="243" fill="white" r="1" /><circle cx="101" cy="243" fill="white" r="1" /><circle cx="102" cy="243" fill="white" r="1" /><circle cx="80" cy="244" fill="white" r="1" /><circle cx="84" cy="244" fill="white" r="1" /><circle cx="85" cy="244" fill="white" r="1" /><circle cx="100" cy="244" fill="white" r="1" /><circle cx="101" cy="244" fill="white" r="1" /><circle cx="80" cy="245" fill="white" r="1" /><circle cx="81" cy="245" fill="white" r="1" /><circle cx="82" cy="245" fill="white" r="1" /><circle cx="83" cy="245" fill="white" r="1" /><circle cx="100" cy="245" fill="white" r="1" /><circle cx="99" cy="246" fill="white" r="1" /><circle cx="98" cy="247" fill="white" r="1" /><circle cx="99" cy="247" fill="white" r="1" /><circle cx="97" cy="248" fill="white" r="1" /><circle cx="98" cy="248" fill="white" r="1" /><circle cx="96" cy="249" fill="white" r="1" /><circle cx="97" cy="249" fill="white" r="1" /><circle cx="95" cy="250" fill="white" r="1" /><circle cx="96" cy="250" fill="white" r="1" /><circle cx="94" cy="251" fill="white" r="1" /><circle cx="95" cy="251" fill="white" r="1" /><circle cx="92" cy="252" fill="white" r="1" /><circle cx="93" cy="252" fill="white" r="1" /><circle cx="91" cy="253" fill="white" r="1" /><circle cx="92" cy="253" fill="white" r="1" /><circle cx="90" cy="254" fill="white" r="1" /><circle cx="91" cy="254" fill="white" r="1" /><circle cx="89" cy="255" fill="white" r="1" /></svg>