<?xml version="1.0" encoding="utf-8" ?>
<svg baseProfile="tiny" height="100%" version="1.2" width="100%" xmlns="http://www.w3.org/2000/svg" xmlns:ev="http://www.w3.org/2001/xml-events" xmlns:xlink="http://www.w3.org/1999/xlink"><defs /><rect fill="black" height="100%" width="100%" x="0" y="0" /><circle cx="75" cy="0" fill="white" r="1" /><circle cx="120" cy="0" fill="white" r="1" /><circle cx="75" cy="1" fill="white" r="1" /><circle cx="120" cy="1" fill="white" r="1" /><circle cx="75" cy="2" fill="white" r="1" /><circle cx="120" cy="2" fill="white" r="1" /><circle cx="74" cy="3" fill="white" r="1" /><circle cx="75" cy="3" fill="white" r="1" /><circle cx="118" cy="3" fill="white" r="1" /><circle cx="119" cy="3" fill="white" r="1" /><circle cx="74" cy="4" fill="white" r="1" /><circle cx="118" cy="4" fill="white" r="1" /><circle cx="73" cy="5" fill="white" r="1" /><circle cx="119" cy="5" fill="white" r="1" /><circle cx="73" cy="6" fill="white" r="1" /><circle cx="119" cy="6" fill="white" r="1" /><circle cx="72" cy="7" fill="white" r="1" /><circle cx="118" cy="7" fill="white" r="1" /><circle cx="72" cy="8" fill="white" r="1" /><circle cx="119" cy="8" fill="white" r="1" /><circle cx="71" cy="9" fill="white" r="1" /><circle cx="118" cy="9" fill="white" r="1" /><circle cx="71" cy="10" fill="white" r="1" /><circle cx="118" cy="10" fill="white" r="1" /><circle cx="71" cy="11" fill="white" r="1" /><circle cx="117" cy="11" fill="white" r="1" /><circle cx="70" cy="12" fill="white" r="1" /><circle cx="117" cy="12" fill="white" r="1" /><circle cx="70" cy="13" fill="white" r="1" /><circle cx="116" cy="13" fill="white" r="1" /><circle cx="69" cy="14" fill="white" r="1" /><circle cx="116" cy="14" fill="white" r="1" /><circle cx="69" cy="15" fill="white" r="1" /><circle cx="116" cy="15" fill="white" r="1" /><circle cx="68" cy="16" fill="white" r="1" /><circle cx="116" cy="16" fill="white" r="1" /><circle cx="68" cy="17" fill="white" r="1" /><circle cx="116" cy="17" fill="white" r="1" /><circle cx="68" cy="18" fill="white" r="1" /><circle cx="115" cy="18" fill="white" r="1" /><circle cx="67" cy="19" fill="white" r="1" /><circle cx="115" cy="19" fill="white" r="1" /><circle cx="67" cy="20" fill="white" r="1" /><circle cx="114" cy="20" fill="white" r="1" /><circle cx="66" cy="21" fill="white" r="1" /><circle cx="114" cy="21" fill="white" r="1" /><circle cx="66" cy="22" fill="white" r="1" /><circle cx="113" cy="22" fill="white" r="1" /><circle cx="65" cy="23" fill="white" r="1" /><circle cx="113" cy="23" fill="white" r="1" /><circle cx="65" cy="24" fill="white" r="1" /><circle cx="113" cy="24" fill="white" r="1" /><circle cx="64" cy="25" fill="white" r="1" /><circle cx="113" cy="25" fill="white" r="1" /><circle cx="64" cy="26" fill="white" r="1" /><circle cx="112" cy="26" fill="white" r="1" /><circle cx="64" cy="27" fill="white" r="1" /><circle cx="112" cy="27" fill="white" r="1" /><circle cx="63" cy="28" fill="white" r="1" /><circle cx="82" cy="28" fill="white" r="1" /><circle cx="83" cy="28" fill="white" r="1" /><circle cx="84" cy="28" fill="white" r="1" /><circle cx="112" cy="28" fill="white" r="1" /><circle cx="63" cy="29" fill="white" r="1" /><circle cx="80" cy="29" fill="white" r="1" /><circle cx="81" cy="29" fill="white" r="1" /><circle cx="112" cy="29" fill="white" r="1" /><circle cx="62" cy="30" fill="white" r="1" /><circle cx="79" cy="30" fill="white" r="1" /><circle cx="80" cy="30" fill="white" r="1" /><circle cx="85" cy="30" fill="white" r="1" /><circle cx="86" cy="30" fill="white" r="1" /><circle cx="111" cy="30" fill="white" r="1" /><circle cx="62" cy="31" fill="white" r="1" /><circle cx="79" cy="31" fill="white" r="1" /><circle cx="86" cy="31" fill="white" r="1" /><circle cx="112" cy="31" fill="white" r="1" /><circle cx="61" cy="32" fill="white" r="1" /><circle cx="78" cy="32" fill="white" r="1" /><circle cx="86" cy="32" fill="white" r="1" /><circle cx="87" cy="32" fill="white" r="1" /><circle cx="111" cy="32" fill="white" r="1" /><circle cx="61" cy="33" fill="white" r="1" /><circle cx="77" cy="33" fill="white" r="1" /><circle cx="78" cy="33" fill="white" r="1" /><circle cx="87" cy="33" fill="white" r="1" /><circle cx="111" cy="33" fill="white" r="1" /><circle cx="61" cy="34" fill="white" r="1" /><circle cx="76" cy="34" fill="white" r="1" /><circle cx="88" cy="34" fill="white" r="1" /><circle cx="110" cy="34" fill="white" r="1" /><circle cx="60" cy="35" fill="white" r="1" /><circle cx="76" cy="35" fill="white" r="1" /><circle cx="88" cy="35" fill="white" r="1" /><circle cx="109" cy="35" fill="white" r="1" /><circle cx="110" cy="35" fill="white" r="1" /><circle cx="60" cy="36" fill="white" r="1" /><circle cx="75" cy="36" fill="white" r="1" /><circle cx="76" cy="36" fill="white" r="1" /><circle cx="89" cy="36" fill="white" r="1" /><circle cx="108" cy="36" fill="white" r="1" /><circle cx="59" cy="37" fill="white" r="1" /><circle cx="74" cy="37" fill="white" r="1" /><circle cx="75" cy="37" fill="white" r="1" /><circle cx="89" cy="37" fill="white" r="1" /><circle cx="107" cy="37" fill="white" r="1" /><circle cx="59" cy="38" fill="white" r="1" /><circle cx="74" cy="38" fill="white" r="1" /><circle cx="89" cy="38" fill="white" r="1" /><circle cx="107" cy="38" fill="white" r="1" /><circle cx="59" cy="39" fill="white" r="1" /><circle cx="73" cy="39" fill="white" r="1" /><circle cx="90" cy="39" fill="white" r="1" /><circle cx="107" cy="39" fill="white" r="1" /><circle cx="58" cy="40" fill="white" r="1" /><circle cx="73" cy="40" fill="white" r="1" /><circle cx="91" cy="40" fill="white" r="1" /><circle cx="107" cy="40" fill="white" r="1" /><circle cx="58" cy="41" fill="white" r="1" /><circle cx="72" cy="41" fill="white" r="1" /><circle cx="91" cy="41" fill="white" r="1" /><circle cx="107" cy="41" fill="white" r="1" /><circle cx="57" cy="42" fill="white" r="1" /><circle cx="58" cy="42" fill="white" r="1" /><circle cx="71" cy="42" fill="white" r="1" /><circle cx="92" cy="42" fill="white" r="1" /><circle cx="107" cy="42" fill="white" r="1" /><circle cx="57" cy="43" fill="white" r="1" /><circle cx="70" cy="43" fill="white" r="1" /><circle cx="71" cy="43" fill="white" r="1" /><circle cx="92" cy="43" fill="white" r="1" /><circle cx="107" cy="43" fill="white" r="1" /><circle cx="57" cy="44" fill="white" r="1" /><circle cx="70" cy="44" fill="white" r="1" /><circle cx="93" cy="44" fill="white" r="1" /><circle cx="107" cy="44" fill="white" r="1" /><circle cx="56" cy="45" fill="white" r="1" /><circle cx="68" cy="45" fill="white" r="1" /><circle cx="93" cy="45" fill="white" r="1" /><circle cx="107" cy="45" fill="white" r="1" /><circle cx="56" cy="46" fill="white" r="1" /><circle cx="65" cy="46" fill="white" r="1" /><circle cx="68" cy="46" fill="white" r="1" /><circle cx="94" cy="46" fill="white" r="1" /><circle cx="107" cy="46" fill="white" r="1" /><circle cx="56" cy="47" fill="white" r="1" /><circle cx="65" cy="47" fill="white" r="1" /><circle cx="68" cy="47" fill="white" r="1" /><circle cx="94" cy="47" fill="white" r="1" /><circle cx="106" cy="47" fill="white" r="1" /><circle cx="55" cy="48" fill="white" r="1" /><circle cx="66" cy="48" fill="white" r="1" /><circle cx="95" cy="48" fill="white" r="1" /><circle cx="106" cy="48" fill="white" r="1" /><circle cx="55" cy="49" fill="white" r="1" /><circle cx="66" cy="49" fill="white" r="1" /><circle cx="95" cy="49" fill="white" r="1" /><circle cx="106" cy="49" fill="white" r="1" /><circle cx="55" cy="50" fill="white" r="1" /><circle cx="65" cy="50" fill="white" r="1" /><circle cx="66" cy="50" fill="white" r="1" /><circle cx="96" cy="50" fill="white" r="1" /><circle cx="105" cy="50" fill="white" r="1" /><circle cx="54" cy="51" fill="white" r="1" /><circle cx="64" cy="51" fill="white" r="1" /><circle cx="65" cy="51" fill="white" r="1" /><circle cx="96" cy="51" fill="white" r="1" /><circle cx="105" cy="51" fill="white" r="1" /><circle cx="54" cy="52" fill="white" r="1" /><circle cx="64" cy="52" fill="white" r="1" /><circle cx="97" cy="52" fill="white" r="1" /><circle cx="105" cy="52" fill="white" r="1" /><circle cx="54" cy="53" fill="white" r="1" /><circle cx="63" cy="53" fill="white" r="1" /><circle cx="97" cy="53" fill="white" r="1" /><circle cx="105" cy="53" fill="white" r="1" /><circle cx="53" cy="54" fill="white" r="1" /><circle cx="62" cy="54" fill="white" r="1" /><circle cx="63" cy="54" fill="white" r="1" /><circle cx="97" cy="54" fill="white" r="1" /><circle cx="105" cy="54" fill="white" r="1" /><circle cx="53" cy="55" fill="white" r="1" /><circle cx="61" cy="55" fill="white" r="1" /><circle cx="62" cy="55" fill="white" r="1" /><circle cx="98" cy="55" fill="white" r="1" /><circle cx="105" cy="55" fill="white" r="1" /><circle cx="53" cy="56" fill="white" r="1" /><circle cx="61" cy="56" fill="white" r="1" /><circle cx="98" cy="56" fill="white" r="1" /><circle cx="104" cy="56" fill="white" r="1" /><circle cx="53" cy="57" fill="white" r="1" /><circle cx="60" cy="57" fill="white" r="1" /><circle cx="99" cy="57" fill="white" r="1" /><circle cx="104" cy="57" fill="white" r="1" /><circle cx="53" cy="58" fill="white" r="1" /><circle cx="56" cy="58" fill="white" r="1" /><circle cx="57" cy="58" fill="white" r="1" /><circle cx="59" cy="58" fill="white" r="1" /><circle cx="60" cy="58" fill="white" r="1" /><circle cx="99" cy="58" fill="white" r="1" /><circle cx="104" cy="58" fill="white" r="1" /><circle cx="52" cy="59" fill="white" r="1" /><circle cx="55" cy="59" fill="white" r="1" /><circle cx="57" cy="59" fill="white" r="1" /><circle cx="58" cy="59" fill="white" r="1" /><circle cx="59" cy="59" fill="white" r="1" /><circle cx="100" cy="59" fill="white" r="1" /><circle cx="103" cy="59" fill="white" r="1" /><circle cx="104" cy="59" fill="white" r="1" /><circle cx="218" cy="59" fill="white" r="1" /><circle cx="219" cy="59" fill="white" r="1" /><circle cx="220" cy="59" fill="white" r="1" /><circle cx="221" cy="59" fill="white" r="1" /><circle cx="222" cy="59" fill="white" r="1" /><circle cx="223" cy="59" fill="white" r="1" /><circle cx="224" cy="59" fill="white" r="1" /><circle cx="225" cy="59" fill="white" r="1" /><circle cx="226" cy="59" fill="white" r="1" /><circle cx="52" cy="60" fill="white" r="1" /><circle cx="55" cy="60" fill="white" r="1" /><circle cx="100" cy="60" fill="white" r="1" /><circle cx="103" cy="60" fill="white" r="1" /><circle cx="0" cy="61" fill="white" r="1" /><circle cx="53" cy="61" fill="white" r="1" /><circle cx="57" cy="61" fill="white" r="1" /><circle cx="101" cy="61" fill="white" r="1" /><circle cx="1" cy="62" fill="white" r="1" /><circle cx="2" cy="62" fill="white" r="1" /><circle cx="53" cy="62" fill="white" r="1" /><circle cx="54" cy="62" fill="white" r="1" /><circle cx="55" cy="62" fill="white" r="1" /><circle cx="56" cy="62" fill="white" r="1" /><circle cx="101" cy="62" fill="white" r="1" /><circle cx="3" cy="63" fill="white" r="1" /><circle cx="4" cy="63" fill="white" r="1" /><circle cx="5" cy="63" fill="white" r="1" /><circle cx="6" cy="63" fill="white" r="1" /><circle cx="7" cy="63" fill="white" r="1" /><circle cx="9" cy="63" fill="white" r="1" /><circle cx="101" cy="63" fill="white" r="1" /><circle cx="10" cy="64" fill="white" r="1" /><circle cx="11" cy="64" fill="white" r="1" /><circle cx="12" cy="65" fill="white" r="1" /><circle cx="13" cy="65" fill="white" r="1" /><circle cx="14" cy="66" fill="white" r="1" /><circle cx="15" cy="66" fill="white" r="1" /><circle cx="16" cy="67" fill="white" r="1" /><circle cx="17" cy="67" fill="white" r="1" /><circle cx="18" cy="67" fill="white" r="1" /><circle cx="19" cy="68" fill="white" r="1" /><circle cx="20" cy="68" fill="white" r="1" /><circle cx="21" cy="69" fill="white" r="1" /><circle cx="22" cy="69" fill="white" r="1" /><circle cx="20" cy="71" fill="white" r="1" /><circle cx="21" cy="71" fill="white" r="1" /><circle cx="23" cy="71" fill="white" r="1" /><circle cx="226" cy="71" fill="white" r="1" /><circle cx="227" cy="71" fill="white" r="1" /><circle cx="17" cy="72" fill="white" r="1" /><circle cx="18" cy="72" fill="white" r="1" /><circle cx="19" cy="72" fill="white" r="1" /><circle cx="20" cy="72" fill="white" r="1" /><circle cx="225" cy="72" fill="white" r="1" /><circle cx="17" cy="73" fill="white" r="1" /><circle cx="227" cy="73" fill="white" r="1" /><circle cx="15" cy="74" fill="white" r="1" /><circle cx="16" cy="74" fill="white" r="1" /><circle cx="223" cy="74" fill="white" r="1" /><circle cx="14" cy="75" fill="white" r="1" /><circle cx="15" cy="75" fill="white" r="1" /><circle cx="14" cy="76" fill="white" r="1" /><circle cx="13" cy="77" fill="white" r="1" /><circle cx="13" cy="78" fill="white" r="1" /><circle cx="13" cy="79" fill="white" r="1" /><circle cx="13" cy="80" fill="white" r="1" /><circle cx="215" cy="80" fill="white" r="1" /><circle cx="216" cy="80" fill="white" r="1" /><circle cx="14" cy="81" fill="white" r="1" /><circle cx="14" cy="82" fill="white" r="1" /><circle cx="15" cy="82" fill="white" r="1" /><circle cx="15" cy="83" fill="white" r="1" /><circle cx="16" cy="83" fill="white" r="1" /><circle cx="17" cy="83" fill="white" r="1" /><circle cx="18" cy="84" fill="white" r="1" /><circle cx="19" cy="84" fill="white" r="1" /><circle cx="20" cy="84" fill="white" r="1" /><circle cx="21" cy="84" fill="white" r="1" /><circle cx="22" cy="84" fill="white" r="1" /><circle cx="23" cy="84" fill="white" r="1" /><circle cx="24" cy="85" fill="white" r="1" /><circle cx="25" cy="85" fill="white" r="1" /><circle cx="26" cy="85" fill="white" r="1" /><circle cx="27" cy="85" fill="white" r="1" /><circle cx="28" cy="85" fill="white" r="1" /><circle cx="28" cy="87" fill="white" r="1" /><circle cx="27" cy="88" fill="white" r="1" /><circle cx="27" cy="89" fill="white" r="1" /><circle cx="26" cy="90" fill="white" r="1" /><circle cx="25" cy="91" fill="white" r="1" /><circle cx="26" cy="91" fill="white" r="1" /><circle cx="25" cy="92" fill="white" r="1" /><circle cx="24" cy="93" fill="white" r="1" /><circle cx="24" cy="94" fill="white" r="1" /><circle cx="23" cy="95" fill="white" r="1" /><circle cx="23" cy="96" fill="white" r="1" /><circle cx="22" cy="97" fill="white" r="1" /><circle cx="22" cy="98" fill="white" r="1" /><circle cx="21" cy="99" fill="white" r="1" /><circle cx="21" cy="100" fill="white" r="1" /><circle cx="21" cy="101" fill="white" r="1" /><circle cx="21" cy="102" fill="white" r="1" /><circle cx="22" cy="102" fill="white" r="1" /><circle cx="23" cy="102" fill="white" r="1" /><circle cx="24" cy="102" fill="white" r="1" /><circle cx="25" cy="102" fill="white" r="1" /><circle cx="26" cy="102" fill="white" r="1" /><circle cx="27" cy="102" fill="white" r="1" /><circle cx="28" cy="102" fill="white" r="1" /><circle cx="29" cy="102" fill="white" r="1" /><circle cx="30" cy="102" fill="white" r="1" /><circle cx="33" cy="103" fill="white" r="1" /><circle cx="34" cy="103" fill="white" r="1" /><circle cx="35" cy="103" fill="white" r="1" /><circle cx="36" cy="103" fill="white" r="1" /><circle cx="37" cy="103" fill="white" r="1" /><circle cx="38" cy="103" fill="white" r="1" /><circle cx="39" cy="103" fill="white" r="1" /><circle cx="40" cy="103" fill="white" r="1" /><circle cx="41" cy="103" fill="white" r="1" /><circle cx="30" cy="104" fill="white" r="1" /><circle cx="31" cy="104" fill="white" r="1" /><circle cx="32" cy="104" fill="white" r="1" /><circle cx="42" cy="104" fill="white" r="1" /><circle cx="43" cy="104" fill="white" r="1" /><circle cx="43" cy="105" fill="white" r="1" /><circle cx="44" cy="105" fill="white" r="1" /><circle cx="45" cy="106" fill="white" r="1" /><circle cx="46" cy="106" fill="white" r="1" /><circle cx="46" cy="107" fill="white" r="1" /><circle cx="47" cy="108" fill="white" r="1" /><circle cx="47" cy="109" fill="white" r="1" /><circle cx="48" cy="109" fill="white" r="1" /><circle cx="48" cy="110" fill="white" r="1" /><circle cx="49" cy="110" fill="white" r="1" /><circle cx="50" cy="110" fill="white" r="1" /><circle cx="51" cy="111" fill="white" r="1" /><circle cx="51" cy="112" fill="white" r="1" /><circle cx="52" cy="113" fill="white" r="1" /><circle cx="53" cy="113" fill="white" r="1" /><circle cx="54" cy="113" fill="white" r="1" /><circle cx="55" cy="113" fill="white" r="1" /><circle cx="55" cy="114" fill="white" r="1" /><circle cx="55" cy="115" fill="white" r="1" /><circle cx="56" cy="116" fill="white" r="1" /><circle cx="57" cy="116" fill="white" r="1" /><circle cx="59" cy="116" fill="white" r="1" /><circle cx="57" cy="117" fill="white" r="1" /><circle cx="59" cy="117" fill="white" r="1" /><circle cx="60" cy="118" fill="white" r="1" /><circle cx="12" cy="119" fill="white" r="1" /><circle cx="13" cy="119" fill="white" r="1" /><circle cx="60" cy="119" fill="white" r="1" /><circle cx="61" cy="119" fill="white" r="1" /><circle cx="62" cy="119" fill="white" r="1" /><circle cx="11" cy="120" fill="white" r="1" /><circle cx="14" cy="120" fill="white" r="1" /><circle cx="15" cy="120" fill="white" r="1" /><circle cx="16" cy="120" fill="white" r="1" /><circle cx="17" cy="120" fill="white" r="1" /><circle cx="62" cy="120" fill="white" r="1" /><circle cx="11" cy="121" fill="white" r="1" /><circle cx="18" cy="121" fill="white" r="1" /><circle cx="19" cy="121" fill="white" r="1" /><circle cx="20" cy="121" fill="white" r="1" /><circle cx="21" cy="121" fill="white" r="1" /><circle cx="63" cy="121" fill="white" r="1" /><circle cx="11" cy="122" fill="white" r="1" /><circle cx="12" cy="122" fill="white" r="1" /><circle cx="22" cy="122" fill="white" r="1" /><circle cx="23" cy="122" fill="white" r="1" /><circle cx="24" cy="122" fill="white" r="1" /><circle cx="64" cy="122" fill="white" r="1" /><circle cx="65" cy="122" fill="white" r="1" /><circle cx="13" cy="123" fill="white" r="1" /><circle cx="14" cy="123" fill="white" r="1" /><circle cx="25" cy="123" fill="white" r="1" /><circle cx="26" cy="123" fill="white" r="1" /><circle cx="27" cy="123" fill="white" r="1" /><circle cx="28" cy="123" fill="white" r="1" /><circle cx="65" cy="123" fill="white" r="1" /><circle cx="66" cy="123" fill="white" r="1" /><circle cx="67" cy="123" fill="white" r="1" /><circle cx="68" cy="123" fill="white" r="1" /><circle cx="69" cy="123" fill="white" r="1" /><circle cx="70" cy="123" fill="white" r="1" /><circle cx="14" cy="124" fill="white" r="1" /><circle cx="15" cy="124" fill="white" r="1" /><circle cx="29" cy="124" fill="white" r="1" /><circle cx="30" cy="124" fill="white" r="1" /><circle cx="15" cy="125" fill="white" r="1" /><circle cx="16" cy="125" fill="white" r="1" /><circle cx="31" cy="125" fill="white" r="1" /><circle cx="32" cy="125" fill="white" r="1" /><circle cx="33" cy="125" fill="white" r="1" /><circle cx="34" cy="125" fill="white" r="1" /><circle cx="70" cy="125" fill="white" r="1" /><circle cx="16" cy="126" fill="white" r="1" /><circle cx="17" cy="126" fill="white" r="1" /><circle cx="35" cy="126" fill="white" r="1" /><circle cx="36" cy="126" fill="white" r="1" /><circle cx="37" cy="126" fill="white" r="1" /><circle cx="71" cy="126" fill="white" r="1" /><circle cx="72" cy="126" fill="white" r="1" /><circle cx="73" cy="126" fill="white" r="1" /><circle cx="74" cy="126" fill="white" r="1" /><circle cx="17" cy="127" fill="white" r="1" /><circle cx="18" cy="127" fill="white" r="1" /><circle cx="38" cy="127" fill="white" r="1" /><circle cx="39" cy="127" fill="white" r="1" /><circle cx="74" cy="127" fill="white" r="1" /><circle cx="18" cy="128" fill="white" r="1" /><circle cx="19" cy="128" fill="white" r="1" /><circle cx="40" cy="128" fill="white" r="1" /><circle cx="41" cy="128" fill="white" r="1" /><circle cx="42" cy="128" fill="white" r="1" /><circle cx="74" cy="128" fill="white" r="1" /><circle cx="75" cy="128" fill="white" r="1" /><circle cx="19" cy="129" fill="white" r="1" /><circle cx="20" cy="129" fill="white" r="1" /><circle cx="43" cy="129" fill="white" r="1" /><circle cx="44" cy="129" fill="white" r="1" /><circle cx="45" cy="129" fill="white" r="1" /><circle cx="75" cy="129" fill="white" r="1" /><circle cx="76" cy="129" fill="white" r="1" /><circle cx="77" cy="129" fill="white" r="1" /><circle cx="78" cy="129" fill="white" r="1" /><circle cx="79" cy="129" fill="white" r="1" /><circle cx="20" cy="130" fill="white" r="1" /><circle cx="21" cy="130" fill="white" r="1" /><circle cx="46" cy="130" fill="white" r="1" /><circle cx="47" cy="130" fill="white" r="1" /><circle cx="48" cy="130" fill="white" r="1" /><circle cx="80" cy="130" fill="white" r="1" /><circle cx="81" cy="130" fill="white" r="1" /><circle cx="22" cy="131" fill="white" r="1" /><circle cx="23" cy="131" fill="white" r="1" /><circle cx="49" cy="131" fill="white" r="1" /><circle cx="50" cy="131" fill="white" r="1" /><circle cx="51" cy="131" fill="white" r="1" /><circle cx="81" cy="131" fill="white" r="1" /><circle cx="82" cy="131" fill="white" r="1" /><circle cx="23" cy="132" fill="white" r="1" /><circle cx="24" cy="132" fill="white" r="1" /><circle cx="52" cy="132" fill="white" r="1" /><circle cx="53" cy="132" fill="white" r="1" /><circle cx="54" cy="132" fill="white" r="1" /><circle cx="83" cy="132" fill="white" r="1" /><circle cx="84" cy="132" fill="white" r="1" /><circle cx="24" cy="133" fill="white" r="1" /><circle cx="25" cy="133" fill="white" r="1" /><circle cx="55" cy="133" fill="white" r="1" /><circle cx="56" cy="133" fill="white" r="1" /><circle cx="57" cy="133" fill="white" r="1" /><circle cx="85" cy="133" fill="white" r="1" /><circle cx="25" cy="134" fill="white" r="1" /><circle cx="26" cy="134" fill="white" r="1" /><circle cx="58" cy="134" fill="white" r="1" /><circle cx="59" cy="134" fill="white" r="1" /><circle cx="60" cy="134" fill="white" r="1" /><circle cx="85" cy="134" fill="white" r="1" /><circle cx="86" cy="134" fill="white" r="1" /><circle cx="88" cy="134" fill="white" r="1" /><circle cx="89" cy="134" fill="white" r="1" /><circle cx="26" cy="135" fill="white" r="1" /><circle cx="61" cy="135" fill="white" r="1" /><circle cx="62" cy="135" fill="white" r="1" /><circle cx="63" cy="135" fill="white" r="1" /><circle cx="64" cy="135" fill="white" r="1" /><circle cx="86" cy="135" fill="white" r="1" /><circle cx="90" cy="135" fill="white" r="1" /><circle cx="91" cy="135" fill="white" r="1" /><circle cx="27" cy="136" fill="white" r="1" /><circle cx="65" cy="136" fill="white" r="1" /><circle cx="66" cy="136" fill="white" r="1" /><circle cx="67" cy="136" fill="white" r="1" /><circle cx="87" cy="136" fill="white" r="1" /><circle cx="92" cy="136" fill="white" r="1" /><circle cx="93" cy="136" fill="white" r="1" /><circle cx="94" cy="136" fill="white" r="1" /><circle cx="27" cy="137" fill="white" r="1" /><circle cx="28" cy="137" fill="white" r="1" /><circle cx="68" cy="137" fill="white" r="1" /><circle cx="69" cy="137" fill="white" r="1" /><circle cx="28" cy="138" fill="white" r="1" /><circle cx="29" cy="138" fill="white" r="1" /><circle cx="70" cy="138" fill="white" r="1" /><circle cx="71" cy="138" fill="white" r="1" /><circle cx="94" cy="138" fill="white" r="1" /><circle cx="29" cy="139" fill="white" r="1" /><circle cx="71" cy="139" fill="white" r="1" /><circle cx="72" cy="139" fill="white" r="1" /><circle cx="73" cy="139" fill="white" r="1" /><circle cx="74" cy="139" fill="white" r="1" /><circle cx="95" cy="139" fill="white" r="1" /><circle cx="96" cy="139" fill="white" r="1" /><circle cx="99" cy="139" fill="white" r="1" /><circle cx="100" cy="139" fill="white" r="1" /><circle cx="29" cy="140" fill="white" r="1" /><circle cx="74" cy="140" fill="white" r="1" /><circle cx="76" cy="140" fill="white" r="1" /><circle cx="77" cy="140" fill="white" r="1" /><circle cx="97" cy="140" fill="white" r="1" /><circle cx="100" cy="140" fill="white" r="1" /><circle cx="101" cy="140" fill="white" r="1" /><circle cx="30" cy="141" fill="white" r="1" /><circle cx="78" cy="141" fill="white" r="1" /><circle cx="79" cy="141" fill="white" r="1" /><circle cx="80" cy="141" fill="white" r="1" /><circle cx="102" cy="141" fill="white" r="1" /><circle cx="103" cy="141" fill="white" r="1" /><circle cx="30" cy="142" fill="white" r="1" /><circle cx="31" cy="142" fill="white" r="1" /><circle cx="81" cy="142" fill="white" r="1" /><circle cx="82" cy="142" fill="white" r="1" /><circle cx="83" cy="142" fill="white" r="1" /><circle cx="84" cy="142" fill="white" r="1" /><circle cx="104" cy="142" fill="white" r="1" /><circle cx="105" cy="142" fill="white" r="1" /><circle cx="106" cy="142" fill="white" r="1" /><circle cx="0" cy="143" fill="white" r="1" /><circle cx="31" cy="143" fill="white" r="1" /><circle cx="85" cy="143" fill="white" r="1" /><circle cx="86" cy="143" fill="white" r="1" /><circle cx="87" cy="143" fill="white" r="1" /><circle cx="107" cy="143" fill="white" r="1" /><circle cx="108" cy="143" fill="white" r="1" /><circle cx="1" cy="144" fill="white" r="1" /><circle cx="2" cy="144" fill="white" r="1" /><circle cx="3" cy="144" fill="white" r="1" /><circle cx="4" cy="144" fill="white" r="1" /><circle cx="5" cy="144" fill="white" r="1" /><circle cx="31" cy="144" fill="white" r="1" /><circle cx="88" cy="144" fill="white" r="1" /><circle cx="89" cy="144" fill="white" r="1" /><circle cx="90" cy="144" fill="white" r="1" /><circle cx="91" cy="144" fill="white" r="1" /><circle cx="92" cy="144" fill="white" r="1" /><circle cx="108" cy="144" fill="white" r="1" /><circle cx="177" cy="144" fill="white" r="1" /><circle cx="6" cy="145" fill="white" r="1" /><circle cx="7" cy="145" fill="white" r="1" /><circle cx="8" cy="145" fill="white" r="1" /><circle cx="9" cy="145" fill="white" r="1" /><circle cx="10" cy="145" fill="white" r="1" /><circle cx="11" cy="145" fill="white" r="1" /><circle cx="12" cy="145" fill="white" r="1" /><circle cx="30" cy="145" fill="white" r="1" /><circle cx="93" cy="145" fill="white" r="1" /><circle cx="94" cy="145" fill="white" r="1" /><circle cx="95" cy="145" fill="white" r="1" /><circle cx="96" cy="145" fill="white" r="1" /><circle cx="97" cy="145" fill="white" r="1" /><circle cx="98" cy="145" fill="white" r="1" /><circle cx="99" cy="145" fill="white" r="1" /><circle cx="100" cy="145" fill="white" r="1" /><circle cx="106" cy="145" fill="white" r="1" /><circle cx="107" cy="145" fill="white" r="1" /><circle cx="108" cy="145" fill="white" r="1" /><circle cx="177" cy="145" fill="white" r="1" /><circle cx="13" cy="146" fill="white" r="1" /><circle cx="14" cy="146" fill="white" r="1" /><circle cx="15" cy="146" fill="white" r="1" /><circle cx="16" cy="146" fill="white" r="1" /><circle cx="17" cy="146" fill="white" r="1" /><circle cx="18" cy="146" fill="white" r="1" /><circle cx="30" cy="146" fill="white" r="1" /><circle cx="101" cy="146" fill="white" r="1" /><circle cx="102" cy="146" fill="white" r="1" /><circle cx="103" cy="146" fill="white" r="1" /><circle cx="104" cy="146" fill="white" r="1" /><circle cx="105" cy="146" fill="white" r="1" /><circle cx="177" cy="146" fill="white" r="1" /><circle cx="19" cy="147" fill="white" r="1" /><circle cx="20" cy="147" fill="white" r="1" /><circle cx="21" cy="147" fill="white" r="1" /><circle cx="22" cy="147" fill="white" r="1" /><circle cx="28" cy="147" fill="white" r="1" /><circle cx="29" cy="147" fill="white" r="1" /><circle cx="30" cy="147" fill="white" r="1" /><circle cx="173" cy="147" fill="white" r="1" /><circle cx="176" cy="147" fill="white" r="1" /><circle cx="23" cy="148" fill="white" r="1" /><circle cx="24" cy="148" fill="white" r="1" /><circle cx="25" cy="148" fill="white" r="1" /><circle cx="26" cy="148" fill="white" r="1" /><circle cx="27" cy="148" fill="white" r="1" /><circle cx="172" cy="148" fill="white" r="1" /><circle cx="175" cy="148" fill="white" r="1" /><circle cx="172" cy="149" fill="white" r="1" /><circle cx="174" cy="149" fill="white" r="1" /><circle cx="178" cy="149" fill="white" r="1" /><circle cx="179" cy="149" fill="white" r="1" /><circle cx="172" cy="150" fill="white" r="1" /><circle cx="174" cy="150" fill="white" r="1" /><circle cx="175" cy="150" fill="white" r="1" /><circle cx="176" cy="150" fill="white" r="1" /><circle cx="177" cy="150" fill="white" r="1" /><circle cx="172" cy="151" fill="white" r="1" /><circle cx="178" cy="151" fill="white" r="1" /><circle cx="179" cy="151" fill="white" r="1" /><circle cx="172" cy="152" fill="white" r="1" /><circle cx="173" cy="152" fill="white" r="1" /><circle cx="174" cy="152" fill="white" r="1" /><circle cx="175" cy="152" fill="white" r="1" /><circle cx="176" cy="152" fill="white" r="1" /><circle cx="177" cy="152" fill="white" r="1" /></svg>