<?xml version="1.0" encoding="utf-8" ?>
<svg baseProfile="tiny" height="100%" version="1.2" width="100%" xmlns="http://www.w3.org/2000/svg" xmlns:ev="http://www.w3.org/2001/xml-events" xmlns:xlink="http://www.w3.org/1999/xlink"><defs /><rect fill="black" height="100%" width="100%" x="0" y="0" /><circle cx="75" cy="0" fill="white" r="1" /><circle cx="75" cy="1" fill="white" r="1" /><circle cx="74" cy="2" fill="white" r="1" /><circle cx="74" cy="3" fill="white" r="1" /><circle cx="73" cy="4" fill="white" r="1" /><circle cx="73" cy="5" fill="white" r="1" /><circle cx="73" cy="6" fill="white" r="1" /><circle cx="72" cy="7" fill="white" r="1" /><circle cx="72" cy="8" fill="white" r="1" /><circle cx="71" cy="9" fill="white" r="1" /><circle cx="71" cy="10" fill="white" r="1" /><circle cx="70" cy="11" fill="white" r="1" /><circle cx="70" cy="12" fill="white" r="1" /><circle cx="69" cy="13" fill="white" r="1" /><circle cx="69" cy="14" fill="white" r="1" /><circle cx="68" cy="15" fill="white" r="1" /><circle cx="68" cy="16" fill="white" r="1" /><circle cx="67" cy="17" fill="white" r="1" /><circle cx="67" cy="18" fill="white" r="1" /><circle cx="67" cy="19" fill="white" r="1" /><circle cx="66" cy="20" fill="white" r="1" /><circle cx="66" cy="21" fill="white" r="1" /><circle cx="65" cy="22" fill="white" r="1" /><circle cx="65" cy="23" fill="white" r="1" /><circle cx="64" cy="24" fill="white" r="1" /><circle cx="32" cy="25" fill="white" r="1" /><circle cx="64" cy="25" fill="white" r="1" /><circle cx="31" cy="26" fill="white" r="1" /><circle cx="33" cy="26" fill="white" r="1" /><circle cx="63" cy="26" fill="white" r="1" /><circle cx="30" cy="27" fill="white" r="1" /><circle cx="34" cy="27" fill="white" r="1" /><circle cx="63" cy="27" fill="white" r="1" /><circle cx="30" cy="28" fill="white" r="1" /><circle cx="34" cy="28" fill="white" r="1" /><circle cx="63" cy="28" fill="white" r="1" /><circle cx="30" cy="29" fill="white" r="1" /><circle cx="34" cy="29" fill="white" r="1" /><circle cx="62" cy="29" fill="white" r="1" /><circle cx="29" cy="30" fill="white" r="1" /><circle cx="34" cy="30" fill="white" r="1" /><circle cx="62" cy="30" fill="white" r="1" /><circle cx="29" cy="31" fill="white" r="1" /><circle cx="34" cy="31" fill="white" r="1" /><circle cx="61" cy="31" fill="white" r="1" /><circle cx="28" cy="32" fill="white" r="1" /><circle cx="35" cy="32" fill="white" r="1" /><circle cx="61" cy="32" fill="white" r="1" /><circle cx="78" cy="32" fill="white" r="1" /><circle cx="79" cy="32" fill="white" r="1" /><circle cx="80" cy="32" fill="white" r="1" /><circle cx="28" cy="33" fill="white" r="1" /><circle cx="35" cy="33" fill="white" r="1" /><circle cx="60" cy="33" fill="white" r="1" /><circle cx="78" cy="33" fill="white" r="1" /><circle cx="80" cy="33" fill="white" r="1" /><circle cx="28" cy="34" fill="white" r="1" /><circle cx="35" cy="34" fill="white" r="1" /><circle cx="60" cy="34" fill="white" r="1" /><circle cx="77" cy="34" fill="white" r="1" /><circle cx="78" cy="34" fill="white" r="1" /><circle cx="80" cy="34" fill="white" r="1" /><circle cx="28" cy="35" fill="white" r="1" /><circle cx="35" cy="35" fill="white" r="1" /><circle cx="60" cy="35" fill="white" r="1" /><circle cx="76" cy="35" fill="white" r="1" /><circle cx="77" cy="35" fill="white" r="1" /><circle cx="80" cy="35" fill="white" r="1" /><circle cx="27" cy="36" fill="white" r="1" /><circle cx="35" cy="36" fill="white" r="1" /><circle cx="59" cy="36" fill="white" r="1" /><circle cx="76" cy="36" fill="white" r="1" /><circle cx="80" cy="36" fill="white" r="1" /><circle cx="27" cy="37" fill="white" r="1" /><circle cx="35" cy="37" fill="white" r="1" /><circle cx="59" cy="37" fill="white" r="1" /><circle cx="75" cy="37" fill="white" r="1" /><circle cx="81" cy="37" fill="white" r="1" /><circle cx="27" cy="38" fill="white" r="1" /><circle cx="35" cy="38" fill="white" r="1" /><circle cx="58" cy="38" fill="white" r="1" /><circle cx="74" cy="38" fill="white" r="1" /><circle cx="75" cy="38" fill="white" r="1" /><circle cx="81" cy="38" fill="white" r="1" /><circle cx="27" cy="39" fill="white" r="1" /><circle cx="36" cy="39" fill="white" r="1" /><circle cx="58" cy="39" fill="white" r="1" /><circle cx="73" cy="39" fill="white" r="1" /><circle cx="74" cy="39" fill="white" r="1" /><circle cx="81" cy="39" fill="white" r="1" /><circle cx="27" cy="40" fill="white" r="1" /><circle cx="36" cy="40" fill="white" r="1" /><circle cx="58" cy="40" fill="white" r="1" /><circle cx="73" cy="40" fill="white" r="1" /><circle cx="81" cy="40" fill="white" r="1" /><circle cx="26" cy="41" fill="white" r="1" /><circle cx="36" cy="41" fill="white" r="1" /><circle cx="57" cy="41" fill="white" r="1" /><circle cx="72" cy="41" fill="white" r="1" /><circle cx="81" cy="41" fill="white" r="1" /><circle cx="26" cy="42" fill="white" r="1" /><circle cx="36" cy="42" fill="white" r="1" /><circle cx="57" cy="42" fill="white" r="1" /><circle cx="71" cy="42" fill="white" r="1" /><circle cx="72" cy="42" fill="white" r="1" /><circle cx="82" cy="42" fill="white" r="1" /><circle cx="26" cy="43" fill="white" r="1" /><circle cx="36" cy="43" fill="white" r="1" /><circle cx="57" cy="43" fill="white" r="1" /><circle cx="71" cy="43" fill="white" r="1" /><circle cx="82" cy="43" fill="white" r="1" /><circle cx="26" cy="44" fill="white" r="1" /><circle cx="36" cy="44" fill="white" r="1" /><circle cx="56" cy="44" fill="white" r="1" /><circle cx="70" cy="44" fill="white" r="1" /><circle cx="82" cy="44" fill="white" r="1" /><circle cx="26" cy="45" fill="white" r="1" /><circle cx="37" cy="45" fill="white" r="1" /><circle cx="56" cy="45" fill="white" r="1" /><circle cx="69" cy="45" fill="white" r="1" /><circle cx="70" cy="45" fill="white" r="1" /><circle cx="82" cy="45" fill="white" r="1" /><circle cx="26" cy="46" fill="white" r="1" /><circle cx="37" cy="46" fill="white" r="1" /><circle cx="55" cy="46" fill="white" r="1" /><circle cx="68" cy="46" fill="white" r="1" /><circle cx="69" cy="46" fill="white" r="1" /><circle cx="82" cy="46" fill="white" r="1" /><circle cx="26" cy="47" fill="white" r="1" /><circle cx="37" cy="47" fill="white" r="1" /><circle cx="55" cy="47" fill="white" r="1" /><circle cx="68" cy="47" fill="white" r="1" /><circle cx="82" cy="47" fill="white" r="1" /><circle cx="26" cy="48" fill="white" r="1" /><circle cx="37" cy="48" fill="white" r="1" /><circle cx="55" cy="48" fill="white" r="1" /><circle cx="67" cy="48" fill="white" r="1" /><circle cx="83" cy="48" fill="white" r="1" /><circle cx="25" cy="49" fill="white" r="1" /><circle cx="37" cy="49" fill="white" r="1" /><circle cx="55" cy="49" fill="white" r="1" /><circle cx="66" cy="49" fill="white" r="1" /><circle cx="67" cy="49" fill="white" r="1" /><circle cx="83" cy="49" fill="white" r="1" /><circle cx="25" cy="50" fill="white" r="1" /><circle cx="38" cy="50" fill="white" r="1" /><circle cx="54" cy="50" fill="white" r="1" /><circle cx="66" cy="50" fill="white" r="1" /><circle cx="83" cy="50" fill="white" r="1" /><circle cx="25" cy="51" fill="white" r="1" /><circle cx="38" cy="51" fill="white" r="1" /><circle cx="54" cy="51" fill="white" r="1" /><circle cx="65" cy="51" fill="white" r="1" /><circle cx="83" cy="51" fill="white" r="1" /><circle cx="25" cy="52" fill="white" r="1" /><circle cx="38" cy="52" fill="white" r="1" /><circle cx="54" cy="52" fill="white" r="1" /><circle cx="64" cy="52" fill="white" r="1" /><circle cx="65" cy="52" fill="white" r="1" /><circle cx="83" cy="52" fill="white" r="1" /><circle cx="25" cy="53" fill="white" r="1" /><circle cx="38" cy="53" fill="white" r="1" /><circle cx="53" cy="53" fill="white" r="1" /><circle cx="64" cy="53" fill="white" r="1" /><circle cx="84" cy="53" fill="white" r="1" /><circle cx="25" cy="54" fill="white" r="1" /><circle cx="39" cy="54" fill="white" r="1" /><circle cx="53" cy="54" fill="white" r="1" /><circle cx="63" cy="54" fill="white" r="1" /><circle cx="84" cy="54" fill="white" r="1" /><circle cx="25" cy="55" fill="white" r="1" /><circle cx="39" cy="55" fill="white" r="1" /><circle cx="53" cy="55" fill="white" r="1" /><circle cx="62" cy="55" fill="white" r="1" /><circle cx="63" cy="55" fill="white" r="1" /><circle cx="84" cy="55" fill="white" r="1" /><circle cx="0" cy="56" fill="white" r="1" /><circle cx="1" cy="56" fill="white" r="1" /><circle cx="25" cy="56" fill="white" r="1" /><circle cx="39" cy="56" fill="white" r="1" /><circle cx="53" cy="56" fill="white" r="1" /><circle cx="61" cy="56" fill="white" r="1" /><circle cx="62" cy="56" fill="white" r="1" /><circle cx="84" cy="56" fill="white" r="1" /><circle cx="2" cy="57" fill="white" r="1" /><circle cx="3" cy="57" fill="white" r="1" /><circle cx="25" cy="57" fill="white" r="1" /><circle cx="39" cy="57" fill="white" r="1" /><circle cx="52" cy="57" fill="white" r="1" /><circle cx="61" cy="57" fill="white" r="1" /><circle cx="84" cy="57" fill="white" r="1" /><circle cx="3" cy="58" fill="white" r="1" /><circle cx="4" cy="58" fill="white" r="1" /><circle cx="25" cy="58" fill="white" r="1" /><circle cx="40" cy="58" fill="white" r="1" /><circle cx="52" cy="58" fill="white" r="1" /><circle cx="60" cy="58" fill="white" r="1" /><circle cx="84" cy="58" fill="white" r="1" /><circle cx="4" cy="59" fill="white" r="1" /><circle cx="5" cy="59" fill="white" r="1" /><circle cx="24" cy="59" fill="white" r="1" /><circle cx="40" cy="59" fill="white" r="1" /><circle cx="52" cy="59" fill="white" r="1" /><circle cx="59" cy="59" fill="white" r="1" /><circle cx="60" cy="59" fill="white" r="1" /><circle cx="85" cy="59" fill="white" r="1" /><circle cx="5" cy="60" fill="white" r="1" /><circle cx="6" cy="60" fill="white" r="1" /><circle cx="24" cy="60" fill="white" r="1" /><circle cx="40" cy="60" fill="white" r="1" /><circle cx="52" cy="60" fill="white" r="1" /><circle cx="58" cy="60" fill="white" r="1" /><circle cx="59" cy="60" fill="white" r="1" /><circle cx="85" cy="60" fill="white" r="1" /><circle cx="7" cy="61" fill="white" r="1" /><circle cx="8" cy="61" fill="white" r="1" /><circle cx="24" cy="61" fill="white" r="1" /><circle cx="40" cy="61" fill="white" r="1" /><circle cx="52" cy="61" fill="white" r="1" /><circle cx="57" cy="61" fill="white" r="1" /><circle cx="58" cy="61" fill="white" r="1" /><circle cx="85" cy="61" fill="white" r="1" /><circle cx="8" cy="62" fill="white" r="1" /><circle cx="9" cy="62" fill="white" r="1" /><circle cx="24" cy="62" fill="white" r="1" /><circle cx="41" cy="62" fill="white" r="1" /><circle cx="53" cy="62" fill="white" r="1" /><circle cx="54" cy="62" fill="white" r="1" /><circle cx="55" cy="62" fill="white" r="1" /><circle cx="56" cy="62" fill="white" r="1" /><circle cx="57" cy="62" fill="white" r="1" /><circle cx="85" cy="62" fill="white" r="1" /><circle cx="10" cy="63" fill="white" r="1" /><circle cx="11" cy="63" fill="white" r="1" /><circle cx="24" cy="63" fill="white" r="1" /><circle cx="41" cy="63" fill="white" r="1" /><circle cx="85" cy="63" fill="white" r="1" /><circle cx="11" cy="64" fill="white" r="1" /><circle cx="12" cy="64" fill="white" r="1" /><circle cx="24" cy="64" fill="white" r="1" /><circle cx="41" cy="64" fill="white" r="1" /><circle cx="85" cy="64" fill="white" r="1" /><circle cx="13" cy="65" fill="white" r="1" /><circle cx="14" cy="65" fill="white" r="1" /><circle cx="24" cy="65" fill="white" r="1" /><circle cx="41" cy="65" fill="white" r="1" /><circle cx="86" cy="65" fill="white" r="1" /><circle cx="15" cy="66" fill="white" r="1" /><circle cx="16" cy="66" fill="white" r="1" /><circle cx="17" cy="66" fill="white" r="1" /><circle cx="24" cy="66" fill="white" r="1" /><circle cx="42" cy="66" fill="white" r="1" /><circle cx="86" cy="66" fill="white" r="1" /><circle cx="18" cy="67" fill="white" r="1" /><circle cx="19" cy="67" fill="white" r="1" /><circle cx="24" cy="67" fill="white" r="1" /><circle cx="42" cy="67" fill="white" r="1" /><circle cx="86" cy="67" fill="white" r="1" /><circle cx="20" cy="68" fill="white" r="1" /><circle cx="21" cy="68" fill="white" r="1" /><circle cx="22" cy="68" fill="white" r="1" /><circle cx="23" cy="68" fill="white" r="1" /><circle cx="24" cy="68" fill="white" r="1" /><circle cx="42" cy="68" fill="white" r="1" /><circle cx="86" cy="68" fill="white" r="1" /><circle cx="43" cy="69" fill="white" r="1" /><circle cx="86" cy="69" fill="white" r="1" /><circle cx="43" cy="70" fill="white" r="1" /><circle cx="86" cy="70" fill="white" r="1" /><circle cx="43" cy="71" fill="white" r="1" /><circle cx="87" cy="71" fill="white" r="1" /><circle cx="43" cy="72" fill="white" r="1" /><circle cx="87" cy="72" fill="white" r="1" /><circle cx="44" cy="73" fill="white" r="1" /><circle cx="87" cy="73" fill="white" r="1" /><circle cx="44" cy="74" fill="white" r="1" /><circle cx="45" cy="74" fill="white" r="1" /><circle cx="87" cy="74" fill="white" r="1" /><circle cx="45" cy="75" fill="white" r="1" /><circle cx="46" cy="75" fill="white" r="1" /><circle cx="87" cy="75" fill="white" r="1" /><circle cx="47" cy="76" fill="white" r="1" /><circle cx="48" cy="76" fill="white" r="1" /><circle cx="49" cy="76" fill="white" r="1" /><circle cx="87" cy="76" fill="white" r="1" /><circle cx="50" cy="77" fill="white" r="1" /><circle cx="51" cy="77" fill="white" r="1" /><circle cx="52" cy="77" fill="white" r="1" /><circle cx="88" cy="77" fill="white" r="1" /><circle cx="53" cy="78" fill="white" r="1" /><circle cx="54" cy="78" fill="white" r="1" /><circle cx="55" cy="78" fill="white" r="1" /><circle cx="56" cy="78" fill="white" r="1" /><circle cx="88" cy="78" fill="white" r="1" /><circle cx="57" cy="79" fill="white" r="1" /><circle cx="58" cy="79" fill="white" r="1" /><circle cx="59" cy="79" fill="white" r="1" /><circle cx="60" cy="79" fill="white" r="1" /><circle cx="88" cy="79" fill="white" r="1" /><circle cx="61" cy="80" fill="white" r="1" /><circle cx="62" cy="80" fill="white" r="1" /><circle cx="63" cy="80" fill="white" r="1" /><circle cx="64" cy="80" fill="white" r="1" /><circle cx="88" cy="80" fill="white" r="1" /><circle cx="65" cy="81" fill="white" r="1" /><circle cx="66" cy="81" fill="white" r="1" /><circle cx="67" cy="81" fill="white" r="1" /><circle cx="68" cy="81" fill="white" r="1" /><circle cx="88" cy="81" fill="white" r="1" /><circle cx="69" cy="82" fill="white" r="1" /><circle cx="70" cy="82" fill="white" r="1" /><circle cx="71" cy="82" fill="white" r="1" /><circle cx="72" cy="82" fill="white" r="1" /><circle cx="88" cy="82" fill="white" r="1" /><circle cx="73" cy="83" fill="white" r="1" /><circle cx="74" cy="83" fill="white" r="1" /><circle cx="75" cy="83" fill="white" r="1" /><circle cx="76" cy="83" fill="white" r="1" /><circle cx="77" cy="83" fill="white" r="1" /><circle cx="89" cy="83" fill="white" r="1" /><circle cx="78" cy="84" fill="white" r="1" /><circle cx="79" cy="84" fill="white" r="1" /><circle cx="80" cy="84" fill="white" r="1" /><circle cx="81" cy="84" fill="white" r="1" /><circle cx="82" cy="84" fill="white" r="1" /><circle cx="83" cy="84" fill="white" r="1" /><circle cx="89" cy="84" fill="white" r="1" /><circle cx="84" cy="85" fill="white" r="1" /><circle cx="85" cy="85" fill="white" r="1" /><circle cx="86" cy="85" fill="white" r="1" /><circle cx="87" cy="85" fill="white" r="1" /><circle cx="88" cy="85" fill="white" r="1" /><circle cx="89" cy="85" fill="white" r="1" /></svg>