<?xml version="1.0" encoding="utf-8" ?>
<svg baseProfile="tiny" height="256" version="1.2" width="256" xmlns="http://www.w3.org/2000/svg" xmlns:ev="http://www.w3.org/2001/xml-events" xmlns:xlink="http://www.w3.org/1999/xlink"><defs /><rect fill="black" height="256" width="256" x="0" y="0" /><line stroke="white" stroke-width="1" x1="51" x2="52" y1="237" y2="237" /><line stroke="white" stroke-width="1" x1="51" x2="52" y1="231" y2="231" /><line stroke="white" stroke-width="1" x1="45" x2="46" y1="230" y2="230" /><line stroke="white" stroke-width="1" x1="180" x2="181" y1="226" y2="226" /><line stroke="white" stroke-width="1" x1="185" x2="186" y1="219" y2="219" /><line stroke="white" stroke-width="1" x1="16" x2="17" y1="217" y2="217" /><line stroke="white" stroke-width="1" x1="17" x2="18" y1="218" y2="218" /><line stroke="white" stroke-width="1" x1="188" x2="189" y1="169" y2="169" /><line stroke="white" stroke-width="1" x1="152" x2="153" y1="150" y2="150" /><line stroke="white" stroke-width="1" x1="54" x2="55" y1="120" y2="120" /><line stroke="white" stroke-width="1" x1="52" x2="53" y1="119" y2="119" /><line stroke="white" stroke-width="1" x1="76" x2="77" y1="101" y2="101" /><line stroke="white" stroke-width="1" x1="113" x2="114" y1="88" y2="88" /><line stroke="white" stroke-width="1" x1="254" x2="255" y1="86" y2="86" /><line stroke="white" stroke-width="1" x1="246" x2="247" y1="68" y2="68" /><line stroke="white" stroke-width="1" x1="247" x2="248" y1="68" y2="68" /><line stroke="white" stroke-width="1" x1="248" x2="249" y1="69" y2="69" /><line stroke="white" stroke-width="1" x1="249" x2="250" y1="69" y2="69" /><line stroke="white" stroke-width="1" x1="250" x2="251" y1="69" y2="69" /><line stroke="white" stroke-width="1" x1="251" x2="252" y1="69" y2="69" /><line stroke="white" stroke-width="1" x1="252" x2="253" y1="70" y2="70" /><line stroke="white" stroke-width="1" x1="125" x2="126" y1="21" y2="21" /><line stroke="white" stroke-width="1" x1="127" x2="128" y1="10" y2="10" /><line stroke="white" stroke-width="1" x1="128" x2="129" y1="11" y2="11" /><line stroke="white" stroke-width="1" x1="129" x2="130" y1="12" y2="12" /><line stroke="white" stroke-width="1" x1="129" x2="130" y1="13" y2="13" /><line stroke="white" stroke-width="1" x1="129" x2="130" y1="14" y2="14" /><line stroke="white" stroke-width="1" x1="128" x2="129" y1="15" y2="15" /><line stroke="white" stroke-width="1" x1="120" x2="121" y1="10" y2="10" /><line stroke="white" stroke-width="1" x1="112" x2="113" y1="4" y2="4" /><line stroke="white" stroke-width="1" x1="113" x2="114" y1="5" y2="5" /><line stroke="white" stroke-width="1" x1="106" x2="107" y1="3" y2="3" /><line stroke="white" stroke-width="1" x1="107" x2="108" y1="3" y2="3" /><line stroke="white" stroke-width="1" x1="108" x2="109" y1="3" y2="3" /><line stroke="white" stroke-width="1" x1="109" x2="110" y1="3" y2="3" /><line stroke="white" stroke-width="1" x1="98" x2="99" y1="3" y2="3" /><line stroke="white" stroke-width="1" x1="99" x2="100" y1="3" y2="3" /><line stroke="white" stroke-width="1" x1="101" x2="102" y1="2" y2="2" /><line stroke="white" stroke-width="1" x1="102" x2="103" y1="2" y2="2" /><line stroke="white" stroke-width="1" x1="103" x2="104" y1="2" y2="2" /><line stroke="white" stroke-width="1" x1="104" x2="105" y1="2" y2="2" /></svg>