<?xml version="1.0" encoding="utf-8" ?>
<svg baseProfile="tiny" height="256" version="1.2" width="256" xmlns="http://www.w3.org/2000/svg" xmlns:ev="http://www.w3.org/2001/xml-events" xmlns:xlink="http://www.w3.org/1999/xlink"><defs /><rect fill="black" height="256" width="256" x="0" y="0" /><line stroke="white" stroke-width="1" x1="248" x2="249" y1="139" y2="139" /><line stroke="white" stroke-width="1" x1="248" x2="249" y1="140" y2="140" /><line stroke="white" stroke-width="1" x1="0" x2="1" y1="124" y2="124" /><line stroke="white" stroke-width="1" x1="255" x2="256" y1="121" y2="121" /><line stroke="white" stroke-width="1" x1="249" x2="250" y1="109" y2="109" /><line stroke="white" stroke-width="1" x1="255" x2="256" y1="104" y2="104" /><line stroke="white" stroke-width="1" x1="184" x2="185" y1="99" y2="99" /><line stroke="white" stroke-width="1" x1="185" x2="186" y1="99" y2="99" /><line stroke="white" stroke-width="1" x1="182" x2="183" y1="97" y2="97" /><line stroke="white" stroke-width="1" x1="181" x2="182" y1="98" y2="98" /><line stroke="white" stroke-width="1" x1="180" x2="181" y1="99" y2="99" /><line stroke="white" stroke-width="1" x1="181" x2="182" y1="99" y2="99" /><line stroke="white" stroke-width="1" x1="176" x2="177" y1="93" y2="93" /><line stroke="white" stroke-width="1" x1="174" x2="175" y1="92" y2="92" /><line stroke="white" stroke-width="1" x1="173" x2="174" y1="93" y2="93" /><line stroke="white" stroke-width="1" x1="174" x2="175" y1="93" y2="93" /><line stroke="white" stroke-width="1" x1="173" x2="174" y1="94" y2="94" /><line stroke="white" stroke-width="1" x1="174" x2="175" y1="94" y2="94" /><line stroke="white" stroke-width="1" x1="171" x2="172" y1="95" y2="95" /><line stroke="white" stroke-width="1" x1="172" x2="173" y1="95" y2="95" /><line stroke="white" stroke-width="1" x1="173" x2="174" y1="95" y2="95" /><line stroke="white" stroke-width="1" x1="174" x2="175" y1="95" y2="95" /><line stroke="white" stroke-width="1" x1="171" x2="172" y1="96" y2="96" /><line stroke="white" stroke-width="1" x1="172" x2="173" y1="96" y2="96" /><line stroke="white" stroke-width="1" x1="173" x2="174" y1="96" y2="96" /><line stroke="white" stroke-width="1" x1="174" x2="175" y1="96" y2="96" /><line stroke="white" stroke-width="1" x1="171" x2="172" y1="97" y2="97" /><line stroke="white" stroke-width="1" x1="172" x2="173" y1="97" y2="97" /><line stroke="white" stroke-width="1" x1="173" x2="174" y1="97" y2="97" /><line stroke="white" stroke-width="1" x1="174" x2="175" y1="97" y2="97" /><line stroke="white" stroke-width="1" x1="172" x2="173" y1="98" y2="98" /><line stroke="white" stroke-width="1" x1="173" x2="174" y1="98" y2="98" /><line stroke="white" stroke-width="1" x1="238" x2="239" y1="70" y2="70" /><line stroke="white" stroke-width="1" x1="239" x2="240" y1="68" y2="68" /><line stroke="white" stroke-width="1" x1="141" x2="142" y1="67" y2="67" /><line stroke="white" stroke-width="1" x1="142" x2="143" y1="67" y2="67" /><line stroke="white" stroke-width="1" x1="140" x2="141" y1="68" y2="68" /><line stroke="white" stroke-width="1" x1="141" x2="142" y1="68" y2="68" /><line stroke="white" stroke-width="1" x1="142" x2="143" y1="68" y2="68" /><line stroke="white" stroke-width="1" x1="143" x2="144" y1="68" y2="68" /><line stroke="white" stroke-width="1" x1="140" x2="141" y1="69" y2="69" /><line stroke="white" stroke-width="1" x1="141" x2="142" y1="69" y2="69" /><line stroke="white" stroke-width="1" x1="142" x2="143" y1="69" y2="69" /><line stroke="white" stroke-width="1" x1="143" x2="144" y1="69" y2="69" /><line stroke="white" stroke-width="1" x1="139" x2="140" y1="70" y2="70" /><line stroke="white" stroke-width="1" x1="141" x2="142" y1="70" y2="70" /><line stroke="white" stroke-width="1" x1="142" x2="143" y1="70" y2="70" /><line stroke="white" stroke-width="1" x1="143" x2="144" y1="70" y2="70" /><line stroke="white" stroke-width="1" x1="141" x2="142" y1="71" y2="71" /><line stroke="white" stroke-width="1" x1="142" x2="143" y1="71" y2="71" /><line stroke="white" stroke-width="1" x1="143" x2="144" y1="71" y2="71" /><line stroke="white" stroke-width="1" x1="141" x2="142" y1="72" y2="72" /><line stroke="white" stroke-width="1" x1="142" x2="143" y1="72" y2="72" /><line stroke="white" stroke-width="1" x1="143" x2="144" y1="72" y2="72" /><line stroke="white" stroke-width="1" x1="141" x2="142" y1="73" y2="73" /><line stroke="white" stroke-width="1" x1="142" x2="143" y1="73" y2="73" /><line stroke="white" stroke-width="1" x1="143" x2="144" y1="73" y2="73" /><line stroke="white" stroke-width="1" x1="141" x2="142" y1="74" y2="74" /><line stroke="white" stroke-width="1" x1="142" x2="143" y1="74" y2="74" /><line stroke="white" stroke-width="1" x1="143" x2="144" y1="74" y2="74" /><line stroke="white" stroke-width="1" x1="141" x2="142" y1="75" y2="75" /><line stroke="white" stroke-width="1" x1="142" x2="143" y1="75" y2="75" /><line stroke="white" stroke-width="1" x1="143" x2="144" y1="75" y2="75" /><line stroke="white" stroke-width="1" x1="141" x2="142" y1="76" y2="76" /><line stroke="white" stroke-width="1" x1="142" x2="143" y1="76" y2="76" /><line stroke="white" stroke-width="1" x1="188" x2="189" y1="59" y2="59" /><line stroke="white" stroke-width="1" x1="227" x2="228" y1="58" y2="58" /><line stroke="white" stroke-width="1" x1="224" x2="225" y1="58" y2="58" /><line stroke="white" stroke-width="1" x1="190" x2="191" y1="57" y2="57" /><line stroke="white" stroke-width="1" x1="191" x2="192" y1="57" y2="57" /><line stroke="white" stroke-width="1" x1="192" x2="193" y1="57" y2="57" /><line stroke="white" stroke-width="1" x1="191" x2="192" y1="58" y2="58" /><line stroke="white" stroke-width="1" x1="172" x2="173" y1="50" y2="50" /><line stroke="white" stroke-width="1" x1="170" x2="171" y1="51" y2="51" /><line stroke="white" stroke-width="1" x1="171" x2="172" y1="51" y2="51" /><line stroke="white" stroke-width="1" x1="172" x2="173" y1="51" y2="51" /><line stroke="white" stroke-width="1" x1="171" x2="172" y1="52" y2="52" /><line stroke="white" stroke-width="1" x1="217" x2="218" y1="49" y2="49" /><line stroke="white" stroke-width="1" x1="218" x2="219" y1="49" y2="49" /><line stroke="white" stroke-width="1" x1="162" x2="163" y1="47" y2="47" /><line stroke="white" stroke-width="1" x1="163" x2="164" y1="47" y2="47" /><line stroke="white" stroke-width="1" x1="195" x2="196" y1="45" y2="45" /><line stroke="white" stroke-width="1" x1="153" x2="154" y1="45" y2="45" /><line stroke="white" stroke-width="1" x1="154" x2="155" y1="45" y2="45" /><line stroke="white" stroke-width="1" x1="154" x2="155" y1="46" y2="46" /><line stroke="white" stroke-width="1" x1="197" x2="198" y1="43" y2="43" /><line stroke="white" stroke-width="1" x1="165" x2="166" y1="42" y2="42" /><line stroke="white" stroke-width="1" x1="157" x2="158" y1="42" y2="42" /><line stroke="white" stroke-width="1" x1="158" x2="159" y1="42" y2="42" /><line stroke="white" stroke-width="1" x1="169" x2="170" y1="40" y2="40" /><line stroke="white" stroke-width="1" x1="234" x2="235" y1="39" y2="39" /><line stroke="white" stroke-width="1" x1="195" x2="196" y1="39" y2="39" /><line stroke="white" stroke-width="1" x1="166" x2="167" y1="39" y2="39" /><line stroke="white" stroke-width="1" x1="165" x2="166" y1="40" y2="40" /><line stroke="white" stroke-width="1" x1="163" x2="164" y1="39" y2="39" /><line stroke="white" stroke-width="1" x1="163" x2="164" y1="40" y2="40" /><line stroke="white" stroke-width="1" x1="163" x2="164" y1="41" y2="41" /><line stroke="white" stroke-width="1" x1="246" x2="247" y1="37" y2="37" /><line stroke="white" stroke-width="1" x1="239" x2="240" y1="38" y2="38" /><line stroke="white" stroke-width="1" x1="240" x2="241" y1="38" y2="38" /><line stroke="white" stroke-width="1" x1="241" x2="242" y1="38" y2="38" /><line stroke="white" stroke-width="1" x1="242" x2="243" y1="38" y2="38" /><line stroke="white" stroke-width="1" x1="243" x2="244" y1="38" y2="38" /><line stroke="white" stroke-width="1" x1="244" x2="245" y1="38" y2="38" /><line stroke="white" stroke-width="1" x1="245" x2="246" y1="38" y2="38" /><line stroke="white" stroke-width="1" x1="246" x2="247" y1="38" y2="38" /><line stroke="white" stroke-width="1" x1="238" x2="239" y1="39" y2="39" /><line stroke="white" stroke-width="1" x1="239" x2="240" y1="39" y2="39" /><line stroke="white" stroke-width="1" x1="240" x2="241" y1="39" y2="39" /><line stroke="white" stroke-width="1" x1="241" x2="242" y1="39" y2="39" /><line stroke="white" stroke-width="1" x1="242" x2="243" y1="39" y2="39" /><line stroke="white" stroke-width="1" x1="243" x2="244" y1="39" y2="39" /><line stroke="white" stroke-width="1" x1="237" x2="238" y1="40" y2="40" /><line stroke="white" stroke-width="1" x1="238" x2="239" y1="40" y2="40" /><line stroke="white" stroke-width="1" x1="241" x2="242" y1="40" y2="40" /><line stroke="white" stroke-width="1" x1="236" x2="237" y1="41" y2="41" /><line stroke="white" stroke-width="1" x1="242" x2="243" y1="41" y2="41" /><line stroke="white" stroke-width="1" x1="243" x2="244" y1="41" y2="41" /><line stroke="white" stroke-width="1" x1="235" x2="236" y1="42" y2="42" /><line stroke="white" stroke-width="1" x1="236" x2="237" y1="42" y2="42" /><line stroke="white" stroke-width="1" x1="231" x2="232" y1="43" y2="43" /><line stroke="white" stroke-width="1" x1="232" x2="233" y1="43" y2="43" /><line stroke="white" stroke-width="1" x1="233" x2="234" y1="43" y2="43" /><line stroke="white" stroke-width="1" x1="234" x2="235" y1="43" y2="43" /><line stroke="white" stroke-width="1" x1="235" x2="236" y1="43" y2="43" /><line stroke="white" stroke-width="1" x1="232" x2="233" y1="44" y2="44" /><line stroke="white" stroke-width="1" x1="233" x2="234" y1="44" y2="44" /><line stroke="white" stroke-width="1" x1="192" x2="193" y1="37" y2="37" /><line stroke="white" stroke-width="1" x1="164" x2="165" y1="37" y2="37" /><line stroke="white" stroke-width="1" x1="165" x2="166" y1="37" y2="37" /><line stroke="white" stroke-width="1" x1="147" x2="148" y1="37" y2="37" /><line stroke="white" stroke-width="1" x1="146" x2="147" y1="38" y2="38" /><line stroke="white" stroke-width="1" x1="245" x2="246" y1="34" y2="34" /><line stroke="white" stroke-width="1" x1="157" x2="158" y1="34" y2="34" /><line stroke="white" stroke-width="1" x1="158" x2="159" y1="34" y2="34" /><line stroke="white" stroke-width="1" x1="158" x2="159" y1="35" y2="35" /><line stroke="white" stroke-width="1" x1="146" x2="147" y1="33" y2="33" /><line stroke="white" stroke-width="1" x1="145" x2="146" y1="34" y2="34" /><line stroke="white" stroke-width="1" x1="146" x2="147" y1="34" y2="34" /><line stroke="white" stroke-width="1" x1="214" x2="215" y1="30" y2="30" /><line stroke="white" stroke-width="1" x1="137" x2="138" y1="30" y2="30" /><line stroke="white" stroke-width="1" x1="237" x2="238" y1="29" y2="29" /><line stroke="white" stroke-width="1" x1="181" x2="182" y1="29" y2="29" /><line stroke="white" stroke-width="1" x1="182" x2="183" y1="29" y2="29" /><line stroke="white" stroke-width="1" x1="140" x2="141" y1="28" y2="28" /><line stroke="white" stroke-width="1" x1="133" x2="134" y1="28" y2="28" /><line stroke="white" stroke-width="1" x1="132" x2="133" y1="29" y2="29" /><line stroke="white" stroke-width="1" x1="133" x2="134" y1="29" y2="29" /><line stroke="white" stroke-width="1" x1="244" x2="245" y1="27" y2="27" /><line stroke="white" stroke-width="1" x1="228" x2="229" y1="27" y2="27" /><line stroke="white" stroke-width="1" x1="229" x2="230" y1="27" y2="27" /><line stroke="white" stroke-width="1" x1="230" x2="231" y1="27" y2="27" /><line stroke="white" stroke-width="1" x1="164" x2="165" y1="26" y2="26" /><line stroke="white" stroke-width="1" x1="165" x2="166" y1="26" y2="26" /><line stroke="white" stroke-width="1" x1="166" x2="167" y1="26" y2="26" /><line stroke="white" stroke-width="1" x1="167" x2="168" y1="27" y2="27" /><line stroke="white" stroke-width="1" x1="174" x2="175" y1="25" y2="25" /><line stroke="white" stroke-width="1" x1="175" x2="176" y1="25" y2="25" /><line stroke="white" stroke-width="1" x1="132" x2="133" y1="25" y2="25" /><line stroke="white" stroke-width="1" x1="208" x2="209" y1="24" y2="24" /><line stroke="white" stroke-width="1" x1="228" x2="229" y1="22" y2="22" /><line stroke="white" stroke-width="1" x1="220" x2="221" y1="22" y2="22" /><line stroke="white" stroke-width="1" x1="221" x2="222" y1="22" y2="22" /><line stroke="white" stroke-width="1" x1="219" x2="220" y1="23" y2="23" /><line stroke="white" stroke-width="1" x1="220" x2="221" y1="23" y2="23" /><line stroke="white" stroke-width="1" x1="221" x2="222" y1="23" y2="23" /><line stroke="white" stroke-width="1" x1="222" x2="223" y1="23" y2="23" /><line stroke="white" stroke-width="1" x1="222" x2="223" y1="24" y2="24" /><line stroke="white" stroke-width="1" x1="223" x2="224" y1="24" y2="24" /><line stroke="white" stroke-width="1" x1="230" x2="231" y1="21" y2="21" /><line stroke="white" stroke-width="1" x1="231" x2="232" y1="21" y2="21" /><line stroke="white" stroke-width="1" x1="231" x2="232" y1="22" y2="22" /><line stroke="white" stroke-width="1" x1="231" x2="232" y1="23" y2="23" /><line stroke="white" stroke-width="1" x1="232" x2="233" y1="23" y2="23" /><line stroke="white" stroke-width="1" x1="233" x2="234" y1="23" y2="23" /><line stroke="white" stroke-width="1" x1="191" x2="192" y1="20" y2="20" /><line stroke="white" stroke-width="1" x1="188" x2="189" y1="21" y2="21" /><line stroke="white" stroke-width="1" x1="189" x2="190" y1="21" y2="21" /><line stroke="white" stroke-width="1" x1="190" x2="191" y1="21" y2="21" /><line stroke="white" stroke-width="1" x1="188" x2="189" y1="22" y2="22" /><line stroke="white" stroke-width="1" x1="189" x2="190" y1="22" y2="22" /><line stroke="white" stroke-width="1" x1="194" x2="195" y1="19" y2="19" /><line stroke="white" stroke-width="1" x1="170" x2="171" y1="17" y2="17" /><line stroke="white" stroke-width="1" x1="167" x2="168" y1="17" y2="17" /><line stroke="white" stroke-width="1" x1="215" x2="216" y1="10" y2="10" /><line stroke="white" stroke-width="1" x1="214" x2="215" y1="11" y2="11" /><line stroke="white" stroke-width="1" x1="224" x2="225" y1="8" y2="8" /><line stroke="white" stroke-width="1" x1="184" x2="185" y1="7" y2="7" /></svg>