<?xml version="1.0" encoding="utf-8" ?>
<svg baseProfile="tiny" height="100%" version="1.2" width="100%" xmlns="http://www.w3.org/2000/svg" xmlns:ev="http://www.w3.org/2001/xml-events" xmlns:xlink="http://www.w3.org/1999/xlink"><defs /><rect fill="black" height="100%" width="100%" x="0" y="0" /><circle cx="240" cy="212" fill="white" r="1" /><circle cx="240" cy="214" fill="white" r="1" /><circle cx="209" cy="237" fill="white" r="1" /><circle cx="210" cy="237" fill="white" r="1" /><circle cx="211" cy="237" fill="white" r="1" /><circle cx="209" cy="238" fill="white" r="1" /><circle cx="210" cy="239" fill="white" r="1" /><circle cx="212" cy="239" fill="white" r="1" /><circle cx="199" cy="240" fill="white" r="1" /><circle cx="210" cy="240" fill="white" r="1" /><circle cx="212" cy="240" fill="white" r="1" /><circle cx="213" cy="240" fill="white" r="1" /><circle cx="214" cy="240" fill="white" r="1" /><circle cx="199" cy="241" fill="white" r="1" /><circle cx="210" cy="241" fill="white" r="1" /><circle cx="215" cy="241" fill="white" r="1" /><circle cx="199" cy="242" fill="white" r="1" /><circle cx="203" cy="242" fill="white" r="1" /><circle cx="211" cy="242" fill="white" r="1" /><circle cx="212" cy="242" fill="white" r="1" /><circle cx="215" cy="242" fill="white" r="1" /><circle cx="217" cy="242" fill="white" r="1" /><circle cx="199" cy="243" fill="white" r="1" /><circle cx="202" cy="243" fill="white" r="1" /><circle cx="212" cy="243" fill="white" r="1" /><circle cx="217" cy="243" fill="white" r="1" /><circle cx="199" cy="244" fill="white" r="1" /><circle cx="202" cy="244" fill="white" r="1" /><circle cx="213" cy="244" fill="white" r="1" /><circle cx="214" cy="244" fill="white" r="1" /><circle cx="215" cy="244" fill="white" r="1" /><circle cx="216" cy="244" fill="white" r="1" /><circle cx="217" cy="244" fill="white" r="1" /><circle cx="199" cy="245" fill="white" r="1" /><circle cx="202" cy="245" fill="white" r="1" /><circle cx="199" cy="246" fill="white" r="1" /><circle cx="198" cy="247" fill="white" r="1" /><circle cx="199" cy="247" fill="white" r="1" /><circle cx="197" cy="248" fill="white" r="1" /><circle cx="196" cy="249" fill="white" r="1" /><circle cx="199" cy="249" fill="white" r="1" /><circle cx="172" cy="250" fill="white" r="1" /><circle cx="173" cy="250" fill="white" r="1" /><circle cx="174" cy="250" fill="white" r="1" /><circle cx="175" cy="250" fill="white" r="1" /><circle cx="176" cy="250" fill="white" r="1" /><circle cx="177" cy="250" fill="white" r="1" /><circle cx="178" cy="250" fill="white" r="1" /><circle cx="179" cy="250" fill="white" r="1" /><circle cx="180" cy="250" fill="white" r="1" /><circle cx="181" cy="250" fill="white" r="1" /><circle cx="196" cy="250" fill="white" r="1" /><circle cx="199" cy="250" fill="white" r="1" /><circle cx="182" cy="251" fill="white" r="1" /><circle cx="183" cy="251" fill="white" r="1" /><circle cx="184" cy="251" fill="white" r="1" /><circle cx="185" cy="251" fill="white" r="1" /><circle cx="186" cy="251" fill="white" r="1" /><circle cx="187" cy="251" fill="white" r="1" /><circle cx="188" cy="251" fill="white" r="1" /><circle cx="189" cy="251" fill="white" r="1" /><circle cx="190" cy="251" fill="white" r="1" /><circle cx="191" cy="251" fill="white" r="1" /><circle cx="192" cy="251" fill="white" r="1" /><circle cx="193" cy="251" fill="white" r="1" /><circle cx="194" cy="251" fill="white" r="1" /><circle cx="195" cy="251" fill="white" r="1" /><circle cx="196" cy="251" fill="white" r="1" /><circle cx="199" cy="251" fill="white" r="1" /><circle cx="174" cy="252" fill="white" r="1" /><circle cx="175" cy="252" fill="white" r="1" /><circle cx="176" cy="252" fill="white" r="1" /><circle cx="177" cy="252" fill="white" r="1" /><circle cx="178" cy="252" fill="white" r="1" /><circle cx="198" cy="252" fill="white" r="1" /><circle cx="197" cy="253" fill="white" r="1" /><circle cx="198" cy="253" fill="white" r="1" /><circle cx="182" cy="254" fill="white" r="1" /><circle cx="183" cy="254" fill="white" r="1" /><circle cx="184" cy="254" fill="white" r="1" /><circle cx="185" cy="254" fill="white" r="1" /><circle cx="186" cy="254" fill="white" r="1" /><circle cx="187" cy="254" fill="white" r="1" /><circle cx="188" cy="254" fill="white" r="1" /><circle cx="189" cy="254" fill="white" r="1" /><circle cx="190" cy="254" fill="white" r="1" /><circle cx="191" cy="254" fill="white" r="1" /><circle cx="192" cy="254" fill="white" r="1" /><circle cx="193" cy="254" fill="white" r="1" /><circle cx="194" cy="254" fill="white" r="1" /><circle cx="195" cy="254" fill="white" r="1" /><circle cx="196" cy="254" fill="white" r="1" /><circle cx="197" cy="254" fill="white" r="1" /><circle cx="175" cy="255" fill="white" r="1" /><circle cx="176" cy="255" fill="white" r="1" /><circle cx="177" cy="255" fill="white" r="1" /><circle cx="178" cy="255" fill="white" r="1" /><circle cx="179" cy="255" fill="white" r="1" /><circle cx="180" cy="255" fill="white" r="1" /><circle cx="181" cy="255" fill="white" r="1" /><circle cx="194" cy="260" fill="white" r="1" /><circle cx="195" cy="260" fill="white" r="1" /><circle cx="193" cy="261" fill="white" r="1" /><circle cx="196" cy="261" fill="white" r="1" /><circle cx="192" cy="262" fill="white" r="1" /><circle cx="196" cy="262" fill="white" r="1" /><circle cx="191" cy="263" fill="white" r="1" /><circle cx="193" cy="263" fill="white" r="1" /><circle cx="195" cy="263" fill="white" r="1" /><circle cx="196" cy="263" fill="white" r="1" /><circle cx="190" cy="264" fill="white" r="1" /><circle cx="193" cy="264" fill="white" r="1" /><circle cx="195" cy="264" fill="white" r="1" /><circle cx="189" cy="265" fill="white" r="1" /><circle cx="192" cy="265" fill="white" r="1" /><circle cx="200" cy="265" fill="white" r="1" /><circle cx="191" cy="266" fill="white" r="1" /><circle cx="200" cy="266" fill="white" r="1" /><circle cx="194" cy="267" fill="white" r="1" /><circle cx="193" cy="268" fill="white" r="1" /><circle cx="139" cy="298" fill="white" r="1" /><circle cx="140" cy="298" fill="white" r="1" /><circle cx="141" cy="298" fill="white" r="1" /><circle cx="135" cy="299" fill="white" r="1" /><circle cx="136" cy="299" fill="white" r="1" /><circle cx="426" cy="324" fill="white" r="1" /><circle cx="427" cy="324" fill="white" r="1" /><circle cx="426" cy="325" fill="white" r="1" /><circle cx="429" cy="325" fill="white" r="1" /><circle cx="426" cy="326" fill="white" r="1" /><circle cx="430" cy="326" fill="white" r="1" /><circle cx="431" cy="326" fill="white" r="1" /><circle cx="432" cy="326" fill="white" r="1" /><circle cx="421" cy="327" fill="white" r="1" /><circle cx="422" cy="327" fill="white" r="1" /><circle cx="428" cy="327" fill="white" r="1" /><circle cx="433" cy="327" fill="white" r="1" /><circle cx="434" cy="327" fill="white" r="1" /><circle cx="435" cy="327" fill="white" r="1" /><circle cx="419" cy="328" fill="white" r="1" /><circle cx="420" cy="328" fill="white" r="1" /><circle cx="423" cy="328" fill="white" r="1" /><circle cx="424" cy="328" fill="white" r="1" /><circle cx="425" cy="328" fill="white" r="1" /><circle cx="426" cy="328" fill="white" r="1" /><circle cx="428" cy="328" fill="white" r="1" /><circle cx="436" cy="328" fill="white" r="1" /><circle cx="437" cy="328" fill="white" r="1" /><circle cx="418" cy="329" fill="white" r="1" /><circle cx="419" cy="329" fill="white" r="1" /><circle cx="438" cy="329" fill="white" r="1" /><circle cx="439" cy="329" fill="white" r="1" /><circle cx="406" cy="330" fill="white" r="1" /><circle cx="407" cy="330" fill="white" r="1" /><circle cx="408" cy="330" fill="white" r="1" /><circle cx="409" cy="330" fill="white" r="1" /><circle cx="410" cy="330" fill="white" r="1" /><circle cx="411" cy="330" fill="white" r="1" /><circle cx="412" cy="330" fill="white" r="1" /><circle cx="413" cy="330" fill="white" r="1" /><circle cx="414" cy="330" fill="white" r="1" /><circle cx="415" cy="330" fill="white" r="1" /><circle cx="416" cy="330" fill="white" r="1" /><circle cx="417" cy="330" fill="white" r="1" /><circle cx="439" cy="330" fill="white" r="1" /><circle cx="440" cy="330" fill="white" r="1" /><circle cx="441" cy="330" fill="white" r="1" /><circle cx="442" cy="330" fill="white" r="1" /><circle cx="443" cy="330" fill="white" r="1" /><circle cx="437" cy="331" fill="white" r="1" /><circle cx="438" cy="331" fill="white" r="1" /><circle cx="444" cy="331" fill="white" r="1" /><circle cx="445" cy="331" fill="white" r="1" /><circle cx="406" cy="332" fill="white" r="1" /><circle cx="407" cy="332" fill="white" r="1" /><circle cx="408" cy="332" fill="white" r="1" /><circle cx="445" cy="332" fill="white" r="1" /><circle cx="446" cy="332" fill="white" r="1" /><circle cx="408" cy="333" fill="white" r="1" /><circle cx="446" cy="333" fill="white" r="1" /><circle cx="447" cy="333" fill="white" r="1" /><circle cx="401" cy="334" fill="white" r="1" /><circle cx="402" cy="334" fill="white" r="1" /><circle cx="403" cy="334" fill="white" r="1" /><circle cx="404" cy="334" fill="white" r="1" /><circle cx="405" cy="334" fill="white" r="1" /><circle cx="406" cy="334" fill="white" r="1" /><circle cx="407" cy="334" fill="white" r="1" /><circle cx="408" cy="334" fill="white" r="1" /><circle cx="447" cy="334" fill="white" r="1" /><circle cx="448" cy="334" fill="white" r="1" /><circle cx="398" cy="335" fill="white" r="1" /><circle cx="399" cy="335" fill="white" r="1" /><circle cx="400" cy="335" fill="white" r="1" /><circle cx="448" cy="335" fill="white" r="1" /><circle cx="449" cy="335" fill="white" r="1" /><circle cx="397" cy="336" fill="white" r="1" /><circle cx="450" cy="336" fill="white" r="1" /><circle cx="393" cy="337" fill="white" r="1" /><circle cx="394" cy="337" fill="white" r="1" /><circle cx="395" cy="337" fill="white" r="1" /><circle cx="396" cy="337" fill="white" r="1" /><circle cx="426" cy="337" fill="white" r="1" /><circle cx="427" cy="337" fill="white" r="1" /><circle cx="428" cy="337" fill="white" r="1" /><circle cx="429" cy="337" fill="white" r="1" /><circle cx="430" cy="337" fill="white" r="1" /><circle cx="431" cy="337" fill="white" r="1" /><circle cx="432" cy="337" fill="white" r="1" /><circle cx="433" cy="337" fill="white" r="1" /><circle cx="434" cy="337" fill="white" r="1" /><circle cx="435" cy="337" fill="white" r="1" /><circle cx="436" cy="337" fill="white" r="1" /><circle cx="437" cy="337" fill="white" r="1" /><circle cx="451" cy="337" fill="white" r="1" /><circle cx="386" cy="338" fill="white" r="1" /><circle cx="387" cy="338" fill="white" r="1" /><circle cx="388" cy="338" fill="white" r="1" /><circle cx="389" cy="338" fill="white" r="1" /><circle cx="390" cy="338" fill="white" r="1" /><circle cx="391" cy="338" fill="white" r="1" /><circle cx="392" cy="338" fill="white" r="1" /><circle cx="423" cy="338" fill="white" r="1" /><circle cx="424" cy="338" fill="white" r="1" /><circle cx="425" cy="338" fill="white" r="1" /><circle cx="438" cy="338" fill="white" r="1" /><circle cx="439" cy="338" fill="white" r="1" /><circle cx="440" cy="338" fill="white" r="1" /><circle cx="451" cy="338" fill="white" r="1" /><circle cx="452" cy="338" fill="white" r="1" /><circle cx="386" cy="339" fill="white" r="1" /><circle cx="419" cy="339" fill="white" r="1" /><circle cx="420" cy="339" fill="white" r="1" /><circle cx="421" cy="339" fill="white" r="1" /><circle cx="422" cy="339" fill="white" r="1" /><circle cx="441" cy="339" fill="white" r="1" /><circle cx="442" cy="339" fill="white" r="1" /><circle cx="443" cy="339" fill="white" r="1" /><circle cx="444" cy="339" fill="white" r="1" /><circle cx="452" cy="339" fill="white" r="1" /><circle cx="453" cy="339" fill="white" r="1" /><circle cx="387" cy="340" fill="white" r="1" /><circle cx="388" cy="340" fill="white" r="1" /><circle cx="389" cy="340" fill="white" r="1" /><circle cx="390" cy="340" fill="white" r="1" /><circle cx="391" cy="340" fill="white" r="1" /><circle cx="394" cy="340" fill="white" r="1" /><circle cx="395" cy="340" fill="white" r="1" /><circle cx="417" cy="340" fill="white" r="1" /><circle cx="418" cy="340" fill="white" r="1" /><circle cx="445" cy="340" fill="white" r="1" /><circle cx="446" cy="340" fill="white" r="1" /><circle cx="454" cy="340" fill="white" r="1" /><circle cx="397" cy="341" fill="white" r="1" /><circle cx="398" cy="341" fill="white" r="1" /><circle cx="399" cy="341" fill="white" r="1" /><circle cx="400" cy="341" fill="white" r="1" /><circle cx="414" cy="341" fill="white" r="1" /><circle cx="415" cy="341" fill="white" r="1" /><circle cx="416" cy="341" fill="white" r="1" /><circle cx="447" cy="341" fill="white" r="1" /><circle cx="448" cy="341" fill="white" r="1" /><circle cx="454" cy="341" fill="white" r="1" /><circle cx="455" cy="341" fill="white" r="1" /><circle cx="389" cy="342" fill="white" r="1" /><circle cx="391" cy="342" fill="white" r="1" /><circle cx="392" cy="342" fill="white" r="1" /><circle cx="393" cy="342" fill="white" r="1" /><circle cx="412" cy="342" fill="white" r="1" /><circle cx="413" cy="342" fill="white" r="1" /><circle cx="448" cy="342" fill="white" r="1" /><circle cx="449" cy="342" fill="white" r="1" /><circle cx="455" cy="342" fill="white" r="1" /><circle cx="388" cy="343" fill="white" r="1" /><circle cx="405" cy="343" fill="white" r="1" /><circle cx="406" cy="343" fill="white" r="1" /><circle cx="407" cy="343" fill="white" r="1" /><circle cx="411" cy="343" fill="white" r="1" /><circle cx="412" cy="343" fill="white" r="1" /><circle cx="449" cy="343" fill="white" r="1" /><circle cx="450" cy="343" fill="white" r="1" /><circle cx="456" cy="343" fill="white" r="1" /><circle cx="399" cy="344" fill="white" r="1" /><circle cx="400" cy="344" fill="white" r="1" /><circle cx="401" cy="344" fill="white" r="1" /><circle cx="402" cy="344" fill="white" r="1" /><circle cx="403" cy="344" fill="white" r="1" /><circle cx="404" cy="344" fill="white" r="1" /><circle cx="407" cy="344" fill="white" r="1" /><circle cx="409" cy="344" fill="white" r="1" /><circle cx="410" cy="344" fill="white" r="1" /><circle cx="451" cy="344" fill="white" r="1" /><circle cx="452" cy="344" fill="white" r="1" /><circle cx="456" cy="344" fill="white" r="1" /><circle cx="385" cy="345" fill="white" r="1" /><circle cx="386" cy="345" fill="white" r="1" /><circle cx="387" cy="345" fill="white" r="1" /><circle cx="389" cy="345" fill="white" r="1" /><circle cx="390" cy="345" fill="white" r="1" /><circle cx="391" cy="345" fill="white" r="1" /><circle cx="392" cy="345" fill="white" r="1" /><circle cx="393" cy="345" fill="white" r="1" /><circle cx="394" cy="345" fill="white" r="1" /><circle cx="395" cy="345" fill="white" r="1" /><circle cx="396" cy="345" fill="white" r="1" /><circle cx="397" cy="345" fill="white" r="1" /><circle cx="398" cy="345" fill="white" r="1" /><circle cx="407" cy="345" fill="white" r="1" /><circle cx="409" cy="345" fill="white" r="1" /><circle cx="443" cy="345" fill="white" r="1" /><circle cx="444" cy="345" fill="white" r="1" /><circle cx="445" cy="345" fill="white" r="1" /><circle cx="452" cy="345" fill="white" r="1" /><circle cx="453" cy="345" fill="white" r="1" /><circle cx="457" cy="345" fill="white" r="1" /><circle cx="443" cy="346" fill="white" r="1" /><circle cx="445" cy="346" fill="white" r="1" /><circle cx="446" cy="346" fill="white" r="1" /><circle cx="447" cy="346" fill="white" r="1" /><circle cx="448" cy="346" fill="white" r="1" /><circle cx="453" cy="346" fill="white" r="1" /><circle cx="454" cy="346" fill="white" r="1" /><circle cx="457" cy="346" fill="white" r="1" /><circle cx="405" cy="347" fill="white" r="1" /><circle cx="441" cy="347" fill="white" r="1" /><circle cx="442" cy="347" fill="white" r="1" /><circle cx="443" cy="347" fill="white" r="1" /><circle cx="449" cy="347" fill="white" r="1" /><circle cx="450" cy="347" fill="white" r="1" /><circle cx="454" cy="347" fill="white" r="1" /><circle cx="455" cy="347" fill="white" r="1" /><circle cx="458" cy="347" fill="white" r="1" /><circle cx="405" cy="348" fill="white" r="1" /><circle cx="440" cy="348" fill="white" r="1" /><circle cx="451" cy="348" fill="white" r="1" /><circle cx="455" cy="348" fill="white" r="1" /><circle cx="456" cy="348" fill="white" r="1" /><circle cx="458" cy="348" fill="white" r="1" /><circle cx="459" cy="348" fill="white" r="1" /><circle cx="440" cy="349" fill="white" r="1" /><circle cx="452" cy="349" fill="white" r="1" /><circle cx="456" cy="349" fill="white" r="1" /><circle cx="459" cy="349" fill="white" r="1" /><circle cx="444" cy="350" fill="white" r="1" /><circle cx="445" cy="350" fill="white" r="1" /><circle cx="452" cy="350" fill="white" r="1" /><circle cx="453" cy="350" fill="white" r="1" /><circle cx="457" cy="350" fill="white" r="1" /><circle cx="459" cy="350" fill="white" r="1" /><circle cx="402" cy="351" fill="white" r="1" /><circle cx="446" cy="351" fill="white" r="1" /><circle cx="447" cy="351" fill="white" r="1" /><circle cx="448" cy="351" fill="white" r="1" /><circle cx="449" cy="351" fill="white" r="1" /><circle cx="450" cy="351" fill="white" r="1" /><circle cx="457" cy="351" fill="white" r="1" /><circle cx="458" cy="351" fill="white" r="1" /><circle cx="402" cy="352" fill="white" r="1" /><circle cx="451" cy="352" fill="white" r="1" /><circle cx="453" cy="352" fill="white" r="1" /><circle cx="458" cy="352" fill="white" r="1" /><circle cx="460" cy="352" fill="white" r="1" /><circle cx="401" cy="353" fill="white" r="1" /><circle cx="458" cy="353" fill="white" r="1" /><circle cx="461" cy="353" fill="white" r="1" /><circle cx="401" cy="354" fill="white" r="1" /><circle cx="403" cy="354" fill="white" r="1" /><circle cx="459" cy="354" fill="white" r="1" /><circle cx="460" cy="355" fill="white" r="1" /><circle cx="462" cy="355" fill="white" r="1" /><circle cx="460" cy="356" fill="white" r="1" /><circle cx="462" cy="356" fill="white" r="1" /><circle cx="460" cy="357" fill="white" r="1" /><circle cx="461" cy="358" fill="white" r="1" /><circle cx="463" cy="358" fill="white" r="1" /><circle cx="461" cy="359" fill="white" r="1" /><circle cx="463" cy="359" fill="white" r="1" /><circle cx="462" cy="360" fill="white" r="1" /><circle cx="464" cy="360" fill="white" r="1" /><circle cx="462" cy="361" fill="white" r="1" /><circle cx="464" cy="361" fill="white" r="1" /><circle cx="438" cy="381" fill="white" r="1" /><circle cx="439" cy="381" fill="white" r="1" /><circle cx="438" cy="382" fill="white" r="1" /><circle cx="600" cy="384" fill="white" r="1" /><circle cx="601" cy="384" fill="white" r="1" /><circle cx="602" cy="384" fill="white" r="1" /><circle cx="603" cy="384" fill="white" r="1" /><circle cx="604" cy="384" fill="white" r="1" /><circle cx="605" cy="384" fill="white" r="1" /><circle cx="606" cy="384" fill="white" r="1" /><circle cx="607" cy="384" fill="white" r="1" /><circle cx="608" cy="384" fill="white" r="1" /><circle cx="609" cy="384" fill="white" r="1" /><circle cx="610" cy="384" fill="white" r="1" /><circle cx="611" cy="384" fill="white" r="1" /><circle cx="612" cy="384" fill="white" r="1" /><circle cx="613" cy="384" fill="white" r="1" /><circle cx="614" cy="384" fill="white" r="1" /><circle cx="598" cy="385" fill="white" r="1" /><circle cx="599" cy="385" fill="white" r="1" /><circle cx="615" cy="385" fill="white" r="1" /><circle cx="616" cy="385" fill="white" r="1" /><circle cx="617" cy="385" fill="white" r="1" /><circle cx="618" cy="385" fill="white" r="1" /><circle cx="619" cy="385" fill="white" r="1" /><circle cx="594" cy="386" fill="white" r="1" /><circle cx="595" cy="386" fill="white" r="1" /><circle cx="596" cy="386" fill="white" r="1" /><circle cx="597" cy="386" fill="white" r="1" /><circle cx="620" cy="386" fill="white" r="1" /><circle cx="621" cy="386" fill="white" r="1" /><circle cx="622" cy="386" fill="white" r="1" /><circle cx="623" cy="386" fill="white" r="1" /><circle cx="624" cy="386" fill="white" r="1" /><circle cx="591" cy="387" fill="white" r="1" /><circle cx="592" cy="387" fill="white" r="1" /><circle cx="593" cy="387" fill="white" r="1" /><circle cx="625" cy="387" fill="white" r="1" /><circle cx="626" cy="387" fill="white" r="1" /><circle cx="589" cy="388" fill="white" r="1" /><circle cx="590" cy="388" fill="white" r="1" /><circle cx="627" cy="388" fill="white" r="1" /><circle cx="587" cy="389" fill="white" r="1" /><circle cx="588" cy="389" fill="white" r="1" /><circle cx="589" cy="389" fill="white" r="1" /><circle cx="628" cy="389" fill="white" r="1" /><circle cx="629" cy="389" fill="white" r="1" /><circle cx="586" cy="390" fill="white" r="1" /><circle cx="630" cy="390" fill="white" r="1" /><circle cx="631" cy="390" fill="white" r="1" /><circle cx="585" cy="391" fill="white" r="1" /><circle cx="631" cy="391" fill="white" r="1" /><circle cx="632" cy="391" fill="white" r="1" /><circle cx="583" cy="392" fill="white" r="1" /><circle cx="584" cy="392" fill="white" r="1" /><circle cx="632" cy="392" fill="white" r="1" /><circle cx="633" cy="392" fill="white" r="1" /><circle cx="581" cy="393" fill="white" r="1" /><circle cx="582" cy="393" fill="white" r="1" /><circle cx="599" cy="393" fill="white" r="1" /><circle cx="600" cy="393" fill="white" r="1" /><circle cx="601" cy="393" fill="white" r="1" /><circle cx="602" cy="393" fill="white" r="1" /><circle cx="603" cy="393" fill="white" r="1" /><circle cx="604" cy="393" fill="white" r="1" /><circle cx="605" cy="393" fill="white" r="1" /><circle cx="606" cy="393" fill="white" r="1" /><circle cx="607" cy="393" fill="white" r="1" /><circle cx="608" cy="393" fill="white" r="1" /><circle cx="609" cy="393" fill="white" r="1" /><circle cx="610" cy="393" fill="white" r="1" /><circle cx="633" cy="393" fill="white" r="1" /><circle cx="634" cy="393" fill="white" r="1" /><circle cx="635" cy="393" fill="white" r="1" /><circle cx="580" cy="394" fill="white" r="1" /><circle cx="581" cy="394" fill="white" r="1" /><circle cx="595" cy="394" fill="white" r="1" /><circle cx="596" cy="394" fill="white" r="1" /><circle cx="597" cy="394" fill="white" r="1" /><circle cx="598" cy="394" fill="white" r="1" /><circle cx="611" cy="394" fill="white" r="1" /><circle cx="612" cy="394" fill="white" r="1" /><circle cx="613" cy="394" fill="white" r="1" /><circle cx="614" cy="394" fill="white" r="1" /><circle cx="636" cy="394" fill="white" r="1" /><circle cx="579" cy="395" fill="white" r="1" /><circle cx="580" cy="395" fill="white" r="1" /><circle cx="592" cy="395" fill="white" r="1" /><circle cx="593" cy="395" fill="white" r="1" /><circle cx="594" cy="395" fill="white" r="1" /><circle cx="615" cy="395" fill="white" r="1" /><circle cx="616" cy="395" fill="white" r="1" /><circle cx="617" cy="395" fill="white" r="1" /><circle cx="618" cy="395" fill="white" r="1" /><circle cx="637" cy="395" fill="white" r="1" /><circle cx="577" cy="396" fill="white" r="1" /><circle cx="578" cy="396" fill="white" r="1" /><circle cx="589" cy="396" fill="white" r="1" /><circle cx="590" cy="396" fill="white" r="1" /><circle cx="591" cy="396" fill="white" r="1" /><circle cx="619" cy="396" fill="white" r="1" /><circle cx="620" cy="396" fill="white" r="1" /><circle cx="638" cy="396" fill="white" r="1" /><circle cx="639" cy="396" fill="white" r="1" /><circle cx="576" cy="397" fill="white" r="1" /><circle cx="577" cy="397" fill="white" r="1" /><circle cx="587" cy="397" fill="white" r="1" /><circle cx="588" cy="397" fill="white" r="1" /><circle cx="621" cy="397" fill="white" r="1" /><circle cx="622" cy="397" fill="white" r="1" /><circle cx="623" cy="397" fill="white" r="1" /><circle cx="640" cy="397" fill="white" r="1" /><circle cx="641" cy="397" fill="white" r="1" /><circle cx="575" cy="398" fill="white" r="1" /><circle cx="576" cy="398" fill="white" r="1" /><circle cx="585" cy="398" fill="white" r="1" /><circle cx="586" cy="398" fill="white" r="1" /><circle cx="605" cy="398" fill="white" r="1" /><circle cx="606" cy="398" fill="white" r="1" /><circle cx="607" cy="398" fill="white" r="1" /><circle cx="608" cy="398" fill="white" r="1" /><circle cx="609" cy="398" fill="white" r="1" /><circle cx="610" cy="398" fill="white" r="1" /><circle cx="611" cy="398" fill="white" r="1" /><circle cx="612" cy="398" fill="white" r="1" /><circle cx="613" cy="398" fill="white" r="1" /><circle cx="614" cy="398" fill="white" r="1" /><circle cx="624" cy="398" fill="white" r="1" /><circle cx="625" cy="398" fill="white" r="1" /><circle cx="641" cy="398" fill="white" r="1" /><circle cx="642" cy="398" fill="white" r="1" /><circle cx="643" cy="398" fill="white" r="1" /><circle cx="574" cy="399" fill="white" r="1" /><circle cx="575" cy="399" fill="white" r="1" /><circle cx="583" cy="399" fill="white" r="1" /><circle cx="584" cy="399" fill="white" r="1" /><circle cx="602" cy="399" fill="white" r="1" /><circle cx="603" cy="399" fill="white" r="1" /><circle cx="604" cy="399" fill="white" r="1" /><circle cx="615" cy="399" fill="white" r="1" /><circle cx="616" cy="399" fill="white" r="1" /><circle cx="617" cy="399" fill="white" r="1" /><circle cx="618" cy="399" fill="white" r="1" /><circle cx="626" cy="399" fill="white" r="1" /><circle cx="627" cy="399" fill="white" r="1" /><circle cx="643" cy="399" fill="white" r="1" /><circle cx="644" cy="399" fill="white" r="1" /><circle cx="574" cy="400" fill="white" r="1" /><circle cx="582" cy="400" fill="white" r="1" /><circle cx="583" cy="400" fill="white" r="1" /><circle cx="601" cy="400" fill="white" r="1" /><circle cx="619" cy="400" fill="white" r="1" /><circle cx="620" cy="400" fill="white" r="1" /><circle cx="621" cy="400" fill="white" r="1" /><circle cx="628" cy="400" fill="white" r="1" /><circle cx="629" cy="400" fill="white" r="1" /><circle cx="644" cy="400" fill="white" r="1" /><circle cx="573" cy="401" fill="white" r="1" /><circle cx="580" cy="401" fill="white" r="1" /><circle cx="581" cy="401" fill="white" r="1" /><circle cx="600" cy="401" fill="white" r="1" /><circle cx="622" cy="401" fill="white" r="1" /><circle cx="623" cy="401" fill="white" r="1" /><circle cx="630" cy="401" fill="white" r="1" /><circle cx="631" cy="401" fill="white" r="1" /><circle cx="645" cy="401" fill="white" r="1" /><circle cx="572" cy="402" fill="white" r="1" /><circle cx="573" cy="402" fill="white" r="1" /><circle cx="579" cy="402" fill="white" r="1" /><circle cx="580" cy="402" fill="white" r="1" /><circle cx="600" cy="402" fill="white" r="1" /><circle cx="608" cy="402" fill="white" r="1" /><circle cx="609" cy="402" fill="white" r="1" /><circle cx="610" cy="402" fill="white" r="1" /><circle cx="611" cy="402" fill="white" r="1" /><circle cx="612" cy="402" fill="white" r="1" /><circle cx="613" cy="402" fill="white" r="1" /><circle cx="614" cy="402" fill="white" r="1" /><circle cx="615" cy="402" fill="white" r="1" /><circle cx="616" cy="402" fill="white" r="1" /><circle cx="617" cy="402" fill="white" r="1" /><circle cx="618" cy="402" fill="white" r="1" /><circle cx="619" cy="402" fill="white" r="1" /><circle cx="620" cy="402" fill="white" r="1" /><circle cx="624" cy="402" fill="white" r="1" /><circle cx="625" cy="402" fill="white" r="1" /><circle cx="626" cy="402" fill="white" r="1" /><circle cx="631" cy="402" fill="white" r="1" /><circle cx="632" cy="402" fill="white" r="1" /><circle cx="645" cy="402" fill="white" r="1" /><circle cx="571" cy="403" fill="white" r="1" /><circle cx="572" cy="403" fill="white" r="1" /><circle cx="577" cy="403" fill="white" r="1" /><circle cx="578" cy="403" fill="white" r="1" /><circle cx="601" cy="403" fill="white" r="1" /><circle cx="602" cy="403" fill="white" r="1" /><circle cx="603" cy="403" fill="white" r="1" /><circle cx="604" cy="403" fill="white" r="1" /><circle cx="605" cy="403" fill="white" r="1" /><circle cx="606" cy="403" fill="white" r="1" /><circle cx="607" cy="403" fill="white" r="1" /><circle cx="608" cy="403" fill="white" r="1" /><circle cx="621" cy="403" fill="white" r="1" /><circle cx="622" cy="403" fill="white" r="1" /><circle cx="632" cy="403" fill="white" r="1" /><circle cx="633" cy="403" fill="white" r="1" /><circle cx="646" cy="403" fill="white" r="1" /><circle cx="571" cy="404" fill="white" r="1" /><circle cx="576" cy="404" fill="white" r="1" /><circle cx="577" cy="404" fill="white" r="1" /><circle cx="634" cy="404" fill="white" r="1" /><circle cx="635" cy="404" fill="white" r="1" /><circle cx="646" cy="404" fill="white" r="1" /><circle cx="647" cy="404" fill="white" r="1" /><circle cx="570" cy="405" fill="white" r="1" /><circle cx="575" cy="405" fill="white" r="1" /><circle cx="576" cy="405" fill="white" r="1" /><circle cx="588" cy="405" fill="white" r="1" /><circle cx="630" cy="405" fill="white" r="1" /><circle cx="631" cy="405" fill="white" r="1" /><circle cx="632" cy="405" fill="white" r="1" /><circle cx="635" cy="405" fill="white" r="1" /><circle cx="636" cy="405" fill="white" r="1" /><circle cx="648" cy="405" fill="white" r="1" /><circle cx="569" cy="406" fill="white" r="1" /><circle cx="570" cy="406" fill="white" r="1" /><circle cx="573" cy="406" fill="white" r="1" /><circle cx="574" cy="406" fill="white" r="1" /><circle cx="586" cy="406" fill="white" r="1" /><circle cx="587" cy="406" fill="white" r="1" /><circle cx="589" cy="406" fill="white" r="1" /><circle cx="590" cy="406" fill="white" r="1" /><circle cx="591" cy="406" fill="white" r="1" /><circle cx="633" cy="406" fill="white" r="1" /><circle cx="636" cy="406" fill="white" r="1" /><circle cx="637" cy="406" fill="white" r="1" /><circle cx="647" cy="406" fill="white" r="1" /><circle cx="648" cy="406" fill="white" r="1" /><circle cx="569" cy="407" fill="white" r="1" /><circle cx="573" cy="407" fill="white" r="1" /><circle cx="584" cy="407" fill="white" r="1" /><circle cx="585" cy="407" fill="white" r="1" /><circle cx="630" cy="407" fill="white" r="1" /><circle cx="631" cy="407" fill="white" r="1" /><circle cx="634" cy="407" fill="white" r="1" /><circle cx="638" cy="407" fill="white" r="1" /><circle cx="568" cy="408" fill="white" r="1" /><circle cx="572" cy="408" fill="white" r="1" /><circle cx="583" cy="408" fill="white" r="1" /><circle cx="584" cy="408" fill="white" r="1" /><circle cx="590" cy="408" fill="white" r="1" /><circle cx="591" cy="408" fill="white" r="1" /><circle cx="632" cy="408" fill="white" r="1" /><circle cx="635" cy="408" fill="white" r="1" /><circle cx="639" cy="408" fill="white" r="1" /><circle cx="647" cy="408" fill="white" r="1" /><circle cx="648" cy="408" fill="white" r="1" /><circle cx="568" cy="409" fill="white" r="1" /><circle cx="570" cy="409" fill="white" r="1" /><circle cx="571" cy="409" fill="white" r="1" /><circle cx="582" cy="409" fill="white" r="1" /><circle cx="583" cy="409" fill="white" r="1" /><circle cx="589" cy="409" fill="white" r="1" /><circle cx="633" cy="409" fill="white" r="1" /><circle cx="639" cy="409" fill="white" r="1" /><circle cx="640" cy="409" fill="white" r="1" /><circle cx="648" cy="409" fill="white" r="1" /><circle cx="566" cy="410" fill="white" r="1" /><circle cx="570" cy="410" fill="white" r="1" /><circle cx="582" cy="410" fill="white" r="1" /><circle cx="588" cy="410" fill="white" r="1" /><circle cx="640" cy="410" fill="white" r="1" /><circle cx="641" cy="410" fill="white" r="1" /><circle cx="649" cy="410" fill="white" r="1" /><circle cx="650" cy="410" fill="white" r="1" /><circle cx="566" cy="411" fill="white" r="1" /><circle cx="570" cy="411" fill="white" r="1" /><circle cx="581" cy="411" fill="white" r="1" /><circle cx="584" cy="411" fill="white" r="1" /><circle cx="585" cy="411" fill="white" r="1" /><circle cx="586" cy="411" fill="white" r="1" /><circle cx="587" cy="411" fill="white" r="1" /><circle cx="641" cy="411" fill="white" r="1" /><circle cx="642" cy="411" fill="white" r="1" /><circle cx="650" cy="411" fill="white" r="1" /><circle cx="651" cy="411" fill="white" r="1" /><circle cx="566" cy="412" fill="white" r="1" /><circle cx="568" cy="412" fill="white" r="1" /><circle cx="583" cy="412" fill="white" r="1" /><circle cx="642" cy="412" fill="white" r="1" /><circle cx="643" cy="412" fill="white" r="1" /><circle cx="652" cy="412" fill="white" r="1" /><circle cx="653" cy="412" fill="white" r="1" /><circle cx="565" cy="413" fill="white" r="1" /><circle cx="568" cy="413" fill="white" r="1" /><circle cx="579" cy="413" fill="white" r="1" /><circle cx="582" cy="413" fill="white" r="1" /><circle cx="643" cy="413" fill="white" r="1" /><circle cx="653" cy="413" fill="white" r="1" /><circle cx="654" cy="413" fill="white" r="1" /><circle cx="565" cy="414" fill="white" r="1" /><circle cx="567" cy="414" fill="white" r="1" /><circle cx="568" cy="414" fill="white" r="1" /><circle cx="578" cy="414" fill="white" r="1" /><circle cx="581" cy="414" fill="white" r="1" /><circle cx="644" cy="414" fill="white" r="1" /><circle cx="654" cy="414" fill="white" r="1" /><circle cx="565" cy="415" fill="white" r="1" /><circle cx="567" cy="415" fill="white" r="1" /><circle cx="578" cy="415" fill="white" r="1" /><circle cx="580" cy="415" fill="white" r="1" /><circle cx="644" cy="415" fill="white" r="1" /><circle cx="645" cy="415" fill="white" r="1" /><circle cx="654" cy="415" fill="white" r="1" /><circle cx="645" cy="416" fill="white" r="1" /><circle cx="654" cy="416" fill="white" r="1" /><circle cx="646" cy="417" fill="white" r="1" /><circle cx="654" cy="417" fill="white" r="1" /><circle cx="655" cy="417" fill="white" r="1" /><circle cx="646" cy="418" fill="white" r="1" /><circle cx="647" cy="418" fill="white" r="1" /><circle cx="655" cy="418" fill="white" r="1" /><circle cx="656" cy="418" fill="white" r="1" /><circle cx="647" cy="419" fill="white" r="1" /><circle cx="657" cy="419" fill="white" r="1" /><circle cx="658" cy="419" fill="white" r="1" /><circle cx="647" cy="420" fill="white" r="1" /><circle cx="658" cy="420" fill="white" r="1" /><circle cx="648" cy="421" fill="white" r="1" /><circle cx="658" cy="421" fill="white" r="1" /><circle cx="648" cy="422" fill="white" r="1" /><circle cx="658" cy="422" fill="white" r="1" /><circle cx="659" cy="422" fill="white" r="1" /><circle cx="648" cy="423" fill="white" r="1" /><circle cx="659" cy="423" fill="white" r="1" /><circle cx="648" cy="424" fill="white" r="1" /><circle cx="660" cy="424" fill="white" r="1" /><circle cx="649" cy="425" fill="white" r="1" /><circle cx="661" cy="425" fill="white" r="1" /><circle cx="662" cy="425" fill="white" r="1" /><circle cx="649" cy="426" fill="white" r="1" /><circle cx="662" cy="426" fill="white" r="1" /><circle cx="663" cy="426" fill="white" r="1" /><circle cx="650" cy="427" fill="white" r="1" /><circle cx="663" cy="427" fill="white" r="1" /><circle cx="664" cy="427" fill="white" r="1" /><circle cx="650" cy="428" fill="white" r="1" /><circle cx="664" cy="428" fill="white" r="1" /><circle cx="650" cy="429" fill="white" r="1" /><circle cx="665" cy="429" fill="white" r="1" /><circle cx="650" cy="430" fill="white" r="1" /><circle cx="665" cy="430" fill="white" r="1" /><circle cx="666" cy="430" fill="white" r="1" /><circle cx="650" cy="431" fill="white" r="1" /><circle cx="666" cy="431" fill="white" r="1" /><circle cx="667" cy="431" fill="white" r="1" /><circle cx="650" cy="432" fill="white" r="1" /><circle cx="656" cy="432" fill="white" r="1" /><circle cx="657" cy="432" fill="white" r="1" /><circle cx="658" cy="432" fill="white" r="1" /><circle cx="667" cy="432" fill="white" r="1" /><circle cx="668" cy="432" fill="white" r="1" /><circle cx="651" cy="433" fill="white" r="1" /><circle cx="655" cy="433" fill="white" r="1" /><circle cx="658" cy="433" fill="white" r="1" /><circle cx="668" cy="433" fill="white" r="1" /><circle cx="669" cy="433" fill="white" r="1" /><circle cx="606" cy="434" fill="white" r="1" /><circle cx="607" cy="434" fill="white" r="1" /><circle cx="651" cy="434" fill="white" r="1" /><circle cx="655" cy="434" fill="white" r="1" /><circle cx="659" cy="434" fill="white" r="1" /><circle cx="669" cy="434" fill="white" r="1" /><circle cx="605" cy="435" fill="white" r="1" /><circle cx="610" cy="435" fill="white" r="1" /><circle cx="651" cy="435" fill="white" r="1" /><circle cx="655" cy="435" fill="white" r="1" /><circle cx="659" cy="435" fill="white" r="1" /><circle cx="660" cy="435" fill="white" r="1" /><circle cx="670" cy="435" fill="white" r="1" /><circle cx="671" cy="435" fill="white" r="1" /><circle cx="605" cy="436" fill="white" r="1" /><circle cx="609" cy="436" fill="white" r="1" /><circle cx="611" cy="436" fill="white" r="1" /><circle cx="612" cy="436" fill="white" r="1" /><circle cx="651" cy="436" fill="white" r="1" /><circle cx="655" cy="436" fill="white" r="1" /><circle cx="660" cy="436" fill="white" r="1" /><circle cx="661" cy="436" fill="white" r="1" /><circle cx="672" cy="436" fill="white" r="1" /><circle cx="673" cy="436" fill="white" r="1" /><circle cx="602" cy="437" fill="white" r="1" /><circle cx="603" cy="437" fill="white" r="1" /><circle cx="604" cy="437" fill="white" r="1" /><circle cx="609" cy="437" fill="white" r="1" /><circle cx="612" cy="437" fill="white" r="1" /><circle cx="613" cy="437" fill="white" r="1" /><circle cx="614" cy="437" fill="white" r="1" /><circle cx="651" cy="437" fill="white" r="1" /><circle cx="655" cy="437" fill="white" r="1" /><circle cx="661" cy="437" fill="white" r="1" /><circle cx="662" cy="437" fill="white" r="1" /><circle cx="673" cy="437" fill="white" r="1" /><circle cx="674" cy="437" fill="white" r="1" /><circle cx="602" cy="438" fill="white" r="1" /><circle cx="604" cy="438" fill="white" r="1" /><circle cx="605" cy="438" fill="white" r="1" /><circle cx="651" cy="438" fill="white" r="1" /><circle cx="655" cy="438" fill="white" r="1" /><circle cx="662" cy="438" fill="white" r="1" /><circle cx="603" cy="439" fill="white" r="1" /><circle cx="604" cy="439" fill="white" r="1" /><circle cx="608" cy="439" fill="white" r="1" /><circle cx="609" cy="439" fill="white" r="1" /><circle cx="651" cy="439" fill="white" r="1" /><circle cx="655" cy="439" fill="white" r="1" /><circle cx="663" cy="439" fill="white" r="1" /><circle cx="673" cy="439" fill="white" r="1" /><circle cx="602" cy="440" fill="white" r="1" /><circle cx="610" cy="440" fill="white" r="1" /><circle cx="651" cy="440" fill="white" r="1" /><circle cx="655" cy="440" fill="white" r="1" /><circle cx="663" cy="440" fill="white" r="1" /><circle cx="664" cy="440" fill="white" r="1" /><circle cx="673" cy="440" fill="white" r="1" /><circle cx="651" cy="441" fill="white" r="1" /><circle cx="655" cy="441" fill="white" r="1" /><circle cx="665" cy="441" fill="white" r="1" /><circle cx="666" cy="441" fill="white" r="1" /><circle cx="674" cy="441" fill="white" r="1" /><circle cx="675" cy="441" fill="white" r="1" /><circle cx="651" cy="442" fill="white" r="1" /><circle cx="655" cy="442" fill="white" r="1" /><circle cx="666" cy="442" fill="white" r="1" /><circle cx="667" cy="442" fill="white" r="1" /><circle cx="675" cy="442" fill="white" r="1" /><circle cx="676" cy="442" fill="white" r="1" /><circle cx="651" cy="443" fill="white" r="1" /><circle cx="655" cy="443" fill="white" r="1" /><circle cx="667" cy="443" fill="white" r="1" /><circle cx="668" cy="443" fill="white" r="1" /><circle cx="677" cy="443" fill="white" r="1" /><circle cx="678" cy="443" fill="white" r="1" /><circle cx="651" cy="444" fill="white" r="1" /><circle cx="655" cy="444" fill="white" r="1" /><circle cx="668" cy="444" fill="white" r="1" /><circle cx="669" cy="444" fill="white" r="1" /><circle cx="679" cy="444" fill="white" r="1" /><circle cx="680" cy="444" fill="white" r="1" /><circle cx="651" cy="445" fill="white" r="1" /><circle cx="654" cy="445" fill="white" r="1" /><circle cx="670" cy="445" fill="white" r="1" /><circle cx="671" cy="445" fill="white" r="1" /><circle cx="680" cy="445" fill="white" r="1" /><circle cx="681" cy="445" fill="white" r="1" /><circle cx="650" cy="446" fill="white" r="1" /><circle cx="654" cy="446" fill="white" r="1" /><circle cx="672" cy="446" fill="white" r="1" /><circle cx="673" cy="446" fill="white" r="1" /><circle cx="682" cy="446" fill="white" r="1" /><circle cx="683" cy="446" fill="white" r="1" /><circle cx="650" cy="447" fill="white" r="1" /><circle cx="654" cy="447" fill="white" r="1" /><circle cx="673" cy="447" fill="white" r="1" /><circle cx="674" cy="447" fill="white" r="1" /><circle cx="675" cy="447" fill="white" r="1" /><circle cx="676" cy="447" fill="white" r="1" /><circle cx="683" cy="447" fill="white" r="1" /><circle cx="650" cy="448" fill="white" r="1" /><circle cx="654" cy="448" fill="white" r="1" /><circle cx="677" cy="448" fill="white" r="1" /><circle cx="678" cy="448" fill="white" r="1" /><circle cx="679" cy="448" fill="white" r="1" /><circle cx="680" cy="448" fill="white" r="1" /><circle cx="681" cy="448" fill="white" r="1" /><circle cx="682" cy="448" fill="white" r="1" /><circle cx="683" cy="448" fill="white" r="1" /><circle cx="650" cy="449" fill="white" r="1" /><circle cx="653" cy="449" fill="white" r="1" /><circle cx="650" cy="450" fill="white" r="1" /><circle cx="653" cy="450" fill="white" r="1" /><circle cx="650" cy="451" fill="white" r="1" /><circle cx="653" cy="451" fill="white" r="1" /><circle cx="492" cy="452" fill="white" r="1" /><circle cx="650" cy="452" fill="white" r="1" /><circle cx="652" cy="452" fill="white" r="1" /><circle cx="491" cy="453" fill="white" r="1" /><circle cx="649" cy="453" fill="white" r="1" /><circle cx="652" cy="453" fill="white" r="1" /><circle cx="649" cy="454" fill="white" r="1" /><circle cx="652" cy="454" fill="white" r="1" /><circle cx="649" cy="455" fill="white" r="1" /><circle cx="651" cy="455" fill="white" r="1" /><circle cx="652" cy="455" fill="white" r="1" /><circle cx="648" cy="456" fill="white" r="1" /><circle cx="651" cy="456" fill="white" r="1" /><circle cx="648" cy="457" fill="white" r="1" /><circle cx="650" cy="457" fill="white" r="1" /><circle cx="648" cy="458" fill="white" r="1" /><circle cx="650" cy="458" fill="white" r="1" /></svg>