<?xml version="1.0" encoding="utf-8" ?>
<svg baseProfile="tiny" height="100%" version="1.2" width="100%" xmlns="http://www.w3.org/2000/svg" xmlns:ev="http://www.w3.org/2001/xml-events" xmlns:xlink="http://www.w3.org/1999/xlink"><defs /><rect fill="black" height="100%" width="100%" x="0" y="0" /><circle cx="106" cy="52" fill="white" r="1" /><circle cx="108" cy="52" fill="white" r="1" /><circle cx="106" cy="53" fill="white" r="1" /><circle cx="108" cy="53" fill="white" r="1" /><circle cx="106" cy="54" fill="white" r="1" /><circle cx="108" cy="54" fill="white" r="1" /><circle cx="230" cy="54" fill="white" r="1" /><circle cx="231" cy="54" fill="white" r="1" /><circle cx="106" cy="55" fill="white" r="1" /><circle cx="108" cy="55" fill="white" r="1" /><circle cx="229" cy="55" fill="white" r="1" /><circle cx="106" cy="56" fill="white" r="1" /><circle cx="108" cy="56" fill="white" r="1" /><circle cx="228" cy="56" fill="white" r="1" /><circle cx="231" cy="56" fill="white" r="1" /><circle cx="105" cy="57" fill="white" r="1" /><circle cx="107" cy="57" fill="white" r="1" /><circle cx="228" cy="57" fill="white" r="1" /><circle cx="230" cy="57" fill="white" r="1" /><circle cx="105" cy="58" fill="white" r="1" /><circle cx="107" cy="58" fill="white" r="1" /><circle cx="105" cy="59" fill="white" r="1" /><circle cx="107" cy="59" fill="white" r="1" /><circle cx="105" cy="60" fill="white" r="1" /><circle cx="107" cy="60" fill="white" r="1" /><circle cx="105" cy="61" fill="white" r="1" /><circle cx="107" cy="61" fill="white" r="1" /><circle cx="105" cy="62" fill="white" r="1" /><circle cx="107" cy="62" fill="white" r="1" /><circle cx="105" cy="63" fill="white" r="1" /><circle cx="107" cy="63" fill="white" r="1" /><circle cx="105" cy="64" fill="white" r="1" /><circle cx="104" cy="65" fill="white" r="1" /><circle cx="104" cy="66" fill="white" r="1" /><circle cx="104" cy="67" fill="white" r="1" /><circle cx="105" cy="68" fill="white" r="1" /><circle cx="105" cy="69" fill="white" r="1" /><circle cx="105" cy="70" fill="white" r="1" /><circle cx="214" cy="84" fill="white" r="1" /><circle cx="215" cy="84" fill="white" r="1" /><circle cx="230" cy="84" fill="white" r="1" /><circle cx="231" cy="84" fill="white" r="1" /><circle cx="233" cy="84" fill="white" r="1" /><circle cx="234" cy="84" fill="white" r="1" /><circle cx="214" cy="85" fill="white" r="1" /><circle cx="232" cy="85" fill="white" r="1" /><circle cx="236" cy="85" fill="white" r="1" /><circle cx="214" cy="86" fill="white" r="1" /><circle cx="233" cy="86" fill="white" r="1" /><circle cx="255" cy="103" fill="white" r="1" /><circle cx="254" cy="104" fill="white" r="1" /><circle cx="253" cy="105" fill="white" r="1" /><circle cx="235" cy="106" fill="white" r="1" /><circle cx="252" cy="106" fill="white" r="1" /><circle cx="236" cy="107" fill="white" r="1" /><circle cx="237" cy="107" fill="white" r="1" /><circle cx="236" cy="108" fill="white" r="1" /><circle cx="236" cy="109" fill="white" r="1" /><circle cx="246" cy="109" fill="white" r="1" /><circle cx="247" cy="109" fill="white" r="1" /><circle cx="245" cy="110" fill="white" r="1" /><circle cx="243" cy="111" fill="white" r="1" /><circle cx="247" cy="111" fill="white" r="1" /><circle cx="246" cy="112" fill="white" r="1" /><circle cx="243" cy="113" fill="white" r="1" /><circle cx="245" cy="113" fill="white" r="1" /><circle cx="21" cy="126" fill="white" r="1" /><circle cx="59" cy="139" fill="white" r="1" /><circle cx="60" cy="139" fill="white" r="1" /><circle cx="61" cy="139" fill="white" r="1" /><circle cx="63" cy="139" fill="white" r="1" /><circle cx="58" cy="140" fill="white" r="1" /><circle cx="59" cy="140" fill="white" r="1" /><circle cx="62" cy="140" fill="white" r="1" /><circle cx="58" cy="141" fill="white" r="1" /><circle cx="59" cy="141" fill="white" r="1" /><circle cx="61" cy="141" fill="white" r="1" /><circle cx="62" cy="141" fill="white" r="1" /><circle cx="61" cy="142" fill="white" r="1" /><circle cx="60" cy="143" fill="white" r="1" /><circle cx="46" cy="146" fill="white" r="1" /><circle cx="47" cy="146" fill="white" r="1" /><circle cx="173" cy="146" fill="white" r="1" /><circle cx="175" cy="146" fill="white" r="1" /><circle cx="46" cy="147" fill="white" r="1" /><circle cx="48" cy="147" fill="white" r="1" /><circle cx="199" cy="147" fill="white" r="1" /><circle cx="200" cy="147" fill="white" r="1" /><circle cx="201" cy="147" fill="white" r="1" /><circle cx="202" cy="147" fill="white" r="1" /><circle cx="203" cy="147" fill="white" r="1" /><circle cx="204" cy="147" fill="white" r="1" /><circle cx="46" cy="148" fill="white" r="1" /><circle cx="204" cy="148" fill="white" r="1" /><circle cx="47" cy="149" fill="white" r="1" /><circle cx="197" cy="149" fill="white" r="1" /><circle cx="198" cy="149" fill="white" r="1" /><circle cx="204" cy="149" fill="white" r="1" /><circle cx="10" cy="150" fill="white" r="1" /><circle cx="11" cy="150" fill="white" r="1" /><circle cx="12" cy="150" fill="white" r="1" /><circle cx="199" cy="150" fill="white" r="1" /><circle cx="10" cy="151" fill="white" r="1" /><circle cx="12" cy="151" fill="white" r="1" /><circle cx="13" cy="151" fill="white" r="1" /><circle cx="0" cy="152" fill="white" r="1" /><circle cx="1" cy="152" fill="white" r="1" /><circle cx="13" cy="152" fill="white" r="1" /><circle cx="175" cy="152" fill="white" r="1" /><circle cx="176" cy="152" fill="white" r="1" /><circle cx="1" cy="153" fill="white" r="1" /><circle cx="2" cy="153" fill="white" r="1" /><circle cx="12" cy="153" fill="white" r="1" /><circle cx="173" cy="153" fill="white" r="1" /><circle cx="174" cy="153" fill="white" r="1" /><circle cx="176" cy="153" fill="white" r="1" /><circle cx="10" cy="154" fill="white" r="1" /><circle cx="11" cy="154" fill="white" r="1" /><circle cx="172" cy="154" fill="white" r="1" /><circle cx="172" cy="155" fill="white" r="1" /><circle cx="174" cy="155" fill="white" r="1" /><circle cx="174" cy="162" fill="white" r="1" /><circle cx="172" cy="163" fill="white" r="1" /><circle cx="173" cy="163" fill="white" r="1" /><circle cx="172" cy="164" fill="white" r="1" /><circle cx="71" cy="165" fill="white" r="1" /><circle cx="72" cy="165" fill="white" r="1" /><circle cx="60" cy="166" fill="white" r="1" /><circle cx="61" cy="166" fill="white" r="1" /><circle cx="62" cy="166" fill="white" r="1" /><circle cx="63" cy="166" fill="white" r="1" /><circle cx="70" cy="166" fill="white" r="1" /><circle cx="71" cy="166" fill="white" r="1" /><circle cx="69" cy="167" fill="white" r="1" /><circle cx="70" cy="167" fill="white" r="1" /><circle cx="64" cy="168" fill="white" r="1" /><circle cx="65" cy="168" fill="white" r="1" /><circle cx="66" cy="168" fill="white" r="1" /><circle cx="67" cy="168" fill="white" r="1" /><circle cx="68" cy="168" fill="white" r="1" /><circle cx="187" cy="172" fill="white" r="1" /><circle cx="188" cy="172" fill="white" r="1" /><circle cx="186" cy="173" fill="white" r="1" /><circle cx="186" cy="174" fill="white" r="1" /><circle cx="188" cy="174" fill="white" r="1" /><circle cx="185" cy="175" fill="white" r="1" /><circle cx="187" cy="175" fill="white" r="1" /><circle cx="185" cy="176" fill="white" r="1" /><circle cx="187" cy="176" fill="white" r="1" /><circle cx="254" cy="198" fill="white" r="1" /><circle cx="204" cy="199" fill="white" r="1" /><circle cx="168" cy="203" fill="white" r="1" /><circle cx="167" cy="204" fill="white" r="1" /><circle cx="167" cy="205" fill="white" r="1" /><circle cx="169" cy="205" fill="white" r="1" /><circle cx="165" cy="207" fill="white" r="1" /><circle cx="164" cy="209" fill="white" r="1" /><circle cx="163" cy="210" fill="white" r="1" /><circle cx="160" cy="214" fill="white" r="1" /><circle cx="161" cy="214" fill="white" r="1" /><circle cx="159" cy="215" fill="white" r="1" /><circle cx="159" cy="216" fill="white" r="1" /><circle cx="237" cy="228" fill="white" r="1" /><circle cx="228" cy="229" fill="white" r="1" /><circle cx="229" cy="229" fill="white" r="1" /><circle cx="237" cy="229" fill="white" r="1" /><circle cx="230" cy="230" fill="white" r="1" /><circle cx="237" cy="230" fill="white" r="1" /><circle cx="231" cy="231" fill="white" r="1" /><circle cx="232" cy="231" fill="white" r="1" /><circle cx="236" cy="231" fill="white" r="1" /><circle cx="236" cy="232" fill="white" r="1" /><circle cx="254" cy="251" fill="white" r="1" /><circle cx="250" cy="252" fill="white" r="1" /><circle cx="251" cy="252" fill="white" r="1" /><circle cx="250" cy="253" fill="white" r="1" /><circle cx="130" cy="254" fill="white" r="1" /><circle cx="131" cy="254" fill="white" r="1" /><circle cx="132" cy="254" fill="white" r="1" /><circle cx="251" cy="254" fill="white" r="1" /><circle cx="130" cy="255" fill="white" r="1" /><circle cx="132" cy="255" fill="white" r="1" /></svg>