<?xml version="1.0" encoding="utf-8" ?>
<svg baseProfile="tiny" height="256" version="1.2" width="256" xmlns="http://www.w3.org/2000/svg" xmlns:ev="http://www.w3.org/2001/xml-events" xmlns:xlink="http://www.w3.org/1999/xlink"><defs /><rect fill="black" height="256" width="256" x="0" y="0" /><polygon fill="white" points="184,231 182,233 175,233 174,232 172,234 170,234 169,235 168,234 164,234 163,235 160,235 159,236 200,236 201,235 203,235 204,234 205,234 205,233 206,232 205,232 203,234 197,234 196,233 189,233 188,232 188,231 187,231 186,232 185,231" /><polygon fill="white" points="180,230" /><polygon fill="white" points="175,227 175,228" /><polygon fill="white" points="175,223" /><polygon fill="white" points="167,223 168,223" /><polygon fill="white" points="213,210" /></svg>