<?xml version="1.0" encoding="utf-8" ?>
<svg baseProfile="tiny" height="256" version="1.2" width="256" xmlns="http://www.w3.org/2000/svg" xmlns:ev="http://www.w3.org/2001/xml-events" xmlns:xlink="http://www.w3.org/1999/xlink"><defs /><rect fill="black" height="256" width="256" x="0" y="0" /><polygon fill="white" points="144,234 143,235 144,236 145,236 146,237 147,237 146,236 145,236 144,235" /><polygon fill="white" points="139,225 139,226 140,227 139,226" /><polygon fill="white" points="138,222" /><polygon fill="white" points="237,220 234,223 233,223 231,225 230,225 228,227 227,227 226,228 225,228 224,229 223,229 222,230 220,230 218,232 216,232 215,233 213,233 212,234 209,234 208,235 208,236 209,237 209,238 208,239 161,239 160,238 149,238 154,238 155,239 161,239 162,240 169,240 170,241 177,241 178,242 186,242 187,243 196,243 197,244 219,244 220,243 231,243 232,242 236,242 237,241 240,241 241,240 242,240 243,239 244,239 244,237 242,235 241,235 240,234 237,234 236,233 230,233 229,232 222,232 221,231 222,230 223,230 224,229 225,229 227,227 228,227 229,226 230,226 233,223 234,223" /><polygon fill="white" points="138,219" /><polygon fill="white" points="139,216" /><polygon fill="white" points="241,214" /><polygon fill="white" points="141,208 141,209" /><polygon fill="white" points="236,200" /><polygon fill="white" points="235,193" /><polygon fill="white" points="230,189 231,189 233,191 232,190 232,189" /><polygon fill="white" points="231,187" /><polygon fill="white" points="218,148" /><polygon fill="white" points="183,148 184,148" /><polygon fill="white" points="199,145" /><polygon fill="white" points="161,145" /><polygon fill="white" points="37,145" /><polygon fill="white" points="162,143" /><polygon fill="white" points="35,142" /><polygon fill="white" points="163,141" /><polygon fill="white" points="34,140" /><polygon fill="white" points="33,137" /><polygon fill="white" points="211,136 211,142 210,143 210,145 209,146 209,147 211,149 211,150 213,152 213,153 214,154 214,156 213,157 213,160 214,161 215,161 217,163 217,164 218,165 217,166 216,166 217,166 218,165 219,166 220,166 221,167 222,167 223,166 225,168 225,169 224,170 224,174 225,175 224,176 223,176 222,175 222,174 221,173 221,172 219,170 221,172 221,173 222,174 222,175 223,176 222,177 222,178 225,181 223,179 223,177 224,176 225,177 225,178 228,181 227,182 228,183 228,184 229,183 230,183 231,184 230,185 231,184 233,186 233,187 234,188 234,189 238,193 240,193 243,196 243,197 244,198 244,199 245,199 247,201 248,200 248,198 247,197 247,195 246,194 246,193 245,192 245,190 243,188 242,188 240,186 240,185 238,183 238,182 237,182 235,180 234,180 231,177 231,176 234,173 235,173 237,171 238,171 240,169 241,169 244,166 245,166 247,164 248,164 250,162 251,162 253,160 254,160 255,159 255,153 254,153 253,154 252,154 248,158 247,158 245,160 244,160 242,162 241,162 239,164 238,164 236,166 235,166 234,167 233,167 231,169 230,169 228,171 227,171 225,169 226,168 226,167 227,166 227,164 228,163 228,162 229,161 229,159 230,158 230,156 231,155 231,153 232,152 232,150 233,149 233,147 234,146 234,145 235,144 235,142 234,141 233,141 233,142 232,143 232,146 231,147 231,148 230,149 230,151 228,153 228,155 227,156 227,157 226,158 224,158 223,159 220,156 220,155 219,154 219,150 219,151 218,152 217,152 216,151 216,147 217,146 217,143 216,142 216,141" /><polygon fill="white" points="86,130 86,131 87,132 87,134 88,135 88,137 89,138 89,141 90,142 90,145 91,146 91,151 89,153 89,154 86,157 86,158 84,160 83,160 82,161 73,161 72,162 69,162 68,163 65,163 64,162 63,162 62,163 61,163 60,162 58,162 57,161 56,161 55,160 54,160 52,158 50,158 46,154 45,154 39,148 42,151 42,152 47,157 47,158 48,159 48,160 47,161 47,162 48,162 49,163 52,163 53,164 60,164 61,165 68,165 69,164 77,164 78,163 83,163 84,162 86,162 89,159 89,158 90,157 90,156 91,155 91,146 90,145 90,142 89,141 89,138 88,137 88,135 87,134 87,132 86,131" /><polygon fill="white" points="84,125" /><polygon fill="white" points="83,123" /><polygon fill="white" points="109,121 109,122 108,123 108,126 107,127 107,130 106,131 106,134 105,135 105,142 104,143 104,147 103,148 103,157 104,158 104,162 105,163 105,165 106,166 107,166 108,167 112,167 113,168 129,168 130,167 140,167 141,166 145,166 146,165 148,165 149,164 150,164 150,162 149,161 149,160 156,153 156,152 158,150 154,154 153,154 152,155 151,155 150,156 148,156 143,161 142,161 138,165 133,165 132,166 117,166 116,167 112,167 111,166 109,166 108,165 107,165 105,163 105,162 104,161 104,146 105,145 105,142 106,141 106,132 107,131 107,128 108,127 108,123 109,122" /><polygon fill="white" points="82,121" /><polygon fill="white" points="42,115" /><polygon fill="white" points="66,106 65,107 64,107 62,109 60,109 62,109 64,107 68,107 69,108 67,106" /><polygon fill="white" points="55,105 54,106 53,106 51,108 51,109 50,110 50,111 48,113 50,111 51,111 54,108 57,108 58,109 56,107 56,106" /><polygon fill="white" points="170,91 162,99 161,99 161,100 152,109 151,109 152,110 153,110 154,111 154,109 159,104 159,103 165,97 166,97 169,94 170,94 172,92 172,91" /></svg>