<?xml version="1.0" encoding="utf-8" ?>
<svg baseProfile="tiny" height="256" version="1.2" width="256" xmlns="http://www.w3.org/2000/svg" xmlns:ev="http://www.w3.org/2001/xml-events" xmlns:xlink="http://www.w3.org/1999/xlink"><defs /><rect fill="black" height="256" width="256" x="0" y="0" /><polygon fill="white" points="0,0 0,255 255,255 255,160 254,161 253,161 251,163 250,163 248,165 247,165 245,167 244,167 241,170 240,170 238,172 237,172 235,174 234,174 232,176 232,177 234,179 235,179 237,181 238,181 239,182 239,183 241,185 241,186 242,187 243,187 246,190 246,192 247,193 247,194 248,195 248,197 249,198 249,200 247,202 245,200 244,200 244,210 243,211 243,212 242,213 242,214 241,215 241,216 238,219 238,220 234,224 233,224 230,227 229,227 228,228 227,228 225,230 224,230 223,231 222,231 229,231 230,232 236,232 237,233 240,233 241,234 242,234 245,237 245,239 244,240 243,240 242,241 241,241 240,242 237,242 236,243 232,243 231,244 220,244 219,245 197,245 196,244 187,244 186,243 178,243 177,242 170,242 169,241 162,241 161,240 155,240 154,239 149,239 148,238 146,238 145,237 144,237 142,235 143,234 143,233 139,229 139,227 138,226 138,223 137,222 137,219 138,218 138,216 139,215 139,213 140,212 140,208 141,207 141,205 143,203 143,202 144,201 144,199 145,198 145,197 146,196 146,195 147,194 147,193 148,192 148,191 149,190 149,189 150,188 150,187 151,186 151,185 153,183 153,182 154,181 154,180 155,179 155,178 156,177 156,176 157,175 157,174 159,172 159,171 160,170 160,169 161,168 161,167 162,166 162,165 167,160 167,159 173,153 174,153 175,152 176,152 177,151 178,151 181,148 182,148 183,147 189,147 191,145 194,145 195,144 196,145 197,144 205,144 206,145 207,145 208,146 209,145 209,143 210,142 210,136 211,135 217,141 217,142 218,143 218,147 219,148 219,149 220,150 220,154 221,155 221,156 223,158 224,157 226,157 226,156 227,155 227,153 229,151 229,149 230,148 230,147 231,146 231,143 232,142 232,141 233,140 234,140 236,142 236,144 235,145 235,146 234,147 234,149 233,150 233,152 232,153 232,155 231,156 231,158 230,159 230,161 229,162 229,163 228,164 228,166 227,167 227,168 226,169 227,170 228,170 230,168 231,168 233,166 234,166 235,165 236,165 238,163 239,163 241,161 242,161 244,159 245,159 247,157 248,157 252,153 253,153 254,152 255,152 255,0" /></svg>