<?xml version="1.0" encoding="utf-8" ?>
<svg baseProfile="tiny" height="256" version="1.2" width="256" xmlns="http://www.w3.org/2000/svg" xmlns:ev="http://www.w3.org/2001/xml-events" xmlns:xlink="http://www.w3.org/1999/xlink"><defs /><rect fill="black" height="256" width="256" x="0" y="0" /><polygon fill="white" points="230,203" /><polygon fill="white" points="215,184 216,184 218,186 218,188 219,189 219,191 217,193 218,194 218,195 219,195 218,194 219,193 219,191 220,190 221,190 220,189 219,189 218,188 218,187 219,186 218,186 216,184" /><polygon fill="white" points="210,183 210,184" /><polygon fill="white" points="213,182 212,183 213,183 214,182" /><polygon fill="white" points="158,180 157,181" /><polygon fill="white" points="210,179" /><polygon fill="white" points="217,178 217,179 218,178 220,178" /><polygon fill="white" points="203,175 203,177 205,179 205,178 203,176" /><polygon fill="white" points="197,174 195,176" /><polygon fill="white" points="193,173" /><polygon fill="white" points="162,171 161,172 162,173 162,175 163,174 163,173 162,173 161,172" /><polygon fill="white" points="197,170 197,171 198,170" /><polygon fill="white" points="192,146 192,147 190,149 184,149 183,150 181,150 179,152 177,152 176,153 175,153 172,156 173,157 173,158 172,159 171,158 169,160 169,161 166,164 166,165 164,167 165,166 166,166 167,167 169,167 170,168 170,170 169,171 169,172 170,172 171,173 171,174 172,174 171,173 171,170 172,169 173,169 172,168 174,166 175,166 176,167 177,167 178,166 180,166 181,167 181,168 180,169 180,170 178,172 177,172 176,173 178,173 179,172 181,172 182,173 183,173 184,172 187,172 189,170 191,170 188,170 187,171 185,169 185,168 184,167 186,165 185,164 186,163 187,163 189,165 190,165 191,164 192,164 193,163 194,164 196,164 197,165 196,166 193,166 193,167 192,168 193,169 194,169 196,167 197,167 198,166 199,167 201,167 202,166 204,168 205,168 206,167 207,167 210,170 209,171 209,172 208,173 206,173 206,174 207,174 208,175 208,176 209,176 211,174 214,174 214,173 215,172 216,172 216,171 215,170 215,169 214,168 214,166 213,166 212,165 212,163 211,164 211,165 212,166 212,167 211,168 209,168 208,167 208,166 209,165 208,165 207,164 207,162 208,161 208,160 210,158 210,157 209,156 210,155 211,155 209,153 208,153 206,151 207,150 208,150 209,151 210,150 209,149 209,148 207,148 205,146 203,148 202,148 201,147 196,147 195,146" /><polygon fill="white" points="40,141" /><polygon fill="white" points="66,111 65,112 66,113 66,115 65,116 63,116 62,115 60,115 58,113 56,113 55,114 55,115 54,116 53,116 52,117 51,117 50,116 49,116 48,117 47,116 45,116 44,117 42,117 36,123 36,124 35,125 35,134 36,135 36,136 37,136 38,135 41,135 44,132 44,131 45,130 45,129 47,127 49,127 50,128 56,128 57,127 62,127 63,128 64,128 65,129 66,128 69,128 70,127 71,127 72,126 72,125 74,123 75,124 76,124 77,123 79,123 77,121 77,120 76,119 76,117 74,115 74,114 73,114 72,113 71,113 70,112 69,112 68,111" /><polygon fill="white" points="129,103 128,104 126,104 126,105 127,106 127,108 128,109 126,111 124,111 124,113 125,113 126,114 127,114 130,117 134,117 135,116 137,116 140,119 141,119 142,120 143,120 144,121 145,121 149,125 150,125 151,126 151,127 153,129 153,130 154,131 154,134 155,135 155,136 156,137 156,141 157,142 158,141 160,141 161,140 161,139 162,138 162,136 163,135 163,129 162,128 162,126 161,125 161,124 160,123 160,122 159,121 159,120 154,115 154,114 153,113 152,113 151,112 150,112 147,109 146,109 144,107 143,107 142,106 140,106 139,105 137,105 136,104 131,104 130,103" /></svg>