<?xml version="1.0" encoding="utf-8" ?>
<svg baseProfile="tiny" height="256" version="1.2" width="256" xmlns="http://www.w3.org/2000/svg" xmlns:ev="http://www.w3.org/2001/xml-events" xmlns:xlink="http://www.w3.org/1999/xlink"><defs /><rect fill="black" height="256" width="256" x="0" y="0" /><polygon fill="white" points="218,231" /><polygon fill="white" points="149,227 148,228 149,228" /><polygon fill="white" points="228,226" /><polygon fill="white" points="149,224 149,225" /><polygon fill="white" points="151,221 150,222" /><polygon fill="white" points="165,216 165,217" /><polygon fill="white" points="227,215 227,216 228,216" /><polygon fill="white" points="168,213" /><polygon fill="white" points="156,213" /><polygon fill="white" points="158,212 159,213" /><polygon fill="white" points="158,208 157,209 158,208 159,208" /><polygon fill="white" points="169,207 169,208 168,209 167,209 168,209 170,207" /><polygon fill="white" points="224,204 224,205 226,205 226,204" /><polygon fill="white" points="165,204 165,205 164,206 164,207 162,209 161,209 161,213 162,212 162,210 163,209 164,209 164,207 165,206" /><polygon fill="white" points="222,203 222,204" /><polygon fill="white" points="211,201 212,201" /><polygon fill="white" points="164,199 164,200 163,201 164,201 165,202 166,201" /><polygon fill="white" points="160,199 160,202 159,203 160,203 161,202 161,200" /><polygon fill="white" points="177,198 178,199" /><polygon fill="white" points="192,196" /><polygon fill="white" points="217,194 217,195" /><polygon fill="white" points="175,194 177,194" /><polygon fill="white" points="210,193" /><polygon fill="white" points="165,193 165,195 164,196 165,196" /><polygon fill="white" points="175,191" /><polygon fill="white" points="210,190 211,190" /><polygon fill="white" points="180,189 179,190 179,191 180,191 181,190 182,190 181,190" /><polygon fill="white" points="176,189" /><polygon fill="white" points="169,188 168,189 168,190 167,191 165,191 167,191 168,192 168,193 170,193 171,192 170,192 169,191" /><polygon fill="white" points="182,186 181,187" /><polygon fill="white" points="193,185 192,186" /><polygon fill="white" points="215,181 215,182" /><polygon fill="white" points="178,181 178,182 182,182 183,181" /><polygon fill="white" points="192,180 192,181" /><polygon fill="white" points="211,179" /><polygon fill="white" points="203,178" /><polygon fill="white" points="178,177" /><polygon fill="white" points="187,176 186,177" /><polygon fill="white" points="181,176" /><polygon fill="white" points="209,175" /><polygon fill="white" points="183,174 183,175 184,174" /><polygon fill="white" points="203,172 203,173" /><polygon fill="white" points="187,170" /><polygon fill="white" points="210,164 210,165 209,166 209,167 211,167 211,166 210,165" /><polygon fill="white" points="173,163" /><polygon fill="white" points="185,160 186,160" /><polygon fill="white" points="212,157 209,160 209,161 208,162 210,160 211,161 211,162 212,162 213,163 213,165 214,165 215,166 215,168 216,169 216,170 217,171 217,172 216,173 215,173 214,172 215,173 215,174 214,175 213,175 213,176 214,176 215,177 220,177 221,178 220,179 218,179 217,180 218,181 217,182 217,184 218,185 219,185 220,186 219,187 219,188 220,188 222,190 221,191 221,192 221,191 222,190 223,191 225,191 226,192 224,194 220,194 220,197 221,197 223,199 224,199 225,200 226,200 228,202 230,202 231,203 230,204 229,204 229,205 233,209 234,209 236,211 235,212 233,212 233,213 234,212 235,212 236,213 236,214 234,216 234,222 240,216 240,214 242,212 242,211 243,210 243,198 242,197 242,196 241,195 239,195 238,196 235,196 234,195 234,193 233,192 232,192 231,191 231,190 230,190 229,189 230,188 231,188 230,187 230,186 229,185 228,185 221,178 221,177 222,176 221,175 221,174 220,173 220,172 218,170 218,169 215,166 215,165 214,165 213,164 213,163 211,161 212,160" /><polygon fill="white" points="202,157 202,158 203,158" /><polygon fill="white" points="174,156" /><polygon fill="white" points="173,154 168,159 168,160 163,165 163,166 162,167 162,168 161,169 161,170 160,171 160,172 158,174 158,175 157,176 157,177 156,178 156,179 155,180 155,181 154,182 154,183 152,185 152,186 151,187 151,188 150,189 150,190 149,191 149,192 148,193 148,194 147,195 147,196 146,197 146,198 145,199 145,201 144,202 144,203 142,205 142,209 141,210 141,212 140,213 140,216 139,217 139,219 138,220 138,221 139,222 139,224 140,225 140,226 141,227 140,228 140,229 145,234 145,235 146,235 148,237 152,237 150,237 148,235 147,235 144,232 144,231 145,230 145,228 146,227 146,226 145,225 146,224 147,224 147,223 148,222 148,220 147,219 147,217 148,216 149,216 151,218 153,218 154,217 156,217 156,216 155,216 153,214 153,213 154,212 154,207 155,206 155,205 156,204 156,201 155,200 155,199 157,197 159,197 159,195 160,194 161,194 160,193 162,191 162,189 163,188 163,187 166,184 168,184 169,183 171,183 172,184 171,183 172,182 173,182 173,181 174,180 175,180 175,175 176,174 177,174 176,174 175,175 174,174 174,173 176,171 178,171 179,170 179,169 177,169 176,170 175,169 174,169 173,170 172,170 172,173 173,173 174,174 173,175 173,176 171,178 171,179 170,180 171,180 172,181 171,182 169,182 166,179 166,183 165,184 165,185 164,186 161,186 161,191 160,192 160,193 158,195 157,194 157,188 158,187 158,185 159,184 161,184 161,182 162,181 162,179 163,178 162,178 161,179 160,178 160,177 161,176 161,173 162,172 163,172 164,173 168,173 169,174 169,175 170,174 169,174 168,173 168,171 169,170 169,168 167,168 166,169 166,170 164,172 163,171 163,169 165,167 164,166 165,165 165,164 168,161 168,160 171,157 173,159 172,158 172,157 171,156" /><polygon fill="white" points="110,153" /><polygon fill="white" points="211,151" /><polygon fill="white" points="207,151 208,152 209,152 210,153 209,154 208,154 207,155 208,155 210,153 211,154 212,154 213,155 213,154 211,154 208,151" /><polygon fill="white" points="193,151" /><polygon fill="white" points="186,150" /><polygon fill="white" points="210,149" /><polygon fill="white" points="181,149 179,151 181,149 182,149" /><polygon fill="white" points="191,146 189,148 185,148 190,148 191,147" /><polygon fill="white" points="112,146" /><polygon fill="white" points="195,145 196,146 201,146 202,147 203,147 205,145 207,147 208,147 207,146 206,146 205,145 200,145 199,146 198,145 197,145 196,146" /><polygon fill="white" points="106,142 106,145 105,146 105,161 106,162 106,163 107,164 108,164 109,165 111,165 112,166 116,166 113,166 112,165 110,165 109,164 108,164 107,163 107,160 106,159 106,158 105,157 105,146 106,145" /><polygon fill="white" points="115,130 114,131 113,131 112,132 112,135 113,135 114,134 115,134 117,132 117,131 116,131" /><polygon fill="white" points="64,108 62,110 58,110 57,109 54,109 51,112 50,112 48,114 46,114 45,115 44,115 43,116 41,116 34,123 34,124 33,125 33,136 34,137 34,139 35,140 35,141 36,142 36,143 38,145 38,146 45,153 46,153 50,157 52,157 54,159 55,159 56,160 57,160 58,161 60,161 61,162 62,162 61,161 60,161 56,157 54,157 51,154 50,154 49,153 48,153 45,150 45,148 42,145 41,145 40,144 40,142 39,141 39,137 40,136 38,136 37,137 36,137 35,136 35,135 34,134 34,125 35,124 35,123 42,116 44,116 45,115 47,115 48,116 49,115 50,115 51,116 52,116 53,115 54,115 54,114 56,112 58,112 60,114 62,114 63,115 65,115 65,113 64,112 66,110 68,110 69,111 70,111 71,112 72,112 73,113 74,113 75,114 75,115 77,117 77,119 78,120 78,121 80,123 79,124 80,125 80,126 78,128 79,128 81,130 82,130 83,131 83,132 84,133 84,135 86,137 86,138 87,139 87,141 88,142 88,145 89,146 89,152 90,151 90,146 89,145 89,142 88,141 88,138 87,137 87,135 86,134 86,132 85,131 85,128 84,127 84,126 83,125 83,124 82,123 82,122 81,121 81,120 80,119 80,118 78,116 78,115 74,111 73,111 72,110 71,110 70,109 69,109 68,108" /><polygon fill="white" points="124,102 123,103 122,103 119,106 118,106 118,107 115,110 115,111 113,113 113,114 112,115 112,116 111,117 111,118 110,119 110,122 109,123 109,127 108,128 108,131 107,132 107,136 107,132 108,131 108,130 109,129 109,126 110,125 110,124 113,121 113,120 114,119 116,119 118,121 118,122 120,122 121,123 121,124 120,125 120,126 124,126 124,122 122,122 121,121 122,120 122,117 120,115 120,114 119,113 120,112 123,112 123,111 124,110 126,110 127,109 126,108 126,106 125,105 125,104 126,103 128,103 129,102 130,102 131,103 136,103 137,104 139,104 140,105 142,105 143,106 144,106 146,108 147,108 150,111 151,111 152,112 153,112 155,114 155,115 160,120 160,121 161,122 161,123 162,124 162,125 163,126 163,128 164,129 164,135 163,136 163,138 162,139 162,140 160,142 158,142 158,143 159,144 159,145 157,147 157,148 150,155 151,154 152,154 153,153 154,153 160,147 160,145 161,144 161,143 162,142 162,141 163,140 163,139 164,138 164,128 163,127 163,125 162,124 162,123 160,121 160,120 156,116 156,115 154,113 154,112 153,111 152,111 151,110 150,110 149,109 148,109 145,106 144,106 143,105 142,105 141,104 139,104 138,103 136,103 135,102" /></svg>