<?xml version="1.0" encoding="utf-8" ?>
<svg baseProfile="tiny" height="256" version="1.2" width="256" xmlns="http://www.w3.org/2000/svg" xmlns:ev="http://www.w3.org/2001/xml-events" xmlns:xlink="http://www.w3.org/1999/xlink"><defs /><rect fill="black" height="256" width="256" x="0" y="0" /><polygon fill="white" points="143,230" /><polygon fill="white" points="146,214 145,215" /><polygon fill="white" points="142,213 142,214 141,215 141,216 142,215" /><polygon fill="white" points="150,208 151,209 151,210 150,211 150,212 151,212 152,211 152,209 151,208" /><polygon fill="white" points="144,207" /><polygon fill="white" points="237,204 236,205 235,205 235,206 236,207 237,207 238,206 238,205" /><polygon fill="white" points="147,203" /><polygon fill="white" points="152,201 152,202 153,203 153,204 155,202 154,202 153,201" /><polygon fill="white" points="232,200 232,201 233,200 234,201 234,202 235,202 235,200 234,201 233,200" /><polygon fill="white" points="149,200 149,201" /><polygon fill="white" points="226,197 226,198 227,197" /><polygon fill="white" points="148,196" /><polygon fill="white" points="235,194 235,195 238,195 239,194 240,194 238,194 237,195 236,195" /><polygon fill="white" points="234,192" /><polygon fill="white" points="153,192 153,194 152,195 152,196 153,196 153,194 154,193 154,192" /><polygon fill="white" points="232,191 231,192 229,192 231,192" /><polygon fill="white" points="220,191 220,193 219,194 220,193 224,193 225,192 223,192 222,191 222,192 221,193 220,192" /><polygon fill="white" points="227,188 227,189" /><polygon fill="white" points="229,184 230,184" /><polygon fill="white" points="223,183 222,184 222,185 223,185" /><polygon fill="white" points="226,181 226,182 227,183 226,182" /><polygon fill="white" points="224,179" /><polygon fill="white" points="158,176 158,177 159,176" /><polygon fill="white" points="178,170" /><polygon fill="white" points="212,168 212,169 213,170 214,169 213,169" /><polygon fill="white" points="217,167 219,169" /><polygon fill="white" points="174,167 173,168 175,168 176,169 177,168 180,168 180,167 178,167 177,168 176,168 175,167" /><polygon fill="white" points="166,167 164,169 164,171 165,170 165,169 166,168 167,169 167,172 167,169 166,168" /><polygon fill="white" points="216,165" /><polygon fill="white" points="214,164" /><polygon fill="white" points="171,163 170,164 171,164" /><polygon fill="white" points="212,161 213,162" /><polygon fill="white" points="210,161 208,163 208,164 209,164 210,163 211,163 210,162" /><polygon fill="white" points="187,160 186,161 188,161 188,160" /><polygon fill="white" points="180,160 180,161 181,161 181,160" /><polygon fill="white" points="199,159 198,160 198,161 197,162 195,162 196,162 197,163 197,164 196,165 194,165 193,164 192,165 191,165 190,164 190,163 190,164 191,165 190,166 189,166 187,164 186,164 187,165 185,167 186,168 186,169 191,169 192,170 191,171 189,171 187,173 184,173 185,174 183,176 182,175 182,174 181,173 179,173 177,175 176,175 175,174 175,173 176,172 175,171 176,172 175,173 175,174 176,175 176,180 175,181 174,181 174,182 173,183 172,183 171,184 169,184 168,185 166,185 165,186 164,185 164,184 165,183 165,179 166,178 169,181 171,181 170,181 169,180 170,179 170,178 172,176 173,177 172,176 172,175 173,174 172,175 170,175 169,176 168,175 168,174 169,173 170,173 169,173 168,174 164,174 161,177 161,178 160,179 159,179 159,180 157,182 157,183 158,183 159,182 159,181 160,180 160,179 162,177 163,177 164,178 163,179 163,181 162,182 162,184 161,185 159,185 159,187 158,188 158,194 159,193 159,192 160,191 160,186 161,185 164,185 165,186 164,187 164,188 163,189 163,191 161,193 162,194 161,195 160,195 160,197 159,198 157,198 156,199 156,200 157,201 157,204 156,205 156,206 155,207 155,212 154,213 154,214 155,215 154,216 155,215 156,215 157,216 157,217 156,218 154,218 153,219 151,219 149,217 148,217 148,219 149,220 149,222 148,223 148,224 147,225 146,225 144,223 143,223 143,225 144,226 144,225 145,224 147,226 147,227 146,228 146,230 145,231 145,232 147,234 148,234 150,236 154,236 155,235 157,235 160,232 166,232 166,231 165,230 168,227 169,227 170,228 172,228 173,229 173,230 177,230 178,229 181,229 182,230 183,229 183,228 184,227 185,227 186,228 186,229 189,229 190,230 190,231 196,231 197,232 204,232 205,231 207,231 208,232 212,232 214,230 219,230 220,229 222,229 223,228 224,228 225,227 226,227 228,225 229,225 230,224 231,224 233,222 233,216 235,214 235,213 234,213 233,214 232,213 232,212 233,211 235,211 234,210 233,210 228,205 228,204 229,203 228,203 226,201 225,201 224,200 223,200 221,198 220,198 219,197 219,196 217,196 216,195 216,193 218,191 218,189 217,188 217,186 216,185 215,185 214,184 215,183 216,183 216,182 217,181 216,180 216,178 215,178 214,177 213,177 212,176 212,175 211,175 209,177 208,177 207,176 207,175 206,175 205,174 205,173 206,172 208,172 208,171 209,170 207,168 206,168 205,169 204,169 202,167 201,168 199,168 198,167 197,168 196,168 194,170 193,170 191,168 192,167 192,166 193,165 196,165 197,164 201,164 201,161" /><polygon fill="white" points="194,157 194,159 196,159 197,158 196,157" /><polygon fill="white" points="188,157" /><polygon fill="white" points="206,156 205,157 204,157 205,158 205,159 206,159 208,157 207,157" /><polygon fill="white" points="177,156 176,157 176,158 177,158 178,157 179,157 179,156" /><polygon fill="white" points="212,155 211,156 210,156 211,157 212,156 213,156" /><polygon fill="white" points="210,151 210,152 211,153 212,153 212,152 211,152" /><polygon fill="white" points="183,149" /><polygon fill="white" points="74,124 73,125 73,126 71,128 70,128 69,129 66,129 65,130 64,129 63,129 62,128 57,128 56,129 50,129 49,128 47,128 46,129 46,130 45,131 45,132 40,137 40,140 41,141 41,144 42,144 46,148 46,150 48,152 49,152 50,153 51,153 54,156 56,156 60,160 61,160 62,161 64,161 65,162 68,162 69,161 72,161 73,160 82,160 83,159 84,159 85,158 85,157 88,154 88,146 87,145 87,142 86,141 86,139 85,138 85,137 83,135 83,133 82,132 82,131 81,131 79,129 78,129 77,128 79,126 79,125 78,124 77,124 76,125 75,125" /><polygon fill="white" points="115,118" /><polygon fill="white" points="120,113 121,114 121,115 123,117 123,120 122,121 124,121 125,122 125,126 124,127 120,127 119,126 119,125 120,124 120,123 118,123 117,122 117,121 116,120 114,120 114,121 111,124 111,125 110,126 110,129 109,130 109,131 108,132 108,136 107,137 107,145 106,146 106,157 107,158 107,159 108,160 108,163 109,163 110,164 112,164 113,165 121,165 122,164 123,164 124,163 125,163 125,162 126,161 126,160 127,159 130,159 131,158 132,158 134,156 136,156 138,154 142,154 143,155 144,155 145,156 147,156 148,155 149,155 156,148 156,147 158,145 158,144 155,141 155,137 154,136 154,135 153,134 153,131 152,130 152,129 150,127 150,126 149,126 145,122 144,122 143,121 142,121 141,120 140,120 137,117 135,117 134,118 130,118 127,115 126,115 125,114 124,114 123,113" /></svg>