<?xml version="1.0" encoding="utf-8" ?>
<svg baseProfile="tiny" height="256" version="1.2" width="256" xmlns="http://www.w3.org/2000/svg" xmlns:ev="http://www.w3.org/2001/xml-events" xmlns:xlink="http://www.w3.org/1999/xlink"><defs /><rect fill="black" height="256" width="256" x="0" y="0" /><polygon fill="white" points="168,228 166,230 167,231 167,232 166,233 160,233 157,236 155,236 154,237 153,237 160,237 161,238 208,238 208,237 207,236 207,235 209,233 212,233 213,232 215,232 216,231 217,231 214,231 212,233 208,233 207,232 206,233 206,234 205,235 204,235 203,236 201,236 200,237 159,237 158,236 160,234 163,234 164,233 168,233 169,234 170,233 172,233 174,231 175,232 182,232 184,230 185,230 186,231 187,230 188,230 189,231 189,232 196,232 197,233 203,233 197,233 196,232 190,232 189,231 189,230 186,230 185,229 185,228 184,228 184,229 182,231 181,230 180,231 179,230 178,230 177,231 173,231 172,230 172,229 170,229 169,228" /><polygon fill="white" points="209,227" /><polygon fill="white" points="175,226 176,227 176,228 177,227 176,226" /><polygon fill="white" points="175,224" /><polygon fill="white" points="164,216" /><polygon fill="white" points="176,213 176,214 177,215 179,215 180,214 179,213" /><polygon fill="white" points="170,212" /><polygon fill="white" points="213,211" /><polygon fill="white" points="165,211" /><polygon fill="white" points="237,205" /><polygon fill="white" points="175,204 176,205 174,207 173,207 172,208 173,208 174,207 176,207 176,205" /><polygon fill="white" points="223,202 224,202" /><polygon fill="white" points="195,199 195,200" /><polygon fill="white" points="242,189 242,191 244,193 244,195 245,196 245,198 247,200 247,198 246,197 246,196 245,195 245,193 244,192 244,191 243,190 243,189" /><polygon fill="white" points="231,185 231,186 232,187 232,188 233,189 233,190 236,193 236,194 237,194 237,193 233,189 233,188 232,187 232,186" /><polygon fill="white" points="213,178" /><polygon fill="white" points="224,177 224,178 225,179 225,180 226,180 227,181 224,178" /><polygon fill="white" points="213,161 214,162 214,163 215,164 216,164 218,166 218,167 220,169 220,170 222,172 222,173 223,174 223,175 224,175 223,174 223,170 224,169 223,168 223,167 224,166 222,168 221,168 220,167 219,167 216,164 216,163 215,162 214,162" /><polygon fill="white" points="229,155 228,156 228,159 227,160 227,161 227,160 228,159 228,158 229,157" /><polygon fill="white" points="138,155 136,157 134,157 132,159 131,159 130,160 127,160 127,161 126,162 126,163 125,164 124,164 123,165 122,165 132,165 133,164 138,164 142,160 143,160 146,157 145,157 144,156 143,156 142,155" /><polygon fill="white" points="212,150 215,153 215,154 215,152 213,150" /><polygon fill="white" points="233,145" /><polygon fill="white" points="212,138 212,140 213,141 213,142 214,142 216,144 216,146 217,147 217,151 218,151 218,149 217,148 217,147 216,146 216,144 215,143 215,141 214,141 213,140 213,139" /></svg>